<svg fill="none" height="32" viewBox="0 0 32 32" width="32" xmlns="http://www.w3.org/2000/svg"><path d="m16.0231 4.79987c6.1987 0 11.2241 5.04169 11.2241 11.26133 0 6.2196-5.0254 11.2613-11.2241 11.2613-6.19879 0-11.22419-5.0417-11.22419-11.2613 0-6.21964 5.0254-11.26133 11.22419-11.26133z" fill="#5d3ede" stroke="#3dd7ac" stroke-width=".111498"/><path d="m7.08417 14.772c-.17556 1.2746-.07578 2.572.29261 3.8048.36838 1.2328.99681 2.3723 1.84291 3.3416.84611.9693 1.89021 1.7459 3.06191 2.2775s2.4437.8058 3.7304.8041c1.2866-.0017 2.5579-.2793 3.7282-.814s2.2123-1.3141 3.0558-2.2857c.8436-.9715 1.469-2.1127 1.8341-3.3464.3651-1.2338.4614-2.5315.2824-3.8056l-2.189.3074c.135.9612.0624 1.9402-.2131 2.8709-.2754.9307-.7472 1.7916-1.3835 2.5245-.6364.733-1.4225 1.321-2.3053 1.7243-.8829.4034-1.8419.6128-2.8126.6141-.9706.0013-1.9302-.2055-2.8141-.6066-.884-.401-1.6716-.9869-2.3099-1.7181-.6383-.7313-1.11237-1.5909-1.39028-2.5209-.2779-.93-.35317-1.9087-.22073-2.8703z" fill="#3dd7ac"/></svg>