<svg fill="none" height="223" viewBox="0 0 142 223" width="142" xmlns="http://www.w3.org/2000/svg"><path d="m109.1 8.89999-.85 1.81051.022.0103.023.0098zm22.5 18.00001 1.671-1.0992zm3 46.2-1.776-.9188-.013.0245-.012.0248zm-10.2 14.1-1.338-1.4866zm-15.9 12.6 1.119 1.658.029-.02.028-.021zm-17.7 14.7 1.4831 1.342.0155-.017.0151-.018zm-5.7 24v2h2v-2zm-43.2 0h-2v2h2zm4.2-33-1.8207-.828-.0059.013-.0057.013zm10.5-15.3 1.3379 1.4866.0039-.0035zm15.6-12.3-1.1094-1.6641-.0243.0162-.0238.0169zm13.2-10.5 1.4621 1.3646zm-1.5-23.7-1.2804 1.5364.0204.017.0207.0164zm-50.4 13.8-1.2225 1.5829 1.4803 1.1432 1.2397-1.4004zm-30.3-23.4-1.52353-1.2957-1.358298 1.5971 1.659378 1.2815zm79.8 139.8-1.4406 1.387.0261.027.0272.027zm0 38.4-1.4142-1.414zm-38.1 0-1.4406 1.387.0261.027.0272.027zm0-38.4 1.4142 1.414zm28.5-169.90001c13.7891 0 25.3821 2.26626 34.85 6.71051l1.7-3.62098c-10.1321-4.7558-22.3391-7.08953144-36.55-7.08953144zm34.895 6.73061c9.718 4.2763 16.885 10.0505 21.634 17.2686l3.342-2.1984c-5.251-7.9819-13.084-14.2077-23.366-18.73144zm21.634 17.2686c4.783 7.2697 7.171 15.2868 7.171 24.1008h4c0-9.586-2.612-18.369-7.829-26.2992zm7.171 24.1008c0 7.9602-1.456 14.6286-4.276 20.0812l3.552 1.8376c3.18-6.1474 4.724-13.479 4.724-21.9188zm-4.301 20.1305c-2.709 5.6112-5.964 10.0872-9.737 13.4829l2.676 2.9732c4.227-3.8043 7.772-8.7283 10.663-14.7171zm-9.737 13.4829c-3.929 3.5365-9.169 7.6914-15.738 12.4691l2.352 3.2345c6.631-4.8218 11.991-9.0669 16.062-12.7304zm-15.681 12.4289c-8.0637 5.4427-14.1283 10.4577-18.0946 15.0507l3.0273 2.614c3.6336-4.207 9.3693-8.992 17.3053-14.349zm-18.0641 15.0157c-4.1969 4.639-6.2169 10.651-6.2169 17.842h4c0-6.409 1.78-11.397 5.1831-15.158zm-6.2169 17.842v7.5h4v-7.5zm2 5.5h-43.2v4h43.2zm-41.2 2v-9.3h-4v9.3zm0-9.3c0-9.214 1.3741-16.822 4.0323-22.898l-3.6646-1.604c-2.9418 6.724-4.3677 14.916-4.3677 24.502zm4.0207-22.872c2.9235-6.432 6.2796-11.2776 10.0172-14.6414l-2.6758-2.9732c-4.2624 3.8362-7.9063 9.1906-10.9828 15.9586zm10.0211-14.6449c4.1257-3.7328 9.2598-7.7834 15.4157-12.1521l-2.315-3.262c-6.2441 4.4313-11.51 8.5806-15.7843 12.4479zm15.3676-12.119c6.0476-4.0317 10.5966-7.6322 13.5527-10.7995l-2.9242-2.7292c-2.6439 2.8327-6.8948 6.2322-12.8473 10.2005zm13.5527-10.7995c3.1721-3.3986 4.7379-7.5981 4.7379-12.4646h-4c0 3.9335-1.2342 7.134-3.6621 9.7354zm4.7379-12.4646c0-5.9317-2.1205-10.7433-6.4607-14.1698l-2.4786 3.1396c3.2598 2.5735 4.9393 6.1619 4.9393 11.0302zm-6.4196-14.1365c-4.0817-3.4013-9.701-4.9635-16.5804-4.9635v4c6.3206 0 10.9013 1.4378 14.0196 4.0364zm-16.5804-4.9635c-13.33 0-25.5364 6.4794-36.5975 18.9743l2.995 2.6514c10.5389-11.9051 21.7325-17.6257 33.6025-17.6257zm-33.8775 18.7171-30.30005-23.4-2.4449 3.1658 30.29995 23.4zm-29.99897-20.5214c17.81217-20.944 40.65077-31.39571 68.67647-31.39571v-4.00000144c-29.1743 0-53.1357 10.94821144-71.72353 32.80431144zm59.37647 132.4043c6.8485 0 12.6308 2.473 17.4594 7.487l2.8812-2.774c-5.5714-5.786-12.3891-8.713-20.3406-8.713zm17.5127 7.541c5.0143 4.828 7.4873 10.61 7.4873 17.459h4c0-7.951-2.927-14.769-8.7127-20.341zm7.4873 17.459c0 7.067-2.4872 13.059-7.5142 18.086l2.8284 2.828c5.773-5.773 8.6858-12.781 8.6858-20.914zm-7.5142 18.086c-4.8223 4.822-10.6125 7.214-17.4858 7.214v4c7.9267 0 14.7365-2.808 20.3142-8.386zm-17.4858 7.214c-6.8751 0-12.78-2.394-17.8127-7.241l-2.7746 2.882c5.7673 5.553 12.6624 8.359 20.5873 8.359zm-17.7594-7.187c-4.8356-5.022-7.2406-11.022-7.2406-18.113h-4c0 8.109 2.795 15.109 8.3594 20.887zm-7.2406-18.113c0-6.873 2.3919-12.663 7.2142-17.486l-2.8284-2.828c-5.5777 5.577-8.3858 12.387-8.3858 20.314zm7.2142-17.486c5.0384-5.038 10.9349-7.514 17.7858-7.514v-4c-7.9491 0-14.8526 2.924-20.6142 8.686z" fill="#3dd7ac"/></svg>