<svg width="912" height="350" viewBox="0 0 912 350" fill="none" xmlns="http://www.w3.org/2000/svg">
<g filter="url(#filter0_d)">
<path d="M43.6192 251.237C41.0926 252.18 39.2046 252.919 37.9551 253.455C36.7056 253.992 35.6482 254.147 34.7828 253.921C33.9174 253.694 32.9832 253.142 31.9801 252.264C31.08 251.227 29.6783 249.752 27.7751 247.837C27.246 247.267 26.8372 246.945 26.5488 246.869C26.2328 246.663 25.9305 246.523 25.6421 246.447C25.4841 246.344 25.2608 246.255 24.9724 246.18C24.6564 245.974 24.1686 245.6 23.5091 245.058C24.6209 243.869 25.7776 243.216 26.9793 243.099C28.1534 242.851 29.911 242.139 32.252 240.964L47.0176 231.51C48.4454 230.527 49.1622 229.081 49.168 227.172C49.3043 225.236 49.5471 223.481 49.8964 221.908C51.1836 215.096 52.4984 208.413 53.8407 201.861C55.1554 195.179 56.3259 188.459 57.3522 181.701C57.4827 181.674 57.6508 181.502 57.8567 181.186L58.011 180.949C58.011 180.949 57.582 181.176 56.7238 181.629C55.9686 181.925 55.2134 182.221 54.4582 182.517C53.8059 182.654 53.4008 182.672 53.2428 182.569C53.0572 182.335 53.5479 181.755 54.7148 180.827C55.1815 180.456 55.1163 180.47 54.5191 180.868C54.0248 181.109 53.2971 181.535 52.3361 182.147C51.3751 182.759 50.414 183.37 49.453 183.982C48.5949 184.436 48.1658 184.663 48.1658 184.663C47.5135 184.8 46.7206 185.24 45.7871 185.982C44.9565 186.567 44.0745 187.23 43.141 187.972C42.3379 188.687 41.5864 189.322 40.8862 189.879C40.1861 190.435 39.6918 190.676 39.4034 190.601C39.3758 190.47 38.9982 190.618 38.2705 191.044C37.6458 191.312 36.9834 191.725 36.2832 192.281C35.5556 192.707 34.9584 193.106 34.4916 193.477C34.0249 193.848 34.0009 194.058 34.4199 194.106C34.5503 194.078 34.6945 194.116 34.8525 194.219C34.0495 194.933 33.2704 195.438 32.5152 195.734L29.0754 196.869C28.7116 197.082 28.0492 197.495 27.0881 198.106C26.23 198.56 25.3204 199.093 24.3594 199.704C23.3708 200.186 22.5127 200.639 21.785 201.065C21.1602 201.334 20.8203 201.337 20.7652 201.076C20.9711 200.76 20.5522 200.712 19.5085 200.933C18.5953 201.126 18.0082 201.25 17.7473 201.305C17.3559 201.387 17.7575 201.03 18.9519 200.233C20.1463 199.435 21.5364 198.597 23.1222 197.717C24.6804 196.707 26.0705 195.868 27.2925 195.201C28.4869 194.404 28.8884 194.047 28.4971 194.129C27.8999 194.528 26.9765 194.996 25.727 195.532C24.45 195.938 23.1215 196.423 21.7415 196.986C20.334 197.42 18.9265 197.853 17.519 198.287C16.242 198.693 15.2121 198.978 14.4293 199.143C13.9075 199.254 13.4371 199.285 13.0182 199.237C12.7298 199.161 12.7537 198.952 13.09 198.608C14.2844 197.811 14.8026 197.361 14.6446 197.258C14.6171 197.128 14.2909 197.197 13.6662 197.465C13.0139 197.602 12.3239 197.884 11.5962 198.311C10.841 198.606 10.3982 198.768 10.2677 198.795C9.26466 197.917 8.39204 197.011 7.64989 196.078C6.74973 195.041 5.87711 194.135 5.03204 193.36C7.63395 192.129 10.4279 190.517 13.414 188.524C16.5305 186.503 19.7637 184.39 23.1135 182.184C26.4359 179.847 29.7857 177.641 33.1632 175.565C36.6435 173.332 40.1927 171.424 43.8107 169.843L63.3251 160.613C64.2586 159.871 64.6086 159.592 64.3753 159.778C64.2448 159.805 64.6086 159.592 65.4668 159.139L107.803 141.82C111.345 140.527 115.125 139.389 119.142 138.405C123.261 137.262 126.989 136.203 130.326 135.226C131.864 134.765 134.12 134.152 137.093 133.389C140.038 132.494 143.207 131.689 146.599 130.973C150.093 130.099 153.63 129.42 157.207 128.938C160.757 128.325 164.036 128.041 167.044 128.088C170.051 128.134 172.513 128.5 174.43 129.186C176.346 129.871 177.353 131.09 177.45 132.841C177.128 134.544 176.147 135.705 174.506 136.324C172.995 136.915 171.131 137.445 168.913 137.913C167.87 138.134 166.775 138.433 165.628 138.811C164.584 139.032 163.41 139.28 162.106 139.555C161.248 140.009 160.376 140.397 159.49 140.72C158.604 141.044 157.248 141.398 155.422 141.784C153.204 142.252 151.769 142.555 151.117 142.692C150.595 142.803 150.413 142.909 150.571 143.012C150.701 142.984 150.976 142.995 151.395 143.042C151.944 143.063 152.233 143.138 152.26 143.269C149.418 144.005 146.836 144.686 144.516 145.312C142.456 145.884 140.461 146.441 138.532 146.984C136.575 147.398 135.284 147.738 134.659 148.006C133.019 148.625 131.704 149.175 130.715 149.657C129.857 150.11 129.246 150.444 128.882 150.657C128.649 150.842 128.714 150.829 129.078 150.615C129.572 150.375 130.403 149.791 131.57 148.863C131.542 148.733 131.02 148.843 130.004 149.193C129.091 149.386 127.996 149.686 126.719 150.091C125.572 150.47 124.491 150.834 123.475 151.185C122.459 151.536 121.951 151.711 121.951 151.711C121.175 152.556 119.85 153.381 117.976 154.186C116.232 154.963 114.797 155.266 113.671 155.095C113.225 154.916 112.088 155.02 110.262 155.405C108.435 155.791 106.767 156.279 105.256 156.871C104.007 157.407 103.186 157.717 102.795 157.799C102.143 157.937 101.714 158.164 101.508 158.48C100.89 159.428 100.046 159.947 98.9749 160.037C98.0066 159.969 96.8839 160.137 95.6069 160.543C91.625 162.338 87.8388 164.091 84.2483 165.803C80.6578 167.515 77.4725 169.209 74.6923 170.886C74.9894 174.23 74.7444 178.234 73.9573 182.897C73.1702 187.56 72.2664 192.316 71.2459 197.165C70.1979 201.883 69.2014 206.522 68.2562 211.083C67.4416 215.615 67.0111 219.385 66.9647 222.393C71.0089 221.539 74.2703 220.851 76.749 220.328C79.2002 219.674 81.4694 219.127 83.5568 218.686C85.7745 218.218 88.1503 217.853 90.6841 217.59C93.3208 217.17 96.7953 216.845 101.108 216.616C103.408 216.539 105.2 216.638 106.485 216.912C107.899 217.158 108.971 218.363 109.701 220.526C109.111 221.604 108.726 222.367 108.548 222.813C108.342 223.129 108.123 223.38 107.889 223.565C107.656 223.751 107.278 223.899 106.757 224.009C106.365 224.091 105.61 224.387 104.491 224.896C100.976 226.319 98.463 227.327 96.9526 227.918C95.4146 228.379 94.0724 228.799 92.9258 229.177C91.7517 229.425 90.3304 229.793 88.662 230.282C86.966 230.64 84.3192 231.335 80.7214 232.367C76.3409 233.564 72.9527 234.62 70.5566 235.535C68.2634 236.291 66.4305 237.292 65.0578 238.535C63.788 239.621 62.8617 241.043 62.279 242.801C61.6963 244.559 61.0556 247.011 60.3569 250.157C59.2958 256.104 58.1594 262.34 56.9476 268.865C55.8387 275.231 54.8087 281.649 53.8578 288.118C53.8854 288.248 53.8339 288.327 53.7035 288.355L53.3121 288.438C52.3032 289.468 51.6857 290.416 51.4596 291.282C51.3639 292.119 51.3849 292.864 51.5226 293.517C51.6603 294.169 51.798 294.821 51.9357 295.474C52.2039 296.098 52.1974 296.713 51.9162 297.317C51.7654 297.894 51.6219 299.151 51.4856 301.088C51.3494 303.024 51.3776 304.449 51.5704 305.362C51.4472 306.07 51.324 306.777 51.2008 307.484C51.2356 308.295 51.1914 309.054 51.0681 309.761C50.8435 313.215 50.8007 316.563 50.9398 319.804C51.2094 323.018 51.266 325.867 51.1094 328.353C50.0715 326.665 49.6997 324.903 49.994 323.07C50.4463 321.339 50.397 319.169 49.8462 316.56C49.5708 315.255 49.4367 314.943 49.4439 315.623C49.4512 316.303 49.462 317.322 49.4765 318.682C49.649 320.145 49.6911 321.635 49.6026 323.152C49.6722 324.773 49.6178 325.806 49.4396 326.253C49.2888 326.83 49.1417 327.747 48.9982 329.003C49.0127 330.363 48.9206 331.541 48.722 332.537C48.6814 333.635 48.5444 334.278 48.3111 334.463C48.0777 334.649 47.7958 333.959 47.4653 332.393C47.1623 330.958 47.1174 330.423 47.3305 330.786C47.674 331.123 47.4754 332.118 46.7347 333.774C46.5289 334.09 46.3056 334.001 46.065 333.506C45.9824 333.115 45.8722 332.593 45.7345 331.941C45.5968 331.289 45.4591 330.636 45.3214 329.984C45.1837 329.332 45.0873 328.875 45.0322 328.614L43.3385 320.591C43.6617 321.477 43.532 322.799 42.9493 324.557C42.497 326.288 42.5702 328.248 43.1689 330.438C43.2515 330.83 43.2 330.909 43.0145 330.675C42.9594 330.415 42.863 329.958 42.7253 329.306C42.6151 328.784 42.4122 328.145 42.1165 327.39C41.9788 326.738 41.8686 326.216 41.786 325.825C41.5657 324.781 41.2388 323.555 40.8054 322.148C40.3996 320.871 39.9799 319.529 39.5465 318.121C39.1131 316.714 38.7587 315.357 38.4833 314.053C38.2354 312.879 38.1593 311.873 38.255 311.035C38.3507 310.197 38.4463 309.359 38.542 308.521C38.6652 307.814 38.658 307.134 38.5203 306.482C38.5478 306.612 38.4623 307.176 38.2637 308.171C38.1956 309.14 38.0347 309.991 37.781 310.726C37.5549 311.592 37.3766 312.038 37.2461 312.066C37.1157 312.093 37.0809 311.283 37.1418 309.635C37.278 307.698 37.3012 306.194 37.2114 305.123C37.1215 304.052 37.0454 303.046 36.9831 302.105C37.0512 301.137 37.1056 300.103 37.1461 299.005C37.3172 297.878 37.6013 296.319 37.9985 294.328C38.1014 294.17 38.1492 293.751 38.142 293.071C38.2652 292.364 38.3232 291.67 38.3159 290.99C38.4116 290.152 38.4181 289.538 38.3355 289.146C38.2253 288.624 38.0536 288.456 37.8202 288.642C37.9159 287.804 38.0768 286.952 38.3029 286.087C38.5015 285.091 38.6725 283.965 38.816 282.708C38.9784 278.313 39.4502 274.739 40.2315 271.985C41.0129 269.23 41.3963 267.174 41.3818 265.814C41.505 265.107 41.6521 264.19 41.8232 263.063C41.9942 261.937 42.1653 260.811 42.3363 259.685C42.5421 259.369 42.6313 259.145 42.6037 259.015L43.6192 251.237ZM66.5211 239.657C68.6215 237.987 70.2587 237.028 71.4328 236.781C72.7099 236.375 74.4297 235.807 76.5924 235.078C77.6086 234.727 78.8204 234.335 80.2279 233.902C81.7658 233.441 82.8573 232.802 83.5024 231.984C84.7794 231.578 85.8608 231.214 86.7464 230.89C87.5016 230.595 88.2191 230.443 88.899 230.436C89.5513 230.298 89.7607 230.322 89.5273 230.508C88.9577 231.037 88.7518 231.353 88.9098 231.456C89.0403 231.428 89.3527 231.294 89.847 231.054C90.3413 230.813 90.9008 230.559 91.5255 230.29C92.2532 229.864 92.9294 229.517 93.5542 229.249C95.8473 228.492 97.9346 228.052 99.8161 227.927C101.698 227.802 103.72 227.375 105.882 226.646C106.665 226.481 106.73 226.467 106.078 226.605C105.426 226.743 104.526 227.001 103.38 227.379C102.364 227.73 101.282 228.094 100.136 228.473C98.9616 228.721 98.2441 228.872 97.9832 228.927C97.7223 228.982 96.9018 229.292 95.5219 229.856C94.2724 230.392 92.8924 230.956 91.382 231.547C89.8441 232.008 88.5018 232.428 87.3552 232.806C86.3391 233.157 85.934 233.174 86.1398 232.858C86.579 232.357 86.421 232.254 85.6658 232.549C85.0135 232.687 84.1931 232.997 83.2045 233.478C82.1884 233.829 81.186 234.245 80.1974 234.726C79.3393 235.18 78.845 235.42 78.7146 235.448C76.6272 235.888 75.0893 236.349 74.1007 236.831C73.0846 237.181 71.7836 237.797 70.1978 238.677C70.0949 238.835 69.5216 239.024 68.4779 239.244C67.4067 239.334 66.7544 239.472 66.5211 239.657ZM117.83 151.559C117.569 151.614 117.192 151.762 116.698 152.003C116.203 152.243 115.709 152.484 115.215 152.725L113.34 153.529C114.384 153.309 115.623 153.047 117.059 152.744C118.596 152.283 119.65 151.788 120.22 151.259C121.256 150.359 122.609 149.665 124.277 149.176C126.076 148.66 127.628 148.264 128.932 147.989C129.715 147.824 130.354 147.621 130.848 147.38C131.445 146.982 131.939 146.741 132.331 146.658C132.461 146.631 132.475 146.696 132.372 146.854C132.4 146.984 132.297 147.142 132.063 147.328C131.96 147.486 131.858 147.644 131.755 147.802C131.755 147.802 131.871 147.709 132.105 147.524C132.674 146.995 133.076 146.637 133.309 146.452C133.673 146.239 133.92 146.118 134.051 146.091C134.312 146.036 134.573 145.981 134.833 145.926C135.225 145.843 135.747 145.733 136.399 145.595C137.285 145.272 138.627 144.852 140.426 144.336C142.197 143.69 143.278 143.325 143.67 143.242C142.626 143.463 141.112 143.714 139.128 143.997C137.274 144.252 135.918 144.606 135.06 145.06C133.055 145.892 131.414 146.511 130.137 146.917C128.86 147.323 127.178 147.746 125.09 148.187C124.438 148.324 123.875 148.239 123.401 147.93C123.03 147.463 122.783 147.584 122.66 148.291C122.639 148.841 121.953 149.462 120.6 150.157C119.379 150.823 118.52 151.277 118.026 151.518L117.83 151.559ZM40.3601 188.355C40.2296 188.382 40.1919 188.526 40.247 188.787C40.4325 189.021 40.5115 189.072 40.484 188.942C40.8478 188.729 41.1189 188.399 41.2972 187.952C41.6059 187.478 41.8908 187.214 42.1517 187.159C43.0373 186.835 43.6483 186.502 43.9846 186.159C44.4514 185.787 44.8667 185.495 45.2305 185.282C45.6972 184.911 46.1778 184.605 46.6721 184.365C47.2693 183.966 48.0897 183.657 49.1334 183.436C49.3943 183.381 50.2249 182.797 51.6251 181.684C52.9978 180.44 53.7219 179.674 53.7972 179.386C53.6668 179.413 52.9667 179.97 51.6969 181.055C50.3995 182.011 49.0986 182.626 47.794 182.901C46.3865 183.335 45.3088 184.039 44.5608 185.015C43.7853 185.86 43.0576 186.286 42.3778 186.293C41.3341 186.514 40.9189 186.806 41.1319 187.17C41.345 187.533 41.0877 187.928 40.3601 188.355ZM114.924 189.171C115.157 188.985 115.772 188.992 116.768 189.19C117.867 189.231 118.546 189.223 118.807 189.168C120.867 188.597 123.051 188.613 125.359 189.216C126.093 189.47 126.307 189.834 125.998 190.308C125.792 190.624 125.655 191.266 125.587 192.234C125.519 193.202 125.526 193.882 125.609 194.274C125.691 194.665 125.76 194.991 125.815 195.252C125.87 195.513 125.795 195.801 125.589 196.117C125.514 196.406 125.298 196.997 124.941 197.889C124.426 198.679 124.032 199.717 123.758 201.001C123.457 202.155 123.118 203.453 122.741 204.895C122.494 206.31 122.169 207.673 121.764 208.985C121.49 210.269 121.161 211.293 120.777 212.055C121.066 212.13 121.742 211.783 122.806 211.014C123.842 210.113 124.426 209.65 124.556 209.622C125.153 209.223 125.685 208.839 126.152 208.467C126.722 207.938 127.319 207.54 127.944 207.272C128.932 206.79 130 206.361 131.146 205.982C132.396 205.446 133.622 205.119 134.823 205.002C135.95 205.173 136.684 205.426 137.028 205.763L138.45 206.689C138.979 207.259 139.35 207.725 139.563 208.089C139.879 208.295 140.078 208.594 140.161 208.985C140.347 209.218 140.429 209.61 140.409 210.159C140.519 210.681 140.489 211.505 140.318 212.631C140.264 214.959 140.197 217.222 140.115 219.419C140.034 221.617 139.902 223.893 139.718 226.249C139.657 227.897 139.637 229.741 139.659 231.78C139.681 233.82 139.582 235.612 139.363 237.157C139.199 238.963 139.063 240.9 138.954 242.967C138.976 245.007 138.919 246.995 138.782 248.931C139.462 248.924 139.802 248.92 139.802 248.92C139.905 248.762 140.046 248.46 140.224 248.014C141.233 246.983 141.902 245.956 142.231 244.933C142.718 244.012 143.219 243.157 143.733 242.367C144.248 241.577 144.763 240.787 145.277 239.997C146.231 238.705 147.133 237.493 147.984 236.359C148.807 235.095 149.566 233.845 150.258 232.609C151.418 231.001 152.526 229.473 153.583 228.023C154.612 226.443 155.72 224.915 156.908 223.438C157.861 222.146 158.829 220.92 159.81 219.759C160.922 218.57 161.955 217.33 162.909 216.038C163.423 215.248 163.849 214.682 164.185 214.338C164.391 214.022 164.61 213.771 164.844 213.586C165.18 213.242 165.451 212.913 165.657 212.597C167.386 210.46 169.329 208.687 171.484 207.278C172.377 207.635 172.697 208.181 172.443 208.915C172.141 210.069 171.891 211.144 171.693 212.14C171.494 213.136 171.244 214.211 170.943 215.364C170.737 215.68 170.545 216.062 170.366 216.508C170.188 216.955 169.931 217.35 169.595 217.693C167.275 220.908 165.049 224.24 162.915 227.688C160.912 231.109 158.792 234.623 156.555 238.229C154.984 240.469 153.478 242.695 152.037 244.907C150.727 247.091 149.365 249.354 147.952 251.697C146.614 253.751 144.778 255.706 142.444 257.561C140.652 258.757 138.435 259.225 135.791 258.966C135.502 258.89 135.214 258.815 134.925 258.739C134.767 258.637 134.479 258.561 134.06 258.513C132.934 258.342 131.896 257.948 130.948 257.33C130.103 256.555 129.557 255.58 129.309 254.406C128.683 252.085 128.448 249.682 128.605 247.196C128.816 244.971 128.99 242.89 129.126 240.954C129.235 238.887 129.279 236.833 129.257 234.794C129.38 234.086 129.503 233.379 129.627 232.672C129.75 231.964 129.598 231.247 129.172 230.519C128.884 230.444 128.894 230.169 129.203 229.695C129.243 228.596 129.27 227.432 129.283 226.203C129.427 224.946 129.519 223.769 129.559 222.67C129.6 221.571 129.589 220.551 129.527 219.611C129.567 218.512 129.673 217.399 129.844 216.273C128.986 216.727 128.557 216.954 128.557 216.954C126.361 219.461 123.859 221.489 121.051 223.035C119.232 224.101 117.316 224.709 115.304 224.862C114.233 224.951 113.279 224.949 112.441 224.853C111.576 224.627 110.696 224.335 109.804 223.979C109.618 223.745 109.237 223.553 108.66 223.403C107.664 223.204 106.953 222.741 106.527 222.013C105.943 221.183 105.41 220.273 104.929 219.285C104.791 218.632 104.76 218.162 104.835 217.873C105.082 216.459 105.263 215.058 105.379 213.67C105.495 212.283 105.755 210.934 106.159 209.622C106.591 208.441 106.972 207.338 107.301 206.315C107.472 205.189 107.787 204.1 108.247 203.049C108.295 202.63 108.421 202.263 108.627 201.947C108.806 201.5 108.984 201.054 109.162 200.607C109.546 199.845 109.814 199.175 109.964 198.598C110.088 197.891 110.341 197.156 110.725 196.394C111.597 194.711 112.121 193.646 112.3 193.199C112.581 192.595 112.773 192.214 112.876 192.056C113.082 191.74 113.288 191.424 113.493 191.108C113.699 190.792 114.176 190.146 114.924 189.171ZM160.501 227.789C160.624 227.082 160.761 226.44 160.912 225.863C161.063 225.286 161.2 224.644 161.323 223.936C162.488 220.42 163.654 216.903 164.819 213.387C165.957 209.74 167.253 206.195 168.707 202.754C168.885 202.308 169.115 201.782 169.396 201.178C169.677 200.573 169.619 199.973 169.22 199.375C169.165 199.115 169.292 198.747 169.601 198.273C170.135 196.934 170.883 195.958 171.844 195.346C172.908 194.577 174.079 193.989 175.356 193.583C175.72 193.37 176.097 193.222 176.489 193.14C177.011 193.029 177.44 192.803 177.776 192.459C178.682 191.586 179.633 191.249 180.629 191.448C181.755 191.619 182.844 191.934 183.894 192.394C185.206 192.798 185.715 193.917 185.421 195.751C185.057 195.964 184.707 196.242 184.371 196.586C184.007 196.799 183.591 197.091 183.125 197.462C182.061 198.232 181.285 199.077 180.798 199.997C179.797 201.708 178.874 203.47 178.03 205.283C177.29 206.938 176.563 208.659 175.849 210.445C175.342 211.915 174.835 213.384 174.327 214.854C173.793 216.194 173.179 217.482 172.486 218.718C171.999 219.638 171.591 220.61 171.262 221.634C171.063 222.63 170.864 223.625 170.666 224.621C170.982 224.827 171.191 224.851 171.294 224.693C171.397 224.535 171.435 224.391 171.407 224.26C172.457 222.131 173.52 220.067 174.597 218.068C175.777 215.911 176.892 213.768 177.941 211.639C178.147 211.323 178.339 210.941 178.517 210.495C178.826 210.021 179.083 209.626 179.289 209.31C180.504 207.963 181.454 206.332 182.14 204.416C182.346 204.1 182.435 203.876 182.407 203.746C182.51 203.588 182.678 203.416 182.912 203.231C183.481 202.701 183.697 202.111 183.56 201.458C183.504 201.198 183.542 201.053 183.673 201.026C183.776 200.868 183.865 200.645 183.94 200.356C184.146 200.04 184.338 199.659 184.516 199.212C184.825 198.738 185.082 198.343 185.288 198.027C185.803 197.237 186.266 196.526 186.678 195.894C187.089 195.262 187.487 194.565 187.871 193.803C188.152 193.198 188.513 192.645 188.952 192.144C189.055 191.986 189.171 191.893 189.302 191.865C189.432 191.838 189.614 191.731 189.848 191.546C190.109 191.491 190.318 191.515 190.476 191.618C190.634 191.721 190.764 191.693 190.867 191.535C191.643 190.69 192.45 190.315 193.287 190.411C194.125 190.507 194.963 190.602 195.801 190.698C197.635 190.992 198.758 192.118 199.171 194.075C199.439 194.699 199.591 195.417 199.625 196.227C199.763 196.879 199.836 197.545 199.843 198.225C199.962 202.016 200.002 205.755 199.962 209.443C200.054 213.103 200.08 216.776 200.041 220.464C199.794 221.879 199.912 223.08 200.393 224.069C200.99 223.67 201.536 223.351 202.03 223.11C202.627 222.712 203.132 222.196 203.543 221.564C207.702 216.734 211.645 212.495 215.372 208.847C219.098 205.198 222.822 201.21 226.541 196.882C228.12 195.322 229.75 193.683 231.431 191.966C233.215 190.09 234.948 188.293 236.63 186.576C238.311 184.858 239.876 183.233 241.324 181.701C242.903 180.141 244.262 178.832 245.401 177.774C245.943 177.114 246.592 176.637 247.347 176.341C247.477 176.314 247.78 176.454 248.254 176.763L247.862 176.846L247.945 177.237C248.151 176.921 248.254 176.763 248.254 176.763C248.281 176.893 248.388 177.075 248.573 177.309C248.731 177.412 248.824 177.528 248.852 177.659C248.701 178.236 248.485 178.826 248.204 179.431C248.025 179.877 247.875 180.454 247.751 181.162C247.066 183.078 245.731 185.472 243.749 188.343C241.868 191.057 239.638 194.049 237.058 197.319C234.581 200.431 231.857 203.663 228.885 207.016C226.044 210.341 223.254 213.588 220.516 216.755C217.75 219.792 215.153 222.657 212.723 225.35C210.397 227.885 208.51 229.919 207.061 231.451C205.95 232.639 204.405 233.715 202.428 234.677C202.064 234.891 201.687 235.038 201.295 235.121C200.876 235.073 200.536 235.077 200.275 235.132C196.43 234.99 193.194 233.22 190.569 229.822C190.095 229.513 189.92 229.005 190.043 228.298C190.324 227.694 190.41 227.13 190.3 226.609C190.162 225.956 190.155 225.276 190.278 224.569L189.998 220.336C189.9 218.585 189.803 216.834 189.706 215.083C189.74 213.304 189.708 211.539 189.611 209.788L189.445 209.005C188.848 209.404 188.268 210.208 187.706 211.417C186.91 212.811 186.18 214.192 185.514 215.559C184.821 216.795 184.091 218.176 183.322 219.701C182.657 221.068 181.992 222.435 181.326 223.802C180.634 225.038 180.099 226.377 179.722 227.82C179.064 229.866 178.248 231.81 177.274 233.651C176.43 235.464 175.535 237.357 174.588 239.328C174.026 240.537 173.384 241.695 172.664 242.801C171.944 243.907 170.986 244.858 169.792 245.655C167.403 247.25 165.013 247.55 162.623 246.556C162.177 246.377 161.823 246.316 161.562 246.371C161.143 246.323 160.789 246.261 160.501 246.186C159.999 245.747 159.577 245.359 159.233 245.023C158.89 244.686 158.56 244.415 158.244 244.209C157.427 243.564 157.066 242.823 157.161 241.985C157.024 241.333 156.992 240.862 157.068 240.574C157.465 238.582 157.89 236.721 158.342 234.99C158.767 233.129 159.27 231.319 159.853 229.561C159.956 229.403 160.073 229.31 160.203 229.283C160.203 229.283 160.255 229.204 160.358 229.046L160.162 229.087C160.402 229.581 160.499 230.038 160.451 230.457C160.245 230.773 160.118 231.14 160.071 231.559C159.337 233.895 158.734 236.202 158.261 238.482C158.008 239.217 158.08 239.883 158.479 240.481C159.109 238.303 159.689 236.205 160.216 234.186C160.716 232.036 161.216 229.887 161.716 227.737C161.84 227.03 161.977 226.387 162.127 225.811C162.278 225.234 162.415 224.591 162.538 223.884C163.472 223.142 163.801 222.119 163.526 220.814C164.123 220.415 164.473 220.137 164.576 219.979C164.521 219.718 164.359 219.275 164.091 218.651C164.51 218.698 164.757 218.578 164.832 218.29C164.88 217.871 165.021 217.569 165.254 217.383C165.329 217.095 165.34 216.82 165.285 216.559C165.202 216.168 165.198 215.828 165.274 215.539C165.871 215.141 166.087 214.55 165.922 213.767C166.127 213.451 166.347 213.2 166.58 213.015C166.786 212.699 166.992 212.383 167.198 212.067C167.143 211.806 167.074 211.48 166.991 211.088C166.909 210.697 166.709 210.398 166.393 210.193C167.156 210.577 167.557 210.219 167.598 209.121C167.392 209.437 167.238 209.674 167.135 209.832C167.004 209.859 166.836 210.031 166.63 210.347C166.686 210.608 166.754 210.934 166.837 211.325C166.762 211.614 166.882 211.861 167.198 212.067C166.285 212.26 165.859 212.826 165.922 213.767C165.324 214.166 165.108 214.756 165.274 215.539C164.937 215.883 164.876 216.236 165.089 216.6C165.274 216.834 165.329 217.095 165.254 217.383C164.835 217.335 164.574 217.39 164.471 217.548C164.368 217.706 164.255 218.139 164.132 218.846C163.562 219.375 163.36 220.031 163.526 220.814C163.217 221.288 162.973 221.748 162.795 222.195C162.486 222.669 162.401 223.232 162.538 223.884L161.736 225.893C161.427 226.367 161.095 227.051 160.738 227.944L160.501 227.789ZM170.344 201.795C170.241 201.953 170.152 202.177 170.077 202.465C170.104 202.596 170.029 202.884 169.851 203.33L170.622 202.146C170.595 202.015 170.502 201.898 170.344 201.795ZM168.863 206.401C168.733 206.428 168.668 206.442 168.668 206.442C168.64 206.311 168.561 206.26 168.431 206.288C168.328 206.446 168.29 206.59 168.318 206.72C168.318 206.72 168.266 206.799 168.163 206.957C168.191 207.088 168.284 207.204 168.442 207.307L168.637 207.266C168.582 207.005 168.658 206.717 168.863 206.401ZM169.316 204.67L169.357 204.866C169.46 204.708 169.511 204.629 169.511 204.629L169.47 204.433C169.34 204.46 169.288 204.539 169.316 204.67ZM284.798 167.208C286.845 167.867 288.009 169.188 288.292 171.172C288.457 171.955 288.547 173.026 288.562 174.386C288.604 175.876 288.618 177.236 288.605 178.465C288.592 179.694 288.593 180.988 288.607 182.348C288.567 183.447 288.512 184.48 288.444 185.449C288.506 186.389 288.504 187.344 288.435 188.312C288.251 190.668 288.016 193.102 287.729 195.616C287.414 197.999 287.165 200.368 286.981 202.723C286.659 204.427 286.547 206.154 286.644 207.905C286.741 209.656 286.852 211.472 286.976 213.354C286.86 214.741 287.163 216.176 287.885 217.659C288.153 218.283 288.226 218.95 288.103 219.657C287.952 220.234 287.815 220.876 287.692 221.583C285.976 222.491 284.142 222.196 282.191 220.701C278.818 218.278 276.746 215.241 275.975 211.588C275.651 210.702 275.458 209.789 275.396 208.848C275.464 207.88 275.467 206.926 275.405 205.985C275.445 204.886 275.421 203.801 275.331 202.73C275.344 201.501 275.501 200.309 275.803 199.155C275.878 198.867 275.837 198.671 275.679 198.568C275.624 198.307 275.541 197.916 275.431 197.394C275.225 197.71 274.992 197.896 274.731 197.951C274.6 197.978 274.484 198.071 274.381 198.229C273.51 199.912 272.559 201.544 271.53 203.124C270.632 204.676 269.602 206.256 268.443 207.863C267.366 209.862 266.196 211.745 264.933 213.51C263.671 215.276 262.422 217.106 261.187 219.002C259.952 220.898 258.518 222.496 256.884 223.795C255.278 225.224 253.39 225.963 251.22 226.012C249.263 226.425 247.536 226.313 246.039 225.675C244.541 225.037 243.054 224.125 241.577 222.938C239.756 221.414 238.523 219.767 237.876 217.996C237.099 216.252 236.635 214.374 236.483 212.362C236.496 211.133 236.574 209.89 236.718 208.633C236.703 207.273 236.781 206.03 236.952 204.904C237.192 202.81 237.445 200.78 237.711 198.816C237.95 196.722 238.203 194.692 238.47 192.728C238.819 191.155 239.169 189.583 239.518 188.01C239.867 186.437 240.217 184.864 240.566 183.292C240.737 182.165 240.847 181.393 240.894 180.974C240.812 180.582 240.595 179.879 240.244 178.863C240.601 177.97 241.421 177.66 242.706 177.934C244.065 177.92 244.937 177.531 245.321 176.769C246.001 176.762 246.513 176.926 246.856 177.262C247.172 177.468 247.657 177.502 248.309 177.365C249.408 177.405 250.328 177.892 251.07 178.826C251.812 179.759 252.046 180.868 251.772 182.152C251.725 182.571 251.639 183.134 251.516 183.842C251.496 184.391 251.41 184.954 251.259 185.531C250.882 186.973 250.571 188.402 250.324 189.817C250.05 191.101 249.855 192.437 249.739 193.824C249.425 196.207 249.045 198.604 248.6 201.014C248.155 203.425 247.775 205.822 247.461 208.205C247.139 209.908 247.143 211.542 247.474 213.108C247.646 214.57 247.795 216.242 247.92 218.124C248.778 217.67 249.426 217.193 249.866 216.691C250.277 216.059 250.754 215.413 251.296 214.754C253.663 211.12 255.927 207.644 258.089 204.326C260.222 200.877 262.408 197.35 264.644 193.744C265.776 192.006 266.857 190.347 267.886 188.767C269.018 187.029 270.137 185.225 271.241 183.357C272.064 182.093 272.823 180.843 273.515 179.606C274.181 178.239 274.925 176.924 275.748 175.66C276.078 174.637 276.355 173.692 276.581 172.827C276.78 171.831 277.202 170.924 277.847 170.107L278.434 169.983C279.319 169.66 279.8 169.354 279.875 169.065C279.951 168.777 279.748 168.138 279.267 167.15L279.225 166.954C279.356 166.927 279.472 166.834 279.575 166.676C280.228 166.538 280.633 166.521 280.791 166.624C281.498 166.747 282.126 166.819 282.676 166.839C283.356 166.832 284.063 166.955 284.798 167.208ZM286.029 175.943L285.905 175.356C285.651 176.09 285.449 176.746 285.298 177.323C284.921 178.766 284.884 180.204 285.187 181.639C285.49 183.074 285.631 184.067 285.611 184.616C285.563 185.035 285.491 185.663 285.396 186.501C285.273 187.208 285.136 187.851 284.985 188.427C284.834 189.004 284.828 189.619 284.965 190.271C285.336 190.738 285.484 191.116 285.409 191.404C285.464 191.665 285.43 192.149 285.307 192.857C285.211 193.694 285.119 194.872 285.03 196.39C284.915 197.777 284.878 199.216 284.92 200.706C285.057 201.358 285.099 201.554 285.044 201.293C285.119 201.004 285.153 200.52 285.146 199.84C285.138 199.161 285.117 198.415 285.083 197.605C285.151 196.637 285.274 195.93 285.452 195.483C286.165 193.697 286.532 192.53 286.553 191.98C286.573 191.431 286.487 190.7 286.294 189.786C286.101 188.873 285.987 188.011 285.952 187.201C286.076 186.494 286.199 185.786 286.322 185.079C286.418 184.241 286.438 183.692 286.383 183.431L285.722 180.3C285.268 179.442 285.131 178.79 285.309 178.343C285.515 178.027 285.683 177.855 285.813 177.828C285.944 177.8 286.098 177.563 286.276 177.117L286.029 175.943ZM289.188 188.971C289.469 188.367 289.51 188.562 289.312 189.558C289.216 190.396 289.182 190.88 289.21 191.011C289.292 191.402 289.282 191.677 289.179 191.835C289.262 192.226 289.252 192.501 289.149 192.659C288.579 193.188 288.363 193.778 288.501 194.431L288.79 195.801C289.003 196.164 289.058 196.425 288.955 196.583C288.825 196.611 288.722 196.769 288.646 197.057C288.681 197.868 288.544 198.51 288.235 198.984C288.29 199.245 288.325 200.055 288.34 201.415C288.422 201.806 288.402 202.355 288.279 203.063C288.128 203.64 287.991 204.282 287.868 204.989C287.614 205.724 287.44 206.51 287.344 207.348C287.309 206.538 287.353 205.779 287.477 205.072C287.6 204.364 287.685 203.801 287.733 203.382C287.753 202.833 287.866 202.4 288.072 202.084C288.148 201.796 288.13 201.391 288.02 200.869C287.91 200.347 287.824 199.616 287.761 198.675C287.679 198.284 287.737 197.59 287.935 196.594C288.106 195.468 288.277 194.342 288.448 193.215L289.188 188.971ZM357.69 163.676L357.649 163.48L357.69 163.676ZM359.306 160.678L359.151 160.915L359.11 160.719L359.306 160.678ZM356.207 164.398C355.713 164.638 354.841 165.027 353.592 165.563C355.115 163.743 356.968 162.193 359.151 160.915C359.364 161.278 359.186 161.725 358.616 162.254C357.889 162.68 357.566 163.089 357.649 163.48C357.416 163.666 357.182 163.851 356.949 164.037C356.688 164.092 356.441 164.212 356.207 164.398ZM360.562 160.821C360.432 160.849 360.381 160.928 360.408 161.058C360.408 161.058 360.343 161.072 360.212 161.099C360.185 160.969 360.236 160.89 360.367 160.862L360.562 160.821ZM360.017 161.141L360.212 161.099L360.017 161.141ZM358.36 163.943C358.854 163.703 359.297 163.541 359.688 163.459C360.21 163.348 360.835 163.08 361.563 162.654C361.357 162.97 361.216 163.272 361.141 163.561C361.038 163.719 360.935 163.877 360.832 164.035C360.757 164.323 360.616 164.625 360.41 164.941C360.307 165.099 360.283 165.309 360.338 165.57C360.559 166.613 360.346 167.544 359.701 168.362C359.187 169.152 358.463 169.918 357.529 170.66C355.745 172.536 354.026 174.397 352.372 176.246C350.69 177.963 349.088 179.732 347.564 181.553C346.789 182.398 346 183.178 345.197 183.893C344.496 184.449 343.81 185.071 343.138 185.758C341.195 187.531 339.318 189.29 337.506 191.035C335.825 192.753 334.157 194.536 332.503 196.384C331.027 197.786 329.487 199.201 327.88 200.63C326.405 202.032 324.864 203.447 323.258 204.877C322.352 205.749 321.367 206.57 320.303 207.34C319.342 207.952 318.395 208.629 317.461 209.371C315.464 210.883 313.49 212.185 311.541 213.278C309.721 214.344 307.665 215.255 305.372 216.011C304.253 216.52 303.223 216.806 302.282 216.868C301.184 216.827 300.057 216.656 298.904 216.355C296.019 215.601 293.076 214.246 290.074 212.291C289.284 211.776 288.559 211.248 287.899 210.706C287.109 210.191 286.567 209.556 286.271 208.801C286.785 208.011 287.08 207.472 287.156 207.184C287.382 206.318 287.412 205.494 287.247 204.711C287.198 202.541 287.502 200.433 288.16 198.386C288.688 196.367 289.425 194.372 290.372 192.4C290.598 191.535 290.903 190.721 291.287 189.959C291.541 189.224 291.492 188.348 291.141 187.332L291.296 187.095C291.296 187.095 291.412 187.002 291.646 186.817C292.271 186.549 292.658 186.126 292.809 185.549C292.829 185 293.059 184.474 293.498 183.973C294.548 181.844 295.662 179.7 296.842 177.544C297.864 175.284 298.9 173.089 299.95 170.96C300.437 170.039 300.924 169.119 301.411 168.198C302.001 167.12 302.367 165.952 302.511 164.696C302.483 164.565 302.638 164.328 302.974 163.985C304.189 162.638 305.208 161.333 306.031 160.069C306.827 158.674 307.86 157.434 309.129 156.348L308.84 154.979C309.856 154.628 310.821 154.356 311.734 154.163C312.75 153.813 313.873 153.644 315.102 153.657C316.201 153.697 317.272 153.607 318.316 153.387C319.332 153.036 320.348 152.686 321.364 152.335C323.321 151.922 324.918 152.062 326.154 152.754C326.944 153.269 327.72 153.718 328.483 154.102C329.348 154.329 330.111 154.713 330.77 155.255C332.295 156.023 333.154 156.864 333.347 157.777C333.642 158.532 333.379 159.542 332.555 160.806C332.041 161.596 331.54 162.451 331.053 163.372C330.669 164.134 330.154 164.924 329.509 165.741C326.854 169.3 323.961 172.704 320.831 175.954C317.832 179.176 314.559 182.389 311.01 185.591C309.274 187.047 307.286 188.285 305.048 189.302C303.435 190.052 302.258 191.254 301.517 192.909C300.934 194.668 300.482 196.398 300.16 198.102C299.811 199.674 299.554 201.364 299.391 203.17C299.398 203.85 299.419 204.595 299.454 205.405C299.33 206.112 299.272 206.806 299.28 207.486C299.39 208.008 299.565 208.516 299.806 209.01C300.486 209.003 301.059 208.814 301.526 208.442C301.993 208.071 302.459 207.7 302.926 207.329C304.326 206.216 305.754 205.233 307.209 204.381C308.637 203.398 309.958 202.233 311.173 200.887C311.77 200.488 312.302 200.103 312.769 199.732C313.339 199.203 313.95 198.87 314.602 198.732C314.89 198.807 315.189 198.608 315.498 198.134C317.31 196.389 319.084 194.788 320.821 193.331C322.557 191.874 324.345 190.339 326.185 188.724C326.782 188.325 327.379 187.927 327.976 187.528C328.573 187.129 329.171 186.731 329.768 186.332C331.374 184.903 332.994 183.539 334.627 182.24C336.233 180.811 337.84 179.382 339.446 177.952C339.651 177.636 339.871 177.386 340.104 177.2C340.468 176.987 340.753 176.722 340.959 176.406C341.165 176.09 341.319 175.853 341.422 175.695C341.655 175.51 341.889 175.324 342.122 175.139C343.502 174.575 344.645 173.857 345.551 172.984C346.429 171.981 347.349 171.174 348.31 170.562C349.168 170.108 349.948 169.603 350.648 169.046C351.451 168.332 352.202 167.696 352.902 167.14C353.136 166.954 353.383 166.834 353.644 166.779C354.008 166.566 354.292 166.301 354.498 165.985C355.748 165.449 356.62 165.06 357.114 164.82C357.347 164.634 357.595 164.514 357.855 164.459C358.219 164.246 358.518 164.046 358.751 163.861L358.36 163.943ZM317.62 161.71C317.023 162.109 316.055 163.335 314.717 165.389C313.482 167.285 312.223 169.391 310.941 171.706C309.479 174.467 307.864 177.465 306.094 180.701C309.196 177.32 312.013 174.205 314.546 171.353C316.769 168.976 318.746 166.719 320.475 164.583C322.307 162.288 323.299 160.852 323.449 160.275C323.778 159.252 323.672 159.07 323.13 159.73C322.56 160.259 321.819 160.62 320.905 160.812C320.384 160.923 320.057 160.991 319.927 161.019C319.769 160.916 319.625 160.878 319.494 160.906C319.467 160.775 319.336 160.803 319.103 160.988C318.842 161.044 318.348 161.284 317.62 161.71ZM353.098 167.098L352.902 167.14L353.098 167.098ZM353.098 167.098L353.057 166.903L353.098 167.098ZM373.308 150.567C373.487 150.121 373.679 149.74 373.885 149.424C374.53 148.606 375.044 147.816 375.428 147.054C375.943 146.264 376.365 145.357 376.694 144.334C376.872 143.887 377.064 143.506 377.27 143.19C377.606 142.846 378.101 142.606 378.753 142.468C378.883 142.44 379.233 142.162 379.803 141.633C380.112 141.159 380.434 140.75 380.771 140.407C381.079 139.933 381.337 139.538 381.542 139.222C383.533 137.03 385.706 136.026 388.061 136.21C388.741 136.203 389.421 136.196 390.101 136.189C390.78 136.181 391.46 136.174 392.14 136.167C394.42 136.64 395.976 137.878 396.808 139.883C397.345 141.132 397.685 142.423 397.83 143.755C397.948 144.957 398.092 146.289 398.265 147.752C397.807 151.391 397.184 155.543 396.397 160.206C395.61 164.869 394.874 169.453 394.19 173.958C393.479 178.333 392.894 182.34 392.436 185.98C391.978 189.62 391.928 192.288 392.286 193.984C394.077 192.788 395.814 191.331 397.495 189.613C399.149 187.765 400.724 185.866 402.22 183.915C403.846 181.936 405.342 179.985 406.708 178.061C408.073 176.138 409.349 174.438 410.537 172.96C411.518 171.799 412.129 171.466 412.37 171.96C412.741 172.427 412.92 173.275 412.907 174.504C412.866 175.603 412.606 176.952 412.126 178.553C411.777 180.126 411.386 181.503 410.954 182.684C408.464 187.025 405.389 190.536 401.731 193.216C398.203 195.869 395.141 198.15 392.546 200.061C390.246 200.138 388.282 199.871 386.654 199.261C385.026 198.65 383.725 197.971 382.749 197.223C381.746 196.345 381.018 195.477 380.564 194.619C380.241 193.733 380.182 193.132 380.388 192.816C380.112 191.512 380.077 189.407 380.281 186.502C380.589 183.439 380.985 180.153 381.471 176.644C382.059 172.976 382.661 169.374 383.278 165.837C383.866 162.17 384.239 159.093 384.395 156.608C384.655 153.964 384.623 152.199 384.299 151.313C384.107 150.4 383.393 150.891 382.158 152.787C380.862 156.331 379.25 159.67 377.322 162.802C375.497 165.776 373.792 168.998 372.208 172.467C371.111 175.015 370.014 177.563 368.916 180.112C367.819 182.66 366.828 185.39 365.944 188.302C365.286 190.349 364.614 192.33 363.928 194.247C363.373 196.135 362.767 198.103 362.108 200.15C361.498 201.778 360.75 202.753 359.865 203.077C358.979 203.4 357.921 203.555 356.692 203.542C354.309 203.227 352.427 202.058 351.046 200.033C350.805 199.538 350.578 199.109 350.365 198.745C349.994 198.279 349.688 197.798 349.448 197.304C350.065 196.356 350.456 194.979 350.619 193.173C350.962 190.92 351.317 188.733 351.687 186.611C351.899 184.386 352.162 182.081 352.476 179.698C352.627 179.122 352.647 178.572 352.537 178.05C352.297 177.556 352.238 176.955 352.361 176.248C352.354 175.568 352.518 175.056 352.855 174.713C353.061 174.397 353.16 173.899 353.153 173.219C353.351 172.223 353.498 171.306 353.594 170.469C353.69 169.631 353.627 168.69 353.407 167.646C353.269 166.994 353.221 166.119 353.261 165.02C353.603 162.767 353.946 160.515 354.288 158.262C354.499 156.037 354.776 153.798 355.118 151.546C355.598 149.945 355.518 148.599 354.879 147.508C354.536 147.172 354.528 146.492 354.857 145.468C354.905 145.05 355.08 144.263 355.381 143.109C357.022 142.49 358.653 142.146 360.273 142.077C361.867 141.877 363.583 142.264 365.424 143.238C366.427 144.116 367.012 144.947 367.177 145.729C367.212 146.54 367.181 147.364 367.086 148.202C367.093 148.881 367.1 149.561 367.107 150.241C367.067 151.34 366.933 152.322 366.707 153.187C366.612 154.025 366.543 154.993 366.503 156.092C366.38 156.8 366.322 157.493 366.329 158.173C366.309 158.722 366.278 159.546 366.238 160.645C367.088 159.512 367.706 158.564 368.09 157.801C368.605 157.011 369.119 156.221 369.634 155.431C369.558 155.72 369.548 155.994 369.603 156.255C369.761 156.358 369.789 156.489 369.686 156.647C369.171 157.437 368.671 158.292 368.184 159.212C367.669 160.002 367.182 160.923 366.722 161.974C366.619 162.132 366.465 162.369 366.259 162.685C366.053 163.001 366.122 163.327 366.466 163.663C368.243 161.108 369.89 158.58 371.406 156.079C372.202 154.685 373.025 153.421 373.876 152.287C374.727 151.154 375.536 149.824 376.305 148.299C375.522 148.465 375.004 148.915 374.75 149.65C374.469 150.254 373.974 150.495 373.267 150.372L373.308 150.567ZM526.91 123.864C526.965 124.125 527.085 124.372 527.271 124.606C527.429 124.709 527.522 124.825 527.549 124.956C527.35 125.951 527.348 126.906 527.54 127.819C527.836 128.574 527.871 129.385 527.645 130.25C527.645 130.25 527.593 130.329 527.49 130.487C527.485 132.396 527.283 134.346 526.886 136.338C526.489 138.33 525.631 140.078 524.314 141.583C522.921 143.376 521.528 145.169 520.135 146.962C518.872 148.727 517.623 150.558 516.388 152.454C515.023 154.378 513.592 156.315 512.096 158.266C510.573 160.086 509.049 161.907 507.526 163.728C505.124 166.551 502.564 169.272 499.846 171.89C497.128 174.508 493.741 176.858 489.684 178.941C488.201 179.663 486.817 179.887 485.533 179.613C484.118 179.367 482.741 178.976 481.402 178.441C480.557 177.666 479.571 177.192 478.445 177.021C477.085 177.036 476.267 176.391 475.992 175.086C475.696 174.331 475.466 173.562 475.301 172.779C475.005 172.024 474.905 171.227 475.001 170.39C475.124 169.682 475.075 168.807 474.855 167.763C474.607 166.589 474.555 165.374 474.698 164.117C474.719 163.567 474.766 163.149 474.842 162.86C474.89 162.441 474.924 161.957 474.944 161.408C474.961 155.681 475.356 149.806 476.129 143.783C476.197 142.814 476.286 141.297 476.394 139.23C476.373 137.19 476.331 135.7 476.268 134.759C476.371 134.601 476.395 134.392 476.34 134.131C476.154 133.898 475.983 133.73 475.825 133.627C475.426 133.029 475.213 132.666 475.185 132.535C475.13 132.274 475.034 131.818 474.896 131.165C475.102 130.849 475.452 130.571 475.946 130.33C476.283 129.987 476.619 129.643 476.955 129.3C477.422 128.929 477.865 128.767 478.284 128.815C479.067 128.65 479.626 128.395 479.962 128.052C480.868 127.179 482.094 126.852 483.639 127.071C485.157 127.16 486.156 127.698 486.637 128.687C487.036 129.284 487.071 130.094 486.742 131.118C486.811 132.738 486.614 135.028 486.148 137.988C485.813 140.921 485.629 143.276 485.596 145.055C485.439 147.541 485.362 150.078 485.363 152.667C485.365 155.256 485.301 157.858 485.172 160.475C485.104 161.443 485.101 162.398 485.163 163.338C485.328 164.121 485.363 164.931 485.268 165.769C485.247 166.319 485.306 166.92 485.444 167.572C485.609 168.355 485.98 168.821 486.557 168.972C488.102 169.191 490.326 168.108 493.23 165.724C496.106 163.209 499.427 159.578 503.195 154.83C504.588 153.037 505.967 151.179 507.332 149.256C508.698 147.332 510.115 145.33 511.583 143.248C513.285 140.981 514.736 138.494 515.936 135.788C515.984 135.369 516.111 135.002 516.317 134.686C517.12 133.971 517.727 133.298 518.139 132.666C518.653 131.876 519.182 131.151 519.724 130.491C520.698 128.65 521.871 127.108 523.244 125.865C523.711 125.493 524.191 125.188 524.686 124.947C525.31 124.679 526.052 124.318 526.91 123.864ZM480.034 109.027C479.849 108.793 479.495 108.732 478.973 108.842C478.286 108.169 477.65 107.418 477.066 106.587C476.613 105.729 476.094 104.885 475.509 104.054C475.949 103.552 476.192 103.092 476.24 102.673C476.418 102.227 476.676 101.832 477.012 101.488C477.218 101.172 477.503 100.908 477.866 100.695C478.361 100.454 478.776 100.162 479.112 99.8185C480.149 98.9183 481.529 98.3544 483.252 98.1269C485.079 97.7413 486.61 97.895 487.846 98.5878C488.739 98.9444 489.296 99.6445 489.516 100.688L490.425 104.993C490.563 105.646 490.687 106.233 490.797 106.755C490.907 107.276 491.096 107.85 491.364 108.474C492.389 111.392 492.71 114.527 492.328 117.878C492.287 118.977 491.917 119.805 491.217 120.361C490.619 120.76 490.036 121.224 489.466 121.753C489.466 121.753 489.075 121.835 488.292 122.001C487.818 121.692 487.255 121.606 486.603 121.744C486.204 121.147 485.754 120.629 485.252 120.189C484.881 119.723 484.757 119.136 484.881 118.428L484.715 117.646C483.76 116.348 482.987 114.944 482.395 113.434C481.776 111.793 480.989 110.324 480.034 109.027ZM481.056 112.899L481.015 112.703L481.056 112.899ZM538.228 115.751C538.406 115.305 538.599 114.924 538.804 114.608C539.449 113.79 539.964 113 540.348 112.238C540.863 111.448 541.285 110.541 541.614 109.518C541.792 109.071 541.984 108.69 542.19 108.374C542.526 108.03 543.02 107.79 543.673 107.652C543.803 107.625 544.153 107.346 544.723 106.817C545.032 106.343 545.354 105.934 545.69 105.591C545.999 105.117 546.256 104.722 546.462 104.406C548.452 102.214 550.625 101.21 552.981 101.394C553.661 101.387 554.34 101.38 555.02 101.373C555.7 101.366 556.38 101.358 557.06 101.351C559.34 101.824 560.896 103.062 561.728 105.067C562.264 106.316 562.605 107.607 562.75 108.939C562.867 110.141 563.012 111.473 563.185 112.936C562.727 116.575 562.104 120.727 561.317 125.39C560.53 130.053 559.794 134.637 559.11 139.142C558.398 143.517 557.813 147.524 557.355 151.164C556.897 154.804 556.847 157.472 557.205 159.168C558.997 157.972 560.733 156.515 562.415 154.797C564.069 152.949 565.644 151.05 567.14 149.099C568.766 147.12 570.262 145.169 571.627 143.245C572.993 141.322 574.269 139.622 575.456 138.145C576.438 136.983 577.049 136.65 577.289 137.144C577.66 137.611 577.839 138.459 577.826 139.688C577.786 140.787 577.526 142.137 577.046 143.737C576.696 145.31 576.306 146.687 575.874 147.868C573.384 152.209 570.309 155.72 566.65 158.4C563.122 161.053 560.061 163.334 557.466 165.245C555.166 165.322 553.202 165.055 551.574 164.445C549.946 163.835 548.644 163.155 547.669 162.407C546.666 161.529 545.937 160.661 545.484 159.803C545.16 158.917 545.102 158.316 545.308 158C545.032 156.696 544.997 154.591 545.201 151.686C545.508 148.623 545.905 145.337 546.39 141.828C546.979 138.16 547.581 134.558 548.197 131.021C548.786 127.354 549.158 124.278 549.315 121.792C549.574 119.148 549.542 117.383 549.219 116.497C549.026 115.584 548.313 116.075 547.078 117.971C545.782 121.515 544.17 124.854 542.242 127.986C540.417 130.961 538.712 134.182 537.128 137.651C536.031 140.199 534.933 142.747 533.836 145.296C532.739 147.844 531.748 150.574 530.864 153.486C530.206 155.533 529.534 157.515 528.848 159.431C528.293 161.32 527.686 163.287 527.028 165.334C526.418 166.962 525.67 167.937 524.784 168.261C523.899 168.584 522.841 168.739 521.612 168.726C519.229 168.411 517.347 167.242 515.965 165.217C515.725 164.722 515.498 164.293 515.285 163.929C514.914 163.463 514.608 162.982 514.367 162.488C514.985 161.54 515.375 160.163 515.539 158.357C515.881 156.104 516.237 153.917 516.607 151.795C516.818 149.57 517.082 147.266 517.396 144.883C517.547 144.306 517.567 143.756 517.457 143.234C517.216 142.74 517.158 142.139 517.281 141.432C517.274 140.752 517.438 140.24 517.774 139.897C517.98 139.581 518.08 139.083 518.072 138.403C518.271 137.407 518.418 136.49 518.514 135.653C518.609 134.815 518.547 133.874 518.327 132.83C518.189 132.178 518.14 131.303 518.181 130.204C518.523 127.951 518.865 125.699 519.207 123.446C519.419 121.221 519.696 118.982 520.038 116.73C520.518 115.129 520.438 113.784 519.799 112.692C519.455 112.356 519.448 111.676 519.777 110.653C519.825 110.234 520 109.447 520.301 108.293C521.942 107.675 523.573 107.33 525.193 107.261C526.786 107.061 528.503 107.448 530.344 108.422C531.347 109.3 531.931 110.131 532.097 110.914C532.131 111.724 532.101 112.548 532.005 113.386C532.013 114.066 532.02 114.745 532.027 115.425C531.986 116.524 531.853 117.506 531.627 118.371C531.531 119.209 531.463 120.177 531.423 121.276C531.299 121.984 531.241 122.677 531.249 123.357C531.228 123.906 531.198 124.73 531.157 125.829C532.008 124.696 532.626 123.748 533.01 122.985C533.524 122.195 534.039 121.405 534.554 120.615C534.478 120.904 534.468 121.178 534.523 121.439C534.681 121.542 534.709 121.673 534.606 121.831C534.091 122.621 533.59 123.476 533.103 124.396C532.589 125.186 532.102 126.107 531.642 127.158C531.539 127.316 531.385 127.553 531.179 127.869C530.973 128.185 531.042 128.511 531.386 128.847C533.163 126.292 534.809 123.764 536.326 121.263C537.121 119.869 537.945 118.605 538.796 117.471C539.647 116.338 540.456 115.008 541.224 113.484C540.442 113.649 539.923 114.099 539.67 114.834C539.389 115.438 538.894 115.679 538.187 115.556L538.228 115.751ZM639.766 62.2238C639.066 62.7804 638.431 63.3232 637.861 63.8523C637.292 64.3814 636.657 64.9242 635.957 65.4808C634.125 67.7755 632.69 69.3728 631.654 70.273C630.59 71.0427 629.666 71.5102 628.884 71.6754C627.943 71.7377 627.026 71.5906 626.133 71.234C625.082 70.7745 623.733 70.5143 622.085 70.4534C620.279 70.2896 618.006 70.4969 615.266 71.0753C612.368 71.5507 608.589 72.6893 603.927 74.4911C604.105 74.0446 604.064 73.8489 603.803 73.904C603.515 73.8286 603.669 73.5916 604.266 73.193C605.591 72.3682 606.436 71.8493 606.799 71.6362C607.136 71.2927 606.432 71.5094 604.688 72.2863C603.542 72.6647 602.604 73.0669 601.877 73.493C601.122 73.7888 600.222 74.0468 599.178 74.2671C600.05 72.5842 601.223 71.0419 602.699 69.6402C604.147 68.108 605.753 66.6788 607.517 65.3525C609.281 64.0262 611.124 62.7513 613.046 61.5279C614.81 60.2016 616.523 58.9543 618.184 57.786C621.582 55.1609 625.319 52.5321 629.397 49.8998C633.447 47.137 637.617 44.6214 641.908 42.3529C646.301 39.9264 650.462 37.6854 654.388 35.63C658.446 33.547 662.973 31.4329 667.971 29.2876L695.9 18.2813C696.099 17.2855 696.078 16.5405 695.837 16.0462C695.727 15.5243 695.644 15.133 695.589 14.872C695.637 14.4531 695.894 14.0581 696.361 13.6871C696.828 13.316 697.803 12.7695 699.285 12.0476C701.626 10.8721 703.23 10.3974 704.095 10.6235C704.933 10.7192 705.812 11.0105 706.732 11.4976C707.625 11.8541 708.844 12.1419 710.39 12.3608C712.065 12.5521 714.767 12.118 718.495 11.0584L750.495 2.87224C752.349 2.61713 754.151 2.44101 755.902 2.34389C757.626 2.11633 759.596 1.76845 761.814 1.30025C763.51 0.942224 764.749 0.680587 765.532 0.515343C766.445 0.322557 767.19 0.301538 767.767 0.452288C768.447 0.44504 769.103 0.647251 769.735 1.05892C770.367 1.47059 771.25 2.10187 772.383 2.95275C772.102 3.5572 772.082 4.10657 772.322 4.60086C772.666 4.93715 773.023 5.33868 773.394 5.80543C773.738 6.14172 774.016 6.49178 774.229 6.85561C774.573 7.19191 774.525 7.61082 774.086 8.11236C773.619 8.48344 772.84 8.9886 771.748 9.62784C770.76 10.1091 769.654 10.6831 768.433 11.3499C767.313 11.8587 766.143 12.4464 764.921 13.1132C763.802 13.622 762.944 14.0757 762.347 14.4743C761.489 14.928 760.407 15.2926 759.103 15.568C757.77 15.7129 756.373 15.8717 754.911 16.0442C753.551 16.0586 752.205 16.1384 750.873 16.2833C749.513 16.2978 748.391 16.4667 747.505 16.7899C746.228 17.1958 744.285 17.6741 741.676 18.2249C739.197 18.7482 736.457 19.3266 733.457 19.96C730.456 20.5934 727.469 21.2921 724.496 22.056C721.626 22.6619 719.175 23.3156 717.143 24.0172C717.343 25.6102 717.416 27.5707 717.363 29.8987C717.281 32.0962 717.217 33.4044 717.169 33.8233C717.073 34.6611 716.837 35.8012 716.46 37.2435C716.056 38.5553 715.665 39.9323 715.288 41.3746C714.808 42.9749 714.226 44.7332 713.54 46.6495C713.582 48.1396 713.412 50.5603 713.029 53.9116C712.619 57.1325 712.068 60.6556 711.377 64.4809C710.816 68.2787 710.227 71.946 709.611 75.4828C709.125 78.9921 708.801 81.6499 708.637 83.456C708.309 87.0682 708.043 90.3268 707.839 93.2316C707.737 95.9785 707.341 99.2646 706.65 103.09C705.978 106.366 705.417 110.164 704.967 114.483C704.516 118.803 704.027 123.267 703.501 127.875C703.105 132.455 702.696 136.971 702.273 141.421C701.822 145.74 701.247 149.473 700.548 152.618C700.199 154.191 700.028 155.317 700.035 155.997C700.145 156.519 700.307 156.962 700.52 157.326C700.733 157.689 700.816 158.081 700.768 158.5C700.878 159.022 700.782 159.859 700.481 161.013C699.72 163.218 699.121 165.865 698.683 168.956C698.245 172.046 697.896 174.913 697.637 177.557C697.405 180.332 697.207 182.622 697.043 184.428C697.01 186.207 696.938 186.835 696.828 186.313C696.876 185.894 696.895 184.051 696.887 180.782C696.906 177.644 696.903 172.466 696.878 165.249C696.865 166.478 696.838 167.642 696.798 168.741C696.888 169.812 696.716 170.938 696.285 172.119C696.113 173.246 695.771 174.204 695.256 174.994C694.741 175.784 694.375 176.951 694.156 178.497C693.957 179.493 693.899 180.186 693.982 180.577C694.223 181.072 694.37 181.449 694.425 181.71C694.481 181.971 694.391 182.194 694.158 182.38C693.925 182.566 693.327 182.964 692.366 183.576C691.542 182.251 690.954 181.08 690.603 180.064C690.28 179.179 689.957 178.293 689.633 177.407C689.468 176.625 689.21 175.725 688.859 174.709C688.666 173.796 688.302 172.714 687.766 171.465C687.126 170.373 686.7 169.646 686.487 169.282C686.405 168.891 686.322 168.499 686.239 168.108C686.315 167.819 686.362 167.401 686.383 166.851C686.534 166.274 686.602 165.306 686.587 163.946C686.305 161.962 686.111 159.754 686.007 157.323C686.033 154.865 686.059 152.407 686.085 149.948C686.241 147.462 686.426 145.107 686.637 142.882C686.952 140.499 687.256 138.39 687.55 136.557C686.755 137.951 686.038 139.397 685.4 140.894C684.865 142.234 684.673 142.615 684.824 142.038C685.125 140.884 685.214 139.367 685.089 137.485C684.964 135.604 684.888 134.598 684.861 134.467C685.491 132.29 685.981 130.415 686.331 128.842C686.68 127.269 686.984 125.161 687.244 122.517C687.641 120.526 687.877 118.091 687.951 115.214C688.155 112.309 688.425 109.39 688.759 106.458C689.067 103.395 689.402 100.463 689.764 97.6606C690.257 94.8311 690.925 92.5097 691.769 90.6963C692.517 89.7208 692.966 88.9446 693.117 88.3677C693.268 87.7908 693.236 87.3204 693.023 86.9566C692.941 86.5652 692.741 86.2666 692.425 86.0607C692.24 85.8274 692.133 85.6454 692.106 85.515C692.312 85.199 692.551 84.3989 692.825 83.1146C693.099 81.8303 693.36 80.4808 693.606 79.066C693.955 77.4933 694.188 76.0133 694.304 74.6261C694.55 73.2114 694.632 72.3083 694.55 71.9169C694.445 69.4861 694.753 67.7176 695.474 66.6116C696.194 65.5057 696.575 64.4033 696.615 63.3045C696.553 62.3638 696.673 61.3165 696.974 60.1627C697.378 58.8509 697.553 58.0645 697.498 57.8036C697.566 56.8353 697.563 56.4954 697.487 56.7838C697.515 56.9143 697.453 57.268 697.302 57.8449C697.282 58.3943 697.21 59.0226 697.087 59.73C696.964 60.4374 696.837 60.8048 696.707 60.8324C696.24 61.2034 695.955 61.468 695.852 61.626C695.749 61.784 695.646 61.942 695.543 62.1C695.571 62.2304 695.547 62.4399 695.472 62.7284C695.527 62.9893 695.4 63.3567 695.091 63.8307C694.913 64.2772 694.834 64.2257 694.854 63.6763C694.847 62.9965 694.891 62.2377 694.987 61.3999C695.055 60.4316 695.137 59.5285 695.232 58.6907C695.459 57.8253 695.572 57.3926 695.572 57.3926C696.07 52.6541 696.477 49.0933 696.791 46.7103C697.078 44.1968 697.321 42.4422 697.52 41.4463C697.718 40.4505 697.869 39.8736 697.972 39.7156C698.075 39.5576 698.099 39.3481 698.044 39.0872C698.092 38.6683 698.019 38.0022 697.826 37.089C697.764 36.1483 697.653 34.332 697.494 31.6402C697.521 31.7707 697.339 31.8772 696.948 31.9599C695.568 32.5237 694.449 33.0325 693.591 33.4862C692.733 33.9399 691.94 34.3798 691.212 34.806C690.615 35.2046 689.953 35.617 689.225 36.0432C688.47 36.3389 687.505 36.6107 686.331 36.8585C685.548 37.0238 684.663 37.347 683.674 37.8283C682.788 38.1515 682.047 38.5124 681.45 38.911C680.825 39.1792 680.526 39.3785 680.554 39.509C680.712 39.6119 681.508 39.5119 682.943 39.2089C683.074 39.1814 682.682 39.264 681.769 39.4568C680.987 39.622 680.022 39.8938 678.875 40.2721C677.729 40.6505 676.582 41.0288 675.436 41.4071C674.289 41.7855 673.496 42.2254 673.057 42.7269C671.451 44.1562 669.618 45.1563 667.558 45.7274C665.601 46.1406 664.328 46.8863 663.738 47.9648C663.168 48.4939 662.128 49.0541 660.618 49.6455C659.107 50.2369 657.933 50.4848 657.095 50.3891C657.226 50.3616 657.305 50.413 657.332 50.5435C657.36 50.6739 657.308 50.7529 657.178 50.7805C656.505 51.4676 655.689 52.1169 654.727 52.7286C653.897 53.3128 652.987 53.8455 651.999 54.3267C651.141 54.7804 650.361 55.2856 649.661 55.8422C648.934 56.2684 648.415 56.7185 648.107 57.1925C647.489 58.1405 646.322 59.0682 644.606 59.9756C642.89 60.883 641.277 61.6324 639.766 62.2238ZM666.56 47.7778C666.69 47.7503 666.769 47.8017 666.797 47.9322C666.797 47.9322 666.732 47.9459 666.601 47.9735L665.118 48.6953C664.13 49.1766 663.742 49.5991 663.955 49.963C664.354 50.5602 664.176 51.0066 663.42 51.3023C662.768 51.44 662.181 51.564 661.659 51.6741C661.165 51.9148 660.736 52.1416 660.372 52.3547C660.139 52.5402 659.891 52.6605 659.631 52.7156C659.5 52.7431 659.603 52.5852 659.939 52.2416C660.042 52.0836 659.562 52.3895 658.498 53.1592C657.406 53.7984 656.679 54.2246 656.315 54.4376C655.559 54.7334 655.261 54.9327 655.419 55.0356C655.549 55.008 655.694 55.0457 655.852 55.1486C656.14 55.224 656.298 55.3269 656.326 55.4574C656.353 55.5879 655.859 55.8285 654.843 56.1793C653.985 56.633 653.089 57.2309 652.155 57.973C651.352 58.6877 650.82 59.0725 650.559 59.1276C650.093 59.4987 649.561 59.8835 648.963 60.2821C648.339 60.5503 648.208 60.5778 648.572 60.3648C649.224 60.2271 649.434 60.251 649.2 60.4365C649.07 60.4641 648.809 60.5191 648.418 60.6018L646.656 60.9736C645.613 61.1939 644.339 61.9397 642.836 63.2109C641.305 64.3517 639.953 65.046 638.779 65.2939C639.115 64.9503 639.647 64.5655 640.375 64.1393C641.205 63.5552 642.05 63.0362 642.908 62.5825C643.869 61.9708 644.779 61.4381 645.637 60.9844C646.467 60.4003 647.064 60.0016 647.428 59.7886C648.286 59.3349 649.196 58.8022 650.157 58.1905C651.118 57.5788 651.921 56.8641 652.566 56.0466C653.39 54.7826 654.388 54.0267 655.562 53.7788C656.709 53.4005 657.632 52.933 658.332 52.3764C658.772 51.8749 659.252 51.569 659.774 51.4589C660.268 51.2182 660.711 51.0566 661.103 50.974C661.624 50.8638 662.067 50.7022 662.431 50.4891C662.795 50.2761 663.104 49.8021 663.357 49.0671C663.563 48.7512 663.992 48.5243 664.644 48.3866C665.269 48.1184 665.908 47.9155 666.56 47.7778ZM684.856 145.097C684.856 145.097 684.822 145.581 684.754 146.55C684.659 147.388 684.525 148.37 684.354 149.496C684.314 150.595 684.194 151.642 683.995 152.638C683.927 153.606 683.907 154.155 683.935 154.286C684.182 155.46 684.348 156.243 684.43 156.634C684.513 157.025 684.517 157.365 684.441 157.654C684.469 157.784 684.38 158.008 684.174 158.324C684.098 158.612 684.013 159.175 683.917 160.013C683.685 162.787 683.751 164.068 684.115 163.855C684.479 163.642 684.31 162.519 683.608 160.487C683.34 159.862 683.199 158.87 683.184 157.51C683.273 155.993 683.361 154.475 683.45 152.957C683.641 151.282 683.86 149.736 684.106 148.322C684.353 146.907 684.603 145.832 684.856 145.097ZM693.578 65.3766C693.962 64.6142 694.068 64.7961 693.897 65.9224C693.857 67.0211 693.85 67.6357 693.878 67.7662C693.411 68.1373 693.219 68.5185 693.302 68.9099C693.226 69.1983 693.281 69.4592 693.467 69.6926C693.316 70.2695 693.217 70.7674 693.169 71.1864C693.224 71.4473 693.135 71.6705 692.902 71.856C692.078 73.12 691.814 74.1296 692.11 74.8848C692.509 75.4821 692.554 76.0177 692.245 76.4917C691.422 77.7556 691.103 78.5043 691.288 78.7377C691.474 78.9711 691.509 79.7814 691.393 81.1686C691.091 82.3224 690.94 82.8993 690.94 82.8993C690.94 82.8993 690.964 82.6898 691.012 82.2709C691.032 81.7216 691.039 81.107 691.032 80.4271C691.127 79.5893 691.134 78.9747 691.051 78.5833C690.989 77.6426 691.146 76.4511 691.523 75.0088C691.872 73.436 692.057 72.375 692.078 71.8256C691.912 71.0429 691.919 70.4283 692.097 69.9818C692.275 69.5353 692.467 69.1541 692.673 68.8381C692.982 68.3641 693.226 67.9039 693.404 67.4574C693.582 67.011 693.589 66.3964 693.423 65.6136L693.578 65.3766ZM599.457 74.6172L599.178 74.2671L599.457 74.6172ZM787.284 72.9851L787.243 72.7894L787.284 72.9851ZM788.9 69.9868L788.745 70.2238L788.704 70.0281L788.9 69.9868ZM785.801 73.707C785.307 73.9476 784.435 74.3361 783.186 74.8724C784.709 73.0518 786.562 71.5022 788.745 70.2238C788.958 70.5876 788.78 71.0341 788.21 71.5631C787.483 71.9893 787.16 72.3981 787.243 72.7894C787.01 72.975 786.776 73.1605 786.543 73.346C786.282 73.4011 786.035 73.5214 785.801 73.707ZM790.156 70.1303C790.026 70.1578 789.975 70.2368 790.002 70.3673C790.002 70.3673 789.937 70.381 789.806 70.4086C789.779 70.2781 789.83 70.1991 789.961 70.1716L790.156 70.1303ZM789.611 70.4499L789.806 70.4086L789.611 70.4499ZM787.954 73.2526C788.448 73.0119 788.891 72.8503 789.282 72.7677C789.804 72.6575 790.429 72.3894 791.157 71.9632C790.951 72.2792 790.81 72.5814 790.735 72.8699C790.632 73.0279 790.529 73.1859 790.426 73.3439C790.351 73.6323 790.21 73.9346 790.004 74.2506C789.901 74.4086 789.877 74.618 789.933 74.8789C790.153 75.9226 789.94 76.8532 789.295 77.6707C788.781 78.4607 788.057 79.2268 787.123 79.969C785.339 81.8447 783.62 83.7066 781.966 85.5547C780.284 87.2724 778.682 89.0416 777.158 90.8622C776.383 91.7072 775.594 92.4871 774.791 93.2017C774.091 93.7583 773.404 94.3802 772.732 95.0673C770.789 96.84 768.912 98.599 767.1 100.344C765.419 102.062 763.751 103.845 762.097 105.693C760.621 107.095 759.081 108.51 757.474 109.939C755.999 111.341 754.458 112.757 752.852 114.186C751.946 115.058 750.961 115.88 749.897 116.649C748.936 117.261 747.989 117.938 747.055 118.68C745.058 120.192 743.084 121.494 741.135 122.587C739.315 123.653 737.259 124.564 734.966 125.32C733.847 125.829 732.817 126.115 731.876 126.177C730.778 126.136 729.651 125.965 728.498 125.664C725.613 124.91 722.67 123.556 719.668 121.6C718.878 121.085 718.153 120.557 717.493 120.015C716.703 119.5 716.161 118.866 715.865 118.11C716.38 117.32 716.674 116.781 716.75 116.493C716.976 115.627 717.006 114.803 716.841 114.02C716.792 111.851 717.096 109.742 717.754 107.695C718.282 105.676 719.019 103.681 719.966 101.71C720.192 100.844 720.497 100.03 720.881 99.2679C721.135 98.5329 721.086 97.6574 720.735 96.6413L720.89 96.4043C720.89 96.4043 721.006 96.3115 721.24 96.126C721.865 95.8578 722.252 95.4353 722.403 94.8584C722.423 94.309 722.653 93.7836 723.092 93.282C724.142 91.1527 725.257 89.0095 726.436 86.8526C727.458 84.5928 728.494 82.3982 729.544 80.2689C730.031 79.3484 730.518 78.428 731.005 77.5075C731.595 76.4291 731.961 75.2615 732.105 74.0047C732.077 73.8743 732.232 73.6373 732.568 73.2937C733.783 71.9471 734.802 70.6418 735.625 69.3778C736.421 67.9834 737.454 66.7433 738.723 65.6576L738.434 64.2878C739.45 63.937 740.415 63.6652 741.328 63.4724C742.344 63.1217 743.467 62.9528 744.696 62.9658C745.795 63.0064 746.866 62.9166 747.91 62.6962C748.926 62.3455 749.942 61.9947 750.958 61.6439C752.915 61.2308 754.512 61.3707 755.748 62.0635C756.538 62.5781 757.314 63.0275 758.077 63.4116C758.942 63.6377 759.705 64.0219 760.364 64.564C761.889 65.3322 762.748 66.173 762.941 67.0862C763.236 67.8414 762.973 68.851 762.149 70.115C761.635 70.905 761.134 71.7602 760.647 72.6806C760.263 73.4431 759.748 74.2331 759.103 75.0506C756.448 78.6092 753.555 82.0134 750.425 85.2633C747.426 88.4856 744.153 91.6977 740.604 94.8997C738.868 96.3565 736.88 97.5937 734.642 98.6113C733.029 99.3607 731.852 100.563 731.111 102.218C730.528 103.977 730.076 105.707 729.754 107.411C729.405 108.983 729.148 110.673 728.985 112.479C728.992 113.159 729.013 113.904 729.048 114.714C728.924 115.421 728.867 116.115 728.874 116.795C728.984 117.317 729.159 117.825 729.4 118.319C730.08 118.312 730.653 118.123 731.12 117.752C731.587 117.381 732.053 117.009 732.52 116.638C733.92 115.525 735.348 114.542 736.803 113.69C738.231 112.707 739.552 111.543 740.767 110.196C741.364 109.797 741.896 109.412 742.363 109.041C742.933 108.512 743.544 108.179 744.196 108.041C744.485 108.117 744.783 107.917 745.092 107.443C746.904 105.698 748.678 104.097 750.415 102.64C752.151 101.184 753.939 99.6477 755.779 98.033C756.376 97.6343 756.973 97.2357 757.57 96.8371C758.167 96.4385 758.765 96.0399 759.362 95.6412C760.968 94.212 762.588 92.848 764.221 91.5492C765.827 90.12 767.434 88.6907 769.04 87.2615C769.245 86.9455 769.465 86.6947 769.698 86.5092C770.062 86.2961 770.347 86.0316 770.553 85.7156C770.759 85.3996 770.913 85.1626 771.016 85.0046C771.249 84.8191 771.483 84.6335 771.716 84.448C773.096 83.8841 774.239 83.1659 775.145 82.2933C776.024 81.2902 776.943 80.4828 777.904 79.8711C778.762 79.4174 779.542 78.9122 780.242 78.3556C781.045 77.641 781.796 77.0054 782.496 76.4488C782.73 76.2632 782.977 76.1429 783.238 76.0878C783.602 75.8748 783.887 75.6102 784.092 75.2942C785.342 74.7579 786.214 74.3694 786.708 74.1288C786.941 73.9433 787.189 73.8229 787.449 73.7679C787.813 73.5548 788.112 73.3555 788.345 73.1699L787.954 73.2526ZM747.214 71.0194C746.617 71.4181 745.649 72.6444 744.311 74.6984C743.076 76.5943 741.817 78.6998 740.535 81.0147C739.073 83.776 737.458 86.7744 735.688 90.0097C738.79 86.6294 741.607 83.5137 744.14 80.6625C746.363 78.2852 748.34 76.0283 750.069 73.8917C751.901 71.5971 752.893 70.1613 753.043 69.5844C753.372 68.5611 753.266 68.3791 752.724 69.0387C752.154 69.5678 751.413 69.9287 750.499 70.1215C749.978 70.2316 749.651 70.3005 749.521 70.328C749.363 70.2251 749.219 70.1874 749.088 70.215C749.061 70.0845 748.93 70.112 748.697 70.2976C748.436 70.3527 747.942 70.5933 747.214 71.0194ZM782.692 76.4075L782.496 76.4488L782.692 76.4075ZM782.692 76.4075L782.651 76.2118L782.692 76.4075ZM798.612 69.5716C797.172 71.7836 795.927 73.9542 794.877 76.0836C793.93 78.055 792.932 80.1053 791.883 82.2347C790.655 84.8105 789.585 87.4892 788.674 90.2709C787.604 92.9496 786.548 95.6936 785.506 98.5028C784.724 101.257 784.414 103.98 784.573 106.672C784.814 107.166 785.974 106.853 788.054 105.732C790.134 104.612 792.784 102.962 796.003 100.784C799.223 98.605 802.778 96.0828 806.67 93.2171C810.535 90.2209 814.451 87.1458 818.418 83.9916C822.386 80.8374 826.157 77.7246 829.733 74.653C833.412 71.4235 836.532 68.4483 839.091 65.7275C840.773 64.0098 842.468 62.3574 844.177 60.7701C845.886 59.1829 847.767 57.7638 849.819 56.5129C850.233 58.4698 850.065 59.936 849.317 60.9115C849.111 61.2275 848.854 61.6225 848.545 62.0965C848.339 62.4125 848.068 62.7422 847.732 63.0858C847.396 63.4293 847.362 63.9135 847.63 64.5382C847.871 65.0325 847.692 65.479 847.095 65.8776C846.731 66.0907 846.395 66.4342 846.086 66.9082C845.777 67.3822 845.39 67.8047 844.923 68.1758C844.717 68.4918 844.46 68.8868 844.151 69.3608C843.842 69.8348 843.52 70.2436 843.183 70.5871C838.428 75.8156 834.125 80.6077 830.275 84.9635C826.425 89.3194 822.52 93.4143 818.559 97.2483C814.572 100.952 810.268 104.45 805.648 107.741C801.132 110.875 795.829 113.834 789.739 116.619C789.506 116.805 789.259 116.925 788.998 116.98C788.579 116.932 788.239 116.936 787.978 116.991C787.717 117.046 787.442 117.036 787.154 116.96C786.735 116.913 786.395 116.916 786.134 116.971C784.253 117.096 782.484 116.788 780.829 116.047C779.146 115.176 777.525 113.951 775.965 112.373C775.539 111.645 775.089 111.127 774.615 110.818C773.474 109.287 772.968 107.214 773.097 104.597C773.836 100.353 775.101 96.3386 776.891 92.5539C778.448 88.9547 780.005 85.3555 781.562 81.7563C782.96 78.0542 784.503 74.3898 786.191 70.7631C786.444 70.0282 786.777 69.3447 787.189 68.7127C787.6 68.0807 788.064 67.3697 788.578 66.5797C788.756 66.1333 789 65.673 789.309 65.199C789.59 64.5946 789.806 64.0039 789.957 63.427C790.223 61.4629 790.875 60.0307 791.911 59.1306C793.078 58.2029 794.482 57.4296 796.123 56.8106C796.72 56.412 797.266 56.0924 797.76 55.8518C798.385 55.5836 798.982 55.185 799.552 54.6559C800.355 53.9413 801.213 53.4876 802.126 53.2948C803.012 52.9716 803.86 52.7925 804.67 52.7578C805.35 52.7505 805.899 52.7708 806.318 52.8186C806.868 52.8389 807.352 52.873 807.771 52.9208C808.842 52.831 809.656 53.1361 810.212 53.8362C810.872 54.3783 811.48 54.9995 812.037 55.6996C812.229 56.6128 812.158 57.2412 811.821 57.5847C811.547 58.869 811.26 60.0881 810.958 61.2419C810.787 62.3682 810.486 63.522 810.054 64.7034C809.258 66.0978 808.369 67.3756 807.388 68.5366C806.379 69.5673 805.143 70.1688 803.681 70.3413C801.854 70.7269 800.165 70.4703 798.612 69.5716ZM830.767 112.455L830.643 111.868L830.839 111.826L830.767 112.455ZM906.167 58.1083C906.648 59.0969 906.883 60.2058 906.87 61.435C906.856 62.6642 906.308 63.9383 905.224 65.2574C903.961 67.0229 902.764 68.7747 901.632 70.5127C900.5 72.2507 899.237 74.0162 897.844 75.8093C896.451 77.6023 894.797 79.4505 892.882 81.3537C890.967 83.2569 888.675 85.308 886.005 87.507C885.071 88.2491 883.709 89.2181 881.917 90.414C880.256 91.5823 878.931 92.4071 877.943 92.8883C876.563 93.4522 875.155 93.8856 873.72 94.1886C872.388 94.3335 871.117 94.1248 869.909 93.5623C869.174 93.3087 868.401 93.1992 867.591 93.234C866.911 93.2413 866.32 93.0253 865.819 92.5861C865.393 91.8584 865.032 91.117 864.736 90.3618C864.543 89.4486 864.676 88.4665 865.136 87.4156C865.232 86.5778 865.355 85.8704 865.506 85.2935C865.368 84.6412 865.57 83.9853 866.112 83.3257C866.551 82.8242 866.781 82.2987 866.802 81.7494C866.794 81.0695 866.736 80.4687 866.625 79.9469C866.357 79.3221 866.247 78.8003 866.295 78.3814C866.343 77.9625 866.377 77.4783 866.397 76.9289C866.52 76.2216 866.644 75.5142 866.767 74.8068C866.993 73.9415 867.168 73.1551 867.291 72.4477C867.236 72.1868 867.194 71.9911 867.167 71.8607C867.27 71.7027 867.307 71.5584 867.28 71.428C867.107 69.9654 867.065 68.4753 867.154 66.9576C867.242 65.44 867.265 63.9361 867.223 62.4459L867.017 61.4675C866.57 61.2892 866.193 61.4371 865.884 61.9111C861.931 66.4249 858.607 71.0105 855.91 75.6678C854.909 77.3783 853.921 79.1539 852.947 80.9949C852.076 82.6778 851.27 84.3469 850.529 86.0023C850.09 86.5038 849.716 86.9916 849.407 87.4656C849.229 87.912 848.92 88.386 848.481 88.8875C847.321 90.4951 846.543 92.2947 846.146 94.2863C845.804 96.5389 845.461 98.7915 845.119 101.044C844.777 103.297 844.514 105.601 844.33 107.956C844.187 109.213 844.108 110.456 844.095 111.685C843.924 112.811 843.832 113.989 843.819 115.218C843.668 115.795 843.569 116.293 843.521 116.712C843.473 117.131 843.374 117.629 843.223 118.206C842.641 119.964 841.292 120.998 839.177 121.308C838.497 121.316 837.817 121.323 837.137 121.33C836.458 121.337 835.881 121.187 835.407 120.878C835.118 120.803 834.895 120.713 834.737 120.611C834.579 120.508 834.435 120.47 834.304 120.497C833.261 120.718 832.698 120.632 832.615 120.241C832.402 119.877 832.24 119.434 832.13 118.912C831.91 117.869 832.043 116.887 832.53 115.966C832.811 115.362 833.093 114.757 833.374 114.153C833.655 113.548 833.727 112.92 833.589 112.268C833.534 112.007 833.558 111.797 833.661 111.639C833.736 111.351 833.812 111.062 833.887 110.774C833.99 110.616 834.213 110.705 834.557 111.041C834.873 111.247 834.976 111.089 834.865 110.567C835.099 110.382 834.978 110.135 834.504 109.826C834.133 109.359 834.116 108.954 834.452 108.611C834.658 108.295 834.864 107.979 835.07 107.663C834.891 108.109 834.895 108.449 835.081 108.682C835.026 108.421 835.063 108.277 835.194 108.25C835.166 108.119 835.125 107.923 835.07 107.663C834.691 106.516 834.526 105.733 834.574 105.314C834.594 104.765 834.769 103.979 835.098 102.955C835.249 102.378 835.348 101.88 835.396 101.461C835.471 101.173 835.653 101.066 835.942 101.142C836.203 101.087 836.529 101.018 836.92 100.935C836.865 100.674 836.758 100.492 836.6 100.39C835.522 99.7996 835.343 98.9516 836.063 97.8456C836.269 97.5296 836.331 97.1759 836.248 96.7846C836.166 96.3932 836.148 95.988 836.196 95.5691C836.141 95.3082 836.113 95.1778 836.113 95.1778C835.955 95.0748 835.849 94.8929 835.794 94.632C835.162 94.2203 834.832 93.9493 834.805 93.8188C834.777 93.6884 834.983 93.3724 835.422 92.8708C837.151 90.7342 838.015 88.3715 838.014 85.7826C837.959 85.5217 838.02 85.168 838.199 84.7216C838.246 84.3026 838.294 83.8837 838.342 83.4648C838.548 83.1488 838.768 82.898 839.001 82.7125C839.207 82.3965 839.413 82.0805 839.618 81.7645L839.464 82.0015L839.423 81.8058L839.618 81.7645C839.927 81.2905 839.985 80.5969 839.792 79.6837C839.737 79.4228 839.617 79.1757 839.431 78.9423C839.246 78.7089 839.139 78.527 839.112 78.3965C839.358 76.9818 839.553 75.646 839.697 74.3893C839.813 73.0021 840.073 71.6526 840.477 70.3408C840.716 68.2462 841.007 66.0726 841.349 63.82C841.691 61.5675 842.047 59.3801 842.417 57.258C842.41 56.5782 842.416 55.9636 842.436 55.4142C842.429 54.7344 842.422 54.0545 842.415 53.3747C842.407 52.6949 842.465 52.0013 842.589 51.2939C842.712 50.5865 842.835 49.8792 842.958 49.1718C843.074 47.7846 843.204 46.4626 843.347 45.2059C843.491 43.9491 843.542 42.5757 843.5 41.0856C843.753 40.3507 843.877 39.6433 843.869 38.9635C843.993 38.2561 844.116 37.5487 844.239 36.8413C844.43 35.1657 844.556 33.5038 844.617 31.8557C844.781 30.0496 844.945 28.2434 845.109 26.4373C845.375 24.4732 845.628 22.4439 845.868 20.3493C846.107 18.2547 846.15 16.2015 845.998 14.1895C846.039 13.0908 845.743 12.3356 845.111 11.9239C844.664 11.7456 844.331 11.1346 844.111 10.091C844.605 9.85033 844.969 9.63725 845.202 9.45172C845.566 9.23864 845.995 9.01178 846.489 8.77116C847.32 8.187 848.089 7.95653 848.796 8.07974L849.579 7.91449C850.485 7.04188 851.422 6.63964 852.39 6.70777C853.489 6.74836 854.471 6.88172 855.337 7.10785C856.909 7.45719 857.624 8.26024 857.48 9.51698C857.309 10.6433 857.152 11.8348 857.009 13.0915C856.996 14.3207 856.852 15.5775 856.578 16.8618C856.503 17.1502 856.493 17.4249 856.548 17.6858C856.575 17.8163 856.486 18.0395 856.28 18.3555C856.014 20.3196 855.812 22.27 855.676 24.2065C855.642 25.9851 855.413 27.805 854.989 29.6662C854.496 32.4957 854.058 35.5861 853.675 38.9374C853.327 43.099 852.798 47.3672 852.086 51.7418C851.812 53.0261 851.552 54.3756 851.305 55.7904C851.162 57.0471 850.967 58.3829 850.72 59.7976C850.68 60.8964 850.574 62.0089 850.403 63.1352C850.362 64.2339 850.257 65.3464 850.086 66.4727C850.01 66.7612 850 67.0358 850.055 67.2968C850.083 67.4272 850.059 67.6367 849.983 67.9251C850.011 68.0556 850.038 68.186 850.066 68.3165C850.196 68.289 850.275 68.3404 850.303 68.4709C850.536 68.2853 851.068 67.9005 851.899 67.3163C852.702 66.6017 853.141 66.1002 853.217 65.8117C853.621 64.4999 854.314 63.2635 855.295 62.1024C856.277 60.9413 857.258 59.7802 858.239 58.6192C859.063 57.3552 860.044 56.1941 861.183 55.1359C862.425 53.9198 863.444 52.6145 864.24 51.22C864.446 50.904 864.81 50.691 865.332 50.5808C866.059 50.1546 866.787 49.7285 867.515 49.3023C868.215 48.7457 868.994 48.2405 869.852 47.7868C870.813 47.1751 871.867 46.6801 873.014 46.3018C874.263 45.7655 875.609 45.6858 877.051 46.0626C878.178 46.2337 878.875 46.6316 879.143 47.2563C879.281 47.9086 879.405 48.4957 879.515 49.0175C879.625 49.5393 879.67 50.075 879.65 50.6243C879.355 52.458 879.191 54.2641 879.158 56.0427C879.125 57.8212 879.026 59.6136 878.862 61.4197C878.568 63.2534 878.339 65.0733 878.175 66.8794C877.984 68.555 877.806 70.2959 877.643 72.102C877.657 73.4617 877.606 74.8351 877.49 76.2223C877.477 77.4515 877.427 78.825 877.338 80.3426C877.785 80.5209 878.217 80.634 878.636 80.6818C879.158 80.5717 879.615 80.4753 880.006 80.3926C881.338 80.2477 882.872 79.4468 884.609 77.9901C886.476 76.5057 888.353 74.7467 890.24 72.713C892.258 70.6518 894.262 68.5254 896.252 66.3337C898.215 64.0115 899.958 61.9401 901.482 60.1195C901.687 59.8035 901.907 59.5528 902.14 59.3672C902.504 59.1542 902.789 58.8896 902.995 58.5736C903.331 58.2301 903.747 57.938 904.241 57.6974C904.735 57.4568 905.377 57.5937 906.167 58.1083ZM836.14 104.984C836.084 104.723 835.978 104.541 835.82 104.438C835.614 104.754 835.511 104.912 835.511 104.912C835.408 105.07 835.412 105.41 835.522 105.932L836.14 104.984ZM836.898 98.8958L836.661 98.7414L836.703 98.9371C836.73 99.0676 836.809 99.119 836.94 99.0915L836.898 98.8958ZM840.203 77.7573L840.162 77.5616L840.008 77.7986L840.203 77.7573ZM841.271 71.1953L841.23 70.9996L841.271 71.1953ZM839.103 81.2601C839.131 81.3905 839.223 81.5072 839.381 81.6101L839.423 81.8058C839.292 81.8334 839.213 81.7819 839.186 81.6515C838.925 81.7065 838.86 81.7203 838.99 81.6928C839.093 81.5348 839.131 81.3905 839.103 81.2601Z" fill="#30E1B9"/>
</g>
<defs>
<filter id="filter0_d" x="0.03125" y="0.353058" width="911.838" height="349.139" filterUnits="userSpaceOnUse" color-interpolation-filters="sRGB">
<feFlood flood-opacity="0" result="BackgroundImageFix"/>
<feColorMatrix in="SourceAlpha" type="matrix" values="0 0 0 0 0 0 0 0 0 0 0 0 0 0 0 0 0 0 127 0"/>
<feOffset dy="10"/>
<feGaussianBlur stdDeviation="2.5"/>
<feColorMatrix type="matrix" values="0 0 0 0 0.364603 0 0 0 0 0.243108 0 0 0 0 0.870833 0 0 0 1 0"/>
<feBlend mode="normal" in2="BackgroundImageFix" result="effect1_dropShadow"/>
<feBlend mode="normal" in="SourceGraphic" in2="effect1_dropShadow" result="shape"/>
</filter>
</defs>
</svg>
