<svg fill="none" height="350" viewBox="0 0 912 350" width="912" xmlns="http://www.w3.org/2000/svg" xmlns:xlink="http://www.w3.org/1999/xlink"><filter id="a" color-interpolation-filters="sRGB" filterUnits="userSpaceOnUse" height="349.139" width="911.838" x=".03125" y=".353058"><feFlood flood-opacity="0" result="BackgroundImageFix"/><feColorMatrix in="SourceAlpha" type="matrix" values="0 0 0 0 0 0 0 0 0 0 0 0 0 0 0 0 0 0 127 0"/><feOffset dy="10"/><feGaussianBlur stdDeviation="2.5"/><feColorMatrix type="matrix" values="0 0 0 0 0.364603 0 0 0 0 0.243108 0 0 0 0 0.870833 0 0 0 1 0"/><feBlend in2="BackgroundImageFix" mode="normal" result="effect1_dropShadow"/><feBlend in="SourceGraphic" in2="effect1_dropShadow" mode="normal" result="shape"/></filter><g filter="url(#a)"><path d="m43.6192 251.237c-2.5266.943-4.4146 1.682-5.6641 2.218-1.2495.537-2.3069.692-3.1723.466-.8654-.227-1.7996-.779-2.8027-1.657-.9001-1.037-2.3018-2.512-4.205-4.427-.5291-.57-.9379-.892-1.2263-.968-.316-.206-.6183-.346-.9067-.422-.158-.103-.3813-.192-.6697-.267-.316-.206-.8038-.58-1.4633-1.122 1.1118-1.189 2.2685-1.842 3.4702-1.959 1.1741-.248 2.9317-.96 5.2727-2.135l14.7656-9.454c1.4278-.983 2.1446-2.429 2.1504-4.338.1363-1.936.3791-3.691.7284-5.264 1.2872-6.812 2.602-13.495 3.9443-20.047 1.3147-6.682 2.4852-13.402 3.5115-20.16.1305-.027.2986-.199.5045-.515l.1543-.237s-.429.227-1.2872.68c-.7552.296-1.5104.592-2.2656.888-.6523.137-1.0574.155-1.2154.052-.1856-.234.3051-.814 1.472-1.742.4667-.371.4015-.357-.1957.041-.4943.241-1.222.667-2.183 1.279s-1.9221 1.223-2.8831 1.835c-.8581.454-1.2872.681-1.2872.681-.6523.137-1.4452.577-2.3787 1.319-.8306.585-1.7126 1.248-2.6461 1.99-.8031.715-1.5546 1.35-2.2548 1.907-.7001.556-1.1944.797-1.4828.722-.0276-.131-.4052.017-1.1329.443-.6247.268-1.2871.681-1.9873 1.237-.7276.426-1.3248.825-1.7916 1.196-.4667.371-.4907.581-.0717.629.1304-.028.2746.01.4326.113-.803.714-1.5821 1.219-2.3373 1.515l-3.4398 1.135c-.3638.213-1.0262.626-1.9873 1.237-.8581.454-1.7677.987-2.7287 1.598-.9886.482-1.8467.935-2.5744 1.361-.6248.269-.9647.272-1.0198.011.2059-.316-.213-.364-1.2567-.143-.9132.193-1.5003.317-1.7612.372-.3914.082.0102-.275 1.2046-1.072 1.1944-.798 2.5845-1.636 4.1703-2.516 1.5582-1.01 2.9483-1.849 4.1703-2.516 1.1944-.797 1.5959-1.154 1.2046-1.072-.5972.399-1.5206.867-2.7701 1.403-1.277.406-2.6055.891-3.9855 1.454-1.4075.434-2.815.867-4.2225 1.301-1.277.406-2.3069.691-3.0897.856-.5218.111-.9922.142-1.4111.094-.2884-.076-.2645-.285.0718-.629 1.1944-.797 1.7126-1.247 1.5546-1.35-.0275-.13-.3537-.061-.9784.207-.6523.137-1.3423.419-2.07.846-.7552.295-1.198.457-1.3285.484-1.00304-.878-1.87566-1.784-2.61781-2.717-.90016-1.037-1.77278-1.943-2.61785-2.718 2.60191-1.231 5.39586-2.843 8.38196-4.836 3.1165-2.021 6.3497-4.134 9.6995-6.34 3.3224-2.337 6.6722-4.543 10.0497-6.619 3.4803-2.233 7.0295-4.141 10.6475-5.722l19.5144-9.23c.9335-.742 1.2835-1.021 1.0502-.835-.1305.027.2333-.186 1.0915-.639l42.3362-17.319c3.542-1.293 7.322-2.431 11.339-3.415 4.119-1.143 7.847-2.202 11.184-3.179 1.538-.461 3.794-1.074 6.767-1.837 2.945-.895 6.114-1.7 9.506-2.416 3.494-.874 7.031-1.553 10.608-2.035 3.55-.613 6.829-.897 9.837-.85 3.007.046 5.469.412 7.386 1.098 1.916.685 2.923 1.904 3.02 3.655-.322 1.703-1.303 2.864-2.944 3.483-1.511.591-3.375 1.121-5.593 1.589-1.043.221-2.138.52-3.285.898-1.044.221-2.218.469-3.522.744-.858.454-1.73.842-2.616 1.165-.886.324-2.242.678-4.068 1.064-2.218.468-3.653.771-4.305.908-.522.111-.704.217-.546.32.13-.028.405-.017.824.03.549.021.838.096.865.227-2.842.736-5.424 1.417-7.744 2.043-2.06.572-4.055 1.129-5.984 1.672-1.957.414-3.248.754-3.873 1.022-1.64.619-2.955 1.169-3.944 1.651-.858.453-1.469.787-1.833 1-.233.185-.168.172.196-.042.494-.24 1.325-.824 2.492-1.752-.028-.13-.55-.02-1.566.33-.913.193-2.008.493-3.285.898-1.147.379-2.228.743-3.244 1.094s-1.524.526-1.524.526c-.776.845-2.101 1.67-3.975 2.475-1.744.777-3.179 1.08-4.305.909-.446-.179-1.583-.075-3.409.31-1.827.386-3.495.874-5.006 1.466-1.249.536-2.07.846-2.461.928-.652.138-1.081.365-1.287.681-.618.948-1.462 1.467-2.5331 1.557-.9683-.068-2.091.1-3.368.506-3.9819 1.795-7.7681 3.548-11.3586 5.26s-6.7758 3.406-9.556 5.083c.2971 3.344.0521 7.348-.735 12.011s-1.6909 9.419-2.7114 14.268c-1.048 4.718-2.0445 9.357-2.9897 13.918-.8146 4.532-1.2451 8.302-1.2915 11.31 4.0442-.854 7.3056-1.542 9.7843-2.065 2.4512-.654 4.7204-1.201 6.8078-1.642 2.2177-.468 4.5935-.833 7.1273-1.096 2.6367-.42 6.1112-.745 10.4239-.974 2.3-.077 4.092.022 5.377.296 1.414.246 2.486 1.451 3.216 3.614-.59 1.078-.975 1.841-1.153 2.287-.206.316-.425.567-.659.752-.233.186-.611.334-1.132.444-.392.082-1.147.378-2.266.887-3.515 1.423-6.028 2.431-7.5384 3.022-1.538.461-2.8802.881-4.0268 1.259-1.1741.248-2.5954.616-4.2638 1.105-1.696.358-4.3428 1.053-7.9406 2.085-4.3805 1.197-7.7687 2.253-10.1648 3.168-2.2932.756-4.1261 1.757-5.4988 3-1.2698 1.086-2.1961 2.508-2.7788 4.266s-1.2234 4.21-1.9221 7.356c-1.0611 5.947-2.1975 12.183-3.4093 18.708-1.1089 6.366-2.1389 12.784-3.0898 19.253.0276.13-.0239.209-.1543.237l-.3914.083c-1.0089 1.03-1.6264 1.978-1.8525 2.844-.0957.837-.0747 1.582.063 2.235.1377.652.2754 1.304.4131 1.957.2682.624.2617 1.239-.0195 1.843-.1508.577-.2943 1.834-.4306 3.771-.1362 1.936-.108 3.361.0848 4.274-.1232.708-.2464 1.415-.3696 2.122.0348.811-.0094 1.57-.1327 2.277-.2246 3.454-.2674 6.802-.1283 10.043.2696 3.214.3262 6.063.1696 8.549-1.0379-1.688-1.4097-3.45-1.1154-5.283.4523-1.731.403-3.901-.1478-6.51-.2754-1.305-.4095-1.617-.4023-.937.0073.68.0181 1.699.0326 3.059.1725 1.463.2146 2.953.1261 4.47.0696 1.621.0152 2.654-.163 3.101-.1508.577-.2979 1.494-.4414 2.75.0145 1.36-.0776 2.538-.2762 3.534-.0406 1.098-.1776 1.741-.4109 1.926-.2334.186-.5153-.504-.8458-2.07-.303-1.435-.3479-1.97-.1348-1.607.3435.337.1449 1.332-.5958 2.988-.2058.316-.4291.227-.6697-.268-.0826-.391-.1928-.913-.3305-1.565s-.2754-1.305-.4131-1.957-.2341-1.109-.2892-1.37l-1.6937-8.023c.3232.886.1935 2.208-.3892 3.966-.4523 1.731-.3791 3.691.2196 5.881.0826.392.0311.471-.1544.237-.0551-.26-.1515-.717-.2892-1.369-.1102-.522-.3131-1.161-.6088-1.916-.1377-.652-.2479-1.174-.3305-1.565-.2203-1.044-.5472-2.27-.9806-3.677-.4058-1.277-.8255-2.619-1.2589-4.027-.4334-1.407-.7878-2.764-1.0632-4.068-.2479-1.174-.324-2.18-.2283-3.018s.1913-1.676.287-2.514c.1232-.707.116-1.387-.0217-2.039.0275.13-.058.694-.2566 1.689-.0681.969-.229 1.82-.4827 2.555-.2261.866-.4044 1.312-.5349 1.34-.1304.027-.1652-.783-.1043-2.431.1362-1.937.1594-3.441.0696-4.512-.0899-1.071-.166-2.077-.2283-3.018.0681-.968.1225-2.002.163-3.1.1711-1.127.4552-2.686.8524-4.677.1029-.158.1507-.577.1435-1.257.1232-.707.1812-1.401.1739-2.081.0957-.838.1022-1.452.0196-1.844-.1102-.522-.2819-.69-.5153-.504.0957-.838.2566-1.69.4827-2.555.1986-.996.3696-2.122.5131-3.379.1624-4.395.6342-7.969 1.4155-10.723.7814-2.755 1.1648-4.811 1.1503-6.171.1232-.707.2703-1.624.4414-2.751.171-1.126.3421-2.252.5131-3.378.2058-.316.295-.54.2674-.67zm22.9019-11.58c2.1004-1.67 3.7376-2.629 4.9117-2.876 1.2771-.406 2.9969-.974 5.1596-1.703 1.0162-.351 2.228-.743 3.6355-1.176 1.5379-.461 2.6294-1.1 3.2745-1.918 1.277-.406 2.3584-.77 3.244-1.094.7552-.295 1.4727-.447 2.1526-.454.6523-.138.8617-.114.6283.072-.5696.529-.7755.845-.6175.948.1305-.028.4429-.162.9372-.402.4943-.241 1.0538-.495 1.6785-.764.7277-.426 1.4039-.773 2.0287-1.041 2.2931-.757 4.3804-1.197 6.2619-1.322 1.8819-.125 3.9039-.552 6.0659-1.281.783-.165.848-.179.196-.041s-1.552.396-2.698.774c-1.016.351-2.098.715-3.244 1.094-1.1744.248-1.8919.399-2.1528.454s-1.0814.365-2.4613.929c-1.2495.536-2.6295 1.1-4.1399 1.691-1.5379.461-2.8802.881-4.0268 1.259-1.0161.351-1.4212.368-1.2154.052.4392-.501.2812-.604-.474-.309-.6523.138-1.4727.448-2.4613.929-1.0161.351-2.0185.767-3.0071 1.248-.8581.454-1.3524.694-1.4828.722-2.0874.44-3.6253.901-4.6139 1.383-1.0161.35-2.3171.966-3.9029 1.846-.1029.158-.6762.347-1.7199.567-1.0712.09-1.7235.228-1.9568.413zm51.3089-88.098c-.261.055-.638.203-1.132.444-.495.24-.989.481-1.483.722l-1.875.804c1.044-.22 2.283-.482 3.719-.785 1.537-.461 2.591-.956 3.161-1.485 1.036-.9 2.389-1.594 4.057-2.083 1.799-.516 3.351-.912 4.655-1.187.783-.165 1.422-.368 1.916-.609.597-.398 1.091-.639 1.483-.722.13-.027.144.038.041.196.028.13-.075.288-.309.474-.103.158-.205.316-.308.474 0 0 .116-.093.35-.278.569-.529.971-.887 1.204-1.072.364-.213.611-.334.742-.361.261-.055.522-.11.782-.165.392-.083.914-.193 1.566-.331.886-.323 2.228-.743 4.027-1.259 1.771-.646 2.852-1.011 3.244-1.094-1.044.221-2.558.472-4.542.755-1.854.255-3.21.609-4.068 1.063-2.005.832-3.646 1.451-4.923 1.857s-2.959.829-5.047 1.27c-.652.137-1.215.052-1.689-.257-.371-.467-.618-.346-.741.361-.021.55-.707 1.171-2.06 1.866-1.221.666-2.08 1.12-2.574 1.361zm-77.4699 36.796c-.1305.027-.1682.171-.1131.432.1855.234.2645.285.237.155.3638-.213.6349-.543.8132-.99.3087-.474.5936-.738.8545-.793.8856-.324 1.4966-.657 1.8329-1 .4668-.372.8821-.664 1.2459-.877.4667-.371.9473-.677 1.4416-.917.5972-.399 1.4176-.708 2.4613-.929.2609-.055 1.0915-.639 2.4917-1.752 1.3727-1.244 2.0968-2.01 2.1721-2.298-.1304.027-.8305.584-2.1003 1.669-1.2974.956-2.5983 1.571-3.9029 1.846-1.4075.434-2.4852 1.138-3.2332 2.114-.7755.845-1.5032 1.271-2.183 1.278-1.0437.221-1.4589.513-1.2459.877.2131.363-.0442.758-.7718 1.185zm74.5639.816c.233-.186.848-.179 1.844.019 1.099.041 1.778.033 2.039-.022 2.06-.571 4.244-.555 6.552.048.734.254.948.618.639 1.092-.206.316-.343.958-.411 1.926s-.061 1.648.022 2.04c.082.391.151.717.206.978s-.02.549-.226.865c-.075.289-.291.88-.648 1.772-.515.79-.909 1.828-1.183 3.112-.301 1.154-.64 2.452-1.017 3.894-.247 1.415-.572 2.778-.977 4.09-.274 1.284-.603 2.308-.987 3.07.289.075.965-.272 2.029-1.041 1.036-.901 1.62-1.364 1.75-1.392.597-.399 1.129-.783 1.596-1.155.57-.529 1.167-.927 1.792-1.195.988-.482 2.056-.911 3.202-1.29 1.25-.536 2.476-.863 3.677-.98 1.127.171 1.861.424 2.205.761l1.422.926c.529.57.9 1.036 1.113 1.4.316.206.515.505.598.896.186.233.268.625.248 1.174.11.522.08 1.346-.091 2.472-.054 2.328-.121 4.591-.203 6.788-.081 2.198-.213 4.474-.397 6.83-.061 1.648-.081 3.492-.059 5.531.022 2.04-.077 3.832-.296 5.377-.164 1.806-.3 3.743-.409 5.81.022 2.04-.035 4.028-.172 5.964.68-.007 1.02-.011 1.02-.011.103-.158.244-.46.422-.906 1.009-1.031 1.678-2.058 2.007-3.081.487-.921.988-1.776 1.502-2.566.515-.79 1.03-1.58 1.544-2.37.954-1.292 1.856-2.504 2.707-3.638.823-1.264 1.582-2.514 2.274-3.75 1.16-1.608 2.268-3.136 3.325-4.586 1.029-1.58 2.137-3.108 3.325-4.585.953-1.292 1.921-2.518 2.902-3.679 1.112-1.189 2.145-2.429 3.099-3.721.514-.79.94-1.356 1.276-1.7.206-.316.425-.567.659-.752.336-.344.607-.673.813-.989 1.729-2.137 3.672-3.91 5.827-5.319.893.357 1.213.903.959 1.637-.302 1.154-.552 2.229-.75 3.225-.199.996-.449 2.071-.75 3.224-.206.316-.398.698-.577 1.144-.178.447-.435.842-.771 1.185-2.32 3.215-4.546 6.547-6.68 9.995-2.003 3.421-4.123 6.935-6.36 10.541-1.571 2.24-3.077 4.466-4.518 6.678-1.31 2.184-2.672 4.447-4.085 6.79-1.338 2.054-3.174 4.009-5.508 5.864-1.792 1.196-4.009 1.664-6.653 1.405-.289-.076-.577-.151-.866-.227-.158-.102-.446-.178-.865-.226-1.126-.171-2.164-.565-3.112-1.183-.845-.775-1.391-1.75-1.639-2.924-.626-2.321-.861-4.724-.704-7.21.211-2.225.385-4.306.521-6.242.109-2.067.153-4.121.131-6.16.123-.708.246-1.415.37-2.122.123-.708-.029-1.425-.455-2.153-.288-.075-.278-.35.031-.824.04-1.099.067-2.263.08-3.492.144-1.257.236-2.434.276-3.533.041-1.099.03-2.119-.032-3.059.04-1.099.146-2.212.317-3.338-.858.454-1.287.681-1.287.681-2.196 2.507-4.698 4.535-7.506 6.081-1.819 1.066-3.735 1.674-5.747 1.827-1.071.089-2.025.087-2.863-.009-.865-.226-1.745-.518-2.637-.874-.186-.234-.567-.426-1.144-.576-.996-.199-1.707-.662-2.133-1.39-.584-.83-1.117-1.74-1.598-2.728-.138-.653-.169-1.123-.094-1.412.247-1.414.428-2.815.544-4.203.116-1.387.376-2.736.78-4.048.432-1.181.813-2.284 1.142-3.307.171-1.126.486-2.215.946-3.266.048-.419.174-.786.38-1.102.179-.447.357-.893.535-1.34.384-.762.652-1.432.802-2.009.124-.707.377-1.442.761-2.204.872-1.683 1.396-2.748 1.575-3.195.281-.604.473-.985.576-1.143.206-.316.412-.632.617-.948.206-.316.683-.962 1.431-1.937zm45.577 38.618c.123-.707.26-1.349.411-1.926s.288-1.219.411-1.927c1.165-3.516 2.331-7.033 3.496-10.549 1.138-3.647 2.434-7.192 3.888-10.633.178-.446.408-.972.689-1.576.281-.605.223-1.205-.176-1.803-.055-.26.072-.628.381-1.102.534-1.339 1.282-2.315 2.243-2.927 1.064-.769 2.235-1.357 3.512-1.763.364-.213.741-.361 1.133-.443.522-.111.951-.337 1.287-.681.906-.873 1.857-1.21 2.853-1.011 1.126.171 2.215.486 3.265.946 1.312.404 1.821 1.523 1.527 3.357-.364.213-.714.491-1.05.835-.364.213-.78.505-1.246.876-1.064.77-1.84 1.615-2.327 2.535-1.001 1.711-1.924 3.473-2.768 5.286-.74 1.655-1.467 3.376-2.181 5.162-.507 1.47-1.014 2.939-1.522 4.409-.534 1.34-1.148 2.628-1.841 3.864-.487.92-.895 1.892-1.224 2.916-.199.996-.398 1.991-.596 2.987.316.206.525.23.628.072s.141-.302.113-.433c1.05-2.129 2.113-4.193 3.19-6.192 1.18-2.157 2.295-4.3 3.344-6.429.206-.316.398-.698.576-1.144.309-.474.566-.869.772-1.185 1.215-1.347 2.165-2.978 2.851-4.894.206-.316.295-.54.267-.67.103-.158.271-.33.505-.515.569-.53.785-1.12.648-1.773-.056-.26-.018-.405.113-.432.103-.158.192-.381.267-.67.206-.316.398-.697.576-1.144.309-.474.566-.869.772-1.185.515-.79.978-1.501 1.39-2.133.411-.632.809-1.329 1.193-2.091.281-.605.642-1.158 1.081-1.659.103-.158.219-.251.35-.279.13-.027.312-.134.546-.319.261-.055.47-.031.628.072s.288.075.391-.083c.776-.845 1.583-1.22 2.42-1.124.838.096 1.676.191 2.514.287 1.834.294 2.957 1.42 3.37 3.377.268.624.42 1.342.454 2.152.138.652.211 1.318.218 1.998.119 3.791.159 7.53.119 11.218.092 3.66.118 7.333.079 11.021-.247 1.415-.129 2.616.352 3.605.597-.399 1.143-.718 1.637-.959.597-.398 1.102-.914 1.513-1.546 4.159-4.83 8.102-9.069 11.829-12.717 3.726-3.649 7.45-7.637 11.169-11.965 1.579-1.56 3.209-3.199 4.89-4.916 1.784-1.876 3.517-3.673 5.199-5.39 1.681-1.718 3.246-3.343 4.694-4.875 1.579-1.56 2.938-2.869 4.077-3.927.542-.66 1.191-1.137 1.946-1.433.13-.027.433.113.907.422l-.392.083.083.391c.206-.316.309-.474.309-.474.027.13.134.312.319.546.158.103.251.219.279.35-.151.577-.367 1.167-.648 1.772-.179.446-.329 1.023-.453 1.731-.685 1.916-2.02 4.31-4.002 7.181-1.881 2.714-4.111 5.706-6.691 8.976-2.477 3.112-5.201 6.344-8.173 9.697-2.841 3.325-5.631 6.572-8.369 9.739-2.766 3.037-5.363 5.902-7.793 8.595-2.326 2.535-4.213 4.569-5.662 6.101-1.111 1.188-2.656 2.264-4.633 3.226-.364.214-.741.361-1.133.444-.419-.048-.759-.044-1.02.011-3.845-.142-7.081-1.912-9.706-5.31-.474-.309-.649-.817-.526-1.524.281-.604.367-1.168.257-1.689-.138-.653-.145-1.333-.022-2.04l-.28-4.233c-.098-1.751-.195-3.502-.292-5.253.034-1.779.002-3.544-.095-5.295l-.166-.783c-.597.399-1.177 1.203-1.739 2.412-.796 1.394-1.526 2.775-2.192 4.142-.693 1.236-1.423 2.617-2.192 4.142-.665 1.367-1.33 2.734-1.996 4.101-.692 1.236-1.227 2.575-1.604 4.018-.658 2.046-1.474 3.99-2.448 5.831-.844 1.813-1.739 3.706-2.686 5.677-.562 1.209-1.204 2.367-1.924 3.473s-1.678 2.057-2.872 2.854c-2.389 1.595-4.779 1.895-7.169.901-.446-.179-.8-.24-1.061-.185-.419-.048-.773-.11-1.061-.185-.502-.439-.924-.827-1.268-1.163-.343-.337-.673-.608-.989-.814-.817-.645-1.178-1.386-1.083-2.224-.137-.652-.169-1.123-.093-1.411.397-1.992.822-3.853 1.274-5.584.425-1.861.928-3.671 1.511-5.429.103-.158.22-.251.35-.278 0 0 .052-.079.155-.237l-.196.041c.24.494.337.951.289 1.37-.206.316-.333.683-.38 1.102-.734 2.336-1.337 4.643-1.81 6.923-.253.735-.181 1.401.218 1.999.63-2.178 1.21-4.276 1.737-6.295.5-2.15 1-4.299 1.5-6.449.124-.707.261-1.35.411-1.926.151-.577.288-1.22.411-1.927.934-.742 1.263-1.765.988-3.07.597-.399.947-.677 1.05-.835-.055-.261-.217-.704-.485-1.328.419.047.666-.073.741-.361.048-.419.189-.721.422-.907.075-.288.086-.563.031-.824-.083-.391-.087-.731-.011-1.02.597-.398.813-.989.648-1.772.205-.316.425-.567.658-.752.206-.316.412-.632.618-.948-.055-.261-.124-.587-.207-.979-.082-.391-.282-.69-.598-.895.763.384 1.164.026 1.205-1.072-.206.316-.36.553-.463.711-.131.027-.299.199-.505.515.056.261.124.587.207.978-.075.289.045.536.361.742-.913.193-1.339.759-1.276 1.7-.598.399-.814.989-.648 1.772-.337.344-.398.697-.185 1.061.185.234.24.495.165.783-.419-.048-.68.007-.783.165s-.216.591-.339 1.298c-.57.529-.772 1.185-.606 1.968-.309.474-.553.934-.731 1.381-.309.474-.394 1.037-.257 1.689l-.802 2.009c-.309.474-.641 1.158-.998 2.051zm9.843-25.994c-.103.158-.192.382-.267.67.027.131-.048.419-.226.865l.771-1.184c-.027-.131-.12-.248-.278-.351zm-1.481 4.606c-.13.027-.195.041-.195.041-.028-.131-.107-.182-.237-.154-.103.158-.141.302-.113.432 0 0-.052.079-.155.237.028.131.121.247.279.35l.195-.041c-.055-.261.021-.549.226-.865zm.453-1.731.041.196c.103-.158.154-.237.154-.237l-.041-.196c-.13.027-.182.106-.154.237zm115.482-37.462c2.047.659 3.211 1.98 3.494 3.964.165.783.255 1.854.27 3.214.042 1.49.056 2.85.043 4.079s-.012 2.523.002 3.883c-.04 1.099-.095 2.132-.163 3.101.062.94.06 1.895-.009 2.863-.184 2.356-.419 4.79-.706 7.304-.315 2.383-.564 4.752-.748 7.107-.322 1.704-.434 3.431-.337 5.182s.208 3.567.332 5.449c-.116 1.387.187 2.822.909 4.305.268.624.341 1.291.218 1.998-.151.577-.288 1.219-.411 1.926-1.716.908-3.55.613-5.501-.882-3.373-2.423-5.445-5.46-6.216-9.113-.324-.886-.517-1.799-.579-2.74.068-.968.071-1.922.009-2.863.04-1.099.016-2.184-.074-3.255.013-1.229.17-2.421.472-3.575.075-.288.034-.484-.124-.587-.055-.261-.138-.652-.248-1.174-.206.316-.439.502-.7.557-.131.027-.247.12-.35.278-.871 1.683-1.822 3.315-2.851 4.895-.898 1.552-1.928 3.132-3.087 4.739-1.077 1.999-2.247 3.882-3.51 5.647-1.262 1.766-2.511 3.596-3.746 5.492s-2.669 3.494-4.303 4.793c-1.606 1.429-3.494 2.168-5.664 2.217-1.957.413-3.684.301-5.181-.337-1.498-.638-2.985-1.55-4.462-2.737-1.821-1.524-3.054-3.171-3.701-4.942-.777-1.744-1.241-3.622-1.393-5.634.013-1.229.091-2.472.235-3.729-.015-1.36.063-2.603.234-3.729.24-2.094.493-4.124.759-6.088.239-2.094.492-4.124.759-6.088.349-1.573.699-3.145 1.048-4.718s.699-3.146 1.048-4.718c.171-1.127.281-1.899.328-2.318-.082-.392-.299-1.095-.65-2.111.357-.893 1.177-1.203 2.462-.929 1.359-.014 2.231-.403 2.615-1.165.68-.007 1.192.157 1.535.493.316.206.801.24 1.453.103 1.099.04 2.019.527 2.761 1.461.742.933.976 2.042.702 3.326-.047.419-.133.982-.256 1.69-.02.549-.106 1.112-.257 1.689-.377 1.442-.688 2.871-.935 4.286-.274 1.284-.469 2.62-.585 4.007-.314 2.383-.694 4.78-1.139 7.19-.445 2.411-.825 4.808-1.139 7.191-.322 1.703-.318 3.337.013 4.903.172 1.462.321 3.134.446 5.016.858-.454 1.506-.931 1.946-1.433.411-.632.888-1.278 1.43-1.937 2.367-3.634 4.631-7.11 6.793-10.428 2.133-3.449 4.319-6.976 6.555-10.582 1.132-1.738 2.213-3.397 3.242-4.977 1.132-1.738 2.251-3.542 3.355-5.41.823-1.264 1.582-2.514 2.274-3.751.666-1.367 1.41-2.682 2.233-3.946.33-1.023.607-1.968.833-2.833.199-.996.621-1.903 1.266-2.72l.587-.124c.885-.323 1.366-.629 1.441-.918.076-.288-.127-.927-.608-1.915l-.042-.196c.131-.027.247-.12.35-.278.653-.138 1.058-.155 1.216-.052.707.123 1.335.195 1.885.215.68-.007 1.387.116 2.122.369zm1.231 8.735-.124-.587c-.254.734-.456 1.39-.607 1.967-.377 1.443-.414 2.881-.111 4.316s.444 2.428.424 2.977c-.048.419-.12 1.047-.215 1.885-.123.707-.26 1.35-.411 1.926-.151.577-.157 1.192-.02 1.844.371.467.519.845.444 1.133.055.261.021.745-.102 1.453-.096.837-.188 2.015-.277 3.533-.115 1.387-.152 2.826-.11 4.316.137.652.179.848.124.587.075-.289.109-.773.102-1.453-.008-.679-.029-1.425-.063-2.235.068-.968.191-1.675.369-2.122.713-1.786 1.08-2.953 1.101-3.503.02-.549-.066-1.28-.259-2.194-.193-.913-.307-1.775-.342-2.585.124-.707.247-1.415.37-2.122.096-.838.116-1.387.061-1.648l-.661-3.131c-.454-.858-.591-1.51-.413-1.957.206-.316.374-.488.504-.515.131-.028.285-.265.463-.711zm3.159 13.028c.281-.604.322-.409.124.587-.096.838-.13 1.322-.102 1.453.082.391.072.666-.031.824.083.391.073.666-.03.824-.57.529-.786 1.119-.648 1.772l.289 1.37c.213.363.268.624.165.782-.13.028-.233.186-.309.474.035.811-.102 1.453-.411 1.927.055.261.09 1.071.105 2.431.082.391.062.94-.061 1.648-.151.577-.288 1.219-.411 1.926-.254.735-.428 1.521-.524 2.359-.035-.81.009-1.569.133-2.276.123-.708.208-1.271.256-1.69.02-.549.133-.982.339-1.298.076-.288.058-.693-.052-1.215s-.196-1.253-.259-2.194c-.082-.391-.024-1.085.174-2.081.171-1.126.342-2.252.513-3.379zm68.502-25.295-.041-.196zm1.616-2.998-.155.237-.041-.196zm-3.099 3.72c-.494.24-1.366.629-2.615 1.165 1.523-1.82 3.376-3.37 5.559-4.648.213.363.035.81-.535 1.339-.727.426-1.05.835-.967 1.226-.233.186-.467.371-.7.557-.261.055-.508.175-.742.361zm4.355-3.577c-.13.028-.181.107-.154.237 0 0-.065.014-.196.041-.027-.13.024-.209.155-.237zm-.545.32.195-.042zm-1.657 2.802c.494-.24.937-.402 1.328-.484.522-.111 1.147-.379 1.875-.805-.206.316-.347.618-.422.907-.103.158-.206.316-.309.474-.075.288-.216.59-.422.906-.103.158-.127.368-.072.629.221 1.043.008 1.974-.637 2.792-.514.79-1.238 1.556-2.172 2.298-1.784 1.876-3.503 3.737-5.157 5.586-1.682 1.717-3.284 3.486-4.808 5.307-.775.845-1.564 1.625-2.367 2.34-.701.556-1.387 1.178-2.059 1.865-1.943 1.773-3.82 3.532-5.632 5.277-1.681 1.718-3.349 3.501-5.003 5.349-1.476 1.402-3.016 2.817-4.623 4.246-1.475 1.402-3.016 2.817-4.622 4.247-.906.872-1.891 1.693-2.955 2.463-.961.612-1.908 1.289-2.842 2.031-1.997 1.512-3.971 2.814-5.92 3.907-1.82 1.066-3.876 1.977-6.169 2.733-1.119.509-2.149.795-3.09.857-1.098-.041-2.225-.212-3.378-.513-2.885-.754-5.828-2.109-8.83-4.064-.79-.515-1.515-1.043-2.175-1.585-.79-.515-1.332-1.15-1.628-1.905.514-.79.809-1.329.885-1.617.226-.866.256-1.69.091-2.473-.049-2.17.255-4.278.913-6.325.528-2.019 1.265-4.014 2.212-5.986.226-.865.531-1.679.915-2.441.254-.735.205-1.611-.146-2.627l.155-.237s.116-.093.35-.278c.625-.268 1.012-.691 1.163-1.268.02-.549.25-1.075.689-1.576 1.05-2.129 2.164-4.273 3.344-6.429 1.022-2.26 2.058-4.455 3.108-6.584.487-.921.974-1.841 1.461-2.762.59-1.078.956-2.246 1.1-3.502-.028-.131.127-.368.463-.711 1.215-1.347 2.234-2.652 3.057-3.916.796-1.395 1.829-2.635 3.098-3.721l-.289-1.369c1.016-.351 1.981-.623 2.894-.816 1.016-.35 2.139-.519 3.368-.506 1.099.04 2.17-.05 3.214-.27 1.016-.351 2.032-.701 3.048-1.052 1.957-.413 3.554-.273 4.79.419.79.515 1.566.964 2.329 1.348.865.227 1.628.611 2.287 1.153 1.525.768 2.384 1.609 2.577 2.522.295.755.032 1.765-.792 3.029-.514.79-1.015 1.645-1.502 2.566-.384.762-.899 1.552-1.544 2.369-2.655 3.559-5.548 6.963-8.678 10.213-2.999 3.222-6.272 6.435-9.821 9.637-1.736 1.456-3.724 2.694-5.962 3.711-1.613.75-2.79 1.952-3.531 3.607-.583 1.759-1.035 3.489-1.357 5.193-.349 1.572-.606 3.262-.769 5.068.007.68.028 1.425.063 2.235-.124.707-.182 1.401-.174 2.081.11.522.285 1.03.526 1.524.68-.007 1.253-.196 1.72-.568.467-.371.933-.742 1.4-1.113 1.4-1.113 2.828-2.096 4.283-2.948 1.428-.983 2.749-2.148 3.964-3.494.597-.399 1.129-.784 1.596-1.155.57-.529 1.181-.862 1.833-1 .288.075.587-.124.896-.598 1.812-1.745 3.586-3.346 5.323-4.803 1.736-1.457 3.524-2.992 5.364-4.607.597-.399 1.194-.797 1.791-1.196s1.195-.797 1.792-1.196c1.606-1.429 3.226-2.793 4.859-4.092 1.606-1.429 3.213-2.858 4.819-4.288.205-.316.425-.566.658-.752.364-.213.649-.478.855-.794s.36-.553.463-.711c.233-.185.467-.371.7-.556 1.38-.564 2.523-1.282 3.429-2.155.878-1.003 1.798-1.81 2.759-2.422.858-.454 1.638-.959 2.338-1.516.803-.714 1.554-1.35 2.254-1.906.234-.186.481-.306.742-.361.364-.213.648-.478.854-.794 1.25-.536 2.122-.925 2.616-1.165.233-.186.481-.306.741-.361.364-.213.663-.413.896-.598zm-40.74-2.233c-.597.399-1.565 1.625-2.903 3.679-1.235 1.896-2.494 4.002-3.776 6.317-1.462 2.761-3.077 5.759-4.847 8.995 3.102-3.381 5.919-6.496 8.452-9.348 2.223-2.377 4.2-4.634 5.929-6.77 1.832-2.295 2.824-3.731 2.974-4.308.329-1.023.223-1.205-.319-.545-.57.529-1.311.89-2.225 1.082-.521.111-.848.179-.978.207-.158-.103-.302-.141-.433-.113-.027-.131-.158-.103-.391.082-.261.056-.755.296-1.483.722zm35.478 5.388-.196.042zm0 0-.041-.195zm20.21-16.531c.179-.446.371-.827.577-1.143.645-.818 1.159-1.608 1.543-2.37.515-.79.937-1.697 1.266-2.72.178-.447.37-.828.576-1.144.336-.344.831-.584 1.483-.722.13-.028.48-.306 1.05-.835.309-.474.631-.883.968-1.226.308-.474.566-.869.771-1.185 1.991-2.192 4.164-3.196 6.519-3.012l2.04-.021c.679-.008 1.359-.015 2.039-.022 2.28.473 3.836 1.711 4.668 3.716.537 1.249.877 2.54 1.022 3.872.118 1.202.262 2.534.435 3.997-.458 3.639-1.081 7.791-1.868 12.454s-1.523 9.247-2.207 13.752c-.711 4.375-1.296 8.382-1.754 12.022s-.508 6.308-.15 8.004c1.791-1.196 3.528-2.653 5.209-4.371 1.654-1.848 3.229-3.747 4.725-5.698 1.626-1.979 3.122-3.93 4.488-5.854 1.365-1.923 2.641-3.623 3.829-5.101.981-1.161 1.592-1.494 1.833-1 .371.467.55 1.315.537 2.544-.041 1.099-.301 2.448-.781 4.049-.349 1.573-.74 2.95-1.172 4.131-2.49 4.341-5.565 7.852-9.223 10.532-3.528 2.653-6.59 4.934-9.185 6.845-2.3.077-4.264-.19-5.892-.8-1.628-.611-2.929-1.29-3.905-2.038-1.003-.878-1.731-1.746-2.185-2.604-.323-.886-.382-1.487-.176-1.803-.276-1.304-.311-3.409-.107-6.314.308-3.063.704-6.349 1.19-9.858.588-3.668 1.19-7.27 1.807-10.807.588-3.667.961-6.744 1.117-9.229.26-2.644.228-4.409-.096-5.295-.192-.913-.906-.422-2.141 1.474-1.296 3.544-2.908 6.883-4.836 10.015-1.825 2.974-3.53 6.196-5.114 9.665-1.097 2.548-2.194 5.096-3.292 7.645-1.097 2.548-2.088 5.278-2.972 8.19-.658 2.047-1.33 4.028-2.016 5.945-.555 1.888-1.161 3.856-1.82 5.903-.61 1.628-1.358 2.603-2.243 2.927-.886.323-1.944.478-3.173.465-2.383-.315-4.265-1.484-5.646-3.509-.241-.495-.468-.924-.681-1.288-.371-.466-.677-.947-.917-1.441.617-.948 1.008-2.325 1.171-4.131.343-2.253.698-4.44 1.068-6.562.212-2.225.475-4.53.789-6.913.151-.576.171-1.126.061-1.648-.24-.494-.299-1.095-.176-1.802-.007-.68.157-1.192.494-1.535.206-.316.305-.814.298-1.494.198-.996.345-1.913.441-2.75.096-.838.033-1.779-.187-2.823-.138-.652-.186-1.527-.146-2.626.342-2.253.685-4.505 1.027-6.758.211-2.225.488-4.464.83-6.716.48-1.601.4-2.947-.239-4.038-.343-.336-.351-1.016-.022-2.04.048-.418.223-1.205.524-2.359 1.641-.619 3.272-.963 4.892-1.032 1.594-.2 3.31.187 5.151 1.161 1.003.878 1.588 1.709 1.753 2.491.035.811.004 1.635-.091 2.473.007.679.014 1.359.021 2.039-.04 1.099-.174 2.081-.4 2.946-.095.838-.164 1.806-.204 2.905-.123.708-.181 1.401-.174 2.081-.02.549-.051 1.373-.091 2.472.85-1.133 1.468-2.081 1.852-2.844.515-.79 1.029-1.58 1.544-2.37-.076.289-.086.563-.031.824.158.103.186.234.083.392-.515.79-1.015 1.645-1.502 2.565-.515.79-1.002 1.711-1.462 2.762-.103.158-.257.395-.463.711s-.137.642.207.978c1.777-2.555 3.424-5.083 4.94-7.584.796-1.394 1.619-2.658 2.47-3.792.851-1.133 1.66-2.463 2.429-3.988-.783.166-1.301.616-1.555 1.351-.281.604-.776.845-1.483.722zm153.602-26.703c.055.261.175.508.361.742.158.103.251.219.278.35-.199.995-.201 1.95-.009 2.863.296.755.331 1.566.105 2.431 0 0-.052.079-.155.237-.005 1.909-.207 3.859-.604 5.851s-1.255 3.74-2.572 5.245c-1.393 1.793-2.786 3.586-4.179 5.379-1.263 1.765-2.512 3.596-3.747 5.492-1.365 1.924-2.796 3.861-4.292 5.812-1.523 1.82-3.047 3.641-4.57 5.462-2.402 2.823-4.962 5.544-7.68 8.162s-6.105 4.968-10.162 7.051c-1.483.722-2.867.946-4.151.672-1.415-.246-2.792-.637-4.131-1.172-.845-.775-1.831-1.249-2.957-1.42-1.36.015-2.178-.63-2.453-1.935-.296-.755-.526-1.524-.691-2.307-.296-.755-.396-1.552-.3-2.389.123-.708.074-1.583-.146-2.627-.248-1.174-.3-2.389-.157-3.646.021-.55.068-.968.144-1.257.048-.419.082-.903.102-1.452.017-5.727.412-11.602 1.185-17.625.068-.969.157-2.486.265-4.553-.021-2.04-.063-3.53-.126-4.471.103-.158.127-.367.072-.628-.186-.233-.357-.401-.515-.504-.399-.598-.612-.961-.64-1.092-.055-.261-.151-.717-.289-1.37.206-.316.556-.594 1.05-.835.337-.343.673-.687 1.009-1.03.467-.371.91-.533 1.329-.485.783-.165 1.342-.42 1.678-.763.906-.873 2.132-1.2 3.677-.981 1.518.089 2.517.627 2.998 1.616.399.597.434 1.407.105 2.431.069 1.62-.128 3.91-.594 6.87-.335 2.933-.519 5.288-.552 7.067-.157 2.486-.234 5.023-.233 7.612.002 2.589-.062 5.191-.191 7.808-.068.968-.071 1.923-.009 2.863.165.783.2 1.593.105 2.431-.021.55.038 1.151.176 1.803.165.783.536 1.249 1.113 1.4 1.545.219 3.769-.864 6.673-3.248 2.876-2.515 6.197-6.146 9.965-10.894 1.393-1.793 2.772-3.651 4.137-5.574 1.366-1.924 2.783-3.926 4.251-6.008 1.702-2.267 3.153-4.754 4.353-7.46.048-.419.175-.786.381-1.102.803-.715 1.41-1.388 1.822-2.02.514-.79 1.043-1.515 1.585-2.175.974-1.841 2.147-3.383 3.52-4.626.467-.372.947-.677 1.442-.918.624-.268 1.366-.629 2.224-1.083zm-46.876-14.837c-.185-.234-.539-.295-1.061-.185-.687-.673-1.323-1.424-1.907-2.255-.453-.858-.972-1.702-1.557-2.533.44-.502.683-.962.731-1.381.178-.446.436-.841.772-1.185.206-.316.491-.58.854-.793.495-.241.91-.533 1.246-.8765 1.037-.9002 2.417-1.4641 4.14-1.6916 1.827-.3856 3.358-.2319 4.594.4609.893.3566 1.45 1.0567 1.67 2.1002l.909 4.305c.138.653.262 1.24.372 1.762.11.521.299 1.095.567 1.719 1.025 2.918 1.346 6.053.964 9.404-.041 1.099-.411 1.927-1.111 2.483-.598.399-1.181.863-1.751 1.392 0 0-.391.082-1.174.248-.474-.309-1.037-.395-1.689-.257-.399-.597-.849-1.115-1.351-1.555-.371-.466-.495-1.053-.371-1.761l-.166-.782c-.955-1.298-1.728-2.702-2.32-4.212-.619-1.641-1.406-3.11-2.361-4.407zm1.022 3.872-.041-.196zm57.172 2.852c.178-.446.371-.827.576-1.143.645-.818 1.16-1.608 1.544-2.37.515-.79.937-1.697 1.266-2.72.178-.447.37-.828.576-1.144.336-.344.83-.584 1.483-.722.13-.027.48-.306 1.05-.835.309-.474.631-.883.967-1.226.309-.474.566-.869.772-1.185 1.99-2.192 4.163-3.196 6.519-3.012.68-.007 1.359-.014 2.039-.021s1.36-.015 2.04-.022c2.28.473 3.836 1.711 4.668 3.716.536 1.249.877 2.54 1.022 3.872.117 1.202.262 2.534.435 3.997-.458 3.639-1.081 7.791-1.868 12.454s-1.523 9.247-2.207 13.752c-.712 4.375-1.297 8.382-1.755 12.022s-.508 6.308-.15 8.004c1.792-1.196 3.528-2.653 5.21-4.371 1.654-1.848 3.229-3.747 4.725-5.698 1.626-1.979 3.122-3.93 4.487-5.854 1.366-1.923 2.642-3.623 3.829-5.1.982-1.162 1.593-1.495 1.833-1.001.371.467.55 1.315.537 2.544-.04 1.099-.3 2.449-.78 4.049-.35 1.573-.74 2.95-1.172 4.131-2.49 4.341-5.565 7.852-9.224 10.532-3.528 2.653-6.589 4.934-9.184 6.845-2.3.077-4.264-.19-5.892-.8s-2.93-1.29-3.905-2.038c-1.003-.878-1.732-1.746-2.185-2.604-.324-.886-.382-1.487-.176-1.803-.276-1.304-.311-3.409-.107-6.314.307-3.063.704-6.349 1.189-9.858.589-3.668 1.191-7.27 1.807-10.807.589-3.667.961-6.743 1.118-9.229.259-2.644.227-4.409-.096-5.295-.193-.913-.906-.422-2.141 1.474-1.296 3.544-2.908 6.883-4.836 10.015-1.825 2.975-3.53 6.196-5.114 9.665-1.097 2.548-2.195 5.096-3.292 7.645-1.097 2.548-2.088 5.278-2.972 8.19-.658 2.047-1.33 4.029-2.016 5.945-.555 1.889-1.162 3.856-1.82 5.903-.61 1.628-1.358 2.603-2.244 2.927-.885.323-1.943.478-3.172.465-2.383-.315-4.265-1.484-5.647-3.509-.24-.495-.467-.924-.68-1.288-.371-.466-.677-.947-.918-1.441.618-.948 1.008-2.325 1.172-4.131.342-2.253.698-4.44 1.068-6.562.211-2.225.475-4.529.789-6.912.151-.577.171-1.127.061-1.649-.241-.494-.299-1.095-.176-1.802-.007-.68.157-1.192.493-1.535.206-.316.306-.814.298-1.494.199-.996.346-1.913.442-2.75.095-.838.033-1.779-.187-2.823-.138-.652-.187-1.527-.146-2.626.342-2.253.684-4.505 1.026-6.758.212-2.225.489-4.464.831-6.716.48-1.601.4-2.946-.239-4.038-.344-.336-.351-1.016-.022-2.039.048-.419.223-1.206.524-2.36 1.641-.618 3.272-.963 4.892-1.032 1.593-.2 3.31.187 5.151 1.161 1.003.878 1.587 1.709 1.753 2.492.034.81.004 1.634-.092 2.472.008.68.015 1.359.022 2.039-.041 1.099-.174 2.081-.4 2.946-.096.838-.164 1.806-.204 2.905-.124.708-.182 1.401-.174 2.081-.021.549-.051 1.373-.092 2.472.851-1.133 1.469-2.081 1.853-2.844.514-.79 1.029-1.58 1.544-2.37-.076.289-.086.563-.031.824.158.103.186.234.083.392-.515.79-1.016 1.645-1.503 2.565-.514.79-1.001 1.711-1.461 2.762-.103.158-.257.395-.463.711s-.137.642.207.978c1.777-2.555 3.423-5.083 4.94-7.584.795-1.394 1.619-2.658 2.47-3.792.851-1.133 1.66-2.463 2.428-3.987-.782.165-1.301.615-1.554 1.35-.281.604-.776.845-1.483.722zm101.538-53.5272c-.7.5566-1.335 1.0994-1.905 1.6285-.569.5291-1.204 1.0719-1.904 1.6285-1.832 2.2947-3.267 3.892-4.303 4.7922-1.064.7697-1.988 1.2372-2.77 1.4024-.941.0623-1.858-.0848-2.751-.4414-1.051-.4595-2.4-.7197-4.048-.7806-1.806-.1638-4.079.0435-6.819.6219-2.898.4754-6.677 1.614-11.339 3.4158.178-.4465.137-.6422-.124-.5871-.288-.0754-.134-.3124.463-.711 1.325-.8248 2.17-1.3437 2.533-1.5568.337-.3435-.367-.1268-2.111.6501-1.146.3784-2.084.7806-2.811 1.2067-.755.2958-1.655.5538-2.699.7741.872-1.6829 2.045-3.2252 3.521-4.6269 1.448-1.5322 3.054-2.9614 4.818-4.2877s3.607-2.6012 5.529-3.8246c1.764-1.3263 3.477-2.5736 5.138-3.7419 3.398-2.6251 7.135-5.2539 11.213-7.8862 4.05-2.7628 8.22-5.2784 12.511-7.5469 4.393-2.4265 8.554-4.6675 12.48-6.7229 4.058-2.083 8.585-4.1971 13.583-6.3424l27.929-11.0063c.199-.9958.178-1.7408-.063-2.2351-.11-.5219-.193-.9132-.248-1.1742.048-.4189.305-.8139.772-1.1849.467-.3711 1.442-.9176 2.924-1.6395 2.341-1.1755 3.945-1.6502 4.81-1.4241.838.0957 1.717.387 2.637.8741.893.3565 2.112.6443 3.658.8632 1.675.1913 4.377-.2428 8.105-1.3024l32-8.18616c1.854-.25511 3.656-.43123 5.407-.52835 1.724-.22756 3.694-.57544 5.912-1.04364 1.696-.358026 2.935-.619663 3.718-.784907.913-.192786 1.658-.213805 2.235-.063055.68-.007248 1.336.194963 1.968.606632.632.41167 1.515 1.04295 2.648 1.89383-.281.60445-.301 1.15382-.061 1.64811.344.33629.701.73782 1.072 1.20457.344.33629.622.68635.835 1.05018.344.3363.296.75521-.143 1.25675-.467.37108-1.246.87624-2.338 1.51548-.988.48126-2.094 1.05526-3.315 1.72206-1.12.5088-2.29 1.0965-3.512 1.7633-1.119.5088-1.977.9625-2.574 1.3611-.858.4537-1.94.8183-3.244 1.0937-1.333.1449-2.73.3037-4.192.4762-1.36.0144-2.706.0942-4.038.2391-1.36.0145-2.482.1834-3.368.5066-1.277.4059-3.22.8842-5.829 1.435-2.479.5233-5.219 1.1017-8.219 1.7351-3.001.6334-5.988 1.3321-8.961 2.096-2.87.6059-5.321 1.2596-7.353 1.9612.2 1.593.273 3.5535.22 5.8815-.082 2.1975-.146 3.5057-.194 3.9246-.096.8378-.332 1.9779-.709 3.4202-.404 1.3118-.795 2.6888-1.172 4.1311-.48 1.6003-1.062 3.3586-1.748 5.2749.042 1.4901-.128 3.9108-.511 7.2621-.41 3.2209-.961 6.744-1.652 10.5693-.561 3.7978-1.15 7.4651-1.766 11.0019-.486 3.5093-.81 6.1671-.974 7.9732-.328 3.6122-.594 6.8708-.798 9.7756-.102 2.7469-.498 6.033-1.189 9.8584-.672 3.276-1.233 7.074-1.683 11.393-.451 4.32-.94 8.784-1.466 13.392-.396 4.58-.805 9.096-1.228 13.546-.451 4.319-1.026 8.052-1.725 11.197-.349 1.573-.52 2.699-.513 3.379.11.522.272.965.485 1.329.213.363.296.755.248 1.174.11.522.014 1.359-.287 2.513-.761 2.205-1.36 4.852-1.798 7.943-.438 3.09-.787 5.957-1.046 8.601-.232 2.775-.43 5.065-.594 6.871-.033 1.779-.105 2.407-.215 1.885.048-.419.067-2.262.059-5.531.019-3.138.016-8.316-.009-15.533-.013 1.229-.04 2.393-.08 3.492.09 1.071-.082 2.197-.513 3.378-.172 1.127-.514 2.085-1.029 2.875s-.881 1.957-1.1 3.503c-.199.996-.257 1.689-.174 2.08.241.495.388.872.443 1.133.056.261-.034.484-.267.67s-.831.584-1.792 1.196c-.824-1.325-1.412-2.496-1.763-3.512-.323-.885-.646-1.771-.97-2.657-.165-.782-.423-1.682-.774-2.698-.193-.913-.557-1.995-1.093-3.244-.64-1.092-1.066-1.819-1.279-2.183-.082-.391-.165-.783-.248-1.174.076-.289.123-.707.144-1.257.151-.577.219-1.545.204-2.905-.282-1.984-.476-4.192-.58-6.623.026-2.458.052-4.916.078-7.375.156-2.486.341-4.841.552-7.066.315-2.383.619-4.492.913-6.325-.795 1.394-1.512 2.84-2.15 4.337-.535 1.34-.727 1.721-.576 1.144.301-1.154.39-2.671.265-4.553-.125-1.881-.201-2.887-.228-3.018.63-2.177 1.12-4.052 1.47-5.625.349-1.573.653-3.681.913-6.325.397-1.991.633-4.426.707-7.303.204-2.905.474-5.824.808-8.756.308-3.063.643-5.995 1.005-8.7974.493-2.8295 1.161-5.1509 2.005-6.9643.748-.9755 1.197-1.7517 1.348-2.3286s.119-1.0473-.094-1.4111c-.082-.3914-.282-.69-.598-.8959-.185-.2333-.292-.4153-.319-.5457.206-.316.445-1.1161.719-2.4004s.535-2.6338.781-4.0486c.349-1.5727.582-3.0527.698-4.4399.246-1.4147.328-2.3178.246-2.7092-.105-2.4308.203-4.1993.924-5.3053.72-1.1059 1.101-2.2083 1.141-3.3071-.062-.9407.058-1.988.359-3.1418.404-1.3118.579-2.0982.524-2.3591.068-.9683.065-1.3082-.011-1.0198.028.1305-.034.4842-.185 1.0611-.02.5494-.092 1.1777-.215 1.8851s-.25 1.0748-.38 1.1024c-.467.371-.752.6356-.855.7936s-.206.316-.309.474c.028.1304.004.3399-.071.6284.055.2609-.072.6283-.381 1.1023-.178.4465-.257.395-.237-.1544-.007-.6798.037-1.4386.133-2.2764.068-.9683.15-1.8714.245-2.7092.227-.8654.34-1.2981.34-1.2981.498-4.7385.905-8.2993 1.219-10.6823.287-2.5135.53-4.2681.729-5.264.198-.9958.349-1.5727.452-1.7307s.127-.3675.072-.6284c.048-.4189-.025-1.085-.218-1.9982-.062-.9407-.173-2.757-.332-5.4488.027.1305-.155.237-.546.3197-1.38.5638-2.499 1.0726-3.357 1.5263s-1.651.8936-2.379 1.3198c-.597.3986-1.259.811-1.987 1.2372-.755.2957-1.72.5675-2.894.8153-.783.1653-1.668.4885-2.657.9698-.886.3232-1.627.6841-2.224 1.0827-.625.2682-.924.4675-.896.598.158.1029.954.0029 2.389-.3001.131-.0275-.261.0551-1.174.2479-.782.1652-1.747.437-2.894.8153-1.146.3784-2.293.7567-3.439 1.135-1.147.3784-1.94.8183-2.379 1.3198-1.606 1.4293-3.439 2.4294-5.499 3.0005-1.957.4132-3.23 1.1589-3.82 2.2374-.57.5291-1.61 1.0893-3.12 1.6807-1.511.5914-2.685.8393-3.523.7436.131-.0275.21.0239.237.1544.028.1304-.024.2094-.154.237-.673.6871-1.489 1.3364-2.451 1.9481-.83.5842-1.74 1.1169-2.728 1.5981-.858.4537-1.638.9589-2.338 1.5155-.727.4262-1.246.8763-1.554 1.3503-.618.948-1.785 1.8757-3.501 2.7831s-3.329 1.6568-4.84 2.2482zm26.794-14.446c.13-.0275.209.0239.237.1544 0 0-.065.0137-.196.0413l-1.483.7218c-.988.4813-1.376.9038-1.163 1.2677.399.5972.221 1.0436-.535 1.3393-.652.1377-1.239.2617-1.761.3718-.494.2407-.923.4675-1.287.6806-.233.1855-.481.3058-.741.3609-.131.0275-.028-.1304.308-.474.103-.158-.377.1479-1.441.9176-1.092.6392-1.819 1.0654-2.183 1.2784-.756.2958-1.054.4951-.896.598.13-.0276.275.0101.433.113.288.0754.446.1783.474.3088.027.1305-.467.3711-1.483.7219-.858.4537-1.754 1.0516-2.688 1.7937-.803.7147-1.335 1.0995-1.596 1.1546-.466.3711-.998.7559-1.596 1.1545-.624.2682-.755.2957-.391.0827.652-.1377.862-.1138.628.0717-.13.0276-.391.0826-.782.1653l-1.762.3718c-1.043.2203-2.317.9661-3.82 2.2373-1.531 1.1408-2.883 1.8351-4.057 2.083.336-.3436.868-.7284 1.596-1.1546.83-.5841 1.675-1.1031 2.533-1.5568.961-.6117 1.871-1.1444 2.729-1.5981.83-.5841 1.427-.9828 1.791-1.1958.858-.4537 1.768-.9864 2.729-1.5981s1.764-1.3264 2.409-2.1439c.824-1.264 1.822-2.0199 2.996-2.2678 1.147-.3783 2.07-.8458 2.77-1.4024.44-.5015.92-.8074 1.442-.9175.494-.2407.937-.4023 1.329-.4849.521-.1102.964-.2718 1.328-.4849.364-.213.673-.687.926-1.422.206-.3159.635-.5428 1.287-.6805.625-.2682 1.264-.4711 1.916-.6088zm18.296 97.3192s-.034.484-.102 1.453c-.095.838-.229 1.82-.4 2.946-.04 1.099-.16 2.146-.359 3.142-.068.968-.088 1.517-.06 1.648.247 1.174.413 1.957.495 2.348.083.391.087.731.011 1.02.028.13-.061.354-.267.67-.076.288-.161.851-.257 1.689-.232 2.774-.166 4.055.198 3.842s.195-1.336-.507-3.368c-.268-.625-.409-1.617-.424-2.977.089-1.517.177-3.035.266-4.553.191-1.675.41-3.221.656-4.635.247-1.415.497-2.49.75-3.225zm8.722-79.7204c.384-.7624.49-.5805.319.5458-.04 1.0987-.047 1.7133-.019 1.8438-.467.3711-.659.7523-.576 1.1437-.076.2884-.021.5493.165.7827-.151.5769-.25 1.0748-.298 1.4938.055.2609-.034.4841-.267.6696-.824 1.264-1.088 2.2736-.792 3.0288.399.5973.444 1.1329.135 1.6069-.823 1.2639-1.142 2.0126-.957 2.246.186.2334.221 1.0437.105 2.4309-.302 1.1538-.453 1.7307-.453 1.7307s.024-.2095.072-.6284c.02-.5493.027-1.1639.02-1.8438.095-.8378.102-1.4524.019-1.8438-.062-.9407.095-2.1322.472-3.5745.349-1.5728.534-2.6338.555-3.1832-.166-.7827-.159-1.3973.019-1.8438s.37-.8277.576-1.1437c.309-.474.553-.9342.731-1.3807.178-.4464.185-1.061.019-1.8438zm-94.121 9.2406-.279-.3501zm187.827-1.6321-.041-.1957zm1.616-2.9983-.155.237-.041-.1957zm-3.099 3.7202c-.494.2406-1.366.6291-2.615 1.1654 1.523-1.8206 3.376-3.3702 5.559-4.6486.213.3638.035.8103-.535 1.3393-.727.4262-1.05.835-.967 1.2263-.233.1856-.467.3711-.7.5566-.261.0551-.508.1754-.742.361zm4.355-3.5767c-.13.0275-.181.1065-.154.237 0 0-.065.0137-.196.0413-.027-.1305.024-.2095.155-.237zm-.545.3196.195-.0413zm-1.657 2.8027c.494-.2407.937-.4023 1.328-.4849.522-.1102 1.147-.3783 1.875-.8045-.206.316-.347.6182-.422.9067-.103.158-.206.316-.309.474-.075.2884-.216.5907-.422.9067-.103.158-.127.3674-.071.6283.22 1.0437.007 1.9743-.638 2.7918-.514.79-1.238 1.5561-2.172 2.2983-1.784 1.8757-3.503 3.7376-5.157 5.5857-1.682 1.7177-3.284 3.4869-4.808 5.3075-.775.845-1.564 1.6249-2.367 2.3395-.7.5566-1.387 1.1785-2.059 1.8656-1.943 1.7727-3.82 3.5317-5.632 5.2767-1.681 1.718-3.349 3.501-5.003 5.349-1.476 1.402-3.016 2.817-4.623 4.246-1.475 1.402-3.016 2.818-4.622 4.247-.906.872-1.891 1.694-2.955 2.463-.961.612-1.908 1.289-2.842 2.031-1.997 1.512-3.971 2.814-5.92 3.907-1.82 1.066-3.876 1.977-6.169 2.733-1.119.509-2.149.795-3.09.857-1.098-.041-2.225-.212-3.378-.513-2.885-.754-5.828-2.108-8.83-4.064-.79-.515-1.515-1.043-2.175-1.585-.79-.515-1.332-1.149-1.628-1.905.515-.79.809-1.329.885-1.617.226-.866.256-1.69.091-2.473-.049-2.169.255-4.278.913-6.325.528-2.019 1.265-4.014 2.212-5.985.226-.866.531-1.68.915-2.4421.254-.735.205-1.6105-.146-2.6266l.155-.237s.116-.0928.35-.2783c.625-.2682 1.012-.6907 1.163-1.2676.02-.5494.25-1.0748.689-1.5764 1.05-2.1293 2.165-4.2725 3.344-6.4294 1.022-2.2598 2.058-4.4544 3.108-6.5837.487-.9205.974-1.8409 1.461-2.7614.59-1.0784.956-2.246 1.1-3.5028-.028-.1304.127-.3674.463-.711 1.215-1.3466 2.234-2.6519 3.057-3.9159.796-1.3944 1.829-2.6345 3.098-3.7202l-.289-1.3698c1.016-.3508 1.981-.6226 2.894-.8154 1.016-.3507 2.139-.5196 3.368-.5066 1.099.0406 2.17-.0492 3.214-.2696 1.016-.3507 2.032-.7015 3.048-1.0523 1.957-.4131 3.554-.2732 4.79.4196.79.5146 1.566.964 2.329 1.3481.865.2261 1.628.6103 2.287 1.1524 1.525.7682 2.384 1.609 2.577 2.5222.295.7552.032 1.7648-.792 3.0288-.514.79-1.015 1.6452-1.502 2.5656-.384.7625-.899 1.5525-1.544 2.37-2.655 3.5586-5.548 6.9628-8.678 10.2127-2.999 3.2223-6.272 6.4344-9.821 9.6364-1.736 1.4568-3.724 2.694-5.962 3.7116-1.613.7494-2.79 1.9517-3.531 3.6067-.583 1.759-1.035 3.489-1.357 5.193-.349 1.572-.606 3.262-.769 5.068.007.68.028 1.425.063 2.235-.124.707-.181 1.401-.174 2.081.11.522.285 1.03.526 1.524.68-.007 1.253-.196 1.72-.567s.933-.743 1.4-1.114c1.4-1.113 2.828-2.096 4.283-2.948 1.428-.983 2.749-2.147 3.964-3.494.597-.399 1.129-.784 1.596-1.155.57-.529 1.181-.862 1.833-1 .289.076.587-.124.896-.598 1.812-1.745 3.586-3.346 5.323-4.803 1.736-1.456 3.524-2.9923 5.364-4.607.597-.3987 1.194-.7973 1.791-1.1959s1.195-.7972 1.792-1.1959c1.606-1.4292 3.226-2.7932 4.859-4.092 1.606-1.4292 3.213-2.8585 4.819-4.2877.205-.316.425-.5668.658-.7523.364-.2131.649-.4776.855-.7936s.36-.553.463-.711c.233-.1855.467-.3711.7-.5566 1.38-.5639 2.523-1.2821 3.429-2.1547.879-1.0031 1.798-1.8105 2.759-2.4222.858-.4537 1.638-.9589 2.338-1.5155.803-.7146 1.554-1.3502 2.254-1.9068.234-.1856.481-.3059.742-.361.364-.213.649-.4776.854-.7936 1.25-.5363 2.122-.9248 2.616-1.1654.233-.1855.481-.3059.741-.3609.364-.2131.663-.4124.896-.598zm-40.74-2.2332c-.597.3987-1.565 1.625-2.903 3.679-1.235 1.8959-2.494 4.0014-3.776 6.3163-1.462 2.7613-3.077 5.7597-4.847 8.995 3.102-3.3803 5.919-6.496 8.452-9.3472 2.223-2.3773 4.2-4.6342 5.929-6.7708 1.832-2.2946 2.824-3.7304 2.974-4.3073.329-1.0233.223-1.2053-.319-.5457-.57.5291-1.311.89-2.225 1.0828-.521.1101-.848.179-.978.2065-.158-.1029-.302-.1406-.433-.113-.027-.1305-.158-.103-.391.0826-.261.0551-.755.2957-1.483.7218zm35.478 5.3881-.196.0413zm0 0-.041-.1957zm15.92-6.8359c-1.44 2.212-2.685 4.3826-3.735 6.512-.947 1.9714-1.945 4.0217-2.994 6.1511-1.228 2.5758-2.298 5.2545-3.209 8.0362-1.07 2.6787-2.126 5.4227-3.168 8.2319-.782 2.7542-1.092 5.4772-.933 8.1692.241.494 1.401.181 3.481-.94 2.08-1.12 4.73-2.77 7.949-4.948 3.22-2.179 6.775-4.7012 10.667-7.5669 3.865-2.9962 7.781-6.0713 11.748-9.2255 3.968-3.1542 7.739-6.267 11.315-9.3386 3.679-3.2295 6.799-6.2047 9.358-8.9255 1.682-1.7177 3.377-3.3701 5.086-4.9574 1.709-1.5872 3.59-3.0063 5.642-4.2572.414 1.9569.246 3.4231-.502 4.3986-.206.316-.463.711-.772 1.185-.206.316-.477.6457-.813.9893-.336.3435-.37.8277-.102 1.4524.241.4943.062.9408-.535 1.3394-.364.2131-.7.5566-1.009 1.0306s-.696.8965-1.163 1.2676c-.206.316-.463.711-.772 1.185s-.631.8828-.968 1.2263c-4.755 5.2285-9.058 10.0206-12.908 14.3764-3.85 4.3559-7.755 8.4508-11.716 12.2848-3.987 3.7037-8.291 7.2017-12.911 10.4927-4.516 3.134-9.819 6.093-15.909 8.878-.233.186-.48.306-.741.361-.419-.048-.759-.044-1.02.011s-.536.045-.824-.031c-.419-.047-.759-.044-1.02.011-1.881.125-3.65-.183-5.305-.924-1.683-.871-3.304-2.096-4.864-3.674-.426-.728-.876-1.246-1.35-1.555-1.141-1.531-1.647-3.604-1.518-6.221.739-4.244 2.004-8.2584 3.794-12.0431 1.557-3.5992 3.114-7.1984 4.671-10.7976 1.398-3.7021 2.941-7.3665 4.629-10.9932.253-.7349.586-1.4184.998-2.0504.411-.632.875-1.343 1.389-2.133.178-.4464.422-.9067.731-1.3807.281-.6044.497-1.1951.648-1.772.266-1.9641.918-3.3963 1.954-4.2964 1.167-.9277 2.571-1.701 4.212-2.32.597-.3986 1.143-.7182 1.637-.9588.625-.2682 1.222-.6668 1.792-1.1959.803-.7146 1.661-1.1683 2.574-1.3611.886-.3232 1.734-.5023 2.544-.537.68-.0073 1.229.013 1.648.0608.55.0203 1.034.0544 1.453.1022 1.071-.0898 1.885.2153 2.441.9154.66.5421 1.268 1.1633 1.825 1.8634.192.9132.121 1.5416-.216 1.8851-.274 1.2843-.561 2.5034-.863 3.6572-.171 1.1263-.472 2.2801-.904 3.4615-.796 1.3944-1.685 2.6722-2.666 3.8332-1.009 1.0307-2.245 1.6322-3.707 1.8047-1.827.3856-3.516.129-5.069-.7697zm32.155 42.8834-.124-.587.196-.042zm75.4-54.3467c.481.9886.716 2.0975.703 3.3267-.014 1.2292-.562 2.5033-1.646 3.8224-1.263 1.7655-2.46 3.5173-3.592 5.2553s-2.395 3.5035-3.788 5.2966c-1.393 1.793-3.047 3.6412-4.962 5.5444s-4.207 3.9543-6.877 6.1533c-.934.7421-2.296 1.7111-4.088 2.907-1.661 1.1683-2.986 1.9931-3.974 2.4743-1.38.5639-2.788.9973-4.223 1.3003-1.332.1449-2.603-.0638-3.811-.6263-.735-.2536-1.508-.3631-2.318-.3283-.68.0073-1.271-.2087-1.772-.6479-.426-.7277-.787-1.4691-1.083-2.2243-.193-.9132-.06-1.8953.4-2.9462.096-.8378.219-1.5452.37-2.1221-.138-.6523.064-1.3082.606-1.9678.439-.5015.669-1.027.69-1.5763-.008-.6799-.066-1.2807-.177-1.8025-.268-.6248-.378-1.1466-.33-1.5655s.082-.9031.102-1.4525c.123-.7073.247-1.4147.37-2.1221.226-.8653.401-1.6517.524-2.3591-.055-.2609-.097-.4566-.124-.587.103-.158.14-.3023.113-.4327-.173-1.4626-.215-2.9527-.126-4.4704.088-1.5176.111-3.0215.069-4.5117l-.206-.9784c-.447-.1783-.824-.0304-1.133.4436-3.953 4.5138-7.277 9.0994-9.974 13.7567-1.001 1.7105-1.989 3.4861-2.963 5.3271-.871 1.6829-1.677 3.352-2.418 5.0074-.439.5015-.813.9893-1.122 1.4633-.178.4464-.487.9204-.926 1.4219-1.16 1.6076-1.938 3.4072-2.335 5.3988-.342 2.2526-.685 4.5052-1.027 6.7577-.342 2.253-.605 4.557-.789 6.912-.143 1.257-.222 2.5-.235 3.729-.171 1.126-.263 2.304-.276 3.533-.151.577-.25 1.075-.298 1.494s-.147.917-.298 1.494c-.582 1.758-1.931 2.792-4.046 3.102-.68.008-1.36.015-2.04.022-.679.007-1.256-.143-1.73-.452-.289-.075-.512-.165-.67-.267-.158-.103-.302-.141-.433-.114-1.043.221-1.606.135-1.689-.256-.213-.364-.375-.807-.485-1.329-.22-1.043-.087-2.025.4-2.946.281-.604.563-1.209.844-1.813.281-.605.353-1.233.215-1.885-.055-.261-.031-.471.072-.629.075-.288.151-.577.226-.865.103-.158.326-.069.67.267.316.206.419.048.308-.474.234-.185.113-.432-.361-.741-.371-.467-.388-.872-.052-1.215.206-.316.412-.632.618-.948-.179.446-.175.786.011 1.019-.055-.261-.018-.405.113-.432-.028-.131-.069-.327-.124-.587-.379-1.147-.544-1.93-.496-2.349.02-.549.195-1.335.524-2.359.151-.577.25-1.075.298-1.494.075-.288.257-.395.546-.319.261-.055.587-.124.978-.207-.055-.261-.162-.443-.32-.545-1.078-.5904-1.257-1.4384-.537-2.5444.206-.316.268-.6697.185-1.061-.082-.3914-.1-.7966-.052-1.2155-.055-.2609-.083-.3913-.083-.3913-.158-.103-.264-.2849-.319-.5458-.632-.4117-.962-.6827-.989-.8132-.028-.1304.178-.4464.617-.948 1.729-2.1366 2.593-4.4993 2.592-7.0882-.055-.2609.006-.6146.185-1.061.047-.419.095-.8379.143-1.2568.206-.316.426-.5668.659-.7523.206-.316.412-.632.617-.948l-.154.237-.041-.1957.195-.0413c.309-.474.367-1.1676.174-2.0808-.055-.2609-.175-.508-.361-.7414-.185-.2334-.292-.4153-.319-.5458.246-1.4147.441-2.7505.585-4.0072.116-1.3872.376-2.7367.78-4.0485.239-2.0946.53-4.2682.872-6.5208.342-2.2525.698-4.4399 1.068-6.562-.007-.6798-.001-1.2944.019-1.8438-.007-.6798-.014-1.3597-.021-2.0395-.008-.6798.05-1.3734.174-2.0808.123-.7074.246-1.4147.369-2.1221.116-1.3872.246-2.7092.389-3.9659.144-1.2568.195-2.6302.153-4.1203.253-.7349.377-1.4423.369-2.1221.124-.7074.247-1.4148.37-2.1222.191-1.6756.317-3.3375.378-4.9856.164-1.8061.328-3.6123.492-5.4184.266-1.9641.519-3.9934.759-6.088.239-2.0946.282-4.1478.13-6.1598.041-1.0987-.255-1.8539-.887-2.2656-.447-.1783-.78-.7893-1-1.8329.494-.24067.858-.45375 1.091-.63928.364-.21308.793-.43994 1.287-.68056.831-.58416 1.6-.81463 2.307-.69142l.783-.16525c.906-.87261 1.843-1.27485 2.811-1.20672 1.099.04059 2.081.17395 2.947.40008 1.572.34934 2.287 1.15239 2.143 2.40913-.171 1.12632-.328 2.31782-.471 3.57452-.013 1.2292-.157 2.486-.431 3.7703-.075.2884-.085.5631-.03.824.027.1305-.062.3537-.268.6697-.266 1.9641-.468 3.9145-.604 5.851-.034 1.7786-.263 3.5985-.687 5.4597-.493 2.8295-.931 5.9199-1.314 9.2712-.348 4.1616-.877 8.4298-1.589 12.8044-.274 1.2843-.534 2.6338-.781 4.0486-.143 1.2567-.338 2.5925-.585 4.0072-.04 1.0988-.146 2.2113-.317 3.3376-.041 1.0987-.146 2.2112-.317 3.3375-.076.2885-.086.5631-.031.8241.028.1304.004.3399-.072.6283.028.1305.055.2609.083.3914.13-.0275.209.0239.237.1544.233-.1856.765-.5704 1.596-1.1546.803-.7146 1.242-1.2161 1.318-1.5046.404-1.3118 1.097-2.5482 2.078-3.7093.982-1.1611 1.963-2.3222 2.944-3.4832.824-1.264 1.805-2.4251 2.944-3.4833 1.242-1.2161 2.261-2.5214 3.057-3.9159.206-.316.57-.529 1.092-.6392.727-.4262 1.455-.8523 2.183-1.2785.7-.5566 1.479-1.0618 2.337-1.5155.961-.6117 2.015-1.1067 3.162-1.485 1.249-.5363 2.595-.616 4.037-.2392 1.127.1711 1.824.569 2.092 1.1937.138.6523.262 1.2394.372 1.7612s.155 1.0575.135 1.6068c-.295 1.8337-.459 3.6398-.492 5.4184-.033 1.7785-.132 3.5709-.296 5.377-.294 1.8337-.523 3.6536-.687 5.4597-.191 1.6756-.369 3.4165-.532 5.2226.014 1.3597-.037 2.7331-.153 4.1203-.013 1.2292-.063 2.6027-.152 4.1203.447.1783.879.2914 1.298.3392.522-.1101.979-.2065 1.37-.2892 1.332-.1449 2.866-.9458 4.603-2.4025 1.867-1.4844 3.744-3.2434 5.631-5.2771 2.018-2.0612 4.022-4.1876 6.012-6.3793 1.963-2.3222 3.706-4.3936 5.23-6.2142.205-.316.425-.5667.658-.7523.364-.213.649-.4776.855-.7936.336-.3435.752-.6356 1.246-.8762s1.136-.1037 1.926.4109zm-70.027 46.8757c-.056-.261-.162-.443-.32-.546-.206.316-.309.474-.309.474-.103.158-.099.498.011 1.02zm.758-6.0882-.237-.1544.042.1957c.027.1305.106.1819.237.1544zm3.305-21.1385-.041-.1957-.154.237zm1.068-6.562-.041-.1957zm-2.168 10.0648c.028.1304.12.2471.278.35l.042.1957c-.131.0276-.21-.0239-.237-.1543-.261.055-.326.0688-.196.0413.103-.158.141-.3023.113-.4327z" fill="#30e1b9"/></g></svg>