<svg fill="none" height="283" viewBox="0 0 858 283" width="858" xmlns="http://www.w3.org/2000/svg" xmlns:xlink="http://www.w3.org/1999/xlink"><filter id="a" color-interpolation-filters="sRGB" filterUnits="userSpaceOnUse" height="281.697" width="856.26" x=".910156" y=".941406"><feFlood flood-opacity="0" result="BackgroundImageFix"/><feColorMatrix in="SourceAlpha" result="hardAlpha" type="matrix" values="0 0 0 0 0 0 0 0 0 0 0 0 0 0 0 0 0 0 127 0"/><feOffset dy="9.25011"/><feColorMatrix type="matrix" values="0 0 0 0 0.117647 0 0 0 0 0.133333 0 0 0 0 0.666667 0 0 0 1 0"/><feBlend in2="BackgroundImageFix" mode="normal" result="effect1_dropShadow_1166_1493"/><feBlend in="SourceGraphic" in2="effect1_dropShadow_1166_1493" mode="normal" result="shape"/></filter><g filter="url(#a)"><path d="m36.1048 194.599c-2.4011.675-4.198 1.212-5.3909 1.611-1.1928.399-2.1794.461-2.9599.187-.7805-.275-1.5995-.855-2.457-1.742-.7506-1.024-1.93-2.491-3.5381-4.402-.4442-.566-.7964-.894-1.0565-.986-.2756-.214-.5435-.366-.8036-.458-.1378-.107-.3368-.206-.5969-.298-.2756-.213-.6967-.595-1.2632-1.146 1.1157-1.01 2.232-1.524 3.3487-1.54 1.1013-.139 2.7759-.661 5.0238-1.566l14.3342-7.586c1.3913-.797 2.1626-2.075 2.3139-3.835.2736-1.774.6315-3.373 1.0738-4.796 1.7072-6.182 3.4299-12.242 5.1681-18.179 1.7227-6.06 3.3153-12.165 4.7778-18.316.1224-.016.2905-.161.5044-.437l.1605-.207s-.4129.177-1.2386.529c-.7188.215-1.4376.43-2.1564.645-.6118.077-.9866.062-1.1244-.045-.1532-.229.3435-.727 1.49-1.493.4587-.306.3975-.298-.1835.023-.4741.184-1.1774.522-2.1101 1.012-.9327.491-1.8654.981-2.7981 1.471-.8257.353-1.2386.529-1.2386.529-.6118.077-1.3764.422-2.2936 1.035-.8103.475-1.6741 1.019-2.5914 1.632-.7949.597-1.5363 1.126-2.2243 1.586-.6879.459-1.162.643-1.4221.552-.0154-.123-.3748-.015-1.0782.322-.5964.199-1.2386.529-1.9266.989-.7033.337-1.2843.659-1.743.965-.4586.306-.4967.498-.1141.574.1223-.016.2524.03.3902.137-.7949.597-1.5517 1.004-2.2705 1.219l-3.2577.783c-.3517.169-.9939.498-1.9265.988-.8258.353-1.705.775-2.6377 1.265-.9481.368-1.7738.721-2.4772 1.058-.5964.2-.91.177-.9409-.068.2139-.275-.1686-.351-1.1475-.228-.8566.108-1.4073.177-1.652.208-.3671.046.0304-.252 1.1924-.896s2.5075-1.311 4.0366-2c1.5137-.813 2.8593-1.479 4.0367-2.001 1.162-.643 1.5594-.942 1.1923-.896-.581.322-1.4679.682-2.6607 1.081-1.2083.277-2.47.622-3.7852 1.037-1.3306.292-2.6613.584-3.9919.875-1.2082.277-2.1795.462-2.9137.554-.4894.062-.9254.055-1.308-.022-.2601-.091-.2221-.282.1142-.573 1.162-.644 1.6741-1.019 1.5363-1.126-.0154-.123-.3213-.084-.9177.115-.6119.077-1.2695.285-1.9728.622-.71881.215-1.13939.33-1.26176.345-.85754-.886-1.59272-1.788-2.20554-2.705-.7506-1.024-1.48578-1.926-2.20554-2.706 2.49263-.935 5.19144-2.208 8.09644-3.817 3.0274-1.624 6.1694-3.326 9.4261-5.103 3.2413-1.9 6.4979-3.678 9.7701-5.334 3.379-1.793 6.7966-3.28 10.2528-4.461l18.6946-7.017c.9173-.613 1.2613-.843 1.032-.69-.1224.016.2293-.153 1.055-.506l40.3512-12.7288c3.364-.9212 6.935-1.6819 10.713-2.2822 3.885-.7381 7.403-1.43 10.554-2.0756 1.453-.3074 3.579-.6996 6.378-1.1765 2.784-.5994 5.766-1.0995 8.948-1.5004 3.288-.5386 6.6-.8937 9.935-1.0653 3.319-.2939 6.363-.3045 9.132-.0319 2.769.2727 5.011.7982 6.725 1.5767s2.549 1.9786 2.505 3.6002c-.427 1.5455-1.42 2.5408-2.98 2.986-1.438.4298-3.197.7757-5.277 1.0378-.979.1233-2.011.316-3.097.577-.979.123-2.08.262-3.304.416-.826.353-1.659.644-2.5.874-.842.231-2.119.454-3.832.67-2.08.262-3.426.431-4.038.508-.489.062-.665.146-.527.253.122-.015.374.015.757.091.505.061.765.153.78.275-2.676.462-5.108.892-7.295 1.292-1.943.369-3.824.731-5.644 1.084-1.836.231-3.052.447-3.648.646-1.56.445-2.814.852-3.762 1.22-.826.353-1.415.613-1.766.782-.23.153-.169.146.183-.023.474-.184 1.285-.659 2.431-1.425-.015-.122-.505-.061-1.468.185-.857.108-1.889.3-3.098.577-1.085.261-2.11.514-3.074.76-.963.246-1.445.368-1.445.368-.779.72-2.064 1.379-3.853 1.978-1.667.583-3.013.752-4.038.508-.398-.198-1.454-.189-3.167.026-1.713.216-3.288.539-4.726.969-1.1927.399-1.9727.621-2.3398.668-.6118.077-1.0247.253-1.2386.529-.6417.826-1.4597 1.24-2.454 1.241-.8874-.137-1.9353-.067-3.1435.21-3.8079 1.35-7.4321 2.677-10.8729 3.98-3.4407 1.304-6.5066 2.623-9.1977 3.956.0183 3.106-.5135 6.778-1.5955 11.016-1.0819 4.239-2.2786 8.554-3.5899 12.946-1.3267 4.269-2.5999 8.469-3.8197 12.601-1.0974 4.116-1.7824 7.559-2.0551 10.328 3.7934-.478 6.8526-.863 9.1776-1.156 2.3095-.416 4.4432-.747 6.4011-.993 2.0803-.262 4.2983-.418 6.6541-.466 2.4628-.186 5.6906-.219 9.6834-.101 2.1265.105 3.7713.333 4.9342.684 1.2854.335 2.1815 1.527 2.6883 3.577-.6263.949-1.0386 1.622-1.2371 2.02-.2139.276-.4355.49-.6648.643-.2294.153-.5888.261-1.0782.323-.3671.046-1.0859.261-2.1564.644-3.3492 1.044-5.7426 1.78-7.1801 2.21-1.453.308-2.7225.592-3.8083.853-1.1014.139-2.4397.369-4.015.692-1.5908.201-4.0839.639-7.4794 1.316-4.1296.768-7.3338 1.483-9.6125 2.143-2.1718.522-3.938 1.304-5.2984 2.346-1.2536.904-2.2161 2.144-2.8877 3.72-.6715 1.576-1.4495 3.788-2.334 6.634-1.4327 5.401-2.9569 11.063-4.5727 16.985-1.5088 5.784-2.9487 11.622-4.3197 17.513.0154.122-.0381.191-.1604.206l-.3671.046c-1.0088.873-1.6505 1.7-1.9251 2.481-.1523.765-.1898 1.453-.1127 2.065s.1541 1.224.2312 1.835c.1995.597.1465 1.163-.1589 1.699-.1831.52-.4114 1.667-.6851 3.442-.2736 1.775-.3564 3.091-.2485 3.947-.1676.643-.3353 1.286-.5029 1.928-.0299.75-.1286 1.446-.2963 2.089-.4711 3.167-.7664 6.25-.8858 9.248.0029 2.983-.1628 5.615-.4971 7.894-.8277-1.636-1.0358-3.288-.6244-4.955.5492-1.561.6696-3.566.3612-6.013-.1542-1.224-.2539-1.522-.2992-.895-.0452.628-.1132 1.569-.2037 2.823.0472 1.362-.0279 2.738-.2254 4.131-.0597 1.499-.1888 2.448-.3873 2.846-.1831.52-.3888 1.354-.6171 2.501-.0906 1.255-.2655 2.334-.5246 3.236-.1214 1.01-.2968 1.592-.5261 1.745s-.4365-.505-.6215-1.973c-.1696-1.346-.1701-1.843-.0015-1.492.291.337.0319 1.24-.7775 2.709-.2139.275-.4129.176-.5969-.298-.0462-.367-.1079-.856-.185-1.468s-.1542-1.224-.2313-1.836-.131-1.04-.1619-1.285l-.9482-7.525c.2303.841.0097 2.05-.6619 3.626-.5491 1.561-.6315 3.374-.247 5.439.0462.367-.0073.436-.1605.206-.0308-.244-.0848-.673-.1618-1.284-.0617-.49-.2-1.094-.4149-1.813-.0771-.612-.1387-1.101-.185-1.468-.1233-.979-.331-2.134-.6229-3.465-.2766-1.208-.5608-2.477-.8528-3.808s-.515-2.608-.6692-3.831c-.1388-1.102-.1321-2.035.0202-2.8.1522-.765.3044-1.53.4567-2.295.1676-.643.2129-1.27.1358-1.882.0154.123-.1065.635-.3657 1.538-.1368.887-.3502 1.66-.6402 2.318-.2746.781-.4731 1.179-.5954 1.194-.1224.015-.0925-.734.0896-2.249.2736-1.775.4099-3.159.4089-4.154-.001-.994.0058-1.927.0202-2.799.1368-.887.2659-1.836.3873-2.846.2438-1.025.6248-2.44 1.1432-4.246.1069-.138.183-.52.2283-1.148.1677-.642.2741-1.277.3194-1.905.1522-.765.2052-1.331.159-1.698-.0617-.489-.2072-.657-.4365-.504.1522-.765.3656-1.538.6402-2.318.2592-.903.5029-1.928.7313-3.076.4856-4.039 1.1937-7.298 2.1244-9.777.9308-2.48 1.4414-4.346 1.532-5.601.1676-.643.3733-1.476.6171-2.502.2437-1.025.4875-2.05.7312-3.075.2139-.276.3132-.475.2978-.597zm21.9972-8.925c2.0638-1.379 3.6464-2.138 4.7477-2.277 1.2082-.276 2.8371-.668 4.8865-1.175.9635-.245 2.1106-.514 3.4412-.806 1.453-.307 2.508-.813 3.1652-1.518 1.2082-.276 2.2329-.53 3.0741-.76.7188-.215 1.3918-.3 2.019-.254.6119-.077.8031-.039.5738.114-.5656.444-.7795.72-.6417.827.1224-.016.4206-.116.8946-.3.4741-.184 1.0093-.375 1.6057-.575.7034-.337 1.3533-.605 1.9497-.805 2.1718-.522 4.1297-.769 5.8737-.74 1.7439.029 3.6406-.21 5.69-.717.7342-.092.7954-.1.1836-.023s-1.4607.246-2.5466.507c-.9635.246-1.9882.499-3.0741.761-1.1013.138-1.7743.223-2.0191.254-.2447.031-1.0247.253-2.3399.668-1.1928.399-2.508.813-3.9456 1.243-1.453.307-2.7224.591-3.8083.852-.9635.246-1.3383.231-1.1244-.044.4432-.429.3054-.536-.4134-.321-.6118.077-1.3918.299-2.3399.668-.9635.245-1.9193.552-2.8674.92-.8258.353-1.2998.537-1.4222.552-1.9579.247-3.4109.554-4.359.923-.9635.245-2.2098.713-3.7389 1.403-.1069.138-.6499.268-1.6288.392-.9944.001-1.6062.078-1.8355.231zm54.032-77.292c-.244.031-.604.138-1.078.323-.474.184-.948.368-1.422.552l-1.789.598c.979-.123 2.141-.27 3.487-.439 1.453-.308 2.463-.684 3.028-1.128 1.024-.75 2.324-1.287 3.9-1.61 1.697-.338 3.158-.584 4.382-.738.734-.093 1.338-.231 1.812-.415.581-.322 1.055-.506 1.422-.552.123-.016.13.045.023.183.016.123-.091.26-.321.414-.107.137-.213.275-.32.413 0 0 .114-.077.344-.23.565-.444.963-.743 1.192-.896.352-.169.589-.261.711-.276.245-.031.489-.062.734-.093.367-.046.857-.108 1.469-.185.841-.23 2.11-.514 3.808-.852 1.682-.461 2.707-.714 3.074-.761-.979.124-2.394.24-4.245.349-1.728.093-3.005.316-3.831.669-1.912.614-3.472 1.059-4.68 1.335-1.208.277-2.791.539-4.749.785-.612.077-1.125-.044-1.538-.365-.306-.459-.543-.367-.711.276-.061.505-.741 1.025-2.041 1.562-1.177.521-2.003.874-2.477 1.058zm-74.2276 27.999c-.1224.016-.1682.146-.1373.39.1532.23.2221.283.2066.161.3517-.169.6268-.452.8253-.85.3208-.413.6036-.635.8484-.666.8411-.231 1.4298-.491 1.7661-.782.4586-.307.8638-.544 1.2155-.713.4586-.306.9249-.551 1.399-.735.581-.322 1.361-.545 2.3399-.668.2447-.031 1.0551-.506 2.431-1.425 1.3604-1.042 2.0864-1.693 2.178-1.953-.1224.016-.8103.475-2.0639 1.379-1.2689.781-2.5152 1.249-3.7389 1.403-1.3306.292-2.378.859-3.142 1.702-.7795.719-1.4829 1.057-2.1101 1.011-.979.124-1.3841.361-1.2155.713s-.0988.696-.8021 1.033zm68.6746 6.451c.229-.153.795-.1 1.698.159 1.01.121 1.637.167 1.882.136 1.942-.369 3.954-.188 6.035.545.658.29.827.641.506 1.055-.214.275-.389.857-.526 1.744-.137.888-.182 1.515-.136 1.882s.085.673.116.918c.031.244-.061.505-.275.78-.091.26-.336.788-.733 1.584-.534.689-.977 1.615-1.328 2.778-.366 1.041-.778 2.211-1.235 3.512-.336 1.285-.74 2.517-1.213 3.696-.351 1.163-.732 2.081-1.145 2.754.261.092.91-.176 1.95-.805 1.024-.75 1.598-1.133 1.72-1.149.581-.321 1.101-.636 1.559-.942.566-.444 1.147-.766 1.743-.965.949-.368 1.966-.683 3.051-.944 1.193-.399 2.348-.607 3.465-.623 1.025.244 1.683.534 1.974.87l1.24.962c.444.566.751 1.025.919 1.376.276.214.437.505.483.872.153.229.2.596.139 1.101.062.49-.03 1.247-.273 2.272-.228 2.142-.463 4.223-.706 6.242-.242 2.02-.539 4.108-.888 6.266-.182 1.514-.341 3.212-.477 5.094s-.364 3.527-.684 4.934c-.289 1.653-.562 3.428-.821 5.325-.135 1.882-.34 3.71-.614 5.485.628.045.941.068.941.068.107-.138.26-.406.458-.804 1.009-.873 1.704-1.768 2.086-2.687.519-.811 1.046-1.561 1.581-2.25s1.069-1.378 1.604-2.067c.978-1.118 1.903-2.166 2.774-3.146.855-1.103 1.65-2.197 2.383-3.284 1.192-1.393 2.33-2.718 3.415-3.973 1.069-1.378 2.208-2.702 3.415-3.973.978-1.118 1.964-2.174 2.957-3.17 1.116-1.011 2.163-2.075 3.141-3.192.534-.689.97-1.179 1.306-1.47.214-.276.436-.49.665-.643.336-.291.611-.575.825-.85 1.758-1.838 3.684-3.324 5.779-4.458.795.397 1.048.925.758 1.583-.366 1.041-.678 2.012-.938 2.915-.259.903-.571 1.875-.938 2.915-.213.276-.42.613-.618 1.011-.199.397-.466.742-.802 1.033-2.384 2.786-4.691 5.688-6.922 8.703-2.108 3.001-4.331 6.078-6.668 9.232-1.62 1.944-3.178 3.881-4.675 5.81-1.375 1.913-2.804 3.896-4.286 5.947-1.39 1.791-3.232 3.453-5.525 4.985-1.743.965-3.823 1.228-6.241.786-.26-.091-.52-.183-.78-.274-.138-.107-.398-.199-.781-.275-1.025-.244-1.951-.686-2.777-1.328-.72-.78-1.149-1.72-1.288-2.821-.4-2.187-.433-4.421-.099-6.701.366-2.035.685-3.939.959-5.714.258-1.897.455-3.787.591-5.669.167-.642.335-1.285.503-1.928.167-.642.082-1.315-.255-2.019-.26-.091-.23-.344.091-.757.122-1.01.235-2.081.341-3.213.229-1.148.403-2.226.525-3.236.121-1.01.189-1.951.204-2.823.121-1.009.304-2.027.547-3.052-.825.353-1.238.529-1.238.529-2.216 2.144-4.678 3.821-7.384 5.033-1.759.843-3.571 1.257-5.437 1.244-.995.001-1.874-.075-2.639-.227-.781-.275-1.5691-.61-2.365-1.007-.1532-.23-.4899-.436-1.0102-.619-.9028-.259-1.5229-.74-1.8601-1.444-.475-.81-.8966-1.689-1.2647-2.637-.0771-.612-.0698-1.048.0217-1.308.3353-1.286.6094-2.563.8223-3.833s.5559-2.494 1.029-3.673c.4885-1.056.9235-2.043 1.3051-2.961.2437-1.025.6175-2.005 1.1215-2.938.0761-.383.2211-.712.435-.987.1985-.398.3974-.796.5954-1.194.412-.674.71-1.271.893-1.791.168-.643.458-1.301.87-1.974.932-1.485 1.497-2.426 1.696-2.824.305-.536.511-.873.618-1.011.214-.275.428-.551.642-.826.214-.276.703-.835 1.467-1.677zm39.063 39.084c.168-.643.343-1.224.526-1.745.183-.52.359-1.101.526-1.744 1.343-3.153 2.687-6.305 4.03-9.458 1.327-3.275 2.793-6.443 4.396-9.504.199-.398.451-.865.756-1.401.305-.535.297-1.094-.025-1.675-.03-.245.115-.574.435-.987.596-1.194 1.36-2.036 2.293-2.526 1.039-.629 2.163-1.081 3.371-1.358.352-.168.712-.276 1.079-.322.489-.062.902-.238 1.238-.529.902-.735 1.804-.973 2.707-.714 1.025.244 2.005.618 2.939 1.122 1.178.473 1.561 1.543 1.15 3.211-.352.169-.696.399-1.032.689-.352.169-.757.407-1.215.713-1.04.628-1.819 1.348-2.339 2.159-1.054 1.501-2.039 3.054-2.955 4.661-.81 1.47-1.611 3-2.405 4.592-.58 1.316-1.16 2.632-1.74 3.949-.596 1.193-1.26 2.334-1.993 3.421-.52.811-.97 1.676-1.352 2.594-.259.903-.518 1.806-.777 2.708.275.214.467.252.574.115.107-.138.152-.268.137-.391 1.13-1.882 2.268-3.704 3.414-5.464 1.252-1.898 2.444-3.789 3.574-5.672.214-.275.42-.612.618-1.01.321-.413.589-.758.802-1.033 1.223-1.149 2.224-2.58 3.002-4.294.214-.276.313-.475.298-.597.107-.138.275-.283.504-.437.566-.444.81-.972.733-1.584-.031-.244.015-.375.137-.39.107-.138.207-.337.298-.597.214-.275.42-.612.619-1.01.321-.413.588-.758.802-1.033.535-.689 1.016-1.309 1.444-1.861.427-.551.847-1.163 1.26-1.837.305-.535.68-1.018 1.123-1.446.107-.138.221-.215.344-.23.122-.016.298-.1.527-.253.245-.031.436.007.574.114s.26.092.367-.046c.78-.72 1.552-1.004 2.317-.851.765.152 1.53.304 2.295.456 1.668.412 2.618 1.535 2.849 3.371.199.596.284 1.269.254 2.019.077.612.093 1.231.048 1.858-.18 3.504-.429 6.954-.747 10.35-.196 3.381-.452 6.77-.77 10.166-.336 1.286-.319 2.402.049 3.35.581-.321 1.108-.574 1.582-.758.581-.322 1.086-.759 1.514-1.31 4.202-4.134 8.161-7.741 11.875-10.819 3.715-3.079 7.452-6.471 11.211-10.177 1.575-1.317 3.203-2.703 4.884-4.158 1.788-1.593 3.523-3.117 5.204-4.572 1.682-1.454 3.248-2.833 4.7-4.135 1.575-1.317 2.927-2.419 4.059-3.308.55-.566 1.184-.957 1.903-1.172.122-.015.39.137.804.458l-.367.046.046.368c.214-.276.321-.414.321-.414.015.123.099.298.253.528.137.107.214.221.229.344-.183.52-.427 1.048-.732 1.584-.199.398-.382.918-.55 1.561-.778 1.714-2.191 3.819-4.238 6.314-1.941 2.358-4.225 4.945-6.854 7.763-2.521 2.679-5.28 5.451-8.276 8.315-2.873 2.848-5.692 5.627-8.459 8.338-2.781 2.588-5.395 5.03-7.84 7.327-2.339 2.16-4.234 3.89-5.686 5.192-1.116 1.011-2.622 1.884-4.518 2.62-.352.169-.711.276-1.078.323-.383-.077-.696-.099-.941-.068-3.534-.425-6.381-2.304-8.542-5.637-.413-.321-.536-.802-.368-1.445.305-.536.427-1.048.365-1.538-.077-.612-.031-1.239.136-1.882l.065-3.924c.045-1.621.089-3.243.133-4.865.167-1.637.272-3.266.317-4.887l-.093-.735c-.581.322-1.177 1.019-1.788 2.09-.84 1.225-1.619 2.442-2.337 3.651-.733 1.087-1.512 2.304-2.337 3.651-.717 1.209-1.435 2.418-2.153 3.628-.733 1.086-1.329 2.28-1.786 3.581-.764 1.836-1.664 3.566-2.703 5.189-.916 1.607-1.886 3.283-2.909 5.028-.611 1.071-1.291 2.089-2.04 3.054-.748.964-1.704 1.768-2.866 2.412-2.324 1.287-4.549 1.381-6.677.282-.398-.199-.719-.282-.964-.252-.382-.076-.704-.16-.964-.251-.429-.443-.788-.833-1.079-1.169-.291-.337-.575-.612-.85-.826-.705-.657-.981-1.368-.828-2.133-.078-.612-.07-1.048.021-1.308.519-1.805 1.052-3.489 1.602-5.05.533-1.683 1.136-3.313 1.808-4.889.106-.138.221-.214.343-.23 0 0 .054-.069.161-.207l-.184.024c.184.474.238.902.162 1.284-.214.276-.359.605-.435.988-.854 2.096-1.587 4.177-2.197 6.243-.29.658-.274 1.278.048 1.859.748-1.959 1.442-3.849 2.083-5.67.625-1.943 1.25-3.887 1.876-5.83.167-.643.343-1.224.526-1.745.183-.52.358-1.102.526-1.744.917-.613 1.299-1.531 1.144-2.755.581-.322.925-.552 1.032-.689-.03-.245-.146-.666-.345-1.262.382.076.619-.016.711-.276.076-.383.229-.651.458-.804.092-.26.122-.512.091-.757-.046-.367-.023-.681.068-.941.581-.322.825-.85.733-1.584.214-.276.435-.49.665-.643.214-.276.427-.551.641-.827-.03-.245-.069-.551-.115-.918-.047-.367-.207-.657-.483-.871.674.412 1.071.114 1.192-.896-.214.275-.374.482-.481.62-.122.015-.29.161-.504.436.031.245.069.551.115.918-.091.26.001.497.276.711-.856.108-1.292.598-1.306 1.47-.581.322-.825.85-.733 1.584-.336.291-.42.612-.251.964.153.229.184.474.092.734-.382-.076-.627-.045-.734.093s-.244.528-.412 1.17c-.566.445-.802 1.034-.71 1.768-.32.413-.58.819-.779 1.217-.32.413-.442.926-.365 1.538l-.893 1.791c-.321.413-.68 1.017-1.077 1.813zm11.061-23.21c-.107.138-.206.337-.298.597.015.122-.076.382-.275.78l.803-1.033c-.016-.122-.092-.237-.23-.344zm-1.717 4.132c-.123.015-.184.023-.184.023-.015-.122-.084-.176-.206-.16-.107.138-.153.268-.138.39 0 0-.053.069-.16.207.015.122.092.237.23.344l.183-.024c-.031-.244.061-.504.275-.78zm.549-1.561.023.184c.107-.138.161-.207.161-.207l-.024-.184c-.122.016-.175.085-.16.207zm109.32-25.708c1.837.763 2.809 2.07 2.918 3.921.093.735.094 1.729.003 2.983-.075 1.377-.166 2.632-.272 3.764s-.204 2.325-.294 3.58c-.122 1.01-.251 1.958-.388 2.846-.014.872-.09 1.751-.227 2.639-.349 2.157-.752 4.383-1.209 6.678-.472 2.173-.883 4.338-1.233 6.496-.427 1.545-.662 3.129-.707 4.75-.044 1.622-.08 3.305-.109 5.049-.213 1.27-.044 2.616.508 4.038.2.596.216 1.216.048 1.858-.183.521-.358 1.102-.526 1.745-1.651.705-3.319.294-5.003-1.234-2.925-2.491-4.603-5.449-5.035-8.876-.23-.841-.338-1.697-.323-2.569.136-.888.212-1.768.227-2.64.121-1.009.181-2.011.18-3.006.106-1.132.342-2.218.708-3.259.092-.26.069-.444-.069-.551-.031-.244-.077-.611-.139-1.101-.214.276-.443.429-.688.46-.122.015-.237.092-.344.23-.931 1.484-1.932 2.916-3.002 4.294-.947 1.362-2.016 2.74-3.208 4.133-1.146 1.76-2.368 3.406-3.667 4.937-1.298 1.531-2.59 3.124-3.873 4.777s-2.728 3.016-4.333 4.089c-1.59 1.195-3.387 1.732-5.391 1.611-1.835.232-3.419-.004-4.75-.706-1.332-.703-2.633-1.658-3.904-2.865-1.562-1.543-2.573-3.156-3.034-4.839-.583-1.667-.868-3.433-.854-5.3.106-1.132.273-2.272.501-3.419.091-1.255.258-2.394.502-3.42.38-1.912.769-3.764 1.165-5.554.38-1.912.768-3.764 1.164-5.554.443-1.423.885-2.846 1.327-4.27.442-1.423.885-2.846 1.327-4.269.244-1.025.404-1.729.48-2.111-.047-.368-.193-1.033-.438-1.996.397-.796 1.177-1.019 2.34-.668 1.254.09 2.088-.201 2.5-.875.627.046 1.086.236 1.377.573.276.214.72.282 1.331.205 1.01.121 1.822.641 2.434 1.558.613.917.744 1.957.394 3.12-.077.383-.198.895-.366 1.538-.061.505-.183 1.018-.366 1.538-.457 1.301-.854 2.594-1.189 3.879-.351 1.163-.633 2.379-.846 3.649-.472 2.173-1.005 4.354-1.599 6.542-.595 2.188-1.128 4.368-1.6 6.541-.427 1.546-.548 3.053-.363 4.521.047 1.361.056 2.914.028 4.658.825-.353 1.46-.743 1.903-1.172.428-.551.917-1.11 1.467-1.677 2.46-3.169 4.813-6.2 7.059-9.093 2.23-3.016 4.514-6.101 6.852-9.255 1.176-1.515 2.299-2.962 3.368-4.34 1.177-1.515 2.346-3.092 3.507-4.73.855-1.103 1.65-2.197 2.383-3.284.718-1.209 1.504-2.365 2.36-3.467.382-.919.71-1.768.984-2.548.259-.903.717-1.707 1.375-2.411l.55-.069c.841-.231 1.308-.476 1.399-.736.092-.26-.046-.864-.415-1.813l-.023-.183c.123-.016.237-.092.344-.23.612-.077.987-.062 1.125.045.642.168 1.216.282 1.721.342.627.046 1.27.213 1.928.503zm.467 8.146-.069-.551c-.29.658-.527 1.248-.71 1.768-.458 1.301-.602 2.624-.432 3.97s.224 2.272.163 2.776c-.076.383-.19.957-.342 1.722-.168.643-.343 1.224-.526 1.744-.183.521-.236 1.087-.159 1.699.306.458.414.818.322 1.078.031.244-.037.688-.205 1.331-.152.765-.327 1.844-.525 3.236-.213 1.27-.357 2.593-.432 3.97.077.612.1.795.07.551.091-.26.16-.704.205-1.331.045-.628.083-1.316.112-2.066.137-.887.305-1.53.503-1.928.794-1.592 1.222-2.64 1.282-3.145.061-.505.037-1.185-.07-2.042-.108-.856-.147-1.66-.118-2.409.168-.643.336-1.286.503-1.928.153-.765.213-1.27.182-1.515l-.37-2.937c-.352-.825-.429-1.437-.231-1.835.214-.276.382-.421.505-.437.122-.015.282-.222.481-.62zm1.917 12.252c.305-.536.328-.353.069.55-.152.765-.221 1.209-.205 1.331.046.367.016.62-.091.758.046.367.016.619-.091.757-.566.444-.81.972-.733 1.584l.162 1.285c.168.352.199.596.092.734-.122.016-.229.153-.32.414-.03.749-.206 1.331-.527 1.744.031.245.001.994-.089 2.249.046.367-.015.872-.182 1.514-.183.521-.359 1.102-.526 1.745-.29.658-.511 1.37-.664 2.135.03-.75.129-1.446.297-2.089.167-.642.289-1.155.365-1.538.061-.504.198-.895.412-1.17.092-.26.107-.635.045-1.125-.062-.489-.085-1.17-.071-2.042-.046-.367.06-1.002.319-1.905.244-1.025.488-2.05.732-3.075zm65.082-18.083-.023-.184zm1.718-2.641-.16.207-.023-.184zm-3.14 3.193c-.474.184-1.308.475-2.501.874 1.544-1.562 3.371-2.848 5.481-3.86.168.352-.03.75-.596 1.194-.703.337-1.032.689-.985 1.056-.23.153-.459.307-.688.46-.245.031-.482.123-.711.276zm4.288-2.964c-.123.015-.176.084-.161.206 0 0-.061.008-.183.023-.016-.122.038-.191.16-.206zm-.528.253.184-.024zm-1.741 2.457c.474-.184.894-.3 1.261-.346.49-.062 1.086-.261 1.79-.598-.214.275-.367.543-.459.803-.106.138-.213.276-.32.414-.092.26-.245.528-.459.803-.106.138-.145.329-.114.574.124.979-.143 1.821-.8 2.525-.535.689-1.261 1.34-2.178 1.953-1.789 1.592-3.516 3.177-5.182 4.755-1.681 1.455-3.293 2.963-4.837 4.525-.779.72-1.567 1.378-2.362 1.976-.688.459-1.368.98-2.04 1.562-1.926 1.486-3.791 2.964-5.595 4.434-1.681 1.455-3.355 2.971-5.021 4.549-1.467 1.179-2.996 2.366-4.586 3.561-1.467 1.179-2.996 2.366-4.585 3.561-.902.735-1.873 1.417-2.913 2.045-.932.491-1.857 1.042-2.775 1.655-1.957 1.241-3.875 2.291-5.756 3.149-1.759.844-3.724 1.526-5.895 2.048-1.071.384-2.042.568-2.914.554-1.01-.121-2.035-.365-3.076-.731-2.601-.916-5.211-2.389-7.829-4.421-.689-.535-1.317-1.077-1.883-1.628-.689-.534-1.141-1.161-1.356-1.88.535-.689.848-1.163.94-1.424.274-.78.365-1.537.273-2.272.12-2.004.562-3.924 1.325-5.76.641-1.822 1.473-3.605 2.496-5.35.275-.78.618-1.507 1.03-2.18.29-.659.313-1.469.067-2.433l.16-.207s.115-.076.344-.229c.597-.2.986-.56 1.169-1.08.061-.505.313-.972.756-1.4 1.131-1.883 2.322-3.774 3.574-5.672 1.115-2.005 2.238-3.949 3.368-5.832.519-.811 1.039-1.622 1.558-2.433.626-.95 1.053-1.998 1.282-3.145-.016-.123.145-.329.481-.62 1.223-1.149 2.262-2.274 3.118-3.377.84-1.224 1.887-2.289 3.14-3.192l-.162-1.285c.964-.246 1.874-.423 2.73-.531.964-.245 2.012-.315 3.144-.209 1.01.121 2.004.12 2.983-.003.963-.246 1.927-.492 2.89-.737 1.836-.232 3.297.019 4.384.753.689.534 1.37 1.008 2.044 1.42.78.275 1.454.687 2.02 1.237 1.347.825 2.075 1.666 2.183 2.522.214.719-.106 1.63-.961 2.732-.535.689-1.062 1.439-1.582 2.25-.412.674-.947 1.363-1.604 2.067-2.72 3.078-5.646 5.995-8.78 8.751-3.011 2.742-6.274 5.453-9.79 8.133-1.712 1.21-3.639 2.199-5.78 2.966-1.544.568-2.721 1.586-3.531 3.055-.671 1.577-1.22 3.138-1.647 4.683-.442 1.423-.808 2.961-1.097 4.613-.045.628-.083 1.316-.113 2.066-.167.642-.274 1.277-.319 1.905.062.489.184.971.368 1.445.628.045 1.171-.085 1.629-.392.459-.306.918-.613 1.376-.919 1.376-.919 2.767-1.716 4.174-2.391 1.391-.796 2.698-1.769 3.921-2.918.581-.321 1.101-.636 1.56-.942.565-.444 1.154-.705 1.766-.782.26.092.55-.069.871-.483 1.804-1.47 3.562-2.81 5.274-4.02 1.712-1.211 3.478-2.49 5.297-3.838.581-.322 1.162-.643 1.743-.965s1.162-.644 1.743-.966c1.59-1.194 3.187-2.328 4.792-3.401 1.59-1.194 3.18-2.389 4.77-3.584.214-.275.435-.49.665-.643.351-.169.634-.391.848-.666.214-.276.374-.483.481-.62.23-.154.459-.307.688-.46 1.316-.414 2.424-.989 3.326-1.724.886-.858 1.796-1.532 2.729-2.022.825-.353 1.582-.759 2.27-1.219.795-.597 1.536-1.126 2.224-1.585.23-.153.467-.245.711-.276.352-.169.635-.391.849-.666 1.193-.399 2.026-.691 2.5-.875.229-.153.466-.245.711-.276.352-.169.642-.33.872-.483zm-37.386-5.173c-.581.322-1.566 1.379-2.957 3.17-1.283 1.653-2.605 3.498-3.964 5.534-1.558 2.434-3.276 5.074-5.155 7.922 3.118-2.879 5.953-5.536 8.505-7.971 2.232-2.022 4.226-3.951 5.984-5.789 1.864-1.975 2.888-3.223 3.071-3.743.381-.918.297-1.094-.253-.528-.566.445-1.277.721-2.133.829-.49.061-.796.1-.918.115-.138-.107-.268-.152-.39-.137-.016-.122-.138-.107-.367.046-.245.031-.719.215-1.423.552zm32.294 7.679-.184.023zm0 0-.023-.184zm19.894-13.695c.199-.398.405-.734.619-1.01.657-.704 1.192-1.393 1.604-2.067.535-.689.993-1.492 1.374-2.411.199-.398.405-.734.619-1.01.336-.291.81-.475 1.422-.552.122-.015.466-.245 1.032-.689.321-.414.649-.766.986-1.057.321-.413.588-.758.802-1.033 2.002-1.869 4.082-2.628 6.239-2.278.627.045 1.255.09 1.882.136.627.045 1.254.09 1.882.136 2.065.609 3.405 1.87 4.019 3.782.399 1.193.614 2.409.646 3.648.016 1.116.048 2.356.096 3.717-.701 3.32-1.592 7.1-2.674 11.338-1.082 4.239-2.111 8.408-3.086 12.509-.99 3.979-1.836 7.628-2.536 10.948-.7 3.321-.95 5.776-.75 7.367 1.743-.966 3.455-2.176 5.137-3.631 1.665-1.577 3.262-3.208 4.791-4.892 1.65-1.7 3.178-3.384 4.584-5.053s2.712-3.139 3.92-4.409c.993-.996 1.582-1.256 1.766-.782.306.458.406 1.254.3 2.386-.121 1.01-.464 2.234-1.029 3.672-.442 1.423-.907 2.663-1.396 3.719-2.627 3.812-5.73 6.813-9.307 9.004-3.455 2.176-6.452 4.045-8.99 5.608-2.126-.105-3.917-.501-5.371-1.188s-2.602-1.412-3.444-2.176c-.857-.887-1.462-1.743-1.815-2.569-.23-.841-.239-1.399-.025-1.675-.154-1.223-.026-3.166.385-5.829.517-2.8 1.134-5.799 1.85-8.996.822-3.336 1.653-6.611 2.491-9.824.823-3.336 1.401-6.144 1.736-8.423.441-2.418.547-4.047.316-4.888-.108-.857-.803-.458-2.087 1.195-1.465 3.168-3.206 6.122-5.223 8.863-1.91 2.602-3.727 5.442-5.453 8.518-1.206 2.265-2.412 4.531-3.619 6.796-1.206 2.265-2.328 4.706-3.366 7.323-.763 1.837-1.534 3.612-2.312 5.326-.656 1.699-1.366 3.466-2.129 5.303-.687 1.454-1.451 2.296-2.292 2.526-.841.231-1.828.293-2.96.187-2.173-.472-3.819-1.694-4.937-3.667-.184-.474-.361-.887-.529-1.238-.307-.459-.552-.925-.736-1.399.642-.827 1.107-2.067 1.396-3.719.488-2.051.983-4.04 1.486-5.968.365-2.035.784-4.139 1.256-6.311.183-.521.244-1.026.182-1.515-.184-.474-.192-1.032-.025-1.675.046-.627.236-1.086.573-1.377.213-.276.343-.727.388-1.355.26-.903.465-1.736.617-2.502.153-.765.167-1.637.044-2.615-.077-.612-.055-1.423.066-2.433.488-2.05.975-4.101 1.463-6.151.365-2.035.791-4.078 1.279-6.128.564-1.439.594-2.685.088-3.74-.291-.337-.246-.964.136-1.882.076-.383.297-1.094.663-2.135 1.56-.445 3.09-.638 4.589-.578 1.484-.063 3.037.425 4.659 1.464.858.886 1.333 1.697 1.426 2.431-.03.749-.121 1.507-.274 2.272-.045.627-.09 1.254-.135 1.882-.122 1.009-.32 1.905-.594 2.685-.153.765-.289 1.652-.411 2.662-.167.643-.274 1.278-.319 1.905-.061.505-.152 1.262-.273 2.272.871-.98 1.512-1.807 1.925-2.48.535-.689 1.069-1.378 1.604-2.067-.092.26-.122.513-.091.757.138.107.153.23.046.368-.535.689-1.062 1.439-1.581 2.25-.535.689-1.054 1.5-1.558 2.434-.107.138-.267.344-.481.62-.214.275-.176.581.115.918 1.834-2.22 3.545-4.425 5.134-6.614.84-1.225 1.696-2.327 2.567-3.307s1.719-2.143 2.543-3.49c-.734.092-1.246.467-1.536 1.126-.305.535-.779.719-1.422.552zm143.638-12.877c.031.245.123.482.276.711.138.107.215.222.23.344-.259.903-.335 1.783-.227 2.639.215.719.185 1.469-.089 2.249 0 0-.054.069-.161.207-.151 1.759-.486 3.542-1.004 5.347-.519 1.806-1.443 3.352-2.772 4.638-1.421 1.547-2.843 3.093-4.264 4.64-1.299 1.531-2.59 3.123-3.873 4.777-1.406 1.668-2.873 3.345-4.401 5.029-1.543 1.562-3.087 3.124-4.631 4.686-2.43 2.419-4.997 4.732-7.703 6.937-2.705 2.206-6.008 4.114-9.907 5.724-1.422.552-2.715.653-3.878.302-1.285-.335-2.525-.801-3.719-1.396-.719-.78-1.592-1.291-2.617-1.535-1.255-.091-1.959-.748-2.113-1.971-.215-.719-.369-1.446-.461-2.18-.215-.719-.246-1.461-.094-2.226.168-.642.19-1.453.066-2.432-.138-1.101-.094-2.226.135-3.373.06-.505.137-.888.228-1.148.076-.382.145-.826.205-1.331.454-5.278 1.267-10.664 2.44-16.157.137-.887.334-2.28.592-4.177.136-1.881.211-3.258.226-4.13.107-.138.145-.329.114-.574-.153-.229-.299-.398-.437-.505-.322-.581-.49-.932-.506-1.055-.03-.244-.084-.673-.161-1.284.213-.276.557-.506 1.031-.69.337-.291.673-.582 1.009-.873.459-.306.879-.421 1.262-.345.734-.093 1.269-.285 1.606-.575.902-.736 2.056-.943 3.464-.623 1.392.197 2.273.77 2.641 1.718.321.581.292 1.331-.09 2.249-.06 1.499-.417 3.595-1.072 6.288-.533 2.678-.883 4.835-1.049 6.472-.335 2.28-.6 4.613-.797 7-.196 2.386-.454 4.781-.773 7.183-.137.887-.212 1.767-.227 2.639.093.734.063 1.484-.089 2.249-.061.505-.053 1.063.024 1.675.093.734.399 1.193.919 1.376 1.408.32 3.541-.508 6.4-2.485 2.843-2.098 6.183-5.192 10.019-9.28 1.421-1.546 2.834-3.154 4.24-4.823s2.865-3.407 4.378-5.213c1.742-1.96 3.27-4.141 4.583-6.544.076-.383.221-.712.435-.988.795-.597 1.406-1.171 1.834-1.722.535-.689 1.077-1.317 1.627-1.884 1.039-1.622 2.238-2.954 3.599-3.996.459-.306.925-.552 1.399-.736.596-.199 1.307-.475 2.133-.828zm-42.078-17.2603c-.153-.2293-.475-.3131-.964-.2514-.582-.6726-1.111-1.414-1.586-2.2243-.352-.8257-.766-1.6438-1.241-2.4541.443-.4288.703-.8344.779-1.2169.198-.398.466-.7424.802-1.0334.214-.2756.497-.4977.848-.6663.474-.184.88-.4216 1.216-.7125 1.024-.7506 2.339-1.165 3.945-1.243 1.714-.2159 3.114.0428 4.2.776.796.397 1.256 1.0849 1.379 2.0639l.509 4.0381c.077.6118.147 1.1625.208 1.652.062.4894.192 1.0324.392 1.6288.722 2.7682.778 5.6824.169 8.7424-.121 1.01-.526 1.745-1.214 2.204-.581.322-1.154.705-1.72 1.149 0 0-.367.046-1.101.139-.413-.321-.926-.443-1.538-.366-.322-.581-.697-1.093-1.126-1.536-.306-.459-.376-1.009-.208-1.652l-.092-.734c-.782-1.269-1.387-2.622-1.817-4.06-.445-1.5599-1.059-2.9743-1.84-4.2433zm.646 3.6483-.023-.184zm52.486 6.998c.199-.397.405-.734.619-1.01.657-.704 1.191-1.393 1.604-2.067.535-.689.993-1.492 1.374-2.41.199-.398.405-.735.619-1.011.336-.291.81-.475 1.422-.552.122-.015.466-.245 1.032-.6891.321-.4134.649-.7655.986-1.0565.32-.4134.588-.7579.802-1.0334 2.002-1.8683 4.082-2.6276 6.239-2.2779.627.0453 1.254.0906 1.882.1359.627.0452 1.254.0905 1.882.1358 2.065.6099 3.405 1.8706 4.019 3.7823.399 1.1929.614 2.4089.646 3.6479.016 1.117.048 2.356.095 3.717-.7 3.321-1.591 7.1-2.673 11.339-1.082 4.238-2.111 8.408-3.086 12.509-.99 3.978-1.836 7.627-2.536 10.948-.701 3.32-.951 5.775-.75 7.366 1.743-.965 3.455-2.175 5.136-3.63 1.666-1.578 3.263-3.209 4.791-4.893 1.651-1.699 3.179-3.384 4.585-5.053 1.406-1.668 2.712-3.138 3.919-4.409.994-.996 1.582-1.256 1.767-.782.306.459.406 1.254.3 2.386-.121 1.01-.464 2.234-1.029 3.673-.442 1.423-.907 2.662-1.396 3.718-2.627 3.812-5.73 6.813-9.307 9.005-3.456 2.175-6.452 4.044-8.99 5.607-2.127-.105-3.917-.501-5.371-1.188s-2.602-1.412-3.444-2.176c-.857-.887-1.463-1.743-1.815-2.568-.23-.842-.239-1.4-.025-1.675-.154-1.224-.026-3.167.385-5.829.517-2.8 1.134-5.799 1.849-8.997.823-3.336 1.654-6.611 2.492-9.824.823-3.336 1.401-6.143 1.736-8.423.441-2.418.546-4.047.316-4.888-.108-.857-.803-.458-2.087 1.195-1.465 3.168-3.206 6.123-5.223 8.863-1.91 2.602-3.727 5.442-5.453 8.518-1.206 2.266-2.413 4.531-3.619 6.796s-2.328 4.707-3.366 7.324c-.763 1.836-1.534 3.611-2.312 5.325-.656 1.699-1.366 3.467-2.129 5.303-.687 1.454-1.451 2.296-2.292 2.527-.841.23-1.828.292-2.96.186-2.173-.472-3.819-1.694-4.937-3.667-.184-.474-.361-.886-.529-1.238-.307-.459-.552-.925-.736-1.399.642-.827 1.107-2.066 1.396-3.719.488-2.05.983-4.04 1.486-5.968.365-2.035.784-4.138 1.256-6.311.183-.52.243-1.025.182-1.515-.184-.474-.192-1.032-.025-1.675.045-.627.236-1.086.572-1.377.214-.276.344-.727.389-1.354.259-.903.465-1.737.617-2.502.153-.765.167-1.637.044-2.616-.077-.612-.055-1.423.066-2.433.488-2.05.975-4.1 1.463-6.151.365-2.035.791-4.077 1.279-6.128.564-1.438.594-2.685.088-3.74-.291-.336-.246-.964.136-1.882.076-.383.297-1.094.663-2.1347 1.56-.4451 3.089-.6379 4.589-.5782 1.484-.0626 3.037.4254 4.659 1.4639.858.887 1.333 1.697 1.425 2.431-.029.75-.12 1.507-.273 2.272-.045.627-.09 1.255-.136 1.882-.121 1.01-.319 1.905-.594 2.685-.152.765-.289 1.653-.41 2.662-.168.643-.274 1.278-.319 1.905-.061.505-.152 1.263-.273 2.272.871-.98 1.512-1.806 1.925-2.48.534-.689 1.069-1.378 1.604-2.067-.092.261-.122.513-.091.758.138.107.153.229.046.367-.535.689-1.062 1.439-1.581 2.25-.535.689-1.054 1.5-1.558 2.434-.107.138-.267.345-.481.62-.214.276-.176.582.115.918 1.834-2.22 3.545-4.425 5.134-6.614.84-1.225 1.696-2.327 2.567-3.307s1.719-2.143 2.543-3.49c-.734.092-1.246.468-1.536 1.126-.305.536-.779.72-1.422.552zm97.694-41.5836c-.688.4596-1.315.9115-1.881 1.3557-.565.4442-1.192.8961-1.88 1.3557-1.864 1.9752-3.309 3.3381-4.333 4.0887-1.04.6283-1.927.9886-2.661 1.0811-.872-.0144-1.706-.2201-2.502-.6171-.933-.5039-2.157-.8469-3.672-1.029-1.652-.289-3.764-.2716-6.333.0522-2.708.2168-6.279.9775-10.714 2.2822.198-.3979.175-.5815-.07-.5507-.26-.0915-.099-.2982.482-.62 1.284-.659 2.102-1.0729 2.454-1.2415.336-.291-.329-.145-1.996.4379-1.086.2612-1.981.5603-2.684.8976-.719.2149-1.568.384-2.547.5073.932-1.4848 2.132-2.8169 3.599-3.9963 1.452-1.3017 3.042-2.4965 4.77-3.5843 1.727-1.0879 3.524-2.1222 5.389-3.1031 1.728-1.0879 3.402-2.1068 5.022-3.0569 3.333-2.1602 6.98-4.2978 10.94-6.4128 3.944-2.2374 7.981-4.2377 12.11-6.001 4.235-1.9011 8.241-3.649 12.018-5.2437 3.9-1.6101 8.235-3.2129 13.007-4.8086l26.587-8.0115c.259-.9029.297-1.5913.113-2.0654-.062-.4894-.108-.8565-.139-1.1013.076-.3825.343-.7269.802-1.0334.459-.3064 1.399-.7356 2.821-1.2877 2.248-.9048 3.762-1.2199 4.543-.9453.765.1522 1.553.488 2.364 1.0073.796.397 1.898.7554 3.306 1.0753 1.53.3044 4.054.1107 7.571-.5811l30.124-5.1008c1.729-.0935 3.404-.1181 5.026-.0738 1.606-.0781 3.449-.2482 5.529-.5103 1.591-.2004 2.754-.3469 3.488-.4394.856-.1079 1.545-.0703 2.065.1127.627.0453 1.217.2818 1.768.7096s1.316 1.0772 2.296 1.9483c-.305.5357-.366 1.0406-.182 1.5146.291.3363.59.7337.896 1.1924.291.3362.521.6802.69 1.0319.291.3363.215.7188-.229 1.1476-.458.3064-1.215.7125-2.27 1.2184-.948.368-2.011.8127-3.188 1.334-1.071.3835-2.195.8359-3.372 1.3572-1.071.3835-1.896.7361-2.477 1.058-.826.3526-1.851.606-3.075.7602-1.239.0318-2.539.0713-3.9.1186-1.255-.0906-2.502-.12-3.741-.0881-1.254-.0906-2.302-.0207-3.143.2096-1.209.2765-3.036.569-5.484.8773-2.325.293-4.894.6167-7.709.9714-2.814.3546-5.621.7704-8.42 1.2473-2.692.3392-5.002.7545-6.929 1.246.063 1.4838-.019 3.2967-.247 5.4386-.243 2.0195-.402 3.2206-.478 3.6031-.152.765-.457 1.7979-.915 3.0987-.473 1.1784-.938 2.418-1.396 3.7187-.565 1.4386-1.236 3.0149-2.015 4.729-.075 1.3769-.417 3.5954-1.026 6.6556-.624 2.9378-1.401 6.1434-2.331 9.6169-.807 3.4581-1.63 6.7939-2.468 10.0072-.716 3.198-1.219 5.6232-1.508 7.2756-.578 3.3049-1.072 6.2885-1.482 8.9507-.304 2.5245-.921 5.5235-1.85 8.9965-.869 2.969-1.677 6.427-2.422 10.375-.746 3.947-1.538 8.025-2.375 12.233-.715 4.192-1.437 8.323-2.168 12.393-.745 3.948-1.56 7.344-2.445 10.191-.442 1.423-.686 2.448-.731 3.075.061.49.177.91.345 1.262.169.352.215.719.139 1.101.062.49-.091 1.255-.457 2.295-.87 1.975-1.625 4.37-2.264 7.185-.64 2.815-1.181 5.432-1.622 7.849-.426 2.54-.783 4.636-1.072 6.289-.167 1.637-.281 2.211-.343 1.721.076-.382.235-2.081.477-5.094.257-2.892.65-7.665 1.179-14.32-.106 1.132-.219 2.203-.341 3.212.001.995-.243 2.02-.731 3.076-.244 1.025-.633 1.882-1.168 2.571s-.962 1.737-1.282 3.145c-.259.903-.365 1.538-.319 1.905.184.474.291.834.322 1.078.031.245-.068.444-.297.597-.23.153-.811.475-1.743.966-.66-1.285-1.112-2.409-1.358-3.372-.23-.841-.46-1.683-.691-2.524-.092-.734-.261-1.583-.507-2.546-.108-.857-.361-1.882-.76-3.074-.506-1.055-.843-1.759-1.012-2.11-.046-.368-.092-.735-.139-1.102.092-.26.168-.642.229-1.147.183-.521.32-1.408.41-2.663-.109-1.85-.118-3.9-.029-6.149.212-2.265.424-4.529.636-6.793.334-2.28.684-4.437 1.049-6.472.472-2.173.914-4.093 1.325-5.761-.84 1.225-1.611 2.503-2.313 3.834-.596 1.194-.802 1.531-.619 1.011.366-1.041.564-2.433.593-4.177.028-1.744.035-2.677.02-2.8.747-1.959 1.342-3.65 1.785-5.073.442-1.423.884-3.343 1.325-5.761.518-1.805.921-4.032 1.209-6.678.411-2.663.883-5.333 1.415-8.01.518-2.8 1.05-5.478 1.599-8.033.67-2.5708 1.464-4.6597 2.38-6.2669.764-.8421 1.238-1.5233 1.421-2.0436s.19-.9563.021-1.308c-.046-.3671-.207-.6576-.482-.8715-.154-.2293-.238-.4051-.253-.5275.214-.2756.496-.9949.847-2.1578.35-1.163.693-2.3872 1.029-3.6725.442-1.4231.769-2.7697.982-4.0396.336-1.2854.48-2.1116.434-2.4787.089-2.2488.509-3.8555 1.257-4.82.749-.9645 1.184-1.9517 1.305-2.9614.015-.872.205-1.8283.571-2.8689.473-1.1784.694-1.89.663-2.1347.137-.8874.16-1.2011.068-.9409.016.1224-.068.4437-.251.964-.061.5049-.175 1.0787-.343 1.7213-.167.6427-.312.9718-.435.9872-.458.3064-.741.5285-.848.6663s-.214.2755-.321.4133c.016.1224-.022.3137-.114.5738.031.2447-.114.5738-.435.9871-.198.398-.267.3445-.207-.1604.046-.6272.144-1.3234.297-2.0884.136-.8874.281-1.7137.433-2.4787.275-.7805.412-1.1707.412-1.1707.822-4.3301 1.469-7.5815 1.941-9.7542.457-2.2952.815-3.8941 1.074-4.797.259-.9028.442-1.4231.549-1.5609s.145-.329.114-.5738c.076-.3825.06-1.002-.048-1.8586.015-.872.051-2.5548.11-5.0484.016.1224-.16.2067-.527.253-1.316.4143-2.386.7978-3.212 1.1504-.826.3527-1.59.6977-2.293 1.0349-.581.3218-1.224.6514-1.927.9886-.719.2149-1.629.3917-2.73.5305-.734.0925-1.576.3228-2.524.6908-.841.2303-1.552.5064-2.133.8282-.596.1995-.887.3604-.871.4828.137.1069.879.0756 2.225-.094.123-.0154-.244.0308-1.101.1387-.734.0925-1.644.2694-2.73.5305s-2.172.5223-3.258.7834-1.85.6061-2.293 1.0348c-1.59 1.1948-3.356 1.9767-5.299 2.3458-1.835.2313-3.066.8214-3.692 1.7705-.566.4442-1.568.8812-3.005 1.3109-1.438.4298-2.539.5685-3.304.4163.122-.0154.191.0381.207.1604.015.1224-.038.1913-.161.2067-.672.582-1.475 1.1182-2.408 1.6087-.81.475-1.689.8965-2.637 1.2646-.826.3527-1.583.7588-2.271 1.2184-.703.3373-1.215.7126-1.536 1.1259-.642.8267-1.788 1.5927-3.44 2.2981-1.651.7053-3.196 1.2728-4.633 1.7026zm25.804-11.2692c.122-.0155.191.038.206.1604 0 0-.061.0077-.183.0231l-1.423.5521c-.948.3681-1.337.728-1.169 1.0797.322.581.124.9789-.595 1.1938-.612.0771-1.163.1464-1.652.2081-.474.1841-.887.3604-1.239.529-.229.1532-.466.2452-.711.2761-.122.0154-.015-.1224.321-.4134.107-.1378-.359.1074-1.399.7357-1.055.5058-1.758.8431-2.11 1.0117-.719.2149-1.009.3758-.872.4827.123-.0154.253.0304.391.1373.26.0916.398.1985.413.3209s-.459.3064-1.422.5521c-.826.3527-1.697.8354-2.615 1.4482-.795.5974-1.314.9115-1.559.9424-.459.3064-.979.6205-1.56.9423-.596.1995-.718.2149-.367.0463.612-.0771.803-.0391.574.1141-.122.0154-.367.0463-.734.0925l-1.652.2082c-.979.1233-2.21.7135-3.693 1.7705-1.498.9346-2.798 1.4713-3.899 1.6101.336-.291.856-.6051 1.559-.9424.811-.475 1.629-.8888 2.454-1.2415.933-.4904 1.812-.912 2.638-1.2646.81-.4751 1.391-.7969 1.743-.9655.826-.3527 1.705-.7742 2.638-1.2647.932-.4904 1.727-1.0878 2.384-1.7922.856-1.1022 1.834-1.7228 2.936-1.8615 1.086-.2612 1.973-.6215 2.661-1.0811.443-.4288.909-.674 1.399-.7357.474-.184.894-.2992 1.261-.3454.49-.0617.91-.1769 1.262-.3455s.673-.582.963-1.24c.213-.2756.626-.4519 1.238-.529.597-.1995 1.201-.3378 1.813-.4148zm9.428 91.1118s-.068.444-.205 1.331c-.152.765-.35 1.661-.594 2.686-.121 1.01-.312 1.966-.571 2.869-.137.887-.197 1.392-.182 1.514.139 1.102.231 1.836.278 2.203.046.367.023.681-.068.941.015.122-.084.321-.298.597-.091.26-.213.772-.366 1.537-.425 2.54-.463 3.726-.111 3.557.352-.168.282-1.216-.209-3.143-.2-.597-.254-1.522-.164-2.777.198-1.392.395-2.784.593-4.176.304-1.531.624-2.938.959-4.224.336-1.285.648-2.257.938-2.915zm14.133-72.8235c.412-.6735.496-.4977.253.5275-.122 1.0098-.175 1.5759-.159 1.6982-.459.3064-.665.6432-.619 1.0103-.091.2601-.06.5049.093.7342-.183.5203-.313.9717-.389 1.3542.031.2448-.068.4437-.298.5969-.855 1.1023-1.176 2.0129-.961 2.7316.322.581.322 1.0782.002 1.4916-.856 1.1023-1.207 1.7681-1.054 1.9974s.123.9789-.09 2.2488c-.366 1.0406-.549 1.561-.549 1.561s.038-.1913.114-.5738c.061-.5049.114-1.071.159-1.6982.153-.7651.206-1.3312.159-1.6983.015-.8719.251-1.9583.708-3.2591.443-1.4231.694-2.3871.755-2.892-.093-.7342-.04-1.3003.159-1.6982.198-.398.405-.7347.618-1.0103.321-.4133.581-.819.779-1.2169.199-.398.252-.964.159-1.6982zm-87.472 1.325-.23-.344zm173.273 12.8505-.023-.1835zm1.719-2.6405-.161.2066-.023-.1835zm-3.141 3.1926c-.474.1841-1.307.4756-2.5.8745 1.543-1.5619 3.37-2.8487 5.48-3.8605.169.3517-.029.7497-.595 1.1939-.703.3372-1.032.6894-.986 1.0565-.229.1532-.458.3064-.688.4596-.244.0308-.481.1228-.711.276zm4.288-2.9643c-.122.0154-.175.0843-.16.2067 0 0-.061.0077-.184.0231-.015-.1224.038-.1913.161-.2067zm-.527.2529.183-.0231zm-1.742 2.457c.474-.184.895-.2991 1.262-.3454.489-.0617 1.086-.2611 1.789-.5984-.214.2756-.366.5435-.458.8036-.107.1378-.214.2756-.321.4134-.091.2601-.244.528-.458.8036-.107.1377-.145.329-.114.5737.123.979-.144 1.8206-.801 2.525-.534.6889-1.26 1.3398-2.178 1.9526-1.788 1.5927-3.515 3.1777-5.181 4.755-1.681 1.455-3.294 2.9632-4.837 4.5252-.78.72-1.567 1.378-2.362 1.976-.688.459-1.368.98-2.041 1.562-1.926 1.486-3.791 2.964-5.594 4.434-1.682 1.455-3.355 2.971-5.021 4.549-1.468 1.179-2.996 2.366-4.586 3.561-1.467 1.179-2.996 2.366-4.586 3.561-.902.735-1.872 1.417-2.912 2.045-.933.491-1.858 1.042-2.775 1.655-1.957 1.241-3.876 2.291-5.756 3.15-1.759.843-3.724 1.525-5.896 2.048-1.07.383-2.041.568-2.913.553-1.01-.121-2.035-.365-3.076-.731-2.602-.915-5.211-2.389-7.829-4.421-.689-.535-1.317-1.077-1.883-1.627-.689-.535-1.141-1.162-1.356-1.881.535-.689.848-1.163.939-1.423.275-.781.366-1.538.273-2.272.121-2.004.563-3.925 1.326-5.761.64-1.821 1.472-3.604 2.496-5.349.274-.781.618-1.508 1.03-2.181.29-.658.312-1.469.067-2.433l.16-.206s.115-.077.344-.23c.596-.2.986-.559 1.169-1.08.061-.505.313-.972.756-1.4 1.13-1.883 2.322-3.7735 3.574-5.6716 1.115-2.0051 2.237-3.9491 3.368-5.8318.519-.8113 1.038-1.6226 1.558-2.4339.626-.9491 1.053-1.9974 1.281-3.1449-.015-.1224.145-.3291.482-.6201 1.222-1.1485 2.262-2.2739 3.117-3.3762.84-1.2246 1.887-2.2889 3.141-3.1927l-.162-1.2848c.963-.2457 1.873-.4226 2.73-.5305.964-.2457 2.011-.3156 3.143-.2096 1.01.1214 2.005.1204 2.984-.0029.963-.2457 1.927-.4914 2.89-.7372 1.836-.2312 3.297.0198 4.384.753.689.5347 1.37 1.0083 2.043 1.4207.781.2746 1.454.687 2.021 1.2371 1.347.8248 2.074 1.6654 2.182 2.522.215.7188-.105 1.6293-.961 2.7316-.535.6889-1.062 1.439-1.581 2.2503-.412.6735-.947 1.3625-1.604 2.0668-2.72 3.0775-5.647 5.9947-8.78 8.7513-3.011 2.7413-6.275 5.4524-9.79 8.1324-1.713 1.211-3.639 2.199-5.78 2.966-1.545.568-2.722 1.586-3.531 3.056-.671 1.576-1.221 3.137-1.647 4.682-.443 1.423-.808 2.961-1.097 4.614-.046.627-.083 1.315-.113 2.065-.168.643-.274 1.278-.319 1.905.061.489.184.971.368 1.445.627.045 1.17-.085 1.629-.392.459-.306.917-.612 1.376-.919 1.376-.919 2.767-1.716 4.174-2.39 1.391-.797 2.698-1.77 3.921-2.918.581-.322 1.101-.636 1.559-.943.566-.444 1.155-.705 1.766-.782.261.092.551-.069.872-.482 1.804-1.471 3.562-2.811 5.274-4.021s3.478-2.49 5.297-3.838c.581-.321 1.162-.643 1.743-.965s1.162-.644 1.743-.965c1.589-1.195 3.187-2.329 4.792-3.401 1.59-1.195 3.18-2.39 4.77-3.5847.213-.2756.435-.4899.664-.6431.352-.1687.635-.3908.849-.6663.214-.2756.374-.4823.481-.6201.229-.1532.459-.3064.688-.4596 1.315-.4143 2.424-.9891 3.326-1.7242.886-.8576 1.796-1.5316 2.728-2.022.826-.3527 1.583-.7588 2.271-1.2184.795-.5974 1.536-1.1259 2.224-1.5855.229-.1532.466-.2453.711-.2761.352-.1686.635-.3907.848-.6663 1.193-.3989 2.027-.6904 2.501-.8744.229-.1532.466-.2452.711-.2761.352-.1686.642-.3295.871-.4827zm-37.385-5.1722c-.581.3219-1.567 1.3784-2.957 3.1696-1.283 1.6534-2.605 3.4981-3.964 5.534-1.558 2.4339-3.277 5.0745-5.156 7.9217 3.118-2.879 5.953-5.536 8.506-7.9708 2.231-2.0215 4.226-3.951 5.983-5.7885 1.865-1.9752 2.888-3.223 3.071-3.7433.382-.9183.298-1.0941-.253-.5275-.565.4442-1.276.7202-2.133.8281-.489.0617-.795.1003-.917.1157-.138-.107-.268-.1527-.391-.1373-.015-.1224-.138-.107-.367.0462-.245.0309-.719.2149-1.422.5521zm32.294 7.6784-.184.0232zm0 0-.024-.1835zm15.198-5.0849c-1.497 1.929-2.811 3.8349-3.941 5.7176-1.023 1.745-2.1 3.5588-3.23 5.4416-1.329 2.2807-2.52 4.6678-3.573 7.1628-1.191 2.388-2.374 4.836-3.549 7.346-.931 2.48-1.426 4.966-1.485 7.46.185.474 1.278.274 3.281-.6s4.572-2.192 7.706-3.955c3.135-1.762 6.605-3.815 10.412-6.16 3.792-2.466 7.637-5.002 11.535-7.6062 3.898-2.6045 7.613-5.1858 11.144-7.744 3.639-2.696 6.742-5.2002 9.309-7.5127 1.682-1.455 3.371-2.8487 5.068-4.1813 1.696-1.3326 3.539-2.497 5.526-3.4933.232 1.8355-.035 3.1743-.799 4.0164-.214.2756-.481.6201-.802 1.0334-.214.2756-.489.5589-.825.8499-.337.291-.405.7347-.205 1.3311.184.474-.015.872-.596 1.1938-.352.1686-.688.4596-1.009.8729-.321.4134-.71.7733-1.169 1.0797-.214.2756-.481.62-.802 1.0334-.321.4133-.649.7655-.986 1.0565-4.784 4.4564-9.116 8.5451-12.998 12.2664-3.882 3.721-7.795 7.198-11.739 10.429-3.959 3.11-8.194 6.005-12.704 8.687-4.403 2.543-9.518 4.866-15.344 6.967-.23.154-.467.246-.711.277-.383-.077-.697-.099-.941-.068-.245.03-.498 0-.758-.091-.382-.077-.696-.099-.941-.068-1.744-.029-3.35-.448-4.82-1.258-1.484-.931-2.885-2.184-4.203-3.759-.337-.703-.712-1.215-1.125-1.536-.935-1.498-1.243-3.449-.924-5.851 1.006-3.856 2.479-7.46 4.418-10.812 1.71-3.199 3.42-6.3977 5.131-9.5966 1.572-3.3059 3.275-6.566 5.107-9.7804.29-.658.649-1.2627 1.077-1.8138s.909-1.1712 1.444-1.8601c.198-.3979.458-.8036.779-1.2169.305-.5358.549-1.0638.732-1.5841.396-1.7902 1.107-3.0606 2.131-3.8112 1.146-.766 2.5-1.3716 4.06-1.8168.581-.3218 1.108-.5748 1.582-.7588.597-.1995 1.178-.5213 1.743-.9655.795-.5974 1.621-.95 2.477-1.0579.841-.2303 1.637-.3306 2.386-.3007.628.0453 1.133.106 1.515.1821.505.0607.949.1291 1.331.2052.995-.001 1.722.3425 2.181 1.0305.567.5501 1.08 1.1692 1.539 1.8571.108.8566-.006 1.4304-.342 1.7214-.351 1.163-.709 2.2647-1.075 3.3054-.244 1.0251-.61 2.0658-1.099 3.1218-.84 1.2246-1.757 2.3346-2.75 3.33-1.009.8729-2.194 1.333-3.555 1.3803-1.714.2158-3.251-.1498-4.614-1.097zm26.364 41.989-.069-.55.183-.024zm73.661-44.3363c.369.9481.5 1.9882.394 3.1204-.106 1.1321-.709 2.2647-1.81 3.3979-1.299 1.531-2.536 3.0544-3.713 4.57-1.176 1.5156-2.475 3.0467-3.896 4.5932-1.421 1.5464-3.087 3.1238-4.998 4.7318s-4.181 3.324-6.81 5.147c-.917.613-2.247 1.402-3.99 2.367-1.621.95-2.905 1.609-3.853 1.977-1.316.415-2.646.707-3.992.876-1.239.032-2.395-.257-3.466-.868-.658-.29-1.362-.45-2.112-.48-.627-.045-1.155-.29-1.584-.733-.337-.703-.613-1.414-.828-2.133-.108-.857.09-1.752.594-2.685.152-.765.32-1.408.503-1.928-.077-.612.159-1.201.71-1.768.443-.429.695-.896.755-1.4.046-.628.038-1.186-.024-1.6755-.2-.5964-.261-1.0859-.185-1.4684s.144-.8263.205-1.3311c.168-.6427.335-1.2854.503-1.9281.275-.7804.496-1.492.663-2.1346-.03-.2448-.054-.4283-.069-.5507.107-.1378.153-.2679.137-.3902-.047-1.3615.028-2.7384.226-4.1307.197-1.3923.333-2.7768.409-4.1537l-.116-.9178c-.398-.1985-.757-.091-1.078.3223-3.989 3.859-7.404 7.8321-10.246 11.9194-1.054 1.5003-2.1 3.0617-3.139 4.6843-.931 1.4848-1.802 2.9618-2.611 4.4308-.444.429-.826.85-1.146 1.264-.199.398-.52.811-.963 1.24-1.192 1.393-2.047 2.992-2.565 4.798-.488 2.05-.975 4.101-1.463 6.151-.487 2.051-.906 4.154-1.256 6.312-.228 1.147-.395 2.287-.501 3.419-.244 1.026-.419 2.104-.525 3.236-.183.521-.312.972-.389 1.355-.076.382-.205.834-.388 1.354-.672 1.576-1.994 2.426-3.968 2.551-.627-.045-1.254-.091-1.881-.136-.628-.045-1.148-.228-1.561-.549-.26-.092-.459-.191-.597-.298s-.268-.153-.39-.137c-.979.123-1.492.001-1.538-.366-.169-.352-.284-.772-.346-1.262-.123-.979.075-1.874.594-2.685.306-.536.611-1.071.917-1.607.305-.536.419-1.11.342-1.721-.031-.245.007-.436.114-.574.092-.26.183-.521.275-.781.107-.137.306-.038.597.298.275.214.382.076.321-.413.229-.154.137-.391-.276-.711-.307-.459-.292-.834.044-1.125.214-.275.428-.551.642-.827-.198.398-.221.712-.068.941-.031-.244.015-.374.137-.39-.015-.122-.038-.306-.069-.551-.261-1.085-.354-1.82-.277-2.202.06-.505.281-1.217.663-2.135.183-.52.313-.972.389-1.354.091-.26.267-.345.527-.253.245-.031.551-.069.918-.116-.031-.244-.115-.42-.253-.527-.949-.626-1.049-1.422-.301-2.386.214-.276.298-.597.252-.964s-.031-.742.045-1.125c-.031-.245-.047-.367-.047-.367-.137-.107-.222-.283-.253-.527-.551-.428-.834-.703-.849-.826-.016-.122.198-.398.641-.826 1.758-1.838 2.735-3.95 2.931-6.337-.031-.244.053-.566.252-.964.076-.382.152-.765.228-1.147.214-.276.436-.49.665-.643.214-.2758.428-.5514.642-.827l-.161.2067-.023-.1836.184-.0231c.32-.4133.427-1.0483.319-1.9049-.031-.2447-.123-.4817-.276-.711-.153-.2294-.238-.4052-.253-.5276.335-1.2853.617-2.5018.845-3.6493.213-1.27.556-2.4941 1.029-3.6725.381-1.9126.815-3.8941 1.303-5.9445.487-2.0504.982-4.0396 1.485-5.9676.046-.6272.099-1.1933.159-1.6982.045-.6273.091-1.2545.136-1.8818.045-.6272.152-1.2622.319-1.9049.168-.6426.336-1.2853.503-1.928.213-1.2699.434-2.4786.662-3.6262.229-1.1476.38-2.4098.455-3.7867.29-.6581.458-1.3007.503-1.928.168-.6426.336-1.2853.503-1.928.305-1.5301.548-3.0524.73-4.5671.289-1.6525.578-3.3049.867-4.9573.396-1.7903.785-3.6417 1.165-5.5543.381-1.9126.578-3.8021.591-5.6684.122-1.0098-.093-1.7286-.644-2.1564-.398-.1984-.659-.7872-.782-1.7661.474-.184.825-.3527 1.055-.5059.351-.1686.764-.3449 1.238-.529.811-.475 1.537-.6287 2.18-.461l.734-.0925c.902-.7352 1.796-1.0344 2.684-.8976 1.01.1214 1.905.3194 2.685.594 1.423.4422 2.021 1.2371 1.792 2.3847-.243 1.0252-.479 2.1116-.708 3.2591-.106 1.1322-.334 2.2797-.685 3.4427-.091.2601-.122.5126-.091.7573.016.1224-.084.3214-.298.5969-.396 1.7903-.73 3.5728-1.004 5.3476-.167 1.637-.517 3.2972-1.051 4.9805-.67 2.5707-1.31 5.3861-1.919 8.4462-.639 3.8098-1.453 7.7039-2.444 11.6823-.35 1.163-.693 2.3872-1.029 3.6725-.228 1.1476-.51 2.364-.845 3.6494-.122 1.0097-.304 2.0272-.548 3.0524-.121 1.0098-.304 2.0273-.548 3.0525-.091.2601-.121.5126-.091.7573.016.1224-.022.3136-.114.5738.016.1223.031.2447.046.3671.123-.0154.192.038.207.1604.229-.1532.749-.4673 1.56-.9424.794-.5973 1.238-1.0261 1.329-1.2863.473-1.1784 1.207-2.2652 2.2-3.2606.993-.9953 1.987-1.9906 2.98-2.986.856-1.1022 1.849-2.0976 2.98-2.986 1.238-1.0261 2.277-2.1515 3.118-3.3762.214-.2756.565-.4442 1.055-.5059.703-.3372 1.406-.6744 2.11-1.0117.688-.4596 1.445-.8657 2.27-1.2184.933-.4904 1.942-.8662 3.028-1.1273 1.193-.399 2.44-.3696 3.741.0881 1.025.2437 1.637.6638 1.837 1.2602.077.6119.146 1.1625.208 1.652.061.4895.062.9866.001 1.4915-.411 1.6679-.7 3.3203-.867 4.9574-.167 1.637-.394 3.2817-.684 4.9342-.411 1.6678-.761 3.328-1.05 4.9804-.305 1.5301-.601 3.1214-.89 4.7738-.091 1.2545-.243 2.5168-.456 3.7867-.106 1.1321-.257 2.3944-.455 3.7866.398.199.788.336 1.171.412.489-.062.918-.116 1.285-.162 1.239-.032 2.714-.653 4.427-1.863 1.834-1.2256 3.699-2.7037 5.594-4.4342 2.018-1.7459 4.028-3.553 6.03-5.4213 1.987-1.9907 3.752-3.767 5.295-5.3289.214-.2755.436-.4899.665-.6431.352-.1686.635-.3907.849-.6663.336-.291.741-.5285 1.215-.7126.474-.184 1.056-.0086 1.744.5261zm-68.137 37.8603c-.031-.245-.115-.421-.253-.528-.214.276-.321.414-.321.414-.107.137-.129.451-.068.941zm1.165-5.554-.207-.161.023.184c.016.122.085.176.207.16zm4.662-19.2343-.023-.1836-.16.2067zm1.486-5.9676-.023-.1836zm-2.768 9.1125c.016.1224.092.237.23.344l.023.1835c-.122.0155-.191-.038-.207-.1604-.244.0309-.306.0386-.183.0232.107-.1378.153-.2679.137-.3903z" fill="#ffda1a"/></g></svg>