<svg width="858" height="283" viewBox="0 0 858 283" fill="none" xmlns="http://www.w3.org/2000/svg">
<g filter="url(#filter0_d_1166_1493)">
<path d="M36.1048 194.599C33.7037 195.274 31.9068 195.811 30.7139 196.21C29.5211 196.609 28.5345 196.671 27.754 196.397C26.9735 196.122 26.1545 195.542 25.297 194.655C24.5464 193.631 23.367 192.164 21.7589 190.253C21.3147 189.687 20.9625 189.359 20.7024 189.267C20.4268 189.053 20.1589 188.901 19.8988 188.809C19.761 188.702 19.562 188.603 19.3019 188.511C19.0263 188.298 18.6052 187.916 18.0387 187.365C19.1544 186.355 20.2707 185.841 21.3874 185.825C22.4887 185.686 24.1633 185.164 26.4112 184.259L40.7454 176.673C42.1367 175.876 42.908 174.598 43.0593 172.838C43.3329 171.064 43.6908 169.465 44.1331 168.042C45.8403 161.86 47.563 155.8 49.3012 149.863C51.0239 143.803 52.6165 137.698 54.079 131.547C54.2014 131.531 54.3695 131.386 54.5834 131.11L54.7439 130.903C54.7439 130.903 54.331 131.08 53.5053 131.432C52.7865 131.647 52.0677 131.862 51.3489 132.077C50.7371 132.154 50.3623 132.139 50.2245 132.032C50.0713 131.803 50.568 131.305 51.7145 130.539C52.1732 130.233 52.112 130.241 51.531 130.562C51.0569 130.746 50.3536 131.084 49.4209 131.574C48.4882 132.065 47.5555 132.555 46.6228 133.045C45.7971 133.398 45.3842 133.574 45.3842 133.574C44.7724 133.651 44.0078 133.996 43.0906 134.609C42.2803 135.084 41.4165 135.628 40.4992 136.241C39.7043 136.838 38.9629 137.367 38.2749 137.827C37.587 138.286 37.1129 138.47 36.8528 138.379C36.8374 138.256 36.478 138.364 35.7746 138.701C35.1782 138.9 34.536 139.23 33.848 139.69C33.1447 140.027 32.5637 140.349 32.105 140.655C31.6464 140.961 31.6083 141.153 31.9909 141.229C32.1132 141.213 32.2433 141.259 32.3811 141.366C31.5862 141.963 30.8294 142.37 30.1106 142.585L26.8529 143.368C26.5012 143.537 25.859 143.866 24.9264 144.356C24.1006 144.709 23.2214 145.131 22.2887 145.621C21.3406 145.989 20.5149 146.342 19.8115 146.679C19.2151 146.879 18.9015 146.856 18.8706 146.611C19.0845 146.336 18.702 146.26 17.7231 146.383C16.8665 146.491 16.3158 146.56 16.0711 146.591C15.704 146.637 16.1015 146.339 17.2635 145.695C18.4255 145.051 19.771 144.384 21.3001 143.695C22.8138 142.882 24.1594 142.216 25.3368 141.694C26.4988 141.051 26.8962 140.752 26.5291 140.798C25.9481 141.12 25.0612 141.48 23.8684 141.879C22.6601 142.156 21.3984 142.501 20.0832 142.916C18.7526 143.208 17.4219 143.5 16.0913 143.791C14.8831 144.068 13.9118 144.253 13.1776 144.345C12.6882 144.407 12.2522 144.4 11.8696 144.323C11.6095 144.232 11.6475 144.041 11.9838 143.75C13.1458 143.106 13.6579 142.731 13.5201 142.624C13.5047 142.501 13.1988 142.54 12.6024 142.739C11.9905 142.816 11.3329 143.024 10.6296 143.361C9.91079 143.576 9.49021 143.691 9.36784 143.706C8.5103 142.82 7.77512 141.918 7.1623 141.001C6.4117 139.977 5.67652 139.075 4.95676 138.295C7.44939 137.36 10.1482 136.087 13.0532 134.478C16.0806 132.854 19.2226 131.152 22.4793 129.375C25.7206 127.475 28.9772 125.697 32.2494 124.041C35.6284 122.248 39.046 120.761 42.5022 119.58L61.1968 112.563C62.1141 111.95 62.4581 111.72 62.2288 111.873C62.1064 111.889 62.4581 111.72 63.2838 111.367L103.635 98.6382C106.999 97.717 110.57 96.9563 114.348 96.356C118.233 95.6179 121.751 94.926 124.902 94.2804C126.355 93.973 128.481 93.5808 131.28 93.1039C134.064 92.5045 137.046 92.0044 140.228 91.6035C143.516 91.0649 146.828 90.7098 150.163 90.5382C153.482 90.2443 156.526 90.2337 159.295 90.5063C162.064 90.779 164.306 91.3045 166.02 92.083C167.734 92.8615 168.569 94.0616 168.525 95.6832C168.098 97.2287 167.105 98.224 165.545 98.6692C164.107 99.099 162.348 99.4449 160.268 99.707C159.289 99.8303 158.257 100.023 157.171 100.284C156.192 100.407 155.091 100.546 153.867 100.7C153.041 101.053 152.208 101.344 151.367 101.574C150.525 101.805 149.248 102.028 147.535 102.244C145.455 102.506 144.109 102.675 143.497 102.752C143.008 102.814 142.832 102.898 142.97 103.005C143.092 102.99 143.344 103.02 143.727 103.096C144.232 103.157 144.492 103.249 144.507 103.371C141.831 103.833 139.399 104.263 137.212 104.663C135.269 105.032 133.388 105.394 131.568 105.747C129.732 105.978 128.516 106.194 127.92 106.393C126.36 106.838 125.106 107.245 124.158 107.613C123.332 107.966 122.743 108.226 122.392 108.395C122.162 108.548 122.223 108.541 122.575 108.372C123.049 108.188 123.86 107.713 125.006 106.947C124.991 106.825 124.501 106.886 123.538 107.132C122.681 107.24 121.649 107.432 120.44 107.709C119.355 107.97 118.33 108.223 117.366 108.469C116.403 108.715 115.921 108.837 115.921 108.837C115.142 109.557 113.857 110.216 112.068 110.815C110.401 111.398 109.055 111.567 108.03 111.323C107.632 111.125 106.576 111.134 104.863 111.349C103.15 111.565 101.575 111.888 100.137 112.318C98.9443 112.717 98.1643 112.939 97.7972 112.986C97.1854 113.063 96.7725 113.239 96.5586 113.515C95.9169 114.341 95.0989 114.755 94.1046 114.756C93.2172 114.619 92.1693 114.689 90.9611 114.966C87.1532 116.316 83.529 117.643 80.0882 118.946C76.6475 120.25 73.5816 121.569 70.8905 122.902C70.9088 126.008 70.377 129.68 69.295 133.918C68.2131 138.157 67.0164 142.472 65.7051 146.864C64.3784 151.133 63.1052 155.333 61.8854 159.465C60.788 163.581 60.103 167.024 59.8303 169.793C63.6237 169.315 66.6829 168.93 69.0079 168.637C71.3174 168.221 73.4511 167.89 75.409 167.644C77.4893 167.382 79.7073 167.226 82.0631 167.178C84.5259 166.992 87.7537 166.959 91.7465 167.077C93.873 167.182 95.5178 167.41 96.6807 167.761C97.9661 168.096 98.8622 169.288 99.369 171.338C98.7427 172.287 98.3304 172.96 98.1319 173.358C97.918 173.634 97.6964 173.848 97.4671 174.001C97.2377 174.154 96.8783 174.262 96.3889 174.324C96.0218 174.37 95.303 174.585 94.2325 174.968C90.8833 176.012 88.4899 176.748 87.0524 177.178C85.5994 177.486 84.3299 177.77 83.2441 178.031C82.1427 178.17 80.8044 178.4 79.2291 178.723C77.6383 178.924 75.1452 179.362 71.7497 180.039C67.6201 180.807 64.4159 181.522 62.1372 182.182C59.9654 182.704 58.1992 183.486 56.8388 184.528C55.5852 185.432 54.6227 186.672 53.9511 188.248C53.2796 189.824 52.5016 192.036 51.6171 194.882C50.1844 200.283 48.6602 205.945 47.0444 211.867C45.5356 217.651 44.0957 223.489 42.7247 229.38C42.7401 229.502 42.6866 229.571 42.5643 229.586L42.1972 229.632C41.1884 230.505 40.5467 231.332 40.2721 232.113C40.1198 232.878 40.0823 233.566 40.1594 234.178C40.2365 234.79 40.3135 235.402 40.3906 236.013C40.5901 236.61 40.5371 237.176 40.2317 237.712C40.0486 238.232 39.8203 239.379 39.5466 241.154C39.273 242.929 39.1902 244.245 39.2981 245.101C39.1305 245.744 38.9628 246.387 38.7952 247.029C38.7653 247.779 38.6666 248.475 38.4989 249.118C38.0278 252.285 37.7325 255.368 37.6131 258.366C37.616 261.349 37.4503 263.981 37.116 266.26C36.2883 264.624 36.0802 262.972 36.4916 261.305C37.0408 259.744 37.1612 257.739 36.8528 255.292C36.6986 254.068 36.5989 253.77 36.5536 254.397C36.5084 255.025 36.4404 255.966 36.3499 257.22C36.3971 258.582 36.322 259.958 36.1245 261.351C36.0648 262.85 35.9357 263.799 35.7372 264.197C35.5541 264.717 35.3484 265.551 35.1201 266.698C35.0295 267.953 34.8546 269.032 34.5955 269.934C34.4741 270.944 34.2987 271.526 34.0694 271.679C33.8401 271.832 33.6329 271.174 33.4479 269.706C33.2783 268.36 33.2778 267.863 33.4464 268.214C33.7374 268.551 33.4783 269.454 32.6689 270.923C32.455 271.198 32.256 271.099 32.072 270.625C32.0258 270.258 31.9641 269.769 31.887 269.157C31.8099 268.545 31.7328 267.933 31.6557 267.321C31.5786 266.709 31.5247 266.281 31.4938 266.036L30.5456 258.511C30.7759 259.352 30.5553 260.561 29.8837 262.137C29.3346 263.698 29.2522 265.511 29.6367 267.576C29.6829 267.943 29.6294 268.012 29.4762 267.782C29.4454 267.538 29.3914 267.109 29.3144 266.498C29.2527 266.008 29.1144 265.404 28.8995 264.685C28.8224 264.073 28.7608 263.584 28.7145 263.217C28.5912 262.238 28.3835 261.083 28.0916 259.752C27.815 258.544 27.5308 257.275 27.2388 255.944C26.9468 254.613 26.7238 253.336 26.5696 252.113C26.4308 251.011 26.4375 250.078 26.5898 249.313C26.742 248.548 26.8942 247.783 27.0465 247.018C27.2141 246.375 27.2594 245.748 27.1823 245.136C27.1977 245.259 27.0758 245.771 26.8166 246.674C26.6798 247.561 26.4664 248.334 26.1764 248.992C25.9018 249.773 25.7033 250.171 25.581 250.186C25.4586 250.201 25.4885 249.452 25.6706 247.937C25.9442 246.162 26.0805 244.778 26.0795 243.783C26.0785 242.789 26.0853 241.856 26.0997 240.984C26.2365 240.097 26.3656 239.148 26.487 238.138C26.7308 237.113 27.1118 235.698 27.6302 233.892C27.7371 233.754 27.8132 233.372 27.8585 232.744C28.0262 232.102 28.1326 231.467 28.1779 230.839C28.3301 230.074 28.3831 229.508 28.3369 229.141C28.2752 228.652 28.1297 228.484 27.9004 228.637C28.0526 227.872 28.266 227.099 28.5406 226.319C28.7998 225.416 29.0435 224.391 29.2719 223.243C29.7575 219.204 30.4656 215.945 31.3963 213.466C32.3271 210.986 32.8377 209.12 32.9283 207.865C33.0959 207.222 33.3016 206.389 33.5454 205.363C33.7891 204.338 34.0329 203.313 34.2766 202.288C34.4905 202.012 34.5898 201.813 34.5744 201.691L36.1048 194.599ZM58.102 185.674C60.1658 184.295 61.7484 183.536 62.8497 183.397C64.0579 183.121 65.6868 182.729 67.7362 182.222C68.6997 181.977 69.8468 181.708 71.1774 181.416C72.6304 181.109 73.6854 180.603 74.3426 179.898C75.5508 179.622 76.5755 179.368 77.4167 179.138C78.1355 178.923 78.8085 178.838 79.4357 178.884C80.0476 178.807 80.2388 178.845 80.0095 178.998C79.4439 179.442 79.23 179.718 79.3678 179.825C79.4902 179.809 79.7884 179.709 80.2624 179.525C80.7365 179.341 81.2717 179.15 81.8681 178.95C82.5715 178.613 83.2214 178.345 83.8178 178.145C85.9896 177.623 87.9475 177.376 89.6915 177.405C91.4354 177.434 93.3321 177.195 95.3815 176.688C96.1157 176.596 96.1769 176.588 95.5651 176.665C94.9533 176.742 94.1044 176.911 93.0185 177.172C92.055 177.418 91.0303 177.671 89.9444 177.933C88.8431 178.071 88.1701 178.156 87.9253 178.187C87.6806 178.218 86.9006 178.44 85.5854 178.855C84.3926 179.254 83.0774 179.668 81.6398 180.098C80.1868 180.405 78.9174 180.689 77.8315 180.95C76.868 181.196 76.4932 181.181 76.7071 180.906C77.1503 180.477 77.0125 180.37 76.2937 180.585C75.6819 180.662 74.9019 180.884 73.9538 181.253C72.9903 181.498 72.0345 181.805 71.0864 182.173C70.2606 182.526 69.7866 182.71 69.6642 182.725C67.7063 182.972 66.2533 183.279 65.3052 183.648C64.3417 183.893 63.0954 184.361 61.5663 185.051C61.4594 185.189 60.9164 185.319 59.9375 185.443C58.9431 185.444 58.3313 185.521 58.102 185.674ZM112.134 108.382C111.89 108.413 111.53 108.52 111.056 108.705C110.582 108.889 110.108 109.073 109.634 109.257L107.845 109.855C108.824 109.732 109.986 109.585 111.332 109.416C112.785 109.108 113.795 108.732 114.36 108.288C115.384 107.538 116.684 107.001 118.26 106.678C119.957 106.34 121.418 106.094 122.642 105.94C123.376 105.847 123.98 105.709 124.454 105.525C125.035 105.203 125.509 105.019 125.876 104.973C125.999 104.957 126.006 105.018 125.899 105.156C125.915 105.279 125.808 105.416 125.578 105.57C125.471 105.707 125.365 105.845 125.258 105.983C125.258 105.983 125.372 105.906 125.602 105.753C126.167 105.309 126.565 105.01 126.794 104.857C127.146 104.688 127.383 104.596 127.505 104.581C127.75 104.55 127.994 104.519 128.239 104.488C128.606 104.442 129.096 104.38 129.708 104.303C130.549 104.073 131.818 103.789 133.516 103.451C135.198 102.99 136.223 102.737 136.59 102.69C135.611 102.814 134.196 102.93 132.345 103.039C130.617 103.132 129.34 103.355 128.514 103.708C126.602 104.322 125.042 104.767 123.834 105.043C122.626 105.32 121.043 105.582 119.085 105.828C118.473 105.905 117.96 105.784 117.547 105.463C117.241 105.004 117.004 105.096 116.836 105.739C116.775 106.244 116.095 106.764 114.795 107.301C113.618 107.822 112.792 108.175 112.318 108.359L112.134 108.382ZM37.9064 136.381C37.784 136.397 37.7382 136.527 37.7691 136.771C37.9223 137.001 37.9912 137.054 37.9757 136.932C38.3274 136.763 38.6025 136.48 38.801 136.082C39.1218 135.669 39.4046 135.447 39.6494 135.416C40.4905 135.185 41.0792 134.925 41.4155 134.634C41.8741 134.327 42.2793 134.09 42.631 133.921C43.0896 133.615 43.5559 133.37 44.03 133.186C44.611 132.864 45.391 132.641 46.3699 132.518C46.6146 132.487 47.425 132.012 48.8009 131.093C50.1613 130.051 50.8873 129.4 50.9789 129.14C50.8565 129.156 50.1686 129.615 48.915 130.519C47.6461 131.3 46.3998 131.768 45.1761 131.922C43.8455 132.214 42.7981 132.781 42.0341 133.624C41.2546 134.343 40.5512 134.681 39.924 134.635C38.945 134.759 38.5399 134.996 38.7085 135.348C38.8771 135.7 38.6097 136.044 37.9064 136.381ZM106.581 142.832C106.81 142.679 107.376 142.732 108.279 142.991C109.289 143.112 109.916 143.158 110.161 143.127C112.103 142.758 114.115 142.939 116.196 143.672C116.854 143.962 117.023 144.313 116.702 144.727C116.488 145.002 116.313 145.584 116.176 146.471C116.039 147.359 115.994 147.986 116.04 148.353C116.086 148.72 116.125 149.026 116.156 149.271C116.187 149.515 116.095 149.776 115.881 150.051C115.79 150.311 115.545 150.839 115.148 151.635C114.614 152.324 114.171 153.25 113.82 154.413C113.454 155.454 113.042 156.624 112.585 157.925C112.249 159.21 111.845 160.442 111.372 161.621C111.021 162.784 110.64 163.702 110.227 164.375C110.488 164.467 111.137 164.199 112.177 163.57C113.201 162.82 113.775 162.437 113.897 162.421C114.478 162.1 114.998 161.785 115.456 161.479C116.022 161.035 116.603 160.713 117.199 160.514C118.148 160.146 119.165 159.831 120.25 159.57C121.443 159.171 122.598 158.963 123.715 158.947C124.74 159.191 125.398 159.481 125.689 159.817L126.929 160.779C127.373 161.345 127.68 161.804 127.848 162.155C128.124 162.369 128.285 162.66 128.331 163.027C128.484 163.256 128.531 163.623 128.47 164.128C128.532 164.618 128.44 165.375 128.197 166.4C127.969 168.542 127.734 170.623 127.491 172.642C127.249 174.662 126.952 176.75 126.603 178.908C126.421 180.422 126.262 182.12 126.126 184.002C125.99 185.884 125.762 187.529 125.442 188.936C125.153 190.589 124.88 192.364 124.621 194.261C124.486 196.143 124.281 197.971 124.007 199.746C124.635 199.791 124.948 199.814 124.948 199.814C125.055 199.676 125.208 199.408 125.406 199.01C126.415 198.137 127.11 197.242 127.492 196.323C128.011 195.512 128.538 194.762 129.073 194.073C129.608 193.384 130.142 192.695 130.677 192.006C131.655 190.888 132.58 189.84 133.451 188.86C134.306 187.757 135.101 186.663 135.834 185.576C137.026 184.183 138.164 182.858 139.249 181.603C140.318 180.225 141.457 178.901 142.664 177.63C143.642 176.512 144.628 175.456 145.621 174.46C146.737 173.449 147.784 172.385 148.762 171.268C149.296 170.579 149.732 170.089 150.068 169.798C150.282 169.522 150.504 169.308 150.733 169.155C151.069 168.864 151.344 168.58 151.558 168.305C153.316 166.467 155.242 164.981 157.337 163.847C158.132 164.244 158.385 164.772 158.095 165.43C157.729 166.471 157.417 167.442 157.157 168.345C156.898 169.248 156.586 170.22 156.219 171.26C156.006 171.536 155.799 171.873 155.601 172.271C155.402 172.668 155.135 173.013 154.799 173.304C152.415 176.09 150.108 178.992 147.877 182.007C145.769 185.008 143.546 188.085 141.209 191.239C139.589 193.183 138.031 195.12 136.534 197.049C135.159 198.962 133.73 200.945 132.248 202.996C130.858 204.787 129.016 206.449 126.723 207.981C124.98 208.946 122.9 209.209 120.482 208.767C120.222 208.676 119.962 208.584 119.702 208.493C119.564 208.386 119.304 208.294 118.921 208.218C117.896 207.974 116.97 207.532 116.144 206.89C115.424 206.11 114.995 205.17 114.856 204.069C114.456 201.882 114.423 199.648 114.757 197.368C115.123 195.333 115.442 193.429 115.716 191.654C115.974 189.757 116.171 187.867 116.307 185.985C116.474 185.343 116.642 184.7 116.81 184.057C116.977 183.415 116.892 182.742 116.555 182.038C116.295 181.947 116.325 181.694 116.646 181.281C116.768 180.271 116.881 179.2 116.987 178.068C117.216 176.92 117.39 175.842 117.512 174.832C117.633 173.822 117.701 172.881 117.716 172.009C117.837 171 118.02 169.982 118.263 168.957C117.438 169.31 117.025 169.486 117.025 169.486C114.809 171.63 112.347 173.307 109.641 174.519C107.882 175.362 106.07 175.776 104.204 175.763C103.209 175.764 102.33 175.688 101.565 175.536C100.784 175.261 99.9959 174.926 99.2 174.529C99.0468 174.299 98.7101 174.093 98.1898 173.91C97.287 173.651 96.6669 173.17 96.3297 172.466C95.8547 171.656 95.4331 170.777 95.065 169.829C94.9879 169.217 94.9952 168.781 95.0867 168.521C95.422 167.235 95.6961 165.958 95.909 164.688C96.1219 163.418 96.4649 162.194 96.938 161.015C97.4265 159.959 97.8615 158.972 98.2431 158.054C98.4868 157.029 98.8606 156.049 99.3646 155.116C99.4407 154.733 99.5857 154.404 99.7996 154.129C99.9981 153.731 100.197 153.333 100.395 152.935C100.807 152.261 101.105 151.664 101.288 151.144C101.456 150.501 101.746 149.843 102.158 149.17C103.09 147.685 103.655 146.744 103.854 146.346C104.159 145.81 104.365 145.473 104.472 145.335C104.686 145.06 104.9 144.784 105.114 144.509C105.328 144.233 105.817 143.674 106.581 142.832ZM145.644 181.916C145.812 181.273 145.987 180.692 146.17 180.171C146.353 179.651 146.529 179.07 146.696 178.427C148.039 175.274 149.383 172.122 150.726 168.969C152.053 165.694 153.519 162.526 155.122 159.465C155.321 159.067 155.573 158.6 155.878 158.064C156.183 157.529 156.175 156.97 155.853 156.389C155.823 156.144 155.968 155.815 156.288 155.402C156.884 154.208 157.648 153.366 158.581 152.876C159.62 152.247 160.744 151.795 161.952 151.518C162.304 151.35 162.664 151.242 163.031 151.196C163.52 151.134 163.933 150.958 164.269 150.667C165.171 149.932 166.073 149.694 166.976 149.953C168.001 150.197 168.981 150.571 169.915 151.075C171.093 151.548 171.476 152.618 171.065 154.286C170.713 154.455 170.369 154.685 170.033 154.975C169.681 155.144 169.276 155.382 168.818 155.688C167.778 156.316 166.999 157.036 166.479 157.847C165.425 159.348 164.44 160.901 163.524 162.508C162.714 163.978 161.913 165.508 161.119 167.1C160.539 168.416 159.959 169.732 159.379 171.049C158.783 172.242 158.119 173.383 157.386 174.47C156.866 175.281 156.416 176.146 156.034 177.064C155.775 177.967 155.516 178.87 155.257 179.772C155.532 179.986 155.724 180.024 155.831 179.887C155.938 179.749 155.983 179.619 155.968 179.496C157.098 177.614 158.236 175.792 159.382 174.032C160.634 172.134 161.826 170.243 162.956 168.36C163.17 168.085 163.376 167.748 163.574 167.35C163.895 166.937 164.163 166.592 164.376 166.317C165.599 165.168 166.6 163.737 167.378 162.023C167.592 161.747 167.691 161.548 167.676 161.426C167.783 161.288 167.951 161.143 168.18 160.989C168.746 160.545 168.99 160.017 168.913 159.405C168.882 159.161 168.928 159.03 169.05 159.015C169.157 158.877 169.257 158.678 169.348 158.418C169.562 158.143 169.768 157.806 169.967 157.408C170.288 156.995 170.555 156.65 170.769 156.375C171.304 155.686 171.785 155.066 172.213 154.514C172.64 153.963 173.06 153.351 173.473 152.677C173.778 152.142 174.153 151.659 174.596 151.231C174.703 151.093 174.817 151.016 174.94 151.001C175.062 150.985 175.238 150.901 175.467 150.748C175.712 150.717 175.903 150.755 176.041 150.862C176.179 150.969 176.301 150.954 176.408 150.816C177.188 150.096 177.96 149.812 178.725 149.965C179.49 150.117 180.255 150.269 181.02 150.421C182.688 150.833 183.638 151.956 183.869 153.792C184.068 154.388 184.153 155.061 184.123 155.811C184.2 156.423 184.216 157.042 184.171 157.669C183.991 161.173 183.742 164.623 183.424 168.019C183.228 171.4 182.972 174.789 182.654 178.185C182.318 179.471 182.335 180.587 182.703 181.535C183.284 181.214 183.811 180.961 184.285 180.777C184.866 180.455 185.371 180.018 185.799 179.467C190.001 175.333 193.96 171.726 197.674 168.648C201.389 165.569 205.126 162.177 208.885 158.471C210.46 157.154 212.088 155.768 213.769 154.313C215.557 152.72 217.292 151.196 218.973 149.741C220.655 148.287 222.221 146.908 223.673 145.606C225.248 144.289 226.6 143.187 227.732 142.298C228.282 141.732 228.916 141.341 229.635 141.126C229.757 141.111 230.025 141.263 230.439 141.584L230.072 141.63L230.118 141.998C230.332 141.722 230.439 141.584 230.439 141.584C230.454 141.707 230.538 141.882 230.692 142.112C230.829 142.219 230.906 142.333 230.921 142.456C230.738 142.976 230.494 143.504 230.189 144.04C229.99 144.438 229.807 144.958 229.639 145.601C228.861 147.315 227.448 149.42 225.401 151.915C223.46 154.273 221.176 156.86 218.547 159.678C216.026 162.357 213.267 165.129 210.271 167.993C207.398 170.841 204.579 173.62 201.812 176.331C199.031 178.919 196.417 181.361 193.972 183.658C191.633 185.818 189.738 187.548 188.286 188.85C187.17 189.861 185.664 190.734 183.768 191.47C183.416 191.639 183.057 191.746 182.69 191.793C182.307 191.716 181.994 191.694 181.749 191.725C178.215 191.3 175.368 189.421 173.207 186.088C172.794 185.767 172.671 185.286 172.839 184.643C173.144 184.107 173.266 183.595 173.204 183.105C173.127 182.493 173.173 181.866 173.34 181.223L173.405 177.299C173.45 175.678 173.494 174.056 173.538 172.434C173.705 170.797 173.81 169.168 173.855 167.547L173.762 166.812C173.181 167.134 172.585 167.831 171.974 168.902C171.134 170.127 170.355 171.344 169.637 172.553C168.904 173.64 168.125 174.857 167.3 176.204C166.583 177.413 165.865 178.622 165.147 179.832C164.414 180.918 163.818 182.112 163.361 183.413C162.597 185.249 161.697 186.979 160.658 188.602C159.742 190.209 158.772 191.885 157.749 193.63C157.138 194.701 156.458 195.719 155.709 196.684C154.961 197.648 154.005 198.452 152.843 199.096C150.519 200.383 148.294 200.477 146.166 199.378C145.768 199.179 145.447 199.096 145.202 199.126C144.82 199.05 144.498 198.966 144.238 198.875C143.809 198.432 143.45 198.042 143.159 197.706C142.868 197.369 142.584 197.094 142.309 196.88C141.604 196.223 141.328 195.512 141.481 194.747C141.403 194.135 141.411 193.699 141.502 193.439C142.021 191.634 142.554 189.95 143.104 188.389C143.637 186.706 144.24 185.076 144.912 183.5C145.018 183.362 145.133 183.286 145.255 183.27C145.255 183.27 145.309 183.201 145.416 183.063L145.232 183.087C145.416 183.561 145.47 183.989 145.394 184.371C145.18 184.647 145.035 184.976 144.959 185.359C144.105 187.455 143.372 189.536 142.762 191.602C142.472 192.26 142.488 192.88 142.81 193.461C143.558 191.502 144.252 189.612 144.893 187.791C145.518 185.848 146.143 183.904 146.769 181.961C146.936 181.318 147.112 180.737 147.295 180.216C147.478 179.696 147.653 179.114 147.821 178.472C148.738 177.859 149.12 176.941 148.965 175.717C149.546 175.395 149.89 175.165 149.997 175.028C149.967 174.783 149.851 174.362 149.652 173.766C150.034 173.842 150.271 173.75 150.363 173.49C150.439 173.107 150.592 172.839 150.821 172.686C150.913 172.426 150.943 172.174 150.912 171.929C150.866 171.562 150.889 171.248 150.98 170.988C151.561 170.666 151.805 170.138 151.713 169.404C151.927 169.128 152.148 168.914 152.378 168.761C152.592 168.485 152.805 168.21 153.019 167.934C152.989 167.689 152.95 167.383 152.904 167.016C152.857 166.649 152.697 166.359 152.421 166.145C153.095 166.557 153.492 166.259 153.613 165.249C153.399 165.524 153.239 165.731 153.132 165.869C153.01 165.884 152.842 166.03 152.628 166.305C152.659 166.55 152.697 166.856 152.743 167.223C152.652 167.483 152.744 167.72 153.019 167.934C152.163 168.042 151.727 168.532 151.713 169.404C151.132 169.726 150.888 170.254 150.98 170.988C150.644 171.279 150.56 171.6 150.729 171.952C150.882 172.181 150.913 172.426 150.821 172.686C150.439 172.61 150.194 172.641 150.087 172.779C149.98 172.917 149.843 173.307 149.675 173.949C149.109 174.394 148.873 174.983 148.965 175.717C148.645 176.13 148.385 176.536 148.186 176.934C147.866 177.347 147.744 177.86 147.821 178.472L146.928 180.263C146.607 180.676 146.248 181.28 145.851 182.076L145.644 181.916ZM156.705 158.706C156.598 158.844 156.499 159.043 156.407 159.303C156.422 159.425 156.331 159.685 156.132 160.083L156.935 159.05C156.919 158.928 156.843 158.813 156.705 158.706ZM154.988 162.838C154.865 162.853 154.804 162.861 154.804 162.861C154.789 162.739 154.72 162.685 154.598 162.701C154.491 162.839 154.445 162.969 154.46 163.091C154.46 163.091 154.407 163.16 154.3 163.298C154.315 163.42 154.392 163.535 154.53 163.642L154.713 163.618C154.682 163.374 154.774 163.114 154.988 162.838ZM155.537 161.277L155.56 161.461C155.667 161.323 155.721 161.254 155.721 161.254L155.697 161.07C155.575 161.086 155.522 161.155 155.537 161.277ZM264.857 135.569C266.694 136.332 267.666 137.639 267.775 139.49C267.868 140.225 267.869 141.219 267.778 142.473C267.703 143.85 267.612 145.105 267.506 146.237C267.4 147.369 267.302 148.562 267.212 149.817C267.09 150.827 266.961 151.775 266.824 152.663C266.81 153.535 266.734 154.414 266.597 155.302C266.248 157.459 265.845 159.685 265.388 161.98C264.916 164.153 264.505 166.318 264.155 168.476C263.728 170.021 263.493 171.605 263.448 173.226C263.404 174.848 263.368 176.531 263.339 178.275C263.126 179.545 263.295 180.891 263.847 182.313C264.047 182.909 264.063 183.529 263.895 184.171C263.712 184.692 263.537 185.273 263.369 185.916C261.718 186.621 260.05 186.21 258.366 184.682C255.441 182.191 253.763 179.233 253.331 175.806C253.101 174.965 252.993 174.109 253.008 173.237C253.144 172.349 253.22 171.469 253.235 170.597C253.356 169.588 253.416 168.586 253.415 167.591C253.521 166.459 253.757 165.373 254.123 164.332C254.215 164.072 254.192 163.888 254.054 163.781C254.023 163.537 253.977 163.17 253.915 162.68C253.701 162.956 253.472 163.109 253.227 163.14C253.105 163.155 252.99 163.232 252.883 163.37C251.952 164.854 250.951 166.286 249.881 167.664C248.934 169.026 247.865 170.404 246.673 171.797C245.527 173.557 244.305 175.203 243.006 176.734C241.708 178.265 240.416 179.858 239.133 181.511C237.85 183.164 236.405 184.527 234.8 185.6C233.21 186.795 231.413 187.332 229.409 187.211C227.574 187.443 225.99 187.207 224.659 186.505C223.327 185.802 222.026 184.847 220.755 183.64C219.193 182.097 218.182 180.484 217.721 178.801C217.138 177.134 216.853 175.368 216.867 173.501C216.973 172.369 217.14 171.229 217.368 170.082C217.459 168.827 217.626 167.688 217.87 166.662C218.25 164.75 218.639 162.898 219.035 161.108C219.415 159.196 219.803 157.344 220.199 155.554C220.642 154.131 221.084 152.708 221.526 151.284C221.968 149.861 222.411 148.438 222.853 147.015C223.097 145.99 223.257 145.286 223.333 144.904C223.286 144.536 223.14 143.871 222.895 142.908C223.292 142.112 224.072 141.889 225.235 142.24C226.489 142.33 227.323 142.039 227.735 141.365C228.362 141.411 228.821 141.601 229.112 141.938C229.388 142.152 229.832 142.22 230.443 142.143C231.453 142.264 232.265 142.784 232.877 143.701C233.49 144.618 233.621 145.658 233.271 146.821C233.194 147.204 233.073 147.716 232.905 148.359C232.844 148.864 232.722 149.377 232.539 149.897C232.082 151.198 231.685 152.491 231.35 153.776C230.999 154.939 230.717 156.155 230.504 157.425C230.032 159.598 229.499 161.779 228.905 163.967C228.31 166.155 227.777 168.335 227.305 170.508C226.878 172.054 226.757 173.561 226.942 175.029C226.989 176.39 226.998 177.943 226.97 179.687C227.795 179.334 228.43 178.944 228.873 178.515C229.301 177.964 229.79 177.405 230.34 176.838C232.8 173.669 235.153 170.638 237.399 167.745C239.629 164.729 241.913 161.644 244.251 158.49C245.427 156.975 246.55 155.528 247.619 154.15C248.796 152.635 249.965 151.058 251.126 149.42C251.981 148.317 252.776 147.223 253.509 146.136C254.227 144.927 255.013 143.771 255.869 142.669C256.251 141.75 256.579 140.901 256.853 140.121C257.112 139.218 257.57 138.414 258.228 137.71L258.778 137.641C259.619 137.41 260.086 137.165 260.177 136.905C260.269 136.645 260.131 136.041 259.762 135.092L259.739 134.909C259.862 134.893 259.976 134.817 260.083 134.679C260.695 134.602 261.07 134.617 261.208 134.724C261.85 134.892 262.424 135.006 262.929 135.066C263.556 135.112 264.199 135.279 264.857 135.569ZM265.324 143.715L265.255 143.164C264.965 143.822 264.728 144.412 264.545 144.932C264.087 146.233 263.943 147.556 264.113 148.902C264.283 150.248 264.337 151.174 264.276 151.678C264.2 152.061 264.086 152.635 263.934 153.4C263.766 154.043 263.591 154.624 263.408 155.144C263.225 155.665 263.172 156.231 263.249 156.843C263.555 157.301 263.663 157.661 263.571 157.921C263.602 158.165 263.534 158.609 263.366 159.252C263.214 160.017 263.039 161.096 262.841 162.488C262.628 163.758 262.484 165.081 262.409 166.458C262.486 167.07 262.509 167.253 262.479 167.009C262.57 166.749 262.639 166.305 262.684 165.678C262.729 165.05 262.767 164.362 262.796 163.612C262.933 162.725 263.101 162.082 263.299 161.684C264.093 160.092 264.521 159.044 264.581 158.539C264.642 158.034 264.618 157.354 264.511 156.497C264.403 155.641 264.364 154.837 264.393 154.088C264.561 153.445 264.729 152.802 264.896 152.16C265.049 151.395 265.109 150.89 265.078 150.645L264.708 147.708C264.356 146.883 264.279 146.271 264.477 145.873C264.691 145.597 264.859 145.452 264.982 145.436C265.104 145.421 265.264 145.214 265.463 144.816L265.324 143.715ZM267.241 155.967C267.546 155.431 267.569 155.614 267.31 156.517C267.158 157.282 267.089 157.726 267.105 157.848C267.151 158.215 267.121 158.468 267.014 158.606C267.06 158.973 267.03 159.225 266.923 159.363C266.357 159.807 266.113 160.335 266.19 160.947L266.352 162.232C266.52 162.584 266.551 162.828 266.444 162.966C266.322 162.982 266.215 163.119 266.124 163.38C266.094 164.129 265.918 164.711 265.597 165.124C265.628 165.369 265.598 166.118 265.508 167.373C265.554 167.74 265.493 168.245 265.326 168.887C265.143 169.408 264.967 169.989 264.8 170.632C264.51 171.29 264.289 172.002 264.136 172.767C264.166 172.017 264.265 171.321 264.433 170.678C264.6 170.036 264.722 169.523 264.798 169.14C264.859 168.636 264.996 168.245 265.21 167.97C265.302 167.71 265.317 167.335 265.255 166.845C265.193 166.356 265.17 165.675 265.184 164.803C265.138 164.436 265.244 163.801 265.503 162.898C265.747 161.873 265.991 160.848 266.235 159.823L267.241 155.967ZM332.323 137.884L332.3 137.7L332.323 137.884ZM334.041 135.243L333.881 135.45L333.858 135.266L334.041 135.243ZM330.901 138.436C330.427 138.62 329.593 138.911 328.4 139.31C329.944 137.748 331.771 136.462 333.881 135.45C334.049 135.802 333.851 136.2 333.285 136.644C332.582 136.981 332.253 137.333 332.3 137.7C332.07 137.853 331.841 138.007 331.612 138.16C331.367 138.191 331.13 138.283 330.901 138.436ZM335.189 135.472C335.066 135.487 335.013 135.556 335.028 135.678C335.028 135.678 334.967 135.686 334.845 135.701C334.829 135.579 334.883 135.51 335.005 135.495L335.189 135.472ZM334.661 135.725L334.845 135.701L334.661 135.725ZM332.92 138.182C333.394 137.998 333.814 137.882 334.181 137.836C334.671 137.774 335.267 137.575 335.971 137.238C335.757 137.513 335.604 137.781 335.512 138.041C335.406 138.179 335.299 138.317 335.192 138.455C335.1 138.715 334.947 138.983 334.733 139.258C334.627 139.396 334.588 139.587 334.619 139.832C334.743 140.811 334.476 141.653 333.819 142.357C333.284 143.046 332.558 143.697 331.641 144.31C329.852 145.902 328.125 147.487 326.459 149.065C324.778 150.52 323.166 152.028 321.622 153.59C320.843 154.31 320.055 154.968 319.26 155.566C318.572 156.025 317.892 156.546 317.22 157.128C315.294 158.614 313.429 160.092 311.625 161.562C309.944 163.017 308.27 164.533 306.604 166.111C305.137 167.29 303.608 168.477 302.018 169.672C300.551 170.851 299.022 172.038 297.433 173.233C296.531 173.968 295.56 174.65 294.52 175.278C293.588 175.769 292.663 176.32 291.745 176.933C289.788 178.174 287.87 179.224 285.989 180.082C284.23 180.926 282.265 181.608 280.094 182.13C279.023 182.514 278.052 182.698 277.18 182.684C276.17 182.563 275.145 182.319 274.104 181.953C271.503 181.037 268.893 179.564 266.275 177.532C265.586 176.997 264.958 176.455 264.392 175.904C263.703 175.37 263.251 174.743 263.036 174.024C263.571 173.335 263.884 172.861 263.976 172.6C264.25 171.82 264.341 171.063 264.249 170.328C264.369 168.324 264.811 166.404 265.574 164.568C266.215 162.746 267.047 160.963 268.07 159.218C268.345 158.438 268.688 157.711 269.1 157.038C269.39 156.379 269.413 155.569 269.167 154.605L269.327 154.398C269.327 154.398 269.442 154.322 269.671 154.169C270.268 153.969 270.657 153.609 270.84 153.089C270.901 152.584 271.153 152.117 271.596 151.689C272.727 149.806 273.918 147.915 275.17 146.017C276.285 144.012 277.408 142.068 278.538 140.185C279.057 139.374 279.577 138.563 280.096 137.752C280.722 136.802 281.149 135.754 281.378 134.607C281.362 134.484 281.523 134.278 281.859 133.987C283.082 132.838 284.121 131.713 284.977 130.61C285.817 129.386 286.864 128.321 288.117 127.418L287.955 126.133C288.919 125.887 289.829 125.71 290.685 125.602C291.649 125.357 292.697 125.287 293.829 125.393C294.839 125.514 295.833 125.513 296.812 125.39C297.775 125.144 298.739 124.898 299.702 124.653C301.538 124.421 302.999 124.672 304.086 125.406C304.775 125.94 305.456 126.414 306.13 126.826C306.91 127.101 307.584 127.513 308.15 128.063C309.497 128.888 310.225 129.729 310.333 130.585C310.547 131.304 310.227 132.215 309.372 133.317C308.837 134.006 308.31 134.756 307.79 135.567C307.378 136.241 306.843 136.93 306.186 137.634C303.466 140.712 300.54 143.629 297.406 146.385C294.395 149.127 291.132 151.838 287.616 154.518C285.904 155.728 283.977 156.717 281.836 157.484C280.292 158.052 279.115 159.07 278.305 160.539C277.634 162.116 277.085 163.677 276.658 165.222C276.216 166.645 275.85 168.183 275.561 169.835C275.516 170.463 275.478 171.151 275.448 171.901C275.281 172.543 275.174 173.178 275.129 173.806C275.191 174.295 275.313 174.777 275.497 175.251C276.125 175.296 276.668 175.166 277.126 174.859C277.585 174.553 278.044 174.246 278.502 173.94C279.878 173.021 281.269 172.224 282.676 171.549C284.067 170.753 285.374 169.78 286.597 168.631C287.178 168.31 287.698 167.995 288.157 167.689C288.722 167.245 289.311 166.984 289.923 166.907C290.183 166.999 290.473 166.838 290.794 166.424C292.598 164.954 294.356 163.614 296.068 162.404C297.78 161.193 299.546 159.914 301.365 158.566C301.946 158.244 302.527 157.923 303.108 157.601C303.689 157.279 304.27 156.957 304.851 156.635C306.441 155.441 308.038 154.307 309.643 153.234C311.233 152.04 312.823 150.845 314.413 149.65C314.627 149.375 314.848 149.16 315.078 149.007C315.429 148.838 315.712 148.616 315.926 148.341C316.14 148.065 316.3 147.858 316.407 147.721C316.637 147.567 316.866 147.414 317.095 147.261C318.411 146.847 319.519 146.272 320.421 145.537C321.307 144.679 322.217 144.005 323.15 143.515C323.975 143.162 324.732 142.756 325.42 142.296C326.215 141.699 326.956 141.17 327.644 140.711C327.874 140.558 328.111 140.466 328.355 140.435C328.707 140.266 328.99 140.044 329.204 139.769C330.397 139.37 331.23 139.078 331.704 138.894C331.933 138.741 332.17 138.649 332.415 138.618C332.767 138.449 333.057 138.288 333.287 138.135L332.92 138.182ZM295.534 133.009C294.953 133.331 293.968 134.388 292.577 136.179C291.294 137.832 289.972 139.677 288.613 141.713C287.055 144.147 285.337 146.787 283.458 149.635C286.576 146.756 289.411 144.099 291.963 141.664C294.195 139.642 296.189 137.713 297.947 135.875C299.811 133.9 300.835 132.652 301.018 132.132C301.399 131.214 301.315 131.038 300.765 131.604C300.199 132.049 299.488 132.325 298.632 132.433C298.142 132.494 297.836 132.533 297.714 132.548C297.576 132.441 297.446 132.396 297.324 132.411C297.308 132.289 297.186 132.304 296.957 132.457C296.712 132.488 296.238 132.672 295.534 133.009ZM327.828 140.688L327.644 140.711L327.828 140.688ZM327.828 140.688L327.805 140.504L327.828 140.688ZM347.722 126.993C347.921 126.595 348.127 126.259 348.341 125.983C348.998 125.279 349.533 124.59 349.945 123.916C350.48 123.227 350.938 122.424 351.319 121.505C351.518 121.107 351.724 120.771 351.938 120.495C352.274 120.204 352.748 120.02 353.36 119.943C353.482 119.928 353.826 119.698 354.392 119.254C354.713 118.84 355.041 118.488 355.378 118.197C355.699 117.784 355.966 117.439 356.18 117.164C358.182 115.295 360.262 114.536 362.419 114.886C363.046 114.931 363.674 114.976 364.301 115.022C364.928 115.067 365.555 115.112 366.183 115.158C368.248 115.767 369.588 117.028 370.202 118.94C370.601 120.133 370.816 121.349 370.848 122.588C370.864 123.704 370.896 124.944 370.944 126.305C370.243 129.625 369.352 133.405 368.27 137.643C367.188 141.882 366.159 146.051 365.184 150.152C364.194 154.131 363.348 157.78 362.648 161.1C361.948 164.421 361.698 166.876 361.898 168.467C363.641 167.501 365.353 166.291 367.035 164.836C368.7 163.259 370.297 161.628 371.826 159.944C373.476 158.244 375.004 156.56 376.41 154.891C377.816 153.222 379.122 151.752 380.33 150.482C381.323 149.486 381.912 149.226 382.096 149.7C382.402 150.158 382.502 150.954 382.396 152.086C382.275 153.096 381.932 154.32 381.367 155.758C380.925 157.181 380.46 158.421 379.971 159.477C377.344 163.289 374.241 166.29 370.664 168.481C367.209 170.657 364.212 172.526 361.674 174.089C359.548 173.984 357.757 173.588 356.303 172.901C354.849 172.214 353.701 171.489 352.859 170.725C352.002 169.838 351.397 168.982 351.044 168.156C350.814 167.315 350.805 166.757 351.019 166.481C350.865 165.258 350.993 163.315 351.404 160.652C351.921 157.852 352.538 154.853 353.254 151.656C354.076 148.32 354.907 145.045 355.745 141.832C356.568 138.496 357.146 135.688 357.481 133.409C357.922 130.991 358.028 129.362 357.797 128.521C357.689 127.664 356.994 128.063 355.71 129.716C354.245 132.884 352.504 135.838 350.487 138.579C348.577 141.181 346.76 144.021 345.034 147.097C343.828 149.362 342.622 151.628 341.415 153.893C340.209 156.158 339.087 158.599 338.049 161.216C337.286 163.053 336.515 164.828 335.737 166.542C335.081 168.241 334.371 170.008 333.608 171.845C332.921 173.299 332.157 174.141 331.316 174.371C330.475 174.602 329.488 174.664 328.356 174.558C326.183 174.086 324.537 172.864 323.419 170.891C323.235 170.417 323.058 170.004 322.89 169.653C322.583 169.194 322.338 168.728 322.154 168.254C322.796 167.427 323.261 166.187 323.55 164.535C324.038 162.484 324.533 160.495 325.036 158.567C325.401 156.532 325.82 154.428 326.292 152.256C326.475 151.735 326.536 151.23 326.474 150.741C326.29 150.267 326.282 149.709 326.449 149.066C326.495 148.439 326.685 147.98 327.022 147.689C327.235 147.413 327.365 146.962 327.41 146.334C327.67 145.431 327.875 144.598 328.027 143.832C328.18 143.067 328.194 142.195 328.071 141.217C327.994 140.605 328.016 139.794 328.137 138.784C328.625 136.734 329.112 134.683 329.6 132.633C329.965 130.598 330.391 128.555 330.879 126.505C331.443 125.066 331.473 123.82 330.967 122.765C330.676 122.428 330.721 121.801 331.103 120.883C331.179 120.5 331.4 119.789 331.766 118.748C333.326 118.303 334.856 118.11 336.355 118.17C337.839 118.107 339.392 118.595 341.014 119.634C341.872 120.52 342.347 121.331 342.44 122.065C342.41 122.814 342.319 123.572 342.166 124.337C342.121 124.964 342.076 125.591 342.031 126.219C341.909 127.228 341.711 128.124 341.437 128.904C341.284 129.669 341.148 130.556 341.026 131.566C340.859 132.209 340.752 132.844 340.707 133.471C340.646 133.976 340.555 134.733 340.434 135.743C341.305 134.763 341.946 133.936 342.359 133.263C342.894 132.574 343.428 131.885 343.963 131.196C343.871 131.456 343.841 131.709 343.872 131.953C344.01 132.06 344.025 132.183 343.918 132.321C343.383 133.01 342.856 133.76 342.337 134.571C341.802 135.26 341.283 136.071 340.779 137.005C340.672 137.143 340.512 137.349 340.298 137.625C340.084 137.9 340.122 138.206 340.413 138.543C342.247 136.323 343.958 134.118 345.547 131.929C346.387 130.704 347.243 129.602 348.114 128.622C348.985 127.642 349.833 126.479 350.657 125.132C349.923 125.224 349.411 125.599 349.121 126.258C348.816 126.793 348.342 126.977 347.699 126.81L347.722 126.993ZM491.36 114.116C491.391 114.361 491.483 114.598 491.636 114.827C491.774 114.934 491.851 115.049 491.866 115.171C491.607 116.074 491.531 116.954 491.639 117.81C491.854 118.529 491.824 119.279 491.55 120.059C491.55 120.059 491.496 120.128 491.389 120.266C491.238 122.025 490.903 123.808 490.385 125.613C489.866 127.419 488.942 128.965 487.613 130.251C486.192 131.798 484.77 133.344 483.349 134.891C482.05 136.422 480.759 138.014 479.476 139.668C478.07 141.336 476.603 143.013 475.075 144.697C473.532 146.259 471.988 147.821 470.444 149.383C468.014 151.802 465.447 154.115 462.741 156.32C460.036 158.526 456.733 160.434 452.834 162.044C451.412 162.596 450.119 162.697 448.956 162.346C447.671 162.011 446.431 161.545 445.237 160.95C444.518 160.17 443.645 159.659 442.62 159.415C441.365 159.324 440.661 158.667 440.507 157.444C440.292 156.725 440.138 155.998 440.046 155.264C439.831 154.545 439.8 153.803 439.952 153.038C440.12 152.396 440.142 151.585 440.018 150.606C439.88 149.505 439.924 148.38 440.153 147.233C440.213 146.728 440.29 146.345 440.381 146.085C440.457 145.703 440.526 145.259 440.586 144.754C441.04 139.476 441.853 134.09 443.026 128.597C443.163 127.71 443.36 126.317 443.618 124.42C443.754 122.539 443.829 121.162 443.844 120.29C443.951 120.152 443.989 119.961 443.958 119.716C443.805 119.487 443.659 119.318 443.521 119.211C443.199 118.63 443.031 118.279 443.015 118.156C442.985 117.912 442.931 117.483 442.854 116.872C443.067 116.596 443.411 116.366 443.885 116.182C444.222 115.891 444.558 115.6 444.894 115.309C445.353 115.003 445.773 114.888 446.156 114.964C446.89 114.871 447.425 114.679 447.762 114.389C448.664 113.653 449.818 113.446 451.226 113.766C452.618 113.963 453.499 114.536 453.867 115.484C454.188 116.065 454.159 116.815 453.777 117.733C453.717 119.232 453.36 121.328 452.705 124.021C452.172 126.699 451.822 128.856 451.656 130.493C451.321 132.773 451.056 135.106 450.859 137.493C450.663 139.879 450.405 142.274 450.086 144.676C449.949 145.563 449.874 146.443 449.859 147.315C449.952 148.049 449.922 148.799 449.77 149.564C449.709 150.069 449.717 150.627 449.794 151.239C449.887 151.973 450.193 152.432 450.713 152.615C452.121 152.935 454.254 152.107 457.113 150.13C459.956 148.032 463.296 144.938 467.132 140.85C468.553 139.304 469.966 137.696 471.372 136.027C472.778 134.358 474.237 132.62 475.75 130.814C477.492 128.854 479.02 126.673 480.333 124.27C480.409 123.887 480.554 123.558 480.768 123.282C481.563 122.685 482.174 122.111 482.602 121.56C483.137 120.871 483.679 120.243 484.229 119.676C485.268 118.054 486.467 116.722 487.828 115.68C488.287 115.374 488.753 115.128 489.227 114.944C489.823 114.745 490.534 114.469 491.36 114.116ZM449.282 96.8557C449.129 96.6264 448.807 96.5426 448.318 96.6043C447.736 95.9317 447.207 95.1903 446.732 94.38C446.38 93.5543 445.966 92.7362 445.491 91.9259C445.934 91.4971 446.194 91.0915 446.27 90.709C446.468 90.311 446.736 89.9666 447.072 89.6756C447.286 89.4 447.569 89.1779 447.92 89.0093C448.394 88.8253 448.8 88.5877 449.136 88.2968C450.16 87.5462 451.475 87.1318 453.081 87.0538C454.795 86.8379 456.195 87.0966 457.281 87.8298C458.077 88.2268 458.537 88.9147 458.66 89.8937L459.169 93.9318C459.246 94.5436 459.316 95.0943 459.377 95.5838C459.439 96.0732 459.569 96.6162 459.769 97.2126C460.491 99.9808 460.547 102.895 459.938 105.955C459.817 106.965 459.412 107.7 458.724 108.159C458.143 108.481 457.57 108.864 457.004 109.308C457.004 109.308 456.637 109.354 455.903 109.447C455.49 109.126 454.977 109.004 454.365 109.081C454.043 108.5 453.668 107.988 453.239 107.545C452.933 107.086 452.863 106.536 453.031 105.893L452.939 105.159C452.157 103.89 451.552 102.537 451.122 101.099C450.677 99.5391 450.063 98.1247 449.282 96.8557ZM449.928 100.504L449.905 100.32L449.928 100.504ZM502.414 107.502C502.613 107.105 502.819 106.768 503.033 106.492C503.69 105.788 504.224 105.099 504.637 104.425C505.172 103.736 505.63 102.933 506.011 102.015C506.21 101.617 506.416 101.28 506.63 101.004C506.966 100.713 507.44 100.529 508.052 100.452C508.174 100.437 508.518 100.207 509.084 99.7629C509.405 99.3495 509.733 98.9974 510.07 98.7064C510.39 98.293 510.658 97.9485 510.872 97.673C512.874 95.8047 514.954 95.0454 517.111 95.3951C517.738 95.4404 518.365 95.4857 518.993 95.531C519.62 95.5762 520.247 95.6215 520.875 95.6668C522.94 96.2767 524.28 97.5374 524.894 99.4491C525.293 100.642 525.508 101.858 525.54 103.097C525.556 104.214 525.588 105.453 525.635 106.814C524.935 110.135 524.044 113.914 522.962 118.153C521.88 122.391 520.851 126.561 519.876 130.662C518.886 134.64 518.04 138.289 517.34 141.61C516.639 144.93 516.389 147.385 516.59 148.976C518.333 148.011 520.045 146.801 521.726 145.346C523.392 143.768 524.989 142.137 526.517 140.453C528.168 138.754 529.696 137.069 531.102 135.4C532.508 133.732 533.814 132.262 535.021 130.991C536.015 129.995 536.603 129.735 536.788 130.209C537.094 130.668 537.194 131.463 537.088 132.595C536.967 133.605 536.624 134.829 536.059 136.268C535.617 137.691 535.152 138.93 534.663 139.986C532.036 143.798 528.933 146.799 525.356 148.991C521.9 151.166 518.904 153.035 516.366 154.598C514.239 154.493 512.449 154.097 510.995 153.41C509.541 152.723 508.393 151.998 507.551 151.234C506.694 150.347 506.088 149.491 505.736 148.666C505.506 147.824 505.497 147.266 505.711 146.991C505.557 145.767 505.685 143.824 506.096 141.162C506.613 138.362 507.23 135.363 507.945 132.165C508.768 128.829 509.599 125.554 510.437 122.341C511.26 119.005 511.838 116.198 512.173 113.918C512.614 111.5 512.719 109.871 512.489 109.03C512.381 108.173 511.686 108.572 510.402 110.225C508.937 113.393 507.196 116.348 505.179 119.088C503.269 121.69 501.452 124.53 499.726 127.606C498.52 129.872 497.313 132.137 496.107 134.402C494.901 136.667 493.779 139.109 492.741 141.726C491.978 143.562 491.207 145.337 490.429 147.051C489.773 148.75 489.063 150.518 488.3 152.354C487.613 153.808 486.849 154.65 486.008 154.881C485.167 155.111 484.18 155.173 483.048 155.067C480.875 154.595 479.229 153.373 478.111 151.4C477.927 150.926 477.75 150.514 477.582 150.162C477.275 149.703 477.03 149.237 476.846 148.763C477.488 147.936 477.953 146.697 478.242 145.044C478.73 142.994 479.225 141.004 479.728 139.076C480.093 137.041 480.512 134.938 480.984 132.765C481.167 132.245 481.227 131.74 481.166 131.25C480.982 130.776 480.974 130.218 481.141 129.575C481.186 128.948 481.377 128.489 481.713 128.198C481.927 127.922 482.057 127.471 482.102 126.844C482.361 125.941 482.567 125.107 482.719 124.342C482.872 123.577 482.886 122.705 482.763 121.726C482.686 121.114 482.708 120.303 482.829 119.293C483.317 117.243 483.804 115.193 484.292 113.142C484.657 111.107 485.083 109.065 485.571 107.014C486.135 105.576 486.165 104.329 485.659 103.274C485.368 102.938 485.413 102.31 485.795 101.392C485.871 101.009 486.092 100.298 486.458 99.2573C488.018 98.8122 489.547 98.6194 491.047 98.6791C492.531 98.6165 494.084 99.1045 495.706 100.143C496.564 101.03 497.039 101.84 497.131 102.574C497.102 103.324 497.011 104.081 496.858 104.846C496.813 105.473 496.768 106.101 496.722 106.728C496.601 107.738 496.403 108.633 496.128 109.413C495.976 110.178 495.839 111.066 495.718 112.075C495.55 112.718 495.444 113.353 495.399 113.98C495.338 114.485 495.247 115.243 495.126 116.252C495.997 115.272 496.638 114.446 497.051 113.772C497.585 113.083 498.12 112.394 498.655 111.705C498.563 111.966 498.533 112.218 498.564 112.463C498.702 112.57 498.717 112.692 498.61 112.83C498.075 113.519 497.548 114.269 497.029 115.08C496.494 115.769 495.975 116.58 495.471 117.514C495.364 117.652 495.204 117.859 494.99 118.134C494.776 118.41 494.814 118.716 495.105 119.052C496.939 116.832 498.65 114.627 500.239 112.438C501.079 111.213 501.935 110.111 502.806 109.131C503.677 108.151 504.525 106.988 505.349 105.641C504.615 105.733 504.103 106.109 503.813 106.767C503.508 107.303 503.034 107.487 502.391 107.319L502.414 107.502ZM600.108 65.9184C599.42 66.378 598.793 66.8299 598.227 67.2741C597.662 67.7183 597.035 68.1702 596.347 68.6298C594.483 70.605 593.038 71.9679 592.014 72.7185C590.974 73.3468 590.087 73.7071 589.353 73.7996C588.481 73.7852 587.647 73.5795 586.851 73.1825C585.918 72.6786 584.694 72.3356 583.179 72.1535C581.527 71.8645 579.415 71.8819 576.846 72.2057C574.138 72.4225 570.567 73.1832 566.132 74.4879C566.33 74.09 566.307 73.9064 566.062 73.9372C565.802 73.8457 565.963 73.639 566.544 73.3172C567.828 72.6582 568.646 72.2443 568.998 72.0757C569.334 71.7847 568.669 71.9307 567.002 72.5136C565.916 72.7748 565.021 73.0739 564.318 73.4112C563.599 73.6261 562.75 73.7952 561.771 73.9185C562.703 72.4337 563.903 71.1016 565.37 69.9222C566.822 68.6205 568.412 67.4257 570.14 66.3379C571.867 65.25 573.664 64.2157 575.529 63.2348C577.257 62.1469 578.931 61.128 580.551 60.1779C583.884 58.0177 587.531 55.8801 591.491 53.7651C595.435 51.5277 599.472 49.5274 603.601 47.7641C607.836 45.863 611.842 44.1151 615.619 42.5204C619.519 40.9103 623.854 39.3075 628.626 37.7118L655.213 29.7003C655.472 28.7974 655.51 28.109 655.326 27.6349C655.264 27.1455 655.218 26.7784 655.187 26.5336C655.263 26.1511 655.53 25.8067 655.989 25.5002C656.448 25.1938 657.388 24.7646 658.81 24.2125C661.058 23.3077 662.572 22.9926 663.353 23.2672C664.118 23.4194 664.906 23.7552 665.717 24.2745C666.513 24.6715 667.615 25.0299 669.023 25.3498C670.553 25.6542 673.077 25.4605 676.594 24.7687L706.718 19.6679C708.447 19.5744 710.122 19.5498 711.744 19.5941C713.35 19.516 715.193 19.3459 717.273 19.0838C718.864 18.8834 720.027 18.7369 720.761 18.6444C721.617 18.5365 722.306 18.5741 722.826 18.7571C723.453 18.8024 724.043 19.0389 724.594 19.4667C725.145 19.8945 725.91 20.5439 726.89 21.415C726.585 21.9507 726.524 22.4556 726.708 22.9296C726.999 23.2659 727.298 23.6633 727.604 24.122C727.895 24.4582 728.125 24.8022 728.294 25.1539C728.585 25.4902 728.509 25.8727 728.065 26.3015C727.607 26.6079 726.85 27.014 725.795 27.5199C724.847 27.8879 723.784 28.3326 722.607 28.8539C721.536 29.2374 720.412 29.6898 719.235 30.2111C718.164 30.5946 717.339 30.9472 716.758 31.2691C715.932 31.6217 714.907 31.8751 713.683 32.0293C712.444 32.0611 711.144 32.1006 709.783 32.1479C708.528 32.0573 707.281 32.0279 706.042 32.0598C704.788 31.9692 703.74 32.0391 702.899 32.2694C701.69 32.5459 699.863 32.8384 697.415 33.1467C695.09 33.4397 692.521 33.7634 689.706 34.1181C686.892 34.4727 684.085 34.8885 681.286 35.3654C678.594 35.7046 676.284 36.1199 674.357 36.6114C674.42 38.0952 674.338 39.9081 674.11 42.05C673.867 44.0695 673.708 45.2706 673.632 45.6531C673.48 46.4181 673.175 47.451 672.717 48.7518C672.244 49.9302 671.779 51.1698 671.321 52.4705C670.756 53.9091 670.085 55.4854 669.306 57.1995C669.231 58.5764 668.889 60.7949 668.28 63.8551C667.656 66.7929 666.879 69.9985 665.949 73.472C665.142 76.9301 664.319 80.2659 663.481 83.4792C662.765 86.6772 662.262 89.1024 661.973 90.7548C661.395 94.0597 660.901 97.0433 660.491 99.7055C660.187 102.23 659.57 105.229 658.641 108.702C657.772 111.671 656.964 115.129 656.219 119.077C655.473 123.024 654.681 127.102 653.844 131.31C653.129 135.502 652.407 139.633 651.676 143.703C650.931 147.651 650.116 151.047 649.231 153.894C648.789 155.317 648.545 156.342 648.5 156.969C648.561 157.459 648.677 157.879 648.845 158.231C649.014 158.583 649.06 158.95 648.984 159.332C649.046 159.822 648.893 160.587 648.527 161.627C647.657 163.602 646.902 165.997 646.263 168.812C645.623 171.627 645.082 174.244 644.641 176.661C644.215 179.201 643.858 181.297 643.569 182.95C643.402 184.587 643.288 185.161 643.226 184.671C643.302 184.289 643.461 182.59 643.703 179.577C643.96 176.685 644.353 171.912 644.882 165.257C644.776 166.389 644.663 167.46 644.541 168.469C644.542 169.464 644.298 170.489 643.81 171.545C643.566 172.57 643.177 173.427 642.642 174.116C642.107 174.805 641.68 175.853 641.36 177.261C641.101 178.164 640.995 178.799 641.041 179.166C641.225 179.64 641.332 180 641.363 180.244C641.394 180.489 641.295 180.688 641.066 180.841C640.836 180.994 640.255 181.316 639.323 181.807C638.663 180.522 638.211 179.398 637.965 178.435C637.735 177.594 637.505 176.752 637.274 175.911C637.182 175.177 637.013 174.328 636.767 173.365C636.659 172.508 636.406 171.483 636.007 170.291C635.501 169.236 635.164 168.532 634.995 168.181C634.949 167.813 634.903 167.446 634.856 167.079C634.948 166.819 635.024 166.437 635.085 165.932C635.268 165.411 635.405 164.524 635.495 163.269C635.386 161.419 635.377 159.369 635.466 157.12C635.678 154.855 635.89 152.591 636.102 150.327C636.436 148.047 636.786 145.89 637.151 143.855C637.623 141.682 638.065 139.762 638.476 138.094C637.636 139.319 636.865 140.597 636.163 141.928C635.567 143.122 635.361 143.459 635.544 142.939C635.91 141.898 636.108 140.506 636.137 138.762C636.165 137.018 636.172 136.085 636.157 135.962C636.904 134.003 637.499 132.312 637.942 130.889C638.384 129.466 638.826 127.546 639.267 125.128C639.785 123.323 640.188 121.096 640.476 118.45C640.887 115.787 641.359 113.117 641.891 110.44C642.409 107.64 642.941 104.962 643.49 102.407C644.16 99.8362 644.954 97.7473 645.87 96.1401C646.634 95.298 647.108 94.6168 647.291 94.0965C647.474 93.5762 647.481 93.1402 647.312 92.7885C647.266 92.4214 647.105 92.1309 646.83 91.917C646.676 91.6877 646.592 91.5119 646.577 91.3895C646.791 91.1139 647.073 90.3946 647.424 89.2317C647.774 88.0687 648.117 86.8445 648.453 85.5592C648.895 84.1361 649.222 82.7895 649.435 81.5196C649.771 80.2342 649.915 79.408 649.869 79.0409C649.958 76.7921 650.378 75.1854 651.126 74.2209C651.875 73.2564 652.31 72.2692 652.431 71.2595C652.446 70.3875 652.636 69.4312 653.002 68.3906C653.475 67.2122 653.696 66.5006 653.665 66.2559C653.802 65.3685 653.825 65.0548 653.733 65.315C653.749 65.4374 653.665 65.7587 653.482 66.279C653.421 66.7839 653.307 67.3577 653.139 68.0003C652.972 68.643 652.827 68.9721 652.704 68.9875C652.246 69.2939 651.963 69.516 651.856 69.6538C651.749 69.7916 651.642 69.9293 651.535 70.0671C651.551 70.1895 651.513 70.3808 651.421 70.6409C651.452 70.8856 651.307 71.2147 650.986 71.628C650.788 72.026 650.719 71.9725 650.779 71.4676C650.825 70.8404 650.923 70.1442 651.076 69.3792C651.212 68.4918 651.357 67.6655 651.509 66.9005C651.784 66.12 651.921 65.7298 651.921 65.7298C652.743 61.3997 653.39 58.1483 653.862 55.9756C654.319 53.6804 654.677 52.0815 654.936 51.1786C655.195 50.2758 655.378 49.7555 655.485 49.6177C655.592 49.4799 655.63 49.2887 655.599 49.0439C655.675 48.6614 655.659 48.0419 655.551 47.1853C655.566 46.3133 655.602 44.6305 655.661 42.1369C655.677 42.2593 655.501 42.3436 655.134 42.3899C653.818 42.8042 652.748 43.1877 651.922 43.5403C651.096 43.893 650.332 44.238 649.629 44.5752C649.048 44.897 648.405 45.2266 647.702 45.5638C646.983 45.7787 646.073 45.9555 644.972 46.0943C644.238 46.1868 643.396 46.4171 642.448 46.7851C641.607 47.0154 640.896 47.2915 640.315 47.6133C639.719 47.8128 639.428 47.9737 639.444 48.0961C639.581 48.203 640.323 48.1717 641.669 48.0021C641.792 47.9867 641.425 48.0329 640.568 48.1408C639.834 48.2333 638.924 48.4102 637.838 48.6713C636.752 48.9324 635.666 49.1936 634.58 49.4547C633.494 49.7158 632.73 50.0608 632.287 50.4895C630.697 51.6843 628.931 52.4662 626.988 52.8353C625.153 53.0666 623.922 53.6567 623.296 54.6058C622.73 55.05 621.728 55.487 620.291 55.9167C618.853 56.3465 617.752 56.4852 616.987 56.333C617.109 56.3176 617.178 56.3711 617.194 56.4934C617.209 56.6158 617.156 56.6847 617.033 56.7001C616.361 57.2821 615.558 57.8183 614.625 58.3088C613.815 58.7838 612.936 59.2053 611.988 59.5734C611.162 59.9261 610.405 60.3322 609.717 60.7918C609.014 61.1291 608.502 61.5044 608.181 61.9177C607.539 62.7444 606.393 63.5104 604.741 64.2158C603.09 64.9211 601.545 65.4886 600.108 65.9184ZM625.912 54.6492C626.034 54.6337 626.103 54.6872 626.118 54.8096C626.118 54.8096 626.057 54.8173 625.935 54.8327L624.512 55.3848C623.564 55.7529 623.175 56.1128 623.343 56.4645C623.665 57.0455 623.467 57.4434 622.748 57.6583C622.136 57.7354 621.585 57.8047 621.096 57.8664C620.622 58.0505 620.209 58.2268 619.857 58.3954C619.628 58.5486 619.391 58.6406 619.146 58.6715C619.024 58.6869 619.131 58.5491 619.467 58.2581C619.574 58.1203 619.108 58.3655 618.068 58.9938C617.013 59.4996 616.31 59.8369 615.958 60.0055C615.239 60.2204 614.949 60.3813 615.086 60.4882C615.209 60.4728 615.339 60.5186 615.477 60.6255C615.737 60.7171 615.875 60.824 615.89 60.9464C615.905 61.0688 615.431 61.2528 614.468 61.4985C613.642 61.8512 612.771 62.3339 611.853 62.9467C611.058 63.5441 610.539 63.8582 610.294 63.8891C609.835 64.1955 609.315 64.5096 608.734 64.8314C608.138 65.0309 608.016 65.0463 608.367 64.8777C608.979 64.8006 609.17 64.8386 608.941 64.9918C608.819 65.0072 608.574 65.0381 608.207 65.0843L606.555 65.2925C605.576 65.4158 604.345 66.006 602.862 67.063C601.364 67.9976 600.064 68.5343 598.963 68.6731C599.299 68.3821 599.819 68.068 600.522 67.7307C601.333 67.2557 602.151 66.8419 602.976 66.4892C603.909 65.9988 604.788 65.5772 605.614 65.2246C606.424 64.7495 607.005 64.4277 607.357 64.2591C608.183 63.9064 609.062 63.4849 609.995 62.9944C610.927 62.504 611.722 61.9066 612.379 61.2022C613.235 60.1 614.213 59.4794 615.315 59.3407C616.401 59.0795 617.288 58.7192 617.976 58.2596C618.419 57.8308 618.885 57.5856 619.375 57.5239C619.849 57.3399 620.269 57.2247 620.636 57.1785C621.126 57.1168 621.546 57.0016 621.898 56.833C622.25 56.6644 622.571 56.251 622.861 55.593C623.074 55.3174 623.487 55.1411 624.099 55.064C624.696 54.8645 625.3 54.7262 625.912 54.6492ZM635.34 145.761C635.34 145.761 635.272 146.205 635.135 147.092C634.983 147.857 634.785 148.753 634.541 149.778C634.42 150.788 634.229 151.744 633.97 152.647C633.833 153.534 633.773 154.039 633.788 154.161C633.927 155.263 634.019 155.997 634.066 156.364C634.112 156.731 634.089 157.045 633.998 157.305C634.013 157.427 633.914 157.626 633.7 157.902C633.609 158.162 633.487 158.674 633.334 159.439C632.909 161.979 632.871 163.165 633.223 162.996C633.575 162.828 633.505 161.78 633.014 159.853C632.814 159.256 632.76 158.331 632.85 157.076C633.048 155.684 633.245 154.292 633.443 152.9C633.747 151.369 634.067 149.962 634.402 148.676C634.738 147.391 635.05 146.419 635.34 145.761ZM649.473 72.9375C649.885 72.264 649.969 72.4398 649.726 73.465C649.604 74.4748 649.551 75.0409 649.567 75.1632C649.108 75.4696 648.902 75.8064 648.948 76.1735C648.857 76.4336 648.888 76.6784 649.041 76.9077C648.858 77.428 648.728 77.8794 648.652 78.2619C648.683 78.5067 648.584 78.7056 648.354 78.8588C647.499 79.9611 647.178 80.8717 647.393 81.5904C647.715 82.1714 647.715 82.6686 647.395 83.082C646.539 84.1843 646.188 84.8501 646.341 85.0794C646.494 85.3087 646.464 86.0583 646.251 87.3282C645.885 88.3688 645.702 88.8892 645.702 88.8892C645.702 88.8892 645.74 88.6979 645.816 88.3154C645.877 87.8105 645.93 87.2444 645.975 86.6172C646.128 85.8521 646.181 85.286 646.134 84.9189C646.149 84.047 646.385 82.9606 646.842 81.6598C647.285 80.2367 647.536 79.2727 647.597 78.7678C647.504 78.0336 647.557 77.4675 647.756 77.0696C647.954 76.6716 648.161 76.3349 648.374 76.0593C648.695 75.646 648.955 75.2403 649.153 74.8424C649.352 74.4444 649.405 73.8784 649.312 73.1442L649.473 72.9375ZM562.001 74.2625L561.771 73.9185L562.001 74.2625ZM735.274 87.113L735.251 86.9295L735.274 87.113ZM736.993 84.4725L736.832 84.6791L736.809 84.4956L736.993 84.4725ZM733.852 87.6651C733.378 87.8492 732.545 88.1407 731.352 88.5396C732.895 86.9777 734.722 85.6909 736.832 84.6791C737.001 85.0308 736.803 85.4288 736.237 85.873C735.534 86.2102 735.205 86.5624 735.251 86.9295C735.022 87.0827 734.793 87.2359 734.563 87.3891C734.319 87.4199 734.082 87.5119 733.852 87.6651ZM738.14 84.7008C738.018 84.7162 737.965 84.7851 737.98 84.9075C737.98 84.9075 737.919 84.9152 737.796 84.9306C737.781 84.8082 737.834 84.7393 737.957 84.7239L738.14 84.7008ZM737.613 84.9537L737.796 84.9306L737.613 84.9537ZM735.871 87.4107C736.345 87.2267 736.766 87.1116 737.133 87.0653C737.622 87.0036 738.219 86.8042 738.922 86.4669C738.708 86.7425 738.556 87.0104 738.464 87.2705C738.357 87.4083 738.25 87.5461 738.143 87.6839C738.052 87.944 737.899 88.2119 737.685 88.4875C737.578 88.6252 737.54 88.8165 737.571 89.0612C737.694 90.0402 737.427 90.8818 736.77 91.5862C736.236 92.2751 735.51 92.926 734.592 93.5388C732.804 95.1315 731.077 96.7165 729.411 98.2938C727.73 99.7488 726.117 101.257 724.574 102.819C723.794 103.539 723.007 104.197 722.212 104.795C721.524 105.254 720.844 105.775 720.171 106.357C718.245 107.843 716.38 109.321 714.577 110.791C712.895 112.246 711.222 113.762 709.556 115.34C708.088 116.519 706.56 117.706 704.97 118.901C703.503 120.08 701.974 121.267 700.384 122.462C699.482 123.197 698.512 123.879 697.472 124.507C696.539 124.998 695.614 125.549 694.697 126.162C692.74 127.403 690.821 128.453 688.941 129.312C687.182 130.155 685.217 130.837 683.045 131.36C681.975 131.743 681.004 131.928 680.132 131.913C679.122 131.792 678.097 131.548 677.056 131.182C674.454 130.267 671.845 128.793 669.227 126.761C668.538 126.226 667.91 125.684 667.344 125.134C666.655 124.599 666.203 123.972 665.988 123.253C666.523 122.564 666.836 122.09 666.927 121.83C667.202 121.049 667.293 120.292 667.2 119.558C667.321 117.554 667.763 115.633 668.526 113.797C669.166 111.976 669.998 110.193 671.022 108.448C671.296 107.667 671.64 106.94 672.052 106.267C672.342 105.609 672.364 104.798 672.119 103.834L672.279 103.628C672.279 103.628 672.394 103.551 672.623 103.398C673.219 103.198 673.609 102.839 673.792 102.318C673.853 101.813 674.105 101.346 674.548 100.918C675.678 99.035 676.87 97.1445 678.122 95.2464C679.237 93.2413 680.359 91.2973 681.49 89.4146C682.009 88.6033 682.528 87.792 683.048 86.9807C683.674 86.0316 684.101 84.9833 684.329 83.8358C684.314 83.7134 684.474 83.5067 684.811 83.2157C686.033 82.0672 687.073 80.9418 687.928 79.8395C688.768 78.6149 689.815 77.5506 691.069 76.6468L690.907 75.362C691.87 75.1163 692.78 74.9394 693.637 74.8315C694.601 74.5858 695.648 74.5159 696.78 74.6219C697.79 74.7433 698.785 74.7423 699.764 74.619C700.727 74.3733 701.691 74.1276 702.654 73.8818C704.49 73.6506 705.951 73.9016 707.038 74.6348C707.727 75.1695 708.408 75.6431 709.081 76.0555C709.862 76.3301 710.535 76.7425 711.102 77.2926C712.449 78.1174 713.176 78.958 713.284 79.8146C713.499 80.5334 713.179 81.4439 712.323 82.5462C711.788 83.2351 711.261 83.9852 710.742 84.7965C710.33 85.47 709.795 86.159 709.138 86.8633C706.418 89.9408 703.491 92.858 700.358 95.6146C697.347 98.3559 694.083 101.067 690.568 103.747C688.855 104.958 686.929 105.946 684.788 106.713C683.243 107.281 682.066 108.299 681.257 109.769C680.586 111.345 680.036 112.906 679.61 114.451C679.167 115.874 678.802 117.412 678.513 119.065C678.467 119.692 678.43 120.38 678.4 121.13C678.232 121.773 678.126 122.408 678.081 123.035C678.142 123.524 678.265 124.006 678.449 124.48C679.076 124.525 679.619 124.395 680.078 124.088C680.537 123.782 680.995 123.476 681.454 123.169C682.83 122.25 684.221 121.453 685.628 120.779C687.019 119.982 688.326 119.009 689.549 117.861C690.13 117.539 690.65 117.225 691.108 116.918C691.674 116.474 692.263 116.213 692.874 116.136C693.135 116.228 693.425 116.067 693.746 115.654C695.55 114.183 697.308 112.843 699.02 111.633C700.732 110.423 702.498 109.143 704.317 107.795C704.898 107.474 705.479 107.152 706.06 106.83C706.641 106.508 707.222 106.186 707.803 105.865C709.392 104.67 710.99 103.536 712.595 102.464C714.185 101.269 715.775 100.074 717.365 98.8793C717.578 98.6037 717.8 98.3894 718.029 98.2362C718.381 98.0675 718.664 97.8454 718.878 97.5699C719.092 97.2943 719.252 97.0876 719.359 96.9498C719.588 96.7966 719.818 96.6434 720.047 96.4902C721.362 96.0759 722.471 95.5011 723.373 94.766C724.259 93.9084 725.169 93.2344 726.101 92.744C726.927 92.3913 727.684 91.9852 728.372 91.5256C729.167 90.9282 729.908 90.3997 730.596 89.9401C730.825 89.7869 731.062 89.6948 731.307 89.664C731.659 89.4954 731.942 89.2733 732.155 88.9977C733.348 88.5988 734.182 88.3073 734.656 88.1233C734.885 87.9701 735.122 87.8781 735.367 87.8472C735.719 87.6786 736.009 87.5177 736.238 87.3645L735.871 87.4107ZM698.486 82.2385C697.905 82.5604 696.919 83.6169 695.529 85.4081C694.246 87.0615 692.924 88.9062 691.565 90.9421C690.007 93.376 688.288 96.0166 686.409 98.8638C689.527 95.9848 692.362 93.3278 694.915 90.893C697.146 88.8715 699.141 86.942 700.898 85.1045C702.763 83.1293 703.786 81.8815 703.969 81.3612C704.351 80.4429 704.267 80.2671 703.716 80.8337C703.151 81.2779 702.44 81.5539 701.583 81.6618C701.094 81.7235 700.788 81.7621 700.666 81.7775C700.528 81.6705 700.398 81.6248 700.275 81.6402C700.26 81.5178 700.137 81.5332 699.908 81.6864C699.663 81.7173 699.189 81.9013 698.486 82.2385ZM730.78 89.9169L730.596 89.9401L730.78 89.9169ZM730.78 89.9169L730.756 89.7334L730.78 89.9169ZM745.978 84.832C744.481 86.761 743.167 88.6669 742.037 90.5496C741.014 92.2946 739.937 94.1084 738.807 95.9912C737.478 98.2719 736.287 100.659 735.234 103.154C734.043 105.542 732.86 107.99 731.685 110.5C730.754 112.98 730.259 115.466 730.2 117.96C730.385 118.434 731.478 118.234 733.481 117.36C735.484 116.486 738.053 115.168 741.187 113.405C744.322 111.643 747.792 109.59 751.599 107.245C755.391 104.779 759.236 102.243 763.134 99.6388C767.032 97.0343 770.747 94.453 774.278 91.8948C777.917 89.1988 781.02 86.6946 783.587 84.3821C785.269 82.9271 786.958 81.5334 788.655 80.2008C790.351 78.8682 792.194 77.7038 794.181 76.7075C794.413 78.543 794.146 79.8818 793.382 80.7239C793.168 80.9995 792.901 81.344 792.58 81.7573C792.366 82.0329 792.091 82.3162 791.755 82.6072C791.418 82.8982 791.35 83.3419 791.55 83.9383C791.734 84.4123 791.535 84.8103 790.954 85.1321C790.602 85.3007 790.266 85.5917 789.945 86.005C789.624 86.4184 789.235 86.7783 788.776 87.0847C788.562 87.3603 788.295 87.7047 787.974 88.1181C787.653 88.5314 787.325 88.8836 786.988 89.1746C782.204 93.631 777.872 97.7197 773.99 101.441C770.108 105.162 766.195 108.639 762.251 111.87C758.292 114.98 754.057 117.875 749.547 120.557C745.144 123.1 740.029 125.423 734.203 127.524C733.973 127.678 733.736 127.77 733.492 127.801C733.109 127.724 732.795 127.702 732.551 127.733C732.306 127.763 732.053 127.733 731.793 127.642C731.411 127.565 731.097 127.543 730.852 127.574C729.108 127.545 727.502 127.126 726.032 126.316C724.548 125.385 723.147 124.132 721.829 122.557C721.492 121.854 721.117 121.342 720.704 121.021C719.769 119.523 719.461 117.572 719.78 115.17C720.786 111.314 722.259 107.71 724.198 104.358C725.908 101.159 727.618 97.9603 729.329 94.7614C730.901 91.4555 732.604 88.1954 734.436 84.981C734.726 84.323 735.085 83.7183 735.513 83.1672C735.941 82.6161 736.422 81.996 736.957 81.3071C737.155 80.9092 737.415 80.5035 737.736 80.0902C738.041 79.5544 738.285 79.0264 738.468 78.5061C738.864 76.7159 739.575 75.4455 740.599 74.6949C741.745 73.9289 743.099 73.3233 744.659 72.8781C745.24 72.5563 745.767 72.3033 746.241 72.1193C746.838 71.9198 747.419 71.598 747.984 71.1538C748.779 70.5564 749.605 70.2038 750.461 70.0959C751.302 69.8656 752.098 69.7653 752.847 69.7952C753.475 69.8405 753.98 69.9012 754.362 69.9773C754.867 70.038 755.311 70.1064 755.693 70.1825C756.688 70.1815 757.415 70.525 757.874 71.213C758.441 71.7631 758.954 72.3822 759.413 73.0701C759.521 73.9267 759.407 74.5005 759.071 74.7915C758.72 75.9545 758.362 77.0562 757.996 78.0969C757.752 79.122 757.386 80.1627 756.897 81.2187C756.057 82.4433 755.14 83.5533 754.147 84.5487C753.138 85.4216 751.953 85.8817 750.592 85.929C748.878 86.1448 747.341 85.7792 745.978 84.832ZM772.342 126.821L772.273 126.271L772.456 126.247L772.342 126.821ZM846.003 82.4847C846.372 83.4328 846.503 84.4729 846.397 85.6051C846.291 86.7372 845.688 87.8698 844.587 89.003C843.288 90.534 842.051 92.0574 840.874 93.573C839.698 95.0886 838.399 96.6197 836.978 98.1662C835.557 99.7126 833.891 101.29 831.98 102.898C830.069 104.506 827.799 106.222 825.17 108.045C824.253 108.658 822.923 109.447 821.18 110.412C819.559 111.362 818.275 112.021 817.327 112.389C816.011 112.804 814.681 113.096 813.335 113.265C812.096 113.297 810.94 113.008 809.869 112.397C809.211 112.107 808.507 111.947 807.757 111.917C807.13 111.872 806.602 111.627 806.173 111.184C805.836 110.481 805.56 109.77 805.345 109.051C805.237 108.194 805.435 107.299 805.939 106.366C806.091 105.601 806.259 104.958 806.442 104.438C806.365 103.826 806.601 103.237 807.152 102.67C807.595 102.241 807.847 101.774 807.907 101.27C807.953 100.642 807.945 100.084 807.883 99.5945C807.683 98.9981 807.622 98.5086 807.698 98.1261C807.774 97.7436 807.842 97.2998 807.903 96.795C808.071 96.1523 808.238 95.5096 808.406 94.8669C808.681 94.0865 808.902 93.3749 809.069 92.7323C809.039 92.4875 809.015 92.304 809 92.1816C809.107 92.0438 809.153 91.9137 809.137 91.7914C809.09 90.4299 809.165 89.053 809.363 87.6607C809.56 86.2684 809.696 84.8839 809.772 83.507L809.656 82.5892C809.258 82.3907 808.899 82.4982 808.578 82.9115C804.589 86.7705 801.174 90.7436 798.332 94.8309C797.278 96.3312 796.232 97.8926 795.193 99.5152C794.262 101 793.391 102.477 792.582 103.946C792.138 104.375 791.756 104.796 791.436 105.21C791.237 105.608 790.916 106.021 790.473 106.45C789.281 107.843 788.426 109.442 787.908 111.248C787.42 113.298 786.933 115.349 786.445 117.399C785.958 119.45 785.539 121.553 785.189 123.711C784.961 124.858 784.794 125.998 784.688 127.13C784.444 128.156 784.269 129.234 784.163 130.366C783.98 130.887 783.851 131.338 783.774 131.721C783.698 132.103 783.569 132.555 783.386 133.075C782.714 134.651 781.392 135.501 779.418 135.626C778.791 135.581 778.164 135.535 777.537 135.49C776.909 135.445 776.389 135.262 775.976 134.941C775.716 134.849 775.517 134.75 775.379 134.643C775.241 134.536 775.111 134.49 774.989 134.506C774.01 134.629 773.497 134.507 773.451 134.14C773.282 133.788 773.167 133.368 773.105 132.878C772.982 131.899 773.18 131.004 773.699 130.193C774.005 129.657 774.31 129.122 774.616 128.586C774.921 128.05 775.035 127.476 774.958 126.865C774.927 126.62 774.965 126.429 775.072 126.291C775.164 126.031 775.255 125.77 775.347 125.51C775.454 125.373 775.653 125.472 775.944 125.808C776.219 126.022 776.326 125.884 776.265 125.395C776.494 125.241 776.402 125.004 775.989 124.684C775.682 124.225 775.697 123.85 776.033 123.559C776.247 123.284 776.461 123.008 776.675 122.732C776.477 123.13 776.454 123.444 776.607 123.673C776.576 123.429 776.622 123.299 776.744 123.283C776.729 123.161 776.706 122.977 776.675 122.732C776.414 121.647 776.321 120.912 776.398 120.53C776.458 120.025 776.679 119.313 777.061 118.395C777.244 117.875 777.374 117.423 777.45 117.041C777.541 116.781 777.717 116.696 777.977 116.788C778.222 116.757 778.528 116.719 778.895 116.672C778.864 116.428 778.78 116.252 778.642 116.145C777.693 115.519 777.593 114.723 778.341 113.759C778.555 113.483 778.639 113.162 778.593 112.795C778.547 112.428 778.562 112.053 778.638 111.67C778.607 111.425 778.591 111.303 778.591 111.303C778.454 111.196 778.369 111.02 778.338 110.776C777.787 110.348 777.504 110.073 777.489 109.95C777.473 109.828 777.687 109.552 778.13 109.124C779.888 107.286 780.865 105.174 781.061 102.787C781.03 102.543 781.114 102.221 781.313 101.823C781.389 101.441 781.465 101.058 781.541 100.676C781.755 100.4 781.977 100.186 782.206 100.033C782.42 99.7572 782.634 99.4816 782.848 99.206L782.687 99.4127L782.664 99.2291L782.848 99.206C783.168 98.7927 783.275 98.1577 783.167 97.3011C783.136 97.0564 783.044 96.8194 782.891 96.5901C782.738 96.3607 782.653 96.1849 782.638 96.0625C782.973 94.7772 783.255 93.5607 783.483 92.4132C783.696 91.1432 784.039 89.9191 784.512 88.7407C784.893 86.8281 785.327 84.8466 785.815 82.7962C786.302 80.7458 786.797 78.7566 787.3 76.8286C787.346 76.2014 787.399 75.6353 787.459 75.1304C787.504 74.5031 787.55 73.8759 787.595 73.2486C787.64 72.6214 787.747 71.9864 787.914 71.3437C788.082 70.7011 788.25 70.0584 788.417 69.4157C788.63 68.1458 788.851 66.9371 789.079 65.7895C789.308 64.6419 789.459 63.3797 789.534 62.0028C789.824 61.3447 789.992 60.7021 790.037 60.0748C790.205 59.4322 790.373 58.7895 790.54 58.1468C790.845 56.6167 791.088 55.0944 791.27 53.5797C791.559 51.9272 791.848 50.2748 792.137 48.6224C792.533 46.8321 792.922 44.9807 793.302 43.0681C793.683 41.1555 793.88 39.266 793.893 37.3997C794.015 36.3899 793.8 35.6711 793.249 35.2433C792.851 35.0449 792.59 34.4561 792.467 33.4772C792.941 33.2932 793.292 33.1245 793.522 32.9713C793.873 32.8027 794.286 32.6264 794.76 32.4423C795.571 31.9673 796.297 31.8136 796.94 31.9813L797.674 31.8888C798.576 31.1536 799.47 30.8544 800.358 30.9912C801.368 31.1126 802.263 31.3106 803.043 31.5852C804.466 32.0274 805.064 32.8223 804.835 33.9699C804.592 34.9951 804.356 36.0815 804.127 37.229C804.021 38.3612 803.793 39.5087 803.442 40.6717C803.351 40.9318 803.32 41.1843 803.351 41.429C803.367 41.5514 803.267 41.7504 803.053 42.0259C802.657 43.8162 802.323 45.5987 802.049 47.3735C801.882 49.0105 801.532 50.6707 800.998 52.354C800.328 54.9247 799.688 57.7401 799.079 60.8002C798.44 64.61 797.626 68.5041 796.635 72.4825C796.285 73.6455 795.942 74.8697 795.606 76.155C795.378 77.3026 795.096 78.519 794.761 79.8044C794.639 80.8141 794.457 81.8316 794.213 82.8568C794.092 83.8666 793.909 84.8841 793.665 85.9093C793.574 86.1694 793.544 86.4219 793.574 86.6666C793.59 86.789 793.552 86.9802 793.46 87.2404C793.476 87.3627 793.491 87.4851 793.506 87.6075C793.629 87.5921 793.698 87.6455 793.713 87.7679C793.942 87.6147 794.462 87.3006 795.273 86.8255C796.067 86.2282 796.511 85.7994 796.602 85.5392C797.075 84.3608 797.809 83.274 798.802 82.2786C799.795 81.2833 800.789 80.288 801.782 79.2926C802.638 78.1904 803.631 77.195 804.762 76.3066C806 75.2805 807.039 74.1551 807.88 72.9304C808.094 72.6548 808.445 72.4862 808.935 72.4245C809.638 72.0873 810.341 71.7501 811.045 71.4128C811.733 70.9532 812.49 70.5471 813.315 70.1944C814.248 69.704 815.257 69.3282 816.343 69.0671C817.536 68.6681 818.783 68.6975 820.084 69.1552C821.109 69.3989 821.721 69.819 821.921 70.4154C821.998 71.0273 822.067 71.5779 822.129 72.0674C822.19 72.5569 822.191 73.054 822.13 73.5589C821.719 75.2268 821.43 76.8792 821.263 78.5163C821.096 80.1533 820.869 81.798 820.579 83.4505C820.168 85.1183 819.818 86.7785 819.529 88.4309C819.224 89.961 818.928 91.5523 818.639 93.2047C818.548 94.4592 818.396 95.7215 818.183 96.9914C818.077 98.1235 817.926 99.3858 817.728 100.778C818.126 100.977 818.516 101.114 818.899 101.19C819.388 101.128 819.817 101.074 820.184 101.028C821.423 100.996 822.898 100.375 824.611 99.165C826.445 97.9394 828.31 96.4613 830.205 94.7308C832.223 92.9849 834.233 91.1778 836.235 89.3095C838.222 87.3188 839.987 85.5425 841.53 83.9806C841.744 83.7051 841.966 83.4907 842.195 83.3375C842.547 83.1689 842.83 82.9468 843.044 82.6712C843.38 82.3802 843.785 82.1427 844.259 81.9586C844.733 81.7746 845.315 81.95 846.003 82.4847ZM777.866 120.345C777.835 120.1 777.751 119.924 777.613 119.817C777.399 120.093 777.292 120.231 777.292 120.231C777.185 120.368 777.163 120.682 777.224 121.172L777.866 120.345ZM779.031 114.791L778.824 114.63L778.847 114.814C778.863 114.936 778.932 114.99 779.054 114.974L779.031 114.791ZM783.693 95.5567L783.67 95.3731L783.51 95.5798L783.693 95.5567ZM785.179 89.5891L785.156 89.4055L785.179 89.5891ZM782.411 98.7016C782.427 98.824 782.503 98.9386 782.641 99.0456L782.664 99.2291C782.542 99.2446 782.473 99.1911 782.457 99.0687C782.213 99.0996 782.151 99.1073 782.274 99.0919C782.381 98.9541 782.427 98.824 782.411 98.7016Z" fill="#FFDA1A"/>
</g>
<defs>
<filter id="filter0_d_1166_1493" x="0.910156" y="0.941406" width="856.26" height="281.697" filterUnits="userSpaceOnUse" color-interpolation-filters="sRGB">
<feFlood flood-opacity="0" result="BackgroundImageFix"/>
<feColorMatrix in="SourceAlpha" type="matrix" values="0 0 0 0 0 0 0 0 0 0 0 0 0 0 0 0 0 0 127 0" result="hardAlpha"/>
<feOffset dy="9.25011"/>
<feColorMatrix type="matrix" values="0 0 0 0 0.117647 0 0 0 0 0.133333 0 0 0 0 0.666667 0 0 0 1 0"/>
<feBlend mode="normal" in2="BackgroundImageFix" result="effect1_dropShadow_1166_1493"/>
<feBlend mode="normal" in="SourceGraphic" in2="effect1_dropShadow_1166_1493" result="shape"/>
</filter>
</defs>
</svg>
