<svg width="2177" height="556" viewBox="0 0 2177 556" fill="none" xmlns="http://www.w3.org/2000/svg">
<path d="M1892.75 111.249C1921.01 139.516 1943.44 173.074 1958.74 210.006C1974.03 246.939 1981.91 286.523 1981.91 326.499C1981.91 366.474 1974.03 406.058 1958.74 442.991C1943.44 479.923 1921.01 513.481 1892.75 541.748L1849.7 498.698C1872.31 476.084 1890.25 449.238 1902.49 419.692C1914.73 390.146 1921.03 358.479 1921.03 326.499C1921.03 294.518 1914.73 262.851 1902.49 233.305C1890.25 203.759 1872.31 176.913 1849.7 154.299L1892.75 111.249Z" fill="#10375C"/>
<path d="M911.249 543.508C882.982 515.241 860.56 481.683 845.262 444.75C829.964 407.818 822.09 368.234 822.09 328.258C822.09 288.283 829.964 248.699 845.262 211.766C860.56 174.834 882.982 141.276 911.249 113.009L954.299 156.059C931.686 178.672 913.747 205.519 901.509 235.065C889.271 264.611 882.972 296.278 882.972 328.258C882.972 360.239 889.271 391.906 901.509 421.452C913.747 450.998 931.686 477.844 954.299 500.458L911.249 543.508Z" fill="#10375C"/>
<path d="M74.7 271.332C86.1 271.332 96.8 273.032 106.8 276.432C116.8 279.832 125.6 284.632 133.2 290.832L115.8 317.532C102.8 309.332 89.7 305.232 76.5 305.232C70.3 305.232 65.5 306.332 62.1 308.532C58.9 310.532 57.3 313.432 57.3 317.232C57.3 320.232 58 322.732 59.4 324.732C61 326.532 64.1 328.432 68.7 330.432C73.3 332.432 80.4 334.832 90 337.632C106.6 342.432 118.9 348.732 126.9 356.532C135.1 364.132 139.2 374.732 139.2 388.332C139.2 399.132 136.1 408.532 129.9 416.532C123.7 424.332 115.2 430.332 104.4 434.532C93.6 438.732 81.6 440.832 68.4 440.832C55 440.832 42.5 438.732 30.9 434.532C19.5 430.332 9.8 424.532 1.8 417.132L24.9 391.332C38.3 401.732 52.4 406.932 67.2 406.932C74.4 406.932 80 405.632 84 403.032C88.2 400.432 90.3 396.732 90.3 391.932C90.3 388.132 89.5 385.132 87.9 382.932C86.3 380.732 83.2 378.732 78.6 376.932C74 374.932 66.7 372.532 56.7 369.732C40.9 365.132 29.1 358.732 21.3 350.532C13.5 342.332 9.6 332.132 9.6 319.932C9.6 310.732 12.2 302.532 17.4 295.332C22.8 287.932 30.4 282.132 40.2 277.932C50.2 273.532 61.7 271.332 74.7 271.332ZM298.02 435.732H256.92L254.82 415.632C243.22 432.432 227.12 440.832 206.52 440.832C191.92 440.832 180.82 436.432 173.22 427.632C165.82 418.832 162.12 406.532 162.12 390.732V276.432H209.52V384.732C209.52 392.532 210.72 398.032 213.12 401.232C215.72 404.232 219.62 405.732 224.82 405.732C234.82 405.732 243.42 399.532 250.62 387.132V276.432H298.02V435.732ZM425.299 271.332C445.299 271.332 460.199 278.732 469.999 293.532C479.799 308.332 484.699 329.032 484.699 355.632C484.699 372.032 482.099 386.732 476.899 399.732C471.899 412.532 464.599 422.632 454.999 430.032C445.399 437.232 434.199 440.832 421.399 440.832C405.399 440.832 392.499 435.332 382.699 424.332V497.232L335.299 502.332V276.432H376.999L379.399 294.132C385.599 286.332 392.699 280.632 400.699 277.032C408.699 273.232 416.899 271.332 425.299 271.332ZM406.999 406.032C425.999 406.032 435.499 389.432 435.499 356.232C435.499 337.432 433.399 324.432 429.199 317.232C424.999 309.832 418.699 306.132 410.299 306.132C404.899 306.132 399.799 307.732 394.999 310.932C390.399 314.132 386.299 318.732 382.699 324.732V391.932C389.099 401.332 397.199 406.032 406.999 406.032ZM653.203 352.932C653.203 359.532 652.903 365.232 652.303 370.032H553.603C555.203 383.432 559.003 392.832 565.003 398.232C571.003 403.632 579.303 406.332 589.903 406.332C596.303 406.332 602.503 405.232 608.503 403.032C614.503 400.632 621.003 397.032 628.003 392.232L647.503 418.632C628.903 433.432 608.203 440.832 585.403 440.832C559.603 440.832 539.803 433.232 526.003 418.032C512.203 402.832 505.303 382.432 505.303 356.832C505.303 340.632 508.203 326.132 514.003 313.332C519.803 300.332 528.303 290.132 539.503 282.732C550.703 275.132 564.103 271.332 579.703 271.332C602.703 271.332 620.703 278.532 633.703 292.932C646.703 307.332 653.203 327.332 653.203 352.932ZM606.703 339.432C606.303 315.032 597.703 302.832 580.903 302.832C572.703 302.832 566.303 305.832 561.703 311.832C557.303 317.832 554.603 327.732 553.603 341.532H606.703V339.432ZM766.23 271.932C772.03 271.932 777.33 272.632 782.13 274.032L774.63 319.932C768.63 318.532 763.83 317.832 760.23 317.832C750.83 317.832 743.63 321.132 738.63 327.732C733.83 334.132 730.03 343.832 727.23 356.832V435.732H679.83V276.432H721.23L725.13 307.332C728.73 296.332 734.13 287.732 741.33 281.532C748.73 275.132 757.03 271.932 766.23 271.932Z" fill="#10375C"/>
<path d="M2063.75 68.3325C2063.75 71.6325 2063.6 74.4825 2063.3 76.8825H2013.95C2014.75 83.5825 2016.65 88.2825 2019.65 90.9825C2022.65 93.6825 2026.8 95.0325 2032.1 95.0325C2035.3 95.0325 2038.4 94.4825 2041.4 93.3825C2044.4 92.1825 2047.65 90.3825 2051.15 87.9825L2060.9 101.182C2051.6 108.582 2041.25 112.282 2029.85 112.282C2016.95 112.282 2007.05 108.482 2000.15 100.882C1993.25 93.2825 1989.8 83.0825 1989.8 70.2825C1989.8 62.1825 1991.25 54.9325 1994.15 48.5325C1997.05 42.0325 2001.3 36.9325 2006.9 33.2325C2012.5 29.4325 2019.2 27.5325 2027 27.5325C2038.5 27.5325 2047.5 31.1325 2054 38.3325C2060.5 45.5325 2063.75 55.5325 2063.75 68.3325ZM2040.5 61.5825C2040.3 49.3825 2036 43.2825 2027.6 43.2825C2023.5 43.2825 2020.3 44.7825 2018 47.7825C2015.8 50.7825 2014.45 55.7325 2013.95 62.6325H2040.5V61.5825ZM2155.36 5.78248L2126.41 109.732H2095.81L2065.81 5.78248H2091.76L2111.56 90.5325L2130.16 5.78248H2155.36Z" fill="#10375C"/>
<path d="M74.7 271.332C86.1 271.332 96.8 273.032 106.8 276.432C116.8 279.832 125.6 284.632 133.2 290.832L115.8 317.532C102.8 309.332 89.7 305.232 76.5 305.232C70.3 305.232 65.5 306.332 62.1 308.532C58.9 310.532 57.3 313.432 57.3 317.232C57.3 320.232 58 322.732 59.4 324.732C61 326.532 64.1 328.432 68.7 330.432C73.3 332.432 80.4 334.832 90 337.632C106.6 342.432 118.9 348.732 126.9 356.532C135.1 364.132 139.2 374.732 139.2 388.332C139.2 399.132 136.1 408.532 129.9 416.532C123.7 424.332 115.2 430.332 104.4 434.532C93.6 438.732 81.6 440.832 68.4 440.832C55 440.832 42.5 438.732 30.9 434.532C19.5 430.332 9.8 424.532 1.8 417.132L24.9 391.332C38.3 401.732 52.4 406.932 67.2 406.932C74.4 406.932 80 405.632 84 403.032C88.2 400.432 90.3 396.732 90.3 391.932C90.3 388.132 89.5 385.132 87.9 382.932C86.3 380.732 83.2 378.732 78.6 376.932C74 374.932 66.7 372.532 56.7 369.732C40.9 365.132 29.1 358.732 21.3 350.532C13.5 342.332 9.6 332.132 9.6 319.932C9.6 310.732 12.2 302.532 17.4 295.332C22.8 287.932 30.4 282.132 40.2 277.932C50.2 273.532 61.7 271.332 74.7 271.332ZM298.02 435.732H256.92L254.82 415.632C243.22 432.432 227.12 440.832 206.52 440.832C191.92 440.832 180.82 436.432 173.22 427.632C165.82 418.832 162.12 406.532 162.12 390.732V276.432H209.52V384.732C209.52 392.532 210.72 398.032 213.12 401.232C215.72 404.232 219.62 405.732 224.82 405.732C234.82 405.732 243.42 399.532 250.62 387.132V276.432H298.02V435.732ZM425.299 271.332C445.299 271.332 460.199 278.732 469.999 293.532C479.799 308.332 484.699 329.032 484.699 355.632C484.699 372.032 482.099 386.732 476.899 399.732C471.899 412.532 464.599 422.632 454.999 430.032C445.399 437.232 434.199 440.832 421.399 440.832C405.399 440.832 392.499 435.332 382.699 424.332V497.232L335.299 502.332V276.432H376.999L379.399 294.132C385.599 286.332 392.699 280.632 400.699 277.032C408.699 273.232 416.899 271.332 425.299 271.332ZM406.999 406.032C425.999 406.032 435.499 389.432 435.499 356.232C435.499 337.432 433.399 324.432 429.199 317.232C424.999 309.832 418.699 306.132 410.299 306.132C404.899 306.132 399.799 307.732 394.999 310.932C390.399 314.132 386.299 318.732 382.699 324.732V391.932C389.099 401.332 397.199 406.032 406.999 406.032ZM653.203 352.932C653.203 359.532 652.903 365.232 652.303 370.032H553.603C555.203 383.432 559.003 392.832 565.003 398.232C571.003 403.632 579.303 406.332 589.903 406.332C596.303 406.332 602.503 405.232 608.503 403.032C614.503 400.632 621.003 397.032 628.003 392.232L647.503 418.632C628.903 433.432 608.203 440.832 585.403 440.832C559.603 440.832 539.803 433.232 526.003 418.032C512.203 402.832 505.303 382.432 505.303 356.832C505.303 340.632 508.203 326.132 514.003 313.332C519.803 300.332 528.303 290.132 539.503 282.732C550.703 275.132 564.103 271.332 579.703 271.332C602.703 271.332 620.703 278.532 633.703 292.932C646.703 307.332 653.203 327.332 653.203 352.932ZM606.703 339.432C606.303 315.032 597.703 302.832 580.903 302.832C572.703 302.832 566.303 305.832 561.703 311.832C557.303 317.832 554.603 327.732 553.603 341.532H606.703V339.432ZM766.23 271.932C772.03 271.932 777.33 272.632 782.13 274.032L774.63 319.932C768.63 318.532 763.83 317.832 760.23 317.832C750.83 317.832 743.63 321.132 738.63 327.732C733.83 334.132 730.03 343.832 727.23 356.832V435.732H679.83V276.432H721.23L725.13 307.332C728.73 296.332 734.13 287.732 741.33 281.532C748.73 275.132 757.03 271.932 766.23 271.932Z" fill="#10375C"/>
<path d="M1113.9 214.032V435.732H1089.6L1086.9 413.832C1081.7 421.832 1075.2 428.132 1067.4 432.732C1059.6 437.132 1050.9 439.332 1041.3 439.332C1022.5 439.332 1007.8 431.932 997.2 417.132C986.8 402.332 981.6 382.432 981.6 357.432C981.6 341.232 984.1 326.832 989.1 314.232C994.1 301.632 1001.3 291.832 1010.7 284.832C1020.1 277.632 1031.1 274.032 1043.7 274.032C1059.9 274.032 1074.1 280.532 1086.3 293.532V210.732L1113.9 214.032ZM1047.3 417.432C1055.7 417.432 1062.9 415.532 1068.9 411.732C1074.9 407.732 1080.7 401.832 1086.3 394.032V316.632C1081.1 309.832 1075.5 304.732 1069.5 301.332C1063.7 297.732 1057.1 295.932 1049.7 295.932C1037.5 295.932 1028 301.032 1021.2 311.232C1014.6 321.432 1011.3 336.632 1011.3 356.832C1011.3 377.232 1014.4 392.432 1020.6 402.432C1026.8 412.432 1035.7 417.432 1047.3 417.432ZM1198.4 277.632V435.732H1170.8V277.632H1198.4ZM1184.3 201.732C1190.1 201.732 1194.8 203.532 1198.4 207.132C1202 210.732 1203.8 215.232 1203.8 220.632C1203.8 226.032 1202 230.532 1198.4 234.132C1194.8 237.532 1190.1 239.232 1184.3 239.232C1178.7 239.232 1174.1 237.532 1170.5 234.132C1166.9 230.532 1165.1 226.032 1165.1 220.632C1165.1 215.232 1166.9 210.732 1170.5 207.132C1174.1 203.532 1178.7 201.732 1184.3 201.732ZM1382.96 284.832C1376.96 286.832 1370.36 288.132 1363.16 288.732C1355.96 289.332 1347.16 289.632 1336.76 289.632C1355.36 298.032 1364.66 311.332 1364.66 329.532C1364.66 345.332 1359.26 358.232 1348.46 368.232C1337.66 378.232 1322.96 383.232 1304.36 383.232C1297.16 383.232 1290.46 382.232 1284.26 380.232C1281.86 381.832 1279.96 384.032 1278.56 386.832C1277.16 389.432 1276.46 392.132 1276.46 394.932C1276.46 403.532 1283.36 407.832 1297.16 407.832H1322.36C1332.96 407.832 1342.36 409.732 1350.56 413.532C1358.76 417.332 1365.06 422.532 1369.46 429.132C1374.06 435.732 1376.36 443.232 1376.36 451.632C1376.36 467.032 1370.06 478.832 1357.46 487.032C1344.86 495.432 1326.46 499.632 1302.26 499.632C1285.26 499.632 1271.76 497.832 1261.76 494.232C1251.96 490.832 1244.96 485.632 1240.76 478.632C1236.56 471.632 1234.46 462.632 1234.46 451.632H1259.36C1259.36 458.032 1260.56 463.032 1262.96 466.632C1265.36 470.432 1269.66 473.232 1275.86 475.032C1282.06 477.032 1290.86 478.032 1302.26 478.032C1318.86 478.032 1330.66 475.932 1337.66 471.732C1344.86 467.732 1348.46 461.632 1348.46 453.432C1348.46 446.032 1345.66 440.432 1340.06 436.632C1334.46 432.832 1326.66 430.932 1316.66 430.932H1291.76C1278.36 430.932 1268.16 428.132 1261.16 422.532C1254.36 416.732 1250.96 409.532 1250.96 400.932C1250.96 395.732 1252.46 390.732 1255.46 385.932C1258.46 381.132 1262.76 376.832 1268.36 373.032C1259.16 368.232 1252.36 362.332 1247.96 355.332C1243.76 348.132 1241.66 339.432 1241.66 329.232C1241.66 318.632 1244.26 309.132 1249.46 300.732C1254.86 292.332 1262.16 285.832 1271.36 281.232C1280.76 276.432 1291.16 274.032 1302.56 274.032C1314.96 274.232 1325.36 273.832 1333.76 272.832C1342.16 271.632 1349.06 270.132 1354.46 268.332C1360.06 266.332 1366.86 263.532 1374.86 259.932L1382.96 284.832ZM1302.56 293.832C1292.16 293.832 1284.06 297.132 1278.26 303.732C1272.66 310.132 1269.86 318.632 1269.86 329.232C1269.86 340.032 1272.76 348.732 1278.56 355.332C1284.36 361.732 1292.56 364.932 1303.16 364.932C1313.96 364.932 1322.16 361.832 1327.76 355.632C1333.56 349.232 1336.46 340.332 1336.46 328.932C1336.46 305.532 1325.16 293.832 1302.56 293.832ZM1438.92 277.632V435.732H1411.32V277.632H1438.92ZM1424.82 201.732C1430.62 201.732 1435.32 203.532 1438.92 207.132C1442.52 210.732 1444.32 215.232 1444.32 220.632C1444.32 226.032 1442.52 230.532 1438.92 234.132C1435.32 237.532 1430.62 239.232 1424.82 239.232C1419.22 239.232 1414.62 237.532 1411.02 234.132C1407.42 230.532 1405.62 226.032 1405.62 220.632C1405.62 215.232 1407.42 210.732 1411.02 207.132C1414.62 203.532 1419.22 201.732 1424.82 201.732ZM1575.79 428.532C1565.39 435.732 1553.59 439.332 1540.39 439.332C1526.99 439.332 1516.49 435.532 1508.89 427.932C1501.49 420.132 1497.79 408.932 1497.79 394.332V298.932H1470.19V277.632H1497.79V241.932L1525.39 238.632V277.632H1562.89L1559.89 298.932H1525.39V393.132C1525.39 401.332 1526.79 407.332 1529.59 411.132C1532.59 414.732 1537.49 416.532 1544.29 416.532C1550.49 416.532 1557.49 414.432 1565.29 410.232L1575.79 428.532ZM1708.84 398.832C1708.84 405.232 1709.94 410.032 1712.14 413.232C1714.34 416.232 1717.64 418.532 1722.04 420.132L1715.74 439.332C1707.54 438.332 1700.94 436.032 1695.94 432.432C1690.94 428.832 1687.24 423.232 1684.84 415.632C1674.24 431.432 1658.54 439.332 1637.74 439.332C1622.14 439.332 1609.84 434.932 1600.84 426.132C1591.84 417.332 1587.34 405.832 1587.34 391.632C1587.34 374.832 1593.34 361.932 1605.34 352.932C1617.54 343.932 1634.74 339.432 1656.94 339.432H1681.24V327.732C1681.24 316.532 1678.54 308.532 1673.14 303.732C1667.74 298.932 1659.44 296.532 1648.24 296.532C1636.64 296.532 1622.44 299.332 1605.64 304.932L1598.74 284.832C1618.34 277.632 1636.54 274.032 1653.34 274.032C1671.94 274.032 1685.84 278.632 1695.04 287.832C1704.24 296.832 1708.84 309.732 1708.84 326.532V398.832ZM1644.04 418.632C1659.84 418.632 1672.24 410.432 1681.24 394.032V357.732H1660.54C1631.34 357.732 1616.74 368.532 1616.74 390.132C1616.74 399.532 1619.04 406.632 1623.64 411.432C1628.24 416.232 1635.04 418.632 1644.04 418.632ZM1794.09 439.332C1783.89 439.332 1775.79 436.332 1769.79 430.332C1763.99 424.132 1761.09 415.532 1761.09 404.532V214.032L1788.69 210.732V403.932C1788.69 408.332 1789.39 411.532 1790.79 413.532C1792.39 415.532 1794.99 416.532 1798.59 416.532C1802.39 416.532 1805.79 415.932 1808.79 414.732L1815.99 433.932C1809.39 437.532 1802.09 439.332 1794.09 439.332Z" fill="#10375C"/>
</svg>
