<svg width="211" height="38" viewBox="0 0 211 38" fill="none" xmlns="http://www.w3.org/2000/svg">
<path d="M19.7748 24.5245C19.7748 20.3801 16.2224 19.3933 12.3543 18.1302C9.19665 17.104 7.22312 16.5119 7.22312 15.5647C7.22312 14.7752 8.052 14.42 9.55188 14.42C11.7228 14.42 12.7885 15.4857 12.7885 16.9067H19.1038C19.1038 13.0385 16.3408 9.68353 9.59135 9.68353C4.10494 9.68353 0.907824 11.736 0.907824 15.2884C0.907824 19.7485 5.44694 20.7353 9.15718 21.9589C12.3543 23.0246 13.4595 23.3009 13.4595 24.3271C13.4595 25.2744 12.3938 25.6691 10.6965 25.6691C7.381 25.6691 6.31529 24.3271 6.31529 22.7878H0C0 27.4453 3.15765 30.4056 10.4992 30.4056C17.3671 30.4056 19.7748 27.8795 19.7748 24.5245Z" fill="white"/>
<path d="M32.5639 24.8797C29.5246 24.8797 28.4589 23.4982 28.4589 19.8669V10.0782H22.1436V20.8537C22.1436 27.0111 25.2223 30.4056 30.314 30.4056C34.5769 30.4056 37.0635 27.6032 37.8529 24.0508H39.4317L38.2476 27.6032V30.0109H44.5629V10.0782H38.2476V17.4592C38.2476 23.0641 35.9978 24.8797 32.5639 24.8797Z" fill="white"/>
<path d="M47.7085 10.0782V37.5103H54.0238V28.7873L52.8397 25.2349H54.4185C55.4448 27.8795 57.3394 30.4056 62.2732 30.4056C68.0359 30.4056 70.9172 25.7086 70.9172 20.0643C70.9172 14.42 68.0359 9.68353 62.2732 9.68353C57.3394 9.68353 55.4448 12.2097 54.4185 14.8542H52.8397L54.0238 11.3018V10.0782H47.7085ZM54.0238 20.0643C54.0238 16.6698 55.9184 15.2094 59.3129 15.2094C62.7074 15.2094 64.6019 16.6698 64.6019 20.0643C64.6019 23.4588 62.7074 24.8797 59.3129 24.8797C55.9184 24.8797 54.0238 23.4588 54.0238 20.0643Z" fill="white"/>
<path d="M72.8988 19.788C72.8988 25.4323 76.4117 30.4056 84.069 30.4056C90.9763 30.4056 94.2524 25.8665 94.6471 22.9851H88.3318C87.9371 24.485 86.2793 25.2744 84.069 25.2744C80.4771 25.2744 78.8194 23.6561 78.8194 21.3668H93.9366V19.3933C93.9366 13.3543 89.5948 9.68353 83.398 9.68353C77.2011 9.68353 72.8988 13.4727 72.8988 19.788ZM78.8194 17.8145C78.8194 16.3146 79.8851 14.8147 83.398 14.8147C86.9108 14.8147 88.016 16.3146 88.016 17.8145H78.8194Z" fill="white"/>
<path d="M97.3937 30.0109H103.709V15.3673L113.853 15.6041V10.0782L100.788 9.76248C98.6173 9.72301 97.3937 10.9071 97.3937 13.078V30.0109Z" fill="white"/>
<path d="M136.59 22.6354L136.639 22.0904H136.092H132.816H132.384L132.321 22.5175C132.06 24.2876 131.355 25.4231 130.431 26.1245C129.498 26.833 128.284 27.1426 126.935 27.1426C124.739 27.1426 123.19 26.3491 122.18 25.1198C121.158 23.8763 120.646 22.1349 120.646 20.1827C120.646 18.2513 121.158 16.5197 122.179 15.2809C123.19 14.0559 124.739 13.2622 126.935 13.2622C128.284 13.2622 129.498 13.5718 130.431 14.2804C131.355 14.9817 132.06 16.1173 132.321 17.8874L132.384 18.3145H132.816H136.092H136.639L136.59 17.7695C136.32 14.7755 134.897 12.6918 133.031 11.3678C131.181 10.0541 128.914 9.49929 126.935 9.49929C123.631 9.49929 120.988 10.6828 119.173 12.6338C117.363 14.5798 116.409 17.2533 116.409 20.1827C116.409 23.131 117.362 25.8144 119.172 27.7656C120.988 29.722 123.631 30.9056 126.935 30.9056C128.914 30.9056 131.181 30.3508 133.031 29.0371C134.897 27.7131 136.32 25.6294 136.59 22.6354ZM185.085 30.5109H185.585V30.0109V1V0.5H185.085H181.849H181.349V1V13.2754V13.3359L181.363 13.3946L181.625 14.4615C180.482 11.6161 177.749 9.49929 173.521 9.49929C170.542 9.49929 168.066 10.6513 166.339 12.5819C164.617 14.5073 163.666 17.1775 163.666 20.1827C163.666 23.2069 164.617 25.8869 166.339 27.8176C168.065 29.7535 170.542 30.9056 173.521 30.9056C177.74 30.9056 180.471 28.7974 181.619 25.989L181.364 27.0083L181.349 27.068V27.1295V30.0109V30.5109H181.849H185.085ZM209.663 23.2628L209.816 22.643H209.178H205.941H205.546L205.455 23.0278C205.122 24.4319 204.459 25.4671 203.532 26.1558C202.601 26.8471 201.361 27.2216 199.823 27.2216C197.516 27.2216 196.008 26.4676 195.043 25.3351C194.161 24.2993 193.689 22.8937 193.534 21.3142H208.507H209.007V20.8142V19.5512C209.007 16.4311 208.067 13.9069 206.358 12.1609C204.648 10.414 202.22 9.49929 199.35 9.49929C196.457 9.49929 193.943 10.4451 192.151 12.2524C190.359 14.0601 189.337 16.6822 189.337 19.9459C189.337 22.8485 190.098 25.5907 191.814 27.6156C193.542 29.6538 196.187 30.9056 199.823 30.9056C203.067 30.9056 205.345 29.8023 206.908 28.2712C208.459 26.7514 209.274 24.842 209.663 23.2628ZM139.267 20.1827C139.267 26.1744 143.588 30.9056 150.148 30.9056C156.671 30.9056 160.949 26.1705 160.949 20.1827C160.949 14.2331 156.67 9.49929 150.148 9.49929C143.589 9.49929 139.267 14.2292 139.267 20.1827ZM143.503 20.1827C143.503 18.2489 144.094 16.5199 145.202 15.2811C146.302 14.0501 147.948 13.2622 150.148 13.2622C152.327 13.2622 153.962 14.0491 155.058 15.2804C156.161 16.5194 156.752 18.2488 156.752 20.1827C156.752 22.1374 156.16 23.8767 155.058 25.1203C153.962 26.3558 152.326 27.1426 150.148 27.1426C147.948 27.1426 146.302 26.3549 145.202 25.1195C144.095 23.8762 143.503 22.1374 143.503 20.1827ZM181.349 20.1827C181.349 22.6973 180.559 24.4154 179.348 25.5104C178.128 26.6133 176.415 27.1426 174.468 27.1426C172.521 27.1426 170.895 26.6142 169.757 25.5207C168.623 24.4312 167.903 22.7122 167.903 20.1827C167.903 17.674 168.622 15.9649 169.756 14.8799C170.895 13.7907 172.521 13.2622 174.468 13.2622C176.415 13.2622 178.128 13.7916 179.348 14.8903C180.559 15.9807 181.349 17.689 181.349 20.1827ZM193.518 17.8671C193.764 15.2591 195.933 13.2228 199.35 13.2228C201.194 13.2228 202.558 13.8071 203.46 14.7135C204.26 15.5173 204.732 16.6095 204.83 17.8671H193.518Z" stroke="white"/>
</svg>
