<svg width="258" height="65" viewBox="0 0 258 65" fill="none" xmlns="http://www.w3.org/2000/svg">
<path d="M11.6375 22.3882C13.4135 22.3882 15.0804 22.653 16.6383 23.1827C18.1962 23.7124 19.5672 24.4602 20.7512 25.4261L18.0404 29.5857C16.0152 28.3082 13.9743 27.6695 11.9179 27.6695C10.952 27.6695 10.2042 27.8408 9.67453 28.1836C9.17601 28.4951 8.92674 28.9469 8.92674 29.5389C8.92674 30.0063 9.0358 30.3958 9.2539 30.7074C9.50316 30.9878 9.98611 31.2838 10.7027 31.5954C11.4194 31.9069 12.5255 32.2808 14.0211 32.717C16.6072 33.4648 18.5234 34.4463 19.7697 35.6615C21.0472 36.8455 21.6859 38.4968 21.6859 40.6156C21.6859 42.2981 21.203 43.7625 20.2371 45.0088C19.2712 46.224 17.947 47.1587 16.2644 47.8131C14.5819 48.4674 12.7124 48.7945 10.656 48.7945C8.56843 48.7945 6.62106 48.4674 4.8139 47.8131C3.0379 47.1587 1.52674 46.2552 0.280421 45.1023L3.87916 41.0829C5.96674 42.7032 8.16337 43.5133 10.4691 43.5133C11.5907 43.5133 12.4632 43.3107 13.0863 42.9057C13.7406 42.5006 14.0678 41.9242 14.0678 41.1764C14.0678 40.5844 13.9432 40.117 13.6939 39.7743C13.4446 39.4316 12.9617 39.12 12.2451 38.8396C11.5284 38.528 10.3912 38.1541 8.83327 37.7179C6.37179 37.0013 4.53348 36.0042 3.31832 34.7267C2.10316 33.4493 1.49558 31.8602 1.49558 29.9596C1.49558 28.5263 1.90063 27.2488 2.71074 26.1271C3.552 24.9743 4.736 24.0707 6.26274 23.4164C7.82064 22.7309 9.61222 22.3882 11.6375 22.3882ZM46.4283 48H40.0254L39.6982 44.8686C37.8911 47.4859 35.3829 48.7945 32.1736 48.7945C29.8991 48.7945 28.1698 48.1091 26.9858 46.7381C25.833 45.3672 25.2565 43.4509 25.2565 40.9895V23.1827H32.641V40.0547C32.641 41.2699 32.8279 42.1267 33.2018 42.6253C33.6069 43.0926 34.2144 43.3263 35.0245 43.3263C36.5824 43.3263 37.9222 42.3604 39.0439 40.4286V23.1827H46.4283V48ZM66.2572 22.3882C69.373 22.3882 71.6942 23.541 73.221 25.8467C74.7477 28.1524 75.5111 31.3773 75.5111 35.5213C75.5111 38.0762 75.106 40.3663 74.2959 42.3916C73.517 44.3857 72.3797 45.9592 70.8841 47.112C69.3886 48.2337 67.6437 48.7945 65.6496 48.7945C63.157 48.7945 61.1473 47.9377 59.6206 46.224V57.5811L52.2361 58.3756V23.1827H58.7326L59.1064 25.9402C60.0723 24.725 61.1784 23.837 62.4248 23.2762C63.6711 22.6842 64.9486 22.3882 66.2572 22.3882ZM63.4062 43.373C66.3662 43.373 67.8462 40.7869 67.8462 35.6147C67.8462 32.6859 67.5191 30.6606 66.8648 29.5389C66.2105 28.3861 65.229 27.8097 63.9203 27.8097C63.0791 27.8097 62.2846 28.0589 61.5368 28.5575C60.8201 29.056 60.1814 29.7726 59.6206 30.7074V41.1764C60.6176 42.6408 61.8795 43.373 63.4062 43.373ZM101.762 35.1006C101.762 36.1288 101.716 37.0168 101.622 37.7646H86.2456C86.4949 39.8522 87.0869 41.3166 88.0216 42.1579C88.9563 42.9992 90.2494 43.4198 91.9008 43.4198C92.8978 43.4198 93.8637 43.2484 94.7984 42.9057C95.7332 42.5318 96.7458 41.9709 97.8363 41.2232L100.874 45.336C97.9766 47.6417 94.7517 48.7945 91.1997 48.7945C87.1803 48.7945 84.0957 47.6105 81.9458 45.2425C79.7959 42.8745 78.721 39.6964 78.721 35.7082C78.721 33.1844 79.1727 30.9255 80.0763 28.9314C80.9799 26.9061 82.3041 25.317 84.049 24.1642C85.7938 22.9802 87.8814 22.3882 90.3117 22.3882C93.8949 22.3882 96.6991 23.5099 98.7243 25.7532C100.75 27.9966 101.762 31.1124 101.762 35.1006ZM94.518 32.9975C94.4557 29.1962 93.1159 27.2956 90.4987 27.2956C89.2212 27.2956 88.2241 27.7629 87.5075 28.6977C86.822 29.6324 86.4014 31.1747 86.2456 33.3246H94.518V32.9975ZM119.371 22.4817C120.274 22.4817 121.1 22.5907 121.848 22.8088L120.679 29.9596C119.745 29.7415 118.997 29.6324 118.436 29.6324C116.972 29.6324 115.85 30.1465 115.071 31.1747C114.323 32.1718 113.731 33.6829 113.295 35.7082V48H105.911V23.1827H112.36L112.968 27.9966C113.529 26.2829 114.37 24.9431 115.492 23.9772C116.644 22.9802 117.937 22.4817 119.371 22.4817Z" fill="#F4F6FF"/>
<path d="M139.629 11.0311C137.416 14.2092 135.812 17.3873 134.815 20.5655C133.818 23.7124 133.319 27.4046 133.319 31.6421C133.319 35.8796 133.818 39.5874 134.815 42.7655C135.812 45.9124 137.416 49.0749 139.629 52.2531L134.908 55.4312C132.883 52.627 131.263 50.1966 130.048 48.1402C128.832 46.1149 127.82 43.7314 127.01 40.9895C126.231 38.2476 125.841 35.1318 125.841 31.6421C125.841 28.1524 126.231 25.0366 127.01 22.2947C127.82 19.5528 128.832 17.1692 130.048 15.144C131.263 13.0876 132.883 10.6572 134.908 7.85302L139.629 11.0311ZM247.58 7.85302C249.605 10.6884 251.21 13.1187 252.394 15.144C253.609 17.1692 254.606 19.5528 255.385 22.2947C256.195 25.0366 256.6 28.1524 256.6 31.6421C256.6 35.1318 256.195 38.2476 255.385 40.9895C254.606 43.7314 253.609 46.1149 252.394 48.1402C251.21 50.1655 249.605 52.5958 247.58 55.4312L242.859 52.2531C245.072 49.0438 246.676 45.8657 247.673 42.7187C248.67 39.5406 249.169 35.8484 249.169 31.6421C249.169 27.4358 248.67 23.7591 247.673 20.6122C246.676 17.4341 245.072 14.2404 242.859 11.0311L247.58 7.85302Z" fill="#30E1B9"/>
<path d="M153.612 22.8088C155.077 22.8088 156.416 23.0269 157.631 23.4631C158.847 23.8682 160.015 24.5381 161.137 25.4728L159.08 28.1836C158.208 27.5604 157.351 27.1086 156.51 26.8282C155.7 26.5166 154.796 26.3608 153.799 26.3608C151.805 26.3608 150.247 27.1554 149.125 28.7444C148.035 30.3335 147.49 32.6859 147.49 35.8017C147.49 38.9175 148.035 41.2232 149.125 42.7187C150.216 44.1832 151.774 44.9154 153.799 44.9154C154.765 44.9154 155.653 44.7752 156.463 44.4947C157.273 44.1832 158.177 43.7002 159.174 43.0459L161.137 45.8501C158.893 47.6573 156.385 48.5608 153.612 48.5608C150.278 48.5608 147.645 47.4392 145.714 45.1958C143.813 42.9524 142.863 39.8522 142.863 35.8951C142.863 33.2779 143.299 30.9878 144.171 29.0248C145.044 27.0619 146.274 25.5351 147.863 24.4446C149.484 23.3541 151.4 22.8088 153.612 22.8088ZM175.298 22.8088C178.757 22.8088 181.436 23.9617 183.337 26.2674C185.269 28.573 186.235 31.7044 186.235 35.6615C186.235 38.2164 185.799 40.4754 184.926 42.4383C184.054 44.3701 182.792 45.8813 181.14 46.9718C179.489 48.0312 177.526 48.5608 175.252 48.5608C171.793 48.5608 169.098 47.408 167.166 45.1023C165.234 42.7966 164.268 39.6653 164.268 35.7082C164.268 33.1533 164.705 30.9099 165.577 28.9781C166.45 27.0151 167.711 25.504 169.363 24.4446C171.014 23.3541 172.993 22.8088 175.298 22.8088ZM175.298 26.2674C171.03 26.2674 168.895 29.4143 168.895 35.7082C168.895 41.9709 171.014 45.1023 175.252 45.1023C179.489 45.1023 181.608 41.9554 181.608 35.6615C181.608 29.3987 179.505 26.2674 175.298 26.2674ZM212.407 13.4614V48H208.621L208.2 44.5882C207.39 45.8345 206.378 46.816 205.163 47.5326C203.947 48.2181 202.592 48.5608 201.096 48.5608C198.168 48.5608 195.877 47.408 194.226 45.1023C192.606 42.7966 191.796 39.6964 191.796 35.8017C191.796 33.2779 192.185 31.0345 192.964 29.0716C193.743 27.1086 194.865 25.5819 196.329 24.4914C197.794 23.3697 199.507 22.8088 201.47 22.8088C203.994 22.8088 206.206 23.8215 208.107 25.8467V12.9473L212.407 13.4614ZM202.031 45.1491C203.34 45.1491 204.461 44.8531 205.396 44.261C206.331 43.6379 207.235 42.7187 208.107 41.5036V29.4455C207.297 28.3861 206.424 27.5916 205.49 27.0619C204.586 26.501 203.558 26.2206 202.405 26.2206C200.504 26.2206 199.024 27.0151 197.965 28.6042C196.937 30.1933 196.423 32.5613 196.423 35.7082C196.423 38.8863 196.906 41.2543 197.872 42.8122C198.837 44.3701 200.224 45.1491 202.031 45.1491ZM239.872 34.9604C239.872 35.677 239.841 36.4093 239.778 37.157H224.075C224.262 39.8678 224.947 41.8619 226.131 43.1394C227.315 44.4168 228.842 45.0556 230.712 45.0556C231.896 45.0556 232.986 44.8842 233.983 44.5415C234.98 44.1987 236.024 43.6535 237.114 42.9057L238.984 45.4762C236.367 47.5326 233.5 48.5608 230.384 48.5608C226.957 48.5608 224.277 47.4392 222.346 45.1958C220.445 42.9524 219.495 39.8678 219.495 35.9419C219.495 33.3869 219.9 31.128 220.71 29.165C221.551 27.1709 222.735 25.613 224.262 24.4914C225.82 23.3697 227.642 22.8088 229.73 22.8088C233.002 22.8088 235.51 23.8838 237.255 26.0337C239 28.1836 239.872 31.1591 239.872 34.9604ZM235.619 33.6985C235.619 31.2682 235.136 29.4143 234.17 28.1368C233.204 26.8594 231.755 26.2206 229.824 26.2206C226.303 26.2206 224.386 28.8067 224.075 33.9789H235.619V33.6985Z" fill="white"/>
</svg>
