<svg width="296" height="48" viewBox="0 0 296 48" fill="none" xmlns="http://www.w3.org/2000/svg">
<path d="M11.6375 11.3882C13.4135 11.3882 15.0804 11.653 16.6383 12.1827C18.1962 12.7124 19.5672 13.4602 20.7512 14.4261L18.0404 18.5857C16.0152 17.3082 13.9743 16.6695 11.9179 16.6695C10.952 16.6695 10.2042 16.8408 9.67453 17.1836C9.17601 17.4951 8.92674 17.9469 8.92674 18.5389C8.92674 19.0063 9.0358 19.3958 9.2539 19.7074C9.50316 19.9878 9.98611 20.2838 10.7027 20.5954C11.4194 20.9069 12.5255 21.2808 14.0211 21.717C16.6072 22.4648 18.5234 23.4463 19.7697 24.6615C21.0472 25.8455 21.6859 27.4968 21.6859 29.6156C21.6859 31.2981 21.203 32.7625 20.2371 34.0088C19.2712 35.224 17.947 36.1587 16.2644 36.8131C14.5819 37.4674 12.7124 37.7945 10.656 37.7945C8.56843 37.7945 6.62106 37.4674 4.8139 36.8131C3.0379 36.1587 1.52674 35.2552 0.280421 34.1023L3.87916 30.0829C5.96674 31.7032 8.16337 32.5133 10.4691 32.5133C11.5907 32.5133 12.4632 32.3107 13.0863 31.9057C13.7406 31.5006 14.0678 30.9242 14.0678 30.1764C14.0678 29.5844 13.9432 29.117 13.6939 28.7743C13.4446 28.4316 12.9617 28.12 12.2451 27.8396C11.5284 27.528 10.3912 27.1541 8.83327 26.7179C6.37179 26.0013 4.53348 25.0042 3.31832 23.7267C2.10316 22.4493 1.49558 20.8602 1.49558 18.9596C1.49558 17.5263 1.90063 16.2488 2.71074 15.1271C3.552 13.9743 4.736 13.0707 6.26274 12.4164C7.82064 11.7309 9.61222 11.3882 11.6375 11.3882ZM46.4283 37H40.0254L39.6982 33.8686C37.8911 36.4859 35.3829 37.7945 32.1736 37.7945C29.8991 37.7945 28.1698 37.1091 26.9858 35.7381C25.833 34.3672 25.2565 32.4509 25.2565 29.9895V12.1827H32.641V29.0547C32.641 30.2699 32.8279 31.1267 33.2018 31.6253C33.6069 32.0926 34.2144 32.3263 35.0245 32.3263C36.5824 32.3263 37.9222 31.3604 39.0439 29.4286V12.1827H46.4283V37ZM66.2572 11.3882C69.373 11.3882 71.6942 12.541 73.221 14.8467C74.7477 17.1524 75.5111 20.3773 75.5111 24.5213C75.5111 27.0762 75.106 29.3663 74.2959 31.3916C73.517 33.3857 72.3797 34.9592 70.8841 36.112C69.3886 37.2337 67.6437 37.7945 65.6496 37.7945C63.157 37.7945 61.1473 36.9377 59.6206 35.224V46.5811L52.2361 47.3756V12.1827H58.7326L59.1064 14.9402C60.0723 13.725 61.1784 12.837 62.4248 12.2762C63.6711 11.6842 64.9486 11.3882 66.2572 11.3882ZM63.4062 32.373C66.3662 32.373 67.8462 29.7869 67.8462 24.6147C67.8462 21.6859 67.5191 19.6606 66.8648 18.5389C66.2105 17.3861 65.229 16.8097 63.9203 16.8097C63.0791 16.8097 62.2846 17.0589 61.5368 17.5575C60.8201 18.056 60.1814 18.7726 59.6206 19.7074V30.1764C60.6176 31.6408 61.8795 32.373 63.4062 32.373ZM101.762 24.1006C101.762 25.1288 101.716 26.0168 101.622 26.7646H86.2456C86.4949 28.8522 87.0869 30.3166 88.0216 31.1579C88.9563 31.9992 90.2494 32.4198 91.9008 32.4198C92.8978 32.4198 93.8637 32.2484 94.7984 31.9057C95.7332 31.5318 96.7458 30.9709 97.8363 30.2232L100.874 34.336C97.9766 36.6417 94.7517 37.7945 91.1997 37.7945C87.1803 37.7945 84.0957 36.6105 81.9458 34.2425C79.7959 31.8745 78.721 28.6964 78.721 24.7082C78.721 22.1844 79.1727 19.9255 80.0763 17.9314C80.9799 15.9061 82.3041 14.317 84.049 13.1642C85.7938 11.9802 87.8814 11.3882 90.3117 11.3882C93.8949 11.3882 96.6991 12.5099 98.7243 14.7532C100.75 16.9966 101.762 20.1124 101.762 24.1006ZM94.518 21.9975C94.4557 18.1962 93.1159 16.2956 90.4987 16.2956C89.2212 16.2956 88.2241 16.7629 87.5075 17.6977C86.822 18.6324 86.4014 20.1747 86.2456 22.3246H94.518V21.9975ZM119.371 11.4817C120.274 11.4817 121.1 11.5907 121.848 11.8088L120.679 18.9596C119.745 18.7415 118.997 18.6324 118.436 18.6324C116.972 18.6324 115.85 19.1465 115.071 20.1747C114.323 21.1718 113.731 22.6829 113.295 24.7082V37H105.911V12.1827H112.36L112.968 16.9966C113.529 15.2829 114.37 13.9431 115.492 12.9772C116.644 11.9802 117.937 11.4817 119.371 11.4817Z" fill="#F4F6FF"/>
<path d="M277.733 22.5503C277.733 23.0644 277.71 23.5084 277.663 23.8823H269.975C270.1 24.9261 270.396 25.6583 270.863 26.0789C271.33 26.4996 271.977 26.7099 272.803 26.7099C273.301 26.7099 273.784 26.6242 274.251 26.4528C274.719 26.2659 275.225 25.9855 275.77 25.6116L277.289 27.668C275.84 28.8208 274.228 29.3973 272.452 29.3973C270.442 29.3973 268.9 28.8053 267.825 27.6213C266.75 26.4373 266.213 24.8482 266.213 22.8541C266.213 21.5922 266.439 20.4627 266.89 19.4657C267.342 18.453 268.004 17.6585 268.877 17.0821C269.749 16.4901 270.793 16.1941 272.008 16.1941C273.8 16.1941 275.202 16.7549 276.214 17.8766C277.227 18.9983 277.733 20.5562 277.733 22.5503ZM274.111 21.4987C274.08 19.5981 273.41 18.6478 272.101 18.6478C271.463 18.6478 270.964 18.8815 270.606 19.3488C270.263 19.8162 270.053 20.5874 269.975 21.6623H274.111V21.4987ZM292.006 12.8057L287.496 29H282.728L278.055 12.8057H282.098L285.182 26.0088L288.08 12.8057H292.006Z" fill="#F3C623"/>
<path d="M148.763 2.46145V37H144.977L144.556 33.5882C143.746 34.8345 142.733 35.816 141.518 36.5326C140.303 37.2181 138.948 37.5608 137.452 37.5608C134.523 37.5608 132.233 36.408 130.582 34.1023C128.962 31.7966 128.152 28.6964 128.152 24.8017C128.152 22.2779 128.541 20.0345 129.32 18.0716C130.099 16.1086 131.221 14.5819 132.685 13.4914C134.149 12.3697 135.863 11.8088 137.826 11.8088C140.35 11.8088 142.562 12.8215 144.463 14.8467V1.94734L148.763 2.46145ZM138.387 34.1491C139.696 34.1491 140.817 33.8531 141.752 33.261C142.687 32.6379 143.59 31.7187 144.463 30.5036V18.4455C143.653 17.3861 142.78 16.5916 141.845 16.0619C140.942 15.501 139.914 15.2206 138.761 15.2206C136.86 15.2206 135.38 16.0151 134.321 17.6042C133.293 19.1933 132.779 21.5613 132.779 24.7082C132.779 27.8863 133.261 30.2543 134.227 31.8122C135.193 33.3701 136.58 34.1491 138.387 34.1491ZM161.926 12.3697V37H157.626V12.3697H161.926ZM159.73 0.545237C160.633 0.545237 161.365 0.825658 161.926 1.3865C162.487 1.94734 162.768 2.6484 162.768 3.48966C162.768 4.33092 162.487 5.03198 161.926 5.59282C161.365 6.1225 160.633 6.38735 159.73 6.38735C158.857 6.38735 158.141 6.1225 157.58 5.59282C157.019 5.03198 156.738 4.33092 156.738 3.48966C156.738 2.6484 157.019 1.94734 157.58 1.3865C158.141 0.825658 158.857 0.545237 159.73 0.545237ZM190.68 13.4914C189.745 13.8029 188.717 14.0055 187.595 14.0989C186.474 14.1924 185.103 14.2391 183.483 14.2391C186.38 15.5478 187.829 17.6198 187.829 20.4551C187.829 22.9166 186.988 24.9263 185.305 26.4842C183.623 28.0421 181.333 28.821 178.435 28.821C177.313 28.821 176.27 28.6653 175.304 28.3537C174.93 28.6029 174.634 28.9457 174.416 29.3819C174.198 29.7869 174.088 30.2076 174.088 30.6438C174.088 31.9836 175.163 32.6535 177.313 32.6535H181.239C182.891 32.6535 184.355 32.9495 185.632 33.5415C186.91 34.1335 187.891 34.9436 188.577 35.9718C189.294 37 189.652 38.1684 189.652 39.4771C189.652 41.8762 188.67 43.7145 186.707 44.992C184.744 46.3006 181.878 46.955 178.108 46.955C175.459 46.955 173.356 46.6745 171.798 46.1137C170.272 45.584 169.181 44.7739 168.527 43.6834C167.872 42.5928 167.545 41.1907 167.545 39.4771H171.424C171.424 40.4741 171.611 41.2531 171.985 41.8139C172.359 42.4059 173.029 42.8421 173.995 43.1225C174.961 43.4341 176.332 43.5899 178.108 43.5899C180.694 43.5899 182.532 43.2627 183.623 42.6084C184.744 41.9853 185.305 41.035 185.305 39.7575C185.305 38.6046 184.869 37.7322 183.997 37.1402C183.124 36.5482 181.909 36.2522 180.351 36.2522H176.472C174.384 36.2522 172.795 35.816 171.705 34.9436C170.646 34.04 170.116 32.9183 170.116 31.5785C170.116 30.7684 170.35 29.9895 170.817 29.2417C171.284 28.4939 171.954 27.824 172.827 27.232C171.393 26.4842 170.334 25.565 169.648 24.4745C168.994 23.3528 168.667 21.9975 168.667 20.4084C168.667 18.757 169.072 17.277 169.882 15.9684C170.723 14.6598 171.861 13.6471 173.294 12.9305C174.758 12.1827 176.379 11.8088 178.155 11.8088C180.086 11.84 181.707 11.7777 183.015 11.6219C184.324 11.4349 185.399 11.2012 186.24 10.9208C187.112 10.6092 188.172 10.173 189.418 9.61219L190.68 13.4914ZM178.155 14.8935C176.534 14.8935 175.272 15.4076 174.369 16.4358C173.496 17.4328 173.06 18.757 173.06 20.4084C173.06 22.0909 173.512 23.4463 174.416 24.4745C175.319 25.4716 176.597 25.9701 178.248 25.9701C179.931 25.9701 181.208 25.4871 182.08 24.5213C182.984 23.5242 183.436 22.1377 183.436 20.3617C183.436 16.7162 181.675 14.8935 178.155 14.8935ZM199.398 12.3697V37H195.098V12.3697H199.398ZM197.201 0.545237C198.105 0.545237 198.837 0.825658 199.398 1.3865C199.959 1.94734 200.239 2.6484 200.239 3.48966C200.239 4.33092 199.959 5.03198 199.398 5.59282C198.837 6.1225 198.105 6.38735 197.201 6.38735C196.329 6.38735 195.612 6.1225 195.051 5.59282C194.491 5.03198 194.21 4.33092 194.21 3.48966C194.21 2.6484 194.491 1.94734 195.051 1.3865C195.612 0.825658 196.329 0.545237 197.201 0.545237ZM220.721 35.8783C219.1 37 217.262 37.5608 215.206 37.5608C213.118 37.5608 211.482 36.9688 210.298 35.7848C209.145 34.5697 208.569 32.8248 208.569 30.5503V15.688H204.269V12.3697H208.569V6.80798L212.869 6.29387V12.3697H218.711L218.243 15.688H212.869V30.3634C212.869 31.6408 213.087 32.5756 213.523 33.1676C213.99 33.7284 214.754 34.0088 215.813 34.0088C216.779 34.0088 217.87 33.6817 219.085 33.0274L220.721 35.8783ZM241.448 31.2514C241.448 32.2484 241.619 32.9962 241.962 33.4947C242.305 33.9621 242.819 34.3204 243.504 34.5697L242.523 37.5608C241.245 37.4051 240.217 37.0467 239.438 36.4859C238.659 35.9251 238.083 35.0526 237.709 33.8686C236.058 36.3301 233.612 37.5608 230.371 37.5608C227.941 37.5608 226.025 36.8754 224.623 35.5044C223.221 34.1335 222.52 32.3419 222.52 30.1297C222.52 27.5124 223.454 25.5027 225.324 24.1006C227.224 22.6985 229.904 21.9975 233.363 21.9975H237.148V20.1747C237.148 18.4299 236.728 17.1836 235.886 16.4358C235.045 15.688 233.752 15.3141 232.007 15.3141C230.2 15.3141 227.988 15.7503 225.37 16.6227L224.296 13.4914C227.349 12.3697 230.184 11.8088 232.802 11.8088C235.699 11.8088 237.865 12.5255 239.298 13.9587C240.731 15.3608 241.448 17.3705 241.448 19.9878V31.2514ZM231.353 34.336C233.814 34.336 235.746 33.0585 237.148 30.5036V24.8484H233.923C229.374 24.8484 227.1 26.5309 227.1 29.896C227.1 31.3604 227.458 32.4665 228.175 33.2143C228.891 33.9621 229.951 34.336 231.353 34.336ZM254.73 37.5608C253.141 37.5608 251.879 37.0935 250.944 36.1587C250.04 35.1928 249.589 33.8531 249.589 32.1394V2.46145L253.888 1.94734V32.0459C253.888 32.7314 253.997 33.2299 254.216 33.5415C254.465 33.8531 254.87 34.0088 255.431 34.0088C256.023 34.0088 256.552 33.9154 257.02 33.7284L258.141 36.7196C257.113 37.2804 255.976 37.5608 254.73 37.5608Z" fill="#F3C623"/>
</svg>
