<svg width="320" height="121" viewBox="0 0 320 121" fill="none" xmlns="http://www.w3.org/2000/svg">
<path d="M286.205 16.3936C243.907 7.20305 201.271 3.84903 157.694 3.44309C118.657 3.07945 65.3466 -3.68925 30.2985 15.5942C12.6397 25.3101 -1.93952 50.0699 2.95972 68.1958C6.28506 80.4987 14.8636 90.8297 27.7878 96.9748C59.1221 111.873 100.536 114.644 135.469 117.12C174.16 119.862 216.94 120.965 254.309 110.645C269.92 106.334 284.726 99.7351 298.293 91.8585C304.443 88.2884 314.042 83.0472 316.891 76.5897C322.381 64.1479 306.204 46.5912 296.526 38.9372C282.519 27.8588 266.152 22.4723 247.707 20.7105" stroke="#30E1B9" stroke-width="3" stroke-linecap="round" stroke-linejoin="round"/>
</svg>
