<svg width="142" height="33" viewBox="0 0 142 33" fill="none" xmlns="http://www.w3.org/2000/svg">
<path d="M1.48773 8.7204C1.48773 14.9906 0.957023 21.5697 1.58928 27.8133C1.62639 28.1797 1.68057 30.5281 2.24941 30.6315C6.22442 31.3543 11.0165 30.6851 14.9949 30.5554C23.9395 30.2637 32.7915 29.7429 41.7555 29.7429C49.4529 29.7429 57.1508 30.1999 64.8599 30.1999C73.5042 30.1999 81.9324 31.6291 90.6048 31.5709C97.7015 31.5233 104.874 30.1977 111.983 29.8445C119.038 29.4939 126.032 29.2859 133.107 29.2859C135.924 29.2859 140.556 30.8356 140.317 27.0516C140.022 22.3588 139.076 17.8518 138.413 13.2143C138.136 11.2717 138.687 8.57154 138.032 6.74002C137.832 6.17858 134.198 6.06205 133.716 5.95294C129.921 5.09357 126.149 4.88397 122.291 4.50574C115.823 3.87159 109.959 1.86523 103.35 1.86523C94.2619 1.86523 85.5561 2.0289 76.5391 3.33782C57.0066 6.17318 36.8191 5.06431 17.1277 5.06431C12.6676 5.06431 8.1614 5.52132 3.77278 5.52132" stroke="#3DD7AC" stroke-width="2" stroke-linecap="round" stroke-linejoin="round"/>
</svg>
