<svg width="135" height="34" viewBox="0 0 135 34" fill="none" xmlns="http://www.w3.org/2000/svg">
<path d="M105.664 2.44177C79.3944 2.366 53.1322 1.78813 26.8647 1.66727C23.1133 1.65001 19.4283 1.36727 15.8208 2.52783C10.4261 4.26334 2.43891 7.71694 1.67888 14.2315C1.1466 18.7939 2.32359 24.2933 5.7809 27.5415C10.877 32.3294 20.3577 31.8556 26.7499 32.0164C34.6686 32.2157 42.3239 31.7884 50.1572 30.869C53.7853 30.4432 57.7871 31.3294 61.4019 31.5575C78.0747 32.6093 94.7523 32.8825 111.458 32.9057C114.857 32.9104 118.256 32.9057 121.656 32.9057C123.397 32.9057 125.65 33.1536 127.321 32.4467C131.93 30.4967 133.257 23.1636 133.574 18.8212C133.995 13.0574 131.527 8.12922 126.346 5.45374C123.943 4.21313 121.185 3.31177 118.486 3.01548C116.833 2.83405 112.955 4.05373 111.86 2.95811" stroke="#3DD7AC" stroke-width="2" stroke-linecap="round" stroke-linejoin="round"/>
</svg>
