<svg width="102" height="28" viewBox="0 0 102 28" fill="none" xmlns="http://www.w3.org/2000/svg">
<path d="M1.79787 5.71829C1.79787 11.4976 1.79787 17.2769 1.79787 23.0562C1.79787 23.3333 1.54764 25.3195 1.90107 25.5846C2.93471 26.3598 6.8833 25.6878 8.04157 25.6878C24.9494 25.6878 41.8573 25.6878 58.7652 25.6878C69.6444 25.6878 80.5235 25.6878 91.4027 25.6878C93.5077 25.6878 96.1033 25.268 98.1366 25.9458C99.3877 26.3628 100.685 27.3757 100.717 25.3782C100.795 20.3675 100.844 15.2923 100.252 10.3108C100.184 9.73931 99.6434 3.53653 99.0138 3.42206C94.7154 2.64053 89.6154 3.39626 85.2622 3.39626C72.2983 3.39626 59.2883 3.15466 46.3294 2.82865C37.0593 2.59544 27.868 2.00303 18.5939 2.00303C13.5728 2.00303 8.55817 2.29989 3.6555 1.07422" stroke="#3DD7AC" stroke-width="2" stroke-linecap="round" stroke-linejoin="round"/>
</svg>
