<svg width="1062" height="356" viewBox="0 0 1062 356" fill="none" xmlns="http://www.w3.org/2000/svg">
<path d="M954.156 36.3391C814.681 15.0515 674.089 7.2828 530.395 6.34255C401.673 5.50026 225.883 -10.1777 110.313 34.4875C52.0841 56.9918 4.00954 114.341 20.1646 156.325C31.1298 184.822 59.4172 208.751 102.035 222.984C205.358 257.493 341.919 263.911 457.111 269.646C584.691 275.997 725.759 278.551 848.982 254.647C900.459 244.661 949.281 229.378 994.018 211.134C1014.29 202.865 1045.95 190.725 1055.34 175.768C1073.44 146.949 1020.1 106.284 988.192 88.5553C942.004 62.8952 888.031 50.4188 827.211 46.338" stroke="#30E1B9" stroke-width="6" stroke-linecap="round" stroke-linejoin="round"/>
<path d="M34.3532 355.706C35.9986 355.9 37.4901 354.724 37.6844 353.079L40.8522 326.265C41.0466 324.62 39.8703 323.128 38.2249 322.934C36.5794 322.739 35.088 323.916 34.8936 325.561L32.0778 349.395L8.2436 346.58C6.59818 346.385 5.10673 347.562 4.91235 349.207C4.71796 350.852 5.89425 352.344 7.53966 352.538L34.3532 355.706ZM51.7094 197.06C12.2633 237.582 7.21278 276.955 12.2662 306.301C14.7801 320.899 19.7759 332.93 24.1398 341.311C26.3235 345.505 28.3548 348.796 29.8493 351.05C30.5968 352.178 31.2107 353.047 31.6432 353.642C31.8594 353.939 32.0304 354.167 32.1501 354.325C32.21 354.404 32.257 354.465 32.2905 354.509C32.3073 354.53 32.3206 354.547 32.3305 354.56C32.3354 354.566 32.3395 354.572 32.3427 354.576C32.3443 354.578 32.346 354.58 32.3468 354.581C32.3483 354.583 32.3496 354.584 34.7052 352.727C37.0607 350.869 37.0615 350.87 37.0622 350.871C37.0621 350.871 37.0625 350.871 37.0623 350.871C37.062 350.87 37.0607 350.869 37.0586 350.866C37.0545 350.861 37.0468 350.851 37.0358 350.837C37.0138 350.808 36.9784 350.762 36.9302 350.699C36.8339 350.572 36.6868 350.375 36.4947 350.111C36.1104 349.583 35.5466 348.786 34.8503 347.735C33.4571 345.634 31.5362 342.524 29.4616 338.54C25.3087 330.564 20.5633 319.127 18.1792 305.283C13.4366 277.742 17.963 240.329 56.0087 201.245L51.7094 197.06Z" fill="#30E1B9"/>
</svg>
