<svg fill="none" height="359" viewBox="0 0 785 359" width="785" xmlns="http://www.w3.org/2000/svg"><path d="m704.43 36.3391c-101.863-21.2876-204.541-29.0563-309.484-29.99655-94.009-.84229-222.393-16.52025-306.7967 28.14495-42.5265 22.5043-77.6366 79.8535-65.8381 121.8375 8.0082 28.497 28.6672 52.426 59.7917 66.659 75.4601 34.509 175.1941 40.927 259.3211 46.662 93.176 6.351 196.201 8.905 286.194-14.999 37.595-9.986 73.251-25.269 105.924-43.513 14.809-8.269 37.926-20.409 44.787-35.366 13.22-28.819-25.737-69.484-49.042-87.2127-33.732-25.6601-73.15-38.1365-117.568-42.2173" stroke="#30e1b9" stroke-linecap="round" stroke-linejoin="round" stroke-width="6"/><path d="m34.3532 358.706c1.6454.194 3.1369-.982 3.3312-2.627l3.1678-26.814c.1944-1.645-.9819-3.137-2.6273-3.331-1.6455-.195-3.1369.982-3.3313 2.627l-2.8158 23.834-23.8342-2.815c-1.64542-.195-3.13687.982-3.33125 2.627-.19439 1.645.98189 3.137 2.62731 3.331zm17.3562-158.646c-39.4461 40.522-44.49663 79.895-39.4432 109.241 2.5139 14.598 7.5097 26.629 11.8736 35.01 2.1837 4.194 4.215 7.485 5.7095 9.739.7475 1.128 1.3614 1.997 1.7939 2.592.2162.297.3872.525.5069.683.0599.079.1069.14.1404.184.0168.021.0301.038.04.051.0049.006.009.012.0122.016.0016.002.0033.004.0041.005.0015.002.0028.003 2.3584-1.854 2.3555-1.858 2.3564-1.857 2.357-1.856-.0001 0 .0003 0 .0001 0-.0003-.001-.0016-.002-.0037-.005-.0041-.005-.0118-.015-.0228-.029-.022-.029-.0574-.075-.1056-.138-.0963-.127-.2434-.324-.4355-.588-.3843-.528-.9481-1.325-1.6444-2.376-1.3932-2.101-3.3141-5.211-5.3887-9.195-4.1529-7.976-8.8983-19.413-11.2824-33.257-4.7426-27.541-.2161-64.954 37.8295-104.038z" fill="#30e1b9"/></svg>