<svg fill="none" height="252" viewBox="0 0 252 252" width="252" xmlns="http://www.w3.org/2000/svg"><g fill="#000"><path d="m116.657 246.423c-.917-.071-1.691-.266-2.322-.582-.631-.304-1.232-.752-1.8-1.345l1.127-1.075c.486.452.974.791 1.465 1.017.476.238 1 .379 1.572.424.718.056 1.322-.064 1.813-.36.492-.296.762-.763.812-1.401.031-.399-.022-.744-.16-1.035-.138-.279-.412-.547-.819-.807-.421-.26-1.034-.549-1.838-.866-.844-.333-1.539-.675-2.087-1.025-.547-.351-.973-.812-1.276-1.384-.317-.56-.443-1.252-.379-2.076.062-.798.317-1.487.763-2.067.434-.581 1.036-1.016 1.808-1.303.758-.288 1.642-.393 2.652-.314 1.901.149 3.41.862 4.527 2.14l-1.127 1.075c-.523-.496-1.061-.886-1.614-1.17-.554-.27-1.183-.433-1.888-.488-.85-.067-1.571.084-2.161.453-.592.381-.919.971-.981 1.768-.036.452.022.831.172 1.137.148.32.426.615.833.888.393.272.979.558 1.758.86 1.376.535 2.366 1.128 2.971 1.777.604.649.866 1.485.786 2.509-.054.691-.281 1.295-.683 1.812-.415.516-.96.901-1.635 1.156-.689.254-1.452.348-2.289.282z"/><path d="m95.3774 232.984c.2174-.894.5974-1.639 1.1401-2.234.5266-.586 1.1935-.986 2.0006-1.202.791-.205 1.6789-.188 2.6639.051 1.489.363 2.543 1.051 3.161 2.066.602 1.024.735 2.223.401 3.597l-2.212 9.094-1.846-.449 2.179-8.958c.252-1.037.208-1.871-.132-2.503-.341-.631-.984-1.062-1.93-1.292-.9583-.233-1.7323-.154-2.3216.238-.5925.405-1.0163 1.132-1.2715 2.181l-2.1788 8.959-1.8657-.454z"/><path d="m78.9567 236.999c-1.5695-.67-2.642-1.52-3.2175-2.548-.5807-1.017-.5935-2.175-.0384-3.475.5919-1.385 1.4793-2.224 2.6625-2.516s2.5166-.121 4.0002.512l1.6002.684 1.9875-4.654 1.7473.747-5.4128 12.672zm2.8912-6.616c-1.0177-.435-1.874-.568-2.5689-.401-.7071.162-1.278.752-1.7127 1.769-.3875.908-.398 1.679-.0313 2.314.3544.63 1.0282 1.157 2.0214 1.581l1.5634.668 2.2547-5.279z"/><path d="m59.0617 226.353.9879-1.176 4.5385 2.814 2.3713-3.824-3.9435-2.445.8009-1.292 3.9435 2.445 2.4873-4.012-4.8614-3.014.801-1.292 6.4761 4.016-7.2614 11.711z"/><path d="m52.81 211.61 1.6215 1.397 3.8109-4.425 1.4397 1.239-8.9921 10.442-2.743-2.362c-1.3034-1.122-2.0753-2.218-2.3157-3.288-.2506-1.078.0461-2.107.89-3.087.6265-.727 1.3224-1.157 2.0877-1.29.7654-.133 1.627.011 2.5848.431l1.214-7.11 1.7125 1.475zm-.7861 1.25c-.7577-.652-1.4591-.992-2.104-1.02-.6536-.017-1.2763.318-1.8679 1.005-.5569.646-.7601 1.281-.6097 1.903.1316.623.6268 1.305 1.4856 2.045l1.2882 1.109 3.2627-3.789z"/><path d="m32.3081 205.567c1.2287-.158 2.2848-.351 3.1683-.579.8647-.228 1.7615-.592 2.6905-1.091.9201-.508 1.8954-1.217 2.9258-2.125 1.0205-.899 1.8409-1.773 2.4614-2.621.6116-.859 1.0954-1.712 1.4512-2.558.337-.848.6565-1.867.9584-3.057l1.3671.341c-.3586 1.489-.6794 2.678-.9623 3.567-.3017.888-.7626 1.827-1.3826 2.817-.6388.99-1.5134 1.974-2.6239 2.952-1.1104.978-2.1916 1.718-3.2435 2.218-1.0707.499-2.0604.838-2.9692 1.017-.9276.177-2.1524.35-3.6746.519z"/><path d="m25.0613 192.417c-.4594-.687-.7561-1.323-.89-1.907-.1412-.595-.1754-1.27-.1024-2.024l1.5923.186c-.0985 1.077.1116 2.003.6303 2.779.6373.953 1.518 1.479 2.6424 1.577 1.1169.087 2.4845-.41 4.1029-1.492 1.574-1.052 2.5452-2.118 2.9136-3.198.3574-1.073.2174-2.086-.4199-3.04-.326-.487-.6944-.859-1.1052-1.113-.4108-.255-.9029-.487-1.4764-.697l.4752-1.449c.6029.111 1.2116.361 1.8259.752.6144.392 1.1624.948 1.644 1.668.6225.931.951 1.914.9856 2.95.0161 1.032-.2821 2.049-.8947 3.052-.6311.999-1.573 1.917-2.8255 2.755-1.2526.837-2.463 1.341-3.6314 1.513-1.1794.179-2.2372.06-3.1733-.356-.9362-.417-1.7006-1.069-2.2934-1.956z"/><path d="m27.6276 167.764-2.7034 2.397 2.1919 4.737 3.5769-.509.8062 1.743-14.3623 1.775-1.0078-2.178 10.6587-9.78zm-2.1023 7.364-1.8056-3.903-5.6359 4.966z"/><path d="m21.1019 147.197.4713 1.778-5.8894 2.058c-2.3074.818-4.0892 1.407-5.3454 1.768l10.7004.247.456 1.721-9.1519 5.673c1.6111-.427 3.4956-.836 5.6537-1.229l5.995-1.113.4611 1.74-13.6122 2.428-.6558-2.474 8.9427-5.371-10.3927-.1-.66095-2.494z"/><path d="m5.84147 136.532c-.14455-1.7.10236-3.046.74073-4.037.62508-.99 1.64174-1.544 3.05-1.664 1.5013-.128 2.6584.262 3.4716 1.17.8131.908 1.288 2.165 1.4246 3.773l.1474 1.734 5.0418-.429.161 1.893-13.73054 1.167zm7.19913-.551c-.0937-1.103-.3774-1.922-.8511-2.457-.4748-.548-1.2636-.776-2.36629-.682-.98312.083-1.66905.436-2.05778 1.058-.38986.609-.53906 1.451-.44758 2.527l.14398 1.694 5.71937-.486z"/><path d="m15.4507 112.59c.917.074 1.7122.331 2.3856.774.6612.427 1.1617 1.023 1.5016 1.786.3276.748.4508 1.628.3695 2.638-.123 1.528-.6368 2.677-1.5415 3.447-.9169.756-2.0797 1.077-3.4885.964l-9.32983-.751.15241-1.894 9.19032.74c1.0632.085 1.8799-.09 2.45-.526.5701-.435.8942-1.138.9723-2.108.0791-.984-.1212-1.736-.601-2.256-.4931-.521-1.2779-.825-2.3545-.912l-9.19025-.739.15402-1.914z"/><path d="m8.59928 97.2152c.21942-.8934.53652-1.6256.95131-2.1965.40184-.574.94131-1.0937 1.61851-1.559l.8785 1.2867c-.5254.4064-.9392.8334-1.2413 1.2809-.3119.4314-.5362.9255-.673 1.4823-.17168.6992-.15133 1.3152.0611 1.8479.2124.5327.6294.8755 1.2509 1.0275.3885.096.7377.099 1.0478.011.2971-.092.6067-.318.9285-.6785.3251-.3732.7092-.931 1.1524-1.6734.4657-.7781.9158-1.4089 1.3503-1.8926.4346-.4836.9587-.8286 1.5722-1.0349.6038-.2224 1.3071-.235 2.11-.0379.7769.1908 1.4154.5536 1.9157 1.0883.5034.5218.8344 1.1866.993 1.9944.1617.7949.1218 1.6844-.1199 2.6686-.4547 1.851-1.403 3.225-2.8448 4.12l-.8785-1.286c.5738-.436 1.0456-.904 1.4155-1.403.3568-.503.6195-1.098.7881-1.784.2035-.8285.1713-1.5641-.0965-2.2065-.2808-.6456-.8097-1.0638-1.5866-1.2546-.4403-.1081-.8235-.113-1.1497-.0146-.3391.0952-.6761.3213-1.011.6785-.3316.3441-.7094.876-1.1333 1.5957-.7514 1.2705-1.4964 2.1515-2.2349 2.6435-.7385.491-1.6062.614-2.6033.37-.6733-.166-1.23249-.488-1.67752-.968-.44186-.493-.73378-1.094-.87578-1.8013-.13882-.7206-.10806-1.4887.09228-2.3045z"/><path d="m10.0386 82.7236c1.4865-.3684 2.6932-.6234 3.6201-.7651.9193-.159 1.9652-.1831 3.1377-.0725 1.1648.0933 2.4373.407 3.8176.9412 1.3802.5341 2.5387 1.1611 3.4753 1.881.9291.7026 1.6862 1.4245 2.2715 2.1657.5777.7239 1.2921 1.7224 2.1434 2.9954l-1.1647.7931c-.6948-1.0123-1.3493-1.8517-1.9635-2.5183-.6218-.6838-1.3705-1.3167-2.2462-1.8986-.8708-.5943-1.9404-1.1369-3.2088-1.6277-1.2807-.4957-2.4432-.8168-3.4873-.9635-1.0392-.1592-2.0065-.1904-2.9018-.0936-.9028.0795-1.9581.2573-3.1658.5334z"/><path d="m26.0872 57.934c.5184-.7601 1.0718-1.3349 1.6602-1.7244.5774-.397 1.2647-.6949 2.0619-.8936l.3724 1.5128c-.6345.1967-1.1715.4518-1.6112.7652-.4432.2949-.8263.6792-1.1494 1.1528-.4056.5949-.6023 1.179-.5898 1.7523.0125.5734.283 1.0403.8118 1.4009.3305.2254.6564.3509.9779.3765.3105.018.6795-.0853 1.1072-.3101.4352-.2358.9903-.6238 1.6653-1.1641.7087-.5657 1.3512-.999 1.9276-1.2999.5763-.3009 1.188-.4405 1.835-.4189.6434.0031 1.3066.2375 1.9896.7033.6609.4507 1.1321 1.0141 1.4134 1.6901.2889.6651.3661 1.4037.2318 2.2159-.1267.8011-.4756 1.6203-1.0466 2.4575-1.0742 1.5752-2.4434 2.5297-4.1074 2.8635l-.3724-1.5128c.6901-.2072 1.2958-.48 1.8171-.8185.5103-.3459.9645-.8108 1.3627-1.3946.4808-.705.7082-1.4053.6822-2.1008-.0369-.7031-.3859-1.28-1.0468-1.7307-.3746-.2555-.7318-.3942-1.0718-.4163-.351-.0296-.7459.0643-1.1846.2816-.4311.2062-.9712.5722-1.6202 1.0979-1.1489.9272-2.1552 1.4917-3.019 1.6934s-1.7198.0133-2.568-.5651c-.5728-.3907-.9836-.8887-1.2324-1.4942-.2413-.6164-.3045-1.2809-.1898-1.9934.1223-.7236.4201-1.4324.8933-2.1263z"/><path d="m48.3296 46.1559c.6674.6332 1.1244 1.3332 1.371 2.1001.246.748.2618 1.5257.0473 2.333-.215.7885-.6712 1.5503-1.3686 2.2855-1.0553 1.1124-2.1767 1.6842-3.3642 1.7155-1.1881.0125-2.2947-.4677-3.3201-1.4404l-6.7906-6.4418 1.3077-1.3784 6.689 6.3455c.7738.7341 1.5194 1.1105 2.2367 1.1294.7173.0188 1.4108-.3249 2.0807-1.031.6791-.7158.9951-1.4268.9482-2.1329-.0565-.7153-.4766-1.4446-1.2601-2.1879l-6.689-6.3455 1.3214-1.3929z"/><path d="m53.0116 29.9126c1.3621-1.0283 2.6325-1.5363 3.8112-1.524 1.1707.0017 2.1818.5665 3.0334 1.6945.9077 1.2025 1.1941 2.3896.8592 3.5613-.335 1.1717-1.1463 2.2436-2.4339 3.2157l-1.3888 1.0483 3.0488 4.0385-1.5165 1.1447-8.3026-10.9979zm4.3022 5.7985c.8833-.6668 1.4252-1.3432 1.6257-2.0291.2111-.694-.0167-1.4826-.6835-2.3659-.5944-.7875-1.2584-1.18-1.9917-1.1777-.7227-.0058-1.515.3167-2.377.9674l-1.3567 1.0243 3.4584 4.5812z"/><path d="m72.1416 17.9463.5289 1.4419-4.6983 2.538 2.1389 3.9593 4.0824-2.2054.7224 1.3373-4.0824 2.2054 2.2434 4.1528 5.0326-2.7187.7225 1.3373-6.7043 3.6218-6.5496-12.124z"/><path d="m88.0411 19.8539-2.0179.7124 1.9441 5.5069-1.7916.6325-4.5873-12.994 3.4135-1.2051c1.6219-.5726 2.9565-.6973 4.0038-.3742 1.0599.3187 1.8051 1.0878 2.2356 2.3074.3196.9052.3467 1.7229.0812 2.4529s-.8186 1.406-1.6595 2.0281l5.5651 4.5891-2.1311.7524zm-.6934-1.3035c.9429-.3329 1.5867-.7722 1.9313-1.3181.3402-.5584.3594-1.2651.0575-2.12-.284-.8047-.7334-1.2965-1.348-1.4754-.6065-.196-1.4441-.1053-2.5128.272l-1.603.5659 1.6645 4.7148z"/><path d="m103.479 5.07211c-.473 1.14479-.831 2.15703-1.073 3.0367-.231.86393-.362 1.82287-.391 2.87679-.016 1.0513.113 2.2496.388 3.5951.273 1.3324.623 2.4788 1.051 3.4392.441.9578.94 1.8015 1.498 2.5312.568.714 1.293 1.4979 2.175 2.3517l-.976 1.0163c-1.113-1.0516-1.985-1.9211-2.616-2.6087-.62-.7033-1.206-1.5701-1.757-2.6006-.541-1.0462-.959-2.2943-1.256-3.7443-.296-1.4499-.4-2.7556-.311-3.917.099-1.17719.297-2.20441.594-3.08171.308-.89303.767-2.04168 1.378-3.44596z"/><path d="m118.492 5.32429c.825-.05682 1.524.00193 2.097.17627.587.17342 1.189.4794 1.807.91793l-.953 1.28861c-.885-.62066-1.793-.8989-2.724-.83475-1.144.07882-2.038.58148-2.683 1.50797-.631.92558-.88 2.35938-.746 4.30148.13 1.8888.572 3.2617 1.326 4.1186.754.8435 1.702 1.2259 2.846 1.1471.585-.0404 1.091-.1754 1.516-.4052.425-.2297.871-.5412 1.339-.9342l1.02 1.1325c-.395.4683-.916.8717-1.561 1.2102-.644.3384-1.399.5374-2.264.597-1.117.077-2.134-.127-3.049-.6118-.903-.4991-1.638-1.2638-2.203-2.294-.553-1.0445-.881-2.3183-.985-3.8214s.061-2.8041.493-3.90308c.431-1.11228 1.06-1.97088 1.887-2.57583s1.773-.94408 2.837-1.0174z"/><path d="m138.604 19.8108-.735-3.5374-5.2-.4543-1.337 3.3564-1.913-.1671 5.603-13.34307 2.391.20887 3.184 14.1106zm-5.343-5.4858 4.284.3742-1.505-7.35891z"/><path d="m159.694 24.3774-1.778-.4756 1.144-6.1327c.437-2.4088.812-4.2478 1.124-5.517l-5.535 9.1606-1.72-.46-.371-10.7616c-.431 1.6101-1.013 3.4489-1.745 5.5165l-2.016 5.7545-1.739-.4652 4.663-13.01719 2.473.66161.212 10.42908 5.255-8.9663 2.493.6668z"/><path d="m176.535 16.441c1.547.7203 2.592 1.6038 3.134 2.6504.548 1.0345.523 2.1925-.073 3.4738-.636 1.3659-1.55 2.1759-2.742 2.4299-1.192.2541-2.519.0407-3.981-.6402l-1.578-.7343-2.135 4.5873-1.723-.8019 5.816-12.4927zm-3.102 6.5202c1.003.4671 1.855.6282 2.555.4833.712-.1392 1.301-.7104 1.768-1.7137.417-.8945.452-1.665.106-2.3115-.334-.6408-.991-1.1892-1.97-1.645l-1.541-.7174-2.423 5.2038z"/><path d="m192.528 36.6843c-.52.7589-1.139 1.3206-1.858 1.6849-.7.3609-1.465.499-2.296.4145-.813-.0881-1.637-.4185-2.473-.9914-1.264-.8667-2.006-1.884-2.224-3.0518-.199-1.1712.1-2.3397.899-3.5055l5.291-7.721 1.568 1.074-5.212 7.6055c-.603.8799-.858 1.6755-.763 2.3868.094.7112.543 1.342 1.346 1.8922.814.5578 1.566.7578 2.256.6002.697-.1686 1.351-.6983 1.961-1.5892l5.212-7.6055 1.584 1.0853z"/><path d="m209.274 38.386c.666.6346 1.143 1.2738 1.433 1.9176.298.6341.48 1.3606.547 2.1795l-1.553.1223c-.091-.658-.256-1.2293-.494-1.7139-.219-.4852-.536-.9255-.951-1.321-.522-.4967-1.066-.7854-1.634-.866s-1.072.1107-1.514.5741c-.276.2895-.452.5909-.53.904-.068.3034-.026.6843.127 1.1427.162.4677.455 1.0783.879 1.832.443.791.767 1.4952.97 2.1127.204.6175.242 1.2438.116 1.8787-.107.6344-.446 1.2509-1.016 1.8493-.552.5792-1.184.9528-1.897 1.1209-.703.1772-1.445.1338-2.224-.1303-.77-.2549-1.522-.7319-2.256-1.431-1.38-1.3153-2.1-2.8211-2.16-4.5172l1.553-.1223c.093.7145.264 1.3564.514 1.9257.258.5596.643 1.0831 1.155 1.5707.618.5886 1.272.9265 1.962 1.0136.7.0775 1.326-.1734 1.878-.7526.313-.3281.507-.6582.584-.9901.086-.3416.058-.7465-.086-1.2145-.133-.4589-.407-1.0512-.82-1.7768-.729-1.2839-1.123-2.3684-1.182-3.2535-.059-.885.265-1.6992.974-2.4424.478-.502 1.036-.8266 1.674-.9741.647-.1382 1.313-.0929 1.998.1358.694.2379 1.345.6466 1.953 1.2261z"/><path d="m221.131 46.8412c-.42 1.4728-.799 2.6466-1.137 3.5212-.319.8766-.818 1.796-1.497 2.7582-.66.9642-1.565 1.9122-2.715 2.8441-1.15.9318-2.27 1.6251-3.36 2.0797-1.072.4566-2.075.7545-3.009.8937-.915.1411-2.137.2645-3.664.37l-.109-1.4049c1.223-.0994 2.277-.2498 3.161-.4512.902-.1993 1.824-.5342 2.764-1.0045.949-.46 1.952-1.1182 3.008-1.9745 1.067-.8647 1.924-1.7135 2.57-2.5463.655-.8226 1.163-1.6462 1.524-2.4711.38-.8228.751-1.8268 1.112-3.0119z"/><path d="m234.657 73.0924c.402.8277.625 1.5937.67 2.2979.058.6984-.026 1.4428-.25 2.2332l-1.497-.4292c.145-.6483.19-1.2411.137-1.7784-.035-.5312-.178-1.0546-.429-1.5705-.314-.6477-.723-1.1088-1.226-1.3831-.504-.2743-1.044-.2718-1.62.0076-.359.1747-.63.3951-.812.6613-.171.2603-.264.6319-.282 1.1147-.012.4948.049 1.1694.182 2.0237.138.8962.195 1.6691.169 2.3188s-.209 1.2498-.549 1.8003c-.323.5567-.856 1.0155-1.6 1.3764-.72.3493-1.443.4779-2.169.3858-.721-.0801-1.4-.3804-2.038-.9008-.632-.5084-1.169-1.2185-1.611-2.1301-.833-1.7154-.98-3.3779-.442-4.9876l1.498.4292c-.164.7018-.228 1.3629-.194 1.9835.046.6148.224 1.2401.532 1.8758.373.7677.867 1.3133 1.484 1.6367.628.3175 1.302.3016 2.022-.0476.408-.1979.706-.4389.894-.7229.2-.2898.315-.679.345-1.1677.035-.4766-.014-1.1272-.147-1.9517-.233-1.4578-.222-2.6116.032-3.4613.255-.8497.844-1.4987 1.767-1.9469.624-.3027 1.261-.4114 1.91-.3262.654.0972 1.262.3728 1.824.8267.566.4659 1.033 1.0767 1.4 1.8324z"/><path d="m233.814 98.2467c-.881.2642-1.715.3125-2.503.1451-.772-.1585-1.454-.5316-2.048-1.1191-.577-.5787-1.011-1.3533-1.302-2.324-.441-1.4687-.379-2.726.184-3.7719.58-1.0369 1.547-1.7582 2.901-2.1641l8.966-2.6879.545 1.82-8.831 2.6477c-1.022.3063-1.719.7659-2.092 1.3789-.373.6129-.42 1.3855-.141 2.3179.284.9451.743 1.5729 1.379 1.8833.649.3066 1.491.3049 2.525-.0053l8.832-2.6476.551 1.8391z"/><path d="m245.578 110.386c.215 1.694.024 3.048-.573 4.065-.583 1.015-1.576 1.611-2.978 1.789-1.495.189-2.667-.152-3.517-1.026-.85-.873-1.377-2.11-1.58-3.71l-.219-1.727-5.019.637-.24-1.885 13.671-1.734zm-7.17.849c.14 1.098.457 1.905.952 2.42.497.528 1.295.723 2.393.583.979-.124 1.649-.504 2.012-1.142.364-.624.479-1.472.343-2.543l-.214-1.687-5.695.723z"/><path d="m246.447 132.934-1.514-.258.134-5.338-4.498-.114-.117 4.639-1.52-.038.117-4.639-4.718-.119-.144 5.718-1.52-.038.192-7.617 13.776.346z"/><path d="m236.885 145.779.386-2.105-5.745-1.051.342-1.869 13.555 2.482-.652 3.56c-.31 1.692-.865 2.912-1.666 3.66-.804.761-1.842 1.025-3.114.792-.944-.173-1.667-.556-2.169-1.149-.501-.593-.812-1.409-.934-2.448l-6.749 2.546.407-2.223zm1.476.047c-.18.984-.119 1.761.183 2.331.315.573.919.941 1.811 1.104.839.154 1.489.009 1.95-.435.472-.429.81-1.201 1.014-2.316l.306-1.672-4.918-.901z"/><path d="m242.032 166.524c-.758-.98-1.458-1.793-2.101-2.441-.634-.63-1.401-1.22-2.301-1.77-.904-.537-2.008-1.021-3.312-1.451-1.292-.426-2.46-.692-3.506-.799-1.051-.093-2.031-.08-2.941.041-.902.138-1.943.377-3.122.718l-.397-1.352c1.466-.443 2.654-.767 3.564-.973.919-.188 1.962-.265 3.13-.231 1.177.052 2.468.309 3.873.773 1.406.464 2.59 1.023 3.554 1.678.971.671 1.764 1.354 2.378 2.048.622.711 1.39 1.68 2.304 2.908z"/><path d="m234.348 179.424c-.361.743-.76 1.321-1.196 1.731-.442.423-1.007.794-1.695 1.112l-.644-1.468c.978-.459 1.671-1.109 2.079-1.948.5-1.032.509-2.058.026-3.078-.49-1.008-1.61-1.936-3.361-2.786-1.704-.827-3.115-1.126-4.233-.898-1.106.234-1.91.867-2.41 1.899-.256.528-.39 1.033-.403 1.516-.012.483.037 1.025.145 1.626l-1.49.322c-.21-.576-.301-1.227-.274-1.955s.23-1.482.608-2.262c.489-1.007 1.172-1.788 2.048-2.341.882-.535 1.91-.792 3.085-.77 1.181.039 2.45.388 3.805 1.045 1.356.658 2.403 1.448 3.142 2.369.75.927 1.182 1.9 1.296 2.919.113 1.018-.063 2.007-.528 2.967z"/><path d="m211.778 189.669 3.434 1.121 2.98-4.286-2.247-2.829 1.096-1.576 8.791 11.496-1.371 1.97-13.825-4.254zm7.416-1.908-2.455 3.531 7.133 2.353z"/><path d="m197.328 205.694 1.297-1.305 4.751 4.042c1.873 1.577 3.282 2.817 4.228 3.719l-5.195-9.358 1.254-1.263 9.522 5.029c-1.183-1.174-2.489-2.593-3.919-4.257l-3.99-4.611 1.269-1.277 8.974 10.519-1.803 1.816-9.154-5.002 5.165 9.018-1.818 1.831z"/><path d="m195.839 224.252c-1.395.984-2.681 1.451-3.858 1.401-1.17-.039-2.163-.636-2.978-1.791-.869-1.23-1.117-2.426-.745-3.587.373-1.16 1.218-2.205 2.536-3.136l1.421-1.003-2.917-4.134 1.552-1.096 7.946 11.258zm-4.115-5.933c-.904.638-1.467 1.297-1.69 1.976-.233.687-.03 1.482.608 2.386.569.806 1.22 1.22 1.953 1.241.722.029 1.524-.268 2.407-.891l1.388-.98-3.31-4.69z"/><path d="m170.322 228.061c-.399-.829-.579-1.645-.537-2.45.034-.786.295-1.519.782-2.198.48-.661 1.177-1.212 2.09-1.652 1.381-.667 2.632-.804 3.753-.413 1.116.41 1.981 1.251 2.595 2.524l4.067 8.43-1.711.826-4.007-8.304c-.463-.961-1.027-1.577-1.691-1.849s-1.435-.196-2.311.227c-.889.428-1.436.981-1.643 1.658-.2.689-.066 1.52.404 2.493l4.006 8.304-1.729.834z"/><path d="m160.518 241.743c-.881.262-1.673.359-2.376.289-.698-.056-1.419-.259-2.163-.609l.666-1.408c.617.248 1.194.389 1.733.424.53.051 1.07-.005 1.619-.169.69-.205 1.212-.534 1.564-.986.352-.453.437-.986.255-1.599-.114-.384-.288-.687-.521-.909-.229-.21-.581-.363-1.054-.459-.487-.092-1.162-.141-2.027-.149-.907-.008-1.678-.078-2.315-.208-.637-.131-1.2-.409-1.688-.834-.497-.408-.863-1.009-1.099-1.801-.228-.767-.238-1.501-.029-2.203.196-.698.602-1.32 1.219-1.865.604-.541 1.392-.957 2.363-1.245 1.828-.544 3.492-.42 4.993.372l-.666 1.408c-.666-.275-1.308-.445-1.926-.512-.614-.054-1.26.02-1.937.221-.818.243-1.437.643-1.855 1.199-.416.568-.509 1.236-.281 2.003.129.434.318.768.568.999.254.245.619.421 1.097.53.464.112 1.114.169 1.949.171 1.477.006 2.613.204 3.411.593.797.389 1.342 1.075 1.634 2.059.198.665.202 1.31.013 1.937-.202.63-.573 1.186-1.111 1.666-.552.484-1.23.846-2.036 1.085z"/><path d="m147.287 247.825c-1.07-1.096-1.899-2.009-2.49-2.737-.602-.713-1.151-1.603-1.649-2.671-.508-1.052-.88-2.309-1.117-3.77-.236-1.461-.281-2.777-.133-3.949.137-1.157.377-2.175.721-3.055.332-.864.833-1.985 1.501-3.363l1.273.604c-.522 1.111-.916 2.1-1.181 2.967-.275.882-.443 1.848-.503 2.898-.072 1.052 0 2.249.217 3.591.22 1.356.53 2.521.932 3.496.388.978.849 1.828 1.385 2.552.525.738 1.212 1.559 2.061 2.462z"/></g></svg>