<svg width="252" height="252" viewBox="0 0 252 252" fill="none" xmlns="http://www.w3.org/2000/svg">
<path d="M116.657 246.423C115.74 246.352 114.966 246.157 114.335 245.841C113.704 245.537 113.103 245.089 112.535 244.496L113.662 243.421C114.148 243.873 114.636 244.212 115.127 244.438C115.603 244.676 116.127 244.817 116.699 244.862C117.417 244.918 118.021 244.798 118.512 244.502C119.004 244.206 119.274 243.739 119.324 243.101C119.355 242.702 119.302 242.357 119.164 242.066C119.026 241.787 118.752 241.519 118.345 241.259C117.924 240.999 117.311 240.71 116.507 240.393C115.663 240.06 114.968 239.718 114.42 239.368C113.873 239.017 113.447 238.556 113.144 237.984C112.827 237.424 112.701 236.732 112.765 235.908C112.827 235.11 113.082 234.421 113.528 233.841C113.962 233.26 114.564 232.825 115.336 232.538C116.094 232.25 116.978 232.145 117.988 232.224C119.889 232.373 121.398 233.086 122.515 234.364L121.388 235.439C120.865 234.943 120.327 234.553 119.774 234.269C119.22 233.999 118.591 233.836 117.886 233.781C117.036 233.714 116.315 233.865 115.725 234.234C115.133 234.615 114.806 235.205 114.744 236.002C114.708 236.454 114.766 236.833 114.916 237.139C115.064 237.459 115.342 237.754 115.749 238.027C116.142 238.299 116.728 238.585 117.507 238.887C118.883 239.422 119.873 240.015 120.478 240.664C121.082 241.313 121.344 242.149 121.264 243.173C121.21 243.864 120.983 244.468 120.581 244.985C120.166 245.501 119.621 245.886 118.946 246.141C118.257 246.395 117.494 246.489 116.657 246.423Z" fill="black"/>
<path d="M95.3774 232.984C95.5948 232.09 95.9748 231.345 96.5175 230.75C97.0441 230.164 97.711 229.764 98.5181 229.548C99.3091 229.343 100.197 229.36 101.182 229.599C102.671 229.962 103.725 230.65 104.343 231.665C104.945 232.689 105.078 233.888 104.744 235.262L102.532 244.356L100.686 243.907L102.865 234.949C103.117 233.912 103.073 233.078 102.733 232.446C102.392 231.815 101.749 231.384 100.803 231.154C99.8447 230.921 99.0707 231 98.4814 231.392C97.8889 231.797 97.4651 232.524 97.2099 233.573L95.0311 242.532L93.1654 242.078L95.3774 232.984Z" fill="black"/>
<path d="M78.9567 236.999C77.3872 236.329 76.3147 235.479 75.7392 234.451C75.1585 233.434 75.1457 232.276 75.7008 230.976C76.2927 229.591 77.1801 228.752 78.3633 228.46C79.5465 228.168 80.8799 228.339 82.3635 228.972L83.9637 229.656L85.9512 225.002L87.6985 225.749L82.2857 238.421L78.9567 236.999ZM81.8479 230.383C80.8302 229.948 79.9739 229.815 79.279 229.982C78.5719 230.144 78.001 230.734 77.5663 231.751C77.1788 232.659 77.1683 233.43 77.535 234.065C77.8894 234.695 78.5632 235.222 79.5564 235.646L81.1198 236.314L83.3745 231.035L81.8479 230.383Z" fill="black"/>
<path d="M59.0617 226.353L60.0496 225.177L64.5881 227.991L66.9594 224.167L63.0159 221.722L63.8168 220.43L67.7603 222.875L70.2476 218.863L65.3862 215.849L66.1872 214.557L72.6633 218.573L65.4019 230.284L59.0617 226.353Z" fill="black"/>
<path d="M52.81 211.61L54.4315 213.007L58.2424 208.582L59.6821 209.821L50.69 220.263L47.947 217.901C46.6436 216.779 45.8717 215.683 45.6313 214.613C45.3807 213.535 45.6774 212.506 46.5213 211.526C47.1478 210.799 47.8437 210.369 48.609 210.236C49.3744 210.103 50.236 210.247 51.1938 210.667L52.4078 203.557L54.1203 205.032L52.81 211.61ZM52.0239 212.86C51.2662 212.208 50.5648 211.868 49.9199 211.84C49.2663 211.823 48.6436 212.158 48.052 212.845C47.4951 213.491 47.2919 214.126 47.4423 214.748C47.5739 215.371 48.0691 216.053 48.9279 216.793L50.2161 217.902L53.4788 214.113L52.0239 212.86Z" fill="black"/>
<path d="M32.3081 205.567C33.5368 205.409 34.5929 205.216 35.4764 204.988C36.3411 204.76 37.2379 204.396 38.1669 203.897C39.087 203.389 40.0623 202.68 41.0927 201.772C42.1132 200.873 42.9336 199.999 43.5541 199.151C44.1657 198.292 44.6495 197.439 45.0053 196.593C45.3423 195.745 45.6618 194.726 45.9637 193.536L47.3308 193.877C46.9722 195.366 46.6514 196.555 46.3685 197.444C46.0668 198.332 45.6059 199.271 44.9859 200.261C44.3471 201.251 43.4725 202.235 42.362 203.213C41.2516 204.191 40.1704 204.931 39.1185 205.431C38.0478 205.93 37.0581 206.269 36.1493 206.448C35.2217 206.625 33.9969 206.798 32.4747 206.967L32.3081 205.567Z" fill="black"/>
<path d="M25.0613 192.417C24.6019 191.73 24.3052 191.094 24.1713 190.51C24.0301 189.915 23.9959 189.24 24.0689 188.486L25.6612 188.672C25.5627 189.749 25.7728 190.675 26.2915 191.451C26.9288 192.404 27.8095 192.93 28.9339 193.028C30.0508 193.115 31.4184 192.618 33.0368 191.536C34.6108 190.484 35.582 189.418 35.9504 188.338C36.3078 187.265 36.1678 186.252 35.5305 185.298C35.2045 184.811 34.8361 184.439 34.4253 184.185C34.0145 183.93 33.5224 183.698 32.9489 183.488L33.4241 182.039C34.027 182.15 34.6357 182.4 35.25 182.791C35.8644 183.183 36.4124 183.739 36.894 184.459C37.5165 185.39 37.845 186.373 37.8796 187.409C37.8957 188.441 37.5975 189.458 36.9849 190.461C36.3538 191.46 35.4119 192.378 34.1594 193.216C32.9068 194.053 31.6964 194.557 30.528 194.729C29.3486 194.908 28.2908 194.789 27.3547 194.373C26.4185 193.956 25.6541 193.304 25.0613 192.417Z" fill="black"/>
<path d="M27.6276 167.764L24.9242 170.161L27.1161 174.898L30.693 174.389L31.4992 176.132L17.1369 177.907L16.1291 175.729L26.7878 165.949L27.6276 167.764ZM25.5253 175.128L23.7197 171.225L18.0838 176.191L25.5253 175.128Z" fill="black"/>
<path d="M21.1019 147.197L21.5732 148.975L15.6838 151.033C13.3764 151.851 11.5946 152.44 10.3384 152.801L21.0388 153.048L21.4948 154.769L12.3429 160.442C13.954 160.015 15.8385 159.606 17.9966 159.213L23.9916 158.1L24.4527 159.84L10.8405 162.268L10.1847 159.794L19.1274 154.423L8.7347 154.323L8.07375 151.829L21.1019 147.197Z" fill="black"/>
<path d="M5.84147 136.532C5.69692 134.832 5.94383 133.486 6.5822 132.495C7.20728 131.505 8.22394 130.951 9.6322 130.831C11.1335 130.703 12.2906 131.093 13.1038 132.001C13.9169 132.909 14.3918 134.166 14.5284 135.774L14.6758 137.508L19.7176 137.079L19.8786 138.972L6.14806 140.139L5.84147 136.532ZM13.0406 135.981C12.9469 134.878 12.6632 134.059 12.1895 133.524C11.7147 132.976 10.9259 132.748 9.82321 132.842C8.84009 132.925 8.15416 133.278 7.76543 133.9C7.37557 134.509 7.22637 135.351 7.31785 136.427L7.46183 138.121L13.1812 137.635L13.0406 135.981Z" fill="black"/>
<path d="M15.4507 112.59C16.3677 112.664 17.1629 112.921 17.8363 113.364C18.4975 113.791 18.998 114.387 19.3379 115.15C19.6655 115.898 19.7887 116.778 19.7074 117.788C19.5844 119.316 19.0706 120.465 18.1659 121.235C17.249 121.991 16.0862 122.312 14.6774 122.199L5.34757 121.448L5.49998 119.554L14.6903 120.294C15.7535 120.379 16.5702 120.204 17.1403 119.768C17.7104 119.333 18.0345 118.63 18.1126 117.66C18.1917 116.676 17.9914 115.924 17.5116 115.404C17.0185 114.883 16.2337 114.579 15.1571 114.492L5.96685 113.753L6.12087 111.839L15.4507 112.59Z" fill="black"/>
<path d="M8.59928 97.2152C8.8187 96.3218 9.1358 95.5896 9.55059 95.0187C9.95243 94.4447 10.4919 93.925 11.1691 93.4597L12.0476 94.7464C11.5222 95.1528 11.1084 95.5798 10.8063 96.0273C10.4944 96.4587 10.2701 96.9528 10.1333 97.5096C9.96162 98.2088 9.98197 98.8248 10.1944 99.3575C10.4068 99.8902 10.8238 100.233 11.4453 100.385C11.8338 100.481 12.183 100.484 12.4931 100.396C12.7902 100.304 13.0998 100.078 13.4216 99.7175C13.7467 99.3443 14.1308 98.7865 14.574 98.0441C15.0397 97.266 15.4898 96.6352 15.9243 96.1515C16.3589 95.6679 16.883 95.3229 17.4965 95.1166C18.1003 94.8942 18.8036 94.8816 19.6065 95.0787C20.3834 95.2695 21.0219 95.6323 21.5222 96.167C22.0256 96.6888 22.3566 97.3536 22.5152 98.1614C22.6769 98.9563 22.637 99.8458 22.3953 100.83C21.9406 102.681 20.9923 104.055 19.5505 104.95L18.672 103.664C19.2458 103.228 19.7176 102.76 20.0875 102.261C20.4443 101.758 20.707 101.163 20.8756 100.477C21.0791 99.6485 21.0469 98.9129 20.7791 98.2705C20.4983 97.6249 19.9694 97.2067 19.1925 97.0159C18.7522 96.9078 18.369 96.9029 18.0428 97.0013C17.7037 97.0965 17.3667 97.3226 17.0318 97.6798C16.7002 98.0239 16.3224 98.5558 15.8985 99.2755C15.1471 100.546 14.4021 101.427 13.6636 101.919C12.9251 102.41 12.0574 102.533 11.0603 102.289C10.387 102.123 9.82781 101.801 9.38278 101.321C8.94092 100.828 8.649 100.227 8.507 99.5197C8.36818 98.7991 8.39894 98.031 8.59928 97.2152Z" fill="black"/>
<path d="M10.0386 82.7236C11.5251 82.3552 12.7318 82.1002 13.6587 81.9585C14.578 81.7995 15.6239 81.7754 16.7964 81.886C17.9612 81.9793 19.2337 82.293 20.614 82.8272C21.9942 83.3613 23.1527 83.9883 24.0893 84.7082C25.0184 85.4108 25.7755 86.1327 26.3608 86.8739C26.9385 87.5978 27.6529 88.5963 28.5042 89.8693L27.3395 90.6624C26.6447 89.6501 25.9902 88.8107 25.376 88.1441C24.7542 87.4603 24.0055 86.8274 23.1298 86.2455C22.259 85.6512 21.1894 85.1086 19.921 84.6178C18.6403 84.1221 17.4778 83.801 16.4337 83.6543C15.3945 83.4951 14.4272 83.4639 13.5319 83.5607C12.6291 83.6402 11.5738 83.818 10.3661 84.0941L10.0386 82.7236Z" fill="black"/>
<path d="M26.0872 57.934C26.6056 57.1739 27.159 56.5991 27.7474 56.2096C28.3248 55.8126 29.0121 55.5147 29.8093 55.316L30.1817 56.8288C29.5472 57.0255 29.0102 57.2806 28.5705 57.594C28.1273 57.8889 27.7442 58.2732 27.4211 58.7468C27.0155 59.3417 26.8188 59.9258 26.8313 60.4991C26.8438 61.0725 27.1143 61.5394 27.6431 61.9C27.9736 62.1254 28.2995 62.2509 28.621 62.2765C28.9315 62.2945 29.3005 62.1912 29.7282 61.9664C30.1634 61.7306 30.7185 61.3426 31.3935 60.8023C32.1022 60.2366 32.7447 59.8033 33.3211 59.5024C33.8974 59.2015 34.5091 59.0619 35.1561 59.0835C35.7995 59.0866 36.4627 59.321 37.1457 59.7868C37.8066 60.2375 38.2778 60.8009 38.5591 61.4769C38.848 62.142 38.9252 62.8806 38.7909 63.6928C38.6642 64.4939 38.3153 65.3131 37.7443 66.1503C36.6701 67.7255 35.3009 68.68 33.6369 69.0138L33.2645 67.501C33.9546 67.2938 34.5603 67.021 35.0816 66.6825C35.5919 66.3366 36.0461 65.8717 36.4443 65.2879C36.9251 64.5829 37.1525 63.8826 37.1265 63.1871C37.0896 62.484 36.7406 61.9071 36.0797 61.4564C35.7051 61.2009 35.3479 61.0622 35.0079 61.0401C34.6569 61.0105 34.262 61.1044 33.8233 61.3217C33.3922 61.5279 32.8521 61.8939 32.2031 62.4196C31.0542 63.3468 30.0479 63.9113 29.1841 64.113C28.3203 64.3147 27.4643 64.1263 26.6161 63.5479C26.0433 63.1572 25.6325 62.6592 25.3837 62.0537C25.1424 61.4373 25.0792 60.7728 25.1939 60.0603C25.3162 59.3367 25.614 58.6279 26.0872 57.934Z" fill="black"/>
<path d="M48.3296 46.1559C48.997 46.7891 49.454 47.4891 49.7006 48.256C49.9466 49.004 49.9624 49.7817 49.7479 50.589C49.5329 51.3775 49.0767 52.1393 48.3793 52.8745C47.324 53.9869 46.2026 54.5587 45.0151 54.59C43.827 54.6025 42.7204 54.1223 41.695 53.1496L34.9044 46.7078L36.2121 45.3294L42.9011 51.6749C43.6749 52.409 44.4205 52.7854 45.1378 52.8043C45.8551 52.8231 46.5486 52.4794 47.2185 51.7733C47.8976 51.0575 48.2136 50.3465 48.1667 49.6404C48.1102 48.9251 47.6901 48.1958 46.9066 47.4525L40.2176 41.107L41.539 39.7141L48.3296 46.1559Z" fill="black"/>
<path d="M53.0116 29.9126C54.3737 28.8843 55.6441 28.3763 56.8228 28.3886C57.9935 28.3903 59.0046 28.9551 59.8562 30.0831C60.7639 31.2856 61.0503 32.4727 60.7154 33.6444C60.3804 34.8161 59.5691 35.888 58.2815 36.8601L56.8927 37.9084L59.9415 41.9469L58.425 43.0916L50.1224 32.0937L53.0116 29.9126ZM57.3138 35.7111C58.1971 35.0443 58.739 34.3679 58.9395 33.682C59.1506 32.988 58.9228 32.1994 58.256 31.3161C57.6616 30.5286 56.9976 30.1361 56.2643 30.1384C55.5416 30.1326 54.7493 30.4551 53.8873 31.1058L52.5306 32.1301L55.989 36.7113L57.3138 35.7111Z" fill="black"/>
<path d="M72.1416 17.9463L72.6705 19.3882L67.9722 21.9262L70.1111 25.8855L74.1935 23.6801L74.9159 25.0174L70.8335 27.2228L73.0769 31.3756L78.1095 28.6569L78.832 29.9942L72.1277 33.616L65.5781 21.492L72.1416 17.9463Z" fill="black"/>
<path d="M88.0411 19.8539L86.0232 20.5663L87.9673 26.0732L86.1757 26.7057L81.5884 13.7117L85.0019 12.5066C86.6238 11.934 87.9584 11.8093 89.0057 12.1324C90.0656 12.4511 90.8108 13.2202 91.2413 14.4398C91.5609 15.345 91.588 16.1627 91.3225 16.8927C91.057 17.6227 90.5039 18.2987 89.663 18.9208L95.2281 23.5099L93.097 24.2623L88.0411 19.8539ZM87.3477 18.5504C88.2906 18.2175 88.9344 17.7782 89.279 17.2323C89.6192 16.6739 89.6384 15.9672 89.3365 15.1123C89.0525 14.3076 88.6031 13.8158 87.9885 13.6369C87.382 13.4409 86.5444 13.5316 85.4757 13.9089L83.8727 14.4748L85.5372 19.1896L87.3477 18.5504Z" fill="black"/>
<path d="M103.479 5.07211C103.006 6.2169 102.648 7.22914 102.406 8.10881C102.175 8.97274 102.044 9.93168 102.015 10.9856C101.999 12.0369 102.128 13.2352 102.403 14.5807C102.676 15.9131 103.026 17.0595 103.454 18.0199C103.895 18.9777 104.394 19.8214 104.952 20.5511C105.52 21.2651 106.245 22.049 107.127 22.9028L106.151 23.9191C105.038 22.8675 104.166 21.998 103.535 21.3104C102.915 20.6071 102.329 19.7403 101.778 18.7098C101.237 17.6636 100.819 16.4155 100.522 14.9655C100.226 13.5156 100.122 12.2099 100.211 11.0485C100.31 9.87131 100.508 8.84409 100.805 7.96679C101.113 7.07376 101.572 5.92511 102.183 4.52083L103.479 5.07211Z" fill="black"/>
<path d="M118.492 5.32429C119.317 5.26747 120.016 5.32622 120.589 5.50056C121.176 5.67398 121.778 5.97996 122.396 6.41849L121.443 7.7071C120.558 7.08644 119.65 6.8082 118.719 6.87235C117.575 6.95117 116.681 7.45383 116.036 8.38032C115.405 9.3059 115.156 10.7397 115.29 12.6818C115.42 14.5706 115.862 15.9435 116.616 16.8004C117.37 17.6439 118.318 18.0263 119.462 17.9475C120.047 17.9071 120.553 17.7721 120.978 17.5423C121.403 17.3126 121.849 17.0011 122.317 16.6081L123.337 17.7406C122.942 18.2089 122.421 18.6123 121.776 18.9508C121.132 19.2892 120.377 19.4882 119.512 19.5478C118.395 19.6248 117.378 19.4208 116.463 18.936C115.56 18.4369 114.825 17.6722 114.26 16.642C113.707 15.5975 113.379 14.3237 113.275 12.8206C113.171 11.3175 113.336 10.0165 113.768 8.91752C114.199 7.80524 114.828 6.94664 115.655 6.34169C116.482 5.73674 117.428 5.39761 118.492 5.32429Z" fill="black"/>
<path d="M138.604 19.8108L137.869 16.2734L132.669 15.8191L131.332 19.1755L129.419 19.0084L135.022 5.66533L137.413 5.8742L140.597 19.9848L138.604 19.8108ZM133.261 14.325L137.545 14.6992L136.04 7.34029L133.261 14.325Z" fill="black"/>
<path d="M159.694 24.3774L157.916 23.9018L159.06 17.7691C159.497 15.3603 159.872 13.5213 160.184 12.2521L154.649 21.4127L152.929 20.9527L152.558 10.1911C152.127 11.8012 151.545 13.64 150.813 15.7076L148.797 21.4621L147.058 20.9969L151.721 7.97971L154.194 8.64132L154.406 19.0704L159.661 10.1041L162.154 10.7709L159.694 24.3774Z" fill="black"/>
<path d="M176.535 16.441C178.082 17.1613 179.127 18.0448 179.669 19.0914C180.217 20.1259 180.192 21.2839 179.596 22.5652C178.96 23.9311 178.046 24.7411 176.854 24.9951C175.662 25.2492 174.335 25.0358 172.873 24.3549L171.295 23.6206L169.16 28.2079L167.437 27.406L173.253 14.9133L176.535 16.441ZM173.433 22.9612C174.436 23.4283 175.288 23.5894 175.988 23.4445C176.7 23.3053 177.289 22.7341 177.756 21.7308C178.173 20.8363 178.208 20.0658 177.862 19.4193C177.528 18.7785 176.871 18.2301 175.892 17.7743L174.351 17.0569L171.928 22.2607L173.433 22.9612Z" fill="black"/>
<path d="M192.528 36.6843C192.008 37.4432 191.389 38.0049 190.67 38.3692C189.97 38.7301 189.205 38.8682 188.374 38.7837C187.561 38.6956 186.737 38.3652 185.901 37.7923C184.637 36.9256 183.895 35.9083 183.677 34.7405C183.478 33.5693 183.777 32.4008 184.576 31.235L189.867 23.514L191.435 24.588L186.223 32.1935C185.62 33.0734 185.365 33.869 185.46 34.5803C185.554 35.2915 186.003 35.9223 186.806 36.4725C187.62 37.0303 188.372 37.2303 189.062 37.0727C189.759 36.9041 190.413 36.3744 191.023 35.4835L196.235 27.878L197.819 28.9633L192.528 36.6843Z" fill="black"/>
<path d="M209.274 38.386C209.94 39.0206 210.417 39.6598 210.707 40.3036C211.005 40.9377 211.187 41.6642 211.254 42.4831L209.701 42.6054C209.61 41.9474 209.445 41.3761 209.207 40.8915C208.988 40.4063 208.671 39.966 208.256 39.5705C207.734 39.0738 207.19 38.7851 206.622 38.7045C206.054 38.6239 205.55 38.8152 205.108 39.2786C204.832 39.5681 204.656 39.8695 204.578 40.1826C204.51 40.486 204.552 40.8669 204.705 41.3253C204.867 41.793 205.16 42.4036 205.584 43.1573C206.027 43.9483 206.351 44.6525 206.554 45.27C206.758 45.8875 206.796 46.5138 206.67 47.1487C206.563 47.7831 206.224 48.3996 205.654 48.998C205.102 49.5772 204.47 49.9508 203.757 50.1189C203.054 50.2961 202.312 50.2527 201.533 49.9886C200.763 49.7337 200.011 49.2567 199.277 48.5576C197.897 47.2423 197.177 45.7365 197.117 44.0404L198.67 43.9181C198.763 44.6326 198.934 45.2745 199.184 45.8438C199.442 46.4034 199.827 46.9269 200.339 47.4145C200.957 48.0031 201.611 48.341 202.301 48.4281C203.001 48.5056 203.627 48.2547 204.179 47.6755C204.492 47.3474 204.686 47.0173 204.763 46.6854C204.849 46.3438 204.821 45.9389 204.677 45.4709C204.544 45.012 204.27 44.4197 203.857 43.6941C203.128 42.4102 202.734 41.3257 202.675 40.4406C202.616 39.5556 202.94 38.7414 203.649 37.9982C204.127 37.4962 204.685 37.1716 205.323 37.0241C205.97 36.8859 206.636 36.9312 207.321 37.1599C208.015 37.3978 208.666 37.8065 209.274 38.386Z" fill="black"/>
<path d="M221.131 46.8412C220.711 48.314 220.332 49.4878 219.994 50.3624C219.675 51.239 219.176 52.1584 218.497 53.1206C217.837 54.0848 216.932 55.0328 215.782 55.9647C214.632 56.8965 213.512 57.5898 212.422 58.0444C211.35 58.501 210.347 58.7989 209.413 58.9381C208.498 59.0792 207.276 59.2026 205.749 59.3081L205.64 57.9032C206.863 57.8038 207.917 57.6534 208.801 57.452C209.703 57.2527 210.625 56.9178 211.565 56.4475C212.514 55.9875 213.517 55.3293 214.573 54.473C215.64 53.6083 216.497 52.7595 217.143 51.9267C217.798 51.1041 218.306 50.2805 218.667 49.4556C219.047 48.6328 219.418 47.6288 219.779 46.4437L221.131 46.8412Z" fill="black"/>
<path d="M234.657 73.0924C235.059 73.9201 235.282 74.6861 235.327 75.3903C235.385 76.0887 235.301 76.8331 235.077 77.6235L233.58 77.1943C233.725 76.546 233.77 75.9532 233.717 75.4159C233.682 74.8847 233.539 74.3613 233.288 73.8454C232.974 73.1977 232.565 72.7366 232.062 72.4623C231.558 72.188 231.018 72.1905 230.442 72.4699C230.083 72.6446 229.812 72.865 229.63 73.1312C229.459 73.3915 229.366 73.7631 229.348 74.2459C229.336 74.7407 229.397 75.4153 229.53 76.2696C229.668 77.1658 229.725 77.9387 229.699 78.5884C229.673 79.2381 229.49 79.8382 229.15 80.3887C228.827 80.9454 228.294 81.4042 227.55 81.7651C226.83 82.1144 226.107 82.243 225.381 82.1509C224.66 82.0708 223.981 81.7705 223.343 81.2501C222.711 80.7417 222.174 80.0316 221.732 79.12C220.899 77.4046 220.752 75.7421 221.29 74.1324L222.788 74.5616C222.624 75.2634 222.56 75.9245 222.594 76.5451C222.64 77.1599 222.818 77.7852 223.126 78.4209C223.499 79.1886 223.993 79.7342 224.61 80.0576C225.238 80.3751 225.912 80.3592 226.632 80.01C227.04 79.8121 227.338 79.5711 227.526 79.2871C227.726 78.9973 227.841 78.6081 227.871 78.1194C227.906 77.6428 227.857 76.9922 227.724 76.1677C227.491 74.7099 227.502 73.5561 227.756 72.7064C228.011 71.8567 228.6 71.2077 229.523 70.7595C230.147 70.4568 230.784 70.3481 231.433 70.4333C232.087 70.5305 232.695 70.8061 233.257 71.26C233.823 71.7259 234.29 72.3367 234.657 73.0924Z" fill="black"/>
<path d="M233.814 98.2467C232.933 98.5109 232.099 98.5592 231.311 98.3918C230.539 98.2333 229.857 97.8602 229.263 97.2727C228.686 96.694 228.252 95.9194 227.961 94.9487C227.52 93.48 227.582 92.2227 228.145 91.1768C228.725 90.1399 229.692 89.4186 231.046 89.0127L240.012 86.3248L240.557 88.1448L231.726 90.7925C230.704 91.0988 230.007 91.5584 229.634 92.1714C229.261 92.7843 229.214 93.5569 229.493 94.4893C229.777 95.4344 230.236 96.0622 230.872 96.3726C231.521 96.6792 232.363 96.6775 233.397 96.3673L242.229 93.7197L242.78 95.5588L233.814 98.2467Z" fill="black"/>
<path d="M245.578 110.386C245.793 112.08 245.602 113.434 245.005 114.451C244.422 115.466 243.429 116.062 242.027 116.24C240.532 116.429 239.36 116.088 238.51 115.214C237.66 114.341 237.133 113.104 236.93 111.504L236.711 109.777L231.692 110.414L231.452 108.529L245.123 106.795L245.578 110.386ZM238.408 111.235C238.548 112.333 238.865 113.14 239.36 113.655C239.857 114.183 240.655 114.378 241.753 114.238C242.732 114.114 243.402 113.734 243.765 113.096C244.129 112.472 244.244 111.624 244.108 110.553L243.894 108.866L238.199 109.589L238.408 111.235Z" fill="black"/>
<path d="M246.447 132.934L244.933 132.676L245.067 127.338L240.569 127.224L240.452 131.863L238.932 131.825L239.049 127.186L234.331 127.067L234.187 132.785L232.667 132.747L232.859 125.13L246.635 125.476L246.447 132.934Z" fill="black"/>
<path d="M236.885 145.779L237.271 143.674L231.526 142.623L231.868 140.754L245.423 143.236L244.771 146.796C244.461 148.488 243.906 149.708 243.105 150.456C242.301 151.217 241.263 151.481 239.991 151.248C239.047 151.075 238.324 150.692 237.822 150.099C237.321 149.506 237.01 148.69 236.888 147.651L230.139 150.197L230.546 147.974L236.885 145.779ZM238.361 145.826C238.181 146.81 238.242 147.587 238.544 148.157C238.859 148.73 239.463 149.098 240.355 149.261C241.194 149.415 241.844 149.27 242.305 148.826C242.777 148.397 243.115 147.625 243.319 146.51L243.625 144.838L238.707 143.937L238.361 145.826Z" fill="black"/>
<path d="M242.032 166.524C241.274 165.544 240.574 164.731 239.931 164.083C239.297 163.453 238.53 162.863 237.63 162.313C236.726 161.776 235.622 161.292 234.318 160.862C233.026 160.436 231.858 160.17 230.812 160.063C229.761 159.97 228.781 159.983 227.871 160.104C226.969 160.242 225.928 160.481 224.749 160.822L224.352 159.47C225.818 159.027 227.006 158.703 227.916 158.497C228.835 158.309 229.878 158.232 231.046 158.266C232.223 158.318 233.514 158.575 234.919 159.039C236.325 159.503 237.509 160.062 238.473 160.717C239.444 161.388 240.237 162.071 240.851 162.765C241.473 163.476 242.241 164.445 243.155 165.673L242.032 166.524Z" fill="black"/>
<path d="M234.348 179.424C233.987 180.167 233.588 180.745 233.152 181.155C232.71 181.578 232.145 181.949 231.457 182.267L230.813 180.799C231.791 180.34 232.484 179.69 232.892 178.851C233.392 177.819 233.401 176.793 232.918 175.773C232.428 174.765 231.308 173.837 229.557 172.987C227.853 172.16 226.442 171.861 225.324 172.089C224.218 172.323 223.414 172.956 222.914 173.988C222.658 174.516 222.524 175.021 222.511 175.504C222.499 175.987 222.548 176.529 222.656 177.13L221.166 177.452C220.956 176.876 220.865 176.225 220.892 175.497C220.919 174.769 221.122 174.015 221.5 173.235C221.989 172.228 222.672 171.447 223.548 170.894C224.43 170.359 225.458 170.102 226.633 170.124C227.814 170.163 229.083 170.512 230.438 171.169C231.794 171.827 232.841 172.617 233.58 173.538C234.33 174.465 234.762 175.438 234.876 176.457C234.989 177.475 234.813 178.464 234.348 179.424Z" fill="black"/>
<path d="M211.778 189.669L215.212 190.79L218.192 186.504L215.945 183.675L217.041 182.099L225.832 193.595L224.461 195.565L210.636 191.311L211.778 189.669ZM219.194 187.761L216.739 191.292L223.872 193.645L219.194 187.761Z" fill="black"/>
<path d="M197.328 205.694L198.625 204.389L203.376 208.431C205.249 210.008 206.658 211.248 207.604 212.15L202.409 202.792L203.663 201.529L213.185 206.558C212.002 205.384 210.696 203.965 209.266 202.301L205.276 197.69L206.545 196.413L215.519 206.932L213.716 208.748L204.562 203.746L209.727 212.764L207.909 214.595L197.328 205.694Z" fill="black"/>
<path d="M195.839 224.252C194.444 225.236 193.158 225.703 191.981 225.653C190.811 225.614 189.818 225.017 189.003 223.862C188.134 222.632 187.886 221.436 188.258 220.275C188.631 219.115 189.476 218.07 190.794 217.139L192.215 216.136L189.298 212.002L190.85 210.906L198.796 222.164L195.839 224.252ZM191.724 218.319C190.82 218.957 190.257 219.616 190.034 220.295C189.801 220.982 190.004 221.777 190.642 222.681C191.211 223.487 191.862 223.901 192.595 223.922C193.317 223.951 194.119 223.654 195.002 223.031L196.39 222.051L193.08 217.361L191.724 218.319Z" fill="black"/>
<path d="M170.322 228.061C169.923 227.232 169.743 226.416 169.785 225.611C169.819 224.825 170.08 224.092 170.567 223.413C171.047 222.752 171.744 222.201 172.657 221.761C174.038 221.094 175.289 220.957 176.41 221.348C177.526 221.758 178.391 222.599 179.005 223.872L183.072 232.302L181.361 233.128L177.354 224.824C176.891 223.863 176.327 223.247 175.663 222.975C174.999 222.703 174.228 222.779 173.352 223.202C172.463 223.63 171.916 224.183 171.709 224.86C171.509 225.549 171.643 226.38 172.113 227.353L176.119 235.657L174.39 236.491L170.322 228.061Z" fill="black"/>
<path d="M160.518 241.743C159.637 242.005 158.845 242.102 158.142 242.032C157.444 241.976 156.723 241.773 155.979 241.423L156.645 240.015C157.262 240.263 157.839 240.404 158.378 240.439C158.908 240.49 159.448 240.434 159.997 240.27C160.687 240.065 161.209 239.736 161.561 239.284C161.913 238.831 161.998 238.298 161.816 237.685C161.702 237.301 161.528 236.998 161.295 236.776C161.066 236.566 160.714 236.413 160.241 236.317C159.754 236.225 159.079 236.176 158.214 236.168C157.307 236.16 156.536 236.09 155.899 235.96C155.262 235.829 154.699 235.551 154.211 235.126C153.714 234.718 153.348 234.117 153.112 233.325C152.884 232.558 152.874 231.824 153.083 231.122C153.279 230.424 153.685 229.802 154.302 229.257C154.906 228.716 155.694 228.3 156.665 228.012C158.493 227.468 160.157 227.592 161.658 228.384L160.992 229.792C160.326 229.517 159.684 229.347 159.066 229.28C158.452 229.226 157.806 229.3 157.129 229.501C156.311 229.744 155.692 230.144 155.274 230.7C154.858 231.268 154.765 231.936 154.993 232.703C155.122 233.137 155.311 233.471 155.561 233.702C155.815 233.947 156.18 234.123 156.658 234.232C157.122 234.344 157.772 234.401 158.607 234.403C160.084 234.409 161.22 234.607 162.018 234.996C162.815 235.385 163.36 236.071 163.652 237.055C163.85 237.72 163.854 238.365 163.665 238.992C163.463 239.622 163.092 240.178 162.554 240.658C162.002 241.142 161.324 241.504 160.518 241.743Z" fill="black"/>
<path d="M147.287 247.825C146.217 246.729 145.388 245.816 144.797 245.088C144.195 244.375 143.646 243.485 143.148 242.417C142.64 241.365 142.268 240.108 142.031 238.647C141.795 237.186 141.75 235.87 141.898 234.698C142.035 233.541 142.275 232.523 142.619 231.643C142.951 230.779 143.452 229.658 144.12 228.28L145.393 228.884C144.871 229.995 144.477 230.984 144.212 231.851C143.937 232.733 143.769 233.699 143.709 234.749C143.637 235.801 143.709 236.998 143.926 238.34C144.146 239.696 144.456 240.861 144.858 241.836C145.246 242.814 145.707 243.664 146.243 244.388C146.768 245.126 147.455 245.947 148.304 246.85L147.287 247.825Z" fill="black"/>
</svg>
