<svg width="838" height="254" viewBox="0 0 838 254" fill="none" xmlns="http://www.w3.org/2000/svg">
<path d="M752.084 32.7556C640.451 13.1176 527.923 5.95092 412.913 5.08353C309.886 4.30651 169.187 -10.1565 76.6866 31.0475C30.0807 51.8079 -8.39735 104.714 4.53292 143.444C13.3093 169.732 35.95 191.807 70.0603 204.938C152.759 236.772 262.06 242.693 354.257 247.983C456.371 253.842 569.279 256.199 667.905 234.147C709.106 224.935 748.182 210.836 783.989 194.005C800.219 186.377 825.554 175.178 833.073 161.38C847.561 134.795 804.867 97.2804 779.326 80.9256C742.358 57.2539 699.159 45.7442 650.48 41.9797" stroke="#30E1B9" stroke-width="3" stroke-linecap="round" stroke-linejoin="round"/>
</svg>
