<svg width="1918" height="598" viewBox="0 0 1918 598" fill="none" xmlns="http://www.w3.org/2000/svg">
<path d="M-68.5 595.5C-68.5 595.5 80 588.5 110 553.5C140 518.5 271.5 497.5 308.5 481.5C345.5 465.5 426.5 451.5 475.5 389.5C524.5 327.5 565.5 258.5 633.5 244.5C701.5 230.5 793.06 215.89 832.78 210.2C872.5 204.5 971.5 208.5 1025.5 223.5C1079.5 238.5 1171.5 348.5 1200.5 386.5C1220.11 412.19 1274.01 434.23 1306.86 445.81C1323.66 451.73 1398.5 450.5 1421.5 399.5C1444.01 349.6 1457.14 303.38 1495.5 279.5C1540.84 251.27 1640 193.5 1749 174C1858 154.5 1917 30.5 1935 1.5" stroke="#211A39" stroke-width="5" stroke-miterlimit="10" stroke-dasharray="12 12"/>
</svg>
