<svg fill="none" height="167" viewBox="0 0 167 167" width="167" xmlns="http://www.w3.org/2000/svg"><circle cx="83.5" cy="83.5" fill="#3bd4ae" r="83.5"/><path d="m9.00434 85.5806c-.61-42 65.35996-42 64.73996 0 .61 42.0004-65.35996 42.0004-64.73996 0z" fill="#121328"/><path d="m91.8242 85.5806c.73-42.55 64.0198-42.54 64.7398 0-.72 42.5504-64.0198 42.5504-64.7398 0z" fill="#121328"/><g fill="#000"><path d="m149.964 40.8406c-.89 3.08-1.78 6.16-2.66 9.24.58-.39 1.16-.78 1.74-1.17-3.45-.47-6.89-.95-10.34-1.42-1.4-.19-2.75 2.4-1.03 2.63 3.45.47 6.89.95 10.34 1.42.69.1 1.55-.5 1.74-1.17.89-3.08 1.78-6.16 2.66-9.24.18-.62.06-1.37-.71-1.47-.69-.08-1.54.51-1.74 1.18z"/><path d="m15.3343 127.151c1.05-3.11 2.1-6.21 3.15-9.32.15-.45.3-.89.45-1.34-.68.36-1.36.72-2.03 1.08 2.82 1.78 5.64 3.55 8.46 5.33.62.39 1.53-.24 1.86-.75.39-.59.39-1.32-.24-1.72-2.82-1.78-5.64-3.55-8.46-5.33-.73-.46-1.82.44-2.03 1.08-1.05 3.11-2.1 6.21-3.15 9.32-.15.45-.3.89-.45 1.34-.21.62-.04 1.37.71 1.47.71.1 1.5-.5 1.73-1.16z"/><path d="m18.6843 50.3806c4.46-8.48 9.57-16.84 16.54-23.5 3.41-3.26 7.4-6.09 11.62-8.2 4.86-2.43 10.11-3.75 15.43-4.72 5.97-1.09 11.97-2.26 18.03-2.63 5.61-.34 11.27.01 16.82.95 10.7597 1.82 21.1297 5.84 29.8997 12.4 8.67 6.48 16.6 15.53 20.26 25.85.51 1.44 3.1-.27 2.47-1.62-2.2-4.69-4.57-9.17-7.7-13.31-3.06-4.06-6.63-7.74-10.58-10.95-8.56-6.93-18.8-11.65-29.54-14.01-11.8397-2.60999-23.9197-1.74999-35.7897.11-5.85.91-11.77 2.05-17.2 4.47-4.45 1.99-8.56 4.65-12.22 7.87-8.35 7.34-14.86 16.69-18.71 27.12-.18.46.47.54.67.17z"/><path d="m18.0044 118.55c3.32 9.36 8.85 17.95 16.02 24.85 3.6 3.46 7.47 6.49 11.91 8.81 4.96 2.59 10.31 3.98 15.79 4.98 11.89 2.17 24.13 3.38 36.13 1.39 10.9596-1.81 21.6396-6.17 30.5996-12.76 4.64-3.4 8.8-7.39 12.4-11.87 3.69-4.59 6.46-9.63 8.89-14.96.79-1.74-1.9-1.81-2.44-.3-3.34 9.19-10.06 17.35-17.55 23.49-8.25 6.76-18.13 11.22-28.54 13.43-5.4996 1.17-11.1196 1.78-16.7396 1.73-5.98-.05-11.89-1.02-17.76-2.09-5.59-1.02-11.2-1.96-16.49-4.14-4.44-1.83-8.52-4.41-12.25-7.42-8.37-6.74-14.14-16.32-19.24-25.62-.23-.44-.87.09-.73.48z"/></g><path d="m19.3345 85.5808c.49-28.96 43.57-28.96 44.06 0-.49 28.9602-43.57 28.9602-44.06 0z" fill="#fff"/><path d="m102.164 85.5808c.49-28.96 43.57-28.96 44.06 0-.49 28.9602-43.57 28.9602-44.06 0z" fill="#fff"/><g fill="#000"><path d="m132.844 77.0005c-.13-1.42-2.69-2.12-3.82-2.51-1.49-.52-3.26-1.1-4.85-.76-2.99.64-4.29 3.85-4.75 6.54-.63 3.67-1.05 7.68-.7 11.39.3 3.21 1.93 6.14 4.94 7.52 3.3 1.5095 7.45.45 9.81-2.26 1.17-1.35-.23-2.83-1.54-1.54-2.29 2.25-5.83 2.51-8.36.46-2.93-2.36-2.7-6.39-2.52-9.8.1-1.89.3-3.77.66-5.64.24-1.25.58-2.7 1.45-3.68 1.13-1.27 3.22-.65 4.64-.3.89.22 1.74.52 2.6.83.75.27 1.34.53 2.11.26.19-.07.35-.3.33-.51z"/><path d="m115.584 91.1905c4.33-.13 8.66-.02 12.98.3.74.06 1.46-.47 1.72-1.16.22-.58.04-1.4001-.7-1.4601-4.54-.34-9.08-.4299-13.63-.2899-1.45.04-2.23 2.66-.37 2.61z"/><path d="m115.584 84.5606c4.33-.13 8.66-.02 12.98.3.74.06 1.46-.47 1.72-1.16.22-.58.04-1.4-.7-1.46-4.54-.34-9.08-.43-13.63-.29-1.45.05-2.23 2.67-.37 2.61z"/><path d="m33.2744 78.5405c-.91 1.15-1.71 2.36-2.58 3.54-.99 1.35-2.45 2.57-3.32 3.95-.39.62-.66.88-.44 1.67.38 1.31 2.96 3.26 3.87 4.34 1.05 1.24 1.82 3.16 3.61 2.96.34-.04.76-.56.46-.87-1-1.02-1.73-2.4-2.62-3.53-.74-.94-3.49-3.3-3.34-4.09.21-1.04 2.53-2.74 3.24-3.59 1.02-1.24 1.87-2.53 2.57-3.97.52-1.09-.96-1.02-1.45-.41z"/><path d="m39.2644 94.2505c2.25-1.88 2.74-4.51 4.17-6.92 1.56-2.63 2.33-5.4 3.26-8.32.28-.89-.91-.84-1.16-.14-.55 1.55-.99 3.19-1.67 4.69-.8 1.77-2.33 3.03-3.24 4.74-.73 1.37-1.59 2.7-2.31 4.05-.43.81-.56 1.01-.23 1.91.2.55.9.22 1.18-.01z"/><path d="m49.2644 80.1607c1.32 3 3.7 5.56 4.63 8.74.06-.41.12-.81.17-1.22-1.35 2.22-3.8 4.2-5.72 5.91-1.29 1.15.16 2.5 1.44 1.44 1.61-1.32 3.17-2.7 4.54-4.26.63-.72 1.97-1.91 1.96-2.97-.01-1.35-1.62-2.46-2.35-3.42-1.26-1.67-2.2-3.55-3.47-5.21-.45-.6-1.46.42-1.2.99z"/><path d="m106.194 127.251c3.79-.29 7.58-.57 11.37-.86.55-.04 1.09-.08 1.64-.12-.38-.38-.75-.75-1.12-1.12-.78 3.55-1.57 7.1-2.35 10.65-.15.69.47 1.21 1.12 1.12.77-.1 1.34-.77 1.5-1.5.78-3.55 1.57-7.1 2.35-10.65.16-.72-.48-1.17-1.12-1.12-3.79.29-7.58.57-11.37.86-.55.04-1.09.08-1.64.12-1.45.11-2.24 2.76-.38 2.62z"/><path d="m116.734 125.871c-3.02 3.49-6.55 6.37-10.75 8.32-4.81 2.23-10.1198 2.87-15.3098 3.66-10.25 1.54-21.03.7-30.49-3.83-4.95-2.37-9.43-5.7-13-9.87-.92-1.07-2.96.93-2.02 2.02 6.81 7.91 16.96 12.65 27.19 14.16 5.47.81 11.06.71 16.56.18 5.5-.54 11.1798-1.22 16.2598-3.51 4.95-2.23 9.28-5.8 12.74-9.96.85-1.03-.27-2.22-1.18-1.17z"/></g></svg>