<svg fill="none" height="598" viewBox="0 0 1918 598" width="1918" xmlns="http://www.w3.org/2000/svg"><path d="m-68.5 595.5s148.5-7 178.5-42 161.5-56 198.5-72 118-30 167-92 90-131 158-145 159.56-28.61 199.28-34.3c39.72-5.7 138.72-1.7 192.72 13.3s146 125 175 163c19.61 25.69 73.51 47.73 106.36 59.31 16.8 5.92 91.64 4.69 114.64-46.31 22.51-49.9 35.64-96.12 74-120 45.34-28.23 144.5-86 253.5-105.5s168-143.5 186-172.5" stroke="#211a39" stroke-dasharray="12 12" stroke-miterlimit="10" stroke-width="5"/></svg>