<svg width="1028" height="292" viewBox="0 0 1028 292" fill="none" xmlns="http://www.w3.org/2000/svg">
<g filter="url(#filter0_d_2768_44)">
<path d="M306.314 231.035C306.314 236.708 305.45 241.888 303.724 246.575C302.12 251.138 299.16 255.085 294.844 258.415C290.65 261.622 284.854 264.15 277.453 266C270.053 267.85 260.618 268.775 249.148 268.775C237.678 268.775 228.243 267.85 220.843 266C213.443 264.15 207.584 261.622 203.268 258.415C199.074 255.085 196.114 251.138 194.387 246.575C192.784 241.888 191.982 236.708 191.982 231.035V139.459C191.982 137.115 192.476 135.45 193.462 134.464C194.572 133.354 196.299 132.799 198.642 132.799H227.688C230.031 132.799 231.696 133.354 232.683 134.464C233.793 135.45 234.348 137.115 234.348 139.459V223.82C234.348 226.286 235.273 228.383 237.123 230.11C238.973 231.713 243.105 232.515 249.518 232.515C256.055 232.515 260.248 231.713 262.098 230.11C263.948 228.383 264.873 226.286 264.873 223.82V139.459C264.873 137.115 265.367 135.45 266.353 134.464C267.463 133.354 269.19 132.799 271.533 132.799H299.654C301.997 132.799 303.662 133.354 304.649 134.464C305.759 135.45 306.314 137.115 306.314 139.459V231.035Z" fill="#FFDA1A"/>
<path d="M370.712 259.34C370.712 261.683 370.157 263.41 369.047 264.52C368.06 265.507 366.395 266 364.052 266H335.931C333.588 266 331.861 265.507 330.751 264.52C329.765 263.41 329.271 261.683 329.271 259.34V239.545C329.271 233.872 329.765 229.616 330.751 226.78C331.738 223.943 333.588 220.613 336.301 216.79L351.287 196.624L336.301 176.459C333.465 172.636 331.553 169.306 330.566 166.469C329.703 163.632 329.271 159.377 329.271 153.704V139.459C329.271 137.115 329.765 135.45 330.751 134.464C331.861 133.354 333.588 132.799 335.931 132.799H364.422C366.765 132.799 368.43 133.354 369.417 134.464C370.527 135.45 371.082 137.115 371.082 139.459V152.224C371.082 153.457 371.144 154.752 371.267 156.109C371.39 157.466 371.884 158.761 372.747 159.994L380.887 171.649C381.504 172.636 382.12 173.437 382.737 174.054C383.477 174.547 384.34 174.794 385.327 174.794H387.547C388.534 174.794 389.335 174.547 389.952 174.054C390.569 173.437 391.247 172.636 391.987 171.649L400.312 159.994C401.176 158.761 401.669 157.466 401.792 156.109C401.916 154.752 401.977 153.457 401.977 152.224V139.459C401.977 137.115 402.471 135.45 403.457 134.464C404.567 133.354 406.294 132.799 408.637 132.799H436.758C439.101 132.799 440.766 133.354 441.753 134.464C442.863 135.45 443.418 137.115 443.418 139.459V153.704C443.418 159.377 442.924 163.632 441.938 166.469C440.951 169.306 439.101 172.636 436.388 176.459L421.402 196.809L436.388 216.79C439.224 220.613 441.074 223.943 441.938 226.78C442.924 229.616 443.418 233.872 443.418 239.545V259.34C443.418 261.683 442.863 263.41 441.753 264.52C440.766 265.507 439.101 266 436.758 266H408.637C406.294 266 404.567 265.507 403.457 264.52C402.471 263.41 401.977 261.683 401.977 259.34V241.025C401.977 239.792 401.916 238.497 401.792 237.14C401.669 235.783 401.176 234.488 400.312 233.255L392.172 221.6C391.432 220.49 390.754 219.688 390.137 219.195C389.52 218.701 388.719 218.455 387.732 218.455H385.142C384.155 218.455 383.354 218.701 382.737 219.195C382.12 219.688 381.442 220.49 380.702 221.6L372.377 233.255C371.514 234.488 371.02 235.783 370.897 237.14C370.774 238.497 370.712 239.792 370.712 241.025V259.34Z" fill="#FFDA1A"/>
<path d="M497.422 275.99L519.623 122.809C519.869 120.465 520.424 118.8 521.288 117.813C522.274 116.703 523.939 116.148 526.283 116.148H553.108C555.451 116.148 557.178 116.703 558.288 117.813C559.522 118.8 560.015 120.465 559.768 122.809L537.568 275.99C537.321 278.334 536.705 279.999 535.718 280.985C534.855 282.095 533.251 282.65 530.908 282.65H504.083C501.739 282.65 499.951 282.095 498.717 280.985C497.607 279.999 497.176 278.334 497.422 275.99Z" fill="#FFDA1A"/>
<path d="M727.989 231.035C727.989 236.708 727.125 241.888 725.399 246.575C723.795 251.138 720.835 255.085 716.519 258.415C712.325 261.622 706.528 264.15 699.128 266C691.728 267.85 682.293 268.775 670.823 268.775C659.353 268.775 649.918 267.85 642.518 266C635.118 264.15 629.259 261.622 624.942 258.415C620.749 255.085 617.789 251.138 616.062 246.575C614.459 241.888 613.657 236.708 613.657 231.035V139.459C613.657 137.115 614.151 135.45 615.137 134.464C616.247 133.354 617.974 132.799 620.317 132.799H649.363C651.706 132.799 653.371 133.354 654.358 134.464C655.468 135.45 656.023 137.115 656.023 139.459V223.82C656.023 226.286 656.948 228.383 658.798 230.11C660.648 231.713 664.78 232.515 671.193 232.515C677.73 232.515 681.923 231.713 683.773 230.11C685.623 228.383 686.548 226.286 686.548 223.82V139.459C686.548 137.115 687.042 135.45 688.028 134.464C689.138 133.354 690.865 132.799 693.208 132.799H721.329C723.672 132.799 725.337 133.354 726.324 134.464C727.434 135.45 727.989 137.115 727.989 139.459V231.035Z" fill="#FFDA1A"/>
<path d="M756.311 266C753.968 266 752.241 265.507 751.131 264.52C750.145 263.41 749.651 261.683 749.651 259.34V237.325C749.651 234.982 750.145 233.316 751.131 232.33C752.241 231.22 753.968 230.665 756.311 230.665H774.627V168.504H756.311C753.968 168.504 752.241 168.011 751.131 167.024C750.145 165.914 749.651 164.187 749.651 161.844V139.459C749.651 137.115 750.145 135.45 751.131 134.464C752.241 133.354 753.968 132.799 756.311 132.799H835.122C837.466 132.799 839.131 133.354 840.117 134.464C841.227 135.45 841.782 137.115 841.782 139.459V161.844C841.782 164.187 841.227 165.914 840.117 167.024C839.131 168.011 837.466 168.504 835.122 168.504H817.177V230.665H835.122C837.466 230.665 839.131 231.22 840.117 232.33C841.227 233.316 841.782 234.982 841.782 237.325V259.34C841.782 261.683 841.227 263.41 840.117 264.52C839.131 265.507 837.466 266 835.122 266H756.311Z" fill="#FFDA1A"/>
</g>
<path d="M33.7632 65.7997C40.0032 65.7997 45.4032 66.6797 49.9632 68.4397C54.6032 70.1997 58.8032 72.8797 62.5632 76.4797L53.4432 87.1597C47.7632 82.5197 41.6832 80.1997 35.2032 80.1997C31.7632 80.1997 29.0432 80.9197 27.0432 82.3597C25.0432 83.7197 24.0432 85.7197 24.0432 88.3597C24.0432 90.1997 24.4832 91.7197 25.3632 92.9197C26.2432 94.0397 27.8032 95.1197 30.0432 96.1597C32.2832 97.1997 35.6432 98.4397 40.1232 99.8797C48.6032 102.6 54.8432 105.96 58.8432 109.96C62.8432 113.88 64.8432 119.48 64.8432 126.76C64.8432 131.96 63.5232 136.56 60.8832 140.56C58.2432 144.48 54.4432 147.56 49.4832 149.8C44.5232 151.96 38.6432 153.04 31.8432 153.04C25.0432 153.04 19.0032 151.96 13.7232 149.8C8.5232 147.64 4.0432 144.76 0.283203 141.16L10.2432 130.24C13.4432 132.96 16.7232 135 20.0832 136.36C23.5232 137.72 27.2432 138.4 31.2432 138.4C35.3232 138.4 38.5232 137.52 40.8432 135.76C43.2432 133.92 44.4432 131.4 44.4432 128.2C44.4432 126.12 44.0032 124.4 43.1232 123.04C42.2432 121.6 40.7232 120.32 38.5632 119.2C36.4032 118.08 33.2832 116.88 29.2032 115.6C20.0032 112.8 13.4432 109.36 9.5232 105.28C5.6832 101.2 3.7632 96.0397 3.7632 89.7997C3.7632 84.9997 5.0432 80.7997 7.6032 77.1997C10.1632 73.5197 13.7232 70.7197 18.2832 68.7997C22.8432 66.7997 28.0032 65.7997 33.7632 65.7997Z" fill="white"/>
<path d="M131.575 151H115.135L114.295 142.96C109.655 149.68 103.215 153.04 94.9751 153.04C89.1351 153.04 84.6951 151.28 81.6551 147.76C78.6951 144.24 77.2151 139.32 77.2151 133V87.2797H96.1751V130.6C96.1751 133.72 96.6551 135.92 97.6151 137.2C98.6551 138.4 100.215 139 102.295 139C106.295 139 109.735 136.52 112.615 131.56V87.2797H131.575V151Z" fill="white"/>
<path d="M184.987 85.2397C192.987 85.2397 198.947 88.1997 202.867 94.1197C206.787 100.04 208.747 108.32 208.747 118.96C208.747 125.52 207.707 131.4 205.627 136.6C203.627 141.72 200.707 145.76 196.867 148.72C193.027 151.6 188.547 153.04 183.427 153.04C177.027 153.04 171.867 150.84 167.947 146.44V175.6L148.987 177.64V87.2797H165.667L166.627 94.3597C169.107 91.2397 171.947 88.9597 175.147 87.5197C178.347 85.9997 181.627 85.2397 184.987 85.2397ZM177.667 139.12C185.267 139.12 189.067 132.48 189.067 119.2C189.067 111.68 188.227 106.48 186.547 103.6C184.867 100.64 182.347 99.1597 178.987 99.1597C176.827 99.1597 174.787 99.7997 172.867 101.08C171.027 102.36 169.387 104.2 167.947 106.6V133.48C170.507 137.24 173.747 139.12 177.667 139.12Z" fill="white"/>
<path d="M278.649 117.88C278.649 120.52 278.529 122.8 278.289 124.72H238.809C239.449 130.08 240.969 133.84 243.369 136C245.769 138.16 249.089 139.24 253.329 139.24C255.889 139.24 258.369 138.8 260.769 137.92C263.169 136.96 265.769 135.52 268.569 133.6L276.369 144.16C268.929 150.08 260.649 153.04 251.529 153.04C241.209 153.04 233.289 150 227.769 143.92C222.249 137.84 219.489 129.68 219.489 119.44C219.489 112.96 220.649 107.16 222.969 102.04C225.289 96.8397 228.689 92.7597 233.169 89.7997C237.649 86.7597 243.009 85.2397 249.249 85.2397C258.449 85.2397 265.649 88.1197 270.849 93.8797C276.049 99.6397 278.649 107.64 278.649 117.88ZM260.049 112.48C259.889 102.72 256.449 97.8397 249.729 97.8397C246.449 97.8397 243.889 99.0397 242.049 101.44C240.289 103.84 239.209 107.8 238.809 113.32H260.049V112.48Z" fill="white"/>
<path d="M326.359 85.4797C328.679 85.4797 330.799 85.7597 332.719 86.3197L329.719 104.68C327.319 104.12 325.399 103.84 323.959 103.84C320.199 103.84 317.319 105.16 315.319 107.8C313.399 110.36 311.879 114.24 310.759 119.44V151H291.799V87.2797H308.359L309.919 99.6397C311.359 95.2397 313.519 91.7997 316.399 89.3197C319.359 86.7597 322.679 85.4797 326.359 85.4797Z" fill="white"/>
<path d="M336.905 120.76V106.12H375.185V120.76H336.905Z" fill="white"/>
<path d="M413.099 65.7997C419.339 65.7997 424.739 66.6797 429.299 68.4397C433.939 70.1997 438.139 72.8797 441.899 76.4797L432.779 87.1597C427.099 82.5197 421.019 80.1997 414.539 80.1997C411.099 80.1997 408.379 80.9197 406.379 82.3597C404.379 83.7197 403.379 85.7197 403.379 88.3597C403.379 90.1997 403.819 91.7197 404.699 92.9197C405.579 94.0397 407.139 95.1197 409.379 96.1597C411.619 97.1997 414.979 98.4397 419.459 99.8797C427.939 102.6 434.179 105.96 438.179 109.96C442.179 113.88 444.179 119.48 444.179 126.76C444.179 131.96 442.859 136.56 440.219 140.56C437.579 144.48 433.779 147.56 428.819 149.8C423.859 151.96 417.979 153.04 411.179 153.04C404.379 153.04 398.339 151.96 393.059 149.8C387.859 147.64 383.379 144.76 379.619 141.16L389.579 130.24C392.779 132.96 396.059 135 399.419 136.36C402.859 137.72 406.579 138.4 410.579 138.4C414.659 138.4 417.859 137.52 420.179 135.76C422.579 133.92 423.779 131.4 423.779 128.2C423.779 126.12 423.339 124.4 422.459 123.04C421.579 121.6 420.059 120.32 417.899 119.2C415.739 118.08 412.619 116.88 408.539 115.6C399.339 112.8 392.779 109.36 388.859 105.28C385.019 101.2 383.099 96.0397 383.099 89.7997C383.099 84.9997 384.379 80.7997 386.939 77.1997C389.499 73.5197 393.059 70.7197 397.619 68.7997C402.179 66.7997 407.339 65.7997 413.099 65.7997Z" fill="white"/>
<path d="M497.111 148C494.791 149.6 492.071 150.84 488.951 151.72C485.911 152.6 482.871 153.04 479.831 153.04C465.911 152.96 458.951 145.28 458.951 130V100.48H449.951V87.2797H458.951V73.4797L477.911 71.3197V87.2797H492.551L490.511 100.48H477.911V129.76C477.911 132.72 478.391 134.84 479.351 136.12C480.311 137.4 481.831 138.04 483.911 138.04C486.071 138.04 488.351 137.36 490.751 136L497.111 148Z" fill="white"/>
<path d="M524.9 87.2797V151H505.94V87.2797H524.9ZM515.3 53.6797C518.58 53.6797 521.26 54.7197 523.34 56.7997C525.5 58.7997 526.58 61.3597 526.58 64.4797C526.58 67.5997 525.5 70.1997 523.34 72.2797C521.26 74.2797 518.58 75.2797 515.3 75.2797C512.02 75.2797 509.34 74.2797 507.26 72.2797C505.18 70.1997 504.14 67.5997 504.14 64.4797C504.14 61.3597 505.18 58.7997 507.26 56.7997C509.34 54.7197 512.02 53.6797 515.3 53.6797Z" fill="white"/>
<path d="M578.307 85.2397C586.307 85.2397 592.267 88.1997 596.187 94.1197C600.107 100.04 602.067 108.32 602.067 118.96C602.067 125.52 601.027 131.4 598.947 136.6C596.947 141.72 594.027 145.76 590.187 148.72C586.347 151.6 581.867 153.04 576.747 153.04C570.347 153.04 565.187 150.84 561.267 146.44V175.6L542.307 177.64V87.2797H558.987L559.947 94.3597C562.427 91.2397 565.267 88.9597 568.467 87.5197C571.667 85.9997 574.947 85.2397 578.307 85.2397ZM570.987 139.12C578.587 139.12 582.387 132.48 582.387 119.2C582.387 111.68 581.547 106.48 579.867 103.6C578.187 100.64 575.667 99.1597 572.307 99.1597C570.147 99.1597 568.107 99.7997 566.187 101.08C564.347 102.36 562.707 104.2 561.267 106.6V133.48C563.827 137.24 567.067 139.12 570.987 139.12Z" fill="white"/>
<path d="M671.969 117.88C671.969 120.52 671.849 122.8 671.609 124.72H632.129C632.769 130.08 634.289 133.84 636.689 136C639.089 138.16 642.409 139.24 646.649 139.24C649.209 139.24 651.689 138.8 654.089 137.92C656.489 136.96 659.089 135.52 661.889 133.6L669.689 144.16C662.249 150.08 653.969 153.04 644.849 153.04C634.529 153.04 626.609 150 621.089 143.92C615.569 137.84 612.809 129.68 612.809 119.44C612.809 112.96 613.969 107.16 616.289 102.04C618.609 96.8397 622.009 92.7597 626.489 89.7997C630.969 86.7597 636.329 85.2397 642.569 85.2397C651.769 85.2397 658.969 88.1197 664.169 93.8797C669.369 99.6397 671.969 107.64 671.969 117.88ZM653.369 112.48C653.209 102.72 649.769 97.8397 643.049 97.8397C639.769 97.8397 637.209 99.0397 635.369 101.44C633.609 103.84 632.529 107.8 632.129 113.32H653.369V112.48Z" fill="white"/>
<path d="M722.44 85.2397C727.96 85.2397 732.28 86.9197 735.4 90.2797C738.52 93.6397 740.08 98.3597 740.08 104.44V151H721.12V107.68C721.12 104.48 720.6 102.28 719.56 101.08C718.6 99.7997 717.12 99.1597 715.12 99.1597C711.28 99.1597 707.6 101.92 704.08 107.44V151H685.12V87.2797H701.68L703 94.8397C705.72 91.6397 708.64 89.2397 711.76 87.6397C714.96 86.0397 718.52 85.2397 722.44 85.2397Z" fill="white"/>
<path d="M813.998 61.9597V151H797.198L796.238 143.56C791.758 149.88 785.718 153.04 778.118 153.04C770.198 153.04 764.158 150 759.998 143.92C755.918 137.84 753.878 129.52 753.878 118.96C753.878 112.48 754.958 106.68 757.118 101.56C759.278 96.4397 762.318 92.4397 766.238 89.5597C770.238 86.6797 774.798 85.2397 779.918 85.2397C785.998 85.2397 791.038 87.2397 795.038 91.2397V59.9197L813.998 61.9597ZM783.998 139.12C788.398 139.12 792.078 136.72 795.038 131.92V104.44C793.518 102.6 791.958 101.24 790.358 100.36C788.838 99.4797 787.078 99.0397 785.078 99.0397C781.558 99.0397 778.758 100.68 776.678 103.96C774.598 107.24 773.558 112.28 773.558 119.08C773.558 126.52 774.438 131.72 776.198 134.68C778.038 137.64 780.638 139.12 783.998 139.12Z" fill="white"/>
<path d="M850.291 87.2797V151H831.331V87.2797H850.291ZM840.691 53.6797C843.971 53.6797 846.651 54.7197 848.731 56.7997C850.891 58.7997 851.971 61.3597 851.971 64.4797C851.971 67.5997 850.891 70.1997 848.731 72.2797C846.651 74.2797 843.971 75.2797 840.691 75.2797C837.411 75.2797 834.731 74.2797 832.651 72.2797C830.571 70.1997 829.531 67.5997 829.531 64.4797C829.531 61.3597 830.571 58.7997 832.651 56.7997C834.731 54.7197 837.411 53.6797 840.691 53.6797Z" fill="white"/>
<path d="M921.458 151H905.018L904.178 142.96C899.538 149.68 893.098 153.04 884.858 153.04C879.018 153.04 874.578 151.28 871.538 147.76C868.578 144.24 867.098 139.32 867.098 133V87.2797H886.058V130.6C886.058 133.72 886.538 135.92 887.498 137.2C888.538 138.4 890.098 139 892.178 139C896.178 139 899.618 136.52 902.498 131.56V87.2797H921.458V151Z" fill="white"/>
<path d="M1009.31 85.2397C1014.35 85.2397 1018.39 86.9597 1021.43 90.3997C1024.47 93.7597 1025.99 98.4397 1025.99 104.44V151H1007.03V107.68C1007.03 102 1005.23 99.1597 1001.63 99.1597C999.63 99.1597 997.87 99.8397 996.35 101.2C994.83 102.56 993.35 104.64 991.91 107.44V151H972.95V107.68C972.95 102 971.15 99.1597 967.55 99.1597C965.63 99.1597 963.87 99.8797 962.27 101.32C960.75 102.68 959.27 104.72 957.83 107.44V151H938.87V87.2797H955.43L956.75 94.7197C959.23 91.5197 961.95 89.1597 964.91 87.6397C967.95 86.0397 971.39 85.2397 975.23 85.2397C978.83 85.2397 981.91 86.1197 984.47 87.8797C987.11 89.6397 989.03 92.1197 990.23 95.3197C992.79 91.8797 995.59 89.3597 998.63 87.7597C1001.75 86.0797 1005.31 85.2397 1009.31 85.2397Z" fill="white"/>
<path d="M50.5047 16.6399C45.9447 14.8799 40.5447 13.9999 34.3047 13.9999C28.5447 13.9999 23.3847 14.9999 18.8247 16.9999C14.2647 18.9199 10.7047 21.7199 8.14469 25.3999C5.58469 28.9999 4.30469 33.1999 4.30469 37.9999C4.30469 44.2399 6.22469 49.3999 10.0647 53.4799C13.9847 57.5599 20.5447 60.9999 29.7447 63.7999C33.8247 65.0799 36.9447 66.2799 39.1047 67.3999C39.6026 67.6581 40.0665 67.9247 40.4963 68.1999H64.7093C63.8176 64.1114 62.0427 60.7647 59.3847 58.1599C55.3847 54.1599 49.1447 50.7999 40.6647 48.0799C36.1847 46.6399 32.8247 45.3999 30.5847 44.3599C28.3447 43.3199 26.7847 42.2399 25.9047 41.1199C25.0247 39.9199 24.5847 38.3999 24.5847 36.5599C24.5847 33.9199 25.5847 31.9199 27.5847 30.5599C29.5847 29.1199 32.3047 28.3999 35.7447 28.3999C42.2247 28.3999 48.3047 30.7199 53.9847 35.3599L63.1047 24.6799C59.3447 21.0799 55.1447 18.3999 50.5047 16.6399Z" stroke="white" stroke-width="2"/>
<path d="M209.28 68.1999C209.286 67.8551 209.288 67.5085 209.288 67.1599C209.288 56.5199 207.328 48.2399 203.408 42.3199C199.488 36.3999 193.528 33.4399 185.528 33.4399C182.168 33.4399 178.888 34.1999 175.688 35.7199C172.488 37.1599 169.648 39.4399 167.168 42.5599L166.208 35.4799H149.528V68.1999H168.488V54.7999C169.928 52.3999 171.568 50.5599 173.408 49.2799C175.328 47.9999 177.368 47.3599 179.528 47.3599C182.888 47.3599 185.408 48.8399 187.088 51.7999C188.768 54.6799 189.608 59.8799 189.608 67.3999C189.608 67.6693 189.607 67.936 189.604 68.1999H209.28Z" stroke="white" stroke-width="2"/>
<path fill-rule="evenodd" clip-rule="evenodd" d="M279.162 68.1999H220.033C220.031 68.0139 220.03 67.8272 220.03 67.6399C220.03 61.1599 221.19 55.3599 223.51 50.2399C225.83 45.0399 229.23 40.9599 233.71 37.9999C238.19 34.9599 243.55 33.4399 249.79 33.4399C258.99 33.4399 266.19 36.3199 271.39 42.0799C276.59 47.8399 279.19 55.8399 279.19 66.0799C279.19 66.8144 279.181 67.5211 279.162 68.1999ZM250.27 46.0399C256.99 46.0399 260.43 50.9199 260.59 60.6799V61.5199H239.35C239.75 55.9999 240.83 52.0399 242.59 49.6399C244.43 47.2399 246.99 46.0399 250.27 46.0399Z" stroke="white" stroke-width="2"/>
<path d="M311.301 68.1999H292.341V35.4799H308.901L310.461 47.8399C311.901 43.4399 314.061 39.9999 316.941 37.5199C319.901 34.9599 323.221 33.6799 326.901 33.6799C329.221 33.6799 331.341 33.9599 333.261 34.5199L330.261 52.8799C327.861 52.3199 325.941 52.0399 324.501 52.0399C320.741 52.0399 317.861 53.3599 315.861 55.9999C313.941 58.5599 312.421 62.4399 311.301 67.6399V68.1999Z" stroke="white" stroke-width="2"/>
<path d="M375.727 68.1999H337.447V54.3199H375.727V68.1999Z" stroke="white" stroke-width="2"/>
<path d="M444.045 68.1999H419.832C419.402 67.9247 418.939 67.6581 418.441 67.3999C416.281 66.2799 413.161 65.0799 409.081 63.7999C399.881 60.9999 393.321 57.5599 389.401 53.4799C385.561 49.3999 383.641 44.2399 383.641 37.9999C383.641 33.1999 384.921 28.9999 387.481 25.3999C390.041 21.7199 393.601 18.9199 398.161 16.9999C402.721 14.9999 407.881 13.9999 413.641 13.9999C419.881 13.9999 425.281 14.8799 429.841 16.6399C434.481 18.3999 438.681 21.0799 442.441 24.6799L433.321 35.3599C427.641 30.7199 421.561 28.3999 415.081 28.3999C411.641 28.3999 408.921 29.1199 406.921 30.5599C404.921 31.9199 403.921 33.9199 403.921 36.5599C403.921 38.3999 404.361 39.9199 405.241 41.1199C406.121 42.2399 407.681 43.3199 409.921 44.3599C412.161 45.3999 415.521 46.6399 420.001 48.0799C428.481 50.7999 434.721 54.1599 438.721 58.1599C441.379 60.7647 443.154 64.1114 444.045 68.1999Z" stroke="white" stroke-width="2"/>
<path d="M478.453 68.1999H459.492V48.6799H450.492V35.4799H459.492V21.6799L478.453 19.5199V35.4799H493.092L491.052 48.6799H478.453V68.1999Z" stroke="white" stroke-width="2"/>
<path d="M525.442 68.1999H506.482V35.4799H525.442V68.1999Z" stroke="white" stroke-width="2"/>
<path d="M602.6 68.1999C602.606 67.8551 602.609 67.5085 602.609 67.1599C602.609 56.5199 600.649 48.2399 596.729 42.3199C592.809 36.3999 586.849 33.4399 578.849 33.4399C575.489 33.4399 572.209 34.1999 569.009 35.7199C565.809 37.1599 562.969 39.4399 560.489 42.5599L559.529 35.4799H542.849V68.1999H561.809V54.7999C563.249 52.3999 564.889 50.5599 566.729 49.2799C568.649 47.9999 570.689 47.3599 572.849 47.3599C576.209 47.3599 578.729 48.8399 580.409 51.7999C582.089 54.6799 582.929 59.8799 582.929 67.3999C582.929 67.6693 582.927 67.936 582.924 68.1999H602.6Z" stroke="white" stroke-width="2"/>
<path fill-rule="evenodd" clip-rule="evenodd" d="M672.482 68.1999H613.353C613.351 68.0139 613.35 67.8272 613.35 67.6399C613.35 61.1599 614.51 55.3599 616.83 50.2399C619.15 45.0399 622.55 40.9599 627.03 37.9999C631.51 34.9599 636.87 33.4399 643.11 33.4399C652.31 33.4399 659.51 36.3199 664.71 42.0799C669.91 47.8399 672.51 55.8399 672.51 66.0799C672.51 66.8144 672.501 67.5211 672.482 68.1999ZM643.59 46.0399C650.31 46.0399 653.75 50.9199 653.91 60.6799V61.5199H632.67C633.07 55.9999 634.15 52.0399 635.91 49.6399C637.75 47.2399 640.31 46.0399 643.59 46.0399Z" stroke="white" stroke-width="2"/>
<path d="M704.621 68.1999H685.661V35.4799H702.221L703.541 43.0399C706.261 39.8399 709.181 37.4399 712.301 35.8399C715.501 34.2399 719.061 33.4399 722.981 33.4399C728.501 33.4399 732.821 35.1199 735.941 38.4799C739.061 41.8399 740.621 46.5599 740.621 52.6399V68.1999H721.661V55.8799C721.661 52.6799 721.141 50.4799 720.101 49.2799C719.141 47.9999 717.661 47.3599 715.661 47.3599C711.821 47.3599 708.141 50.1199 704.621 55.6399V68.1999Z" stroke="white" stroke-width="2"/>
<path d="M814.539 68.1999V10.1599L795.579 8.11988V39.4399C791.579 35.4399 786.539 33.4399 780.459 33.4399C775.339 33.4399 770.779 34.8799 766.779 37.7599C762.859 40.6399 759.819 44.6399 757.659 49.7599C755.499 54.8799 754.419 60.6799 754.419 67.1599C754.419 67.509 754.421 67.8557 754.426 68.1999H774.104C774.101 67.8971 774.099 67.5905 774.099 67.2799C774.099 60.4799 775.139 55.4399 777.219 52.1599C779.299 48.8799 782.099 47.2399 785.619 47.2399C787.619 47.2399 789.379 47.6799 790.899 48.5599C792.499 49.4399 794.059 50.7999 795.579 52.6399V68.1999H814.539Z" stroke="white" stroke-width="2"/>
<path d="M850.832 68.1999H831.872V35.4799H850.832V68.1999Z" stroke="white" stroke-width="2"/>
<path d="M958.371 68.1999H939.411V35.4799H955.971L957.291 42.9199C959.771 39.7199 962.491 37.3599 965.451 35.8399C968.491 34.2399 971.931 33.4399 975.771 33.4399C979.371 33.4399 982.451 34.3199 985.011 36.0799C987.651 37.8399 989.571 40.3199 990.771 43.5199C993.331 40.0799 996.131 37.5599 999.171 35.9599C1002.29 34.2799 1005.85 33.4399 1009.85 33.4399C1014.89 33.4399 1018.93 35.1599 1021.97 38.5999C1025.01 41.9599 1026.53 46.6399 1026.53 52.6399V68.1999H1007.57V55.8799C1007.57 50.1999 1005.77 47.3599 1002.17 47.3599C1000.17 47.3599 998.411 48.0399 996.891 49.3999C995.371 50.7599 993.891 52.8399 992.451 55.6399V68.1999H973.491V55.8799C973.491 50.1999 971.691 47.3599 968.091 47.3599C966.171 47.3599 964.411 48.0799 962.811 49.5199C961.291 50.8799 959.811 52.9199 958.371 55.6399V68.1999Z" stroke="white" stroke-width="2"/>
<path d="M921.999 68.1999H903.039V35.4799H921.999V68.1999Z" stroke="white" stroke-width="2"/>
<path d="M886.599 68.1999H867.639V35.4799H886.599V68.1999Z" stroke="white" stroke-width="2"/>
<path d="M132.117 68.1999H113.157V35.4799H132.117V68.1999Z" stroke="white" stroke-width="2"/>
<path d="M96.7166 68.1999H77.7566V35.4799H96.7166V68.1999Z" stroke="white" stroke-width="2"/>
<path d="M523.882 4.99989C521.802 2.91988 519.122 1.87988 515.842 1.87988C512.562 1.87988 509.882 2.91988 507.802 4.99989C505.722 6.99988 504.682 9.55988 504.682 12.6799C504.682 15.7999 505.722 18.3999 507.802 20.4799C509.882 22.4799 512.562 23.4799 515.842 23.4799C519.122 23.4799 521.802 22.4799 523.882 20.4799C526.042 18.3999 527.122 15.7999 527.122 12.6799C527.122 9.55988 526.042 6.99988 523.882 4.99989Z" stroke="white" stroke-width="2"/>
<path d="M849.272 4.99989C847.192 2.91988 844.512 1.87988 841.232 1.87988C837.952 1.87988 835.272 2.91988 833.192 4.99989C831.112 6.99988 830.072 9.55988 830.072 12.6799C830.072 15.7999 831.112 18.3999 833.192 20.4799C835.272 22.4799 837.952 23.4799 841.232 23.4799C844.512 23.4799 847.192 22.4799 849.272 20.4799C851.432 18.3999 852.512 15.7999 852.512 12.6799C852.512 9.55988 851.432 6.99988 849.272 4.99989Z" stroke="white" stroke-width="2"/>
<path d="M50.5086 36.6399C45.9486 34.8799 40.5486 33.9999 34.3086 33.9999C28.5486 33.9999 23.3886 34.9999 18.8286 36.9999C14.2686 38.9199 10.7086 41.7199 8.14859 45.3999C5.58859 48.9999 4.30859 53.1999 4.30859 57.9999C4.30859 64.2399 6.22859 69.3999 10.0686 73.4799C13.9886 77.5599 20.5486 80.9999 29.7486 83.7999C33.8286 85.0799 36.9486 86.2799 39.1086 87.3999C39.6065 87.6581 40.0704 87.9247 40.5003 88.1999H64.7132C63.8215 84.1114 62.0466 80.7647 59.3886 78.1599C55.3886 74.1599 49.1486 70.7999 40.6686 68.0799C36.1886 66.6399 32.8286 65.3999 30.5886 64.3599C28.3486 63.3199 26.7886 62.2399 25.9086 61.1199C25.0286 59.9199 24.5886 58.3999 24.5886 56.5599C24.5886 53.9199 25.5886 51.9199 27.5886 50.5599C29.5886 49.1199 32.3086 48.3999 35.7486 48.3999C42.2286 48.3999 48.3086 50.7199 53.9886 55.3599L63.1086 44.6799C59.3486 41.0799 55.1486 38.3999 50.5086 36.6399Z" stroke="white" stroke-width="2"/>
<path d="M209.284 88.1999C209.289 87.8551 209.292 87.5085 209.292 87.1599C209.292 76.5199 207.332 68.2399 203.412 62.3199C199.492 56.3999 193.532 53.4399 185.532 53.4399C182.172 53.4399 178.892 54.1999 175.692 55.7199C172.492 57.1599 169.652 59.4399 167.172 62.5599L166.212 55.4799H149.532V88.1999H168.492V74.7999C169.932 72.3999 171.572 70.5599 173.412 69.2799C175.332 67.9999 177.372 67.3599 179.532 67.3599C182.892 67.3599 185.412 68.8399 187.092 71.7999C188.772 74.6799 189.612 79.8799 189.612 87.3999C189.612 87.6693 189.611 87.936 189.608 88.1999H209.284Z" stroke="white" stroke-width="2"/>
<path fill-rule="evenodd" clip-rule="evenodd" d="M279.166 88.1999H220.037C220.035 88.0139 220.034 87.8273 220.034 87.6399C220.034 81.1599 221.194 75.3599 223.514 70.2399C225.834 65.0399 229.234 60.9599 233.714 57.9999C238.194 54.9599 243.554 53.4399 249.794 53.4399C258.994 53.4399 266.194 56.3199 271.394 62.0799C276.594 67.8399 279.194 75.8399 279.194 86.0799C279.194 86.8144 279.185 87.5211 279.166 88.1999ZM250.274 66.0399C256.994 66.0399 260.434 70.9199 260.594 80.6799V81.5199H239.354C239.754 75.9999 240.834 72.0399 242.594 69.6399C244.434 67.2399 246.994 66.0399 250.274 66.0399Z" stroke="white" stroke-width="2"/>
<path d="M311.305 88.1999H292.345V55.4799H308.905L310.465 67.8399C311.905 63.4399 314.065 59.9999 316.945 57.5199C319.905 54.9599 323.225 53.6799 326.905 53.6799C329.225 53.6799 331.345 53.9599 333.265 54.5199L330.265 72.8799C327.865 72.3199 325.945 72.0399 324.505 72.0399C320.745 72.0399 317.865 73.3599 315.865 75.9999C313.945 78.5599 312.425 82.4399 311.305 87.6399V88.1999Z" stroke="white" stroke-width="2"/>
<path d="M375.73 88.1999H337.45V74.3199H375.73V88.1999Z" stroke="white" stroke-width="2"/>
<path d="M444.049 88.1999H419.836C419.406 87.9247 418.942 87.6581 418.445 87.3999C416.285 86.2799 413.165 85.0799 409.085 83.7999C399.885 80.9999 393.325 77.5599 389.405 73.4799C385.565 69.3999 383.645 64.2399 383.645 57.9999C383.645 53.1999 384.925 48.9999 387.485 45.3999C390.045 41.7199 393.605 38.9199 398.165 36.9999C402.725 34.9999 407.885 33.9999 413.645 33.9999C419.885 33.9999 425.285 34.8799 429.845 36.6399C434.485 38.3999 438.685 41.0799 442.445 44.6799L433.325 55.3599C427.645 50.7199 421.565 48.3999 415.085 48.3999C411.645 48.3999 408.925 49.1199 406.925 50.5599C404.925 51.9199 403.925 53.9199 403.925 56.5599C403.925 58.3999 404.365 59.9199 405.245 61.1199C406.125 62.2399 407.685 63.3199 409.925 64.3599C412.165 65.3999 415.525 66.6399 420.005 68.0799C428.485 70.7999 434.725 74.1599 438.725 78.1599C441.383 80.7647 443.157 84.1114 444.049 88.1999Z" stroke="white" stroke-width="2"/>
<path d="M478.456 88.1999H459.496V68.6799H450.496V55.4799H459.496V41.6799L478.456 39.5199V55.4799H493.096L491.056 68.6799H478.456V88.1999Z" stroke="white" stroke-width="2"/>
<path d="M525.445 88.1999H506.485V55.4799H525.445V88.1999Z" stroke="white" stroke-width="2"/>
<path d="M602.604 88.1999C602.61 87.8551 602.613 87.5085 602.613 87.1599C602.613 76.5199 600.653 68.2399 596.733 62.3199C592.813 56.3999 586.853 53.4399 578.853 53.4399C575.493 53.4399 572.213 54.1999 569.013 55.7199C565.813 57.1599 562.973 59.4399 560.493 62.5599L559.533 55.4799H542.853V88.1999H561.813V74.7999C563.253 72.3999 564.893 70.5599 566.733 69.2799C568.653 67.9999 570.693 67.3599 572.853 67.3599C576.213 67.3599 578.733 68.8399 580.413 71.7999C582.093 74.6799 582.933 79.8799 582.933 87.3999C582.933 87.6693 582.931 87.936 582.928 88.1999H602.604Z" stroke="white" stroke-width="2"/>
<path fill-rule="evenodd" clip-rule="evenodd" d="M672.486 88.1999H613.357C613.355 88.0139 613.354 87.8273 613.354 87.6399C613.354 81.1599 614.514 75.3599 616.834 70.2399C619.154 65.0399 622.554 60.9599 627.034 57.9999C631.514 54.9599 636.874 53.4399 643.114 53.4399C652.314 53.4399 659.514 56.3199 664.714 62.0799C669.914 67.8399 672.514 75.8399 672.514 86.0799C672.514 86.8144 672.505 87.5211 672.486 88.1999ZM643.594 66.0399C650.314 66.0399 653.754 70.9199 653.914 80.6799V81.5199H632.674C633.074 75.9999 634.154 72.0399 635.914 69.6399C637.754 67.2399 640.314 66.0399 643.594 66.0399Z" stroke="white" stroke-width="2"/>
<path d="M704.625 88.1999H685.665V55.4799H702.225L703.545 63.0399C706.265 59.8399 709.185 57.4399 712.305 55.8399C715.505 54.2399 719.065 53.4399 722.985 53.4399C728.505 53.4399 732.825 55.1199 735.945 58.4799C739.065 61.8399 740.625 66.5599 740.625 72.6399V88.1999H721.665V75.8799C721.665 72.6799 721.145 70.4799 720.105 69.2799C719.145 67.9999 717.665 67.3599 715.665 67.3599C711.825 67.3599 708.145 70.1199 704.625 75.6399V88.1999Z" stroke="white" stroke-width="2"/>
<path d="M814.543 88.1999V30.1599L795.583 28.1199V59.4399C791.583 55.4399 786.543 53.4399 780.463 53.4399C775.343 53.4399 770.783 54.8799 766.783 57.7599C762.863 60.6399 759.823 64.6399 757.663 69.7599C755.503 74.8799 754.423 80.6799 754.423 87.1599C754.423 87.509 754.425 87.8557 754.43 88.1999H774.108C774.104 87.8971 774.103 87.5905 774.103 87.2799C774.103 80.4799 775.143 75.4399 777.223 72.1599C779.303 68.8799 782.103 67.2399 785.623 67.2399C787.623 67.2399 789.383 67.6799 790.903 68.5599C792.503 69.4399 794.063 70.7999 795.583 72.6399V88.1999H814.543Z" stroke="white" stroke-width="2"/>
<path d="M850.836 88.1999H831.876V55.4799H850.836V88.1999Z" stroke="white" stroke-width="2"/>
<path d="M958.375 88.1999H939.415V55.4799H955.975L957.295 62.9199C959.775 59.7199 962.495 57.3599 965.455 55.8399C968.495 54.2399 971.935 53.4399 975.775 53.4399C979.375 53.4399 982.455 54.3199 985.015 56.0799C987.655 57.8399 989.575 60.3199 990.775 63.5199C993.335 60.0799 996.135 57.5599 999.175 55.9599C1002.3 54.2799 1005.86 53.4399 1009.86 53.4399C1014.9 53.4399 1018.94 55.1599 1021.98 58.5999C1025.02 61.9599 1026.54 66.6399 1026.54 72.6399V88.1999H1007.58V75.8799C1007.58 70.1999 1005.78 67.3599 1002.18 67.3599C1000.18 67.3599 998.415 68.0399 996.895 69.3999C995.375 70.7599 993.895 72.8399 992.455 75.6399V88.1999H973.495V75.8799C973.495 70.1999 971.695 67.3599 968.095 67.3599C966.175 67.3599 964.415 68.0799 962.815 69.5199C961.295 70.8799 959.815 72.9199 958.375 75.6399V88.1999Z" stroke="white" stroke-width="2"/>
<path d="M922.003 88.1999H903.043V55.4799H922.003V88.1999Z" stroke="white" stroke-width="2"/>
<path d="M886.603 88.1999H867.643V55.4799H886.603V88.1999Z" stroke="white" stroke-width="2"/>
<path d="M132.12 88.1999H113.16V55.4799H132.12V88.1999Z" stroke="white" stroke-width="2"/>
<path d="M96.7205 88.1999H77.7605V55.4799H96.7205V88.1999Z" stroke="white" stroke-width="2"/>
<path d="M523.885 24.9999C521.805 22.9199 519.125 21.8799 515.845 21.8799C512.565 21.8799 509.885 22.9199 507.805 24.9999C505.725 26.9999 504.685 29.5599 504.685 32.6799C504.685 35.7999 505.725 38.3999 507.805 40.4799C509.885 42.4799 512.565 43.4799 515.845 43.4799C519.125 43.4799 521.805 42.4799 523.885 40.4799C526.045 38.3999 527.125 35.7999 527.125 32.6799C527.125 29.5599 526.045 26.9999 523.885 24.9999Z" stroke="white" stroke-width="2"/>
<path d="M849.276 24.9999C847.196 22.9199 844.516 21.8799 841.236 21.8799C837.956 21.8799 835.276 22.9199 833.196 24.9999C831.116 26.9999 830.076 29.5599 830.076 32.6799C830.076 35.7999 831.116 38.3999 833.196 40.4799C835.276 42.4799 837.956 43.4799 841.236 43.4799C844.516 43.4799 847.196 42.4799 849.276 40.4799C851.436 38.3999 852.516 35.7999 852.516 32.6799C852.516 29.5599 851.436 26.9999 849.276 24.9999Z" stroke="white" stroke-width="2"/>
<defs>
<filter id="filter0_d_2768_44" x="191.982" y="116.148" width="649.801" height="175.752" filterUnits="userSpaceOnUse" color-interpolation-filters="sRGB">
<feFlood flood-opacity="0" result="BackgroundImageFix"/>
<feColorMatrix in="SourceAlpha" type="matrix" values="0 0 0 0 0 0 0 0 0 0 0 0 0 0 0 0 0 0 127 0" result="hardAlpha"/>
<feOffset dy="9.25011"/>
<feColorMatrix type="matrix" values="0 0 0 0 0.117647 0 0 0 0 0.133333 0 0 0 0 0.666667 0 0 0 1 0"/>
<feBlend mode="normal" in2="BackgroundImageFix" result="effect1_dropShadow_2768_44"/>
<feBlend mode="normal" in="SourceGraphic" in2="effect1_dropShadow_2768_44" result="shape"/>
</filter>
</defs>
</svg>
