<svg width="88" height="38" viewBox="0 0 88 38" fill="none" xmlns="http://www.w3.org/2000/svg">
<path d="M82.036 6.74691C72.7033 5.54152 63.1936 4.24965 53.8277 3.28274C43.5432 2.22099 32.7859 0.909803 22.4252 1.7756C14.7437 2.41751 5.98893 5.15864 2.33756 12.663C0.603229 16.2274 2.74489 20.0125 5.2731 22.5269C8.23231 25.4699 12.0731 27.5958 15.8343 29.309C21.5844 31.9281 27.7164 33.9847 33.92 35.2026C43.3916 37.0621 53.529 36.4664 63.073 35.495C66.2573 35.1709 69.3933 34.6839 72.4982 33.8979C76.2475 32.9488 80.7102 31.8087 83.9143 29.5115C91.9302 23.7642 81.0456 13.7798 75.9624 10.391" stroke="#FFDA19" stroke-width="2" stroke-linecap="round" stroke-linejoin="round"/>
</svg>
