<svg fill="none" height="38" viewBox="0 0 88 38" width="88" xmlns="http://www.w3.org/2000/svg"><path d="m82.036 6.74691c-9.3327-1.20539-18.8424-2.49726-28.2083-3.46417-10.2845-1.06175-21.0418-2.372937-31.4025-1.50714-7.6815.64191-16.43627 3.38304-20.08764 10.8874-1.734331 3.5644.40733 7.3495 2.93554 9.8639 2.95921 2.943 6.8 5.0689 10.5612 6.7821 5.7501 2.6191 11.8821 4.6757 18.0857 5.8936 9.4716 1.8595 19.609 1.2638 29.153.2924 3.1843-.3241 6.3203-.8111 9.4252-1.5971 3.7493-.9491 8.212-2.0892 11.4161-4.3864 8.0159-5.7473-2.8687-15.7317-7.9519-19.1205" stroke="#3dd7ac" stroke-linecap="round" stroke-linejoin="round" stroke-width="2"/></svg>