<svg fill="none" height="30" viewBox="0 0 86 30" width="86" xmlns="http://www.w3.org/2000/svg"><path d="m1.50424 4.25199v16.80801c0 1.6576-.27765 1.8772 1.29604 1.9036 6.96782.1171 13.77082 2.0141 20.61522 3.1186 12.0969 1.9523 24.1345 2.2793 36.3567 2.2141 6.2048-.0331 12.3964-.2501 18.5766-.8235 1.422-.132 4.2013.0285 5.4812-.8101.3795-.2487.2785-1.33.2835-1.566.061-2.8692-.065-5.7362-.2295-8.5998-.2072-3.6042-.243-7.19215-.243-10.80036 0-.46757.3353-2.17357-.3511-2.17357-5.1403 0-10.2989.60584-15.4445.70202-12.0719.22564-23.7845-2.22535-35.7761-2.83509-5.9737-.30375-11.9773.26476-17.9286.66152-2.3583.15722-4.67876.49952-7.04728.49952" stroke="#3dd7ac" stroke-linecap="round" stroke-linejoin="round" stroke-width="2"/></svg>