<svg fill="none" height="168" viewBox="0 0 168 168" width="168" xmlns="http://www.w3.org/2000/svg"><path d="m83.03 166.06c45.856 0 83.03-37.174 83.03-83.03 0-45.8562-37.174-83.03-83.03-83.03-45.8562 0-83.03 37.1738-83.03 83.03 0 45.856 37.1738 83.03 83.03 83.03z" fill="#3bd4ae"/><path d="m122.29 118.88 11.62-15.14s7.04-5.9802 0-9.8602c-7.04-3.87-9.89-11.19-4.24-17.04 5.65-5.84 8.82-10.07 10.23-11.83s4.58-7.74 11.97-1.41c7.39 6.34 18.89 12.4 12.32 26.21-16.18 33.9802-47.17 68.1202-60.89 74.1102-10.2001 4.45-19.9401 1.61-27.4601-7.04-3.97-4.56-3.17-11.97 5.28-19.71 6.46-5.92 7.36-5.87 7.9-6.63.17-.23 6.18-3.93 11.8101 2.05 6.23 6.61 10.21 0 12.67-2.46 2.46-2.45 8.79-11.25 8.79-11.25z" fill="#fff"/><path d="m93.75 167.84c-7.04 0-13.67-3.31-19.28-9.77-4.04-4.64-4.73-12.92 5.42-22.22 4.3-3.95 6.24-5.33 7.16-5.99.22-.16.45-.32.51-.38.53-.74 2.86-1.89 5.43-2.05 2.33-.16 5.81.41 9.14 3.94 1.45 1.54 2.77 2.3 3.97 2.29 1.86-.03 3.58-1.98 4.96-3.54.41-.47.8-.9 1.15-1.25 2.33-2.33 8.55-10.96 8.61-11.04l.03-.04 11.88-15.41c.7-.6 2.66-2.7102 2.48-4.4302-.09-.9-.83-1.73-2.18-2.47-4.51-2.48-7.45-6.23-8.06-10.28-.52-3.44.65-6.76 3.39-9.58 4.86-5.02 7.86-8.84 9.47-10.89l.64-.81c.11-.14.24-.32.38-.51 1.02-1.4 2.92-3.99 6.17-4.37 2.47-.28 5.16.8 7.99 3.23.99.85 2.05 1.69 3.18 2.58 7.08 5.6 15.88 12.57 9.6 25.77-15.99 33.5802-46.88 68.4802-61.8 74.9802-3.45 1.5-6.89 2.24-10.24 2.24zm-3.49-35.96c-.31.34-.65.59-1.1.91-.87.62-2.68 1.92-6.82 5.71-6.9 6.32-8.87 12.91-5.14 17.2 7.17 8.24 16.18 10.58 25.38 6.57 12.76-5.56 43.58-38.77 59.99-73.2302 5.05-10.61-1.57-15.85-8.58-21.4-1.1-.87-2.24-1.77-3.28-2.67-2.04-1.75-3.8-2.55-5.23-2.39-1.69.2-2.84 1.77-3.68 2.92-.18.24-.34.46-.48.64l-.63.79c-1.65 2.1-4.73 6.01-9.71 11.16-1.92 1.99-2.76 4.25-2.41 6.54.44 2.94 2.71 5.73 6.23 7.66 3.06 1.68 3.88 3.8 4.03 5.27.36 3.6002-2.76 6.6602-3.58 7.4002l-11.49 14.97c-.43.6-6.47 8.96-8.97 11.46-.31.31-.64.68-.99 1.09-1.75 1.99-4.16 4.71-7.61 4.76-2.25-.01-4.49-1.12-6.66-3.42-4.28-4.51-8.54-2.36-9.27-1.94z" fill="#131428"/><path d="m90.4701 94.4098s3.03 7.9902 4.02 10.6402c.99 2.64 4.96 10.14-9.92 5.9-8.6-3.91-10.9-6.56-10.9-6.56s-43.47 5.81-61.17-25.7902c-16.86003-30.09 9.47-54.87 22.81-60.17 9.9-3.93 45.29-13.22001 66.1199 20.5 18.31 29.62-2.3599 49.2-10.9599 55.48z" fill="#fff" stroke="#131428" stroke-miterlimit="10" stroke-width="3.3845"/><g fill="#131428"><path d="m37.9401 63.68c2.546 0 4.61-2.064 4.61-4.61 0-2.5461-2.064-4.61-4.61-4.61-2.5461 0-4.61 2.0639-4.61 4.61 0 2.546 2.0639 4.61 4.61 4.61z"/><path d="m81.9401 63.68c2.546 0 4.61-2.064 4.61-4.61 0-2.5461-2.064-4.61-4.61-4.61-2.5461 0-4.61 2.0639-4.61 4.61 0 2.546 2.0639 4.61 4.61 4.61z"/><path d="m60.3201 77.3902c-.16 0-.32 0-.47-.01-6.85-.26-11.43-6.12-11.62-6.37-.56-.72-.42-1.76.3-2.32.72-.55 1.76-.42 2.32.3.05.06 3.87 4.9 9.15 5.08 3.33.13 6.61-1.62 9.8-5.18.61-.68 1.65-.74 2.33-.13s.74 1.65.13 2.33c-3.75 4.19-7.76 6.3-11.94 6.3z"/></g></svg>