<svg fill="none" height="167" viewBox="0 0 178 167" width="178" xmlns="http://www.w3.org/2000/svg"><circle cx="88.5" cy="83.5" fill="#3bd4ae" r="83.5"/><g fill="#121328"><path d="m135.138 64.308c.38.1648 1.061-.5088.66-.8097-.516-.387-1.505-.3154-2.107-.3655-1.735-.1505-3.476-.172-5.217-.1935-1.863-.0215-5.583-.6951-7.295.301-.882.5159-.423 1.8488.594 1.2612-.516.301.051.0645.395.0788.458.0215.931-.0286 1.383-.043 1.569-.0358 3.131-.043 4.701-.0645 1.418-.0143 2.837-.0215 4.249-.0645.652-.0215 2.05-.3583 2.637-.1003z"/><path d="m120.885 74.9568c-5.181.0144-10.355.0215-15.536.0359-5.124.0143-10.2407.0501-15.3645.086-3.6977.0286-7.7895-.3727-11.3726.6162-.2293.0574-.5302.5805-.1863.6952 3.5759 1.168 8.0332.5947 11.7668.6162 5.1309.0359 10.2686.0717 15.3996.0789 5.138.0143 10.276.0215 15.422.0358 4.07.0072 8.219.215 12.247-.4801.516-.086 1.096-1.0606.322-1.2039-4.149-.7883-8.499-.4873-12.698-.4802z"/><path d="m75.0146 75.265c1.7055-.3512 3.4182-.817 5.1811-1.3258 2.4866-.7309 6.514-2.3504 5.4677-5.7328-.2651-.8456-.8456-1.6124-1.6267-2.2932 1.9062-1.1967 3.5114-3.5544 4.5362-5.6684-.7381 3.1101 1.082 6.8222 4.0201 8.1264 3.2033 1.4189 6.772.0287 8.85-2.587.036-.0501.072-.1003.108-.1433.25.7238.645 1.4261 1.268 2.0997 5.274 5.7615 12.971.5231 16.64-4.271 4.514-5.8977 9.609-17.4208 4.737-24.3791-3.419-4.8801-10.492-4.4071-14.942-.9961-.021-.7166-.093-1.426-.229-2.1355-.767-3.9127-3.712-6.9081-7.811-6.9583-4.0275-.0501-7.5389 2.8307-9.6242 6.0697-.0143.0215-.0215.043-.0358.0645-1.899-4.6006-6.8437-6.8078-11.7811-5.4677-3.1173.8456-7.1518 3.8697-8.8071 7.3811-2.1929-2.5512-5.4463-3.8912-9.1583-3.2248-11.0143 1.9635-11.3798 12.1179-9.6742 21.2618-4.1635-.6091-8.7642-.2293-12.8919-.3368-3.6547-.1003-8.2338-.8097-11.824.3727-.7023-2.0854-3.4541-.3583-3.8195 1.2397-3.6189 1.7844-6.8437 4.2925-10.3264 6.3205-.9173.5375-1.8417 1.0463-2.7733 1.5551-2.85208 1.4833-5.70419 2.9739-8.5563 4.4644-.17915.0932-.34397.2222-.49446.3727-.34397.1863-.687942.3654-1.024749.5589-.41563353.2365-.523125.8385-.3296404 1.1609-.1074915.2652-.0644951.5518.2579794.7453 8.21235 4.9518 16.42467 9.7746 24.50807 14.9556.387.2509.8456.1004 1.2039-.2221.0788.0287.1576.043.2651.043 6.2775-.2652 12.7342.4156 18.9974-.0143 2.7876 3.8052 7.3094 6.3706 12.1967 7.0514-.6951 2.4437-2.2144 4.7726-2.8736 7.2238-.6163 2.329-.903 4.708-1.2469 7.087-.8815 6.113-2.5153 12.096-3.4541 18.202-.2508 1.619 2.028.845 2.2788-.33 1.2326-5.79 1.8489-11.695 3.0814-17.492.602-2.802 1.2183-5.676 2.2717-8.3416 1.0534-2.6658 2.6013-4.873 3.3609-7.6534.2293-.8313.0788-1.6052-.8743-1.813-6.3205-1.3759-12.7126-5.0521-13.8449-11.9889-1.4117-8.6925 7.1231-12.6912 14.3179-13.6514 6.0338-.8026 12.254-.7095 17.6429 2.4293 1.2684.7381 3.8697 1.684 2.8808 3.3824-.4443.7596-4.5218 1.4762-5.2957 1.641-2.974.6234-6.0912.7954-9.1153.9316-1.0105.043-2.544 2.329-1.0749 2.7446 8.3055 2.3576 16.3172 8.0475 17.3491 17.1628.2006 1.7557 2.4866.3655 2.6873-.7166.8742-4.744-.8958-9.5524-4.3498-12.8846-1.9062-1.8417-4.0059-3.0886-6.2489-4.0202zm46.1854-30.1263c.674 2.9954-.408 6.1127-1.29 8.9433-.982 3.1244-1.97 6.4351-3.705 9.2299-1.992 3.2033-5.116 5.6827-9.058 4.6508-3.74-.9746-3.984-3.8052-3.26-6.6788.294-.7739.552-1.5765.788-2.3863.05-.129.1-.2651.158-.3941 1.741-4.314 3.253-8.6208 3.375-13.1785.244-.9172.466-1.8345.645-2.7661 1.978-.9961 3.726-2.286 6.134-2.243 3.067.0573 5.525 1.7915 6.213 4.8228zm-24.6943-10.4482c2.974-1.9492 6.4993-.1433 7.4673 3.0098.853 2.7804.036 5.8619-.588 8.6136-.781 3.4326-1.634 6.8508-2.429 10.2762-.738 3.1889-1.204 10.5629-6.3779 8.7642-3.017-1.0535-3.4971-4.2854-5.4821-6.2202 0-.0215 0-.043 0-.0645.1577-.3941.301-.7811.4085-1.1179 1.0749-3.4469 1.6697-7.1375 2.243-10.699.3296-2.0423.6664-4.2423.7094-6.4137.8241-2.4006 1.9635-4.7798 4.0488-6.1485zm-64.2799 22.6449c2.4508.0072 4.8945.0072 7.3453-.0215 4.2137-.0502 8.757.344 12.9491-.3153.4658 2.1427 1.0176 4.185 1.5336 6.0052-.9603.3655-1.899.7811-2.7948 1.254-3.8625-.3798-7.8039-.1863-11.6807-.1791-3.8124.0072-8.0906-.3726-11.8456.4228-.0072-.3081-.0072-.6091-.0143-.9173-.0287-2.114.2078-4.3426.0286-6.4781 1.4261.3583 2.9453.2221 4.4788.2293zm-17.6716 7.1589c-.0071-.4156-.1361-.7022-.3368-.8957 3.0313-1.6124 6.1915-3.06 9.0436-4.9661-.4156 3.9843-.0071 8.3055 0 12.2325.0072 3.9342-.3009 8.1908.6163 12.0749-3.54-2.329-7.1231-4.8801-10.8136-7.1661.6019-1.8274 1.2182-3.3251 1.3902-5.3459.1577-1.9707.129-3.9557.1003-5.9336zm12.0033 20.3732c-.043-.1218-.1219-.2364-.2365-.3296.1863-.1791.3296-.3798.3798-.5589.6664-2.286.9244-4.6437 1.0319-7.0228 2.329.4443 5.0091.1218 7.2664.1433 2.501.0215 5.0521.2795 7.4814-.2508-.1505 2.9381.5518 5.6182 1.856 7.9329-5.8188-.6307-12.0032-.0072-17.779.0859zm16.1093-9.7172c-2.5869-.6163-5.568-.1791-8.1765-.1576-2.2143.0215-4.5289-.1505-6.7074.2508.0286-1.5909.0143-3.1889.0215-4.7655.0071-1.6697-.0144-3.3322-.0502-5.0019 3.7335.8313 8.0189.3583 11.7882.3655 3.06.0071 6.1557.1003 9.23-.043-3.103 2.2286-5.4248 5.3029-6.1056 9.3517zm18.9472-13.9452c-1.641.1791-3.3251.4945-4.9804.9531 0-.0359 0-.0717-.0072-.1003-.8169-4.7942-1.7987-9.6886-1.9348-14.5544-.086-3.0957.0931-5.8332 2.5726-7.9687 1.9707-1.6984 5.0951-2.5296 7.6104-1.684 4.4358 1.5049 5.2456 6.7218 5.5107 10.7276.2867 4.314 1.0104 8.3772 1.6124 12.6267-3.4326-.4873-6.944-.3798-10.3837 0zm13.6299.6593c-.7811-.2078-1.5693-.3727-2.3576-.5088 0-.0072 0-.0072 0-.0144-.559-4.0273.0573-7.897.7381-11.8455.473-2.7518.4658-5.4606-.344-8.155-.0573-.1792-.1218-.3512-.1791-.5232.7452-1.4547 1.2469-3.0527 2.3791-4.271 1.6339-1.7628 4.2208-2.7589 6.6215-2.4006 5.5179.8169 6.2632 5.7329 5.9765 10.4338-.2651 4.3427-.7094 8.9792-1.7915 13.2-.7453 2.8664-2.544 4.6365-4.2853 6.7146-2.2717-1.2899-5.0378-2.1713-6.7577-2.6299z"/><path d="m175.763 65.9131c-3.325-6.7218-11.459-9.2657-18.775-9.1726.594-.7022.781-1.727-.23-1.7341-.673 0-1.354-.0001-2.035.0071-9.602 0-19.227-.1075-28.815.4156-.652.0215-1.275 1.3903-.38 1.4404 3.576.2007 7.167.3225 10.75.3942l.996 27.0807c-5.074.0788-10.148.2221-15.157.2221-5.969 0-11.931.0072-17.901.0072-5.6966 0-11.9239-.688-17.535.3726-.7094.129-1.512 1.4476-.4443 1.6769 5.8046 1.2254 12.5407.3654 18.4673.3726h4.264c-.28.1935-.524.4371-.717.6951-2.114 2.8091-.803 6.2704-.745 9.5883.071 4.2778-.488 8.5638-.875 12.8128-.329 3.655-.609 7.317-.637 10.986-.029 3.103-.445 7.223 1.755 9.667.617.673 1.727-.129 1.95-.767 1.089-3.132.451-6.5.566-9.774.129-3.598.516-7.181.895-10.757.739-6.922 1.52-13.8949 1.297-20.8746-.021-.5877-.515-1.2684-1.053-1.4906-.064-.0287-.136-.0573-.201-.086 3.798 0 7.596.0072 11.395.0072 11.745.0071 23.755.7381 35.45-.4658.452-.043.91-.6951.846-1.1251 9.882.5661 22.172-8.7713 16.869-19.499zm-16.769 16.2528c-.136-.0215-.279-.0072-.416.0143-.437-5.4104-.895-17.1126-1.089-22.2866 4.357.1434 8.815 1.3401 12.075 4.0059 9.904 8.0905-.136 19.7211-10.57 18.2664z"/></g></svg>