<svg fill="none" height="56" viewBox="0 0 101 56" width="101" xmlns="http://www.w3.org/2000/svg"><path d="m0 8.79175 79.7639-8.79175-6.6332 43.146-66.98923-5.6423z" fill="#481bff"/><path d="m18.9943 28.0331c2.5859 0 4.0513-1.4653 4.0513-3.1892 0-3.9651-5.3442-3.0169-5.3442-4.5684 0-.5172.5172-1.0344 1.2929-1.0344.862 0 1.3792.5172 1.3792 1.3791l2.4135-.1723c0-1.9826-1.4654-3.4479-3.7927-3.4479-2.4135 0-3.8788 1.4653-3.8788 3.1031 0 3.8788 5.3442 2.9306 5.3442 4.5684 0 .6034-.5172 1.1205-1.4654 1.1205-1.0343 0-1.5515-.5171-1.5515-1.4653l-2.4135.1724c0 2.0687 1.4653 3.534 3.965 3.534z" fill="#fff"/><path d="m28.3143 27.9469h2.4997v-8.4472h3.1031v-2.4135h-8.7059v2.4135h3.1031z" fill="#fff"/><path d="m34.9575 27.9469h2.5859l.6896-2.0687h3.7926l.6896 2.0687h2.5859l-3.8789-10.8607h-2.5859zm3.965-4.2236 1.2068-3.6202 1.2067 3.6202z" fill="#fff"/><path d="m47.8843 27.9469h2.4997v-3.6202h1.2929l1.9825 3.6202h2.7583l-2.4135-4.1374c.0173 0 2.0687-.8619 2.0687-3.2754 0-1.8964-1.5515-3.4479-3.7926-3.4479h-4.396zm2.4997-6.0337v-2.4135h1.8963c.862 0 1.3791.5172 1.3791 1.2067 0 .6896-.5171 1.2068-1.3791 1.2068z" fill="#fff"/><path d="m61.4265 27.9469h2.4997v-8.4472h3.1031v-2.4135h-8.7058v2.4135h3.103z" fill="#fff"/><g stroke-linecap="round" stroke-linejoin="round"><path d="m88.1875 34.6362-.4038.037-.2929.0092-.2959-.0061-.296-.0247-.299-.0401-.299-.0555-.2096-.0524-.2066-.0647-.2034-.0802-.2281-.1048-.2559-.1418-.1665-.1048-.1664-.1171-.1819-.148-.148-.1418-.1263-.1449-.0987-.1387-.0894-.1572-.0678-.1634-.0463-.1603-.0215-.1634.0031-.1633" stroke="#481bff" stroke-width=".0001"/><path d="m95.4315 35.0247-.0709.2404-.1048.225-.1511.2405-.1634.2034-.2219.2158-.2898.222-.373.2343-.4408.2219-.3977.1603-.3483.111-.3545.0863-.4254.0771-.3946.04-.3607.0155h-.2281l-.2281-.0093-.3545-.0339-.3483-.0524-.3422-.074-.2435-.0647-.2713-.0863-.3175-.1203-.3083-.1418-.2898-.1572-.2034-.1264-.2189-.151" stroke="#481bff" stroke-width=".0001"/><path d="m83.8591 42.4073-7.9162-6.6092" stroke="#481bff" stroke-width=".0001"/><path d="m86.0293 41.1836-2.1702 1.2238" stroke="#481bff" stroke-width=".0001"/><path d="m76.538 46.4885-7.6481-7.2966" stroke="#481bff" stroke-width=".0001"/><path d="m83.958 42.3055-7.4199 4.1832" stroke="#481bff" stroke-width=".0001"/><path d="m70.5731 49.9107-5.8817-6.2886" stroke="#481bff" stroke-width=".0001"/><path d="m61.4729 45.2405 3.2183-1.6184" stroke="#481bff" stroke-width=".0001"/><path d="m73.1812 48.437-2.608 1.4735" stroke="#481bff" stroke-width=".0001"/><path d="m61.4732 45.2404-1.4581-1.6646" stroke="#481bff" stroke-width=".0001"/><path d="m99.9108 10.8932-.1079.1757-.1634.1911-.1818.1603-.2528.1696-.336.1788-.4347.1849-.5209.1788-.4717.1264-.4131.0894-.4285.0709-.2373.0277.3237-1.9759v-.0586l-.0124-.0493-.0215-.0463-.0278-.04-.037-.0401-.0493-.0432-.0586-.04-.074-.0432-.0678-.0339-.0832-.037-.0832-.0339-.0864-.02776-.0709-.02466-.0739-.01849-.074-.01542-.0771-.01233-.0801-.00925-.1049-.00924-.1078-.00617h-.111l-.1141.00308-.3853.02158-.4377.04316-.4594.0586.3391-2.36751-1.9575.73059-.1603-.06474-.151-.0524-.1295-.03699-.1449-.03699-.1356-.02775-.1233-.02158-.1233-.01541-.111-.00925-.1233-.00616-.1356-.00309h-.1357l-.1356.00617-.0986.00616-.1079.01234-.1326.01849-.1418.02774-.151.037-.1603.04932-.1449.0524-.1172.05241-.0709.04007-.0678.04624-.0801.06782-.0524.05857-.0278.04008-.0154.04007-.0092.04624-.185 1.67076-.2836-.0339-.2528-.04-.2528-.0524-.2497-.0617-.2805-.0832-.3113-.11101-.2066-.08323-.2034-.0894-.2281-.11714-.1819-.11097-.1572-.11406-.1233-.1079-.1141-.1233-.0894-.12639-.0586-.12639-.0308-.12639-.0031-.12639-1.0049 11.50757-.1634.0647-.2096 2.4168-.0648-.0401.41-4.7966v-.0832l-.0154-.0832-.0277-.0771-.0432-.0771-.0462-.0647-.0586-.0617-.0709-.0616-.0801-.0586-.0925-.0555-.0987-.0493-.1048-.0462-.1109-.0432-.1203-.037-.1264-.0339-.1695-.037-.1572-.0277-.1572-.0185-.0802-.0062-.0925-.0061-.1695-.0062-.185.0031-.1479.0061-.1634.0124-.1326.0154-.1294.0216-.1233.0277-.1172.0339-.114.037-1.6061.6011-.1202 2.349-4.1678-2.5678-.1911 9.1678-3.5111 1.495.0308 3.2153-4.2356-3.4495.3144 7.3028-1.8865.8693.2466 4.1153-2.9131-2.8823-3.4218 1.5784-1.529-1.6246.8015 6.2948.632.7213-.4131.262 2.6541 9.843 22.5558-12.8886.5888-.3329v-.0031l7.8145-4.4668.2127-.1079.373-.2312.2898-.225.222-.2158.1633-.2035.1511-.2435.1017-.2219.0709-.2405 4.5469-24.3221zm-29.7106 29.9603-.0123-.4254 2.1332 2.0345-1.9452 1.0142-1.8157-1.7972z" fill="#fff" stroke="#fff" stroke-width=".5"/><path d="m99.9878 10.3971-.037-.1264-.0709-.1511-.1048-.151-.1233-.13256-.148-.12639-.1695-.1233-.1911-.11406-.2097-.11098-.2342-.10172-.2282-.0894-.225-.08323-.336-.1079-.299-.08323-.259-.05857-.2589-.04932-.2559-.04008-.3668-.04624-.3237-.02774-.3576-.02158-.3514-.00616-.3853.00616-.5487.02466-.5395.04624-.5888.07399-1.5166.22503-.4624.06165-.4039.04316-.3976.02774-.1295.00309h-.1048l-.1017-.00309-.0802-.00616-.0771-.00925-.0739-.01233-.0709-.01541-.0679-.01542-.0678-.01849-.0801-.02775-.074-.03082-.0463-.02158-.0369-.02158-.0463-.02774-.0431-.03083-.034-.03391-.0339-.03699-.0185-.03083-.0123-.02774-.0123-.04316-.0031-.04624.0092-.04932.0185-.04007.0247-.04008.0524-.05857.0802-.06474.0709-.04624.0709-.04007.1171-.05241.1449-.05548.1603-.04624.151-.03699.1449-.02775.1295-.01849.111-.00925.0955-.00925.1357-.00617h.1356l.1356.00309.1233.00925.111.00924.1233.0185.1233.0185.1357.02774.1449.03699.1294.03699.1542.05241.1572.06473 1.9575-.73059-.2467-.09556-.2281-.08015-.3206-.09864-.336-.0894-.3452-.07398-.2898-.05549-.262-.04007-.3607-.04624-.3638-.03391-.3668-.02158-.2343-.00617-.2373-.00308-.37.00925-.4007.02158-.4377.04315-.4008.05549-.3576.06782-.4192.09556-.4439.12639-.3823.13564-.3329.1418-.2651.13564-.225.14488-.1942.1603-.1542.16338-.1017.15105-.0647.15413-.0247.12639.0062.12639.0308.12639.0586.12639.0894.12639.114.1233.1233.1079.1603.11405.1819.11098.2281.11714.2035.0894.2065.08323.3114.11099.2836.0832.2497.0617.2497.0524.2558.04.3638.0463.3606.0308.3607.0185.3576.0031.3545-.0062.561-.0339.5518-.0524.6042-.0863 1.5475-.2404.4717-.0617.4377-.04008.3854-.02466h.114.111l.1079.00617.1017.00616.0802.01233.077.01234.0771.01541.074.01541.0709.02158.0863.02774.0832.0339.0832.037.0679.037.0739.0432.0555.04.0494.0432.037.0401.0277.04.0216.0463.0123.0493.0031.0586-.0062.037-.0123.0308-.0278.0555-.0493.0616-.0801.0709-.0648.0463-.0678.04-.1449.074-.2096.0863-.1017.037-.0894.0247-.1572.0432-.1665.0308-.1603.0216-.1325.0154-.1172.0092-.1634.0062h-.1633l-.1634-.0062-.1048-.0061-.1048-.0124-.1758-.0185-.1726-.0277-.1726-.0339-.111-.0278-.111-.0277-.1448-.0463-.1418-.0493-.1449-.0616-2.1918.8693.2744.1202.2527.1017.3638.1233.3792.111.3976.0987.3329.0678.2991.0524.4192.0585.4285.0401.4346.0278.2806.0092h.2774l.4377-.0123.4748-.0339.5148-.0586.4285-.0709.413-.0894.4717-.1264.521-.1788.4346-.1849.336-.1757.2528-.1727.1819-.1603.1664-.1911.1048-.1757.0679-.1911.0214-.1757z" fill="#000" stroke="#000" stroke-width=".5"/><path d="m91.0327 11.7131.2743.1203.2528.1017.3638.1233.3791.111.3977.0986.3329.0678.299.0524.4193.0586.4285.0401.4346.0277.2805.0093h.2775l.4377-.0123.4747-.034.5148-.0585.4285-.0709.4131-.0894.4717-.1264.5209-.1788.4347-.185.336-.1757.2528-.1726.1818-.1603.1665-.1911.1048-.1757.0678-.1912.0215-.1757-.0122-.1294-.037-.1264-.0709-.1511-.1048-.15104-.1233-.13255-.148-.12639-.1695-.12331-.1912-.11405-.2096-.11098-.2343-.10173-.2281-.08939-.225-.08324-.336-.10789-.299-.08323-.259-.05857-.2589-.04932-.2559-.04008-.3668-.04624-.3237-.02774-.3576-.02158-.3514-.00616-.3853.00616-.5488.02466-.5394.04624-.5888.07399-1.5167.22195-.4624.06473-.4038.04316-.3977.02774-.1294.00309h-.1048l-.1018-.00309-.0801-.00616-.0771-.00925-.074-.01233-.0709-.01541-.0678-.01542-.0678-.01849-.0802-.02775-.0739-.03082-.0463-.02158-.037-.02158-.0462-.02774-.0432-.03083-.0339-.03391-.0339-.03699-.0185-.03083-.0123-.02774-.0123-.04316-.0031-.04624.0092-.04932.0185-.04008.0247-.04007.0524-.05857.0801-.06474.0709-.04624.0709-.04007.1172-.05241.1449-.05548.1603-.04624.151-.037.1449-.02774.1295-.0185.1109-.00924.0956-.00925.1356-.00617h.1357l.1356.00309.1233.00924.111.00925.1233.0185.1233.01849.1356.02775.1449.03699.1295.03699.1541.05241.1572.06473 1.9575-.73059" stroke="#481bff" stroke-width=".0001"/><path d="m94.3281 7.64427-.2467-.09556-.2281-.08015-.3206-.09864-.336-.0894-.3452-.07398-.2898-.05549-.262-.04007-.3607-.04624-.3638-.03391-.3668-.02158-.2343-.00617-.2373-.00308-.37.00925-.4007.02158-.4377.04315-.4008.05549-.3576.06782-.4192.09556-.4439.12639-.3823.13564-.3329.1418-.2651.13564-.225.14488-.1942.1603-.1542.16338-.1017.15105-.0647.15413-.0247.12639.0062.12639.0308.12639.0586.12639.0894.12639.114.1233.1233.1079.1603.11405.1819.11098.2281.11714.2035.0894.2065.08323.3114.11099.2836.0832.2497.0617.2497.0524.2558.04.3638.0463.3606.0308.3607.0185.3576.0031.3545-.0062.561-.0339.5518-.0524.6042-.0863 1.5475-.2404.4717-.0617.4377-.04008.3853-.02466.1141-.00308.111.00308.1079.00617.1017.00616.0802.01233.077.01234.0771.01541.074.01541.0709.02158.0863.02774.0832.0339.0832.037.0679.037.0739.0432.0555.04.0494.0432.0369.0401.0278.04.0216.0463.0123.0493.0031.0586-.0062.037-.0123.0308-.0278.0555-.0493.0616-.0801.0709-.0648.0463-.0678.04-.1449.074-.2096.0863-.1017.037-.0894.0247-.1572.0432-.1665.0308-.1603.0216-.1325.0154-.1172.0092-.1634.0062h-.1633l-.1634-.0062-.1048-.0092-.1048-.0093-.1758-.0185-.1726-.0277-.1726-.0339-.111-.0278-.111-.0277-.1448-.0463-.1418-.0493-.1449-.0616-2.1918.8693" stroke="#481bff" stroke-width=".0001"/><path d="m88.3353 17.8756-.0154-.1202-.0555-.1881-.0986-.2065-.1387-.2035-.1172-.1356-.1325-.1295-.2127-.1757-.2466-.1695-.3052-.1788-.2435-.1233-.2251-.1018-.3237-.1263-.3391-.111-.3575-.0987-.2343-.0555-.2343-.0493-.4069-.0709-.4131-.0524-.4192-.0339-.2806-.0123-.2466-.0062-.3853.0062-.4192.0246-.4193.0432-.2435.0339-.2065.0339-.4039.0832-.3915.1049-.4161.1356-4.1154 1.492 9.3497 5.7615 2.5124-1.082-3.1628-1.862 1.7293-.7028.2467-.1079.225-.111.299-.1757.2312-.1695.1911-.1788.1018-.1172.0894-.1171.1171-.2035.074-.2034.0339-.2066zm-3.209.0555-.0092.037-.0309.074-.0462.0739-.0678.0802-.0494.0462-.0554.0463-.0894.0585-.1018.0555-.1264.0555-1.6214.635-2.3459-1.381 1.606-.6011.1141-.037.1171-.0339.1233-.0277.1295-.0216.1326-.0154.1633-.0124.148-.0061.185-.0031.1695.0061.0925.0062.0801.0062.1573.0185.1572.0277.1695.037.1264.0339.1202.037.111.0432.1048.0462.0987.0493.0924.0555.0802.0586.0709.0616.0586.0617.0462.0647.0432.0771.0277.0771.0154.0832v.0832z" fill="#000" stroke="#000" stroke-width=".5"/><path d="m76.2944 17.4903 4.1154-1.492.4161-.1356.3915-.1048.4039-.0833.2034-.0339.2435-.0339.4193-.0431.4192-.0247.3854-.0062.2435.0062.2836.0123.4161.0339.4131.0524.4069.0709.2343.0463.2343.0555.3576.0986.3391.111.3237.1264.225.1017.2466.1233.3052.1788.2435.1665.2127.1757.1357.1325.114.1326.1387.2034.0987.2066.0555.188.0154.1203.0031.1387-.0339.2065-.074.2065-.1172.2004-.0894.1172-.1017.1171-.1942.1788-.2312.1695-.299.1758-.2251.1109-.2466.1079-1.7324.7029" stroke="#481bff" stroke-width=".0001"/><path d="m84.9939 20.3079 3.1628 1.8619" stroke="#481bff" stroke-width=".0001"/><path d="m88.1565 22.1698-2.5124 1.082-9.3497-5.7614" stroke="#481bff" stroke-width=".0001"/><path d="m80.5857 17.709 1.6061-.6011.1109-.04.1203-.034.1233-.0246.1264-.0247.1356-.0154.1634-.0123.1479-.0062.185-.0031.1695.0062.0925.0062.0771.0061.1572.0216.1572.0247.1726.037.1264.0339.1203.04.114.0401.1048.0463.0956.0493.0956.0586.0801.0585.0709.0586.0586.0647.0462.0617.0432.0801.0308.0771.0154.0832v.0833l-.0062.0462-.0092.037-.0308.0771-.0463.0739-.0647.0771-.0524.0493-.0555.0432-.0894.0586-.1017.0554-.1264.0524-1.6215.6351z" stroke="#481bff" stroke-width=".0001"/><path d="m66.8309 36.0973 3.1689-1.4611-1.6338-1.4427-9.1524 4.0876 1.529 1.6245 3.4218-1.5783 6.2084 6.1499 2.7744-1.4458z" fill="#000" stroke="#000" stroke-width=".5"/><path d="m59.2136 37.2811 9.1524-4.0876" stroke="#481bff" stroke-width=".0001"/><path d="m70.3725 43.477-6.2084-6.1499" stroke="#481bff" stroke-width=".0001"/><path d="m66.8308 36.0972 6.3164 5.9341" stroke="#481bff" stroke-width=".0001"/><path d="m60.7422 38.9055 3.4217-1.5784" stroke="#481bff" stroke-width=".0001"/><path d="m66.8308 36.097 3.169-1.4611" stroke="#481bff" stroke-width=".0001"/><path d="m73.1469 42.0314-2.7743 1.4457" stroke="#481bff" stroke-width=".0001"/><path d="m60.7426 38.9053-1.529-1.6245" stroke="#481bff" stroke-width=".0001"/><path d="m68.366 33.1935 1.6338 1.4427" stroke="#481bff" stroke-width=".0001"/><path d="m65.7979 50.5361-.0093.2898-.0431.2959-.0648.2466-.0863.2528-.1541.3422-.2189.3699-.2435.3422-.3175.373-.3114.3144-.3915.3299-.4809.3483-.5888.3607-.6689.3452-.5826.2497-.4932.1727-.4902.1356-.5734.1171-.5117.0679-.4593.0215h-.2836l-.2805-.0185-.4223-.0493-.4039-.0832-.3853-.1141-.2682-.1017-.2867-.1326-.3298-.188-.3021-.2189-.2713-.2435-.1819-.1973-.188-.2343" stroke="#481bff" stroke-width=".0001"/><path d="m55.0268 51.3777-.2744-.0493-.339-.0863-.2282-.0771-.2157-.1017-.2066-.1203-.225-.1633-.2312-.2158-.148-.1603-.1356-.1788-.1449-.2251-.0986-.2127-.074-.225" stroke="#481bff" stroke-width=".0001"/><path d="m83.0483 29.4478-5.4748 2.5586-1.7633-1.3687 4.8552-2.1918-1.7849-1.2669-4.8151 2.1054-1.4581-1.1313 5.1851-2.2041-1.6986-1.1961-7.6912 3.169 8.4495 6.8805 8.1845-3.9612z" fill="#000" stroke="#000" stroke-width=".5"/><path d="m76.8521 34.8025-8.4495-6.8805" stroke="#481bff" stroke-width=".0001"/><path d="m85.0367 30.8411-8.1844 3.9612" stroke="#481bff" stroke-width=".0001"/><path d="m68.4026 27.9219 7.6912-3.169 1.6986 1.1961" stroke="#481bff" stroke-width=".0001"/><path d="m83.0488 29.448-5.4748 2.5586" stroke="#481bff" stroke-width=".0001"/><path d="m72.6077 28.1533 5.185-2.2041" stroke="#481bff" stroke-width=".0001"/><path d="m80.6657 28.4458-4.8552 2.1918" stroke="#481bff" stroke-width=".0001"/><path d="m74.0654 29.2847 4.8151-2.1055 1.7849 1.267" stroke="#481bff" stroke-width=".0001"/><path d="m83.0486 29.448 1.9883 1.3934" stroke="#481bff" stroke-width=".0001"/><path d="m77.5738 32.0064-1.7633-1.3687" stroke="#481bff" stroke-width=".0001"/><path d="m74.0658 29.2847-1.4581-1.1314" stroke="#481bff" stroke-width=".0001"/></g><path d="m65.5515 47.4134-.0093.2898-.0462.2928-.0648.2467-.0924.2496-.1603.3391-.2251.37-.2558.3391-.3268.373-.3237.3113-.4038.3298-.4994.3484-.6073.3576-.6936.3452-.6011.2466-.5117.1727-.5056.1356-.5918.1171-.5333.0648-.4717.0246-.2928-.003-.2898-.0154-.4377-.0525-.4162-.0801-.3977-.1141-.2743-.1017-.296-.1325-.339-.1881-.3083-.2158-.0432-.037.2806.0093.3699-.0154.598-.0648.6042-.1048.6844-.1664 1.7694-.4655.5271-.1172.4809-.0832.4131-.0462.1171-.0031h.111l.1079.0123.0987.0154.0739.0216.0679.0247.0678.0277.0616.0339.0555.0401.0678.0555.0586.0647.0555.074.0401.0678.0431.0863.0247.0802.0185.0832-.3576-3.1258-.0154-.0801-.0278-.0802-.0431-.0863-.0432-.0678-.0555-.074-.0616-.0647-.0678-.0524-.0586-.0401-.0617-.0339-.0678-.0309-.074-.0215-.0739-.0216-.1018-.0154-.1109-.0124h-.1141l-.1233.0031-.4223.0463-.4963.0801-.5457.1172-1.8249.4654-.709.1634-.6258.1048-.1387.0154v-.0092l.0216-.0832.0339-.0894.0462-.0925.0493-.0802.0555-.077.0987-.111.1356-.1326.1048-.0894.1048-.077.1603-.1018.1881-.1017.2034-.0955.185-.0709.1664-.0525.148-.0339.1202-.0215.1048-.0155.1419-.0123h.1387l.1356.0062.1202.0154.1048.0216.1141.0308.1079.0401.1171.0524.1203.0709.1048.074.114.1017.1141.1233 2.5648-1.418-.3453-3.0827-2.6449 1.4026-.1172-.1233-.1171-.0986-.1079-.074-.1233-.0678-.1171-.0524-.1141-.0401-.1171-.0308-.1079-.0216-.1233-.0154-.1418-.0062h-.1418l-.1449.0123-.1079.0124-.1233.0216-.1542.0369-.1726.0494-.188.0709-.2097.0955-.1942.0987-.1664.1017-.1079.0771-.111.0894-.1387.1294-.1017.111-.0617.0771-.0493.077-.0493.0925-.0339.0925-.0247.0802-.0062.0524-.0061.0616.003.0709.0093.0648.4932 2.8668-.4377.0463-.3792.0123-.373-.0093-.3637-.0339-.3576-.0616-.3484-.0863-.2342-.0771-.2251-.1017-.2096-.1172-.2312-.1634-.2374-.2127-.1479-.1633-.1418-.1727-.1449-.225-.1017-.2127-.074-.2219.6442 3.1134.074.2251.0987.2127.1449.225.1356.1788.148.1603.2312.2158.225.1634.2065.1202.2158.1017.2281.0771.3391.0863.2744.0493.4778 2.5524.188.2343.1819.1973.2713.2436.3021.2188.3298.1881.2867.1325.2682.1017.3853.1141.4039.0832.4223.0494.2805.0185h.2836l.4593-.0216.5117-.0678.5734-.1172.4902-.1356.4932-.1727.5826-.2496.6689-.3453.5888-.3607.4809-.3483.3915-.3299.3114-.3144.3175-.373.2435-.3422.2189-.3699.1541-.3422.0863-.2527.0648-.2466.0431-.296.0093-.2898z" fill="#fff"/><path d="m54.9165 50.7892.111.5888.4778 2.5524.188.2343.1819.1973.2713.2435.3021.2189.3298.1881.2867.1325.2682.1017.3853.1141.4039.0832.4223.0493.2805.0185h.2836l.4593-.0215.5117-.0679.5734-.1171.4902-.1356.4932-.1727.5826-.2497.6689-.3452.5888-.3607.4809-.3483.3915-.3299.3114-.3144.3175-.373.2435-.3422.2189-.3699.1541-.3422.0863-.2527.0648-.2467.0431-.2959.0093-.2898-.2466-3.1227-.0247-.2558-.0524-.2467-.0802-.2342-.1078-.2251-.1357-.2096-.1634-.2004-.1664-.1726-.1727-.1572-.2651-.2096-.2497-.1572-.2219-.1172-.2312-.0956-.2405-.077-.3483-.0832-.3175-.0555-.3607-.0401-.3637-.0154-.1449.0031-.2651.0061-.5981.0524-.6042.0894-.6812.1418-.5796.1387-1.196.2898-.5395.1202-.4593.0833-.4408.0555-.1418.0092-.1079-.0031-.1048-.0092-.0771-.0124-.0709-.0154-.0709-.0246-.0617-.0247-.0585-.0339-.0555-.037-.0617-.0524-.0555-.0586-.0308-.0431-.0216-.037-.0277-.0586-.0185-.0586-.0093-.0647-.003-.0709.0061-.0616.0062-.0525.0247-.0801.0339-.0925.0493-.0925.0493-.077.0617-.0771.1017-.111.1387-.1294.111-.0894.1079-.0771.1664-.1017.1942-.0987.2097-.0955.188-.0709.1726-.0494.1542-.037.1233-.0215.1079-.0124.1449-.0123h.1418l.1418.0062.1233.0154.1079.0216.1171.0308.1141.0401.1171.0524.1233.0678.1079.074.1171.0986.1172.1233.1325.9556" stroke="#481bff" stroke-linecap="round" stroke-linejoin="round" stroke-width=".0001"/><path d="m65.5517 47.4133-.0093.2898-.0462.2929-.0648.2466-.0924.2497-.1603.3391-.2251.3699-.2558.3391-.3268.373-.3237.3113-.4038.3299-.4994.3483-.6073.3576-.6936.3452-.6011.2467-.5117.1726-.5056.1356-.5918.1172-.5333.0647-.4717.0247-.2928-.0031-.2898-.0154-.4377-.0524-.4162-.0802-.3977-.1141-.2743-.1017-.296-.1325-.339-.1881-.3083-.2158-.2805-.2435-.1881-.1942-.1911-.2374" stroke="#481bff" stroke-linecap="round" stroke-linejoin="round" stroke-width=".0001"/><path d="m55.0273 51.378-.2744-.0493-.3391-.0863-.2281-.0771-.2158-.1017-.2065-.1202-.225-.1634-.2312-.2158-.148-.1603-.1356-.1788-.1449-.225-.0987-.2127-.074-.2251-.5702-2.7651-.0494-.2281-.0246-.1202" stroke="#481bff" stroke-linecap="round" stroke-linejoin="round" stroke-width=".0001"/><path d="m57.9372 49.1089.1048.1172.1079.0986.1171.0863.0925.0555.0956.0494.1541.0678.1603.0524.1696.04.1017.0185.1048.0124.1665.0123h.1757l.1757-.0123.1325-.0154.1511-.0278.1849-.0431.2004-.0648.2035-.077.114-.0524.1357-.0679.2928-.1664.2127-.1449.1017-.0771.1049-.0894.1418-.1387.1017-.1202.0771-.1079.0369-.0617.034-.0678.0493-.114.0246-.0956.0154-.0894.0031-.0771-.0092-.077-.0154-.0802-.0278-.0801-.0431-.0863-.0432-.0679-.0555-.0739-.0616-.0648-.0678-.0524-.0586-.0401-.0617-.0339-.0678-.0308-.074-.0216-.074-.0216-.1017-.0154-.111-.0123h-.114l-.1233.0031-.4223.0462-.4964.0802-.5456.1171-1.8249.4655-.709.1634-.6258.1048-.6165.0647-.3792.0123-.373-.0092-.3638-.0339-.3575-.0617-.3484-.0863-.2343-.077-.225-.1018-.2096-.1171-.2312-.1634-.2374-.2127-.1479-.1634-.1419-.1726-.1448-.225-.1018-.2127-.0739-.222-.0401-.2096-.0216-.2374.0123-.2435.0401-.2435.0709-.2436.0987-.2435.1294-.2466.1911-.2929.2312-.2897.2929-.3145.3391-.3082.3514-.2805.3915-.2621.4655-.2743.5117-.2559.5672-.2435.5179-.1881.4347-.1263.4624-.1079.4932-.0802.4408-.0431.3946-.0155.2466.0031.2404.0154.37.0401.3545.0647.3421.0864.2405.0801.262.1017.3021.148.2805.1696.259.188.1726.1541.1819.185.2158 1.9297" stroke="#481bff" stroke-linecap="round" stroke-linejoin="round" stroke-width=".0001"/><path d="m65.5267 47.1576-.0524-.2466-.0802-.2343-.1079-.225-.1356-.2096-.1634-.2004-.1664-.1726-.1727-.1572-.2651-.2097-.2497-.1572-.2219-.1171-.2312-.0956-.2405-.0771-.3483-.0832-.3175-.0555-.3607-.04-.3637-.0155-.41.0093-.5981.0524-.6042.0894-.6812.1418-1.7757.4285-.5394.1202-.4593.0832-.4409.0555-.1418.0093-.1078-.0031-.1049-.0093-.077-.0123-.0709-.0154-.0709-.0247-.0617-.0246-.0585-.0339-.0555-.037-.0617-.0524-.0555-.0586-.0308-.0432-.0216-.0369-.0277-.0586-.0185-.0586-.0093-.0647-.0031-.0709.0062-.0617.0062-.0524.0246-.0801.0339-.0925.0494-.0925.0493-.0771.0616-.077.1018-.111.1387-.1295.111-.0894.1079-.077.1664-.1018.1942-.0986.2097-.0956.188-.0709.1726-.0493.1542-.037.1233-.0216.1079-.0123.1448-.0123h.1418l.1418.0061.1233.0155.1079.0215.1172.0309.114.04.1172.0524.1233.0679.1079.0739.1171.0987.1172.1233 2.6449-1.4026-.1819-.185-.1726-.1541-.259-.188-.2805-.1696-.3021-.148-.262-.1017-.2405-.0801-.3421-.0864-.3545-.0647-.37-.0401-.2404-.0154-.2466-.0031-.3946.0155-.4408.0431-.4932.0802-.4624.1079-.4347.1263-.5179.1881-.5672.2435-.5117.2559-.4655.2743-.3915.2621-.3514.2805-.3391.3082-.2929.3145-.2312.2897-.1911.2929-.1294.2466-.0987.2435-.0709.2436-.0401.2435-.0123.2435.0216.2374.0401.2096.0739.222.1018.2127.1448.225.1419.1726.1479.1634.2374.2127.2312.1634.2096.1171.225.1018.2343.077.3484.0863.3575.0617.3638.0339.373.0092.3792-.0123.6165-.0647.6258-.1048.709-.1634 1.8249-.4655.5456-.1171.4964-.0802.4223-.0462.1233-.0031h.114l.111.0123.1017.0154.074.0216.074.0216.0678.0308.0617.0339.0586.0401.0678.0524.0616.0648.0555.0739.0432.0679.0431.0863.0278.0801.0154.0802.0092.077-.0031.0771-.0154.0894-.0246.0956-.0493.114-.034.0678-.0369.0617-.0771.1079-.1017.1202-.1418.1387-.1049.0894-.1017.0771-.2127.1449-.2928.1664-.1357.0679-.114.0524-.2035.077-.2004.0648-.1849.0431-.1511.0278-.1325.0154-.1757.0123h-.1757l-.1665-.0123-.1048-.0124-.1017-.0185-.1696-.04-.1603-.0524-.1541-.0678-.0956-.0494-.0925-.0555-.1171-.0863-.1079-.0986-.1048-.1172-3.021 1.6801.1911.2374.1881.1942.2805.2435.3082.2158.3391.188.296.1326.2743.1017.3977.1141.4161.0801.4378.0524.2898.0154.2928.0031.4717-.0247.5333-.0647.5918-.1171.5056-.1357.5117-.1726.6011-.2466.6936-.3453.6073-.3576.4994-.3483.4038-.3298.3237-.3114.3267-.373.2559-.3391.225-.3699.1603-.3391.0925-.2497.0648-.2466.0462-.2929.0092-.2897z" fill="#000" stroke="#000" stroke-linecap="round" stroke-linejoin="round" stroke-width=".5"/><path d="m57.9375 49.109-3.021 1.6801" stroke="#481bff" stroke-linecap="round" stroke-linejoin="round" stroke-width=".0001"/><path d="m59.0439 44.3369 2.645-1.4026" stroke="#481bff" stroke-linecap="round" stroke-linejoin="round" stroke-width=".0001"/><path d="m54.9165 50.7892.1911.2374.1881.1942.2805.2435.3083.2158.339.188.296.1326.2743.1017.3977.1141.4162.0801.4377.0524.2898.0155.2928.003.4717-.0246.5333-.0648.5918-.1171.5056-.1356.5117-.1727.6011-.2466.6936-.3452.6073-.3576.4994-.3484.4038-.3298.3237-.3114.3268-.373.2558-.339.2251-.37.1603-.3391.0924-.2497.0648-.2466.0462-.2928.0093-.2898-.0247-.2558-.0524-.2467-.0802-.2342-.1078-.2251-.1357-.2096-.1634-.2004-.1664-.1726-.1727-.1572-.2651-.2096-.2497-.1572-.2219-.1172-.2312-.0956-.2405-.077-.3483-.0832-.3175-.0555-.3607-.0401-.3637-.0154-.41.0092-.5981.0524-.6042.0894-.6812.1418-1.7756.4285-.5395.1202-.4593.0833-.4408.0555-.1418.0092-.1079-.0031-.1048-.0092-.0771-.0124-.0709-.0154-.0709-.0246-.0617-.0247-.0585-.0339-.0555-.037-.0617-.0524-.0555-.0586-.0308-.0431-.0216-.037-.0277-.0586-.0185-.0586-.0093-.0647-.003-.0709.0061-.0616.0062-.0525.0247-.0801.0339-.0925.0493-.0925.0493-.077.0617-.0771.1017-.111.1387-.1294.111-.0894.1079-.0771.1664-.1017.1942-.0987.2097-.0955.188-.0709.1726-.0494.1542-.037.1233-.0215.1079-.0124.1449-.0123h.1418l.1418.0062.1233.0154.1079.0216.1171.0308.1141.0401.1171.0524.1233.0678.1079.074.1171.0986.1172.1233" stroke="#481bff" stroke-linecap="round" stroke-linejoin="round" stroke-width=".0001"/><path d="m61.6888 42.9344-.1819-.185-.1726-.1541-.259-.188-.2805-.1696-.3021-.148-.262-.1017-.2405-.0801-.3421-.0864-.3545-.0647-.37-.0401-.2404-.0154-.2466-.0031-.3946.0155-.4408.0431-.4932.0802-.4624.1079-.4347.1263-.5179.1881-.5672.2435-.5117.2559-.4655.2743-.3915.2621-.3514.2805-.3391.3082-.2929.3145-.2312.2897-.1911.2929-.1294.2466-.0987.2435-.0709.2436-.0401.2435-.0123.2435.0216.2374.0401.2096.0739.222.1018.2127.1448.225.1419.1726.1479.1634.2374.2127.2312.1634.2096.1171.225.1018.2343.077.3484.0863.3575.0617.3638.0339.373.0092.3792-.0123.6165-.0647.6258-.1048.709-.1634 1.8249-.4655.5456-.1171.4964-.0802.4223-.0462.1233-.0031h.114l.111.0123.1017.0154.074.0216.074.0216.0678.0308.0617.0339.0586.0401.0678.0524.0616.0648.0555.0739.0432.0679.0431.0863.0278.0801.0154.0802.0092.077-.0031.0771-.0154.0894-.0246.0956-.0493.114-.034.0678-.0369.0617-.0771.1079-.1017.1202-.1418.1387-.1049.0894-.1017.0771-.2127.1449-.2928.1664-.1357.0679-.114.0524-.2035.077-.2004.0648-.1849.0431-.1511.0278-.1325.0154-.1757.0123h-.1757l-.1665-.0123-.1048-.0124-.1017-.0185-.1696-.04-.1603-.0524-.1541-.0678-.0956-.0494-.0925-.0555-.1171-.0863-.1079-.0986-.1048-.1172" stroke="#481bff" stroke-linecap="round" stroke-linejoin="round" stroke-width=".0001"/></svg>