<svg fill="none" height="1063" viewBox="0 0 1063 1063" width="1063" xmlns="http://www.w3.org/2000/svg"><path d="m361.851 531.32c0 104.204 70.908 162.163 170.179 162.163 85.09 0 162.78-46.244 167.096-135.033h-98.654c-3.7 27.747-28.98 48.711-68.442 48.711-46.861 0-71.524-27.747-71.524-75.841 0-47.477 24.663-75.224 71.524-75.224 39.462 0 64.742 20.964 68.442 48.711h98.654c-4.316-88.789-82.006-135.034-167.096-135.034-99.271 0-170.179 57.96-170.179 161.547z" fill="#5d3ede"/><path d="m869.712 531.434c0 186.138-151.425 337.241-338.474 337.241-187.048 0-338.473-151.103-338.473-337.241s151.425-337.24 338.473-337.24c187.049 0 338.474 151.102 338.474 337.24z" stroke="#5d3ede" stroke-width="74.0593"/><path d="m797.559 265.737c34.858 34.858 62.509 76.241 81.374 121.785 18.865 45.545 28.575 94.359 28.575 143.656s-9.71 98.111-28.575 143.656c-18.865 45.544-46.516 86.927-81.374 121.785l-53.088-53.088c27.886-27.887 50.007-60.993 65.099-97.428 15.092-36.436 22.86-75.487 22.86-114.925 0-39.437-7.768-78.489-22.86-114.924-15.092-36.436-37.213-69.542-65.099-97.429z" fill="#3dd7ac"/><path d="m265.441 796.323c-34.858-34.858-62.509-76.241-81.374-121.785-18.865-45.545-28.575-94.359-28.575-143.656s9.71-98.111 28.575-143.656c18.865-45.544 46.516-86.927 81.374-121.785l53.088 53.088c-27.886 27.887-50.007 60.993-65.099 97.429-15.092 36.435-22.86 75.487-22.86 114.924 0 39.438 7.768 78.489 22.86 114.925 15.092 36.435 37.213 69.542 65.099 97.428z" fill="#3dd7ac"/><path d="m361.851 531.32c0 104.204 70.908 162.163 170.179 162.163 85.09 0 162.78-46.244 167.096-135.033h-98.654c-3.7 27.747-28.98 48.711-68.442 48.711-46.861 0-71.524-27.747-71.524-75.841 0-47.477 24.663-75.224 71.524-75.224 39.462 0 64.742 20.964 68.442 48.711h98.654c-4.316-88.789-82.006-135.034-167.096-135.034-99.271 0-170.179 57.96-170.179 161.547z" fill="#5d3ede"/><path d="m869.712 531.434c0 186.138-151.425 337.241-338.474 337.241-187.048 0-338.473-151.103-338.473-337.241s151.425-337.24 338.473-337.24c187.049 0 338.474 151.102 338.474 337.24z" stroke="#5d3ede" stroke-width="74.0593"/><g fill="#3dd7ac"><path d="m797.559 265.737c34.858 34.858 62.509 76.241 81.374 121.785 18.865 45.545 28.575 94.359 28.575 143.656s-9.71 98.111-28.575 143.656c-18.865 45.544-46.516 86.927-81.374 121.785l-53.088-53.088c27.886-27.887 50.007-60.993 65.099-97.428 15.092-36.436 22.86-75.487 22.86-114.925 0-39.437-7.768-78.489-22.86-114.924-15.092-36.436-37.213-69.542-65.099-97.429z"/><path d="m265.441 796.323c-34.858-34.858-62.509-76.241-81.374-121.785-18.865-45.545-28.575-94.359-28.575-143.656s9.71-98.111 28.575-143.656c18.865-45.544 46.516-86.927 81.374-121.785l53.088 53.088c-27.886 27.887-50.007 60.993-65.099 97.429-15.092 36.435-22.86 75.487-22.86 114.924 0 39.438 7.768 78.489 22.86 114.925 15.092 36.435 37.213 69.542 65.099 97.428z"/></g></svg>