<svg width="101" height="56" viewBox="0 0 101 56" fill="none" xmlns="http://www.w3.org/2000/svg">
<path d="M0 8.79175L79.7639 0L73.1307 43.146L6.14147 37.5037L0 8.79175Z" fill="#481BFF"/>
<path d="M18.9943 28.0331C21.5802 28.0331 23.0456 26.5678 23.0456 24.8439C23.0456 20.8788 17.7014 21.827 17.7014 20.2755C17.7014 19.7583 18.2186 19.2411 18.9943 19.2411C19.8563 19.2411 20.3735 19.7583 20.3735 20.6202L22.787 20.4479C22.787 18.4653 21.3216 17 18.9943 17C16.5808 17 15.1155 18.4653 15.1155 20.1031C15.1155 23.9819 20.4597 23.0337 20.4597 24.6715C20.4597 25.2749 19.9425 25.792 18.9943 25.792C17.96 25.792 17.4428 25.2749 17.4428 24.3267L15.0293 24.4991C15.0293 26.5678 16.4946 28.0331 18.9943 28.0331Z" fill="white"/>
<path d="M28.3143 27.9469H30.814V19.4997H33.9171V17.0862H25.2112V19.4997H28.3143V27.9469Z" fill="white"/>
<path d="M34.9575 27.9469H37.5434L38.233 25.8782H42.0256L42.7152 27.9469H45.3011L41.4222 17.0862H38.8363L34.9575 27.9469ZM38.9225 23.7233L40.1293 20.1031L41.336 23.7233H38.9225Z" fill="white"/>
<path d="M47.8843 27.9469H50.384V24.3267H51.6769L53.6594 27.9469H56.4177L54.0042 23.8095C54.0215 23.8095 56.0729 22.9476 56.0729 20.5341C56.0729 18.6377 54.5214 17.0862 52.2803 17.0862H47.8843V27.9469ZM50.384 21.9132V19.4997H52.2803C53.1423 19.4997 53.6594 20.0169 53.6594 20.7064C53.6594 21.396 53.1423 21.9132 52.2803 21.9132H50.384Z" fill="white"/>
<path d="M61.4265 27.9469H63.9262V19.4997H67.0293V17.0862H58.3235V19.4997H61.4265V27.9469Z" fill="white"/>
<path d="M88.1875 34.6362L87.7837 34.6732L87.4908 34.6824L87.1949 34.6763L86.8989 34.6516L86.5999 34.6115L86.3009 34.556L86.0913 34.5036L85.8847 34.4389L85.6813 34.3587L85.4532 34.2539L85.1973 34.1121L85.0308 34.0073L84.8644 33.8902L84.6825 33.7422L84.5345 33.6004L84.4082 33.4555L84.3095 33.3168L84.2201 33.1596L84.1523 32.9962L84.106 32.8359L84.0845 32.6725L84.0876 32.5092" stroke="#481BFF" stroke-width="0.0001" stroke-linecap="round" stroke-linejoin="round"/>
<path d="M95.4315 35.0247L95.3606 35.2651L95.2558 35.4901L95.1047 35.7306L94.9413 35.934L94.7194 36.1498L94.4296 36.3718L94.0566 36.6061L93.6158 36.828L93.2181 36.9883L92.8698 37.0993L92.5153 37.1856L92.0899 37.2627L91.6953 37.3027L91.3346 37.3182H91.1065L90.8784 37.3089L90.5239 37.275L90.1756 37.2226L89.8334 37.1486L89.5899 37.0839L89.3186 36.9976L89.0011 36.8773L88.6928 36.7355L88.403 36.5783L88.1996 36.4519L87.9807 36.3009" stroke="#481BFF" stroke-width="0.0001" stroke-linecap="round" stroke-linejoin="round"/>
<path d="M83.8591 42.4073L75.9429 35.7981" stroke="#481BFF" stroke-width="0.0001" stroke-linecap="round" stroke-linejoin="round"/>
<path d="M86.0293 41.1836L83.8591 42.4074" stroke="#481BFF" stroke-width="0.0001" stroke-linecap="round" stroke-linejoin="round"/>
<path d="M76.538 46.4885L68.8899 39.1919" stroke="#481BFF" stroke-width="0.0001" stroke-linecap="round" stroke-linejoin="round"/>
<path d="M83.958 42.3055L76.5381 46.4887" stroke="#481BFF" stroke-width="0.0001" stroke-linecap="round" stroke-linejoin="round"/>
<path d="M70.5731 49.9107L64.6914 43.6221" stroke="#481BFF" stroke-width="0.0001" stroke-linecap="round" stroke-linejoin="round"/>
<path d="M61.4729 45.2405L64.6912 43.6221" stroke="#481BFF" stroke-width="0.0001" stroke-linecap="round" stroke-linejoin="round"/>
<path d="M73.1812 48.437L70.5732 49.9105" stroke="#481BFF" stroke-width="0.0001" stroke-linecap="round" stroke-linejoin="round"/>
<path d="M61.4732 45.2404L60.0151 43.5758" stroke="#481BFF" stroke-width="0.0001" stroke-linecap="round" stroke-linejoin="round"/>
<path d="M99.9108 10.8932L99.8029 11.0689L99.6395 11.26L99.4577 11.4203L99.2049 11.5899L98.8689 11.7687L98.4342 11.9536L97.9133 12.1324L97.4416 12.2588L97.0285 12.3482L96.6 12.4191L96.3627 12.4468L96.6864 10.4709V10.4123L96.674 10.363L96.6525 10.3167L96.6247 10.2767L96.5877 10.2366L96.5384 10.1934L96.4798 10.1534L96.4058 10.1102L96.338 10.0763L96.2548 10.0393L96.1716 10.0054L96.0852 9.97764L96.0143 9.95298L95.9404 9.93449L95.8664 9.91907L95.7893 9.90674L95.7092 9.89749L95.6043 9.88825L95.4965 9.88208H95.3855L95.2714 9.88516L94.8861 9.90674L94.4484 9.9499L93.989 10.0085L94.3281 7.64099L92.3706 8.37158L92.2103 8.30684L92.0593 8.25444L91.9298 8.21745L91.7849 8.18046L91.6493 8.15271L91.526 8.13113L91.4027 8.11572L91.2917 8.10647L91.1684 8.10031L91.0328 8.09722H90.8971L90.7615 8.10339L90.6629 8.10955L90.555 8.12189L90.4224 8.14038L90.2806 8.16812L90.1296 8.20512L89.9693 8.25444L89.8244 8.30684L89.7072 8.35925L89.6363 8.39932L89.5685 8.44556L89.4884 8.51338L89.436 8.57195L89.4082 8.61203L89.3928 8.6521L89.3836 8.69834L89.1986 10.3691L88.915 10.3352L88.6622 10.2952L88.4094 10.2428L88.1597 10.1811L87.8792 10.0979L87.5679 9.98689L87.3613 9.90366L87.1579 9.81426L86.9298 9.69712L86.7479 9.58615L86.5907 9.47209L86.4674 9.36419L86.3533 9.24089L86.2639 9.1145L86.2053 8.98811L86.1745 8.86172L86.1714 8.73533L85.1665 20.2429L85.0031 20.3076L84.7935 22.7244L84.7287 22.6843L85.1387 17.8877V17.8045L85.1233 17.7213L85.0956 17.6442L85.0524 17.5671L85.0062 17.5024L84.9476 17.4407L84.8767 17.3791L84.7966 17.3205L84.7041 17.265L84.6054 17.2157L84.5006 17.1695L84.3897 17.1263L84.2694 17.0893L84.143 17.0554L83.9735 17.0184L83.8163 16.9907L83.6591 16.9722L83.5789 16.966L83.4864 16.9599L83.3169 16.9537L83.1319 16.9568L82.984 16.9629L82.8206 16.9753L82.688 16.9907L82.5586 17.0123L82.4353 17.04L82.3181 17.0739L82.2041 17.1109L80.598 17.712L80.4778 20.061L76.31 17.4932L76.1189 26.661L72.6078 28.156L72.6386 31.3713L68.403 27.9218L68.7174 35.2246L66.8309 36.0939L67.0775 40.2092L64.1644 37.3269L60.7426 38.9053L59.2136 37.2807L60.0151 43.5755L60.6471 44.2968L60.234 44.5588L62.8881 54.4018L85.4439 41.5132L86.0327 41.1803V41.1772L93.8472 36.7104L94.0599 36.6025L94.4329 36.3713L94.7227 36.1463L94.9447 35.9305L95.108 35.727L95.2591 35.4835L95.3608 35.2616L95.4317 35.0211L99.9786 10.699L99.9108 10.8932ZM70.2002 40.8535L70.1879 40.4281L72.3211 42.4626L70.3759 43.4768L68.5602 41.6796L70.2002 40.8535Z" fill="white" stroke="white" stroke-width="0.5" stroke-linecap="round" stroke-linejoin="round"/>
<path d="M99.9878 10.3971L99.9508 10.2707L99.8799 10.1196L99.7751 9.9686L99.6518 9.83604L99.5038 9.70965L99.3343 9.58635L99.1432 9.47229L98.9335 9.36131L98.6993 9.25959L98.4711 9.17019L98.2461 9.08696L97.9101 8.97906L97.6111 8.89583L97.3521 8.83726L97.0932 8.78794L96.8373 8.74786L96.4705 8.70162L96.1468 8.67388L95.7892 8.6523L95.4378 8.64614L95.0525 8.6523L94.5038 8.67696L93.9643 8.7232L93.3755 8.79719L91.8589 9.02222L91.3965 9.08387L90.9926 9.12703L90.595 9.15477L90.4655 9.15786H90.3607L90.259 9.15477L90.1788 9.14861L90.1017 9.13936L90.0278 9.12703L89.9569 9.11162L89.889 9.0962L89.8212 9.07771L89.7411 9.04996L89.6671 9.01914L89.6208 8.99756L89.5839 8.97598L89.5376 8.94824L89.4945 8.91741L89.4605 8.8835L89.4266 8.84651L89.4081 8.81568L89.3958 8.78794L89.3835 8.74478L89.3804 8.69854L89.3896 8.64922L89.4081 8.60915L89.4328 8.56907L89.4852 8.5105L89.5654 8.44576L89.6363 8.39952L89.7072 8.35945L89.8243 8.30704L89.9692 8.25156L90.1295 8.20532L90.2805 8.16833L90.4254 8.14058L90.5549 8.12209L90.6659 8.11284L90.7614 8.10359L90.8971 8.09742H91.0327L91.1683 8.10051L91.2916 8.10976L91.4026 8.119L91.5259 8.1375L91.6492 8.156L91.7849 8.18374L91.9298 8.22073L92.0592 8.25772L92.2134 8.31013L92.3706 8.37486L94.3281 7.64427L94.0814 7.54871L93.8533 7.46856L93.5327 7.36992L93.1967 7.28052L92.8515 7.20654L92.5617 7.15105L92.2997 7.11098L91.939 7.06474L91.5752 7.03083L91.2084 7.00925L90.9741 7.00308L90.7368 7L90.3668 7.00925L89.9661 7.03083L89.5284 7.07398L89.1276 7.12947L88.77 7.19729L88.3508 7.29285L87.9069 7.41924L87.5246 7.55488L87.1917 7.69668L86.9266 7.83232L86.7016 7.9772L86.5074 8.1375L86.3532 8.30088L86.2515 8.45193L86.1868 8.60606L86.1621 8.73245L86.1683 8.85884L86.1991 8.98523L86.2577 9.11162L86.3471 9.23801L86.4611 9.36131L86.5844 9.46921L86.7447 9.58326L86.9266 9.69424L87.1547 9.81138L87.3582 9.90078L87.5647 9.98401L87.8761 10.095L88.1597 10.1782L88.4094 10.2399L88.6591 10.2923L88.9149 10.3323L89.2787 10.3786L89.6393 10.4094L90 10.4279L90.3576 10.431L90.7121 10.4248L91.2731 10.3909L91.8249 10.3385L92.4291 10.2522L93.9766 10.0118L94.4483 9.9501L94.886 9.91002L95.2714 9.88536H95.3854H95.4964L95.6043 9.89153L95.706 9.89769L95.7862 9.91002L95.8632 9.92236L95.9403 9.93777L96.0143 9.95318L96.0852 9.97476L96.1715 10.0025L96.2547 10.0364L96.3379 10.0734L96.4058 10.1104L96.4797 10.1536L96.5352 10.1936L96.5846 10.2368L96.6216 10.2769L96.6493 10.3169L96.6709 10.3632L96.6832 10.4125L96.6863 10.4711L96.6801 10.5081L96.6678 10.5389L96.64 10.5944L96.5907 10.656L96.5106 10.7269L96.4458 10.7732L96.378 10.8132L96.2331 10.8872L96.0235 10.9735L95.9218 11.0105L95.8324 11.0352L95.6752 11.0784L95.5087 11.1092L95.3484 11.1308L95.2159 11.1462L95.0987 11.1554L94.9353 11.1616H94.772L94.6086 11.1554L94.5038 11.1493L94.399 11.1369L94.2232 11.1184L94.0506 11.0907L93.878 11.0568L93.767 11.029L93.656 11.0013L93.5112 10.955L93.3694 10.9057L93.2245 10.8441L91.0327 11.7134L91.3071 11.8336L91.5598 11.9353L91.9236 12.0586L92.3028 12.1696L92.7004 12.2683L93.0333 12.3361L93.3324 12.3885L93.7516 12.447L94.1801 12.4871L94.6147 12.5149L94.8953 12.5241H95.1727L95.6104 12.5118L96.0852 12.4779L96.6 12.4193L97.0285 12.3484L97.4415 12.259L97.9132 12.1326L98.4342 11.9538L98.8688 11.7689L99.2048 11.5932L99.4576 11.4205L99.6395 11.2602L99.8059 11.0691L99.9107 10.8934L99.9786 10.7023L100 10.5266L99.9878 10.3971Z" fill="black" stroke="black" stroke-width="0.5" stroke-linecap="round" stroke-linejoin="round"/>
<path d="M91.0327 11.7131L91.307 11.8334L91.5598 11.9351L91.9236 12.0584L92.3027 12.1694L92.7004 12.268L93.0333 12.3358L93.3323 12.3882L93.7516 12.4468L94.1801 12.4869L94.6147 12.5146L94.8952 12.5239H95.1727L95.6104 12.5116L96.0851 12.4776L96.5999 12.4191L97.0284 12.3482L97.4415 12.2588L97.9132 12.1324L98.4341 11.9536L98.8688 11.7686L99.2048 11.5929L99.4576 11.4203L99.6394 11.26L99.8059 11.0689L99.9107 10.8932L99.9785 10.702L100 10.5263L99.9878 10.3969L99.9508 10.2705L99.8799 10.1194L99.7751 9.96836L99.6518 9.83581L99.5038 9.70942L99.3343 9.58611L99.1431 9.47206L98.9335 9.36108L98.6992 9.25935L98.4711 9.16996L98.2461 9.08672L97.9101 8.97883L97.6111 8.8956L97.3521 8.83703L97.0932 8.78771L96.8373 8.74763L96.4705 8.70139L96.1468 8.67365L95.7892 8.65207L95.4378 8.64591L95.0525 8.65207L94.5037 8.67673L93.9643 8.72297L93.3755 8.79696L91.8588 9.01891L91.3964 9.08364L90.9926 9.1268L90.5949 9.15454L90.4655 9.15763H90.3607L90.2589 9.15454L90.1788 9.14838L90.1017 9.13913L90.0277 9.1268L89.9568 9.11139L89.889 9.09597L89.8212 9.07748L89.741 9.04973L89.6671 9.01891L89.6208 8.99733L89.5838 8.97575L89.5376 8.94801L89.4944 8.91718L89.4605 8.88327L89.4266 8.84628L89.4081 8.81545L89.3958 8.78771L89.3835 8.74455L89.3804 8.69831L89.3896 8.64899L89.4081 8.60891L89.4328 8.56884L89.4852 8.51027L89.5653 8.44553L89.6362 8.39929L89.7071 8.35922L89.8243 8.30681L89.9692 8.25133L90.1295 8.20509L90.2805 8.16809L90.4254 8.14035L90.5549 8.12185L90.6658 8.11261L90.7614 8.10336L90.897 8.09719H91.0327L91.1683 8.10028L91.2916 8.10952L91.4026 8.11877L91.5259 8.13727L91.6492 8.15576L91.7848 8.18351L91.9297 8.2205L92.0592 8.25749L92.2133 8.3099L92.3705 8.37463L94.328 7.64404" stroke="#481BFF" stroke-width="0.0001" stroke-linecap="round" stroke-linejoin="round"/>
<path d="M94.3281 7.64427L94.0814 7.54871L93.8533 7.46856L93.5327 7.36992L93.1967 7.28052L92.8515 7.20654L92.5617 7.15105L92.2997 7.11098L91.939 7.06474L91.5752 7.03083L91.2084 7.00925L90.9741 7.00308L90.7368 7L90.3668 7.00925L89.9661 7.03083L89.5284 7.07398L89.1276 7.12947L88.77 7.19729L88.3508 7.29285L87.9069 7.41924L87.5246 7.55488L87.1917 7.69668L86.9266 7.83232L86.7016 7.9772L86.5074 8.1375L86.3532 8.30088L86.2515 8.45193L86.1868 8.60606L86.1621 8.73245L86.1683 8.85884L86.1991 8.98523L86.2577 9.11162L86.3471 9.23801L86.4611 9.36131L86.5844 9.46921L86.7447 9.58326L86.9266 9.69424L87.1547 9.81138L87.3582 9.90078L87.5647 9.98401L87.8761 10.095L88.1597 10.1782L88.4094 10.2399L88.6591 10.2923L88.9149 10.3323L89.2787 10.3786L89.6393 10.4094L90 10.4279L90.3576 10.431L90.7121 10.4248L91.2731 10.3909L91.8249 10.3385L92.4291 10.2522L93.9766 10.0118L94.4483 9.9501L94.886 9.91002L95.2713 9.88536L95.3854 9.88228L95.4964 9.88536L95.6043 9.89153L95.706 9.89769L95.7862 9.91002L95.8632 9.92236L95.9403 9.93777L96.0143 9.95318L96.0852 9.97476L96.1715 10.0025L96.2547 10.0364L96.3379 10.0734L96.4058 10.1104L96.4797 10.1536L96.5352 10.1936L96.5846 10.2368L96.6215 10.2769L96.6493 10.3169L96.6709 10.3632L96.6832 10.4125L96.6863 10.4711L96.6801 10.5081L96.6678 10.5389L96.64 10.5944L96.5907 10.656L96.5106 10.7269L96.4458 10.7732L96.378 10.8132L96.2331 10.8872L96.0235 10.9735L95.9218 11.0105L95.8324 11.0352L95.6752 11.0784L95.5087 11.1092L95.3484 11.1308L95.2159 11.1462L95.0987 11.1554L94.9353 11.1616H94.772L94.6086 11.1554L94.5038 11.1462L94.399 11.1369L94.2232 11.1184L94.0506 11.0907L93.878 11.0568L93.767 11.029L93.656 11.0013L93.5112 10.955L93.3694 10.9057L93.2245 10.8441L91.0327 11.7134" stroke="#481BFF" stroke-width="0.0001" stroke-linecap="round" stroke-linejoin="round"/>
<path d="M88.3353 17.8756L88.3199 17.7554L88.2644 17.5673L88.1658 17.3608L88.0271 17.1573L87.9099 17.0217L87.7774 16.8922L87.5647 16.7165L87.3181 16.547L87.0129 16.3682L86.7694 16.2449L86.5443 16.1431L86.2206 16.0168L85.8815 15.9058L85.524 15.8071L85.2897 15.7516L85.0554 15.7023L84.6485 15.6314L84.2354 15.579L83.8162 15.5451L83.5356 15.5328L83.289 15.5266L82.9037 15.5328L82.4845 15.5574L82.0652 15.6006L81.8217 15.6345L81.6152 15.6684L81.2113 15.7516L80.8198 15.8565L80.4037 15.9921L76.2883 17.4841L85.638 23.2456L88.1504 22.1636L84.9876 20.3016L86.7169 19.5988L86.9636 19.4909L87.1886 19.3799L87.4876 19.2042L87.7188 19.0347L87.9099 18.8559L88.0117 18.7387L88.1011 18.6216L88.2182 18.4181L88.2922 18.2147L88.3261 18.0081L88.3353 17.8756ZM85.1263 17.9311L85.1171 17.9681L85.0862 18.0421L85.04 18.116L84.9722 18.1962L84.9228 18.2424L84.8674 18.2887L84.778 18.3472L84.6762 18.4027L84.5498 18.4582L82.9284 19.0932L80.5825 17.7122L82.1885 17.1111L82.3026 17.0741L82.4197 17.0402L82.543 17.0125L82.6725 16.9909L82.8051 16.9755L82.9684 16.9631L83.1164 16.957L83.3014 16.9539L83.4709 16.96L83.5634 16.9662L83.6435 16.9724L83.8008 16.9909L83.958 17.0186L84.1275 17.0556L84.2539 17.0895L84.3741 17.1265L84.4851 17.1697L84.5899 17.2159L84.6886 17.2652L84.781 17.3207L84.8612 17.3793L84.9321 17.4409L84.9907 17.5026L85.0369 17.5673L85.0801 17.6444L85.1078 17.7215L85.1232 17.8047V17.8879L85.1263 17.9311Z" fill="black" stroke="black" stroke-width="0.5" stroke-linecap="round" stroke-linejoin="round"/>
<path d="M76.2944 17.4903L80.4098 15.9983L80.8259 15.8627L81.2174 15.7579L81.6213 15.6746L81.8247 15.6407L82.0682 15.6068L82.4875 15.5637L82.9067 15.539L83.2921 15.5328L83.5356 15.539L83.8192 15.5513L84.2353 15.5852L84.6484 15.6376L85.0553 15.7085L85.2896 15.7548L85.5239 15.8103L85.8815 15.9089L86.2206 16.0199L86.5443 16.1463L86.7693 16.248L87.0159 16.3713L87.3211 16.5501L87.5646 16.7166L87.7773 16.8923L87.913 17.0248L88.027 17.1574L88.1657 17.3608L88.2644 17.5674L88.3199 17.7554L88.3353 17.8757L88.3384 18.0144L88.3045 18.2209L88.2305 18.4274L88.1133 18.6278L88.0239 18.745L87.9222 18.8621L87.728 19.0409L87.4968 19.2104L87.1978 19.3862L86.9727 19.4971L86.7261 19.605L84.9937 20.3079" stroke="#481BFF" stroke-width="0.0001" stroke-linecap="round" stroke-linejoin="round"/>
<path d="M84.9939 20.3079L88.1567 22.1698" stroke="#481BFF" stroke-width="0.0001" stroke-linecap="round" stroke-linejoin="round"/>
<path d="M88.1565 22.1698L85.6441 23.2518L76.2944 17.4904" stroke="#481BFF" stroke-width="0.0001" stroke-linecap="round" stroke-linejoin="round"/>
<path d="M80.5857 17.709L82.1918 17.1079L82.3027 17.0679L82.423 17.0339L82.5463 17.0093L82.6727 16.9846L82.8083 16.9692L82.9717 16.9569L83.1196 16.9507L83.3046 16.9476L83.4741 16.9538L83.5666 16.96L83.6437 16.9661L83.8009 16.9877L83.9581 17.0124L84.1307 17.0494L84.2571 17.0833L84.3774 17.1233L84.4914 17.1634L84.5962 17.2097L84.6918 17.259L84.7874 17.3176L84.8675 17.3761L84.9384 17.4347L84.997 17.4994L85.0432 17.5611L85.0864 17.6412L85.1172 17.7183L85.1326 17.8015V17.8848L85.1264 17.931L85.1172 17.968L85.0864 18.0451L85.0401 18.119L84.9754 18.1961L84.923 18.2454L84.8675 18.2886L84.7781 18.3472L84.6764 18.4026L84.55 18.455L82.9285 19.0901L80.5857 17.709Z" stroke="#481BFF" stroke-width="0.0001" stroke-linecap="round" stroke-linejoin="round"/>
<path d="M66.8309 36.0973L69.9998 34.6362L68.366 33.1935L59.2136 37.2811L60.7426 38.9056L64.1644 37.3273L70.3728 43.4772L73.1472 42.0314L66.8309 36.0973Z" fill="black" stroke="black" stroke-width="0.5" stroke-linecap="round" stroke-linejoin="round"/>
<path d="M59.2136 37.2811L68.366 33.1935" stroke="#481BFF" stroke-width="0.0001" stroke-linecap="round" stroke-linejoin="round"/>
<path d="M70.3725 43.477L64.1641 37.3271" stroke="#481BFF" stroke-width="0.0001" stroke-linecap="round" stroke-linejoin="round"/>
<path d="M66.8308 36.0972L73.1472 42.0313" stroke="#481BFF" stroke-width="0.0001" stroke-linecap="round" stroke-linejoin="round"/>
<path d="M60.7422 38.9055L64.1639 37.3271" stroke="#481BFF" stroke-width="0.0001" stroke-linecap="round" stroke-linejoin="round"/>
<path d="M66.8308 36.097L69.9998 34.6359" stroke="#481BFF" stroke-width="0.0001" stroke-linecap="round" stroke-linejoin="round"/>
<path d="M73.1469 42.0314L70.3726 43.4771" stroke="#481BFF" stroke-width="0.0001" stroke-linecap="round" stroke-linejoin="round"/>
<path d="M60.7426 38.9053L59.2136 37.2808" stroke="#481BFF" stroke-width="0.0001" stroke-linecap="round" stroke-linejoin="round"/>
<path d="M68.366 33.1935L69.9998 34.6362" stroke="#481BFF" stroke-width="0.0001" stroke-linecap="round" stroke-linejoin="round"/>
<path d="M65.7979 50.5361L65.7886 50.8259L65.7455 51.1218L65.6807 51.3684L65.5944 51.6212L65.4403 51.9634L65.2214 52.3333L64.9779 52.6755L64.6604 53.0485L64.349 53.3629L63.9575 53.6928L63.4766 54.0411L62.8878 54.4018L62.2189 54.747L61.6363 54.9967L61.1431 55.1694L60.6529 55.305L60.0795 55.4221L59.5678 55.49L59.1085 55.5115H58.8249L58.5444 55.493L58.1221 55.4437L57.7182 55.3605L57.3329 55.2464L57.0647 55.1447L56.778 55.0121L56.4482 54.8241L56.1461 54.6052L55.8748 54.3617L55.6929 54.1644L55.5049 53.9301" stroke="#481BFF" stroke-width="0.0001" stroke-linecap="round" stroke-linejoin="round"/>
<path d="M55.0268 51.3777L54.7524 51.3284L54.4134 51.2421L54.1852 51.165L53.9695 51.0633L53.7629 50.943L53.5379 50.7797L53.3067 50.5639L53.1587 50.4036L53.0231 50.2248L52.8782 49.9997L52.7796 49.787L52.7056 49.562" stroke="#481BFF" stroke-width="0.0001" stroke-linecap="round" stroke-linejoin="round"/>
<path d="M83.0483 29.4478L77.5735 32.0064L75.8102 30.6377L80.6654 28.4459L78.8805 27.179L74.0654 29.2844L72.6073 28.1531L77.7924 25.949L76.0938 24.7529L68.4026 27.9219L76.8521 34.8024L85.0366 30.8412L83.0483 29.4478Z" fill="black" stroke="black" stroke-width="0.5" stroke-linecap="round" stroke-linejoin="round"/>
<path d="M76.8521 34.8025L68.4026 27.922" stroke="#481BFF" stroke-width="0.0001" stroke-linecap="round" stroke-linejoin="round"/>
<path d="M85.0367 30.8411L76.8523 34.8023" stroke="#481BFF" stroke-width="0.0001" stroke-linecap="round" stroke-linejoin="round"/>
<path d="M68.4026 27.9219L76.0938 24.7529L77.7924 25.949" stroke="#481BFF" stroke-width="0.0001" stroke-linecap="round" stroke-linejoin="round"/>
<path d="M83.0488 29.448L77.574 32.0066" stroke="#481BFF" stroke-width="0.0001" stroke-linecap="round" stroke-linejoin="round"/>
<path d="M72.6077 28.1533L77.7927 25.9492" stroke="#481BFF" stroke-width="0.0001" stroke-linecap="round" stroke-linejoin="round"/>
<path d="M80.6657 28.4458L75.8105 30.6376" stroke="#481BFF" stroke-width="0.0001" stroke-linecap="round" stroke-linejoin="round"/>
<path d="M74.0654 29.2847L78.8805 27.1792L80.6654 28.4462" stroke="#481BFF" stroke-width="0.0001" stroke-linecap="round" stroke-linejoin="round"/>
<path d="M83.0486 29.448L85.0369 30.8414" stroke="#481BFF" stroke-width="0.0001" stroke-linecap="round" stroke-linejoin="round"/>
<path d="M77.5738 32.0064L75.8105 30.6377" stroke="#481BFF" stroke-width="0.0001" stroke-linecap="round" stroke-linejoin="round"/>
<path d="M74.0658 29.2847L72.6077 28.1533" stroke="#481BFF" stroke-width="0.0001" stroke-linecap="round" stroke-linejoin="round"/>
<path d="M65.5515 47.4134L65.5422 47.7032L65.496 47.996L65.4312 48.2427L65.3388 48.4923L65.1785 48.8314L64.9534 49.2014L64.6976 49.5405L64.3708 49.9135L64.0471 50.2248L63.6433 50.5546L63.1439 50.903L62.5366 51.2606L61.843 51.6058L61.2419 51.8524L60.7302 52.0251L60.2246 52.1607L59.6328 52.2778L59.0995 52.3426L58.6278 52.3672L58.335 52.3642L58.0452 52.3488L57.6075 52.2963L57.1913 52.2162L56.7936 52.1021L56.5193 52.0004L56.2233 51.8679L55.8843 51.6798L55.576 51.464L55.5328 51.427L55.8134 51.4363L56.1833 51.4209L56.7813 51.3561L57.3855 51.2513L58.0699 51.0849L59.8393 50.6194L60.3664 50.5022L60.8473 50.419L61.2604 50.3728L61.3775 50.3697H61.4885L61.5964 50.382L61.6951 50.3974L61.769 50.419L61.8369 50.4437L61.9047 50.4714L61.9663 50.5053L62.0218 50.5454L62.0896 50.6009L62.1482 50.6656L62.2037 50.7396L62.2438 50.8074L62.2869 50.8937L62.3116 50.9739L62.3301 51.0571L61.9725 47.9313L61.9571 47.8512L61.9293 47.771L61.8862 47.6847L61.843 47.6169L61.7875 47.5429L61.7259 47.4782L61.6581 47.4258L61.5995 47.3857L61.5378 47.3518L61.47 47.3209L61.396 47.2994L61.3221 47.2778L61.2203 47.2624L61.1094 47.25H60.9953L60.872 47.2531L60.4497 47.2994L59.9534 47.3795L59.4077 47.4967L57.5828 47.9621L56.8738 48.1255L56.248 48.2303L56.1093 48.2457V48.2365L56.1309 48.1533L56.1648 48.0639L56.211 47.9714L56.2603 47.8912L56.3158 47.8142L56.4145 47.7032L56.5501 47.5706L56.6549 47.4812L56.7597 47.4042L56.92 47.3024L57.1081 47.2007L57.3115 47.1052L57.4965 47.0343L57.6629 46.9818L57.8109 46.9479L57.9311 46.9264L58.0359 46.9109L58.1778 46.8986H58.3165L58.4521 46.9048L58.5723 46.9202L58.6771 46.9418L58.7912 46.9726L58.8991 47.0127L59.0162 47.0651L59.1365 47.136L59.2413 47.21L59.3553 47.3117L59.4694 47.435L62.0342 46.017L61.6889 42.9343L59.044 44.3369L58.9268 44.2136L58.8097 44.115L58.7018 44.041L58.5785 43.9732L58.4614 43.9208L58.3473 43.8807L58.2302 43.8499L58.1223 43.8283L57.999 43.8129L57.8572 43.8067H57.7154L57.5705 43.819L57.4626 43.8314L57.3393 43.853L57.1851 43.8899L57.0125 43.9393L56.8245 44.0102L56.6148 44.1057L56.4206 44.2044L56.2542 44.3061L56.1463 44.3832L56.0353 44.4726L55.8966 44.602L55.7949 44.713L55.7332 44.7901L55.6839 44.8671L55.6346 44.9596L55.6007 45.0521L55.576 45.1323L55.5698 45.1847L55.5637 45.2463L55.5667 45.3172L55.576 45.382L56.0692 48.2488L55.6315 48.2951L55.2523 48.3074L54.8793 48.2981L54.5156 48.2642L54.158 48.2026L53.8096 48.1163L53.5754 48.0392L53.3503 47.9375L53.1407 47.8203L52.9095 47.6569L52.6721 47.4442L52.5242 47.2809L52.3824 47.1082L52.2375 46.8832L52.1358 46.6705L52.0618 46.4486L52.706 49.562L52.78 49.7871L52.8787 49.9998L53.0236 50.2248L53.1592 50.4036L53.3072 50.5639L53.5384 50.7797L53.7634 50.9431L53.9699 51.0633L54.1857 51.165L54.4138 51.2421L54.7529 51.3284L55.0273 51.3777L55.5051 53.9301L55.6931 54.1644L55.875 54.3617L56.1463 54.6053L56.4484 54.8241L56.7782 55.0122L57.0649 55.1447L57.3331 55.2464L57.7184 55.3605L58.1223 55.4437L58.5446 55.4931L58.8251 55.5116H59.1087L59.568 55.49L60.0797 55.4222L60.6531 55.305L61.1433 55.1694L61.6365 54.9967L62.2191 54.7471L62.888 54.4018L63.4768 54.0411L63.9577 53.6928L64.3492 53.3629L64.6606 53.0485L64.9781 52.6755L65.2216 52.3333L65.4405 51.9634L65.5946 51.6212L65.6809 51.3685L65.7457 51.1219L65.7888 50.8259L65.7981 50.5361L65.5515 47.4134Z" fill="white"/>
<path d="M54.9165 50.7892L55.0275 51.378L55.5053 53.9304L55.6933 54.1647L55.8752 54.362L56.1465 54.6055L56.4486 54.8244L56.7784 55.0125L57.0651 55.145L57.3333 55.2467L57.7186 55.3608L58.1225 55.444L58.5448 55.4933L58.8253 55.5118H59.1089L59.5682 55.4903L60.0799 55.4224L60.6533 55.3053L61.1435 55.1697L61.6367 54.997L62.2193 54.7473L62.8882 54.4021L63.477 54.0414L63.9579 53.6931L64.3494 53.3632L64.6608 53.0488L64.9783 52.6758L65.2218 52.3336L65.4407 51.9637L65.5948 51.6215L65.6811 51.3688L65.7459 51.1221L65.789 50.8262L65.7983 50.5364L65.5517 47.4137L65.527 47.1579L65.4746 46.9112L65.3944 46.677L65.2866 46.4519L65.1509 46.2423L64.9875 46.0419L64.8211 45.8693L64.6484 45.7121L64.3833 45.5025L64.1336 45.3453L63.9117 45.2281L63.6805 45.1325L63.44 45.0555L63.0917 44.9723L62.7742 44.9168L62.4135 44.8767L62.0498 44.8613L61.9049 44.8644L61.6398 44.8705L61.0417 44.9229L60.4375 45.0123L59.7563 45.1541L59.1767 45.2928L57.9807 45.5826L57.4412 45.7028L56.9819 45.7861L56.5411 45.8416L56.3993 45.8508L56.2914 45.8477L56.1866 45.8385L56.1095 45.8261L56.0386 45.8107L55.9677 45.7861L55.906 45.7614L55.8475 45.7275L55.792 45.6905L55.7303 45.6381L55.6748 45.5795L55.644 45.5364L55.6224 45.4994L55.5947 45.4408L55.5762 45.3822L55.5669 45.3175L55.5639 45.2466L55.57 45.185L55.5762 45.1325L55.6009 45.0524L55.6348 44.9599L55.6841 44.8674L55.7334 44.7904L55.7951 44.7133L55.8968 44.6023L56.0355 44.4729L56.1465 44.3835L56.2544 44.3064L56.4208 44.2047L56.615 44.106L56.8247 44.0105L57.0127 43.9396L57.1853 43.8902L57.3395 43.8532L57.4628 43.8317L57.5707 43.8193L57.7156 43.807H57.8574L57.9992 43.8132L58.1225 43.8286L58.2304 43.8502L58.3475 43.881L58.4616 43.9211L58.5787 43.9735L58.702 44.0413L58.8099 44.1153L58.927 44.2139L59.0442 44.3372L59.1767 45.2928" stroke="#481BFF" stroke-width="0.0001" stroke-linecap="round" stroke-linejoin="round"/>
<path d="M65.5517 47.4133L65.5424 47.7031L65.4962 47.996L65.4314 48.2426L65.339 48.4923L65.1787 48.8314L64.9536 49.2013L64.6978 49.5404L64.371 49.9134L64.0473 50.2247L63.6435 50.5546L63.1441 50.9029L62.5368 51.2605L61.8432 51.6057L61.2421 51.8524L60.7304 52.025L60.2248 52.1606L59.633 52.2778L59.0997 52.3425L58.628 52.3672L58.3352 52.3641L58.0454 52.3487L57.6077 52.2963L57.1915 52.2161L56.7938 52.102L56.5195 52.0003L56.2235 51.8678L55.8845 51.6797L55.5762 51.4639L55.2957 51.2204L55.1076 51.0262L54.9165 50.7888" stroke="#481BFF" stroke-width="0.0001" stroke-linecap="round" stroke-linejoin="round"/>
<path d="M55.0273 51.378L54.7529 51.3287L54.4138 51.2424L54.1857 51.1653L53.9699 51.0636L53.7634 50.9434L53.5384 50.78L53.3072 50.5642L53.1592 50.4039L53.0236 50.2251L52.8787 50.0001L52.78 49.7874L52.706 49.5623L52.1358 46.7972L52.0864 46.5691L52.0618 46.4489" stroke="#481BFF" stroke-width="0.0001" stroke-linecap="round" stroke-linejoin="round"/>
<path d="M57.9372 49.1089L58.042 49.2261L58.1499 49.3247L58.267 49.411L58.3595 49.4665L58.4551 49.5159L58.6092 49.5837L58.7695 49.6361L58.9391 49.6761L59.0408 49.6946L59.1456 49.707L59.3121 49.7193H59.4878L59.6635 49.707L59.796 49.6916L59.9471 49.6638L60.132 49.6207L60.3324 49.5559L60.5359 49.4789L60.6499 49.4265L60.7856 49.3586L61.0784 49.1922L61.2911 49.0473L61.3928 48.9702L61.4977 48.8808L61.6395 48.7421L61.7412 48.6219L61.8183 48.514L61.8552 48.4523L61.8892 48.3845L61.9385 48.2705L61.9631 48.1749L61.9785 48.0855L61.9816 48.0084L61.9724 47.9314L61.957 47.8512L61.9292 47.7711L61.8861 47.6848L61.8429 47.6169L61.7874 47.543L61.7258 47.4782L61.658 47.4258L61.5994 47.3857L61.5377 47.3518L61.4699 47.321L61.3959 47.2994L61.3219 47.2778L61.2202 47.2624L61.1092 47.2501H60.9952L60.8719 47.2532L60.4496 47.2994L59.9532 47.3796L59.4076 47.4967L57.5827 47.9622L56.8737 48.1256L56.2479 48.2304L55.6314 48.2951L55.2522 48.3074L54.8792 48.2982L54.5154 48.2643L54.1579 48.2026L53.8095 48.1163L53.5752 48.0393L53.3502 47.9375L53.1406 47.8204L52.9094 47.657L52.672 47.4443L52.5241 47.2809L52.3822 47.1083L52.2374 46.8833L52.1356 46.6706L52.0617 46.4486L52.0216 46.239L52 46.0016L52.0123 45.7581L52.0524 45.5146L52.1233 45.271L52.222 45.0275L52.3514 44.7809L52.5425 44.488L52.7737 44.1983L53.0666 43.8838L53.4057 43.5756L53.7571 43.2951L54.1486 43.033L54.6141 42.7587L55.1258 42.5028L55.693 42.2593L56.2109 42.0712L56.6456 41.9449L57.108 41.837L57.6012 41.7568L58.042 41.7137L58.4366 41.6982L58.6832 41.7013L58.9236 41.7167L59.2936 41.7568L59.6481 41.8215L59.9902 41.9079L60.2307 41.988L60.4927 42.0897L60.7948 42.2377L61.0753 42.4073L61.3343 42.5953L61.5069 42.7494L61.6888 42.9344L61.9046 44.8641" stroke="#481BFF" stroke-width="0.0001" stroke-linecap="round" stroke-linejoin="round"/>
<path d="M65.5267 47.1576L65.4743 46.911L65.3941 46.6767L65.2862 46.4517L65.1506 46.2421L64.9872 46.0417L64.8208 45.8691L64.6481 45.7119L64.383 45.5022L64.1333 45.345L63.9114 45.2279L63.6802 45.1323L63.4397 45.0552L63.0914 44.972L62.7739 44.9165L62.4132 44.8765L62.0495 44.861L61.6395 44.8703L61.0414 44.9227L60.4372 45.0121L59.756 45.1539L57.9803 45.5824L57.4409 45.7026L56.9816 45.7858L56.5407 45.8413L56.3989 45.8506L56.2911 45.8475L56.1862 45.8382L56.1092 45.8259L56.0383 45.8105L55.9674 45.7858L55.9057 45.7612L55.8472 45.7273L55.7917 45.6903L55.73 45.6379L55.6745 45.5793L55.6437 45.5361L55.6221 45.4992L55.5944 45.4406L55.5759 45.382L55.5666 45.3173L55.5635 45.2464L55.5697 45.1847L55.5759 45.1323L55.6005 45.0522L55.6344 44.9597L55.6838 44.8672L55.7331 44.7901L55.7947 44.7131L55.8965 44.6021L56.0352 44.4726L56.1462 44.3832L56.2541 44.3062L56.4205 44.2044L56.6147 44.1058L56.8244 44.0102L57.0124 43.9393L57.185 43.89L57.3392 43.853L57.4625 43.8314L57.5704 43.8191L57.7152 43.8068H57.857L57.9988 43.8129L58.1221 43.8284L58.23 43.8499L58.3472 43.8808L58.4612 43.9208L58.5784 43.9732L58.7017 44.0411L58.8096 44.115L58.9267 44.2137L59.0439 44.337L61.6888 42.9344L61.5069 42.7494L61.3343 42.5953L61.0753 42.4073L60.7948 42.2377L60.4927 42.0897L60.2307 41.988L59.9902 41.9079L59.6481 41.8215L59.2936 41.7568L58.9236 41.7167L58.6832 41.7013L58.4366 41.6982L58.042 41.7137L57.6012 41.7568L57.108 41.837L56.6456 41.9449L56.2109 42.0712L55.693 42.2593L55.1258 42.5028L54.6141 42.7587L54.1486 43.033L53.7571 43.2951L53.4057 43.5756L53.0666 43.8838L52.7737 44.1983L52.5425 44.488L52.3514 44.7809L52.222 45.0275L52.1233 45.271L52.0524 45.5146L52.0123 45.7581L52 46.0016L52.0216 46.239L52.0617 46.4486L52.1356 46.6706L52.2374 46.8833L52.3822 47.1083L52.5241 47.2809L52.672 47.4443L52.9094 47.657L53.1406 47.8204L53.3502 47.9375L53.5752 48.0393L53.8095 48.1163L54.1579 48.2026L54.5154 48.2643L54.8792 48.2982L55.2522 48.3074L55.6314 48.2951L56.2479 48.2304L56.8737 48.1256L57.5827 47.9622L59.4076 47.4967L59.9532 47.3796L60.4496 47.2994L60.8719 47.2532L60.9952 47.2501H61.1092L61.2202 47.2624L61.3219 47.2778L61.3959 47.2994L61.4699 47.321L61.5377 47.3518L61.5994 47.3857L61.658 47.4258L61.7258 47.4782L61.7874 47.543L61.8429 47.6169L61.8861 47.6848L61.9292 47.7711L61.957 47.8512L61.9724 47.9314L61.9816 48.0084L61.9785 48.0855L61.9631 48.1749L61.9385 48.2705L61.8892 48.3845L61.8552 48.4523L61.8183 48.514L61.7412 48.6219L61.6395 48.7421L61.4977 48.8808L61.3928 48.9702L61.2911 49.0473L61.0784 49.1922L60.7856 49.3586L60.6499 49.4265L60.5359 49.4789L60.3324 49.5559L60.132 49.6207L59.9471 49.6638L59.796 49.6916L59.6635 49.707L59.4878 49.7193H59.3121L59.1456 49.707L59.0408 49.6946L58.9391 49.6761L58.7695 49.6361L58.6092 49.5837L58.4551 49.5159L58.3595 49.4665L58.267 49.411L58.1499 49.3247L58.042 49.2261L57.9372 49.1089L54.9162 50.789L55.1073 51.0264L55.2954 51.2206L55.5759 51.4641L55.8841 51.6799L56.2232 51.8679L56.5192 52.0005L56.7935 52.1022L57.1912 52.2163L57.6073 52.2964L58.0451 52.3488L58.3349 52.3642L58.6277 52.3673L59.0994 52.3426L59.6327 52.2779L60.2245 52.1608L60.7301 52.0251L61.2418 51.8525L61.8429 51.6059L62.5365 51.2606L63.1438 50.903L63.6432 50.5547L64.047 50.2249L64.3707 49.9135L64.6974 49.5405L64.9533 49.2014L65.1783 48.8315L65.3386 48.4924L65.4311 48.2427L65.4959 47.9961L65.5421 47.7032L65.5513 47.4135L65.5267 47.1576Z" fill="black" stroke="black" stroke-width="0.5" stroke-linecap="round" stroke-linejoin="round"/>
<path d="M57.9375 49.109L54.9165 50.7891" stroke="#481BFF" stroke-width="0.0001" stroke-linecap="round" stroke-linejoin="round"/>
<path d="M59.0439 44.3369L61.6889 42.9343" stroke="#481BFF" stroke-width="0.0001" stroke-linecap="round" stroke-linejoin="round"/>
<path d="M54.9165 50.7892L55.1076 51.0266L55.2957 51.2208L55.5762 51.4643L55.8845 51.6801L56.2235 51.8681L56.5195 52.0007L56.7938 52.1024L57.1915 52.2165L57.6077 52.2966L58.0454 52.349L58.3352 52.3645L58.628 52.3675L59.0997 52.3429L59.633 52.2781L60.2248 52.161L60.7304 52.0254L61.2421 51.8527L61.8432 51.6061L62.5368 51.2609L63.1441 50.9033L63.6435 50.5549L64.0473 50.2251L64.371 49.9137L64.6978 49.5407L64.9536 49.2017L65.1787 48.8317L65.339 48.4926L65.4314 48.2429L65.4962 47.9963L65.5424 47.7035L65.5517 47.4137L65.527 47.1579L65.4746 46.9112L65.3944 46.677L65.2866 46.4519L65.1509 46.2423L64.9875 46.0419L64.8211 45.8693L64.6484 45.7121L64.3833 45.5025L64.1336 45.3453L63.9117 45.2281L63.6805 45.1325L63.44 45.0555L63.0917 44.9723L62.7742 44.9168L62.4135 44.8767L62.0498 44.8613L61.6398 44.8705L61.0417 44.9229L60.4375 45.0123L59.7563 45.1541L57.9807 45.5826L57.4412 45.7028L56.9819 45.7861L56.5411 45.8416L56.3993 45.8508L56.2914 45.8477L56.1866 45.8385L56.1095 45.8261L56.0386 45.8107L55.9677 45.7861L55.906 45.7614L55.8475 45.7275L55.792 45.6905L55.7303 45.6381L55.6748 45.5795L55.644 45.5364L55.6224 45.4994L55.5947 45.4408L55.5762 45.3822L55.5669 45.3175L55.5639 45.2466L55.57 45.185L55.5762 45.1325L55.6009 45.0524L55.6348 44.9599L55.6841 44.8674L55.7334 44.7904L55.7951 44.7133L55.8968 44.6023L56.0355 44.4729L56.1465 44.3835L56.2544 44.3064L56.4208 44.2047L56.615 44.106L56.8247 44.0105L57.0127 43.9396L57.1853 43.8902L57.3395 43.8532L57.4628 43.8317L57.5707 43.8193L57.7156 43.807H57.8574L57.9992 43.8132L58.1225 43.8286L58.2304 43.8502L58.3475 43.881L58.4616 43.9211L58.5787 43.9735L58.702 44.0413L58.8099 44.1153L58.927 44.2139L59.0442 44.3372" stroke="#481BFF" stroke-width="0.0001" stroke-linecap="round" stroke-linejoin="round"/>
<path d="M61.6888 42.9344L61.5069 42.7494L61.3343 42.5953L61.0753 42.4073L60.7948 42.2377L60.4927 42.0897L60.2307 41.988L59.9902 41.9079L59.6481 41.8215L59.2936 41.7568L58.9236 41.7167L58.6832 41.7013L58.4366 41.6982L58.042 41.7137L57.6012 41.7568L57.108 41.837L56.6456 41.9449L56.2109 42.0712L55.693 42.2593L55.1258 42.5028L54.6141 42.7587L54.1486 43.033L53.7571 43.2951L53.4057 43.5756L53.0666 43.8838L52.7737 44.1983L52.5425 44.488L52.3514 44.7809L52.222 45.0275L52.1233 45.271L52.0524 45.5146L52.0123 45.7581L52 46.0016L52.0216 46.239L52.0617 46.4486L52.1356 46.6706L52.2374 46.8833L52.3822 47.1083L52.5241 47.2809L52.672 47.4443L52.9094 47.657L53.1406 47.8204L53.3502 47.9375L53.5752 48.0393L53.8095 48.1163L54.1579 48.2026L54.5154 48.2643L54.8792 48.2982L55.2522 48.3074L55.6314 48.2951L56.2479 48.2304L56.8737 48.1256L57.5827 47.9622L59.4076 47.4967L59.9532 47.3796L60.4496 47.2994L60.8719 47.2532L60.9952 47.2501H61.1092L61.2202 47.2624L61.3219 47.2778L61.3959 47.2994L61.4699 47.321L61.5377 47.3518L61.5994 47.3857L61.658 47.4258L61.7258 47.4782L61.7874 47.543L61.8429 47.6169L61.8861 47.6848L61.9292 47.7711L61.957 47.8512L61.9724 47.9314L61.9816 48.0084L61.9785 48.0855L61.9631 48.1749L61.9385 48.2705L61.8892 48.3845L61.8552 48.4523L61.8183 48.514L61.7412 48.6219L61.6395 48.7421L61.4977 48.8808L61.3928 48.9702L61.2911 49.0473L61.0784 49.1922L60.7856 49.3586L60.6499 49.4265L60.5359 49.4789L60.3324 49.5559L60.132 49.6207L59.9471 49.6638L59.796 49.6916L59.6635 49.707L59.4878 49.7193H59.3121L59.1456 49.707L59.0408 49.6946L58.9391 49.6761L58.7695 49.6361L58.6092 49.5837L58.4551 49.5159L58.3595 49.4665L58.267 49.411L58.1499 49.3247L58.042 49.2261L57.9372 49.1089" stroke="#481BFF" stroke-width="0.0001" stroke-linecap="round" stroke-linejoin="round"/>
</svg>
