<svg xmlns="http://www.w3.org/2000/svg" width="295.82" height="363.845" viewBox="0 0 295.82 363.845">
  <g id="Gruppe_245" data-name="Gruppe 245" transform="translate(-1723 1999.416)">
    <path id="Pfad_267" data-name="Pfad 267" d="M81.753,1.152C2.047,226.976,318.708,210.508,177.018,365c-1.529-28.209-24.319-36.482-67.3-52.828C11.059,269.144-62.493,213.537,81.753,1.152" transform="translate(1722.135 -2000.568)" fill="#d6150c"/>
    <path id="Pfad_268" data-name="Pfad 268" d="M135.689,51.965c106.589,103.68,51.6,184.517,44.457,188.015-9.9-4.824-41.752-34.882-47.408-46.4-1.281-5.292,49.181-59.495,2.951-141.614" transform="translate(1795.512 -1972.289)" fill="#d6150c"/>
    <path id="Pfad_269" data-name="Pfad 269" d="M186.286,228.379c-3.4-16.591-6.8-36.04-11.174-48.347,15.162,11.718,40.318,31.309,11.174,48.347" transform="translate(1819.108 -1901.018)" fill="#d6150c"/>
    <path id="Pfad_270" data-name="Pfad 270" d="M202.79,238.466c-8.268-5.119-43.421-32.735-58.486-46.667,8.519,58.682,34.167,62.275,58.486,46.667" transform="translate(1801.962 -1894.469)" fill="#d6150c"/>
  </g>
</svg>
