<svg height="363.845" viewBox="0 0 295.82 363.845" width="295.82" xmlns="http://www.w3.org/2000/svg"><g fill="#d6150c"><path d="m81.753 1.152c-79.706 225.824 236.955 209.356 95.265 363.848-1.529-28.209-24.319-36.482-67.3-52.828-98.659-43.028-172.211-98.635-27.965-311.02" transform="translate(-.865 -1.152)"/><path d="m135.689 51.965c106.589 103.68 51.6 184.517 44.457 188.015-9.9-4.824-41.752-34.882-47.408-46.4-1.281-5.292 49.181-59.495 2.951-141.614" transform="translate(72.512 27.127)"/><path d="m186.286 228.379c-3.4-16.591-6.8-36.04-11.174-48.347 15.162 11.718 40.318 31.309 11.174 48.347" transform="translate(96.108 98.398)"/><path d="m202.79 238.466c-8.268-5.119-43.421-32.735-58.486-46.667 8.519 58.682 34.167 62.275 58.486 46.667" transform="translate(78.962 104.947)"/></g></svg>