<svg width="101" height="56" viewBox="0 0 101 56" fill="none" xmlns="http://www.w3.org/2000/svg">
<path d="M0 8.79175L79.7639 0L73.1307 43.146L6.14147 37.5037L0 8.79175Z" fill="#481BFF"/>
<path d="M18.9943 28.0331C21.5802 28.0331 23.0456 26.5678 23.0456 24.8439C23.0456 20.8788 17.7014 21.827 17.7014 20.2755C17.7014 19.7583 18.2186 19.2411 18.9943 19.2411C19.8563 19.2411 20.3735 19.7583 20.3735 20.6202L22.787 20.4479C22.787 18.4653 21.3216 17 18.9943 17C16.5808 17 15.1155 18.4653 15.1155 20.1031C15.1155 23.9819 20.4597 23.0337 20.4597 24.6715C20.4597 25.2749 19.9425 25.792 18.9943 25.792C17.96 25.792 17.4428 25.2749 17.4428 24.3267L15.0293 24.4991C15.0293 26.5678 16.4946 28.0331 18.9943 28.0331Z" fill="white"/>
<path d="M28.3143 27.9469H30.814V19.4997H33.9171V17.0862H25.2112V19.4997H28.3143V27.9469Z" fill="white"/>
<path d="M34.9575 27.9469H37.5434L38.233 25.8782H42.0256L42.7152 27.9469H45.3011L41.4222 17.0862H38.8363L34.9575 27.9469ZM38.9225 23.7233L40.1293 20.1031L41.336 23.7233H38.9225Z" fill="white"/>
<path d="M47.8843 27.9469H50.384V24.3267H51.6769L53.6594 27.9469H56.4177L54.0042 23.8095C54.0215 23.8095 56.0729 22.9476 56.0729 20.5341C56.0729 18.6377 54.5214 17.0862 52.2803 17.0862H47.8843V27.9469ZM50.384 21.9132V19.4997H52.2803C53.1423 19.4997 53.6594 20.0169 53.6594 20.7064C53.6594 21.396 53.1423 21.9132 52.2803 21.9132H50.384Z" fill="white"/>
<path d="M61.4265 27.9469H63.9262V19.4997H67.0293V17.0862H58.3235V19.4997H61.4265V27.9469Z" fill="white"/>
<path d="M88.1875 34.6363L87.7837 34.6733L87.4908 34.6825L87.1949 34.6764L86.8989 34.6517L86.5999 34.6116L86.3009 34.5562L86.0913 34.5038L85.8847 34.439L85.6813 34.3589L85.4532 34.2541L85.1973 34.1123L85.0308 34.0074L84.8644 33.8903L84.6825 33.7423L84.5345 33.6005L84.4082 33.4557L84.3095 33.3169L84.2201 33.1597L84.1523 32.9963L84.106 32.836L84.0845 32.6727L84.0876 32.5093" stroke="#481BFF" stroke-width="0.0001" stroke-linecap="round" stroke-linejoin="round"/>
<path d="M95.4312 35.0244L95.3603 35.2649L95.2555 35.4899L95.1045 35.7303L94.9411 35.9338L94.7191 36.1496L94.4294 36.3715L94.0564 36.6058L93.6156 36.8278L93.2179 36.9881L92.8696 37.099L92.5151 37.1854L92.0896 37.2624L91.6951 37.3025L91.3344 37.3179H91.1063L90.8782 37.3087L90.5237 37.2748L90.1753 37.2223L89.8331 37.1484L89.5896 37.0836L89.3183 36.9973L89.0008 36.8771L88.6926 36.7353L88.4028 36.5781L88.1993 36.4517L87.9805 36.3006" stroke="#481BFF" stroke-width="0.0001" stroke-linecap="round" stroke-linejoin="round"/>
<path d="M83.8591 42.4071L75.9429 35.7979" stroke="#481BFF" stroke-width="0.0001" stroke-linecap="round" stroke-linejoin="round"/>
<path d="M86.0296 41.1836L83.8594 42.4074" stroke="#481BFF" stroke-width="0.0001" stroke-linecap="round" stroke-linejoin="round"/>
<path d="M76.5377 46.4885L68.8896 39.1919" stroke="#481BFF" stroke-width="0.0001" stroke-linecap="round" stroke-linejoin="round"/>
<path d="M83.958 42.3057L76.5381 46.4888" stroke="#481BFF" stroke-width="0.0001" stroke-linecap="round" stroke-linejoin="round"/>
<path d="M70.5731 49.9107L64.6914 43.6221" stroke="#481BFF" stroke-width="0.0001" stroke-linecap="round" stroke-linejoin="round"/>
<path d="M61.4727 45.2405L64.6909 43.6221" stroke="#481BFF" stroke-width="0.0001" stroke-linecap="round" stroke-linejoin="round"/>
<path d="M73.1812 48.437L70.5732 49.9105" stroke="#481BFF" stroke-width="0.0001" stroke-linecap="round" stroke-linejoin="round"/>
<path d="M61.4732 45.2403L60.0151 43.5757" stroke="#481BFF" stroke-width="0.0001" stroke-linecap="round" stroke-linejoin="round"/>
<path d="M99.9111 10.8933L99.8032 11.069L99.6398 11.2601L99.4579 11.4204L99.2051 11.59L98.8691 11.7688L98.4345 11.9537L97.9135 12.1325L97.4419 12.2589L97.0288 12.3483L96.6003 12.4192L96.3629 12.447L96.6866 10.471V10.4124L96.6743 10.3631L96.6527 10.3169L96.625 10.2768L96.588 10.2367L96.5386 10.1936L96.4801 10.1535L96.4061 10.1103L96.3383 10.0764L96.255 10.0394L96.1718 10.0055L96.0855 9.97776L96.0146 9.9531L95.9406 9.93461L95.8666 9.91919L95.7896 9.90686L95.7094 9.89762L95.6046 9.88837L95.4967 9.8822H95.3857L95.2717 9.88528L94.8863 9.90686L94.4486 9.95002L93.9893 10.0086L94.3284 7.64111L92.3709 8.3717L92.2106 8.30697L92.0595 8.25456L91.9301 8.21757L91.7852 8.18058L91.6496 8.15283L91.5262 8.13126L91.4029 8.11584L91.292 8.10659L91.1687 8.10043L91.033 8.09735H90.8974L90.7617 8.10351L90.6631 8.10968L90.5552 8.12201L90.4226 8.1405L90.2808 8.16825L90.1298 8.20524L89.9695 8.25456L89.8246 8.30697L89.7075 8.35937L89.6366 8.39945L89.5688 8.44569L89.4886 8.5135L89.4362 8.57207L89.4085 8.61215L89.393 8.65222L89.3838 8.69846L89.1988 10.3693L88.9152 10.3354L88.6625 10.2953L88.4097 10.2429L88.16 10.1812L87.8795 10.098L87.5681 9.98701L87.3616 9.90378L87.1581 9.81438L86.93 9.69724L86.7481 9.58627L86.5909 9.47221L86.4676 9.36432L86.3535 9.24101L86.2642 9.11462L86.2056 8.98823L86.1748 8.86184L86.1717 8.73546L85.1667 20.243L85.0033 20.3077L84.7937 22.7245L84.729 22.6845L85.139 17.8879V17.8046L85.1236 17.7214L85.0958 17.6443L85.0527 17.5673L85.0064 17.5025L84.9479 17.4409L84.877 17.3792L84.7968 17.3206L84.7043 17.2652L84.6057 17.2158L84.5009 17.1696L84.3899 17.1264L84.2697 17.0894L84.1433 17.0555L83.9737 17.0185L83.8165 16.9908L83.6593 16.9723L83.5792 16.9661L83.4867 16.96L83.3171 16.9538L83.1322 16.9569L82.9842 16.9631L82.8208 16.9754L82.6883 16.9908L82.5588 17.0124L82.4355 17.0401L82.3184 17.074L82.2043 17.111L80.5982 17.7121L80.478 20.0611L76.3103 17.4933L76.1191 26.6611L72.608 28.1562L72.6388 31.3714L68.4033 27.9219L68.7177 35.2247L66.8311 36.094L67.0777 40.2093L64.1646 37.3271L60.7429 38.9054L59.2139 37.2808L60.0154 43.5756L60.6473 44.2969L60.2342 44.559L62.8884 54.4019L85.4442 41.5133L86.033 41.1804V41.1773L93.8475 36.7105L94.0602 36.6026L94.4332 36.3714L94.723 36.1464L94.9449 35.9306L95.1083 35.7272L95.2593 35.4836L95.3611 35.2617L95.432 35.0212L99.9789 10.6991L99.9111 10.8933ZM70.2004 40.8536L70.1881 40.4282L72.3213 42.4628L70.3762 43.477L68.5605 41.6798L70.2004 40.8536Z" fill="black" stroke="black" stroke-width="0.5" stroke-linecap="round" stroke-linejoin="round"/>
<path d="M99.9878 10.3971L99.9508 10.2707L99.8799 10.1196L99.7751 9.9686L99.6518 9.83604L99.5038 9.70965L99.3343 9.58635L99.1432 9.47229L98.9335 9.36131L98.6993 9.25959L98.4711 9.17019L98.2461 9.08696L97.9101 8.97906L97.6111 8.89583L97.3521 8.83726L97.0932 8.78794L96.8373 8.74786L96.4705 8.70162L96.1468 8.67388L95.7892 8.6523L95.4378 8.64614L95.0525 8.6523L94.5038 8.67696L93.9643 8.7232L93.3755 8.79719L91.8589 9.02222L91.3965 9.08387L90.9926 9.12703L90.595 9.15477L90.4655 9.15786H90.3607L90.259 9.15477L90.1788 9.14861L90.1017 9.13936L90.0278 9.12703L89.9569 9.11162L89.889 9.0962L89.8212 9.07771L89.7411 9.04996L89.6671 9.01914L89.6208 8.99756L89.5839 8.97598L89.5376 8.94824L89.4945 8.91741L89.4605 8.8835L89.4266 8.84651L89.4081 8.81568L89.3958 8.78794L89.3835 8.74478L89.3804 8.69854L89.3896 8.64922L89.4081 8.60915L89.4328 8.56907L89.4852 8.5105L89.5654 8.44576L89.6363 8.39952L89.7072 8.35945L89.8243 8.30704L89.9692 8.25156L90.1295 8.20532L90.2805 8.16833L90.4254 8.14058L90.5549 8.12209L90.6659 8.11284L90.7614 8.10359L90.8971 8.09742H91.0327L91.1683 8.10051L91.2916 8.10976L91.4026 8.119L91.5259 8.1375L91.6492 8.156L91.7849 8.18374L91.9298 8.22073L92.0592 8.25772L92.2134 8.31013L92.3706 8.37486L94.3281 7.64427L94.0814 7.54871L93.8533 7.46856L93.5327 7.36992L93.1967 7.28052L92.8515 7.20654L92.5617 7.15105L92.2997 7.11098L91.939 7.06474L91.5752 7.03083L91.2084 7.00925L90.9741 7.00308L90.7368 7L90.3668 7.00925L89.9661 7.03083L89.5284 7.07398L89.1276 7.12947L88.77 7.19729L88.3508 7.29285L87.9069 7.41924L87.5246 7.55488L87.1917 7.69668L86.9266 7.83232L86.7016 7.9772L86.5074 8.1375L86.3532 8.30088L86.2515 8.45193L86.1868 8.60606L86.1621 8.73245L86.1683 8.85884L86.1991 8.98523L86.2577 9.11162L86.3471 9.23801L86.4611 9.36131L86.5844 9.46921L86.7447 9.58326L86.9266 9.69424L87.1547 9.81138L87.3582 9.90078L87.5647 9.98401L87.8761 10.095L88.1597 10.1782L88.4094 10.2399L88.6591 10.2923L88.9149 10.3323L89.2787 10.3786L89.6393 10.4094L90 10.4279L90.3576 10.431L90.7121 10.4248L91.2731 10.3909L91.8249 10.3385L92.4291 10.2522L93.9766 10.0118L94.4483 9.9501L94.886 9.91002L95.2714 9.88536H95.3854H95.4964L95.6043 9.89153L95.706 9.89769L95.7862 9.91002L95.8632 9.92236L95.9403 9.93777L96.0143 9.95318L96.0852 9.97476L96.1715 10.0025L96.2547 10.0364L96.3379 10.0734L96.4058 10.1104L96.4797 10.1536L96.5352 10.1936L96.5846 10.2368L96.6216 10.2769L96.6493 10.3169L96.6709 10.3632L96.6832 10.4125L96.6863 10.4711L96.6801 10.5081L96.6678 10.5389L96.64 10.5944L96.5907 10.656L96.5106 10.7269L96.4458 10.7732L96.378 10.8132L96.2331 10.8872L96.0235 10.9735L95.9218 11.0105L95.8324 11.0352L95.6752 11.0784L95.5087 11.1092L95.3484 11.1308L95.2159 11.1462L95.0987 11.1554L94.9353 11.1616H94.772L94.6086 11.1554L94.5038 11.1493L94.399 11.1369L94.2232 11.1184L94.0506 11.0907L93.878 11.0568L93.767 11.029L93.656 11.0013L93.5112 10.955L93.3694 10.9057L93.2245 10.8441L91.0327 11.7134L91.3071 11.8336L91.5598 11.9353L91.9236 12.0586L92.3028 12.1696L92.7004 12.2683L93.0333 12.3361L93.3324 12.3885L93.7516 12.447L94.1801 12.4871L94.6147 12.5149L94.8953 12.5241H95.1727L95.6104 12.5118L96.0852 12.4779L96.6 12.4193L97.0285 12.3484L97.4415 12.259L97.9132 12.1326L98.4342 11.9538L98.8688 11.7689L99.2048 11.5932L99.4576 11.4205L99.6395 11.2602L99.8059 11.0691L99.9107 10.8934L99.9786 10.7023L100 10.5266L99.9878 10.3971Z" fill="white" stroke="white" stroke-width="0.5" stroke-linecap="round" stroke-linejoin="round"/>
<path d="M91.0327 11.7131L91.307 11.8334L91.5598 11.9351L91.9236 12.0584L92.3027 12.1694L92.7004 12.268L93.0333 12.3358L93.3323 12.3882L93.7516 12.4468L94.1801 12.4869L94.6147 12.5146L94.8952 12.5239H95.1727L95.6104 12.5116L96.0851 12.4776L96.5999 12.4191L97.0284 12.3482L97.4415 12.2588L97.9132 12.1324L98.4341 11.9536L98.8688 11.7686L99.2048 11.5929L99.4576 11.4203L99.6394 11.26L99.8059 11.0689L99.9107 10.8932L99.9785 10.702L100 10.5263L99.9878 10.3969L99.9508 10.2705L99.8799 10.1194L99.7751 9.96836L99.6518 9.83581L99.5038 9.70942L99.3343 9.58611L99.1431 9.47206L98.9335 9.36108L98.6992 9.25935L98.4711 9.16996L98.2461 9.08672L97.9101 8.97883L97.6111 8.8956L97.3521 8.83703L97.0932 8.78771L96.8373 8.74763L96.4705 8.70139L96.1468 8.67365L95.7892 8.65207L95.4378 8.64591L95.0525 8.65207L94.5037 8.67673L93.9643 8.72297L93.3755 8.79696L91.8588 9.01891L91.3964 9.08364L90.9926 9.1268L90.5949 9.15454L90.4655 9.15763H90.3607L90.2589 9.15454L90.1788 9.14838L90.1017 9.13913L90.0277 9.1268L89.9568 9.11139L89.889 9.09597L89.8212 9.07748L89.741 9.04973L89.6671 9.01891L89.6208 8.99733L89.5838 8.97575L89.5376 8.94801L89.4944 8.91718L89.4605 8.88327L89.4266 8.84628L89.4081 8.81545L89.3958 8.78771L89.3835 8.74455L89.3804 8.69831L89.3896 8.64899L89.4081 8.60891L89.4328 8.56884L89.4852 8.51027L89.5653 8.44553L89.6362 8.39929L89.7071 8.35922L89.8243 8.30681L89.9692 8.25133L90.1295 8.20509L90.2805 8.16809L90.4254 8.14035L90.5549 8.12185L90.6658 8.11261L90.7614 8.10336L90.897 8.09719H91.0327L91.1683 8.10028L91.2916 8.10952L91.4026 8.11877L91.5259 8.13727L91.6492 8.15576L91.7848 8.18351L91.9297 8.2205L92.0592 8.25749L92.2133 8.3099L92.3705 8.37463L94.328 7.64404" stroke="#481BFF" stroke-width="0.0001" stroke-linecap="round" stroke-linejoin="round"/>
<path d="M94.3281 7.64427L94.0814 7.54871L93.8533 7.46856L93.5327 7.36992L93.1967 7.28052L92.8515 7.20654L92.5617 7.15105L92.2997 7.11098L91.939 7.06474L91.5752 7.03083L91.2084 7.00925L90.9741 7.00308L90.7368 7L90.3668 7.00925L89.9661 7.03083L89.5284 7.07398L89.1276 7.12947L88.77 7.19729L88.3508 7.29285L87.9069 7.41924L87.5246 7.55488L87.1917 7.69668L86.9266 7.83232L86.7016 7.9772L86.5074 8.1375L86.3532 8.30088L86.2515 8.45193L86.1868 8.60606L86.1621 8.73245L86.1683 8.85884L86.1991 8.98523L86.2577 9.11162L86.3471 9.23801L86.4611 9.36131L86.5844 9.46921L86.7447 9.58326L86.9266 9.69424L87.1547 9.81138L87.3582 9.90078L87.5647 9.98401L87.8761 10.095L88.1597 10.1782L88.4094 10.2399L88.6591 10.2923L88.9149 10.3323L89.2787 10.3786L89.6393 10.4094L90 10.4279L90.3576 10.431L90.7121 10.4248L91.2731 10.3909L91.8249 10.3385L92.4291 10.2522L93.9766 10.0118L94.4483 9.9501L94.886 9.91002L95.2713 9.88536L95.3854 9.88228L95.4964 9.88536L95.6043 9.89153L95.706 9.89769L95.7862 9.91002L95.8632 9.92236L95.9403 9.93777L96.0143 9.95318L96.0852 9.97476L96.1715 10.0025L96.2547 10.0364L96.3379 10.0734L96.4058 10.1104L96.4797 10.1536L96.5352 10.1936L96.5846 10.2368L96.6215 10.2769L96.6493 10.3169L96.6709 10.3632L96.6832 10.4125L96.6863 10.4711L96.6801 10.5081L96.6678 10.5389L96.64 10.5944L96.5907 10.656L96.5106 10.7269L96.4458 10.7732L96.378 10.8132L96.2331 10.8872L96.0235 10.9735L95.9218 11.0105L95.8324 11.0352L95.6752 11.0784L95.5087 11.1092L95.3484 11.1308L95.2159 11.1462L95.0987 11.1554L94.9353 11.1616H94.772L94.6086 11.1554L94.5038 11.1462L94.399 11.1369L94.2232 11.1184L94.0506 11.0907L93.878 11.0568L93.767 11.029L93.656 11.0013L93.5112 10.955L93.3694 10.9057L93.2245 10.8441L91.0327 11.7134" stroke="#481BFF" stroke-width="0.0001" stroke-linecap="round" stroke-linejoin="round"/>
<path d="M88.3356 17.8758L88.3202 17.7556L88.2647 17.5676L88.166 17.361L88.0273 17.1576L87.9102 17.0219L87.7776 16.8925L87.5649 16.7168L87.3183 16.5472L87.0131 16.3684L86.7696 16.2451L86.5446 16.1434L86.2209 16.017L85.8818 15.906L85.5242 15.8074L85.2899 15.7519L85.0556 15.7026L84.6487 15.6317L84.2357 15.5793L83.8164 15.5454L83.5359 15.533L83.2893 15.5269L82.9039 15.533L82.4847 15.5577L82.0655 15.6008L81.8219 15.6347L81.6154 15.6687L81.2116 15.7519L80.8201 15.8567L80.4039 15.9923L76.2886 17.4843L85.6383 23.2458L88.1506 22.1638L84.9878 20.3019L86.7172 19.599L86.9638 19.4911L87.1888 19.3802L87.4879 19.2045L87.7191 19.0349L87.9102 18.8561L88.0119 18.739L88.1013 18.6218L88.2184 18.4184L88.2924 18.2149L88.3263 18.0084L88.3356 17.8758ZM85.1265 17.9313L85.1173 17.9683L85.0865 18.0423L85.0402 18.1163L84.9724 18.1964L84.9231 18.2427L84.8676 18.2889L84.7782 18.3475L84.6765 18.403L84.5501 18.4585L82.9286 19.0935L80.5827 17.7125L82.1888 17.1113L82.3028 17.0743L82.42 17.0404L82.5433 17.0127L82.6728 16.9911L82.8053 16.9757L82.9687 16.9634L83.1167 16.9572L83.3016 16.9541L83.4712 16.9603L83.5636 16.9665L83.6438 16.9726L83.801 16.9911L83.9582 17.0189L84.1278 17.0559L84.2542 17.0898L84.3744 17.1268L84.4854 17.1699L84.5902 17.2162L84.6888 17.2655L84.7813 17.321L84.8614 17.3795L84.9323 17.4412L84.9909 17.5028L85.0371 17.5676L85.0803 17.6446L85.108 17.7217L85.1235 17.8049V17.8882L85.1265 17.9313Z" fill="white" stroke="white" stroke-width="0.5" stroke-linecap="round" stroke-linejoin="round"/>
<path d="M76.2944 17.4902L80.4098 15.9982L80.8259 15.8626L81.2174 15.7577L81.6213 15.6745L81.8247 15.6406L82.0682 15.6067L82.4875 15.5635L82.9067 15.5389L83.2921 15.5327L83.5356 15.5389L83.8192 15.5512L84.2353 15.5851L84.6484 15.6375L85.0553 15.7084L85.2896 15.7547L85.5239 15.8102L85.8815 15.9088L86.2206 16.0198L86.5443 16.1462L86.7693 16.2479L87.0159 16.3712L87.3211 16.55L87.5646 16.7165L87.7773 16.8922L87.913 17.0247L88.027 17.1573L88.1657 17.3607L88.2644 17.5673L88.3199 17.7553L88.3353 17.8755L88.3384 18.0143L88.3045 18.2208L88.2305 18.4273L88.1133 18.6277L88.0239 18.7448L87.9222 18.862L87.728 19.0408L87.4968 19.2103L87.1978 19.386L86.9727 19.497L86.7261 19.6049L84.9937 20.3077" stroke="#481BFF" stroke-width="0.0001" stroke-linecap="round" stroke-linejoin="round"/>
<path d="M84.9937 20.3081L88.1565 22.17" stroke="#481BFF" stroke-width="0.0001" stroke-linecap="round" stroke-linejoin="round"/>
<path d="M88.1565 22.1697L85.6441 23.2517L76.2944 17.4902" stroke="#481BFF" stroke-width="0.0001" stroke-linecap="round" stroke-linejoin="round"/>
<path d="M80.5854 17.7092L82.1915 17.1081L82.3025 17.068L82.4227 17.0341L82.546 17.0094L82.6724 16.9847L82.808 16.9693L82.9714 16.957L83.1194 16.9508L83.3043 16.9478L83.4739 16.9539L83.5664 16.9601L83.6434 16.9663L83.8007 16.9878L83.9579 17.0125L84.1305 17.0495L84.2569 17.0834L84.3771 17.1235L84.4912 17.1635L84.596 17.2098L84.6915 17.2591L84.7871 17.3177L84.8673 17.3762L84.9382 17.4348L84.9967 17.4995L85.043 17.5612L85.0861 17.6414L85.1169 17.7184L85.1324 17.8016V17.8849L85.1262 17.9311L85.1169 17.9681L85.0861 18.0452L85.0399 18.1192L84.9751 18.1962L84.9227 18.2456L84.8673 18.2887L84.7779 18.3473L84.6761 18.4028L84.5497 18.4552L82.9283 19.0902L80.5854 17.7092Z" stroke="#481BFF" stroke-width="0.0001" stroke-linecap="round" stroke-linejoin="round"/>
<path d="M66.8311 36.0972L70.0001 34.636L68.3663 33.1934L59.2139 37.281L60.7429 38.9055L64.1646 37.3272L70.3731 43.4771L73.1475 42.0313L66.8311 36.0972Z" fill="white" stroke="white" stroke-width="0.5" stroke-linecap="round" stroke-linejoin="round"/>
<path d="M59.2139 37.281L68.3663 33.1934" stroke="#481BFF" stroke-width="0.0001" stroke-linecap="round" stroke-linejoin="round"/>
<path d="M70.3725 43.477L64.1641 37.3271" stroke="#481BFF" stroke-width="0.0001" stroke-linecap="round" stroke-linejoin="round"/>
<path d="M66.8311 36.0972L73.1474 42.0313" stroke="#481BFF" stroke-width="0.0001" stroke-linecap="round" stroke-linejoin="round"/>
<path d="M60.7422 38.9055L64.1639 37.3271" stroke="#481BFF" stroke-width="0.0001" stroke-linecap="round" stroke-linejoin="round"/>
<path d="M66.8311 36.0969L70 34.6357" stroke="#481BFF" stroke-width="0.0001" stroke-linecap="round" stroke-linejoin="round"/>
<path d="M73.1469 42.0312L70.3726 43.477" stroke="#481BFF" stroke-width="0.0001" stroke-linecap="round" stroke-linejoin="round"/>
<path d="M60.7429 38.9053L59.2139 37.2808" stroke="#481BFF" stroke-width="0.0001" stroke-linecap="round" stroke-linejoin="round"/>
<path d="M68.3662 33.1934L70 34.636" stroke="#481BFF" stroke-width="0.0001" stroke-linecap="round" stroke-linejoin="round"/>
<path d="M65.7979 50.5361L65.7886 50.8259L65.7455 51.1218L65.6807 51.3684L65.5944 51.6212L65.4403 51.9634L65.2214 52.3333L64.9779 52.6755L64.6604 53.0485L64.349 53.3629L63.9575 53.6928L63.4766 54.0411L62.8878 54.4018L62.2189 54.747L61.6363 54.9967L61.1431 55.1694L60.6529 55.305L60.0795 55.4221L59.5678 55.49L59.1085 55.5115H58.8249L58.5444 55.493L58.1221 55.4437L57.7182 55.3605L57.3329 55.2464L57.0647 55.1447L56.778 55.0121L56.4482 54.8241L56.1461 54.6052L55.8748 54.3617L55.6929 54.1644L55.5049 53.9301" stroke="#481BFF" stroke-width="0.0001" stroke-linecap="round" stroke-linejoin="round"/>
<path d="M55.0268 51.3777L54.7524 51.3284L54.4134 51.2421L54.1852 51.165L53.9695 51.0633L53.7629 50.943L53.5379 50.7797L53.3067 50.5639L53.1587 50.4036L53.0231 50.2248L52.8782 49.9997L52.7796 49.787L52.7056 49.562" stroke="#481BFF" stroke-width="0.0001" stroke-linecap="round" stroke-linejoin="round"/>
<path d="M83.0485 29.4478L77.5737 32.0064L75.8104 30.6377L80.6656 28.4459L78.8808 27.179L74.0657 29.2844L72.6076 28.1531L77.7926 25.949L76.0941 24.7529L68.4028 27.9219L76.8524 34.8024L85.0368 30.8412L83.0485 29.4478Z" fill="white" stroke="white" stroke-width="0.5" stroke-linecap="round" stroke-linejoin="round"/>
<path d="M76.8524 34.8024L68.4028 27.9219" stroke="#481BFF" stroke-width="0.0001" stroke-linecap="round" stroke-linejoin="round"/>
<path d="M85.037 30.8408L76.8525 34.802" stroke="#481BFF" stroke-width="0.0001" stroke-linecap="round" stroke-linejoin="round"/>
<path d="M68.4028 27.9219L76.0941 24.7529L77.7926 25.949" stroke="#481BFF" stroke-width="0.0001" stroke-linecap="round" stroke-linejoin="round"/>
<path d="M83.0485 29.4482L77.5737 32.0068" stroke="#481BFF" stroke-width="0.0001" stroke-linecap="round" stroke-linejoin="round"/>
<path d="M72.6079 28.1533L77.7929 25.9492" stroke="#481BFF" stroke-width="0.0001" stroke-linecap="round" stroke-linejoin="round"/>
<path d="M80.6657 28.4458L75.8105 30.6376" stroke="#481BFF" stroke-width="0.0001" stroke-linecap="round" stroke-linejoin="round"/>
<path d="M74.0654 29.2847L78.8805 27.1792L80.6654 28.4462" stroke="#481BFF" stroke-width="0.0001" stroke-linecap="round" stroke-linejoin="round"/>
<path d="M83.0483 29.4482L85.0367 30.8416" stroke="#481BFF" stroke-width="0.0001" stroke-linecap="round" stroke-linejoin="round"/>
<path d="M77.5738 32.0064L75.8105 30.6377" stroke="#481BFF" stroke-width="0.0001" stroke-linecap="round" stroke-linejoin="round"/>
<path d="M74.066 29.2847L72.6079 28.1533" stroke="#481BFF" stroke-width="0.0001" stroke-linecap="round" stroke-linejoin="round"/>
<path d="M65.5512 47.4132L65.542 47.7029L65.4957 47.9958L65.431 48.2424L65.3385 48.4921L65.1782 48.8312L64.9532 49.2011L64.6973 49.5402L64.3706 49.9132L64.0469 50.2246L63.6431 50.5544L63.1437 50.9027L62.5364 51.2603L61.8428 51.6056L61.2417 51.8522L60.7299 52.0248L60.2244 52.1605L59.6325 52.2776L59.0992 52.3423L58.6276 52.367L58.3347 52.3639L58.045 52.3485L57.6072 52.2961L57.1911 52.216L56.7934 52.1019L56.519 52.0002L56.2231 51.8676L55.884 51.6796L55.5757 51.4638L55.5326 51.4268L55.8131 51.436L56.183 51.4206L56.7811 51.3559L57.3853 51.2511L58.0696 51.0846L59.8391 50.6191L60.3662 50.502L60.8471 50.4188L61.2602 50.3725L61.3773 50.3694H61.4883L61.5962 50.3818L61.6948 50.3972L61.7688 50.4188L61.8366 50.4434L61.9044 50.4712L61.9661 50.5051L62.0216 50.5452L62.0894 50.6006L62.148 50.6654L62.2035 50.7394L62.2435 50.8072L62.2867 50.8935L62.3113 50.9736L62.3298 51.0569L61.9723 47.9311L61.9568 47.8509L61.9291 47.7708L61.8859 47.6845L61.8428 47.6166L61.7873 47.5426L61.7256 47.4779L61.6578 47.4255L61.5993 47.3854L61.5376 47.3515L61.4698 47.3207L61.3958 47.2991L61.3218 47.2775L61.2201 47.2621L61.1091 47.2498H60.9951L60.8717 47.2529L60.4494 47.2991L59.9531 47.3793L59.4075 47.4964L57.5826 47.9619L56.8735 48.1253L56.2478 48.2301L56.109 48.2455V48.2362L56.1306 48.153L56.1645 48.0636L56.2108 47.9711L56.2601 47.891L56.3156 47.8139L56.4142 47.7029L56.5499 47.5704L56.6547 47.481L56.7595 47.4039L56.9198 47.3022L57.1078 47.2005L57.3113 47.1049L57.4962 47.034L57.6627 46.9816L57.8107 46.9477L57.9309 46.9261L58.0357 46.9107L58.1775 46.8984H58.3162L58.4519 46.9045L58.5721 46.92L58.6769 46.9415L58.791 46.9724L58.8988 47.0124L59.016 47.0648L59.1362 47.1357L59.241 47.2097L59.3551 47.3114L59.4691 47.4348L62.0339 46.0167L61.6886 42.9341L59.0437 44.3367L58.9266 44.2134L58.8095 44.1147L58.7016 44.0408L58.5783 43.9729L58.4611 43.9205L58.3471 43.8805L58.2299 43.8496L58.122 43.8281L57.9987 43.8126L57.8569 43.8065H57.7151L57.5702 43.8188L57.4623 43.8311L57.339 43.8527L57.1849 43.8897L57.0123 43.939L56.8242 44.0099L56.6146 44.1055L56.4204 44.2041L56.2539 44.3059L56.146 44.3829L56.0351 44.4723L55.8963 44.6018L55.7946 44.7128L55.733 44.7898L55.6836 44.8669L55.6343 44.9594L55.6004 45.0519L55.5757 45.132L55.5696 45.1844L55.5634 45.2461L55.5665 45.317L55.5757 45.3817L56.069 48.2486L55.6312 48.2948L55.2521 48.3071L54.8791 48.2979L54.5153 48.264L54.1577 48.2023L53.8094 48.116L53.5751 48.039L53.3501 47.9372L53.1405 47.8201L52.9093 47.6567L52.6719 47.444L52.5239 47.2806L52.3821 47.108L52.2372 46.883L52.1355 46.6703L52.0615 46.4483L52.7058 49.5618L52.7798 49.7868L52.8784 49.9995L53.0233 50.2246L53.1589 50.4033L53.3069 50.5636L53.5381 50.7794L53.7631 50.9428L53.9697 51.063L54.1855 51.1648L54.4136 51.2418L54.7527 51.3281L55.027 51.3775L55.5048 53.9299L55.6929 54.1642L55.8748 54.3615L56.146 54.605L56.4481 54.8239L56.778 55.0119L57.0647 55.1445L57.3329 55.2462L57.7182 55.3603L58.122 55.4435L58.5443 55.4928L58.8249 55.5113H59.1085L59.5678 55.4897L60.0795 55.4219L60.6529 55.3048L61.143 55.1691L61.6362 54.9965L62.2189 54.7468L62.8878 54.4016L63.4766 54.0409L63.9575 53.6925L64.349 53.3627L64.6603 53.0483L64.9778 52.6753L65.2214 52.3331L65.4402 51.9632L65.5944 51.621L65.6807 51.3682L65.7454 51.1216L65.7886 50.8257L65.7978 50.5359L65.5512 47.4132Z" fill="black"/>
<path d="M54.9165 50.7893L55.0275 51.3781L55.5053 53.9306L55.6933 54.1648L55.8752 54.3621L56.1465 54.6057L56.4486 54.8245L56.7784 55.0126L57.0651 55.1451L57.3333 55.2469L57.7186 55.3609L58.1225 55.4441L58.5448 55.4935L58.8253 55.512H59.1089L59.5682 55.4904L60.0799 55.4226L60.6533 55.3054L61.1435 55.1698L61.6367 54.9972L62.2193 54.7475L62.8882 54.4022L63.477 54.0415L63.9579 53.6932L64.3494 53.3634L64.6608 53.0489L64.9783 52.6759L65.2218 52.3338L65.4407 51.9638L65.5948 51.6217L65.6811 51.3689L65.7459 51.1223L65.789 50.8263L65.7983 50.5366L65.5517 47.4138L65.527 47.158L65.4746 46.9114L65.3944 46.6771L65.2866 46.452L65.1509 46.2424L64.9875 46.0421L64.8211 45.8694L64.6484 45.7122L64.3833 45.5026L64.1336 45.3454L63.9117 45.2282L63.6805 45.1327L63.44 45.0556L63.0917 44.9724L62.7742 44.9169L62.4135 44.8768L62.0498 44.8614L61.9049 44.8645L61.6398 44.8706L61.0417 44.9231L60.4375 45.0124L59.7563 45.1543L59.1767 45.293L57.9807 45.5827L57.4412 45.703L56.9819 45.7862L56.5411 45.8417L56.3993 45.8509L56.2914 45.8478L56.1866 45.8386L56.1095 45.8263L56.0386 45.8109L55.9677 45.7862L55.906 45.7615L55.8475 45.7276L55.792 45.6906L55.7303 45.6382L55.6748 45.5797L55.644 45.5365L55.6224 45.4995L55.5947 45.4409L55.5762 45.3824L55.5669 45.3176L55.5639 45.2467L55.57 45.1851L55.5762 45.1327L55.6009 45.0525L55.6348 44.96L55.6841 44.8676L55.7334 44.7905L55.7951 44.7134L55.8968 44.6025L56.0355 44.473L56.1465 44.3836L56.2544 44.3065L56.4208 44.2048L56.615 44.1061L56.8247 44.0106L57.0127 43.9397L57.1853 43.8904L57.3395 43.8534L57.4628 43.8318L57.5707 43.8195L57.7156 43.8071H57.8574L57.9992 43.8133L58.1225 43.8287L58.2304 43.8503L58.3475 43.8811L58.4616 43.9212L58.5787 43.9736L58.702 44.0414L58.8099 44.1154L58.927 44.214L59.0442 44.3373L59.1767 45.293" stroke="#481BFF" stroke-width="0.0001" stroke-linecap="round" stroke-linejoin="round"/>
<path d="M65.5517 47.4136L65.5424 47.7033L65.4962 47.9962L65.4314 48.2428L65.339 48.4925L65.1787 48.8316L64.9536 49.2015L64.6978 49.5406L64.371 49.9136L64.0473 50.225L63.6435 50.5548L63.1441 50.9031L62.5368 51.2607L61.8432 51.606L61.2421 51.8526L60.7304 52.0252L60.2248 52.1609L59.633 52.278L59.0997 52.3427L58.628 52.3674L58.3352 52.3643L58.0454 52.3489L57.6077 52.2965L57.1915 52.2163L56.7938 52.1023L56.5195 52.0006L56.2235 51.868L55.8845 51.68L55.5762 51.4642L55.2957 51.2207L55.1076 51.0264L54.9165 50.7891" stroke="#481BFF" stroke-width="0.0001" stroke-linecap="round" stroke-linejoin="round"/>
<path d="M55.027 51.3779L54.7527 51.3286L54.4136 51.2423L54.1855 51.1652L53.9697 51.0635L53.7631 50.9432L53.5381 50.7799L53.3069 50.5641L53.1589 50.4038L53.0233 50.225L52.8784 49.9999L52.7798 49.7872L52.7058 49.5622L52.1355 46.7971L52.0862 46.569L52.0615 46.4487" stroke="#481BFF" stroke-width="0.0001" stroke-linecap="round" stroke-linejoin="round"/>
<path d="M57.9372 49.1089L58.042 49.2261L58.1499 49.3247L58.267 49.411L58.3595 49.4665L58.4551 49.5159L58.6092 49.5837L58.7695 49.6361L58.9391 49.6761L59.0408 49.6946L59.1456 49.707L59.3121 49.7193H59.4878L59.6635 49.707L59.796 49.6916L59.9471 49.6638L60.132 49.6207L60.3324 49.5559L60.5359 49.4789L60.6499 49.4265L60.7856 49.3586L61.0784 49.1922L61.2911 49.0473L61.3928 48.9702L61.4977 48.8808L61.6395 48.7421L61.7412 48.6219L61.8183 48.514L61.8552 48.4523L61.8892 48.3845L61.9385 48.2705L61.9631 48.1749L61.9785 48.0855L61.9816 48.0084L61.9724 47.9314L61.957 47.8512L61.9292 47.7711L61.8861 47.6848L61.8429 47.6169L61.7874 47.543L61.7258 47.4782L61.658 47.4258L61.5994 47.3857L61.5377 47.3518L61.4699 47.321L61.3959 47.2994L61.3219 47.2778L61.2202 47.2624L61.1092 47.2501H60.9952L60.8719 47.2532L60.4496 47.2994L59.9532 47.3796L59.4076 47.4967L57.5827 47.9622L56.8737 48.1256L56.2479 48.2304L55.6314 48.2951L55.2522 48.3074L54.8792 48.2982L54.5154 48.2643L54.1579 48.2026L53.8095 48.1163L53.5752 48.0393L53.3502 47.9375L53.1406 47.8204L52.9094 47.657L52.672 47.4443L52.5241 47.2809L52.3822 47.1083L52.2374 46.8833L52.1356 46.6706L52.0617 46.4486L52.0216 46.239L52 46.0016L52.0123 45.7581L52.0524 45.5146L52.1233 45.271L52.222 45.0275L52.3514 44.7809L52.5425 44.488L52.7737 44.1983L53.0666 43.8838L53.4057 43.5756L53.7571 43.2951L54.1486 43.033L54.6141 42.7587L55.1258 42.5028L55.693 42.2593L56.2109 42.0712L56.6456 41.9449L57.108 41.837L57.6012 41.7568L58.042 41.7137L58.4366 41.6982L58.6832 41.7013L58.9236 41.7167L59.2936 41.7568L59.6481 41.8215L59.9902 41.9079L60.2307 41.988L60.4927 42.0897L60.7948 42.2377L61.0753 42.4073L61.3343 42.5953L61.5069 42.7494L61.6888 42.9344L61.9046 44.8641" stroke="#481BFF" stroke-width="0.0001" stroke-linecap="round" stroke-linejoin="round"/>
<path d="M65.5267 47.1576L65.4743 46.911L65.3941 46.6767L65.2862 46.4517L65.1506 46.2421L64.9872 46.0417L64.8208 45.8691L64.6481 45.7119L64.383 45.5022L64.1333 45.345L63.9114 45.2279L63.6802 45.1323L63.4397 45.0552L63.0914 44.972L62.7739 44.9165L62.4132 44.8765L62.0495 44.861L61.6395 44.8703L61.0414 44.9227L60.4372 45.0121L59.756 45.1539L57.9803 45.5824L57.4409 45.7026L56.9816 45.7858L56.5407 45.8413L56.3989 45.8506L56.2911 45.8475L56.1862 45.8382L56.1092 45.8259L56.0383 45.8105L55.9674 45.7858L55.9057 45.7612L55.8472 45.7273L55.7917 45.6903L55.73 45.6379L55.6745 45.5793L55.6437 45.5361L55.6221 45.4992L55.5944 45.4406L55.5759 45.382L55.5666 45.3173L55.5635 45.2464L55.5697 45.1847L55.5759 45.1323L55.6005 45.0522L55.6344 44.9597L55.6838 44.8672L55.7331 44.7901L55.7947 44.7131L55.8965 44.6021L56.0352 44.4726L56.1462 44.3832L56.2541 44.3062L56.4205 44.2044L56.6147 44.1058L56.8244 44.0102L57.0124 43.9393L57.185 43.89L57.3392 43.853L57.4625 43.8314L57.5704 43.8191L57.7152 43.8068H57.857L57.9988 43.8129L58.1221 43.8284L58.23 43.8499L58.3472 43.8808L58.4612 43.9208L58.5784 43.9732L58.7017 44.0411L58.8096 44.115L58.9267 44.2137L59.0439 44.337L61.6888 42.9344L61.5069 42.7494L61.3343 42.5953L61.0753 42.4073L60.7948 42.2377L60.4927 42.0897L60.2307 41.988L59.9902 41.9079L59.6481 41.8215L59.2936 41.7568L58.9236 41.7167L58.6832 41.7013L58.4366 41.6982L58.042 41.7137L57.6012 41.7568L57.108 41.837L56.6456 41.9449L56.2109 42.0712L55.693 42.2593L55.1258 42.5028L54.6141 42.7587L54.1486 43.033L53.7571 43.2951L53.4057 43.5756L53.0666 43.8838L52.7737 44.1983L52.5425 44.488L52.3514 44.7809L52.222 45.0275L52.1233 45.271L52.0524 45.5146L52.0123 45.7581L52 46.0016L52.0216 46.239L52.0617 46.4486L52.1356 46.6706L52.2374 46.8833L52.3822 47.1083L52.5241 47.2809L52.672 47.4443L52.9094 47.657L53.1406 47.8204L53.3502 47.9375L53.5752 48.0393L53.8095 48.1163L54.1579 48.2026L54.5154 48.2643L54.8792 48.2982L55.2522 48.3074L55.6314 48.2951L56.2479 48.2304L56.8737 48.1256L57.5827 47.9622L59.4076 47.4967L59.9532 47.3796L60.4496 47.2994L60.8719 47.2532L60.9952 47.2501H61.1092L61.2202 47.2624L61.3219 47.2778L61.3959 47.2994L61.4699 47.321L61.5377 47.3518L61.5994 47.3857L61.658 47.4258L61.7258 47.4782L61.7874 47.543L61.8429 47.6169L61.8861 47.6848L61.9292 47.7711L61.957 47.8512L61.9724 47.9314L61.9816 48.0084L61.9785 48.0855L61.9631 48.1749L61.9385 48.2705L61.8892 48.3845L61.8552 48.4523L61.8183 48.514L61.7412 48.6219L61.6395 48.7421L61.4977 48.8808L61.3928 48.9702L61.2911 49.0473L61.0784 49.1922L60.7856 49.3586L60.6499 49.4265L60.5359 49.4789L60.3324 49.5559L60.132 49.6207L59.9471 49.6638L59.796 49.6916L59.6635 49.707L59.4878 49.7193H59.3121L59.1456 49.707L59.0408 49.6946L58.9391 49.6761L58.7695 49.6361L58.6092 49.5837L58.4551 49.5159L58.3595 49.4665L58.267 49.411L58.1499 49.3247L58.042 49.2261L57.9372 49.1089L54.9162 50.789L55.1073 51.0264L55.2954 51.2206L55.5759 51.4641L55.8841 51.6799L56.2232 51.8679L56.5192 52.0005L56.7935 52.1022L57.1912 52.2163L57.6073 52.2964L58.0451 52.3488L58.3349 52.3642L58.6277 52.3673L59.0994 52.3426L59.6327 52.2779L60.2245 52.1608L60.7301 52.0251L61.2418 51.8525L61.8429 51.6059L62.5365 51.2606L63.1438 50.903L63.6432 50.5547L64.047 50.2249L64.3707 49.9135L64.6974 49.5405L64.9533 49.2014L65.1783 48.8315L65.3386 48.4924L65.4311 48.2427L65.4959 47.9961L65.5421 47.7032L65.5513 47.4135L65.5267 47.1576Z" fill="white" stroke="white" stroke-width="0.5" stroke-linecap="round" stroke-linejoin="round"/>
<path d="M57.9375 49.1089L54.9165 50.7889" stroke="#481BFF" stroke-width="0.0001" stroke-linecap="round" stroke-linejoin="round"/>
<path d="M59.0439 44.3367L61.6889 42.9341" stroke="#481BFF" stroke-width="0.0001" stroke-linecap="round" stroke-linejoin="round"/>
<path d="M54.9165 50.7893L55.1076 51.0267L55.2957 51.2209L55.5762 51.4644L55.8845 51.6802L56.2235 51.8683L56.5195 52.0008L56.7938 52.1026L57.1915 52.2166L57.6077 52.2968L58.0454 52.3492L58.3352 52.3646L58.628 52.3677L59.0997 52.343L59.633 52.2783L60.2248 52.1611L60.7304 52.0255L61.2421 51.8529L61.8432 51.6062L62.5368 51.261L63.1441 50.9034L63.6435 50.5551L64.0473 50.2252L64.371 49.9139L64.6978 49.5409L64.9536 49.2018L65.1787 48.8319L65.339 48.4928L65.4314 48.2431L65.4962 47.9965L65.5424 47.7036L65.5517 47.4138L65.527 47.158L65.4746 46.9114L65.3944 46.6771L65.2866 46.452L65.1509 46.2424L64.9875 46.0421L64.8211 45.8694L64.6484 45.7122L64.3833 45.5026L64.1336 45.3454L63.9117 45.2282L63.6805 45.1327L63.44 45.0556L63.0917 44.9724L62.7742 44.9169L62.4135 44.8768L62.0498 44.8614L61.6398 44.8706L61.0417 44.9231L60.4375 45.0124L59.7563 45.1543L57.9807 45.5827L57.4412 45.703L56.9819 45.7862L56.5411 45.8417L56.3993 45.8509L56.2914 45.8478L56.1866 45.8386L56.1095 45.8263L56.0386 45.8109L55.9677 45.7862L55.906 45.7615L55.8475 45.7276L55.792 45.6906L55.7303 45.6382L55.6748 45.5797L55.644 45.5365L55.6224 45.4995L55.5947 45.4409L55.5762 45.3824L55.5669 45.3176L55.5639 45.2467L55.57 45.1851L55.5762 45.1327L55.6009 45.0525L55.6348 44.96L55.6841 44.8676L55.7334 44.7905L55.7951 44.7134L55.8968 44.6025L56.0355 44.473L56.1465 44.3836L56.2544 44.3065L56.4208 44.2048L56.615 44.1061L56.8247 44.0106L57.0127 43.9397L57.1853 43.8904L57.3395 43.8534L57.4628 43.8318L57.5707 43.8195L57.7156 43.8071H57.8574L57.9992 43.8133L58.1225 43.8287L58.2304 43.8503L58.3475 43.8811L58.4616 43.9212L58.5787 43.9736L58.702 44.0414L58.8099 44.1154L58.927 44.214L59.0442 44.3373" stroke="#481BFF" stroke-width="0.0001" stroke-linecap="round" stroke-linejoin="round"/>
<path d="M61.6888 42.9344L61.5069 42.7494L61.3343 42.5953L61.0753 42.4073L60.7948 42.2377L60.4927 42.0897L60.2307 41.988L59.9902 41.9079L59.6481 41.8215L59.2936 41.7568L58.9236 41.7167L58.6832 41.7013L58.4366 41.6982L58.042 41.7137L57.6012 41.7568L57.108 41.837L56.6456 41.9449L56.2109 42.0712L55.693 42.2593L55.1258 42.5028L54.6141 42.7587L54.1486 43.033L53.7571 43.2951L53.4057 43.5756L53.0666 43.8838L52.7737 44.1983L52.5425 44.488L52.3514 44.7809L52.222 45.0275L52.1233 45.271L52.0524 45.5146L52.0123 45.7581L52 46.0016L52.0216 46.239L52.0617 46.4486L52.1356 46.6706L52.2374 46.8833L52.3822 47.1083L52.5241 47.2809L52.672 47.4443L52.9094 47.657L53.1406 47.8204L53.3502 47.9375L53.5752 48.0393L53.8095 48.1163L54.1579 48.2026L54.5154 48.2643L54.8792 48.2982L55.2522 48.3074L55.6314 48.2951L56.2479 48.2304L56.8737 48.1256L57.5827 47.9622L59.4076 47.4967L59.9532 47.3796L60.4496 47.2994L60.8719 47.2532L60.9952 47.2501H61.1092L61.2202 47.2624L61.3219 47.2778L61.3959 47.2994L61.4699 47.321L61.5377 47.3518L61.5994 47.3857L61.658 47.4258L61.7258 47.4782L61.7874 47.543L61.8429 47.6169L61.8861 47.6848L61.9292 47.7711L61.957 47.8512L61.9724 47.9314L61.9816 48.0084L61.9785 48.0855L61.9631 48.1749L61.9385 48.2705L61.8892 48.3845L61.8552 48.4523L61.8183 48.514L61.7412 48.6219L61.6395 48.7421L61.4977 48.8808L61.3928 48.9702L61.2911 49.0473L61.0784 49.1922L60.7856 49.3586L60.6499 49.4265L60.5359 49.4789L60.3324 49.5559L60.132 49.6207L59.9471 49.6638L59.796 49.6916L59.6635 49.707L59.4878 49.7193H59.3121L59.1456 49.707L59.0408 49.6946L58.9391 49.6761L58.7695 49.6361L58.6092 49.5837L58.4551 49.5159L58.3595 49.4665L58.267 49.411L58.1499 49.3247L58.042 49.2261L57.9372 49.1089" stroke="#481BFF" stroke-width="0.0001" stroke-linecap="round" stroke-linejoin="round"/>
</svg>
