<svg fill="none" height="606" viewBox="0 0 606 606" width="606" xmlns="http://www.w3.org/2000/svg"><path d="m542.629 76.8135c-80.312-47.1312-161.267-64.3313-244.008-66.413-74.12-1.86488-175.343-36.5761-241.8896 62.3134-33.5294 49.8251-61.21151 176.7991-51.90915 269.7521 6.31395 63.091 22.60225 116.071 47.14195 147.584 59.4958 76.403 138.1288 90.613 204.4588 103.309 73.463 14.062 154.692 19.718 225.645-33.206 29.641-22.109 57.754-55.947 83.514-96.34 11.676-18.308 29.903-45.186 35.312-78.302 10.424-63.804-20.292-153.838-38.667-193.09-26.595-56.812-57.673-84.435-92.694-93.4698" stroke="#30e1b9" stroke-linecap="round" stroke-linejoin="round" stroke-width="6"/></svg>