<svg fill="none" height="201" viewBox="0 0 609 201" width="609" xmlns="http://www.w3.org/2000/svg"><path d="m545.428 26.9894c-80.58-15.3176-161.805-20.90768-244.822-21.58425-74.367-.60607-175.927-11.88723-242.6955 20.25185-33.6412 16.1932-61.41554 57.4596-52.08218 87.669 6.33498 20.505 22.67758 37.723 47.29908 47.965 59.6936 24.831 138.5896 29.45 205.1396 33.576 73.708 4.57 155.208 6.408 226.398-10.792 29.74-7.186 57.946-18.183 83.792-31.311 11.715-5.95 30.003-14.685 35.43-25.448 10.458-20.736-20.359-49.9973-38.796-62.7541-26.684-18.4638-57.866-27.4414-93.003-30.3778" stroke="#30e1b9" stroke-linecap="round" stroke-linejoin="round" stroke-width="6"/></svg>