<svg fill="none" height="37" viewBox="0 0 171 37" width="171" xmlns="http://www.w3.org/2000/svg"><path d="m1.25333 9.07645c0 7.38725-.645027 15.13855.12343 22.49445.0451.4316.11096 3.1984.80233 3.3203 4.83129.8515 10.65561.0631 15.49111-.0898 10.8714-.3436 21.6302-.9572 32.5252-.9572 9.3556 0 18.7118.5385 28.0815.5385 10.5064 0 20.7502 1.6838 31.2911 1.6153 8.625-.0562 17.343-1.6179 25.983-2.0341 8.575-.413 17.076-.6581 25.674-.6581 3.424 0 9.054 1.8258 8.764-2.6323-.359-5.5289-1.509-10.8388-2.314-16.3025-.337-2.2887.332-5.46992-.463-7.62774-.244-.66147-4.66-.79876-5.246-.9273-4.613-1.01248-9.197-1.25942-13.887-1.70503-7.861-.74712-14.988-3.11093-23.02-3.11093-11.046 0-21.628.19283-32.5871 1.73494-23.74 3.3405-48.2762 2.03407-72.2095 2.03407-5.4208 0-10.89778.53843-16.23178.53843" stroke="#3dd7ac" stroke-linecap="round" stroke-linejoin="round" stroke-width="2"/></svg>