<svg fill="none" height="46" viewBox="0 0 228 46" width="228" xmlns="http://www.w3.org/2000/svg"><path d="m179.157 2.14768c-44.954-.10645-89.896-.91818-134.8475-1.08796-6.4198-.02425-12.7258-.421415-18.8994 1.20884-9.2319 2.4379-22.90028 7.28922-24.20091 16.44034-.910882 6.4088 1.10329 14.134 7.01975 18.6968 8.72086 6.7255 24.94516 6.06 35.88416 6.286 13.5512.2799 26.6516-.3203 40.0568-1.6118 6.2087-.5982 13.0568.6467 19.2431.9671 28.532 1.4774 57.072 1.8612 85.66 1.8938 5.817.0067 11.635 0 17.452 0 2.979 0 6.835.3483 9.695-.6447 7.887-2.7392 10.158-13.0401 10.701-19.1401.721-8.0965-3.503-15.0191-12.37-18.77736-4.112-1.74271-8.831-3.00886-13.451-3.42506-2.829-.25487-9.464 1.45844-11.339-.08059" stroke="#3dd7ac" stroke-linecap="round" stroke-linejoin="round" stroke-width="2"/></svg>