<svg width="609" height="201" viewBox="0 0 609 201" fill="none" xmlns="http://www.w3.org/2000/svg">
<path d="M545.428 26.9894C464.848 11.6718 383.623 6.08172 300.606 5.40515C226.239 4.79908 124.679 -6.48208 57.9105 25.657C24.2693 41.8502 -3.50504 83.1166 5.82832 113.326C12.1633 133.831 28.5059 151.049 53.1274 161.291C112.821 186.122 191.717 190.741 258.267 194.867C331.975 199.437 413.475 201.275 484.665 184.075C514.405 176.889 542.611 165.892 568.457 152.764C580.172 146.814 598.46 138.079 603.887 127.316C614.345 106.58 583.528 77.3187 565.091 64.5619C538.407 46.0981 507.225 37.1205 472.088 34.1841" stroke="#30E1B9" stroke-width="6" stroke-linecap="round" stroke-linejoin="round"/>
</svg>
