<svg fill="none" height="125" viewBox="0 0 64 125" width="64" xmlns="http://www.w3.org/2000/svg"><path d="m39.87 117.721c1.6543-.091 2.9212-1.506 2.8297-3.161l-1.4911-26.9585c-.0915-1.6543-1.5068-2.9212-3.1611-2.8297s-2.9213 1.5068-2.8298 3.1611l1.3255 23.9631-23.9634 1.326c-1.6543.091-2.92123 1.506-2.82973 3.161.0915 1.654 1.50673 2.921 3.16113 2.83zm8.0081-112.43389c-18.3533 13.14229-28.4284 26.73479-32.98 39.90429-4.5554 13.1806-3.4696 25.6248-.0604 36.2627 3.3984 10.6038 9.1173 19.4639 13.9379 25.6409 2.4175 3.098 4.628 5.545 6.2419 7.224.8074.841 1.4671 1.49 1.9305 1.935.2317.223.4146.394.5424.513.064.059.1142.105.1499.137.0179.017.0321.029.0427.039.0052.005.0096.009.013.012.0017.001.0035.003.0044.004.0016.001.003.002 2.0039-2.233s2.0018-2.234 2.0025-2.234c-.0001 0 .0003 0 .0001 0-.0003 0-.0016-.001-.0038-.003-.0044-.004-.0125-.011-.0242-.022-.0233-.021-.0609-.056-.1121-.103-.1023-.095-.2589-.241-.4637-.438-.4096-.393-1.0118-.986-1.7591-1.764-1.4958-1.557-3.5671-3.848-5.8383-6.758-4.5568-5.8391-9.8427-14.0724-12.9542-23.7811-3.1006-9.6746-4.0297-20.7617.0175-32.4716 4.0509-11.7211 13.1958-24.3784 30.8023-36.9859z" fill="#3dd7ac"/></svg>