<?xml version="1.0" encoding="utf-8"?>
<!-- Generator: Adobe Illustrator 26.2.1, SVG Export Plug-In . SVG Version: 6.00 Build 0)  -->
<svg version="1.1" id="Ebene_1" xmlns="http://www.w3.org/2000/svg" xmlns:xlink="http://www.w3.org/1999/xlink" x="0px" y="0px"
	 viewBox="0 0 609.9 607" style="enable-background:new 0 0 609.9 607;" xml:space="preserve">
<style type="text/css">
	.st0{fill:#070021;}
	.st1{fill:none;stroke:#3DD7AC;stroke-width:3;}
	.st2{fill:#3DD7AC;}
	.st3{fill:#FFFFFF;}
</style>
<g>
	<ellipse class="st0" cx="305.4" cy="303.5" rx="304.5" ry="303.5"/>
	<path class="st1" d="M608.4,303.5c0,166.8-135.7,302-303,302s-303-135.2-303-302s135.7-302,303-302S608.4,136.7,608.4,303.5z"/>
</g>
<g>
	<path class="st2" d="M520.7,88.5c28.3,28.3,50.7,61.8,66,98.8c15.3,36.9,23.2,76.5,23.2,116.5c0,40-7.9,79.6-23.2,116.5
		c-15.3,36.9-37.7,70.5-66,98.8l-43.1-43c22.6-22.6,40.6-49.5,52.8-79c12.2-29.5,18.5-61.2,18.5-93.2c0-32-6.3-63.6-18.5-93.2
		c-12.2-29.5-30.2-56.4-52.8-79L520.7,88.5z"/>
</g>
<g>
	<path class="st2" d="M89.2,518.8c-28.3-28.3-50.7-61.8-66-98.8C7.9,383.1,0,343.5,0,303.5c0-40,7.9-79.6,23.2-116.5
		c15.3-36.9,37.7-70.5,66-98.8l43.1,43c-22.6,22.6-40.6,49.5-52.8,79c-12.2,29.5-18.5,61.2-18.5,93.2c0,32,6.3,63.6,18.5,93.2
		c12.2,29.5,30.2,56.4,52.8,79L89.2,518.8z"/>
</g>
<g>
	<path class="st3" d="M316.9,162c18.3,0,34.8,2.7,49.5,8s28.5,13.5,41.5,24.5l-34,47c-16.7-12.7-33.5-19-50.5-19
		c-17.7,0-31,6.5-40,19.5s-13.5,34-13.5,63c0,28,4.5,47.8,13.5,59.5s22,17.5,39,17.5c9,0,17.2-1.3,24.5-4c7.3-3,16.2-7.7,26.5-14
		l34.5,49c-26.3,21-56.2,31.5-89.5,31.5c-27,0-50.3-5.7-70-17c-19.7-11.7-34.8-27.8-45.5-48.5c-10.7-21-16-45.5-16-73.5
		s5.3-52.8,16-74.5s25.8-38.5,45.5-50.5C268.1,168.2,290.9,162,316.9,162z"/>
</g>
</svg>
