<svg fill="none" height="31" viewBox="0 0 31 31" width="31" xmlns="http://www.w3.org/2000/svg"><path d="m30.1167 15.4782c0-8.39261-6.6817-15.187228-14.913-15.187228-8.23136 0-14.913002 6.794618-14.913002 15.187228 0 8.3925 6.681642 15.1872 14.913002 15.1872 8.2313 0 14.913-6.7947 14.913-15.1872z" fill="#10375c" stroke="#ffda19" stroke-width=".581395"/><path d="m14.1163 22.0479c2.0564 0 3.7029-.4651 4.9393-1.3951 1.249-.9174 1.8735-2.6078 1.8735-5.0711 0-2.4256-.6056-4.1348-1.8168-5.1277-1.2111-.9803-2.7819-1.47045-4.7122-1.47045h-3.9362v13.06435zm-.5488-2.2434v-8.5776h1.0219c1.0219 0 1.7978.3142 2.3277.9426.5299.641.7948 1.7784.7948 3.4122 0 1.1185-.1324 1.9857-.3974 2.6015-.2649.6159-.6245 1.0369-1.0787 1.2631-.4542.2388-1.0156.3582-1.6843.3582z" fill="#f4f6ff"/><g fill="#f3c623"><path d="m26.004 26.5078c1.4114-1.4415 2.5309-3.1529 3.2947-5.0364s1.157-3.9022 1.157-5.9409c0-2.0386-.3932-4.0573-1.157-5.94084-.7638-1.88346-1.8833-3.59485-3.2947-5.03641l-2.1495 2.19547c1.1291 1.15326 2.0247 2.52236 2.6358 4.02918.611 1.5067.9256 3.1217.9256 4.7526 0 1.631-.3146 3.2459-.9256 4.7527-.6111 1.5068-1.5067 2.8759-2.6358 4.0292z"/><path d="m4.45659 4.4624c-1.41137 1.44156-2.5309 3.15295-3.29473 5.03646-.763828 1.88344-1.15697719 3.90214-1.15697719 5.94084s.39314919 4.0574 1.15697719 5.9409c.76383 1.8834 1.88336 3.5948 3.29473 5.0364l2.14949-2.1955c-1.12907-1.1532-2.02476-2.5223-2.63581-4.0291-.61104-1.5068-.92555-3.1218-.92555-4.7527s.31451-3.2459.92555-4.7527c.61105-1.50677 1.50674-2.87587 2.63581-4.02913z"/></g></svg>