<svg enable-background="new 0 0 609.9 607" viewBox="0 0 609.9 607" xmlns="http://www.w3.org/2000/svg"><ellipse cx="305.4" cy="303.5" fill="#070021" rx="304.5" ry="303.5"/><path d="m608.4 303.5c0 166.8-135.7 302-303 302s-303-135.2-303-302 135.7-302 303-302 303 135.2 303 302z" fill="none" stroke="#3dd7ac" stroke-width="3"/><path d="m520.7 88.5c28.3 28.3 50.7 61.8 66 98.8 15.3 36.9 23.2 76.5 23.2 116.5s-7.9 79.6-23.2 116.5-37.7 70.5-66 98.8l-43.1-43c22.6-22.6 40.6-49.5 52.8-79s18.5-61.2 18.5-93.2-6.3-63.6-18.5-93.2c-12.2-29.5-30.2-56.4-52.8-79z" fill="#3dd7ac"/><path d="m89.2 518.8c-28.3-28.3-50.7-61.8-66-98.8-15.3-36.9-23.2-76.5-23.2-116.5s7.9-79.6 23.2-116.5 37.7-70.5 66-98.8l43.1 43c-22.6 22.6-40.6 49.5-52.8 79s-18.5 61.2-18.5 93.2 6.3 63.6 18.5 93.2c12.2 29.5 30.2 56.4 52.8 79z" fill="#3dd7ac"/><path d="m316.9 162c18.3 0 34.8 2.7 49.5 8s28.5 13.5 41.5 24.5l-34 47c-16.7-12.7-33.5-19-50.5-19-17.7 0-31 6.5-40 19.5s-13.5 34-13.5 63c0 28 4.5 47.8 13.5 59.5s22 17.5 39 17.5c9 0 17.2-1.3 24.5-4 7.3-3 16.2-7.7 26.5-14l34.5 49c-26.3 21-56.2 31.5-89.5 31.5-27 0-50.3-5.7-70-17-19.7-11.7-34.8-27.8-45.5-48.5-10.7-21-16-45.5-16-73.5s5.3-52.8 16-74.5 25.8-38.5 45.5-50.5c19.7-12.3 42.5-18.5 68.5-18.5z" fill="#fff"/></svg>