<svg width="651" height="176" viewBox="0 0 651 176" fill="none" xmlns="http://www.w3.org/2000/svg">
<g filter="url(#filter0_d_2739_906)">
<path d="M115.313 115.035C115.313 120.708 114.45 125.888 112.723 130.575C111.12 135.138 108.16 139.085 103.843 142.415C99.6495 145.622 93.8528 148.15 86.4527 150C79.0526 151.85 69.6175 152.775 58.1474 152.775C46.6772 152.775 37.2421 151.85 29.842 150C22.4419 148.15 16.5835 145.622 12.2668 142.415C8.07343 139.085 5.1134 135.138 3.38671 130.575C1.78336 125.888 0.981681 120.708 0.981681 115.035V23.4585C0.981681 21.1151 1.47502 19.4501 2.4617 18.4634C3.57171 17.3534 5.2984 16.7984 7.64176 16.7984H36.6871C39.0305 16.7984 40.6955 17.3534 41.6822 18.4634C42.7922 19.4501 43.3472 21.1151 43.3472 23.4585V107.819C43.3472 110.286 44.2722 112.383 46.1222 114.11C47.9722 115.713 52.104 116.515 58.5174 116.515C65.0541 116.515 69.2475 115.713 71.0975 114.11C72.9475 112.383 73.8725 110.286 73.8725 107.819V23.4585C73.8725 21.1151 74.3659 19.4501 75.3526 18.4634C76.4626 17.3534 78.1893 16.7984 80.5326 16.7984H108.653C110.996 16.7984 112.661 17.3534 113.648 18.4634C114.758 19.4501 115.313 21.1151 115.313 23.4585V115.035ZM179.711 143.34C179.711 145.683 179.156 147.41 178.046 148.52C177.059 149.507 175.394 150 173.051 150H144.931C142.587 150 140.861 149.507 139.751 148.52C138.764 147.41 138.271 145.683 138.271 143.34V123.545C138.271 117.871 138.764 113.616 139.751 110.78C140.737 107.943 142.587 104.613 145.301 100.789L160.286 80.6242L145.301 60.4589C142.464 56.6356 140.552 53.3055 139.566 50.4688C138.702 47.6321 138.271 43.3771 138.271 37.7037V23.4585C138.271 21.1151 138.764 19.4501 139.751 18.4634C140.861 17.3534 142.587 16.7984 144.931 16.7984H173.421C175.764 16.7984 177.429 17.3534 178.416 18.4634C179.526 19.4501 180.081 21.1151 180.081 23.4585V36.2237C180.081 37.457 180.143 38.752 180.266 40.1087C180.389 41.4654 180.883 42.7604 181.746 43.9937L189.886 55.6489C190.503 56.6356 191.12 57.4372 191.736 58.0539C192.476 58.5473 193.34 58.7939 194.326 58.7939H196.546C197.533 58.7939 198.335 58.5473 198.951 58.0539C199.568 57.4372 200.246 56.6356 200.986 55.6489L209.311 43.9937C210.175 42.7604 210.668 41.4654 210.792 40.1087C210.915 38.752 210.977 37.457 210.977 36.2237V23.4585C210.977 21.1151 211.47 19.4501 212.457 18.4634C213.567 17.3534 215.293 16.7984 217.637 16.7984H245.757C248.1 16.7984 249.765 17.3534 250.752 18.4634C251.862 19.4501 252.417 21.1151 252.417 23.4585V37.7037C252.417 43.3771 251.924 47.6321 250.937 50.4688C249.95 53.3055 248.1 56.6356 245.387 60.4589L230.402 80.8092L245.387 100.789C248.224 104.613 250.074 107.943 250.937 110.78C251.924 113.616 252.417 117.871 252.417 123.545V143.34C252.417 145.683 251.862 147.41 250.752 148.52C249.765 149.507 248.1 150 245.757 150H217.637C215.293 150 213.567 149.507 212.457 148.52C211.47 147.41 210.977 145.683 210.977 143.34V125.025C210.977 123.791 210.915 122.496 210.792 121.14C210.668 119.783 210.175 118.488 209.311 117.255L201.171 105.599C200.431 104.489 199.753 103.688 199.136 103.194C198.52 102.701 197.718 102.454 196.731 102.454H194.141C193.155 102.454 192.353 102.701 191.736 103.194C191.12 103.688 190.441 104.489 189.701 105.599L181.376 117.255C180.513 118.488 180.019 119.783 179.896 121.14C179.773 122.496 179.711 123.791 179.711 125.025V143.34ZM306.422 159.99L328.622 6.8083C328.869 4.46494 329.424 2.79992 330.287 1.81324C331.274 0.703228 332.939 0.148221 335.282 0.148221H362.107C364.451 0.148221 366.177 0.703228 367.287 1.81324C368.521 2.79992 369.014 4.46494 368.767 6.8083L346.567 159.99C346.321 162.333 345.704 163.998 344.717 164.985C343.854 166.095 342.25 166.65 339.907 166.65H313.082C310.738 166.65 308.95 166.095 307.717 164.985C306.607 163.998 306.175 162.333 306.422 159.99ZM536.988 115.035C536.988 120.708 536.125 125.888 534.398 130.575C532.795 135.138 529.835 139.085 525.518 142.415C521.324 145.622 515.528 148.15 508.128 150C500.728 151.85 491.292 152.775 479.822 152.775C468.352 152.775 458.917 151.85 451.517 150C444.117 148.15 438.258 145.622 433.942 142.415C429.748 139.085 426.788 135.138 425.062 130.575C423.458 125.888 422.657 120.708 422.657 115.035V23.4585C422.657 21.1151 423.15 19.4501 424.137 18.4634C425.247 17.3534 426.973 16.7984 429.317 16.7984H458.362C460.705 16.7984 462.37 17.3534 463.357 18.4634C464.467 19.4501 465.022 21.1151 465.022 23.4585V107.819C465.022 110.286 465.947 112.383 467.797 114.11C469.647 115.713 473.779 116.515 480.192 116.515C486.729 116.515 490.922 115.713 492.772 114.11C494.622 112.383 495.547 110.286 495.547 107.819V23.4585C495.547 21.1151 496.041 19.4501 497.027 18.4634C498.137 17.3534 499.864 16.7984 502.208 16.7984H530.328C532.671 16.7984 534.336 17.3534 535.323 18.4634C536.433 19.4501 536.988 21.1151 536.988 23.4585V115.035ZM565.311 150C562.967 150 561.241 149.507 560.131 148.52C559.144 147.41 558.651 145.683 558.651 143.34V121.325C558.651 118.981 559.144 117.316 560.131 116.33C561.241 115.22 562.967 114.665 565.311 114.665H583.626V52.5038H565.311C562.967 52.5038 561.241 52.0105 560.131 51.0238C559.144 49.9138 558.651 48.1871 558.651 45.8438V23.4585C558.651 21.1151 559.144 19.4501 560.131 18.4634C561.241 17.3534 562.967 16.7984 565.311 16.7984H644.122C646.465 16.7984 648.13 17.3534 649.117 18.4634C650.227 19.4501 650.782 21.1151 650.782 23.4585V45.8438C650.782 48.1871 650.227 49.9138 649.117 51.0238C648.13 52.0105 646.465 52.5038 644.122 52.5038H626.176V114.665H644.122C646.465 114.665 648.13 115.22 649.117 116.33C650.227 117.316 650.782 118.981 650.782 121.325V143.34C650.782 145.683 650.227 147.41 649.117 148.52C648.13 149.507 646.465 150 644.122 150H565.311Z" fill="#FFDA1A"/>
</g>
<defs>
<filter id="filter0_d_2739_906" x="0.982422" y="0.148438" width="649.799" height="175.752" filterUnits="userSpaceOnUse" color-interpolation-filters="sRGB">
<feFlood flood-opacity="0" result="BackgroundImageFix"/>
<feColorMatrix in="SourceAlpha" type="matrix" values="0 0 0 0 0 0 0 0 0 0 0 0 0 0 0 0 0 0 127 0" result="hardAlpha"/>
<feOffset dy="9.25011"/>
<feColorMatrix type="matrix" values="0 0 0 0 0.117647 0 0 0 0 0.133333 0 0 0 0 0.666667 0 0 0 1 0"/>
<feBlend mode="normal" in2="BackgroundImageFix" result="effect1_dropShadow_2739_906"/>
<feBlend mode="normal" in="SourceGraphic" in2="effect1_dropShadow_2739_906" result="shape"/>
</filter>
</defs>
</svg>
