<svg width="692" height="220" viewBox="0 0 692 220" fill="none" xmlns="http://www.w3.org/2000/svg">
<g filter="url(#filter0_d)">
<path d="M122.557 36.1985C121.94 36.0752 121.57 36.0752 121.447 36.1985C121.447 36.1985 121.447 36.3218 121.447 36.5685C121.57 36.6918 121.57 36.7535 121.447 36.7535C121.324 36.7535 121.015 36.5685 120.522 36.1985C121.879 34.1018 123.605 32.9918 125.702 32.8685C127.922 32.6218 129.895 32.8685 131.622 33.6085C133.349 34.3485 134.459 35.2118 134.952 36.1985C135.569 37.1852 136 38.7269 136.247 40.8236C136.247 41.8102 135.815 44.0303 134.952 47.4836C134.089 50.937 132.917 55.0071 131.437 59.6938C129.957 64.3805 128.354 69.4372 126.627 74.864C124.9 80.1674 123.174 85.2241 121.447 90.0341C119.844 94.7209 118.302 98.9143 116.822 102.614C115.465 106.191 114.478 108.596 113.862 109.829C113.245 110.939 112.875 111.803 112.752 112.419C112.752 113.036 112.628 113.776 112.382 114.639C111.395 117.846 110.285 120.806 109.052 123.52C107.942 126.11 106.708 129.501 105.352 133.695L102.022 144.795C100.912 146.891 99.925 149.667 99.0616 153.12C98.3216 156.573 97.6433 159.595 97.0266 162.185C96.6566 161.445 96.4716 160.89 96.4716 160.52C96.4716 160.027 96.5333 159.657 96.6566 159.41C96.7799 159.04 96.9033 158.608 97.0266 158.115C97.2733 157.622 97.3966 156.882 97.3966 155.895C97.3966 155.772 97.3966 155.525 97.3966 155.155C97.3966 154.785 97.3966 154.538 97.3966 154.415C97.3966 154.168 97.3349 154.107 97.2116 154.23C97.0883 154.23 96.8416 154.6 96.4716 155.34C96.1016 155.957 95.9166 156.512 95.9166 157.005C95.9166 157.375 95.9166 157.745 95.9166 158.115C96.0399 158.485 96.0399 158.917 95.9166 159.41C95.9166 159.903 95.7316 160.582 95.3616 161.445C95.1149 161.815 95.0532 162.185 95.1766 162.555C95.2999 162.925 95.3616 163.295 95.3616 163.665C95.4849 164.035 95.4849 164.405 95.3616 164.775C95.2382 165.268 94.8682 165.823 94.2516 166.44C94.2516 166.44 94.1899 166.687 94.0666 167.18C94.0666 167.673 94.0049 168.167 93.8815 168.66C93.7582 169.277 93.5732 169.832 93.3265 170.325C93.2032 170.818 93.0182 171.065 92.7715 171.065C92.7715 170.695 92.7715 170.202 92.7715 169.585C92.7715 168.968 92.7715 168.475 92.7715 168.105C92.7715 167.735 92.7099 167.673 92.5865 167.92C92.4632 168.167 92.2165 168.907 91.8465 170.14C91.5999 171.127 91.5999 172.113 91.8465 173.1C92.2165 174.21 92.2165 175.567 91.8465 177.17C91.9699 177.417 91.9699 177.664 91.8465 177.91C91.7232 178.157 91.6615 178.404 91.6615 178.65C91.5382 179.144 91.3532 179.575 91.1065 179.945C90.9832 180.439 90.7982 180.932 90.5515 181.425C90.1815 182.412 89.8732 182.967 89.6265 183.09C89.5032 183.214 89.3798 183.214 89.2565 183.09C89.1332 183.09 88.8865 183.09 88.5165 183.09C88.1465 183.09 87.5915 183.399 86.8515 184.015L85.1865 183.275C84.0764 181.425 83.4598 179.205 83.3364 176.615C83.3364 174.025 83.5214 171.312 83.8914 168.475C84.2614 165.762 84.7548 163.11 85.3714 160.52C86.1115 157.93 86.7281 155.71 87.2215 153.86L97.5816 122.04C98.1983 120.313 98.4449 119.141 98.3216 118.524C98.1983 117.908 98.3833 117.106 98.8766 116.119L106.277 97.0642C106.523 95.7075 106.647 94.5975 106.647 93.7342C106.647 92.7475 106.955 91.5758 107.572 90.2192C108.188 88.8625 108.805 87.3208 109.422 85.5941C110.038 83.8674 110.593 82.1407 111.087 80.414C110.84 80.6607 110.593 80.9074 110.347 81.154C110.223 81.4007 110.162 81.6474 110.162 81.894C109.915 82.5107 109.422 83.1891 108.682 83.9291C107.942 84.5457 107.14 85.2241 106.277 85.9641C105.537 86.5808 104.858 87.1358 104.242 87.6291C103.625 88.1225 103.317 88.4308 103.317 88.5541C103.44 89.5408 103.132 90.0958 102.392 90.2192C101.775 90.2192 101.405 90.5275 101.282 91.1442C101.035 92.5008 100.48 93.6109 99.6166 94.4742C98.7533 95.3375 98.4449 95.5225 98.6916 95.0292C99.1849 93.9192 99.3083 93.3025 99.0616 93.1792C98.9383 93.0558 98.6299 93.1792 98.1366 93.5492C97.7666 93.7959 97.2733 94.1659 96.6566 94.6592C96.1632 95.0292 95.8549 95.1525 95.7316 95.0292C95.7316 94.7825 95.9166 94.4742 96.2866 94.1042C96.7799 93.6109 97.1499 93.3642 97.3966 93.3642C98.2599 92.9942 98.8766 92.7475 99.2466 92.6242C99.74 92.3775 100.048 92.1308 100.172 91.8842C100.418 91.6375 100.542 91.3908 100.542 91.1442C100.665 90.7742 100.85 90.2808 101.097 89.6641C101.097 89.5408 101.405 89.1708 102.022 88.5541C102.638 87.8141 103.317 87.0741 104.057 86.3341C104.797 85.5941 105.475 84.9774 106.092 84.4841C106.832 83.8674 107.263 83.4974 107.387 83.3741V83.0041C107.263 82.3874 106.832 82.3874 106.092 83.0041C105.352 83.4974 104.858 83.8674 104.612 84.1141C104.365 84.3607 104.303 84.3607 104.427 84.1141C104.673 83.7441 104.92 83.3741 105.167 83.0041C105.537 82.6341 105.907 82.2641 106.277 81.894C106.647 81.4007 106.955 81.154 107.202 81.154V79.674C106.215 81.0307 105.105 82.3874 103.872 83.7441C102.638 84.9774 101.405 86.3341 100.172 87.8141C98.8149 89.4175 97.7666 90.8358 97.0266 92.0692C96.2866 93.1792 95.1766 94.6592 93.6965 96.5092L95.9166 97.2492C95.9166 97.4959 95.8549 97.6809 95.7316 97.8042C95.7316 97.8042 95.7316 97.9276 95.7316 98.1742C95.9782 98.0509 96.1016 97.9892 96.1016 97.9892C96.2249 97.8659 96.4099 97.7426 96.6566 97.6192C97.2733 97.3726 97.5816 97.1259 97.5816 96.8792C97.5816 96.6326 98.0749 96.4476 99.0616 96.3242C100.048 96.0776 100.603 95.8926 100.727 95.7692C100.973 95.6459 100.418 96.0776 99.0616 97.0642C98.0749 97.8042 97.4583 98.2359 97.2116 98.3592C97.0883 98.3592 96.7182 98.8526 96.1016 99.8393C96.8416 99.5926 97.3966 99.4076 97.7666 99.2843C98.1366 99.0376 99.185 99.0376 100.912 99.2843C99.925 99.9009 99.1233 100.703 98.5066 101.689C97.8899 102.676 97.4583 103.663 97.2116 104.649C96.9649 105.266 96.8416 105.513 96.8416 105.389C96.9649 105.266 96.9033 105.513 96.6566 106.129C96.1632 106.869 95.7316 107.363 95.3616 107.609C95.1149 107.733 94.6832 108.041 94.0666 108.534C93.3265 109.151 92.8332 109.644 92.5865 110.014C92.3399 110.261 92.1549 110.508 92.0315 110.754C91.9082 111.001 91.7849 111.309 91.6615 111.679C91.5382 111.926 91.1682 112.419 90.5515 113.159C89.4415 114.516 87.8381 116.119 85.7415 117.969C83.7681 119.696 81.1781 122.656 77.9714 126.85C76.9847 128.083 76.183 128.885 75.5663 129.255C75.073 129.501 74.3947 130.118 73.5313 131.105C72.1746 132.461 70.8796 133.941 69.6463 135.545C68.5362 137.025 67.3029 138.628 65.9462 140.355C65.4529 140.971 64.7745 141.65 63.9112 142.39C63.1712 143.006 62.5545 143.623 62.0612 144.24C61.3212 144.98 60.8278 145.781 60.5812 146.645C60.4578 147.385 60.0878 148.248 59.4711 149.235C58.8545 149.852 58.0528 150.468 57.0661 151.085C56.2028 151.702 55.4628 152.318 54.8461 152.935C52.7494 155.402 51.0844 157.868 49.851 160.335C48.6177 162.802 47.1377 165.083 45.411 167.18C45.1643 167.303 44.9793 167.427 44.856 167.55C44.7326 167.673 44.5476 167.797 44.301 167.92C44.5476 167.92 44.671 167.612 44.671 166.995C44.9176 166.378 45.1643 165.7 45.411 164.96C45.781 164.22 46.0893 163.542 46.336 162.925C46.706 162.678 46.891 162.432 46.891 162.185C46.891 161.938 46.8293 161.938 46.706 162.185C46.5827 162.925 46.151 163.603 45.411 164.22C44.7943 164.96 44.301 165.7 43.931 166.44C43.3143 168.167 42.5126 169.215 41.5259 169.585C40.5393 169.955 39.9226 170.633 39.6759 171.62C39.1826 171.99 38.7509 172.298 38.3809 172.545C38.0109 172.915 37.7026 173.285 37.4559 173.655C36.3459 174.642 35.6059 175.567 35.2359 176.43C34.9892 177.294 34.2492 178.219 33.0158 179.205C30.5491 180.932 27.4658 182.227 23.7657 183.09C20.0657 183.954 16.2423 183.337 12.2956 181.24C8.84221 179.267 6.25218 176.369 4.52549 172.545C2.79881 168.845 1.68879 164.59 1.19545 159.78C0.825449 154.847 0.887116 149.728 1.38046 144.425C1.99713 138.998 2.79881 133.695 3.78548 128.515C4.77216 123.211 5.75884 118.339 6.74552 113.899C7.85553 109.336 8.71888 105.513 9.33555 102.429C8.96554 103.046 8.71888 103.601 8.59554 104.094C8.47221 104.588 8.16387 105.389 7.67053 106.499C7.67053 106.623 7.54719 107.054 7.30053 107.794C7.17719 108.411 6.99219 109.151 6.74552 110.014C6.62218 110.754 6.43718 111.494 6.19051 112.234C6.06718 112.851 6.00551 113.159 6.00551 113.159C5.14217 113.653 4.71049 114.146 4.71049 114.639C4.58716 114.886 4.58716 115.133 4.71049 115.379C4.71049 114.393 5.0805 112.789 5.82051 110.569C6.56052 108.349 7.05386 106.623 7.30053 105.389C7.54719 104.526 7.79386 103.909 8.04053 103.539C8.2872 103.046 8.53387 102.676 8.78054 102.429C9.02721 102.059 9.21221 101.689 9.33555 101.319C9.58222 100.949 9.82889 100.271 10.0756 99.2843C10.0756 98.6676 10.0756 98.1126 10.0756 97.6192C10.1989 97.1259 10.1989 96.7559 10.0756 96.5092C9.45888 97.3726 9.02721 98.1742 8.78054 98.9143C8.65721 99.6543 8.2872 100.456 7.67053 101.319C7.67053 100.333 7.7322 99.2843 7.85553 98.1742C8.1022 97.0642 8.34887 95.8926 8.59554 94.6592C8.71888 94.6592 8.96554 94.4742 9.33555 94.1042C9.58222 93.7342 9.70555 93.6109 9.70555 93.7342C9.70555 93.7342 9.64389 93.3642 9.52055 92.6242L9.33555 92.0692C10.3222 92.1925 10.8156 91.8225 10.8156 90.9592C10.8156 90.0958 10.9389 89.5408 11.1856 89.2941C11.4322 89.0475 11.6172 88.7391 11.7406 88.3691C11.8639 87.9991 11.8022 87.9375 11.5556 88.1841C11.1856 88.5541 11.0622 88.5541 11.1856 88.1841C11.3089 87.6908 11.4939 87.0741 11.7406 86.3341C12.1106 85.5941 12.4806 84.9158 12.8506 84.2991C13.2206 83.5591 13.4056 83.1891 13.4056 83.1891C13.5289 82.9424 13.7139 82.5107 13.9606 81.894C14.2073 81.2774 14.3923 80.784 14.5156 80.414C14.6389 80.044 14.6389 79.9207 14.5156 80.044C14.3923 80.044 14.0223 80.4757 13.4056 81.339C13.4056 81.4624 13.1589 81.894 12.6656 82.6341C12.2956 83.2507 12.3573 83.3124 12.8506 82.8191C12.7273 82.6957 12.7273 82.0791 12.8506 80.969C13.0973 79.859 13.4056 78.9957 13.7756 78.379C14.0223 78.1323 14.1456 77.5157 14.1456 76.529C14.2689 75.5423 14.2073 74.679 13.9606 73.939C14.3306 71.9656 14.7623 69.8072 15.2556 67.4639C15.749 65.1205 16.1806 62.7772 16.5506 60.4338C17.044 58.0904 17.3523 55.8704 17.4756 53.7737C17.7223 51.5537 17.6606 49.642 17.2906 48.0386C18.0307 47.6686 18.4623 47.422 18.5857 47.2986C18.709 47.052 18.7707 46.867 18.7707 46.7436C18.894 46.6203 19.079 46.497 19.3257 46.3736C19.6957 46.2503 20.374 46.127 21.3607 46.0036C22.7174 45.757 23.8274 45.757 24.6907 46.0036C25.6774 46.127 26.7874 46.4353 28.0208 46.9286C32.0908 48.532 33.5092 51.492 32.2758 55.8087C31.7825 57.4121 31.1041 58.9538 30.2408 60.4338C29.5008 61.7905 29.0074 63.5788 28.7608 65.7989C28.5141 67.6489 28.4524 69.7456 28.5758 72.0889C28.8224 74.4323 28.8224 76.4673 28.5758 78.194C27.8358 82.5107 26.7258 86.4574 25.2457 90.0341C23.7657 93.6109 22.5324 97.4342 21.5457 101.504C21.299 102.614 20.6824 104.218 19.6957 106.314C18.8323 108.288 18.2157 109.768 17.8457 110.754C17.7223 111.741 17.784 112.543 18.0307 113.159C18.2773 113.776 18.339 114.393 18.2157 115.009C17.969 115.749 17.599 116.674 17.1056 117.784C16.7356 118.894 16.489 119.943 16.3656 120.93C15.749 123.766 15.194 126.911 14.7006 130.365C14.2073 133.695 13.8373 137.21 13.5906 140.91C14.2073 141.773 14.3306 142.636 13.9606 143.5C13.7139 144.24 13.6523 145.041 13.7756 145.905C13.8989 147.261 13.7756 148.31 13.4056 149.05C13.1589 149.79 13.1589 151.085 13.4056 152.935C13.4056 153.058 13.4056 153.552 13.4056 154.415C13.4056 155.155 13.3439 155.957 13.2206 156.82C13.3439 159.657 13.5289 162.308 13.7756 164.775C14.0223 167.242 14.5156 169.523 15.2556 171.62C15.749 172.977 16.304 173.717 16.9206 173.84C17.5373 174.087 18.2157 173.902 18.9557 173.285C19.819 172.668 20.744 171.743 21.7307 170.51C22.7174 169.4 23.8891 168.29 25.2457 167.18C29.3158 163.48 32.9542 159.41 36.1609 154.97C39.4909 150.53 42.9443 146.213 46.521 142.02L66.5012 117.229C66.8712 116.736 67.1179 116.304 67.2412 115.934C67.4879 115.564 67.6729 115.256 67.7962 115.009C67.9196 114.763 68.0429 114.516 68.1662 114.269C68.4129 114.023 68.7829 113.653 69.2763 113.159C71.4963 110.939 73.5313 108.596 75.3813 106.129C77.2314 103.663 79.2047 101.134 81.3014 98.5442C81.7947 97.8042 82.2264 97.2492 82.5964 96.8792C82.9664 96.3859 83.4598 95.8309 84.0764 95.2142L92.7715 84.1141C94.0049 82.7574 95.9166 80.3524 98.5066 76.899C101.097 73.4456 103.748 69.7456 106.462 65.7989C109.298 61.8521 111.827 58.0288 114.047 54.3287C116.39 50.6287 117.87 47.7303 118.487 45.6336C118.857 44.4003 119.227 43.4753 119.597 42.8586C119.967 42.1186 120.337 41.5019 120.707 41.0086C121.077 40.3919 121.385 39.7752 121.632 39.1585C122.002 38.4185 122.31 37.4319 122.557 36.1985ZM15.2556 134.435C15.2556 133.941 15.2556 133.88 15.2556 134.25C15.379 134.62 15.5023 134.928 15.6256 135.175C15.379 136.285 15.194 137.025 15.0706 137.395C14.9473 137.641 14.8856 137.888 14.8856 138.135C14.8856 138.258 14.9473 138.505 15.0706 138.875C15.3173 139.121 15.6256 139.738 15.9956 140.725C16.2423 141.465 16.3656 141.958 16.3656 142.205C16.489 142.328 16.4273 142.636 16.1806 143.13C15.934 143.623 15.6873 144.301 15.4406 145.165C15.3173 146.028 15.194 146.953 15.0706 147.94C14.9473 148.927 14.8239 149.913 14.7006 150.9C14.7006 151.763 14.7006 152.442 14.7006 152.935C14.9473 154.538 14.9473 155.895 14.7006 157.005C14.5773 158.115 14.2073 159.348 13.5906 160.705C13.4673 160.952 13.4056 160.705 13.4056 159.965C13.5289 159.102 13.6523 158.177 13.7756 157.19C13.8989 156.08 13.9606 155.032 13.9606 154.045C14.0839 152.935 14.1456 152.257 14.1456 152.01C13.8989 150.407 14.0223 148.557 14.5156 146.46C15.009 144.363 15.1323 143.006 14.8856 142.39C14.2689 141.28 13.9606 140.416 13.9606 139.8C13.9606 139.06 14.0223 138.443 14.1456 137.95C14.3923 137.333 14.6389 136.778 14.8856 136.285C15.1323 135.791 15.2556 135.175 15.2556 134.435ZM107.572 82.0791C107.695 82.8191 107.88 83.1274 108.127 83.0041C108.497 82.7574 108.867 82.3257 109.237 81.7091C109.607 81.0924 109.977 80.414 110.347 79.674C110.84 78.934 111.272 78.379 111.642 78.009C111.888 77.7623 111.888 77.454 111.642 77.084L107.572 82.0791ZM88.7015 113.344C88.9482 112.851 88.8865 112.481 88.5165 112.234C88.2698 111.988 88.6398 111.618 89.6265 111.124C89.7498 111.124 89.8115 110.878 89.8115 110.384C89.8115 109.891 89.2565 110.199 88.1465 111.309C87.5298 111.679 87.2215 112.173 87.2215 112.789C87.3448 113.283 86.9131 113.899 85.9265 114.639C85.6798 114.886 85.1864 115.071 84.4464 115.194C83.7064 115.194 83.0898 116.058 82.5964 117.784C82.4731 118.401 82.1031 119.018 81.4864 119.634C80.9931 120.128 80.6231 120.683 80.3764 121.3C80.0064 122.41 79.4514 123.088 78.7114 123.335C77.9714 123.581 77.6014 123.89 77.6014 124.26C77.3547 124.506 77.6014 124.26 78.3414 123.52C79.2047 122.78 79.9447 122.41 80.5614 122.41C80.9314 122.41 81.1781 122.286 81.3014 122.04C81.4247 121.793 81.5481 121.485 81.6714 121.115C81.7947 120.745 81.9181 120.375 82.0414 120.005C82.2881 119.511 82.7198 119.079 83.3364 118.709C83.7064 118.339 83.8298 117.846 83.7064 117.229C83.5831 116.613 83.7681 116.304 84.2614 116.304C84.3848 116.304 84.4464 116.489 84.4464 116.859C84.4464 117.229 84.3848 117.599 84.2614 117.969C84.1381 118.216 84.0764 118.401 84.0764 118.524C84.1998 118.648 84.4464 118.401 84.8164 117.784C85.3098 117.044 85.5564 116.736 85.5564 116.859C85.6798 116.983 85.6798 116.551 85.5564 115.564C85.4331 115.441 85.7415 115.256 86.4815 115.009C87.2215 114.639 87.7148 114.393 87.9615 114.269C87.9615 114.146 87.9615 114.331 87.9615 114.824C88.0848 115.318 88.3932 115.194 88.8865 114.454C89.0098 114.084 89.1948 113.961 89.4415 114.084C89.6882 114.208 89.5032 114.023 88.8865 113.529L88.7015 113.344ZM130.94 139.43C132.05 138.196 133.838 135.976 136.305 132.77C138.772 129.563 141.362 126.233 144.075 122.78C146.912 119.203 149.687 115.934 152.4 112.974C155.113 109.891 157.21 107.856 158.69 106.869C160.787 105.513 162.76 103.724 164.61 101.504C166.46 99.2843 168.249 97.2492 169.975 95.3992C170.962 94.2892 171.517 92.9325 171.64 91.3292C171.764 89.6025 171.64 87.8141 171.27 85.9641C170.9 84.1141 170.345 82.2641 169.605 80.414C168.989 78.564 168.495 76.9607 168.125 75.604C167.385 72.7673 166.522 69.8072 165.535 66.7239C164.672 63.5172 163.747 60.3105 162.76 57.1038C163.254 57.4738 163.624 57.9671 163.87 58.5838C164.24 59.2005 164.487 59.8171 164.61 60.4338C164.61 61.1738 164.672 61.7288 164.795 62.0988C165.042 62.3455 165.289 62.8388 165.535 63.5788C165.782 63.9488 165.844 64.0105 165.72 63.7638C165.597 63.5172 165.535 63.3322 165.535 63.2088C165.289 62.7155 165.289 62.4688 165.535 62.4688C165.782 62.3455 165.905 62.5305 165.905 63.0238C166.029 63.7638 166.337 64.5655 166.83 65.4289C167.324 66.2922 167.509 66.4772 167.385 65.9839C167.015 64.8739 166.645 63.5788 166.275 62.0988C165.905 60.4955 165.35 59.2004 164.61 58.2138C163.87 57.2271 163.5 56.3638 163.5 55.6237C163.624 54.8837 163.5 54.2671 163.13 53.7737C162.513 52.787 162.205 52.3554 162.205 52.4787C162.205 52.4787 162.205 52.1704 162.205 51.5537C162.205 50.937 161.835 50.4437 161.095 50.0737C160.355 49.5803 159.862 49.1487 159.615 48.7787V48.4087C158.998 47.1753 158.443 46.0036 157.95 44.8936C157.457 43.6603 156.902 42.5503 156.285 41.5636L153.325 37.6785C152.955 37.4319 152.708 37.3085 152.585 37.3085C152.462 37.3085 152.4 37.3085 152.4 37.3085C152.4 37.3085 152.338 37.3085 152.215 37.3085C152.215 37.1852 152.03 36.8769 151.66 36.3835C153.51 34.7802 155.853 33.9168 158.69 33.7935C161.65 33.5468 164.117 34.0401 166.09 35.2735C166.584 35.6435 167.509 36.3835 168.865 37.4935C170.222 38.6035 171.147 39.4052 171.64 39.8986C173.49 41.6252 175.032 44.2153 176.265 47.6686C177.622 50.9987 178.794 54.5754 179.78 58.3988C180.89 62.0988 181.939 65.7989 182.925 69.4989C183.912 73.0756 185.022 75.974 186.255 78.194C187.612 77.2073 188.537 76.4057 189.03 75.789C189.524 75.1723 190.387 74.2473 191.621 73.0139C192.731 72.0273 193.717 71.2256 194.581 70.6089C195.567 69.8689 196.554 69.0056 197.541 68.0189C199.637 66.0455 201.487 64.1955 203.091 62.4688C204.817 60.7421 206.729 59.0154 208.826 57.2888L225.661 42.6736C231.088 38.3569 236.576 34.1018 242.126 29.9084C247.676 25.5917 253.226 21.645 258.776 18.0683L263.216 14.9233C264.82 13.6899 266.053 12.7032 266.916 11.9632C267.903 11.0999 269.445 10.1749 271.541 9.18819C272.281 8.81818 272.775 8.63318 273.021 8.63318C273.268 8.50985 273.391 8.44818 273.391 8.44818C273.515 8.32485 273.638 8.20151 273.761 8.07818C273.885 7.95484 274.255 7.6465 274.871 7.15317C275.612 6.41316 276.043 5.98148 276.167 5.85815C276.413 5.61148 277.03 5.17981 278.017 4.56314C279.25 3.82313 280.545 3.08312 281.902 2.34311C283.258 1.6031 284.43 0.924764 285.417 0.308091L285.232 3.08312L288.377 2.15811C288.747 3.26812 288.993 4.0698 289.117 4.56314C289.24 4.93314 289.302 5.24148 289.302 5.48815C289.302 5.61148 289.178 5.73482 288.932 5.85815C288.808 5.85815 288.685 6.04315 288.562 6.41316C288.068 8.26318 287.205 9.7432 285.972 10.8532C284.738 11.8399 283.012 13.1966 280.792 14.9233L252.856 34.3485C249.28 37.0619 245.949 39.7752 242.866 42.4886C239.783 45.202 236.391 47.8536 232.691 50.4437C231.211 51.5537 230.039 52.5404 229.176 53.4037C228.436 54.1437 227.449 55.0071 226.216 55.9937L201.796 79.859C201.056 80.599 200.501 81.0924 200.131 81.339C199.761 81.5857 199.267 82.0174 198.651 82.6341L189.77 92.2542C189.77 93.4875 189.894 94.9059 190.14 96.5092C190.51 98.1126 190.88 99.7776 191.251 101.504C191.621 103.231 191.991 104.958 192.361 106.684C192.854 108.288 193.286 109.768 193.656 111.124C195.629 120.745 197.664 130.426 199.761 140.17C201.981 149.79 204.324 159.102 206.791 168.105L215.301 194.56C215.794 195.67 216.349 196.904 216.966 198.26C217.582 199.74 218.076 201.159 218.446 202.515C218.816 203.872 218.816 205.106 218.446 206.216C218.199 207.449 217.397 208.312 216.041 208.806C215.301 209.052 214.807 209.361 214.561 209.731C214.314 210.101 214.067 210.347 213.821 210.471C213.697 210.594 213.512 210.532 213.266 210.286C213.142 210.162 212.711 209.731 211.971 208.991C210.984 207.757 210.121 206.586 209.381 205.476C208.764 204.366 208.024 203.132 207.161 201.775C206.544 200.789 205.742 199.494 204.756 197.89C203.892 196.287 203.152 195.177 202.536 194.56C202.782 193.697 202.906 193.327 202.906 193.45C202.906 193.574 202.967 193.635 203.091 193.635C203.091 193.512 203.152 193.389 203.276 193.265C203.399 193.142 203.461 193.019 203.461 192.895C203.954 192.279 204.016 191.724 203.646 191.23C203.276 190.737 202.844 190.182 202.351 189.565C201.734 188.702 201.364 188.332 201.241 188.455C201.241 188.579 201.117 188.147 200.871 187.16C200.377 185.434 200.007 184.2 199.761 183.46C199.637 182.72 199.144 181.672 198.281 180.315C197.294 181.302 196.986 182.165 197.356 182.905C197.849 183.645 198.342 184.817 198.836 186.42C197.726 184.57 196.739 182.474 195.876 180.13C195.012 177.91 194.087 175.69 193.101 173.47C192.361 171.62 191.991 170.263 191.991 169.4C191.991 168.66 192.052 167.92 192.176 167.18C192.422 166.44 192.546 165.515 192.546 164.405C192.669 163.418 192.361 161.815 191.621 159.595C191.004 157.498 190.202 155.833 189.215 154.6C188.229 153.367 187.735 151.887 187.735 150.16C187.859 147.446 187.427 144.363 186.44 140.91C185.577 137.333 184.837 134.065 184.22 131.105C183.85 132.091 183.542 132.893 183.295 133.51C183.172 134.126 182.987 134.805 182.74 135.545L180.335 125.555C181.569 125.925 182.124 126.171 182 126.295C181.877 126.418 181.63 126.541 181.26 126.665C180.89 126.788 180.705 126.85 180.705 126.85C180.705 126.85 181.569 126.85 183.295 126.85C182.802 124.753 182.37 122.965 182 121.485C181.63 120.005 181.199 118.216 180.705 116.119C180.459 117.106 180.274 117.784 180.15 118.154C180.15 118.401 180.15 118.648 180.15 118.894C180.15 119.018 180.027 119.141 179.78 119.264C179.657 119.388 179.349 119.696 178.855 120.19C178.362 117.846 178.054 116.181 177.93 115.194C177.93 114.084 177.56 112.728 176.82 111.124L175.155 108.349L167.2 117.414C165.597 119.141 164.179 120.683 162.945 122.04C161.835 123.396 160.663 124.876 159.43 126.48L148.145 140.54C147.158 141.526 146.48 142.266 146.11 142.76C145.74 143.253 145.185 144.116 144.445 145.35C141.978 149.173 139.635 152.503 137.415 155.34C135.195 158.053 132.851 161.322 130.385 165.145C129.768 166.132 129.275 166.995 128.905 167.735C128.411 168.598 127.918 169.338 127.425 169.955C127.671 169.338 128.041 168.598 128.535 167.735C128.905 166.872 129.151 166.317 129.275 166.07C129.645 165.083 130.015 164.282 130.385 163.665C130.755 163.172 131.125 162.493 131.495 161.63C131.988 160.643 132.235 160.15 132.235 160.15C132.235 160.027 132.111 160.15 131.865 160.52C131.741 160.767 131.495 161.137 131.125 161.63C130.878 162 130.693 162.247 130.57 162.37C129.953 163.11 129.706 163.233 129.83 162.74C130.076 162.37 130.2 162.062 130.2 161.815C130.2 161.198 130.446 160.582 130.94 159.965C131.433 159.225 131.556 158.978 131.31 159.225C130.693 159.718 130.015 160.458 129.275 161.445C128.535 162.308 127.918 163.048 127.425 163.665C126.438 164.898 125.451 166.008 124.465 166.995C123.478 168.105 122.245 168.968 120.765 169.585C120.025 169.832 119.593 170.017 119.47 170.14C119.346 170.263 119.038 170.387 118.545 170.51C117.805 170.88 117.435 171.003 117.435 170.88C117.435 170.757 117.496 170.572 117.62 170.325C117.743 170.078 117.805 169.832 117.805 169.585C117.805 169.462 117.435 169.585 116.695 169.955C116.448 170.202 116.263 170.387 116.14 170.51C116.016 170.633 115.893 170.757 115.77 170.88L115.4 171.25C115.276 170.88 115.461 170.387 115.955 169.77C116.325 169.153 116.818 168.537 117.435 167.92C117.928 167.427 118.421 166.933 118.915 166.44C119.285 166.07 119.47 165.885 119.47 165.885C118.483 166.132 117.681 166.748 117.065 167.735C116.448 168.722 115.77 169.338 115.03 169.585C113.673 169.955 113.056 170.017 113.18 169.77C113.303 169.523 113.365 168.968 113.365 168.105C112.748 168.105 112.563 168.167 112.81 168.29C112.933 168.413 112.871 168.598 112.625 168.845C112.255 169.338 112.07 169.585 112.07 169.585C111.946 169.708 111.638 169.708 111.145 169.585H111.7V168.845C112.316 167.982 113.18 166.625 114.29 164.775C115.276 162.925 116.386 161.013 117.62 159.04C118.853 156.943 120.086 154.97 121.32 153.12C122.43 151.27 123.416 149.852 124.28 148.865L130.94 139.43ZM276.537 4.56314C276.537 4.56314 276.537 4.62481 276.537 4.74814L276.352 4.93314C275.735 5.54981 275.18 5.91982 274.686 6.04315C274.316 6.16648 273.946 6.47482 273.576 6.96816C273.206 7.4615 272.898 7.89317 272.651 8.26318C272.405 8.50985 271.973 8.69485 271.356 8.81818C270.123 9.06485 269.506 9.37319 269.506 9.7432C269.506 9.98987 269.321 10.2982 268.951 10.6682C268.581 10.7915 268.211 10.9765 267.841 11.2232C267.595 11.4699 267.286 11.6549 266.916 11.7782C266.546 11.9016 266.238 12.0866 265.991 12.3332C265.375 12.9499 264.82 13.3199 264.326 13.4432C263.833 13.4432 263.278 13.5666 262.661 13.8132C261.428 14.7999 260.441 15.5399 259.701 16.0333C259.085 16.5266 258.53 16.9583 258.036 17.3283C257.666 17.575 257.728 17.4516 258.221 16.9583C258.591 16.5883 258.838 16.3416 258.961 16.2183C259.085 15.9716 259.393 15.6633 259.886 15.2933C260.873 14.4299 262.353 13.5666 264.326 12.7032C266.3 11.7166 267.533 10.9765 268.026 10.4832C268.52 9.74319 268.951 9.24986 269.321 9.00319C269.815 8.75652 270.246 8.57151 270.616 8.44818C270.986 8.32485 271.295 8.26318 271.541 8.26318C271.788 8.13985 272.035 7.95484 272.281 7.70817C272.775 6.96816 273.145 6.47482 273.391 6.22815C273.761 5.98148 274.07 5.79648 274.316 5.67315C274.686 5.54982 275.056 5.42648 275.426 5.30314C275.797 5.17981 276.167 4.93314 276.537 4.56314ZM199.206 184.385C199.452 184.632 199.637 185.064 199.761 185.68C200.007 186.297 200.131 186.79 200.131 187.16C200.131 188.024 200.316 188.579 200.686 188.825C201.179 189.195 201.549 189.874 201.796 190.86C201.919 191.354 201.919 191.539 201.796 191.415C201.796 191.415 201.734 191.23 201.611 190.86C201.487 190.614 201.364 190.305 201.241 189.935C201.117 189.689 200.994 189.565 200.871 189.565C200.624 189.565 200.377 189.565 200.131 189.565C200.007 189.565 199.946 189.874 199.946 190.49V190.675V190.12C199.699 189.504 199.637 189.072 199.761 188.825C200.007 188.579 200.007 188.024 199.761 187.16C199.637 186.914 199.576 186.605 199.576 186.235C199.576 185.989 199.452 185.68 199.206 185.31C198.959 184.817 198.774 184.324 198.651 183.83C198.651 183.337 198.651 183.029 198.651 182.905C198.651 182.782 198.774 182.905 199.021 183.275C199.267 183.769 199.329 184.139 199.206 184.385ZM184.22 134.99C183.85 135.73 183.789 136.285 184.035 136.655C184.282 136.901 184.529 137.148 184.775 137.395C185.145 137.641 185.454 137.95 185.7 138.32C185.947 138.566 185.947 139.06 185.7 139.8C185.33 140.54 185.207 141.341 185.33 142.205C185.577 143.068 185.824 143.931 186.07 144.795C186.44 145.535 186.749 146.336 186.995 147.2C187.242 148.063 187.304 148.927 187.18 149.79C187.057 149.913 186.995 150.16 186.995 150.53C187.119 150.777 187.119 150.962 186.995 151.085C186.749 150.592 186.625 149.728 186.625 148.495C186.749 147.138 186.317 145.843 185.33 144.61C185.207 144.486 184.96 144.178 184.59 143.685C184.344 143.191 184.467 143.191 184.96 143.685C185.33 144.055 185.392 143.87 185.145 143.13C185.022 142.266 184.96 141.65 184.96 141.28C184.96 140.663 184.96 140.293 184.96 140.17C185.084 140.046 185.022 139.676 184.775 139.06C184.529 138.69 184.467 138.381 184.59 138.135C184.714 137.765 184.467 137.333 183.85 136.84C183.727 136.84 183.665 136.223 183.665 134.99V133.325C183.912 133.448 184.035 133.818 184.035 134.435C184.159 134.928 184.22 135.113 184.22 134.99ZM305.038 76.714C305.038 76.5907 305.1 76.529 305.223 76.529V76.714V76.899C305.1 76.899 305.038 76.8373 305.038 76.714V76.899V76.714ZM307.813 77.269C307.69 77.269 307.628 77.2073 307.628 77.084C307.628 77.084 307.69 77.1457 307.813 77.269ZM338.709 44.1536C339.325 44.7703 339.387 45.572 338.894 46.5586C338.4 47.052 337.907 47.792 337.414 48.7787C335.687 50.9987 334.207 53.342 332.974 55.8087C331.74 58.1521 330.507 60.5571 329.274 63.0238C328.164 65.2439 326.992 67.5255 325.759 69.8689C324.649 72.0889 323.292 74.2473 321.689 76.344C321.442 76.714 321.257 77.0223 321.134 77.269C321.01 77.5157 320.887 77.8857 320.764 78.379C319.53 80.969 318.359 83.2507 317.249 85.2241C316.385 86.3341 315.645 87.4441 315.029 88.5541C314.412 89.6641 313.795 90.8975 313.179 92.2542C312.315 93.7342 311.452 95.1525 310.588 96.5092C309.848 97.8659 309.17 99.4076 308.553 101.134C307.32 102.491 306.395 103.971 305.778 105.574C305.162 107.054 304.483 108.534 303.743 110.014C302.633 111.741 301.647 113.591 300.783 115.564C299.92 117.414 298.995 119.203 298.008 120.93C296.898 122.903 295.912 124.938 295.048 127.035C294.308 129.008 293.445 130.981 292.458 132.955C290.978 135.915 289.683 138.875 288.573 141.835C287.957 143.191 287.34 144.425 286.723 145.535C286.23 146.645 285.49 147.693 284.503 148.68C283.763 149.42 283.208 150.222 282.838 151.085C282.468 151.948 282.036 152.812 281.543 153.675C281.296 154.168 281.05 154.6 280.803 154.97C280.556 155.217 280.31 155.587 280.063 156.08C279.2 155.587 278.46 155.648 277.843 156.265C277.596 156.635 277.35 157.005 277.103 157.375C276.856 157.745 276.671 158.238 276.548 158.855C276.425 159.842 276.055 160.89 275.438 162C275.315 162.247 275.191 162.37 275.068 162.37C274.821 162.493 274.636 162.617 274.513 162.74C274.266 162.863 273.958 162.74 273.588 162.37C273.095 162.123 272.848 161.877 272.848 161.63C272.725 161.26 272.663 160.828 272.663 160.335C272.54 159.842 272.54 159.348 272.663 158.855C272.91 157.868 273.156 156.943 273.403 156.08C273.526 155.093 273.773 154.107 274.143 153.12C275.376 149.173 276.671 145.288 278.028 141.465C279.385 137.641 280.926 133.818 282.653 129.995C283.393 128.145 284.133 126.356 284.873 124.63C285.613 122.903 286.477 121.238 287.463 119.634C287.71 118.524 288.08 117.476 288.573 116.489C289.19 115.503 289.745 114.516 290.238 113.529C290.608 112.543 290.978 111.618 291.348 110.754C291.718 109.891 292.212 108.966 292.828 107.979C293.198 107.116 293.568 106.314 293.938 105.574C294.308 104.711 294.678 103.909 295.048 103.169C295.665 102.553 296.035 101.813 296.158 100.949C296.282 99.9626 296.652 99.1609 297.268 98.5442C297.885 97.0642 298.563 95.6459 299.303 94.2892C300.167 92.8092 300.783 91.2675 301.153 89.6641C301.77 89.1708 302.14 88.6158 302.263 87.9991C302.51 87.2591 302.757 86.4574 303.003 85.5941C303.373 85.5941 303.682 85.4091 303.928 85.0391C304.298 84.2991 304.607 83.6207 304.853 83.0041C305.1 82.3874 305.408 81.7707 305.778 81.154C306.148 80.414 306.457 79.7357 306.703 79.119C306.95 78.5023 307.32 77.8857 307.813 77.269C307.937 77.269 307.998 77.2073 307.998 77.084C307.998 77.2073 307.937 77.269 307.813 77.269V77.084H307.628C307.258 76.714 306.457 76.529 305.223 76.529C305.84 75.419 306.395 74.309 306.888 73.1989C307.505 72.0889 308.122 70.9789 308.738 69.8689C308.862 69.6222 308.985 69.4372 309.108 69.3139C309.355 69.0672 309.478 69.0056 309.478 69.1289C309.848 69.2522 309.972 69.3756 309.848 69.4989C309.725 69.6222 309.663 69.8072 309.663 70.0539C309.417 70.7939 309.293 71.2256 309.293 71.3489C309.293 71.4723 309.355 71.5956 309.478 71.7189C309.478 71.8423 309.602 71.9039 309.848 71.9039H310.033C310.28 71.6573 310.465 71.4106 310.588 71.1639C310.835 70.9173 311.02 70.6706 311.143 70.4239V67.2789C311.513 67.1555 311.945 67.0939 312.438 67.0939C313.055 65.6139 313.425 64.8122 313.549 64.6888C314.535 64.1955 315.152 63.5788 315.399 62.8388C315.645 62.0988 315.892 61.2971 316.139 60.4338C316.139 60.0638 316.077 59.8788 315.954 59.8788H315.214C314.844 60.3721 314.474 60.8655 314.104 61.3588C313.857 61.7288 313.549 62.1605 313.179 62.6538C313.179 62.7772 312.87 62.9622 312.253 63.2088V62.8388C313.24 60.8655 314.165 58.8921 315.029 56.9188C315.892 54.9454 316.817 53.0337 317.804 51.1837C318.174 50.6903 318.605 49.9503 319.099 48.9637C320.332 46.127 322.552 44.0919 325.759 42.8586C326.992 42.4886 328.225 42.1186 329.459 41.7486C330.692 41.3786 331.987 41.2552 333.344 41.3786C334.454 41.5019 335.44 41.8102 336.304 42.3036C337.167 42.7969 337.969 43.4136 338.709 44.1536ZM302.263 85.2241C302.757 85.4708 303.003 85.5941 303.003 85.5941C302.757 85.9641 302.448 86.2724 302.078 86.5191C301.832 86.7658 301.523 87.0741 301.153 87.4441H300.968C300.968 87.3208 300.907 87.1974 300.783 87.0741C300.66 86.2108 300.907 85.4708 301.523 84.8541C301.77 84.8541 302.017 84.9774 302.263 85.2241ZM303.003 85.5941V85.7791V85.5941ZM304.298 81.524C304.052 82.1407 303.682 82.3257 303.188 82.0791C302.942 81.8324 303.065 81.4624 303.558 80.969C303.805 80.4757 304.052 80.4757 304.298 80.969V81.524ZM312.253 63.2088C312.13 63.3322 312.068 63.4555 312.068 63.5788V63.2088H312.253H312.068H312.253ZM312.068 63.5788C311.945 63.8255 311.822 64.1338 311.698 64.5038C311.698 64.7505 311.513 64.9355 311.143 65.0588C311.39 64.8122 311.513 64.5655 311.513 64.3188C311.637 64.0722 311.822 63.8255 312.068 63.5788ZM311.143 65.0588V65.2439V65.0588ZM311.143 67.2789V67.0939V67.2789ZM310.773 65.7989C311.02 65.5522 311.143 65.3672 311.143 65.2439V67.0939C310.65 66.8472 310.527 66.4155 310.773 65.7989ZM298.008 90.0341C297.762 89.7875 297.885 89.6641 298.378 89.6641H301.153C301.03 89.7875 300.783 89.8491 300.413 89.8491C300.167 89.8491 299.858 89.8491 299.488 89.8491C299.118 89.7258 298.81 89.6641 298.563 89.6641C298.687 89.6641 298.748 89.7875 298.748 90.0341C298.502 90.5275 298.255 90.5275 298.008 90.0341ZM296.343 96.3242L295.973 96.1392H296.343V96.3242ZM513.519 36.1985C512.902 36.0752 512.532 36.0752 512.409 36.1985C512.409 36.1985 512.409 36.3218 512.409 36.5685C512.532 36.6918 512.532 36.7535 512.409 36.7535C512.285 36.7535 511.977 36.5685 511.484 36.1985C512.84 34.1018 514.567 32.9918 516.664 32.8685C518.884 32.6218 520.857 32.8685 522.584 33.6085C524.31 34.3485 525.42 35.2118 525.914 36.1985C526.53 37.1852 526.962 38.7269 527.209 40.8236C527.209 41.8102 526.777 44.0303 525.914 47.4836C525.05 50.937 523.879 55.0071 522.399 59.6938C520.919 64.3805 519.315 69.4372 517.589 74.864C515.862 80.1674 514.135 85.2241 512.409 90.0341C510.805 94.7209 509.264 98.9143 507.783 102.614C506.427 106.191 505.44 108.596 504.823 109.829C504.207 110.939 503.837 111.803 503.713 112.419C503.713 113.036 503.59 113.776 503.343 114.639C502.357 117.846 501.247 120.806 500.013 123.52C498.903 126.11 497.67 129.501 496.313 133.695L492.983 144.795C491.873 146.891 490.887 149.667 490.023 153.12C489.283 156.573 488.605 159.595 487.988 162.185C487.618 161.445 487.433 160.89 487.433 160.52C487.433 160.027 487.495 159.657 487.618 159.41C487.742 159.04 487.865 158.608 487.988 158.115C488.235 157.622 488.358 156.882 488.358 155.895C488.358 155.772 488.358 155.525 488.358 155.155C488.358 154.785 488.358 154.538 488.358 154.415C488.358 154.168 488.297 154.107 488.173 154.23C488.05 154.23 487.803 154.6 487.433 155.34C487.063 155.957 486.878 156.512 486.878 157.005C486.878 157.375 486.878 157.745 486.878 158.115C487.002 158.485 487.002 158.917 486.878 159.41C486.878 159.903 486.693 160.582 486.323 161.445C486.077 161.815 486.015 162.185 486.138 162.555C486.262 162.925 486.323 163.295 486.323 163.665C486.447 164.035 486.447 164.405 486.323 164.775C486.2 165.268 485.83 165.823 485.213 166.44C485.213 166.44 485.152 166.687 485.028 167.18C485.028 167.673 484.967 168.167 484.843 168.66C484.72 169.277 484.535 169.832 484.288 170.325C484.165 170.818 483.98 171.065 483.733 171.065C483.733 170.695 483.733 170.202 483.733 169.585C483.733 168.968 483.733 168.475 483.733 168.105C483.733 167.735 483.672 167.673 483.548 167.92C483.425 168.167 483.178 168.907 482.808 170.14C482.562 171.127 482.562 172.113 482.808 173.1C483.178 174.21 483.178 175.567 482.808 177.17C482.932 177.417 482.932 177.664 482.808 177.91C482.685 178.157 482.623 178.404 482.623 178.65C482.5 179.144 482.315 179.575 482.068 179.945C481.945 180.439 481.76 180.932 481.513 181.425C481.143 182.412 480.835 182.967 480.588 183.09C480.465 183.214 480.342 183.214 480.218 183.09C480.095 183.09 479.848 183.09 479.478 183.09C479.108 183.09 478.553 183.399 477.813 184.015L476.148 183.275C475.038 181.425 474.421 179.205 474.298 176.615C474.298 174.025 474.483 171.312 474.853 168.475C475.223 165.762 475.716 163.11 476.333 160.52C477.073 157.93 477.69 155.71 478.183 153.86L488.543 122.04C489.16 120.313 489.407 119.141 489.283 118.524C489.16 117.908 489.345 117.106 489.838 116.119L497.238 97.0642C497.485 95.7075 497.608 94.5975 497.608 93.7342C497.608 92.7475 497.917 91.5758 498.533 90.2192C499.15 88.8625 499.767 87.3208 500.383 85.5941C501 83.8674 501.555 82.1407 502.048 80.414C501.802 80.6607 501.555 80.9074 501.308 81.154C501.185 81.4007 501.123 81.6474 501.123 81.894C500.877 82.5107 500.383 83.1891 499.643 83.9291C498.903 84.5457 498.102 85.2241 497.238 85.9641C496.498 86.5808 495.82 87.1358 495.203 87.6291C494.587 88.1225 494.278 88.4308 494.278 88.5541C494.402 89.5408 494.093 90.0958 493.353 90.2192C492.737 90.2192 492.367 90.5275 492.243 91.1442C491.997 92.5008 491.442 93.6109 490.578 94.4742C489.715 95.3375 489.407 95.5225 489.653 95.0292C490.147 93.9192 490.27 93.3025 490.023 93.1792C489.9 93.0558 489.592 93.1792 489.098 93.5492C488.728 93.7959 488.235 94.1659 487.618 94.6592C487.125 95.0292 486.817 95.1525 486.693 95.0292C486.693 94.7825 486.878 94.4742 487.248 94.1042C487.742 93.6109 488.112 93.3642 488.358 93.3642C489.222 92.9942 489.838 92.7475 490.208 92.6242C490.702 92.3775 491.01 92.1308 491.133 91.8842C491.38 91.6375 491.503 91.3908 491.503 91.1442C491.627 90.7742 491.812 90.2808 492.058 89.6641C492.058 89.5408 492.367 89.1708 492.983 88.5541C493.6 87.8141 494.278 87.0741 495.018 86.3341C495.758 85.5941 496.437 84.9774 497.053 84.4841C497.793 83.8674 498.225 83.4974 498.348 83.3741V83.0041C498.225 82.3874 497.793 82.3874 497.053 83.0041C496.313 83.4974 495.82 83.8674 495.573 84.1141C495.327 84.3607 495.265 84.3607 495.388 84.1141C495.635 83.7441 495.882 83.3741 496.128 83.0041C496.498 82.6341 496.868 82.2641 497.238 81.894C497.608 81.4007 497.917 81.154 498.163 81.154V79.674C497.177 81.0307 496.067 82.3874 494.833 83.7441C493.6 84.9774 492.367 86.3341 491.133 87.8141C489.777 89.4175 488.728 90.8358 487.988 92.0692C487.248 93.1792 486.138 94.6592 484.658 96.5092L486.878 97.2492C486.878 97.4959 486.817 97.6809 486.693 97.8042C486.693 97.8042 486.693 97.9276 486.693 98.1742C486.94 98.0509 487.063 97.9892 487.063 97.9892C487.187 97.8659 487.372 97.7426 487.618 97.6192C488.235 97.3726 488.543 97.1259 488.543 96.8792C488.543 96.6326 489.037 96.4476 490.023 96.3242C491.01 96.0776 491.565 95.8926 491.688 95.7692C491.935 95.6459 491.38 96.0776 490.023 97.0642C489.037 97.8042 488.42 98.2359 488.173 98.3592C488.05 98.3592 487.68 98.8526 487.063 99.8393C487.803 99.5926 488.358 99.4076 488.728 99.2843C489.098 99.0376 490.147 99.0376 491.873 99.2843C490.887 99.9009 490.085 100.703 489.468 101.689C488.852 102.676 488.42 103.663 488.173 104.649C487.927 105.266 487.803 105.513 487.803 105.389C487.927 105.266 487.865 105.513 487.618 106.129C487.125 106.869 486.693 107.363 486.323 107.609C486.077 107.733 485.645 108.041 485.028 108.534C484.288 109.151 483.795 109.644 483.548 110.014C483.302 110.261 483.117 110.508 482.993 110.754C482.87 111.001 482.747 111.309 482.623 111.679C482.5 111.926 482.13 112.419 481.513 113.159C480.403 114.516 478.8 116.119 476.703 117.969C474.73 119.696 472.14 122.656 468.933 126.85C467.946 128.083 467.145 128.885 466.528 129.255C466.035 129.501 465.356 130.118 464.493 131.105C463.136 132.461 461.841 133.941 460.608 135.545C459.498 137.025 458.265 138.628 456.908 140.355C456.415 140.971 455.736 141.65 454.873 142.39C454.133 143.006 453.516 143.623 453.023 144.24C452.283 144.98 451.789 145.781 451.543 146.645C451.419 147.385 451.049 148.248 450.433 149.235C449.816 149.852 449.014 150.468 448.028 151.085C447.164 151.702 446.424 152.318 445.808 152.935C443.711 155.402 442.046 157.868 440.813 160.335C439.579 162.802 438.099 165.083 436.373 167.18C436.126 167.303 435.941 167.427 435.818 167.55C435.694 167.673 435.509 167.797 435.263 167.92C435.509 167.92 435.633 167.612 435.633 166.995C435.879 166.378 436.126 165.7 436.373 164.96C436.743 164.22 437.051 163.542 437.298 162.925C437.668 162.678 437.853 162.432 437.853 162.185C437.853 161.938 437.791 161.938 437.668 162.185C437.544 162.925 437.113 163.603 436.373 164.22C435.756 164.96 435.263 165.7 434.893 166.44C434.276 168.167 433.474 169.215 432.488 169.585C431.501 169.955 430.884 170.633 430.638 171.62C430.144 171.99 429.713 172.298 429.343 172.545C428.973 172.915 428.664 173.285 428.418 173.655C427.308 174.642 426.568 175.567 426.198 176.43C425.951 177.294 425.211 178.219 423.978 179.205C421.511 180.932 418.427 182.227 414.727 183.09C411.027 183.954 407.204 183.337 403.257 181.24C399.804 179.267 397.214 176.369 395.487 172.545C393.76 168.845 392.65 164.59 392.157 159.78C391.787 154.847 391.849 149.728 392.342 144.425C392.959 138.998 393.76 133.695 394.747 128.515C395.734 123.211 396.721 118.339 397.707 113.899C398.817 109.336 399.681 105.513 400.297 102.429C399.927 103.046 399.681 103.601 399.557 104.094C399.434 104.588 399.126 105.389 398.632 106.499C398.632 106.623 398.509 107.054 398.262 107.794C398.139 108.411 397.954 109.151 397.707 110.014C397.584 110.754 397.399 111.494 397.152 112.234C397.029 112.851 396.967 113.159 396.967 113.159C396.104 113.653 395.672 114.146 395.672 114.639C395.549 114.886 395.549 115.133 395.672 115.379C395.672 114.393 396.042 112.789 396.782 110.569C397.522 108.349 398.016 106.623 398.262 105.389C398.509 104.526 398.756 103.909 399.002 103.539C399.249 103.046 399.496 102.676 399.742 102.429C399.989 102.059 400.174 101.689 400.297 101.319C400.544 100.949 400.791 100.271 401.037 99.2843C401.037 98.6676 401.037 98.1126 401.037 97.6192C401.161 97.1259 401.161 96.7559 401.037 96.5092C400.421 97.3726 399.989 98.1742 399.742 98.9143C399.619 99.6543 399.249 100.456 398.632 101.319C398.632 100.333 398.694 99.2843 398.817 98.1742C399.064 97.0642 399.311 95.8926 399.557 94.6592C399.681 94.6592 399.927 94.4742 400.297 94.1042C400.544 93.7342 400.667 93.6109 400.667 93.7342C400.667 93.7342 400.606 93.3642 400.482 92.6242L400.297 92.0692C401.284 92.1925 401.777 91.8225 401.777 90.9592C401.777 90.0958 401.901 89.5408 402.147 89.2941C402.394 89.0475 402.579 88.7391 402.702 88.3691C402.826 87.9991 402.764 87.9375 402.517 88.1841C402.147 88.5541 402.024 88.5541 402.147 88.1841C402.271 87.6908 402.456 87.0741 402.702 86.3341C403.072 85.5941 403.442 84.9158 403.812 84.2991C404.182 83.5591 404.367 83.1891 404.367 83.1891C404.491 82.9424 404.676 82.5107 404.922 81.894C405.169 81.2774 405.354 80.784 405.477 80.414C405.601 80.044 405.601 79.9207 405.477 80.044C405.354 80.044 404.984 80.4757 404.367 81.339C404.367 81.4624 404.121 81.894 403.627 82.6341C403.257 83.2507 403.319 83.3124 403.812 82.8191C403.689 82.6957 403.689 82.0791 403.812 80.969C404.059 79.859 404.367 78.9957 404.737 78.379C404.984 78.1323 405.107 77.5157 405.107 76.529C405.231 75.5423 405.169 74.679 404.922 73.939C405.292 71.9656 405.724 69.8072 406.217 67.4639C406.711 65.1205 407.142 62.7772 407.512 60.4338C408.006 58.0904 408.314 55.8704 408.437 53.7737C408.684 51.5537 408.622 49.642 408.252 48.0386C408.992 47.6686 409.424 47.422 409.547 47.2986C409.671 47.052 409.732 46.867 409.732 46.7436C409.856 46.6203 410.041 46.497 410.287 46.3736C410.657 46.2503 411.336 46.127 412.322 46.0036C413.679 45.757 414.789 45.757 415.652 46.0036C416.639 46.127 417.749 46.4353 418.982 46.9286C423.052 48.532 424.471 51.492 423.237 55.8087C422.744 57.4121 422.066 58.9538 421.202 60.4338C420.462 61.7905 419.969 63.5788 419.722 65.7989C419.476 67.6489 419.414 69.7456 419.537 72.0889C419.784 74.4323 419.784 76.4673 419.537 78.194C418.797 82.5107 417.687 86.4574 416.207 90.0341C414.727 93.6109 413.494 97.4342 412.507 101.504C412.261 102.614 411.644 104.218 410.657 106.314C409.794 108.288 409.177 109.768 408.807 110.754C408.684 111.741 408.746 112.543 408.992 113.159C409.239 113.776 409.301 114.393 409.177 115.009C408.931 115.749 408.561 116.674 408.067 117.784C407.697 118.894 407.451 119.943 407.327 120.93C406.711 123.766 406.156 126.911 405.662 130.365C405.169 133.695 404.799 137.21 404.552 140.91C405.169 141.773 405.292 142.636 404.922 143.5C404.676 144.24 404.614 145.041 404.737 145.905C404.861 147.261 404.737 148.31 404.367 149.05C404.121 149.79 404.121 151.085 404.367 152.935C404.367 153.058 404.367 153.552 404.367 154.415C404.367 155.155 404.306 155.957 404.182 156.82C404.306 159.657 404.491 162.308 404.737 164.775C404.984 167.242 405.477 169.523 406.217 171.62C406.711 172.977 407.266 173.717 407.882 173.84C408.499 174.087 409.177 173.902 409.917 173.285C410.781 172.668 411.706 171.743 412.692 170.51C413.679 169.4 414.851 168.29 416.207 167.18C420.277 163.48 423.916 159.41 427.123 154.97C430.453 150.53 433.906 146.213 437.483 142.02L457.463 117.229C457.833 116.736 458.08 116.304 458.203 115.934C458.45 115.564 458.635 115.256 458.758 115.009C458.881 114.763 459.005 114.516 459.128 114.269C459.375 114.023 459.745 113.653 460.238 113.159C462.458 110.939 464.493 108.596 466.343 106.129C468.193 103.663 470.166 101.134 472.263 98.5442C472.756 97.8042 473.188 97.2492 473.558 96.8792C473.928 96.3859 474.421 95.8309 475.038 95.2142L483.733 84.1141C484.967 82.7574 486.878 80.3524 489.468 76.899C492.058 73.4456 494.71 69.7456 497.423 65.7989C500.26 61.8521 502.788 58.0288 505.008 54.3287C507.352 50.6287 508.832 47.7303 509.449 45.6336C509.819 44.4003 510.189 43.4753 510.559 42.8586C510.929 42.1186 511.299 41.5019 511.669 41.0086C512.039 40.3919 512.347 39.7752 512.594 39.1585C512.964 38.4185 513.272 37.4319 513.519 36.1985ZM406.217 134.435C406.217 133.941 406.217 133.88 406.217 134.25C406.341 134.62 406.464 134.928 406.587 135.175C406.341 136.285 406.156 137.025 406.032 137.395C405.909 137.641 405.847 137.888 405.847 138.135C405.847 138.258 405.909 138.505 406.032 138.875C406.279 139.121 406.587 139.738 406.957 140.725C407.204 141.465 407.327 141.958 407.327 142.205C407.451 142.328 407.389 142.636 407.142 143.13C406.896 143.623 406.649 144.301 406.402 145.165C406.279 146.028 406.156 146.953 406.032 147.94C405.909 148.927 405.786 149.913 405.662 150.9C405.662 151.763 405.662 152.442 405.662 152.935C405.909 154.538 405.909 155.895 405.662 157.005C405.539 158.115 405.169 159.348 404.552 160.705C404.429 160.952 404.367 160.705 404.367 159.965C404.491 159.102 404.614 158.177 404.737 157.19C404.861 156.08 404.922 155.032 404.922 154.045C405.046 152.935 405.107 152.257 405.107 152.01C404.861 150.407 404.984 148.557 405.477 146.46C405.971 144.363 406.094 143.006 405.847 142.39C405.231 141.28 404.922 140.416 404.922 139.8C404.922 139.06 404.984 138.443 405.107 137.95C405.354 137.333 405.601 136.778 405.847 136.285C406.094 135.791 406.217 135.175 406.217 134.435ZM498.533 82.0791C498.657 82.8191 498.842 83.1274 499.088 83.0041C499.458 82.7574 499.828 82.3257 500.198 81.7091C500.568 81.0924 500.938 80.414 501.308 79.674C501.802 78.934 502.233 78.379 502.603 78.009C502.85 77.7623 502.85 77.454 502.603 77.084L498.533 82.0791ZM479.663 113.344C479.91 112.851 479.848 112.481 479.478 112.234C479.231 111.988 479.601 111.618 480.588 111.124C480.712 111.124 480.773 110.878 480.773 110.384C480.773 109.891 480.218 110.199 479.108 111.309C478.491 111.679 478.183 112.173 478.183 112.789C478.306 113.283 477.875 113.899 476.888 114.639C476.641 114.886 476.148 115.071 475.408 115.194C474.668 115.194 474.051 116.058 473.558 117.784C473.435 118.401 473.065 119.018 472.448 119.634C471.955 120.128 471.585 120.683 471.338 121.3C470.968 122.41 470.413 123.088 469.673 123.335C468.933 123.581 468.563 123.89 468.563 124.26C468.316 124.506 468.563 124.26 469.303 123.52C470.166 122.78 470.906 122.41 471.523 122.41C471.893 122.41 472.14 122.286 472.263 122.04C472.386 121.793 472.51 121.485 472.633 121.115C472.756 120.745 472.88 120.375 473.003 120.005C473.25 119.511 473.681 119.079 474.298 118.709C474.668 118.339 474.791 117.846 474.668 117.229C474.545 116.613 474.73 116.304 475.223 116.304C475.346 116.304 475.408 116.489 475.408 116.859C475.408 117.229 475.346 117.599 475.223 117.969C475.1 118.216 475.038 118.401 475.038 118.524C475.161 118.648 475.408 118.401 475.778 117.784C476.271 117.044 476.518 116.736 476.518 116.859C476.641 116.983 476.641 116.551 476.518 115.564C476.395 115.441 476.703 115.256 477.443 115.009C478.183 114.639 478.676 114.393 478.923 114.269C478.923 114.146 478.923 114.331 478.923 114.824C479.046 115.318 479.355 115.194 479.848 114.454C479.971 114.084 480.157 113.961 480.403 114.084C480.65 114.208 480.465 114.023 479.848 113.529L479.663 113.344ZM519.496 53.4037C522.21 52.6637 524.738 51.8004 527.081 50.8137C529.425 49.827 531.953 48.717 534.667 47.4836C537.38 46.2503 540.463 45.0169 543.917 43.7836C547.37 42.5502 551.563 41.2552 556.497 39.8986C559.704 39.1585 563.095 38.5419 566.672 38.0485C570.249 37.5552 573.764 36.8769 577.217 36.0135C580.67 35.0268 585.172 34.0402 590.722 33.0535C596.396 32.0668 602.254 31.1418 608.297 30.2784C614.341 29.2918 620.199 28.4284 625.873 27.6884C631.546 26.9484 636.171 26.2701 639.748 25.6534C642.708 25.16 646.285 24.7284 650.478 24.3584C654.795 23.865 659.173 23.4334 663.613 23.0634C668.053 22.6934 672.37 22.4467 676.563 22.3233C680.88 22.2 684.58 22.2 687.663 22.3233C687.787 22.3233 688.465 22.8783 689.698 23.9884C690.932 25.0984 691.548 26.3317 691.548 27.6884C691.672 28.0584 691.672 28.5517 691.548 29.1684C691.425 29.6618 691.302 30.0934 691.178 30.4634C689.575 30.9568 686.492 31.3885 681.928 31.7585C677.488 32.1285 672.432 32.5601 666.758 33.0535C661.085 33.5468 655.288 34.1635 649.368 34.9035C643.571 35.5202 638.453 36.3835 634.013 37.4935C629.573 38.6035 625.009 39.4052 620.323 39.8986C615.759 40.3919 611.381 41.2552 607.187 42.4886C605.461 42.9819 604.166 43.6603 603.302 44.5236C602.439 45.387 601.637 46.6203 600.897 48.2237C600.281 49.827 599.602 51.862 598.862 54.3287C598.122 56.6721 597.074 59.6321 595.717 63.2088C594.114 67.2789 592.141 72.2739 589.797 78.194C587.454 84.1141 584.925 90.2808 582.212 96.6942C579.499 103.108 576.785 109.336 574.072 115.379C571.482 121.423 569.139 126.541 567.042 130.735L557.607 153.305C558.717 153.305 560.135 153.182 561.862 152.935C563.712 152.688 565.624 152.38 567.597 152.01C569.694 151.64 571.667 151.27 573.517 150.9C575.49 150.53 577.217 150.283 578.697 150.16C582.767 149.913 585.912 149.79 588.132 149.79C590.352 149.667 591.956 149.852 592.942 150.345C594.052 150.715 594.607 151.455 594.607 152.565C594.731 153.675 594.669 155.278 594.422 157.375C592.449 157.992 590.044 158.485 587.207 158.855C584.494 159.225 581.472 159.657 578.142 160.15C574.935 160.643 571.42 161.322 567.597 162.185C563.897 163.172 560.012 164.467 555.942 166.07C554.462 166.687 553.29 167.118 552.427 167.365C551.687 167.735 551.132 168.105 550.762 168.475C550.392 168.968 550.022 169.647 549.652 170.51C549.405 171.373 548.973 172.607 548.357 174.21C547.863 175.567 547.247 177.417 546.507 179.76C545.767 182.104 544.965 184.447 544.102 186.79C543.362 189.257 542.622 191.477 541.882 193.45C541.142 195.547 540.587 196.842 540.217 197.335C538.86 199.309 537.318 200.542 535.592 201.035C533.988 201.652 532.385 201.097 530.782 199.37C530.165 198.63 529.733 197.644 529.487 196.41C529.24 195.3 529.055 194.067 528.931 192.71C528.931 191.354 528.993 189.935 529.116 188.455C529.24 187.099 529.302 185.865 529.302 184.755C529.795 184.509 530.042 184.324 530.042 184.2C530.042 184.077 529.918 184.015 529.672 184.015C529.548 184.015 529.425 184.077 529.302 184.2C529.302 184.324 529.548 184.57 530.042 184.94C530.658 185.434 530.782 185.619 530.412 185.495C530.165 185.495 530.165 185.557 530.412 185.68L529.116 179.39C527.266 179.884 525.231 180.192 523.011 180.315C520.915 180.562 518.941 180.007 517.091 178.65C516.105 177.91 515.55 177.417 515.426 177.17C515.303 177.047 515.303 176.862 515.426 176.615C515.426 176.492 515.365 176.184 515.241 175.69C515.118 175.32 514.563 174.518 513.576 173.285L510.986 169.955C512.466 169.832 513.638 169.832 514.501 169.955C515.365 170.078 516.166 170.14 516.906 170.14C517.523 170.14 518.201 170.017 518.941 169.77C519.558 169.523 520.36 168.968 521.346 168.105C522.58 167.118 524.121 166.07 525.971 164.96C527.945 163.973 529.795 163.048 531.522 162.185C533.372 161.322 534.975 160.582 536.332 159.965C537.688 159.348 538.49 158.917 538.737 158.67C539.23 158.177 539.415 157.992 539.292 158.115C539.292 158.238 539.353 158.177 539.477 157.93C538.86 158.053 538.243 158.177 537.627 158.3C537.133 158.3 536.578 158.485 535.962 158.855C535.715 158.978 535.345 159.163 534.852 159.41C534.482 159.657 534.297 159.842 534.297 159.965C534.05 160.088 533.68 160.273 533.187 160.52C532.817 160.643 532.447 160.828 532.077 161.075C532.447 160.335 533.433 159.533 535.037 158.67C536.64 157.683 537.873 157.067 538.737 156.82C538.983 156.573 539.538 156.327 540.402 156.08C540.648 155.463 540.833 154.908 540.957 154.415C541.203 153.798 541.45 153.182 541.697 152.565C542.56 150.592 543.608 148.495 544.842 146.275C546.075 143.931 547.308 141.588 548.542 139.245C549.775 136.901 550.885 134.681 551.872 132.585C552.982 130.488 553.722 128.7 554.092 127.22C554.585 125.616 555.633 123.088 557.237 119.634C558.84 116.181 560.505 112.604 562.232 108.904C563.959 105.204 565.5 101.813 566.857 98.7293C568.337 95.5225 569.2 93.4259 569.447 92.4392C569.94 90.7125 570.31 89.3558 570.557 88.3691C570.927 87.3824 571.482 85.8408 572.222 83.7441C574.319 77.5773 576.662 71.6573 579.252 65.9839C581.965 60.1871 584.37 53.8354 586.467 46.9286L585.727 47.1136C585.357 47.7303 584.987 48.4087 584.617 49.1487C584.247 49.7653 584.062 50.4437 584.062 51.1837C584.062 51.5537 583.877 52.232 583.507 53.2187C583.26 54.2054 582.89 55.3154 582.397 56.5487C582.027 57.6588 581.595 58.7071 581.102 59.6938C580.732 60.6805 580.424 61.2971 580.177 61.5438C579.684 61.9138 579.129 62.6538 578.512 63.7638C578.019 64.8739 577.525 66.1072 577.032 67.4639C576.539 68.8206 576.107 70.1156 575.737 71.3489C575.367 72.5823 575.182 73.5073 575.182 74.124C575.182 75.7273 574.935 76.714 574.442 77.084C573.949 77.454 573.455 77.9473 572.962 78.564C572.469 79.1807 572.037 79.7974 571.667 80.414C571.42 80.9074 571.605 80.229 572.222 78.379C572.715 77.269 573.147 76.344 573.517 75.604C573.887 74.864 574.195 74.124 574.442 73.3839C574.812 72.6439 575.12 71.8423 575.367 70.9789C575.737 70.1156 576.107 68.9439 576.477 67.4639C576.97 65.3672 578.019 63.2088 579.622 60.9888C581.225 58.6454 582.15 56.8571 582.397 55.6237C582.52 54.5137 582.89 53.157 583.507 51.5537C584.124 49.827 584.617 48.347 584.987 47.1136C578.45 47.8536 572.407 49.2103 566.857 51.1837C561.43 53.157 556.497 55.1304 552.057 57.1038C547.74 59.0771 543.917 60.8038 540.587 62.2838C537.257 63.7638 534.482 64.4422 532.262 64.3188C527.328 64.0722 523.875 61.8521 521.901 57.6588C521.778 57.6588 521.655 57.4738 521.531 57.1038L519.496 53.4037ZM529.487 162C529.363 162 529.302 162.062 529.302 162.185C529.178 162.308 529.116 162.432 529.116 162.555C528.746 162.802 528.13 163.11 527.266 163.48C526.403 163.973 525.478 164.467 524.491 164.96C523.628 165.453 522.765 165.885 521.901 166.255C521.161 166.625 520.73 166.81 520.606 166.81C519.743 167.057 519.188 167.18 518.941 167.18C518.695 167.303 518.571 167.427 518.571 167.55C518.571 167.673 518.571 167.797 518.571 167.92C518.448 168.043 518.14 168.228 517.646 168.475C517.03 168.845 516.721 168.968 516.721 168.845C516.721 168.722 516.598 168.66 516.351 168.66C516.351 167.55 516.968 166.872 518.201 166.625C519.311 166.502 520.298 166.255 521.161 165.885C521.531 165.638 522.148 165.33 523.011 164.96C523.875 164.59 524.738 164.158 525.601 163.665C526.465 163.295 527.266 162.925 528.006 162.555C528.746 162.308 529.24 162.123 529.487 162Z" fill="#FFDA1A"/>
</g>
<defs>
<filter id="filter0_d" x="0.957031" y="0.308105" width="690.683" height="219.474" filterUnits="userSpaceOnUse" color-interpolation-filters="sRGB">
<feFlood flood-opacity="0" result="BackgroundImageFix"/>
<feColorMatrix in="SourceAlpha" type="matrix" values="0 0 0 0 0 0 0 0 0 0 0 0 0 0 0 0 0 0 127 0" result="hardAlpha"/>
<feOffset dy="9.25011"/>
<feColorMatrix type="matrix" values="0 0 0 0 0.117647 0 0 0 0 0.133333 0 0 0 0 0.666667 0 0 0 1 0"/>
<feBlend mode="normal" in2="BackgroundImageFix" result="effect1_dropShadow"/>
<feBlend mode="normal" in="SourceGraphic" in2="effect1_dropShadow" result="shape"/>
</filter>
</defs>
</svg>
