<svg fill="none" height="220" viewBox="0 0 692 220" width="692" xmlns="http://www.w3.org/2000/svg" xmlns:xlink="http://www.w3.org/1999/xlink"><filter id="a" color-interpolation-filters="sRGB" filterUnits="userSpaceOnUse" height="219.474" width="690.683" x=".957031" y=".308105"><feFlood flood-opacity="0" result="BackgroundImageFix"/><feColorMatrix in="SourceAlpha" result="hardAlpha" type="matrix" values="0 0 0 0 0 0 0 0 0 0 0 0 0 0 0 0 0 0 127 0"/><feOffset dy="9.25011"/><feColorMatrix type="matrix" values="0 0 0 0 0.117647 0 0 0 0 0.133333 0 0 0 0 0.666667 0 0 0 1 0"/><feBlend in2="BackgroundImageFix" mode="normal" result="effect1_dropShadow"/><feBlend in="SourceGraphic" in2="effect1_dropShadow" mode="normal" result="shape"/></filter><g filter="url(#a)"><path d="m122.557 36.1985c-.617-.1233-.987-.1233-1.11 0v.37c.123.1233.123.185 0 .185s-.432-.185-.925-.555c1.357-2.0967 3.083-3.2067 5.18-3.33 2.22-.2467 4.193 0 5.92.74s2.837 1.6033 3.33 2.59c.617.9867 1.048 2.5284 1.295 4.6251 0 .9866-.432 3.2067-1.295 6.66-.863 3.4534-2.035 7.5235-3.515 12.2102s-3.083 9.7434-4.81 15.1702c-1.727 5.3034-3.453 10.3601-5.18 15.1701-1.603 4.6868-3.145 8.8802-4.625 12.5799-1.357 3.577-2.344 5.982-2.96 7.215-.617 1.11-.987 1.974-1.11 2.59 0 .617-.124 1.357-.37 2.22-.987 3.207-2.097 6.167-3.33 8.881-1.11 2.59-2.344 5.981-3.7 10.175l-3.33 11.1c-1.11 2.096-2.097 4.872-2.9604 8.325-.74 3.453-1.4183 6.475-2.035 9.065-.37-.74-.555-1.295-.555-1.665 0-.493.0617-.863.185-1.11.1233-.37.2467-.802.37-1.295.2467-.493.37-1.233.37-2.22 0-.123 0-.37 0-.74s0-.617 0-.74c0-.247-.0617-.308-.185-.185-.1233 0-.37.37-.74 1.11-.37.617-.555 1.172-.555 1.665v1.11c.1233.37.1233.802 0 1.295 0 .493-.185 1.172-.555 2.035-.2467.37-.3084.74-.185 1.11.1233.37.185.74.185 1.11.1233.37.1233.74 0 1.11-.1234.493-.4934 1.048-1.11 1.665 0 0-.0617.247-.185.74 0 .493-.0617.987-.1851 1.48-.1233.617-.3083 1.172-.555 1.665-.1233.493-.3083.74-.555.74 0-.37 0-.863 0-1.48s0-1.11 0-1.48-.0616-.432-.185-.185c-.1233.247-.37.987-.74 2.22-.2466.987-.2466 1.973 0 2.96.37 1.11.37 2.467 0 4.07.1234.247.1234.494 0 .74-.1233.247-.185.494-.185.74-.1233.494-.3083.925-.555 1.295-.1233.494-.3083.987-.555 1.48-.37.987-.6783 1.542-.925 1.665-.1233.124-.2467.124-.37 0-.1233 0-.37 0-.74 0s-.925.309-1.665.925l-1.665-.74c-1.1101-1.85-1.7267-4.07-1.8501-6.66 0-2.59.185-5.303.555-8.14.37-2.713.8634-5.365 1.48-7.955.7401-2.59 1.3567-4.81 1.8501-6.66l10.3601-31.82c.6167-1.727.8633-2.899.74-3.516-.1233-.616.0617-1.418.555-2.405l7.4004-19.0548c.246-1.3567.37-2.4667.37-3.33 0-.9867.308-2.1584.925-3.515.616-1.3567 1.233-2.8984 1.85-4.6251.616-1.7267 1.171-3.4534 1.665-5.1801-.247.2467-.494.4934-.74.74-.124.2467-.185.4934-.185.74-.247.6167-.74 1.2951-1.48 2.0351-.74.6166-1.542 1.295-2.405 2.035-.74.6167-1.419 1.1717-2.035 1.665-.617.4934-.925.8017-.925.925.123.9867-.185 1.5417-.925 1.6651-.617 0-.987.3083-1.11.925-.247 1.3566-.802 2.4667-1.6654 3.33-.8633.8633-1.1717 1.0483-.925.555.4933-1.11.6167-1.7267.37-1.85-.1233-.1234-.4317 0-.925.37-.37.2467-.8633.6167-1.48 1.11-.4934.37-.8017.4933-.925.37 0-.2467.185-.555.555-.925.4933-.4933.8633-.74 1.11-.74.8633-.37 1.48-.6167 1.85-.74.4934-.2467.8014-.4934.9254-.74.246-.2467.37-.4934.37-.74.123-.37.308-.8634.555-1.4801 0-.1233.308-.4933.925-1.11.616-.74 1.295-1.48 2.035-2.22s1.418-1.3567 2.035-1.85c.74-.6167 1.171-.9867 1.295-1.11v-.37c-.124-.6167-.555-.6167-1.295 0-.74.4933-1.234.8633-1.48 1.11-.247.2466-.309.2466-.185 0 .246-.37.493-.74.74-1.11.37-.37.74-.74 1.11-1.1101.37-.4933.678-.74.925-.74v-1.48c-.987 1.3567-2.097 2.7134-3.33 4.0701-1.234 1.2333-2.467 2.59-3.7 4.07-1.3571 1.6034-2.4054 3.0217-3.1454 4.2551-.74 1.11-1.85 2.59-3.3301 4.44l2.2201.74c0 .2467-.0617.4317-.185.555v.37c.2466-.1233.37-.185.37-.185.1233-.1233.3083-.2466.555-.37.6167-.2466.925-.4933.925-.74 0-.2466.4933-.4316 1.48-.555.9864-.2466 1.5414-.4316 1.6654-.555.246-.1233-.309.3084-1.6654 1.295-.9867.74-1.6033 1.1717-1.85 1.295-.1233 0-.4934.4934-1.11 1.4801.74-.2467 1.295-.4317 1.665-.555.37-.2467 1.4184-.2467 3.1454 0-.987.6166-1.7887 1.4187-2.4054 2.4047-.6167.987-1.0483 1.974-1.295 2.96-.2467.617-.37.864-.37.74.1233-.123.0617.124-.185.74-.4934.74-.925 1.234-1.295 1.48-.2467.124-.6784.432-1.295.925-.7401.617-1.2334 1.11-1.4801 1.48-.2466.247-.4316.494-.555.74-.1233.247-.2466.555-.37.925-.1233.247-.4933.74-1.11 1.48-1.11 1.357-2.7134 2.96-4.81 4.81-1.9734 1.727-4.5634 4.687-7.7701 8.881-.9867 1.233-1.7884 2.035-2.4051 2.405-.4933.246-1.1716.863-2.035 1.85-1.3567 1.356-2.6517 2.836-3.885 4.44-1.1101 1.48-2.3434 3.083-3.7001 4.81-.4933.616-1.1717 1.295-2.035 2.035-.74.616-1.3567 1.233-1.85 1.85-.74.74-1.2334 1.541-1.48 2.405-.1234.74-.4934 1.603-1.1101 2.59-.6166.617-1.4183 1.233-2.405 1.85-.8633.617-1.6033 1.233-2.22 1.85-2.0967 2.467-3.7617 4.933-4.9951 7.4-1.2333 2.467-2.7133 4.748-4.44 6.845-.2467.123-.4317.247-.555.37-.1234.123-.3084.247-.555.37.2466 0 .37-.308.37-.925.2466-.617.4933-1.295.74-2.035.37-.74.6783-1.418.925-2.035.37-.247.555-.493.555-.74s-.0617-.247-.185 0c-.1233.74-.555 1.418-1.295 2.035-.6167.74-1.11 1.48-1.48 2.22-.6167 1.727-1.4184 2.775-2.4051 3.145-.9866.37-1.6033 1.048-1.85 2.035-.4933.37-.925.678-1.295.925-.37.37-.6783.74-.925 1.11-1.11.987-1.85 1.912-2.22 2.775-.2467.864-.9867 1.789-2.2201 2.775-2.4667 1.727-5.55 3.022-9.2501 3.885-3.7.864-7.5234.247-11.4701-1.85-3.45339-1.973-6.04342-4.871-7.77011-8.695-1.72668-3.7-2.8367-7.955-3.33004-12.765-.370001-4.933-.308334-10.052.18501-15.355.61667-5.427 1.41835-10.73 2.40502-15.91.98668-5.304 1.97336-10.176 2.96004-14.616 1.11001-4.563 1.97336-8.386 2.59003-11.47-.37001.617-.61667 1.172-.74001 1.665-.12333.494-.43167 1.295-.92501 2.405 0 .124-.12334.555-.37 1.295-.12334.617-.30834 1.357-.55501 2.22-.12334.74-.30834 1.48-.55501 2.22-.12333.617-.185.925-.185.925-.86334.494-1.29502.987-1.29502 1.48-.12333.247-.12333.494 0 .74 0-.986.37001-2.59 1.11002-4.81s1.23335-3.946 1.48002-5.18c.24666-.863.49333-1.48.74-1.85.24667-.493.49334-.863.74001-1.11.24667-.37.43167-.74.55501-1.11.24667-.37.49334-1.048.74005-2.0347 0-.6167 0-1.1717 0-1.6651.1233-.4933.1233-.8633 0-1.11-.61672.8634-1.04839 1.665-1.29506 2.4051-.12333.74-.49334 1.5417-1.11001 2.4047 0-.986.06167-2.0347.185-3.1448.24667-1.11.49334-2.2816.74001-3.515.12334 0 .37-.185.74001-.555.24667-.37.37-.4933.37-.37 0 0-.06166-.37-.185-1.11l-.185-.555c.98665.1233 1.48005-.2467 1.48005-1.11 0-.8634.1233-1.4184.37-1.6651.2466-.2466.4316-.555.555-.925.1233-.37.0616-.4316-.185-.185-.37.37-.4934.37-.37 0 .1233-.4933.3083-1.11.555-1.85.37-.74.74-1.4183 1.11-2.035.37-.74.555-1.11.555-1.11.1233-.2467.3083-.6784.555-1.2951.2467-.6166.4317-1.11.555-1.48s.1233-.4933 0-.37c-.1233 0-.4933.4317-1.11 1.295 0 .1234-.2467.555-.74 1.2951-.37.6166-.3083.6783.185.185-.1233-.1234-.1233-.74 0-1.8501.2467-1.11.555-1.9733.925-2.59.2467-.2467.37-.8633.37-1.85.1233-.9867.0617-1.85-.185-2.59.37-1.9734.8017-4.1318 1.295-6.4751.4934-2.3434.925-4.6867 1.295-7.0301.4934-2.3434.8017-4.5634.925-6.6601.2467-2.22.185-4.1317-.185-5.7351.7401-.37 1.1717-.6166 1.2951-.74.1233-.2466.185-.4316.185-.555.1233-.1233.3083-.2466.555-.37.37-.1233 1.0483-.2466 2.035-.37 1.3567-.2466 2.4667-.2466 3.33 0 .9867.1234 2.0967.4317 3.3301.925 4.07 1.6034 5.4884 4.5634 4.255 8.8801-.4933 1.6034-1.1717 3.1451-2.035 4.6251-.74 1.3567-1.2334 3.145-1.48 5.3651-.2467 1.85-.3084 3.9467-.185 6.29.2466 2.3434.2466 4.3784 0 6.1051-.74 4.3167-1.85 8.2634-3.3301 11.8401-1.48 3.5768-2.7133 7.4001-3.7 11.4699-.2467 1.11-.8633 2.714-1.85 4.81-.8634 1.974-1.48 3.454-1.85 4.44-.1234.987-.0617 1.789.185 2.405.2466.617.3083 1.234.185 1.85-.2467.74-.6167 1.665-1.1101 2.775-.37 1.11-.6166 2.159-.74 3.146-.6166 2.836-1.1716 5.981-1.665 9.435-.4933 3.33-.8633 6.845-1.11 10.545.6167.863.74 1.726.37 2.59-.2467.74-.3083 1.541-.185 2.405.1233 1.356 0 2.405-.37 3.145-.2467.74-.2467 2.035 0 3.885v1.48c0 .74-.0617 1.542-.185 2.405.1233 2.837.3083 5.488.555 7.955s.74 4.748 1.48 6.845c.4934 1.357 1.0484 2.097 1.665 2.22.6167.247 1.2951.062 2.0351-.555.8633-.617 1.7883-1.542 2.775-2.775.9867-1.11 2.1584-2.22 3.515-3.33 4.0701-3.7 7.7085-7.77 10.9152-12.21 3.33-4.44 6.7834-8.757 10.3601-12.95l19.9802-24.791c.37-.493.6167-.925.74-1.295.2467-.37.4317-.678.555-.925.1234-.246.2467-.493.37-.74.2467-.246.6167-.616 1.1101-1.11 2.22-2.22 4.255-4.563 6.105-7.03 1.8501-2.466 3.8234-4.995 5.9201-7.5848.4933-.74.925-1.295 1.295-1.665.37-.4933.8634-1.0483 1.48-1.665l8.6951-11.1001c1.2334-1.3567 3.1451-3.7617 5.7351-7.2151 2.5904-3.4534 5.2414-7.1534 7.9554-11.1001 2.836-3.9468 5.365-7.7701 7.585-11.4702 2.343-3.7 3.823-6.5984 4.44-8.6951.37-1.2333.74-2.1583 1.11-2.775.37-.74.74-1.3567 1.11-1.85.37-.6167.678-1.2334.925-1.8501.37-.74.678-1.7266.925-2.96zm-107.3014 98.2365c0-.494 0-.555 0-.185.1234.37.2467.678.37.925-.2466 1.11-.4316 1.85-.555 2.22-.1233.246-.185.493-.185.74 0 .123.0617.37.185.74.2467.246.555.863.925 1.85.2467.74.37 1.233.37 1.48.1234.123.0617.431-.185.925-.2466.493-.4933 1.171-.74 2.035-.1233.863-.2466 1.788-.37 2.775-.1233.987-.2467 1.973-.37 2.96v2.035c.2467 1.603.2467 2.96 0 4.07-.1233 1.11-.4933 2.343-1.11 3.7-.1233.247-.185 0-.185-.74.1233-.863.2467-1.788.37-2.775.1233-1.11.185-2.158.185-3.145.1233-1.11.185-1.788.185-2.035-.2467-1.603-.1233-3.453.37-5.55.4934-2.097.6167-3.454.37-4.07-.6167-1.11-.925-1.974-.925-2.59 0-.74.0617-1.357.185-1.85.2467-.617.4933-1.172.74-1.665.2467-.494.37-1.11.37-1.85zm92.3164-52.3559c.123.74.308 1.0483.555.925.37-.2467.74-.6784 1.11-1.295.37-.6167.74-1.2951 1.11-2.0351.493-.74.925-1.295 1.295-1.665.246-.2467.246-.555 0-.925zm-18.8705 31.2649c.2467-.493.185-.863-.185-1.11-.2467-.246.1233-.616 1.11-1.11.1233 0 .185-.246.185-.74 0-.493-.555-.185-1.665.925-.6167.37-.925.864-.925 1.48.1233.494-.3084 1.11-1.295 1.85-.2467.247-.7401.432-1.4801.555-.74 0-1.3566.864-1.85 2.59-.1233.617-.4933 1.234-1.11 1.85-.4933.494-.8633 1.049-1.11 1.666-.37 1.11-.925 1.788-1.665 2.035-.74.246-1.11.555-1.11.925-.2467.246 0 0 .74-.74.8633-.74 1.6033-1.11 2.22-1.11.37 0 .6167-.124.74-.37.1233-.247.2467-.555.37-.925s.2467-.74.37-1.11c.2467-.494.6784-.926 1.295-1.296.37-.37.4934-.863.37-1.48-.1233-.616.0617-.925.555-.925.1234 0 .185.185.185.555s-.0616.74-.185 1.11c-.1233.247-.185.432-.185.555.1234.124.37-.123.74-.74.4934-.74.74-1.048.74-.925.1234.124.1234-.308 0-1.295-.1233-.123.1851-.308.9251-.555.74-.37 1.2333-.616 1.48-.74 0-.123 0 .062 0 .555.1233.494.4317.37.925-.37.1233-.37.3083-.493.555-.37.2467.124.0617-.061-.555-.555zm42.2385 26.086c1.11-1.234 2.898-3.454 5.365-6.66 2.467-3.207 5.057-6.537 7.77-9.99 2.837-3.577 5.612-6.846 8.325-9.806 2.713-3.083 4.81-5.118 6.29-6.105 2.097-1.356 4.07-3.145 5.92-5.365 1.85-2.2197 3.639-4.2548 5.365-6.1048.987-1.11 1.542-2.4667 1.665-4.07.124-1.7267 0-3.5151-.37-5.3651s-.925-3.7-1.665-5.5501c-.616-1.85-1.11-3.4533-1.48-4.81-.74-2.8367-1.603-5.7968-2.59-8.8801-.863-3.2067-1.788-6.4134-2.775-9.6201.494.37.864.8633 1.11 1.48.37.6167.617 1.2333.74 1.85 0 .74.062 1.295.185 1.665.247.2467.494.74.74 1.48.247.37.309.4317.185.185-.123-.2466-.185-.4316-.185-.555-.246-.4933-.246-.74 0-.74.247-.1233.37.0617.37.555.124.74.432 1.5417.925 2.4051.494.8633.679 1.0483.555.555-.37-1.11-.74-2.4051-1.11-3.8851-.37-1.6033-.925-2.8984-1.665-3.885-.74-.9867-1.11-1.85-1.11-2.5901.124-.74 0-1.3566-.37-1.85-.617-.9867-.925-1.4183-.925-1.295 0 0 0-.3083 0-.925s-.37-1.11-1.11-1.48c-.74-.4934-1.233-.925-1.48-1.295v-.37c-.617-1.2334-1.172-2.4051-1.665-3.5151-.493-1.2333-1.048-2.3433-1.665-3.33l-2.96-3.8851c-.37-.2466-.617-.37-.74-.37s-.185 0-.185 0-.062 0-.185 0c0-.1233-.185-.4316-.555-.925 1.85-1.6033 4.193-2.4667 7.03-2.59 2.96-.2467 5.427.2466 7.4 1.48.494.37 1.419 1.11 2.775 2.22 1.357 1.11 2.282 1.9117 2.775 2.4051 1.85 1.7266 3.392 4.3167 4.625 7.77 1.357 3.3301 2.529 6.9068 3.515 10.7302 1.11 3.7 2.159 7.4001 3.145 11.1001.987 3.5767 2.097 6.4751 3.33 8.6951 1.357-.9867 2.282-1.7883 2.775-2.405.494-.6167 1.357-1.5417 2.591-2.7751 1.11-.9866 2.096-1.7883 2.96-2.405.986-.74 1.973-1.6033 2.96-2.59 2.096-1.9734 3.946-3.8234 5.55-5.5501 1.726-1.7267 3.638-3.4534 5.735-5.18l16.835-14.6152c5.427-4.3167 10.915-8.5718 16.465-12.7652 5.55-4.3167 11.1-8.2634 16.65-11.8401l4.44-3.145c1.604-1.2334 2.837-2.2201 3.7-2.9601.987-.8633 2.529-1.7883 4.625-2.77501.74-.37001 1.234-.55501 1.48-.55501.247-.12333.37-.185.37-.185.124-.12333.247-.24667.37-.37.124-.12334.494-.43168 1.11-.92501.741-.74001 1.172-1.17169 1.296-1.29502.246-.24667.863-.67834 1.85-1.29501 1.233-.74001 2.528-1.48002 3.885-2.22003 1.356-.74001 2.528-1.418346 3.515-2.035019l-.185 2.775029 3.145-.92501c.37 1.11001.616 1.91169.74 2.40503.123.37.185.67834.185.92501 0 .12333-.124.24667-.37.37-.124 0-.247.185-.37.55501-.494 1.85002-1.357 3.33004-2.59 4.44004-1.234.9867-2.96 2.3434-5.18 4.0701l-27.936 19.4252c-3.576 2.7134-6.907 5.4267-9.99 8.1401s-6.475 5.365-10.175 7.9551c-1.48 1.11-2.652 2.0967-3.515 2.96-.74.74-1.727 1.6034-2.96 2.59l-24.42 23.8653c-.74.74-1.295 1.2334-1.665 1.48-.37.2467-.864.6784-1.48 1.2951l-8.881 9.6201c0 1.2333.124 2.6517.37 4.255.37 1.6034.74 3.2684 1.111 4.9948.37 1.727.74 3.454 1.11 5.18.493 1.604.925 3.084 1.295 4.44 1.973 9.621 4.008 19.302 6.105 29.046 2.22 9.62 4.563 18.932 7.03 27.935l8.51 26.455c.493 1.11 1.048 2.344 1.665 3.7.616 1.48 1.11 2.899 1.48 4.255.37 1.357.37 2.591 0 3.701-.247 1.233-1.049 2.096-2.405 2.59-.74.246-1.234.555-1.48.925-.247.37-.494.616-.74.74-.124.123-.309.061-.555-.185-.124-.124-.555-.555-1.295-1.295-.987-1.234-1.85-2.405-2.59-3.515-.617-1.11-1.357-2.344-2.22-3.701-.617-.986-1.419-2.281-2.405-3.885-.864-1.603-1.604-2.713-2.22-3.33.246-.863.37-1.233.37-1.11 0 .124.061.185.185.185 0-.123.061-.246.185-.37.123-.123.185-.246.185-.37.493-.616.555-1.171.185-1.665-.37-.493-.802-1.048-1.295-1.665-.617-.863-.987-1.233-1.11-1.11 0 .124-.124-.308-.37-1.295-.494-1.726-.864-2.96-1.11-3.7-.124-.74-.617-1.788-1.48-3.145-.987.987-1.295 1.85-.925 2.59.493.74.986 1.912 1.48 3.515-1.11-1.85-2.097-3.946-2.96-6.29-.864-2.22-1.789-4.44-2.775-6.66-.74-1.85-1.11-3.207-1.11-4.07 0-.74.061-1.48.185-2.22.246-.74.37-1.665.37-2.775.123-.987-.185-2.59-.925-4.81-.617-2.097-1.419-3.762-2.406-4.995-.986-1.233-1.48-2.713-1.48-4.44.124-2.714-.308-5.797-1.295-9.25-.863-3.577-1.603-6.845-2.22-9.805-.37.986-.678 1.788-.925 2.405-.123.616-.308 1.295-.555 2.035l-2.405-9.99c1.234.37 1.789.616 1.665.74-.123.123-.37.246-.74.37-.37.123-.555.185-.555.185h2.59c-.493-2.097-.925-3.885-1.295-5.365s-.801-3.269-1.295-5.366c-.246.987-.431 1.665-.555 2.035v.74c0 .124-.123.247-.37.37-.123.124-.431.432-.925.926-.493-2.344-.801-4.009-.925-4.996 0-1.11-.37-2.466-1.11-4.07l-1.665-2.775-7.955 9.065c-1.603 1.727-3.021 3.269-4.255 4.626-1.11 1.356-2.282 2.836-3.515 4.44l-11.285 14.06c-.987.986-1.665 1.726-2.035 2.22-.37.493-.925 1.356-1.665 2.59-2.467 3.823-4.81 7.153-7.03 9.99-2.22 2.713-4.564 5.982-7.03 9.805-.617.987-1.11 1.85-1.48 2.59-.494.863-.987 1.603-1.48 2.22.246-.617.616-1.357 1.11-2.22.37-.863.616-1.418.74-1.665.37-.987.74-1.788 1.11-2.405.37-.493.74-1.172 1.11-2.035.493-.987.74-1.48.74-1.48 0-.123-.124 0-.37.37-.124.247-.37.617-.74 1.11-.247.37-.432.617-.555.74-.617.74-.864.863-.74.37.246-.37.37-.678.37-.925 0-.617.246-1.233.74-1.85.493-.74.616-.987.37-.74-.617.493-1.295 1.233-2.035 2.22-.74.863-1.357 1.603-1.85 2.22-.987 1.233-1.974 2.343-2.96 3.33-.987 1.11-2.22 1.973-3.7 2.59-.74.247-1.172.432-1.295.555-.124.123-.432.247-.925.37-.74.37-1.11.493-1.11.37s.061-.308.185-.555c.123-.247.185-.493.185-.74 0-.123-.37 0-1.11.37-.247.247-.432.432-.555.555-.124.123-.247.247-.37.37l-.37.37c-.124-.37.061-.863.555-1.48.37-.617.863-1.233 1.48-1.85.493-.493.986-.987 1.48-1.48.37-.37.555-.555.555-.555-.987.247-1.789.863-2.405 1.85-.617.987-1.295 1.603-2.035 1.85-1.357.37-1.974.432-1.85.185.123-.247.185-.802.185-1.665-.617 0-.802.062-.555.185.123.123.061.308-.185.555-.37.493-.555.74-.555.74-.124.123-.432.123-.925 0h.555v-.74c.616-.863 1.48-2.22 2.59-4.07.986-1.85 2.096-3.762 3.33-5.735 1.233-2.097 2.466-4.07 3.7-5.92 1.11-1.85 2.096-3.268 2.96-4.255zm145.597-134.86686v.185l-.185.185c-.617.61667-1.172.98668-1.666 1.11001-.37.12333-.74.43167-1.11.92501s-.678.92501-.925 1.29502c-.246.24667-.678.43167-1.295.555-1.233.24667-1.85.55501-1.85.92502 0 .24667-.185.555-.555.925-.37.1233-.74.3083-1.11.555-.246.2467-.555.4317-.925.555-.37.1234-.678.3084-.925.555-.616.6167-1.171.9867-1.665 1.11-.493 0-1.048.1234-1.665.37-1.233.9867-2.22 1.7267-2.96 2.2201-.616.4933-1.171.925-1.665 1.295-.37.2467-.308.1233.185-.37.37-.37.617-.6167.74-.74.124-.2467.432-.555.925-.925.987-.8634 2.467-1.7267 4.44-2.5901 1.974-.9866 3.207-1.7267 3.7-2.22.494-.74001.925-1.23334 1.295-1.48001.494-.24667.925-.43168 1.295-.55501s.679-.185.925-.185c.247-.12333.494-.30834.74-.55501.494-.74001.864-1.23335 1.11-1.48002.37-.24667.679-.43167.925-.555.37-.12333.74-.24667 1.11-.37001.371-.12333.741-.37 1.111-.74zm-77.331 179.82186c.246.247.431.679.555 1.295.246.617.37 1.11.37 1.48 0 .864.185 1.419.555 1.665.493.37.863 1.049 1.11 2.035.123.494.123.679 0 .555 0 0-.062-.185-.185-.555-.124-.246-.247-.555-.37-.925-.124-.246-.247-.37-.37-.37-.247 0-.494 0-.74 0-.124 0-.185.309-.185.925v.185-.555c-.247-.616-.309-1.048-.185-1.295.246-.246.246-.801 0-1.665-.124-.246-.185-.555-.185-.925 0-.246-.124-.555-.37-.925-.247-.493-.432-.986-.555-1.48 0-.493 0-.801 0-.925 0-.123.123 0 .37.37.246.494.308.864.185 1.11zm-14.986-49.395c-.37.74-.431 1.295-.185 1.665.247.246.494.493.74.74.37.246.679.555.925.925.247.246.247.74 0 1.48-.37.74-.493 1.541-.37 2.405.247.863.494 1.726.74 2.59.37.74.679 1.541.925 2.405.247.863.309 1.727.185 2.59-.123.123-.185.37-.185.74.124.247.124.432 0 .555-.246-.493-.37-1.357-.37-2.59.124-1.357-.308-2.652-1.295-3.885-.123-.124-.37-.432-.74-.925-.246-.494-.123-.494.37 0 .37.37.432.185.185-.555-.123-.864-.185-1.48-.185-1.85 0-.617 0-.987 0-1.11.124-.124.062-.494-.185-1.11-.246-.37-.308-.679-.185-.925.124-.37-.123-.802-.74-1.295-.123 0-.185-.617-.185-1.85v-1.665c.247.123.37.493.37 1.11.124.493.185.678.185.555zm120.818-58.276c0-.1233.062-.185.185-.185v.185.185c-.123 0-.185-.0617-.185-.185v.185zm2.775.555c-.123 0-.185-.0617-.185-.185 0 0 .062.0617.185.185zm30.896-33.1154c.616.6167.678 1.4184.185 2.405-.494.4934-.987 1.2334-1.48 2.2201-1.727 2.22-3.207 4.5633-4.44 7.03-1.234 2.3434-2.467 4.7484-3.7 7.2151-1.11 2.2201-2.282 4.5017-3.515 6.8451-1.11 2.22-2.467 4.3784-4.07 6.4751-.247.37-.432.6783-.555.925-.124.2467-.247.6167-.37 1.11-1.234 2.59-2.405 4.8717-3.515 6.8451-.864 1.11-1.604 2.22-2.22 3.33-.617 1.11-1.234 2.3434-1.85 3.7001-.864 1.48-1.727 2.8983-2.591 4.255-.74 1.3567-1.418 2.8984-2.035 4.6248-1.233 1.357-2.158 2.837-2.775 4.44-.616 1.48-1.295 2.96-2.035 4.44-1.11 1.727-2.096 3.577-2.96 5.55-.863 1.85-1.788 3.639-2.775 5.366-1.11 1.973-2.096 4.008-2.96 6.105-.74 1.973-1.603 3.946-2.59 5.92-1.48 2.96-2.775 5.92-3.885 8.88-.616 1.356-1.233 2.59-1.85 3.7-.493 1.11-1.233 2.158-2.22 3.145-.74.74-1.295 1.542-1.665 2.405s-.802 1.727-1.295 2.59c-.247.493-.493.925-.74 1.295-.247.247-.493.617-.74 1.11-.863-.493-1.603-.432-2.22.185-.247.37-.493.74-.74 1.11s-.432.863-.555 1.48c-.123.987-.493 2.035-1.11 3.145-.123.247-.247.37-.37.37-.247.123-.432.247-.555.37-.247.123-.555 0-.925-.37-.493-.247-.74-.493-.74-.74-.123-.37-.185-.802-.185-1.295-.123-.493-.123-.987 0-1.48.247-.987.493-1.912.74-2.775.123-.987.37-1.973.74-2.96 1.233-3.947 2.528-7.832 3.885-11.655 1.357-3.824 2.898-7.647 4.625-11.47.74-1.85 1.48-3.639 2.22-5.365.74-1.727 1.604-3.392 2.59-4.996.247-1.11.617-2.158 1.11-3.145.617-.986 1.172-1.973 1.665-2.96.37-.986.74-1.911 1.11-2.775.37-.863.864-1.788 1.48-2.775.37-.863.74-1.665 1.11-2.405.37-.863.74-1.665 1.11-2.405.617-.616.987-1.356 1.11-2.22.124-.9864.494-1.7881 1.11-2.4048.617-1.48 1.295-2.8983 2.035-4.255.864-1.48 1.48-3.0217 1.85-4.6251.617-.4933.987-1.0483 1.11-1.665.247-.74.494-1.5417.74-2.405.37 0 .679-.185.925-.555.37-.74.679-1.4184.925-2.035.247-.6167.555-1.2334.925-1.8501.37-.74.679-1.4183.925-2.035.247-.6167.617-1.2333 1.11-1.85.124 0 .185-.0617.185-.185 0 .1233-.061.185-.185.185v-.185h-.185c-.37-.37-1.171-.555-2.405-.555.617-1.11 1.172-2.22 1.665-3.3301.617-1.11 1.234-2.22 1.85-3.33.124-.2467.247-.4317.37-.555.247-.2467.37-.3083.37-.185.37.1233.494.2467.37.37-.123.1233-.185.3083-.185.555-.246.74-.37 1.1717-.37 1.295 0 .1234.062.2467.185.37 0 .1234.124.185.37.185h.185c.247-.2466.432-.4933.555-.74.247-.2466.432-.4933.555-.74v-3.145c.37-.1234.802-.185 1.295-.185.617-1.48.987-2.2817 1.111-2.4051.986-.4933 1.603-1.11 1.85-1.85.246-.74.493-1.5417.74-2.405 0-.37-.062-.555-.185-.555h-.74c-.37.4933-.74.9867-1.11 1.48-.247.37-.555.8017-.925 1.295 0 .1234-.309.3084-.926.555v-.37c.987-1.9733 1.912-3.9467 2.776-5.92.863-1.9734 1.788-3.8851 2.775-5.7351.37-.4934.801-1.2334 1.295-2.22 1.233-2.8367 3.453-4.8718 6.66-6.1051 1.233-.37 2.466-.74 3.7-1.11 1.233-.37 2.528-.4934 3.885-.37 1.11.1233 2.096.4316 2.96.925.863.4933 1.665 1.11 2.405 1.85zm-36.446 41.0705c.494.2467.74.37.74.37-.246.37-.555.6783-.925.925-.246.2467-.555.555-.925.925h-.185c0-.1233-.061-.2467-.185-.37-.123-.8633.124-1.6033.74-2.22.247 0 .494.1233.74.37zm.74.37v.185zm1.295-4.0701c-.246.6167-.616.8017-1.11.5551-.246-.2467-.123-.6167.37-1.1101.247-.4933.494-.4933.74 0zm7.955-18.3152c-.123.1234-.185.2467-.185.37v-.37h.185-.185zm-.185.37c-.123.2467-.246.555-.37.925 0 .2467-.185.4317-.555.555.247-.2466.37-.4933.37-.74.124-.2466.309-.4933.555-.74zm-.925 1.48v.1851zm0 2.2201v-.185zm-.37-1.48c.247-.2467.37-.4317.37-.555v1.85c-.493-.2467-.616-.6784-.37-1.295zm-12.765 24.2352c-.246-.2466-.123-.37.37-.37h2.775c-.123.1234-.37.185-.74.185-.246 0-.555 0-.925 0-.37-.1233-.678-.185-.925-.185.124 0 .185.1234.185.37-.246.4934-.493.4934-.74 0zm-1.665 6.2901-.37-.185h.37zm217.176-60.1257c-.617-.1233-.987-.1233-1.11 0v.37c.123.1233.123.185 0 .185-.124 0-.432-.185-.925-.555 1.356-2.0967 3.083-3.2067 5.18-3.33 2.22-.2467 4.193 0 5.92.74 1.726.74 2.836 1.6033 3.33 2.59.616.9867 1.048 2.5284 1.295 4.6251 0 .9866-.432 3.2067-1.295 6.66-.864 3.4534-2.035 7.5235-3.515 12.2102s-3.084 9.7434-4.81 15.1702c-1.727 5.3034-3.454 10.3601-5.18 15.1701-1.604 4.6868-3.145 8.8802-4.626 12.5799-1.356 3.577-2.343 5.982-2.96 7.215-.616 1.11-.986 1.974-1.11 2.59 0 .617-.123 1.357-.37 2.22-.986 3.207-2.096 6.167-3.33 8.881-1.11 2.59-2.343 5.981-3.7 10.175l-3.33 11.1c-1.11 2.096-2.096 4.872-2.96 8.325-.74 3.453-1.418 6.475-2.035 9.065-.37-.74-.555-1.295-.555-1.665 0-.493.062-.863.185-1.11.124-.37.247-.802.37-1.295.247-.493.37-1.233.37-2.22 0-.123 0-.37 0-.74s0-.617 0-.74c0-.247-.061-.308-.185-.185-.123 0-.37.37-.74 1.11-.37.617-.555 1.172-.555 1.665v1.11c.124.37.124.802 0 1.295 0 .493-.185 1.172-.555 2.035-.246.37-.308.74-.185 1.11.124.37.185.74.185 1.11.124.37.124.74 0 1.11-.123.493-.493 1.048-1.11 1.665 0 0-.061.247-.185.74 0 .493-.061.987-.185 1.48-.123.617-.308 1.172-.555 1.665-.123.493-.308.74-.555.74 0-.37 0-.863 0-1.48s0-1.11 0-1.48-.061-.432-.185-.185c-.123.247-.37.987-.74 2.22-.246.987-.246 1.973 0 2.96.37 1.11.37 2.467 0 4.07.124.247.124.494 0 .74-.123.247-.185.494-.185.74-.123.494-.308.925-.555 1.295-.123.494-.308.987-.555 1.48-.37.987-.678 1.542-.925 1.665-.123.124-.246.124-.37 0-.123 0-.37 0-.74 0s-.925.309-1.665.925l-1.665-.74c-1.11-1.85-1.727-4.07-1.85-6.66 0-2.59.185-5.303.555-8.14.37-2.713.863-5.365 1.48-7.955.74-2.59 1.357-4.81 1.85-6.66l10.36-31.82c.617-1.727.864-2.899.74-3.516-.123-.616.062-1.418.555-2.405l7.4-19.0548c.247-1.3567.37-2.4667.37-3.33 0-.9867.309-2.1584.925-3.515.617-1.3567 1.234-2.8984 1.85-4.6251.617-1.7267 1.172-3.4534 1.665-5.1801-.246.2467-.493.4934-.74.74-.123.2467-.185.4934-.185.74-.246.6167-.74 1.2951-1.48 2.0351-.74.6166-1.541 1.295-2.405 2.035-.74.6167-1.418 1.1717-2.035 1.665-.616.4934-.925.8017-.925.925.124.9867-.185 1.5417-.925 1.6651-.616 0-.986.3083-1.11.925-.246 1.3566-.801 2.4667-1.665 3.33-.863.8633-1.171 1.0483-.925.555.494-1.11.617-1.7267.37-1.85-.123-.1234-.431 0-.925.37-.37.2467-.863.6167-1.48 1.11-.493.37-.801.4933-.925.37 0-.2467.185-.555.555-.925.494-.4933.864-.74 1.11-.74.864-.37 1.48-.6167 1.85-.74.494-.2467.802-.4934.925-.74.247-.2467.37-.4934.37-.74.124-.37.309-.8634.555-1.4801 0-.1233.309-.4933.925-1.11.617-.74 1.295-1.48 2.035-2.22s1.419-1.3567 2.035-1.85c.74-.6167 1.172-.9867 1.295-1.11v-.37c-.123-.6167-.555-.6167-1.295 0-.74.4933-1.233.8633-1.48 1.11-.246.2466-.308.2466-.185 0 .247-.37.494-.74.74-1.11.37-.37.74-.74 1.11-1.1101.37-.4933.679-.74.925-.74v-1.48c-.986 1.3567-2.096 2.7134-3.33 4.0701-1.233 1.2333-2.466 2.59-3.7 4.07-1.356 1.6034-2.405 3.0217-3.145 4.2551-.74 1.11-1.85 2.59-3.33 4.44l2.22.74c0 .2467-.061.4317-.185.555v.37c.247-.1233.37-.185.37-.185.124-.1233.309-.2466.555-.37.617-.2466.925-.4933.925-.74 0-.2466.494-.4316 1.48-.555.987-.2466 1.542-.4316 1.665-.555.247-.1233-.308.3084-1.665 1.295-.986.74-1.603 1.1717-1.85 1.295-.123 0-.493.4934-1.11 1.4801.74-.2467 1.295-.4317 1.665-.555.37-.2467 1.419-.2467 3.145 0-.986.6166-1.788 1.4187-2.405 2.4047-.616.987-1.048 1.974-1.295 2.96-.246.617-.37.864-.37.74.124-.123.062.124-.185.74-.493.74-.925 1.234-1.295 1.48-.246.124-.678.432-1.295.925-.74.617-1.233 1.11-1.48 1.48-.246.247-.431.494-.555.74-.123.247-.246.555-.37.925-.123.247-.493.74-1.11 1.48-1.11 1.357-2.713 2.96-4.81 4.81-1.973 1.727-4.563 4.687-7.77 8.881-.987 1.233-1.788 2.035-2.405 2.405-.493.246-1.172.863-2.035 1.85-1.357 1.356-2.652 2.836-3.885 4.44-1.11 1.48-2.343 3.083-3.7 4.81-.493.616-1.172 1.295-2.035 2.035-.74.616-1.357 1.233-1.85 1.85-.74.74-1.234 1.541-1.48 2.405-.124.74-.494 1.603-1.11 2.59-.617.617-1.419 1.233-2.405 1.85-.864.617-1.604 1.233-2.22 1.85-2.097 2.467-3.762 4.933-4.995 7.4-1.234 2.467-2.714 4.748-4.44 6.845-.247.123-.432.247-.555.37-.124.123-.309.247-.555.37.246 0 .37-.308.37-.925.246-.617.493-1.295.74-2.035.37-.74.678-1.418.925-2.035.37-.247.555-.493.555-.74s-.062-.247-.185 0c-.124.74-.555 1.418-1.295 2.035-.617.74-1.11 1.48-1.48 2.22-.617 1.727-1.419 2.775-2.405 3.145-.987.37-1.604 1.048-1.85 2.035-.494.37-.925.678-1.295.925-.37.37-.679.74-.925 1.11-1.11.987-1.85 1.912-2.22 2.775-.247.864-.987 1.789-2.22 2.775-2.467 1.727-5.551 3.022-9.251 3.885-3.7.864-7.523.247-11.47-1.85-3.453-1.973-6.043-4.871-7.77-8.695-1.727-3.7-2.837-7.955-3.33-12.765-.37-4.933-.308-10.052.185-15.355.617-5.427 1.418-10.73 2.405-15.91.987-5.304 1.974-10.176 2.96-14.616 1.11-4.563 1.974-8.386 2.59-11.47-.37.617-.616 1.172-.74 1.665-.123.494-.431 1.295-.925 2.405 0 .124-.123.555-.37 1.295-.123.617-.308 1.357-.555 2.22-.123.74-.308 1.48-.555 2.22-.123.617-.185.925-.185.925-.863.494-1.295.987-1.295 1.48-.123.247-.123.494 0 .74 0-.986.37-2.59 1.11-4.81s1.234-3.946 1.48-5.18c.247-.863.494-1.48.74-1.85.247-.493.494-.863.74-1.11.247-.37.432-.74.555-1.11.247-.37.494-1.048.74-2.0347 0-.6167 0-1.1717 0-1.6651.124-.4933.124-.8633 0-1.11-.616.8634-1.048 1.665-1.295 2.4051-.123.74-.493 1.5417-1.11 2.4047 0-.986.062-2.0347.185-3.1448.247-1.11.494-2.2816.74-3.515.124 0 .37-.185.74-.555.247-.37.37-.4933.37-.37 0 0-.061-.37-.185-1.11l-.185-.555c.987.1233 1.48-.2467 1.48-1.11 0-.8634.124-1.4184.37-1.6651.247-.2466.432-.555.555-.925.124-.37.062-.4316-.185-.185-.37.37-.493.37-.37 0 .124-.4933.309-1.11.555-1.85.37-.74.74-1.4183 1.11-2.035.37-.74.555-1.11.555-1.11.124-.2467.309-.6784.555-1.2951.247-.6166.432-1.11.555-1.48.124-.37.124-.4933 0-.37-.123 0-.493.4317-1.11 1.295 0 .1234-.246.555-.74 1.2951-.37.6166-.308.6783.185.185-.123-.1234-.123-.74 0-1.8501.247-1.11.555-1.9733.925-2.59.247-.2467.37-.8633.37-1.85.124-.9867.062-1.85-.185-2.59.37-1.9734.802-4.1318 1.295-6.4751.494-2.3434.925-4.6867 1.295-7.0301.494-2.3434.802-4.5634.925-6.6601.247-2.22.185-4.1317-.185-5.7351.74-.37 1.172-.6166 1.295-.74.124-.2466.185-.4316.185-.555.124-.1233.309-.2466.555-.37.37-.1233 1.049-.2466 2.035-.37 1.357-.2466 2.467-.2466 3.33 0 .987.1234 2.097.4317 3.33.925 4.07 1.6034 5.489 4.5634 4.255 8.8801-.493 1.6034-1.171 3.1451-2.035 4.6251-.74 1.3567-1.233 3.145-1.48 5.3651-.246 1.85-.308 3.9467-.185 6.29.247 2.3434.247 4.3784 0 6.1051-.74 4.3167-1.85 8.2634-3.33 11.8401-1.48 3.5768-2.713 7.4001-3.7 11.4699-.246 1.11-.863 2.714-1.85 4.81-.863 1.974-1.48 3.454-1.85 4.44-.123.987-.061 1.789.185 2.405.247.617.309 1.234.185 1.85-.246.74-.616 1.665-1.11 2.775-.37 1.11-.616 2.159-.74 3.146-.616 2.836-1.171 5.981-1.665 9.435-.493 3.33-.863 6.845-1.11 10.545.617.863.74 1.726.37 2.59-.246.74-.308 1.541-.185 2.405.124 1.356 0 2.405-.37 3.145-.246.74-.246 2.035 0 3.885v1.48c0 .74-.061 1.542-.185 2.405.124 2.837.309 5.488.555 7.955.247 2.467.74 4.748 1.48 6.845.494 1.357 1.049 2.097 1.665 2.22.617.247 1.295.062 2.035-.555.864-.617 1.789-1.542 2.775-2.775.987-1.11 2.159-2.22 3.515-3.33 4.07-3.7 7.709-7.77 10.916-12.21 3.33-4.44 6.783-8.757 10.36-12.95l19.98-24.791c.37-.493.617-.925.74-1.295.247-.37.432-.678.555-.925.123-.246.247-.493.37-.74.247-.246.617-.616 1.11-1.11 2.22-2.22 4.255-4.563 6.105-7.03 1.85-2.466 3.823-4.995 5.92-7.5848.493-.74.925-1.295 1.295-1.665.37-.4933.863-1.0483 1.48-1.665l8.695-11.1001c1.234-1.3567 3.145-3.7617 5.735-7.2151s5.242-7.1534 7.955-11.1001c2.837-3.9468 5.365-7.7701 7.585-11.4702 2.344-3.7 3.824-6.5984 4.441-8.6951.37-1.2333.74-2.1583 1.11-2.775.37-.74.74-1.3567 1.11-1.85.37-.6167.678-1.2334.925-1.8501.37-.74.678-1.7266.925-2.96zm-107.302 98.2365c0-.494 0-.555 0-.185.124.37.247.678.37.925-.246 1.11-.431 1.85-.555 2.22-.123.246-.185.493-.185.74 0 .123.062.37.185.74.247.246.555.863.925 1.85.247.74.37 1.233.37 1.48.124.123.062.431-.185.925-.246.493-.493 1.171-.74 2.035-.123.863-.246 1.788-.37 2.775-.123.987-.246 1.973-.37 2.96v2.035c.247 1.603.247 2.96 0 4.07-.123 1.11-.493 2.343-1.11 3.7-.123.247-.185 0-.185-.74.124-.863.247-1.788.37-2.775.124-1.11.185-2.158.185-3.145.124-1.11.185-1.788.185-2.035-.246-1.603-.123-3.453.37-5.55.494-2.097.617-3.454.37-4.07-.616-1.11-.925-1.974-.925-2.59 0-.74.062-1.357.185-1.85.247-.617.494-1.172.74-1.665.247-.494.37-1.11.37-1.85zm92.316-52.3559c.124.74.309 1.0483.555.925.37-.2467.74-.6784 1.11-1.295.37-.6167.74-1.2951 1.11-2.0351.494-.74.925-1.295 1.295-1.665.247-.2467.247-.555 0-.925zm-18.87 31.2649c.247-.493.185-.863-.185-1.11-.247-.246.123-.616 1.11-1.11.124 0 .185-.246.185-.74 0-.493-.555-.185-1.665.925-.617.37-.925.864-.925 1.48.123.494-.308 1.11-1.295 1.85-.247.247-.74.432-1.48.555-.74 0-1.357.864-1.85 2.59-.123.617-.493 1.234-1.11 1.85-.493.494-.863 1.049-1.11 1.666-.37 1.11-.925 1.788-1.665 2.035-.74.246-1.11.555-1.11.925-.247.246 0 0 .74-.74.863-.74 1.603-1.11 2.22-1.11.37 0 .617-.124.74-.37.123-.247.247-.555.37-.925s.247-.74.37-1.11c.247-.494.678-.926 1.295-1.296.37-.37.493-.863.37-1.48-.123-.616.062-.925.555-.925.123 0 .185.185.185.555s-.062.74-.185 1.11c-.123.247-.185.432-.185.555.123.124.37-.123.74-.74.493-.74.74-1.048.74-.925.123.124.123-.308 0-1.295-.123-.123.185-.308.925-.555.74-.37 1.233-.616 1.48-.74 0-.123 0 .062 0 .555.123.494.432.37.925-.37.123-.37.309-.493.555-.37.247.124.062-.061-.555-.555zm39.833-59.9403c2.714-.74 5.242-1.6033 7.585-2.59 2.344-.9867 4.872-2.0967 7.586-3.3301 2.713-1.2333 5.796-2.4667 9.25-3.7 3.453-1.2334 7.646-2.5284 12.58-3.885 3.207-.7401 6.598-1.3567 10.175-1.8501 3.577-.4933 7.092-1.1716 10.545-2.035 3.453-.9867 7.955-1.9733 13.505-2.96 5.674-.9867 11.532-1.9117 17.575-2.7751 6.044-.9866 11.902-1.85 17.576-2.59 5.673-.74 10.298-1.4183 13.875-2.035 2.96-.4934 6.537-.925 10.73-1.295 4.317-.4934 8.695-.925 13.135-1.295s8.757-.6167 12.95-.7401c4.317-.1233 8.017-.1233 11.1 0 .124 0 .802.555 2.035 1.6651 1.234 1.11 1.85 2.3433 1.85 3.7.124.37.124.8633 0 1.48-.123.4934-.246.925-.37 1.295-1.603.4934-4.686.9251-9.25 1.2951-4.44.37-9.496.8016-15.17 1.295-5.673.4933-11.47 1.11-17.39 1.85-5.797.6167-10.915 1.48-15.355 2.59s-9.004 1.9117-13.69 2.4051c-4.564.4933-8.942 1.3566-13.136 2.59-1.726.4933-3.021 1.1717-3.885 2.035-.863.8634-1.665 2.0967-2.405 3.7001-.616 1.6033-1.295 3.6383-2.035 6.105-.74 2.3434-1.788 5.3034-3.145 8.8801-1.603 4.0701-3.576 9.0651-5.92 14.9852-2.343 5.9201-4.872 12.0868-7.585 18.5002-2.713 6.4138-5.427 12.6418-8.14 18.6848-2.59 6.044-4.933 11.162-7.03 15.356l-9.435 22.57c1.11 0 2.528-.123 4.255-.37 1.85-.247 3.762-.555 5.735-.925 2.097-.37 4.07-.74 5.92-1.11 1.973-.37 3.7-.617 5.18-.74 4.07-.247 7.215-.37 9.435-.37 2.22-.123 3.824.062 4.81.555 1.11.37 1.665 1.11 1.665 2.22.124 1.11.062 2.713-.185 4.81-1.973.617-4.378 1.11-7.215 1.48-2.713.37-5.735.802-9.065 1.295-3.207.493-6.722 1.172-10.545 2.035-3.7.987-7.585 2.282-11.655 3.885-1.48.617-2.652 1.048-3.515 1.295-.74.37-1.295.74-1.665 1.11-.37.493-.74 1.172-1.11 2.035-.247.863-.679 2.097-1.295 3.7-.494 1.357-1.11 3.207-1.85 5.55-.74 2.344-1.542 4.687-2.405 7.03-.74 2.467-1.48 4.687-2.22 6.66-.74 2.097-1.295 3.392-1.665 3.885-1.357 1.974-2.899 3.207-4.625 3.7-1.604.617-3.207.062-4.81-1.665-.617-.74-1.049-1.726-1.295-2.96-.247-1.11-.432-2.343-.556-3.7 0-1.356.062-2.775.185-4.255.124-1.356.186-2.59.186-3.7.493-.246.74-.431.74-.555 0-.123-.124-.185-.37-.185-.124 0-.247.062-.37.185 0 .124.246.37.74.74.616.494.74.679.37.555-.247 0-.247.062 0 .185l-1.296-6.29c-1.85.494-3.885.802-6.105.925-2.096.247-4.07-.308-5.92-1.665-.986-.74-1.541-1.233-1.665-1.48-.123-.123-.123-.308 0-.555 0-.123-.061-.431-.185-.925-.123-.37-.678-1.172-1.665-2.405l-2.59-3.33c1.48-.123 2.652-.123 3.515 0 .864.123 1.665.185 2.405.185.617 0 1.295-.123 2.035-.37.617-.247 1.419-.802 2.405-1.665 1.234-.987 2.775-2.035 4.625-3.145 1.974-.987 3.824-1.912 5.551-2.775 1.85-.863 3.453-1.603 4.81-2.22 1.356-.617 2.158-1.048 2.405-1.295.493-.493.678-.678.555-.555 0 .123.061.062.185-.185-.617.123-1.234.247-1.85.37-.494 0-1.049.185-1.665.555-.247.123-.617.308-1.11.555-.37.247-.555.432-.555.555-.247.123-.617.308-1.11.555-.37.123-.74.308-1.11.555.37-.74 1.356-1.542 2.96-2.405 1.603-.987 2.836-1.603 3.7-1.85.246-.247.801-.493 1.665-.74.246-.617.431-1.172.555-1.665.246-.617.493-1.233.74-1.85.863-1.973 1.911-4.07 3.145-6.29 1.233-2.344 2.466-4.687 3.7-7.03 1.233-2.344 2.343-4.564 3.33-6.66 1.11-2.097 1.85-3.885 2.22-5.365.493-1.604 1.541-4.132 3.145-7.586 1.603-3.453 3.268-7.03 4.995-10.73s3.268-7.091 4.625-10.1747c1.48-3.2068 2.343-5.3034 2.59-6.2901.493-1.7267.863-3.0834 1.11-4.0701.37-.9867.925-2.5283 1.665-4.625 2.097-6.1668 4.44-12.0868 7.03-17.7602 2.713-5.7968 5.118-12.1485 7.215-19.0553l-.74.185c-.37.6167-.74 1.2951-1.11 2.0351-.37.6166-.555 1.295-.555 2.035 0 .37-.185 1.0483-.555 2.035-.247.9867-.617 2.0967-1.11 3.33-.37 1.1101-.802 2.1584-1.295 3.1451-.37.9867-.678 1.6033-.925 1.85-.493.37-1.048 1.11-1.665 2.22-.493 1.1101-.987 2.3434-1.48 3.7001s-.925 2.6517-1.295 3.885c-.37 1.2334-.555 2.1584-.555 2.7751 0 1.6033-.247 2.59-.74 2.96s-.987.8633-1.48 1.48-.925 1.2334-1.295 1.85c-.247.4934-.062-.185.555-2.035.493-1.11.925-2.035 1.295-2.775s.678-1.48.925-2.2201c.37-.74.678-1.5416.925-2.405.37-.8633.74-2.035 1.11-3.515.493-2.0967 1.542-4.2551 3.145-6.4751 1.603-2.3434 2.528-4.1317 2.775-5.3651.123-1.11.493-2.4667 1.11-4.07.617-1.7267 1.11-3.2067 1.48-4.4401-6.537.74-12.58 2.0967-18.13 4.0701-5.427 1.9733-10.36 3.9467-14.8 5.9201-4.317 1.9733-8.14 3.7-11.47 5.18s-6.105 2.1584-8.325 2.035c-4.934-.2466-8.387-2.4667-10.361-6.66-.123 0-.246-.185-.37-.555zm9.991 108.5963c-.124 0-.185.062-.185.185-.124.123-.186.247-.186.37-.37.247-.986.555-1.85.925-.863.493-1.788.987-2.775 1.48-.863.493-1.726.925-2.59 1.295-.74.37-1.171.555-1.295.555-.863.247-1.418.37-1.665.37-.246.123-.37.247-.37.37v.37c-.123.123-.431.308-.925.555-.616.37-.925.493-.925.37s-.123-.185-.37-.185c0-1.11.617-1.788 1.85-2.035 1.11-.123 2.097-.37 2.96-.74.37-.247.987-.555 1.85-.925.864-.37 1.727-.802 2.59-1.295.864-.37 1.665-.74 2.405-1.11.74-.247 1.234-.432 1.481-.555z" fill="#ffda1a"/></g></svg>