<svg fill="none" height="335" viewBox="0 0 729 335" width="729" xmlns="http://www.w3.org/2000/svg"><path d="m653.253 43.4744c-96.776-25.8436-194.327-35.27498-294.03-36.41648-89.314-1.02255-211.288-20.05592-291.4767 34.16858-40.4029 27.3207-73.75983 96.9445-62.55049 147.9135 7.60829 34.596 27.23569 63.646 56.80609 80.926 71.6921 41.894 166.4451 49.686 246.3721 56.648 88.523 7.71 186.404 10.811 271.903-18.209 35.718-12.123 69.593-30.677 100.634-52.826 14.07-10.039 36.033-24.777 42.552-42.935 12.56-34.986-24.452-84.355-46.594-105.878-32.048-31.1518-69.497-46.2986-111.697-51.2528" stroke="#30e1b9" stroke-linecap="round" stroke-linejoin="round" stroke-width="6"/></svg>