<svg fill="none" height="75" viewBox="0 0 485 75" width="485" xmlns="http://www.w3.org/2000/svg"><path d="m437.945 14.3485c-59.937-5.25348-120.353-7.1707-182.103-7.40274-55.316-.20786-164.5921-11.02307-214.2562-.00033-25.0231 5.55377-45.14149 31.45107-38.19913 41.81217 4.7121 7.0325 29.96543 15.9538 48.27943 19.4664 44.4016 8.5163 123.1809 2.2862 172.6829 3.7014 54.826 1.5674 115.447 2.1978 168.4-3.7014 22.121-2.4643 43.101-6.2361 62.326-10.7385 8.714-2.0407 22.316-5.0367 26.354-8.7279 7.778-7.112-15.144-17.1477-28.858-21.5228-14.626-12.8863-43.042-9.4116-69.178-10.4187" stroke="#30e1b9" stroke-linecap="round" stroke-linejoin="round" stroke-width="4"/></svg>