<svg fill="none" height="165" viewBox="0 0 165 165" width="165" xmlns="http://www.w3.org/2000/svg"><path d="m82.38 164.76c45.497 0 82.38-36.883 82.38-82.38 0-45.4972-36.883-82.38-82.38-82.38-45.4972 0-82.38 36.8828-82.38 82.38 0 45.497 36.8828 82.38 82.38 82.38z" fill="#3bd4ae"/><path d="m119.86 60.7502c-1.25-1.73-3.93-1.93-5.79-2.71-2.54-1.06-4.9-2.3901-6.98-4.2101-1.26-1.09-2.47-2.47-2.58-4.13-.16-2.34 1.88-4.3 2.1-6.64.2-2.19-1.48-4.38-3.65-4.75.77-1.97.09-4.4099-1.59-5.6899-1.6799-1.28-4.2099-1.3001-5.9099-.0301-.22.17-.45.36-.72.4-.76.11-1.1-.89-1.38-1.61-1.04-2.67-4.75-3.43-7.34-2.19-2.59 1.23-4.25 3.81-5.58 6.34-.56-3.17-4.69-4.89-7.58-3.47s-4.16 5.18-3.25 8.27c-2.98-1.37-6.89-.2299-8.66 2.5401s-1.17 6.7999 1.33 8.9299c-2.63.02-4.86 2.58-4.82 5.21s2.07 5.01 4.59 5.79c-1.68.97-2.95 2.77-2.96 4.72-.01 1.94 1.45 3.8901 3.38 4.1201.62.08 1.33.0099 1.79.4399.26.24.38.6.49.94.63 1.95 1.25 3.91 1.88 5.86l-1.07-.1999c-3.42-1.03-5.88-3.9201-8.43-6.4201-2.55-2.51-5.8-4.88-9.34-4.4499-2.77.34-5.11 2.4199-6.35 4.9199-1.25 2.5-1.55 5.36-1.53 8.15.04 6.5201 1.87 13.3101 6.45 17.9401 1.1 1.11 2.42 2.1098 3.97 2.2898 2.35.27 5.69-4.0899 7.46-5.6599 2.5-2.2099 3.01-2.54 6.26-3.94-2.88 4.01-5.77 8.2001-6.85 13.0099-.7 3.13-.6 6.38-.16 9.56.79 5.75 2.75 11.44 6.36 15.97 3.62 4.54 9.03 7.81 14.82 8.09 4.82.24 9.59-.35 14.04-2.21 2.32-.97 4.59-3.19 6.36-4.97 2.2699-2.29 3.2799-5.53 3.9799-8.68.47-2.11.82-4.29.42-6.41-.7-3.68-3.8099-6.71-7.4499-7.59-3.64-.87-7.65.32-10.42 2.85-1.95 1.78-3.33 4.77-1.98 7.04.39.66 1.1 1.22 1.85 1.1.61-.1 1.06-.6 1.47-1.05 1.38-1.49 3.64-2.79 5.32-1.65.99.67 1.58 3.64 1.32 4.8s-1.05 2.14-1.96 2.91c-3.47 2.93-9.32 1.26-12.74-1.74-3.42-2.99-4.21-8.55-1.76-12.38 4.09-6.4 14.02-6.08 19.21-11.6298 3.15-3.3701 4.9599-7.97 5.1699-12.5801.11-2.5-.92-5.38-1.7199-7.75-1.24-3.65-4.19-6.4599-7.35-8.68-3.16-2.22-6.62-3.9999-9.59-6.4499-2.35-1.94-4.47-4.5501-4.56-7.6001-.05-1.83.69-3.68 2-4.96l.63-.36c1.47 5.2 7.25 8.7801 12.56 7.7801.79-.15 1.62-.3901 2.39-.1501.58.18 1.05.6101 1.5 1.0101 3.2299 2.88 6.9699 5.3199 11.0999 6.6799 3.17 1.04 9.06 2.37 11.73-.5 1.03-1.12 1.01-2.9899.12-4.2199zm-25.4899-13.6001c-.42.32-.92.56-1.44.61-1.24.12-2.31-.8-3.22-1.65-.34-.32-.68-.64-.89-1.06-.18-.35-.25-.75-.25-1.14-.02-1.26.68-2.5 1.76-3.14s2.51-.66 3.6-.04l-.5.02c1.31.32 2.33 1.5301 2.49 2.8701.17 1.33-.48 2.7199-1.55 3.5299z" fill="#211a39"/></svg>